<?xml version="1.0" encoding="utf-8"?>
<!-- Generator: Adobe Illustrator 25.4.1, SVG Export Plug-In . SVG Version: 6.00 Build 0)  -->
<svg version="1.1" id="Layer_1" xmlns="http://www.w3.org/2000/svg" xmlns:xlink="http://www.w3.org/1999/xlink" x="0px" y="0px"
	 viewBox="0 0 317.5 266.6" style="enable-background:new 0 0 317.5 266.6;" xml:space="preserve">
<style type="text/css">
	.st0{fill:#1F3366;}
	.st1{fill:#FFFFFF;}
	.st2{fill:#4095AB;}
</style>
<g>
	<circle class="st0" cx="157.4" cy="129.1" r="102.6"/>
</g>
<g>
	<path class="st1" d="M84.7,116.8c0,1.4-0.5,2.7-1.3,3.6c-0.8,1-2.1,1.6-3.6,2.1v0.1c1.9,0.2,3.2,0.8,4.2,1.6
		c0.9,0.9,1.4,2.1,1.4,3.6c0,2.2-0.8,3.8-2.3,5.1c-1.6,1.2-3.8,1.9-6.7,1.9c-2.4,0-4.6-0.5-6.5-1.3v-4.1c0.9,0.5,1.9,0.8,2.9,1
		s2.1,0.5,3.1,0.5c1.6,0,2.8-0.2,3.5-0.8c0.7-0.6,1.2-1.4,1.2-2.6c0-1-0.5-1.9-1.3-2.2c-0.8-0.3-2.2-0.7-4.2-0.7h-1.7V121H75
		c1.7,0,3-0.2,3.8-0.7S80,119,80,118c0-1.7-1-2.6-3.2-2.6c-0.7,0-1.5,0.1-2.3,0.3c-0.8,0.2-1.6,0.7-2.6,1.3l-2.2-3.2
		c2.1-1.5,4.5-2.2,7.4-2.2c2.3,0,4.2,0.5,5.6,1.4C84.1,113.9,84.7,115.1,84.7,116.8z"/>
	<path class="st1" d="M104.2,129.7h-2.7v4.6h-4.6v-4.6h-9.6v-3.4l10-14.6h4.4V126h2.7v3.7H104.2z M96.7,126v-3.8
		c0-0.7,0-1.6,0.1-2.8c0.1-1.2,0.1-2,0.1-2.1h-0.1c-0.3,0.8-0.8,1.6-1.4,2.4l-4.2,6.3C91.3,126,96.7,126,96.7,126z"/>
	<path class="st1" d="M114.1,119.8c2.2,0,3.9,0.6,5.2,1.9c1.3,1.3,2,2.9,2,5c0,2.6-0.8,4.5-2.3,5.8c-1.5,1.3-3.8,2.1-6.7,2.1
		c-2.6,0-4.5-0.5-6.2-1.3v-4.2c0.8,0.5,1.7,0.8,2.9,1c1,0.2,2.1,0.5,3.1,0.5c2.9,0,4.4-1.2,4.4-3.6c0-2.3-1.5-3.4-4.5-3.4
		c-0.6,0-1.2,0-1.9,0.1c-0.7,0.1-1.2,0.2-1.6,0.3l-1.9-1l0.8-11.5h12.3v4.1h-8.1l-0.5,4.4l0.6-0.1
		C112.4,119.9,113.2,119.8,114.1,119.8z"/>
	<path class="st1" d="M143.4,134.3l-5.5-17.8h-0.1c0.2,3.6,0.3,6,0.3,7.2v10.6h-4.3v-22.6h6.5l5.3,17.3h0.1l5.7-17.3h6.5v22.6h-4.5
		v-10.7c0-0.5,0-1,0-1.7s0.1-2.4,0.2-5.2h-0.1l-5.8,17.8h-4.4v-0.2H143.4z"/>
	<path class="st1" d="M163.1,112.5c0-1.5,0.8-2.3,2.6-2.3c1.7,0,2.6,0.8,2.6,2.3c0,0.7-0.2,1.3-0.7,1.7c-0.5,0.5-1,0.6-2,0.6
		C163.9,114.8,163.1,114.1,163.1,112.5z M168.1,134.3h-4.8V117h4.8V134.3z"/>
	<path class="st1" d="M177.7,134.3H173v-24.1h4.8v24.1H177.7z"/>
	<path class="st1" d="M187.4,134.3h-4.8v-24.1h4.8V134.3z"/>
	<path class="st1" d="M192.1,112.5c0-1.5,0.8-2.3,2.6-2.3c1.7,0,2.6,0.8,2.6,2.3c0,0.7-0.2,1.3-0.7,1.7c-0.5,0.5-1,0.6-2,0.6
		C193.1,114.8,192.1,114.1,192.1,112.5z M197.1,134.3h-4.8V117h4.8V134.3z"/>
	<path class="st1" d="M217.8,125.6c0,2.8-0.7,5-2.2,6.6s-3.6,2.4-6.2,2.4c-1.6,0-3.1-0.3-4.4-1c-1.3-0.7-2.2-1.7-2.9-3.1
		s-1-2.9-1-4.8c0-2.8,0.7-5,2.2-6.6s3.6-2.3,6.3-2.3c1.6,0,3.1,0.3,4.4,1c1.3,0.7,2.2,1.7,2.9,3.1
		C217.5,122.4,217.8,123.9,217.8,125.6z M205.8,125.6c0,1.7,0.2,3,0.8,3.8c0.6,0.8,1.5,1.3,2.8,1.3s2.2-0.5,2.7-1.3
		c0.6-0.9,0.8-2.2,0.8-3.9s-0.2-3-0.8-3.8s-1.5-1.3-2.8-1.3s-2.2,0.5-2.7,1.3C206,122.6,205.8,123.9,205.8,125.6z"/>
	<path class="st1" d="M237.6,134.3h-4.8v-10.1c0-1.3-0.2-2.2-0.7-2.8s-1.2-0.9-2.1-0.9c-1.3,0-2.3,0.5-2.9,1.3
		c-0.6,0.9-0.9,2.3-0.9,4.4v8.1h-4.8V117h3.6l0.6,2.2h0.2c0.6-0.8,1.3-1.5,2.2-1.9c0.9-0.3,2-0.7,3.1-0.7c2,0,3.6,0.6,4.5,1.6
		c1,1,1.5,2.7,1.5,4.8v11.3H237.6z"/>
</g>
<path class="st2" d="M246.1,226.3c-6.5,6.4-13.7,12.1-21.3,16.9c-7.4,4.8-15.3,8.8-23.5,12c-8,3.2-16.4,5.6-24.9,7.1
	c-8.4,1.5-17,2.3-25.6,2.2c-8.6-0.1-17.1-1-25.5-2.7c-8.5-1.7-16.8-4.3-24.7-7.6c-8.1-3.4-15.9-7.6-23.1-12.5
	c-7.4-5-14.4-10.9-20.7-17.3c-6.3-6.5-12-13.6-16.8-21.1c-4.7-7.4-8.7-15.3-11.9-23.4c-3.1-8-5.4-16.4-6.9-24.9
	c-1.5-8.4-2.2-17-2-25.6c0.1-8.6,1.1-17.1,2.9-25.5c1.8-8.5,4.4-16.8,7.8-24.7c3.4-8.1,7.7-15.9,12.7-23.2
	c10-14.9,23.4-28,38.6-37.7c7.4-4.8,15.3-8.8,23.5-12c8-3.2,16.4-5.6,24.9-7.1c10.3-1.9,20.2,4.9,22,15.2s-5.1,20.2-15.4,22.1
	c-6.1,1.1-12.1,2.8-17.9,5.1c-5.9,2.3-11.5,5.2-16.8,8.6c-10.9,7-20.5,16.4-27.8,27.1c-3.5,5.2-6.6,10.8-9,16.6
	c-2.4,5.7-4.3,11.7-5.6,17.7s-2,12.2-2.1,18.3s0.4,12.3,1.5,18.4c1.1,6.1,2.7,12.1,5,17.8c2.3,5.8,5.1,11.5,8.5,16.7
	c3.5,5.4,7.5,10.5,12.1,15.2c4.5,4.7,9.5,8.8,14.9,12.5c5.2,3.5,10.7,6.5,16.5,8.9c5.7,2.4,11.6,4.2,17.7,5.4
	c6,1.2,12.2,1.9,18.3,1.9c6.1,0.1,12.3-0.5,18.4-1.6c6.1-1.1,12.1-2.8,17.9-5.1c5.9-2.3,11.5-5.2,16.8-8.6
	c10.9-7,20.5-16.4,27.8-27.1c3.5-5.2,6.6-10.8,9-16.6c2.4-5.7,4.3-11.7,5.6-17.7s2-12.2,2.1-18.3c0.1-6.1-0.4-12.3-1.5-18.4
	c-1.8-10.3,5.1-20.2,15.4-22.1c10.3-1.9,20.2,4.9,22,15.2c1.5,8.4,2.2,17,2,25.6c-0.1,8.6-1.1,17.1-2.9,25.5
	c-1.8,8.5-4.4,16.8-7.8,24.7c-3.4,8.1-7.7,15.9-12.7,23.2C258.5,213,252.6,220,246.1,226.3z"/>
<g>
	<path class="st1" d="M123.1,153.3c0.9-0.1,2-0.3,3.4-0.3c1.8,0,3.1,0.4,3.9,1.1c0.8,0.7,1.2,1.7,1.2,2.9c0,1.3-0.4,2.2-1.1,3
		c-0.9,1-2.5,1.5-4.2,1.5c-0.5,0-1,0-1.4-0.1v5.5h-1.8V153.3z M124.8,160c0.4,0.1,0.9,0.1,1.5,0.1c2.2,0,3.5-1,3.5-3
		c0-1.8-1.3-2.7-3.3-2.7c-0.8,0-1.4,0.1-1.7,0.1V160z"/>
	<path class="st1" d="M134.4,162.3c0,2.4,1.6,3.4,3.4,3.4c1.3,0,2.1-0.2,2.7-0.5l0.3,1.3c-0.6,0.3-1.7,0.6-3.3,0.6
		c-3.1,0-4.9-2-4.9-5s1.8-5.4,4.7-5.4c3.2,0,4.1,2.9,4.1,4.7c0,0.4,0,0.7-0.1,0.8H134.4z M139.7,161c0-1.1-0.5-2.9-2.5-2.9
		c-1.8,0-2.6,1.7-2.8,2.9H139.7z"/>
	<path class="st1" d="M152.6,161.9c0,3.7-2.5,5.3-4.9,5.3c-2.7,0-4.8-2-4.8-5.1c0-3.3,2.2-5.3,4.9-5.3
		C150.7,156.8,152.6,158.9,152.6,161.9z M144.8,162c0,2.2,1.3,3.8,3,3.8c1.7,0,3-1.6,3-3.9c0-1.7-0.8-3.8-3-3.8
		S144.8,160.1,144.8,162z"/>
	<path class="st1" d="M154.9,160.3c0-1.3,0-2.3-0.1-3.2h1.6l0.1,1.7h0c0.7-1.2,1.9-1.9,3.5-1.9c2.4,0,4.2,2,4.2,5
		c0,3.6-2.2,5.3-4.5,5.3c-1.3,0-2.5-0.6-3.1-1.6h0v5.4h-1.8V160.3z M156.7,162.9c0,0.3,0,0.5,0.1,0.7c0.3,1.3,1.4,2.1,2.7,2.1
		c1.9,0,3-1.6,3-3.8c0-2-1-3.7-3-3.7c-1.2,0-2.4,0.9-2.7,2.2c-0.1,0.2-0.1,0.5-0.1,0.7V162.9z"/>
	<path class="st1" d="M166.6,152.4h1.8v14.6h-1.8V152.4z"/>
	<path class="st1" d="M172.4,162.3c0,2.4,1.6,3.4,3.4,3.4c1.3,0,2.1-0.2,2.7-0.5l0.3,1.3c-0.6,0.3-1.7,0.6-3.3,0.6
		c-3.1,0-4.9-2-4.9-5s1.8-5.4,4.7-5.4c3.2,0,4.1,2.9,4.1,4.7c0,0.4,0,0.7-0.1,0.8H172.4z M177.7,161c0-1.1-0.5-2.9-2.5-2.9
		c-1.8,0-2.6,1.7-2.8,2.9H177.7z"/>
</g>
</svg>
