<?xml version="1.0" encoding="utf-8"?>
<!-- Generator: Adobe Illustrator 25.4.1, SVG Export Plug-In . SVG Version: 6.00 Build 0)  -->
<svg version="1.1" id="Layer_1" xmlns="http://www.w3.org/2000/svg" xmlns:xlink="http://www.w3.org/1999/xlink" x="0px" y="0px"
	 viewBox="0 0 165 169.5" style="enable-background:new 0 0 165 169.5;" xml:space="preserve">
<style type="text/css">
	.st0{fill:#1F3366;}
	.st1{fill:#3E95AA;}
	.st2{fill:#203366;}
	.st3{fill:#FFFFFF;}
</style>
<path class="st0" d="M276.4-44.6"/>
<ellipse class="st1" cx="76.7" cy="82" rx="69.6" ry="69.1"/>
<path class="st2" d="M154.6,97.5c-2.2,1.7-5,2.5-7.9,2.1c-5.8-0.8-9.9-6.2-9.1-12c0.5-3.4,0.6-6.9,0.4-10.4c-0.2-3.5-0.7-7-1.6-10.3
	c-0.9-3.4-2.1-6.8-3.6-10c-1.6-3.3-3.5-6.4-5.7-9.3c-2.2-2.9-4.7-5.6-7.5-8c-2.7-2.3-5.6-4.4-8.6-6.2c-3-1.7-6.2-3.2-9.5-4.3
	c-3.3-1.1-6.7-1.9-10.1-2.4c-5.8-0.8-9.9-6.2-9.1-12s6.2-9.9,12-9.1c4.8,0.7,9.5,1.8,14.1,3.3c4.6,1.6,9.1,3.6,13.3,6
	c4.3,2.5,8.4,5.4,12.1,8.6c3.8,3.3,7.3,7.1,10.4,11.2c3.1,4.1,5.8,8.5,8,13c2.1,4.5,3.8,9.2,5.1,13.9c1.2,4.7,1.9,9.6,2.2,14.4
	s0.1,9.7-0.6,14.5C158.3,93.3,156.8,95.8,154.6,97.5z"/>
<g>
	<path class="st3" d="M52.7,59.7L52.7,59.7l-7.3,3.4l-1.5-6.6l10-4.6h7.3v37.7h-8.5V59.7z"/>
	<path class="st3" d="M97.7,58.1c-1-0.1-2,0-3.4,0.1c-7.8,0.6-11.3,4.6-12.3,9h0.2c1.9-1.9,4.5-3,8-3c6.3,0,11.7,4.5,11.7,12.3
		c0,7.5-5.7,13.6-13.9,13.6c-10,0-15-7.5-15-16.5c0-7.1,2.6-13,6.7-16.8c3.8-3.4,8.6-5.3,14.6-5.6c1.6-0.1,2.7-0.1,3.5-0.1
		L97.7,58.1L97.7,58.1z M92.9,77.1c0-3.5-1.9-6.5-5.6-6.5c-2.4,0-4.3,1.4-5.2,3.4c-0.2,0.5-0.3,1.2-0.3,2.2c0.2,4,2.1,7.6,6.1,7.6
		C90.9,83.7,92.9,80.9,92.9,77.1z"/>
</g>
<g>
	<path class="st3" d="M37.3,109.7c0.5,0.3,1.2,0.6,2,0.6c1.1,0,1.8-0.6,1.8-1.5c0-0.8-0.5-1.3-1.6-1.7c-1.4-0.5-2.3-1.2-2.3-2.4
		c0-1.3,1.1-2.3,2.8-2.3c0.9,0,1.5,0.2,1.9,0.4l-0.3,0.9c-0.3-0.2-0.9-0.4-1.6-0.4c-1.2,0-1.6,0.7-1.6,1.3c0,0.8,0.5,1.2,1.7,1.7
		c1.5,0.6,2.2,1.3,2.2,2.5c0,1.3-1,2.5-3,2.5c-0.8,0-1.7-0.2-2.2-0.5L37.3,109.7z"/>
	<path class="st3" d="M45.1,108.3l-0.9,2.7h-1.1l2.9-8.6h1.3l2.9,8.6h-1.2l-0.9-2.7H45.1z M47.9,107.5l-0.8-2.5
		c-0.2-0.6-0.3-1.1-0.4-1.6h0c-0.1,0.5-0.3,1-0.4,1.6l-0.8,2.5H47.9z"/>
	<path class="st3" d="M51.5,102.6c0.7-0.1,1.5-0.2,2.4-0.2c1.6,0,2.7,0.4,3.5,1.1c0.8,0.7,1.2,1.7,1.2,3.1c0,1.4-0.4,2.5-1.2,3.3
		c-0.8,0.8-2.1,1.2-3.8,1.2c-0.8,0-1.5,0-2-0.1V102.6z M52.6,110.2c0.3,0.1,0.7,0.1,1.1,0.1c2.4,0,3.7-1.3,3.7-3.6
		c0-2-1.1-3.3-3.5-3.3c-0.6,0-1,0.1-1.3,0.1V110.2z"/>
	<path class="st3" d="M66,110.8c-0.4,0.2-1.2,0.4-2.3,0.4c-2.4,0-4.2-1.5-4.2-4.3c0-2.7,1.8-4.5,4.5-4.5c1.1,0,1.7,0.2,2,0.4
		l-0.3,0.9c-0.4-0.2-1-0.4-1.7-0.4c-2,0-3.3,1.3-3.3,3.5c0,2.1,1.2,3.4,3.3,3.4c0.7,0,1.4-0.1,1.8-0.4L66,110.8z"/>
	<path class="st3" d="M77.3,107.3c-0.1-1.2-0.1-2.6-0.1-3.7h0c-0.3,1-0.6,2.1-1.1,3.3l-1.5,4.2h-0.8l-1.4-4.1
		c-0.4-1.2-0.8-2.3-1-3.3h0c0,1.1-0.1,2.5-0.2,3.8l-0.2,3.7h-1.1l0.6-8.6h1.4l1.5,4.1c0.4,1.1,0.6,2,0.9,2.9h0
		c0.2-0.9,0.5-1.8,0.9-2.9l1.5-4.1h1.4l0.5,8.6h-1.1L77.3,107.3z"/>
	<path class="st3" d="M81,108.2c0,1.5,1,2.1,2.1,2.1c0.8,0,1.3-0.1,1.7-0.3l0.2,0.8c-0.4,0.2-1.1,0.4-2,0.4c-1.9,0-3-1.2-3-3.1
		c0-1.9,1.1-3.3,2.9-3.3c2,0,2.5,1.8,2.5,2.9c0,0.2,0,0.4,0,0.5H81z M84.3,107.4c0-0.7-0.3-1.8-1.6-1.8c-1.1,0-1.6,1-1.7,1.8H84.3z"
		/>
	<path class="st3" d="M86.7,106.5c0-0.6,0-1.2-0.1-1.7h1l0.1,1h0c0.3-0.6,0.9-1.1,1.9-1.1c0.8,0,1.5,0.5,1.7,1.2h0
		c0.2-0.3,0.4-0.6,0.7-0.8c0.4-0.3,0.8-0.4,1.4-0.4c0.8,0,2,0.5,2,2.7v3.6h-1.1v-3.5c0-1.2-0.4-1.9-1.3-1.9c-0.6,0-1.1,0.5-1.3,1
		c-0.1,0.2-0.1,0.4-0.1,0.6v3.8h-1.1v-3.7c0-1-0.4-1.7-1.3-1.7c-0.7,0-1.2,0.6-1.4,1.1c-0.1,0.2-0.1,0.4-0.1,0.5v3.7h-1.1V106.5z"/>
	<path class="st3" d="M97.3,111c0-0.4,0.1-1,0.1-1.6V102h1.1v3.9h0c0.4-0.7,1.1-1.1,2.1-1.1c1.5,0,2.6,1.3,2.6,3.1
		c0,2.2-1.4,3.3-2.8,3.3c-0.9,0-1.6-0.3-2.1-1.2h0l-0.1,1H97.3z M98.4,108.6c0,0.1,0,0.3,0.1,0.4c0.2,0.8,0.9,1.3,1.7,1.3
		c1.2,0,1.9-1,1.9-2.4c0-1.2-0.6-2.3-1.8-2.3c-0.8,0-1.5,0.5-1.7,1.4c0,0.1-0.1,0.3-0.1,0.5V108.6z"/>
	<path class="st3" d="M105.2,108.2c0,1.5,1,2.1,2.1,2.1c0.8,0,1.3-0.1,1.7-0.3l0.2,0.8c-0.4,0.2-1.1,0.4-2,0.4c-1.9,0-3-1.2-3-3.1
		c0-1.9,1.1-3.3,2.9-3.3c2,0,2.5,1.8,2.5,2.9c0,0.2,0,0.4,0,0.5H105.2z M108.5,107.4c0-0.7-0.3-1.8-1.6-1.8c-1.1,0-1.6,1-1.7,1.8
		H108.5z"/>
	<path class="st3" d="M111,106.8c0-0.7,0-1.3-0.1-1.9h1l0,1.2h0.1c0.3-0.8,1-1.3,1.7-1.3c0.1,0,0.2,0,0.3,0v1.1c-0.1,0-0.2,0-0.4,0
		c-0.8,0-1.3,0.6-1.5,1.4c0,0.2-0.1,0.3-0.1,0.5v3.3H111V106.8z"/>
	<path class="st3" d="M61.5,125c0.5,0.3,1.2,0.6,2,0.6c1.1,0,1.8-0.6,1.8-1.5c0-0.8-0.5-1.3-1.6-1.7c-1.4-0.5-2.3-1.2-2.3-2.4
		c0-1.3,1.1-2.3,2.8-2.3c0.9,0,1.5,0.2,1.9,0.4l-0.3,0.9c-0.3-0.2-0.9-0.4-1.6-0.4c-1.2,0-1.6,0.7-1.6,1.3c0,0.8,0.5,1.2,1.7,1.7
		c1.5,0.6,2.2,1.3,2.2,2.5c0,1.3-1,2.5-3,2.5c-0.8,0-1.7-0.2-2.2-0.5L61.5,125z"/>
	<path class="st3" d="M69.2,118.4v1.8h1.6v0.9h-1.6v3.3c0,0.8,0.2,1.2,0.8,1.2c0.3,0,0.5,0,0.6-0.1l0.1,0.8c-0.2,0.1-0.6,0.2-1,0.2
		c-0.5,0-0.9-0.2-1.2-0.5c-0.3-0.3-0.4-0.9-0.4-1.6V121h-1v-0.9h1v-1.5L69.2,118.4z"/>
	<path class="st3" d="M75.4,126.3l-0.1-0.8h0c-0.3,0.5-1,0.9-1.9,0.9c-1.2,0-1.9-0.9-1.9-1.8c0-1.5,1.3-2.3,3.7-2.3v-0.1
		c0-0.5-0.1-1.4-1.4-1.4c-0.6,0-1.2,0.2-1.6,0.5l-0.3-0.7c0.5-0.3,1.2-0.5,2-0.5c1.9,0,2.3,1.3,2.3,2.5v2.3c0,0.5,0,1.1,0.1,1.5
		H75.4z M75.3,123.2c-1.2,0-2.6,0.2-2.6,1.4c0,0.7,0.5,1.1,1.1,1.1c0.8,0,1.3-0.5,1.5-1c0-0.1,0.1-0.2,0.1-0.4V123.2z"/>
	<path class="st3" d="M79.5,118.4v1.8h1.6v0.9h-1.6v3.3c0,0.8,0.2,1.2,0.8,1.2c0.3,0,0.5,0,0.6-0.1l0.1,0.8c-0.2,0.1-0.6,0.2-1,0.2
		c-0.5,0-0.9-0.2-1.2-0.5c-0.3-0.3-0.4-0.9-0.4-1.6V121h-1v-0.9h1v-1.5L79.5,118.4z"/>
	<path class="st3" d="M82.9,123.4c0,1.5,1,2.1,2.1,2.1c0.8,0,1.3-0.1,1.7-0.3l0.2,0.8c-0.4,0.2-1.1,0.4-2,0.4c-1.9,0-3-1.2-3-3.1
		c0-1.9,1.1-3.3,2.9-3.3c2,0,2.5,1.8,2.5,2.9c0,0.2,0,0.4,0,0.5H82.9z M86.2,122.6c0-0.7-0.3-1.8-1.6-1.8c-1.1,0-1.6,1-1.7,1.8H86.2
		z"/>
	<path class="st3" d="M88.5,125.2c0.3,0.2,0.9,0.4,1.5,0.4c0.8,0,1.2-0.4,1.2-0.9c0-0.5-0.3-0.8-1.1-1.1c-1.1-0.4-1.6-1-1.6-1.7
		c0-1,0.8-1.8,2.1-1.8c0.6,0,1.2,0.2,1.5,0.4l-0.3,0.8c-0.2-0.2-0.7-0.4-1.3-0.4c-0.7,0-1,0.4-1,0.8c0,0.5,0.4,0.7,1.2,1
		c1.1,0.4,1.6,0.9,1.6,1.9c0,1.1-0.8,1.8-2.3,1.8c-0.7,0-1.3-0.2-1.7-0.4L88.5,125.2z"/>
</g>
</svg>
