<?xml version="1.0" encoding="utf-8"?>
<!-- Generator: Adobe Illustrator 24.2.3, SVG Export Plug-In . SVG Version: 6.00 Build 0)  -->
<svg version="1.1" id="Layer_1" xmlns="http://www.w3.org/2000/svg" xmlns:xlink="http://www.w3.org/1999/xlink" x="0px" y="0px"
	 viewBox="0 0 725 173" style="enable-background:new 0 0 725 173;" xml:space="preserve">
<style type="text/css">
	.st0{fill:#D9D9D9;}
	.st1{fill:#4096AB;}
	.st2{fill:#186572;}
	.st3{fill:#29ABE2;}
	.st4{fill:#233362;}
	.st5{fill:#BADDE2;}
	.st6{fill:#B2B2B2;}
	.st7{fill:#3C3C3B;}
	.st8{fill:#C6C6C6;}
	.st9{fill:none;stroke:#AFAFAF;stroke-miterlimit:10;}
</style>
<g>
	<path class="st0" d="M68.62,133.49L68.62,133.49c-13.17-0.01-25.65-5.73-34.25-15.71c-7.05-8.2-10.93-18.66-10.93-29.47
		c0-12.07,4.7-23.42,13.23-31.95c8.54-8.54,19.88-13.24,31.95-13.24c10.9,0,21.43,3.94,29.66,11.1c9.86,8.59,15.51,21,15.51,34.07
		c0,11.53-4.34,22.5-12.22,30.9C93.06,128.28,81.05,133.48,68.62,133.49z M68.62,57.62c-8.2,0-15.91,3.2-21.71,8.99
		c-5.79,5.79-8.98,13.5-8.98,21.7c0,7.34,2.64,14.45,7.42,20.02C51.19,115.11,59.67,119,68.62,119c8.57-0.01,16.52-3.45,22.39-9.7
		c5.35-5.71,8.3-13.16,8.3-20.99c0-8.87-3.84-17.31-10.54-23.14C83.17,60.3,76.02,57.62,68.62,57.62z"/>
</g>
<g>
	<path class="st1" d="M113.79,88.31H99.3c0-8.87-3.84-17.31-10.54-23.14c-5.59-4.87-12.74-7.54-20.14-7.54V43.13
		c10.9,0,21.43,3.94,29.66,11.1C108.13,62.82,113.79,75.24,113.79,88.31z"/>
</g>
<g>
	<path class="st2" d="M68.62,133.49c-13.17-0.01-25.65-5.73-34.26-15.71l10.98-9.46C51.18,115.11,59.67,119,68.61,119
		c8.57-0.01,16.51-3.45,22.38-9.7c5.35-5.71,8.3-13.16,8.3-20.99h14.5c0,11.53-4.34,22.5-12.22,30.9
		C93.06,128.28,81.05,133.48,68.62,133.49z"/>
</g>
<g>
	<path class="st3" d="M268.88,133.49L268.88,133.49c-13.18-0.01-25.66-5.73-34.25-15.71c-7.06-8.2-10.94-18.66-10.94-29.47
		c0-12.06,4.7-23.41,13.24-31.95c8.54-8.54,19.88-13.24,31.95-13.24c10.9,0,21.44,3.94,29.66,11.1
		c9.86,8.59,15.52,21.01,15.52,34.07c0,11.53-4.34,22.5-12.22,30.9C293.33,128.28,281.31,133.48,268.88,133.49z M268.88,57.62
		c-8.2,0-15.91,3.2-21.71,8.99c-5.8,5.79-8.99,13.5-8.99,21.7c0,7.34,2.64,14.45,7.43,20.02c5.84,6.78,14.32,10.67,23.27,10.67
		c8.57-0.01,16.52-3.45,22.38-9.7c5.35-5.71,8.31-13.17,8.31-20.99c0-8.87-3.84-17.31-10.54-23.14
		C283.43,60.3,276.28,57.62,268.88,57.62z"/>
</g>
<g>
	<path class="st1" d="M314.05,88.31h-14.49c0-8.87-3.84-17.31-10.54-23.14l9.52-10.92C308.4,62.83,314.05,75.24,314.05,88.31z"/>
</g>
<g>
	<path class="st4" d="M268.88,133.49c-13.18-0.01-25.66-5.73-34.25-15.71l10.98-9.46c5.84,6.78,14.32,10.67,23.27,10.68
		c8.57-0.01,16.51-3.45,22.38-9.7l10.57,9.91C293.33,128.28,281.31,133.48,268.88,133.49z"/>
</g>
<g>
	<path class="st2" d="M238.18,88.31h-14.49c0-12.06,4.7-23.41,13.24-31.95c8.54-8.54,19.88-13.24,31.95-13.24v14.49
		c-8.2,0-15.91,3.2-21.71,8.99C241.37,72.41,238.18,80.11,238.18,88.31z"/>
</g>
<g>
	<path class="st5" d="M301.82,119.21l-10.57-9.91c5.35-5.71,8.31-13.17,8.31-20.99h14.49C314.05,99.83,309.71,110.81,301.82,119.21z
		"/>
</g>
<g>
	<path class="st0" d="M289.02,65.17c-5.59-4.87-12.74-7.54-20.14-7.54V43.13c10.9,0,21.44,3.94,29.66,11.1L289.02,65.17z"/>
</g>
<g>
	<g>
		<path class="st0" d="M461.13,133.49L461.13,133.49c-13.17-0.01-25.65-5.73-34.24-15.71c-7.05-8.19-10.93-18.65-10.93-29.47
			c0-12.06,4.7-23.41,13.23-31.95c8.54-8.54,19.88-13.24,31.95-13.24c10.9,0,21.44,3.94,29.67,11.1c9.86,8.59,15.52,21,15.52,34.07
			c0,11.52-4.34,22.49-12.23,30.9C485.57,128.28,473.57,133.48,461.13,133.49z M461.12,57.62c-8.2,0-15.9,3.2-21.69,8.99
			c-5.79,5.79-8.98,13.5-8.98,21.7c0,7.35,2.64,14.46,7.42,20.02c5.84,6.78,14.32,10.67,23.26,10.67c8.58-0.01,16.53-3.45,22.39-9.7
			c5.36-5.71,8.31-13.17,8.31-20.99c0-8.87-3.84-17.31-10.54-23.14C475.69,60.3,468.53,57.62,461.12,57.62z"/>
	</g>
	<g>
		<path class="st2" d="M439.43,66.61l-10.25-10.25c8.54-8.54,19.88-13.24,31.95-13.24v14.49C452.93,57.62,445.22,60.82,439.43,66.61
			z"/>
	</g>
	<g>
		<path class="st4" d="M506.31,88.31h-14.49c0-8.87-3.84-17.31-10.54-23.14l9.52-10.93C500.65,62.82,506.31,75.24,506.31,88.31z"/>
	</g>
	<g>
		<path class="st1" d="M461.13,133.49L461.12,119c8.58-0.01,16.53-3.45,22.39-9.7c5.36-5.71,8.31-13.17,8.31-20.99h14.49
			c0,11.52-4.34,22.49-12.23,30.9C485.57,128.28,473.57,133.48,461.13,133.49z"/>
	</g>
	<g>
		<path class="st3" d="M481.28,65.17c-5.59-4.87-12.75-7.55-20.16-7.55V43.13c10.9,0,21.44,3.94,29.67,11.1L481.28,65.17z"/>
	</g>
</g>
<g>
	<g>
		<path class="st1" d="M113.26,45.61l-3.39,3.2h4.94v1.56h-7.29v-1.56l4.51-4.24c0.59-0.56,0.9-1.18,0.9-1.77
			c0-0.98-0.72-1.55-1.79-1.55c-1.14,0-1.84,0.59-1.84,1.73v0.58h-1.79v-0.58c0-2.16,1.4-3.28,3.62-3.28c2.15,0,3.57,1.11,3.57,3.05
			C114.72,43.91,114.1,44.85,113.26,45.61z"/>
	</g>
	<g>
		<path class="st1" d="M116.7,47.26h1.79v0.13c0,1.04,0.7,1.56,1.8,1.56c1.14,0,1.84-0.53,1.84-2.03c0-1.47-0.69-2.03-1.81-2.03
			c-0.96,0-1.53,0.39-1.77,1.01h-1.72l0.48-6.06h6.05v1.55h-4.66l-0.27,2.87c0.7-0.61,1.52-0.81,2.24-0.81
			c1.72,0,3.25,1.01,3.25,3.52c0,2.36-1.42,3.55-3.62,3.55c-2.19,0-3.59-1.13-3.59-3.23L116.7,47.26L116.7,47.26z"/>
	</g>
	<g>
		<path class="st1" d="M129.99,43.58c0,1.25-0.83,1.88-2.06,1.88c-1.25,0-2.07-0.63-2.07-1.88v-1.92c0-1.25,0.83-1.88,2.07-1.88
			c1.24,0,2.06,0.63,2.06,1.88V43.58z M134,39.86h1.47l-7.23,10.52h-1.47L134,39.86z M128.69,41.66c0-0.49-0.3-0.74-0.76-0.74
			c-0.47,0-0.77,0.24-0.77,0.74v1.92c0,0.49,0.3,0.74,0.77,0.74c0.45,0,0.76-0.24,0.76-0.74V41.66z M136.37,48.58
			c0,1.25-0.83,1.88-2.07,1.88c-1.24,0-2.06-0.63-2.06-1.88v-1.92c0-1.25,0.83-1.88,2.06-1.88c1.25,0,2.07,0.63,2.07,1.88V48.58z
			 M135.07,46.65c0-0.5-0.3-0.74-0.77-0.74c-0.45,0-0.76,0.24-0.76,0.74v1.92c0,0.49,0.3,0.74,0.76,0.74c0.47,0,0.77-0.24,0.77-0.74
			V46.65z"/>
	</g>
</g>
<g>
	<g>
		<path class="st6" d="M285.74,35.76h1.79v0.13c0,1.04,0.71,1.56,1.81,1.56c1.14,0,1.83-0.53,1.83-2.03c0-1.47-0.69-2.03-1.81-2.03
			c-0.96,0-1.54,0.39-1.77,1.01h-1.73l0.48-6.06h6.06v1.55h-4.66l-0.27,2.87c0.71-0.61,1.52-0.81,2.24-0.81
			c1.73,0,3.25,1.01,3.25,3.52c0,2.36-1.41,3.55-3.62,3.55c-2.2,0-3.59-1.13-3.59-3.23L285.74,35.76L285.74,35.76z"/>
	</g>
	<g>
		<path class="st6" d="M299.05,32.07c0,1.25-0.83,1.88-2.06,1.88c-1.25,0-2.07-0.63-2.07-1.88v-1.92c0-1.25,0.83-1.88,2.07-1.88
			c1.23,0,2.06,0.63,2.06,1.88V32.07z M303.05,28.35h1.47l-7.23,10.52h-1.47L303.05,28.35z M297.74,30.15
			c0-0.49-0.29-0.74-0.75-0.74c-0.47,0-0.77,0.24-0.77,0.74v1.92c0,0.49,0.3,0.74,0.77,0.74c0.45,0,0.75-0.24,0.75-0.74V30.15z
			 M305.42,37.07c0,1.25-0.83,1.88-2.07,1.88c-1.23,0-2.06-0.63-2.06-1.88v-1.92c0-1.25,0.83-1.88,2.06-1.88
			c1.25,0,2.07,0.63,2.07,1.88V37.07z M304.11,35.14c0-0.5-0.3-0.74-0.77-0.74c-0.45,0-0.75,0.24-0.75,0.74v1.92
			c0,0.49,0.3,0.74,0.75,0.74c0.47,0,0.77-0.24,0.77-0.74V35.14z"/>
	</g>
</g>
<g>
	<g>
		<path class="st6" d="M408.77,137.7h2.6v-2.27h1.79v2.27h1.49v1.55h-1.49v2.15h-1.79v-2.15h-4.42v-1.55l3.29-6.82h1.86
			L408.77,137.7z"/>
	</g>
	<g>
		<path class="st6" d="M416.08,138.28h1.79v0.13c0,1.04,0.71,1.56,1.81,1.56c1.14,0,1.83-0.53,1.83-2.03c0-1.47-0.69-2.03-1.8-2.03
			c-0.96,0-1.54,0.39-1.77,1.01h-1.73l0.48-6.06h6.06v1.55h-4.66l-0.27,2.87c0.71-0.61,1.52-0.81,2.24-0.81
			c1.73,0,3.25,1.01,3.25,3.52c0,2.36-1.41,3.55-3.62,3.55c-2.2,0-3.59-1.13-3.59-3.23L416.08,138.28L416.08,138.28z"/>
	</g>
	<g>
		<path class="st6" d="M429.39,134.6c0,1.25-0.83,1.88-2.06,1.88c-1.25,0-2.07-0.63-2.07-1.88v-1.92c0-1.25,0.83-1.88,2.07-1.88
			c1.23,0,2.06,0.63,2.06,1.88V134.6z M433.39,130.87h1.47l-7.23,10.52h-1.47L433.39,130.87z M428.08,132.68
			c0-0.49-0.29-0.74-0.75-0.74c-0.47,0-0.77,0.24-0.77,0.74v1.92c0,0.49,0.3,0.74,0.77,0.74c0.45,0,0.75-0.24,0.75-0.74V132.68z
			 M435.76,139.59c0,1.25-0.83,1.88-2.07,1.88c-1.23,0-2.06-0.63-2.06-1.88v-1.92c0-1.25,0.83-1.88,2.06-1.88
			c1.25,0,2.07,0.63,2.07,1.88V139.59z M434.45,137.66c0-0.5-0.3-0.74-0.77-0.74c-0.45,0-0.75,0.24-0.75,0.74v1.92
			c0,0.49,0.3,0.74,0.75,0.74c0.47,0,0.77-0.24,0.77-0.74V137.66z"/>
	</g>
</g>
<g>
	<g>
		<path class="st1" d="M321.25,72.48h-1.77v-8.71l-2.71,1.94v-1.8l2.71-1.94h1.77V72.48z"/>
	</g>
	<g>
		<path class="st1" d="M323.21,69.37h1.79v0.13c0,1.04,0.71,1.56,1.81,1.56c1.14,0,1.83-0.53,1.83-2.03c0-1.47-0.69-2.03-1.8-2.03
			c-0.96,0-1.54,0.39-1.77,1.01h-1.73l0.48-6.06h6.06v1.55h-4.66l-0.27,2.87c0.71-0.61,1.52-0.81,2.24-0.81
			c1.73,0,3.25,1.01,3.25,3.52c0,2.36-1.41,3.55-3.62,3.55c-2.2,0-3.59-1.13-3.59-3.23v-0.02H323.21z"/>
	</g>
	<g>
		<path class="st1" d="M336.52,65.69c0,1.25-0.83,1.88-2.06,1.88c-1.25,0-2.07-0.63-2.07-1.88v-1.92c0-1.25,0.83-1.88,2.07-1.88
			c1.23,0,2.06,0.63,2.06,1.88V65.69z M340.51,61.96h1.47l-7.23,10.52h-1.47L340.51,61.96z M335.2,63.76c0-0.49-0.29-0.74-0.75-0.74
			c-0.47,0-0.77,0.24-0.77,0.74v1.92c0,0.49,0.3,0.74,0.77,0.74c0.45,0,0.75-0.24,0.75-0.74V63.76z M342.88,70.68
			c0,1.25-0.83,1.88-2.07,1.88c-1.23,0-2.06-0.63-2.06-1.88v-1.92c0-1.25,0.83-1.88,2.06-1.88c1.25,0,2.07,0.63,2.07,1.88V70.68z
			 M341.58,68.76c0-0.5-0.3-0.74-0.77-0.74c-0.45,0-0.75,0.24-0.75,0.74v1.92c0,0.49,0.3,0.74,0.75,0.74c0.47,0,0.77-0.24,0.77-0.74
			V68.76z"/>
	</g>
</g>
<g>
	<g>
		<path class="st1" d="M503,128.16h0.69c1.09,0,1.68-0.63,1.68-1.49c0-0.98-0.59-1.59-1.76-1.59c-1.19,0-1.84,0.57-1.84,1.55v0.31
			H500v-0.49c0-1.74,1.27-2.91,3.61-2.91c2.31,0,3.61,1.17,3.61,2.93c0,1.18-0.57,2.03-1.59,2.47c1.04,0.4,1.62,1.24,1.62,2.47
			c0,1.79-1.29,2.96-3.61,2.96c-2.36,0-3.64-1.17-3.64-2.93v-0.49h1.77v0.31c0,0.99,0.66,1.55,1.86,1.55c1.17,0,1.77-0.61,1.77-1.58
			s-0.66-1.5-1.73-1.5h-0.69L503,128.16L503,128.16z"/>
	</g>
	<g>
		<path class="st1" d="M516.73,130.91c0,2.25-1.46,3.44-3.77,3.44c-2.29,0-3.74-1.18-3.74-3.44v-3.94c0-2.24,1.46-3.44,3.77-3.44
			c2.29,0,3.75,1.2,3.75,3.44L516.73,130.91L516.73,130.91z M514.94,126.98c0-1.22-0.76-1.9-1.96-1.9c-1.23,0-1.99,0.68-1.99,1.9
			v3.94c0,1.22,0.76,1.88,1.95,1.88c1.24,0,1.98-0.66,1.98-1.88L514.94,126.98L514.94,126.98z"/>
	</g>
	<g>
		<path class="st1" d="M522.82,127.41c0,1.25-0.83,1.88-2.06,1.88c-1.25,0-2.07-0.63-2.07-1.88v-1.92c0-1.25,0.83-1.88,2.07-1.88
			c1.24,0,2.06,0.63,2.06,1.88V127.41z M526.81,123.69h1.47l-7.23,10.52h-1.47L526.81,123.69z M521.51,125.49
			c0-0.49-0.3-0.74-0.76-0.74c-0.47,0-0.77,0.24-0.77,0.74v1.92c0,0.49,0.3,0.74,0.77,0.74c0.45,0,0.76-0.24,0.76-0.74V125.49z
			 M529.19,132.4c0,1.25-0.83,1.88-2.07,1.88c-1.24,0-2.06-0.63-2.06-1.88v-1.92c0-1.25,0.83-1.88,2.06-1.88
			c1.25,0,2.07,0.63,2.07,1.88V132.4z M527.88,130.48c0-0.5-0.3-0.74-0.77-0.74c-0.45,0-0.76,0.24-0.76,0.74v1.92
			c0,0.49,0.3,0.74,0.76,0.74c0.47,0,0.77-0.24,0.77-0.74V130.48z"/>
	</g>
</g>
<g>
	<g>
		<path class="st5" d="M319.16,116.42h-1.77v-8.71l-2.71,1.94v-1.8l2.71-1.94h1.77V116.42z"/>
	</g>
	<g>
		<path class="st5" d="M321.12,113.31h1.79v0.13c0,1.04,0.7,1.56,1.8,1.56c1.14,0,1.84-0.53,1.84-2.03c0-1.47-0.69-2.03-1.81-2.03
			c-0.96,0-1.53,0.39-1.77,1.01h-1.72l0.48-6.06h6.05v1.55h-4.66l-0.27,2.87c0.7-0.61,1.52-0.81,2.24-0.81
			c1.72,0,3.25,1.01,3.25,3.52c0,2.36-1.42,3.55-3.62,3.55c-2.19,0-3.59-1.13-3.59-3.23L321.12,113.31L321.12,113.31z"/>
	</g>
	<g>
		<path class="st5" d="M334.42,109.62c0,1.25-0.83,1.88-2.06,1.88c-1.24,0-2.07-0.63-2.07-1.88v-1.92c0-1.25,0.83-1.88,2.07-1.88
			c1.24,0,2.06,0.63,2.06,1.88V109.62z M338.42,105.9h1.47l-7.23,10.52h-1.47L338.42,105.9z M333.12,107.7
			c0-0.49-0.3-0.74-0.76-0.74c-0.47,0-0.76,0.24-0.76,0.74v1.92c0,0.49,0.29,0.74,0.76,0.74c0.45,0,0.76-0.24,0.76-0.74V107.7z
			 M340.79,114.62c0,1.25-0.83,1.88-2.07,1.88c-1.24,0-2.06-0.63-2.06-1.88v-1.92c0-1.25,0.83-1.88,2.06-1.88
			c1.25,0,2.07,0.63,2.07,1.88V114.62z M339.49,112.69c0-0.5-0.3-0.74-0.77-0.74c-0.45,0-0.76,0.24-0.76,0.74v1.92
			c0,0.49,0.3,0.74,0.76,0.74c0.47,0,0.77-0.24,0.77-0.74V112.69z"/>
	</g>
</g>
<g>
	<g>
		<path class="st4" d="M264.82,148.27l-3.4,3.2h4.94v1.56h-7.29v-1.56l4.51-4.24c0.59-0.56,0.9-1.18,0.9-1.77
			c0-0.98-0.72-1.55-1.79-1.55c-1.14,0-1.83,0.59-1.83,1.73v0.58h-1.79v-0.58c0-2.16,1.4-3.28,3.62-3.28c2.15,0,3.58,1.11,3.58,3.05
			C266.27,146.57,265.66,147.51,264.82,148.27z"/>
	</g>
	<g>
		<path class="st4" d="M268.25,149.93h1.79v0.13c0,1.04,0.7,1.56,1.8,1.56c1.14,0,1.83-0.53,1.83-2.03c0-1.47-0.69-2.03-1.8-2.03
			c-0.96,0-1.54,0.39-1.77,1.01h-1.73l0.48-6.06h6.06v1.55h-4.66l-0.27,2.87c0.71-0.61,1.52-0.81,2.24-0.81
			c1.73,0,3.25,1.01,3.25,3.52c0,2.36-1.41,3.55-3.62,3.55c-2.2,0-3.59-1.13-3.59-3.23v-0.02H268.25z"/>
	</g>
	<g>
		<path class="st4" d="M281.55,146.24c0,1.25-0.83,1.88-2.06,1.88c-1.25,0-2.07-0.63-2.07-1.88v-1.92c0-1.25,0.83-1.88,2.07-1.88
			c1.23,0,2.06,0.63,2.06,1.88V146.24z M285.55,142.52h1.47l-7.23,10.52h-1.47L285.55,142.52z M280.25,144.32
			c0-0.49-0.29-0.74-0.75-0.74c-0.47,0-0.77,0.24-0.77,0.74v1.92c0,0.49,0.3,0.74,0.77,0.74c0.45,0,0.75-0.24,0.75-0.74V144.32z
			 M287.92,151.23c0,1.25-0.83,1.88-2.07,1.88c-1.23,0-2.06-0.63-2.06-1.88v-1.92c0-1.25,0.83-1.88,2.06-1.88
			c1.25,0,2.07,0.63,2.07,1.88V151.23z M286.62,149.31c0-0.5-0.3-0.74-0.77-0.74c-0.45,0-0.75,0.24-0.75,0.74v1.92
			c0,0.49,0.3,0.74,0.75,0.74c0.47,0,0.77-0.24,0.77-0.74V149.31z"/>
	</g>
</g>
<g>
	<g>
		<path class="st4" d="M513.49,71.43h-1.77v-8.71L509,64.66v-1.8l2.71-1.94h1.77V71.43z"/>
	</g>
	<g>
		<path class="st4" d="M515.45,68.32h1.79v0.13c0,1.04,0.7,1.56,1.8,1.56c1.14,0,1.84-0.53,1.84-2.03c0-1.47-0.69-2.03-1.81-2.03
			c-0.96,0-1.53,0.39-1.77,1.01h-1.72l0.48-6.06h6.05v1.55h-4.66l-0.27,2.87c0.7-0.61,1.52-0.81,2.24-0.81
			c1.72,0,3.25,1.01,3.25,3.52c0,2.36-1.42,3.55-3.62,3.55c-2.19,0-3.59-1.13-3.59-3.23V68.32z"/>
	</g>
	<g>
		<path class="st4" d="M528.75,64.64c0,1.25-0.83,1.88-2.06,1.88c-1.24,0-2.07-0.63-2.07-1.88v-1.92c0-1.25,0.83-1.88,2.07-1.88
			c1.24,0,2.06,0.63,2.06,1.88V64.64z M532.75,60.91h1.47l-7.23,10.52h-1.47L532.75,60.91z M527.44,62.72c0-0.49-0.3-0.74-0.76-0.74
			c-0.47,0-0.76,0.24-0.76,0.74v1.92c0,0.49,0.29,0.74,0.76,0.74c0.45,0,0.76-0.24,0.76-0.74V62.72z M535.12,69.64
			c0,1.25-0.83,1.88-2.07,1.88c-1.24,0-2.06-0.63-2.06-1.88v-1.92c0-1.25,0.83-1.88,2.06-1.88c1.25,0,2.07,0.63,2.07,1.88V69.64z
			 M533.82,67.71c0-0.5-0.3-0.74-0.77-0.74c-0.45,0-0.76,0.24-0.76,0.74v1.92c0,0.49,0.3,0.74,0.76,0.74c0.47,0,0.77-0.24,0.77-0.74
			V67.71z"/>
	</g>
</g>
<g>
	<g>
		<path class="st3" d="M199.26,114.25h-1.77v-8.71l-2.71,1.94v-1.8l2.71-1.94h1.77V114.25z"/>
	</g>
	<g>
		<path class="st3" d="M201.22,111.15H203v0.13c0,1.04,0.7,1.56,1.8,1.56c1.14,0,1.84-0.53,1.84-2.03c0-1.47-0.69-2.03-1.81-2.03
			c-0.96,0-1.53,0.39-1.77,1.01h-1.72l0.48-6.06h6.05v1.55h-4.66l-0.27,2.87c0.7-0.61,1.52-0.81,2.24-0.81
			c1.72,0,3.25,1.01,3.25,3.52c0,2.36-1.42,3.55-3.62,3.55c-2.19,0-3.59-1.13-3.59-3.23L201.22,111.15L201.22,111.15z"/>
	</g>
	<g>
		<path class="st3" d="M214.52,107.46c0,1.25-0.83,1.88-2.06,1.88c-1.24,0-2.07-0.63-2.07-1.88v-1.92c0-1.25,0.83-1.88,2.07-1.88
			c1.24,0,2.06,0.63,2.06,1.88V107.46z M218.52,103.74h1.47l-7.23,10.52h-1.47L218.52,103.74z M213.22,105.54
			c0-0.49-0.3-0.74-0.76-0.74c-0.47,0-0.76,0.24-0.76,0.74v1.92c0,0.49,0.29,0.74,0.76,0.74c0.45,0,0.76-0.24,0.76-0.74V105.54z
			 M220.89,112.45c0,1.25-0.83,1.88-2.07,1.88c-1.24,0-2.06-0.63-2.06-1.88v-1.92c0-1.25,0.83-1.88,2.06-1.88
			c1.25,0,2.07,0.63,2.07,1.88V112.45z M219.59,110.53c0-0.5-0.3-0.74-0.77-0.74c-0.45,0-0.76,0.24-0.76,0.74v1.92
			c0,0.49,0.3,0.74,0.76,0.74c0.47,0,0.77-0.24,0.77-0.74V110.53z"/>
	</g>
</g>
<g>
	<g>
		<path class="st3" d="M476.01,36.87h1.79V37c0,1.04,0.7,1.56,1.8,1.56c1.14,0,1.84-0.53,1.84-2.03c0-1.47-0.69-2.03-1.81-2.03
			c-0.96,0-1.53,0.39-1.77,1.01h-1.72l0.48-6.06h6.05V31h-4.66l-0.27,2.87c0.7-0.61,1.52-0.81,2.24-0.81c1.72,0,3.25,1.01,3.25,3.52
			c0,2.36-1.42,3.55-3.62,3.55c-2.19,0-3.59-1.13-3.59-3.23L476.01,36.87L476.01,36.87z"/>
	</g>
	<g>
		<path class="st3" d="M489.32,33.19c0,1.25-0.83,1.88-2.06,1.88c-1.24,0-2.07-0.63-2.07-1.88v-1.92c0-1.25,0.83-1.88,2.07-1.88
			c1.24,0,2.06,0.63,2.06,1.88V33.19z M493.32,29.46h1.47l-7.23,10.52h-1.47L493.32,29.46z M488.01,31.26c0-0.49-0.3-0.74-0.76-0.74
			c-0.47,0-0.76,0.24-0.76,0.74v1.92c0,0.49,0.29,0.74,0.76,0.74c0.45,0,0.76-0.24,0.76-0.74V31.26z M495.69,38.18
			c0,1.25-0.83,1.88-2.07,1.88c-1.24,0-2.06-0.63-2.06-1.88v-1.92c0-1.25,0.83-1.88,2.06-1.88c1.25,0,2.07,0.63,2.07,1.88V38.18z
			 M494.39,36.26c0-0.5-0.3-0.74-0.77-0.74c-0.45,0-0.76,0.24-0.76,0.74v1.92c0,0.49,0.3,0.74,0.76,0.74c0.47,0,0.77-0.24,0.77-0.74
			V36.26z"/>
	</g>
</g>
<g>
	<g>
		<path class="st2" d="M212.98,46.66l-3.4,3.2h4.94v1.56h-7.29v-1.56l4.51-4.24c0.59-0.56,0.9-1.18,0.9-1.77
			c0-0.98-0.72-1.55-1.79-1.55c-1.14,0-1.83,0.59-1.83,1.73v0.58h-1.79v-0.58c0-2.16,1.4-3.28,3.62-3.28c2.15,0,3.58,1.11,3.58,3.05
			C214.43,44.96,213.82,45.89,212.98,46.66z"/>
	</g>
	<g>
		<path class="st2" d="M216.4,48.31h1.79v0.13c0,1.04,0.7,1.56,1.8,1.56c1.14,0,1.83-0.53,1.83-2.03c0-1.47-0.69-2.03-1.8-2.03
			c-0.96,0-1.54,0.39-1.77,1.01h-1.73l0.48-6.06h6.06v1.55h-4.66l-0.27,2.87c0.71-0.61,1.52-0.81,2.24-0.81
			c1.73,0,3.25,1.01,3.25,3.52c0,2.36-1.41,3.55-3.62,3.55c-2.2,0-3.59-1.13-3.59-3.23L216.4,48.31L216.4,48.31z"/>
	</g>
	<g>
		<path class="st2" d="M229.72,44.63c0,1.25-0.83,1.88-2.06,1.88c-1.25,0-2.07-0.63-2.07-1.88v-1.92c0-1.25,0.83-1.88,2.07-1.88
			c1.23,0,2.06,0.63,2.06,1.88V44.63z M233.71,40.9h1.47l-7.23,10.52h-1.47L233.71,40.9z M228.4,42.7c0-0.49-0.29-0.74-0.75-0.74
			c-0.47,0-0.77,0.24-0.77,0.74v1.92c0,0.49,0.3,0.74,0.77,0.74c0.45,0,0.75-0.24,0.75-0.74V42.7z M236.08,49.62
			c0,1.25-0.83,1.88-2.07,1.88c-1.23,0-2.06-0.63-2.06-1.88V47.7c0-1.25,0.83-1.88,2.06-1.88c1.25,0,2.07,0.63,2.07,1.88V49.62z
			 M234.78,47.7c0-0.5-0.3-0.74-0.77-0.74c-0.45,0-0.75,0.24-0.75,0.74v1.92c0,0.49,0.3,0.74,0.75,0.74c0.47,0,0.77-0.24,0.77-0.74
			V47.7z"/>
	</g>
</g>
<g>
	<g>
		<path class="st2" d="M413.71,39.94h1.79v0.13c0,1.04,0.7,1.56,1.81,1.56c1.14,0,1.84-0.53,1.84-2.03c0-1.47-0.69-2.03-1.81-2.03
			c-0.96,0-1.53,0.39-1.77,1.01h-1.72l0.48-6.06h6.05v1.55h-4.66l-0.27,2.87c0.7-0.61,1.52-0.81,2.24-0.81
			c1.72,0,3.25,1.01,3.25,3.52c0,2.36-1.42,3.55-3.62,3.55c-2.19,0-3.59-1.13-3.59-3.23L413.71,39.94L413.71,39.94z"/>
	</g>
	<g>
		<path class="st2" d="M427.02,36.26c0,1.25-0.83,1.88-2.06,1.88c-1.24,0-2.07-0.63-2.07-1.88v-1.92c0-1.25,0.83-1.88,2.07-1.88
			c1.24,0,2.06,0.63,2.06,1.88V36.26z M431.01,32.54h1.47l-7.23,10.52h-1.47L431.01,32.54z M425.71,34.33c0-0.49-0.3-0.74-0.76-0.74
			c-0.47,0-0.76,0.24-0.76,0.74v1.92c0,0.49,0.29,0.74,0.76,0.74c0.45,0,0.76-0.24,0.76-0.74V34.33z M433.39,41.25
			c0,1.25-0.83,1.88-2.07,1.88c-1.24,0-2.06-0.63-2.06-1.88v-1.92c0-1.25,0.83-1.88,2.06-1.88c1.25,0,2.07,0.63,2.07,1.88V41.25z
			 M432.08,39.33c0-0.5-0.3-0.74-0.77-0.74c-0.45,0-0.76,0.24-0.76,0.74v1.92c0,0.49,0.3,0.74,0.76,0.74c0.47,0,0.77-0.24,0.77-0.74
			V39.33z"/>
	</g>
</g>
<g>
	<g>
		<path class="st7" d="M82.37,144.16h2.6v-2.27h1.79v2.27h1.49v1.55h-1.49v2.15h-1.79v-2.15h-4.42v-1.55l3.29-6.83h1.86
			L82.37,144.16z"/>
	</g>
	<g>
		<path class="st7" d="M97.2,144.56c0,2.25-1.46,3.44-3.77,3.44c-2.29,0-3.74-1.18-3.74-3.44v-3.94c0-2.24,1.46-3.44,3.77-3.44
			c2.29,0,3.75,1.2,3.75,3.44L97.2,144.56L97.2,144.56z M95.41,140.62c0-1.22-0.76-1.9-1.96-1.9c-1.23,0-1.99,0.68-1.99,1.9v3.94
			c0,1.22,0.76,1.88,1.95,1.88c1.24,0,1.99-0.66,1.99-1.88L95.41,140.62L95.41,140.62z"/>
	</g>
	<g>
		<path class="st7" d="M103.29,141.06c0,1.25-0.83,1.88-2.06,1.88c-1.24,0-2.07-0.63-2.07-1.88v-1.92c0-1.25,0.83-1.88,2.07-1.88
			c1.24,0,2.06,0.63,2.06,1.88V141.06z M107.28,137.33h1.47l-7.23,10.52h-1.47L107.28,137.33z M101.98,139.14
			c0-0.49-0.3-0.74-0.76-0.74c-0.47,0-0.76,0.24-0.76,0.74v1.92c0,0.49,0.29,0.74,0.76,0.74c0.45,0,0.76-0.24,0.76-0.74V139.14z
			 M109.66,146.05c0,1.25-0.83,1.88-2.07,1.88c-1.24,0-2.06-0.63-2.06-1.88v-1.92c0-1.25,0.83-1.88,2.06-1.88
			c1.25,0,2.07,0.63,2.07,1.88V146.05z M108.35,144.12c0-0.5-0.3-0.74-0.77-0.74c-0.45,0-0.76,0.24-0.76,0.74v1.92
			c0,0.49,0.3,0.74,0.76,0.74c0.47,0,0.77-0.24,0.77-0.74V144.12z"/>
	</g>
</g>
<g>
	<g>
		<path class="st8" d="M12.93,44.34h0.69c1.09,0,1.68-0.63,1.68-1.49c0-0.98-0.59-1.59-1.76-1.59c-1.19,0-1.84,0.57-1.84,1.55v0.31
			H9.93v-0.49c0-1.74,1.28-2.91,3.61-2.91c2.31,0,3.61,1.17,3.61,2.93c0,1.18-0.57,2.03-1.59,2.47c1.04,0.4,1.62,1.24,1.62,2.47
			c0,1.79-1.29,2.96-3.61,2.96c-2.36,0-3.64-1.17-3.64-2.93V47.1h1.77v0.31c0,0.99,0.66,1.55,1.86,1.55c1.17,0,1.77-0.61,1.77-1.58
			s-0.66-1.5-1.73-1.5h-0.69L12.93,44.34L12.93,44.34z"/>
	</g>
	<g>
		<path class="st8" d="M19.14,47.26h1.79v0.13c0,1.04,0.7,1.56,1.8,1.56c1.14,0,1.84-0.53,1.84-2.03c0-1.47-0.69-2.03-1.81-2.03
			c-0.96,0-1.53,0.39-1.77,1.01h-1.72l0.48-6.06h6.05v1.55h-4.66l-0.27,2.87c0.7-0.61,1.52-0.81,2.24-0.81
			c1.72,0,3.25,1.01,3.25,3.52c0,2.36-1.42,3.55-3.62,3.55c-2.19,0-3.59-1.13-3.59-3.23L19.14,47.26L19.14,47.26z"/>
	</g>
	<g>
		<path class="st8" d="M32.44,43.58c0,1.25-0.83,1.88-2.06,1.88c-1.25,0-2.07-0.63-2.07-1.88v-1.92c0-1.25,0.83-1.88,2.07-1.88
			c1.24,0,2.06,0.63,2.06,1.88V43.58z M36.44,39.86h1.47l-7.23,10.52h-1.47L36.44,39.86z M31.13,41.66c0-0.49-0.3-0.74-0.76-0.74
			c-0.47,0-0.77,0.24-0.77,0.74v1.92c0,0.49,0.3,0.74,0.77,0.74c0.45,0,0.76-0.24,0.76-0.74V41.66z M38.82,48.58
			c0,1.25-0.83,1.88-2.07,1.88c-1.24,0-2.06-0.63-2.06-1.88v-1.92c0-1.25,0.83-1.88,2.06-1.88c1.25,0,2.07,0.63,2.07,1.88V48.58z
			 M37.51,46.65c0-0.5-0.3-0.74-0.77-0.74c-0.45,0-0.76,0.24-0.76,0.74v1.92c0,0.49,0.3,0.74,0.76,0.74c0.47,0,0.77-0.24,0.77-0.74
			V46.65z"/>
	</g>
</g>
<g>
	<path class="st0" d="M643.07,135.49L643.07,135.49c-13.17-0.01-25.65-5.73-34.25-15.71c-7.05-8.2-10.93-18.66-10.93-29.47
		c0-12.07,4.7-23.42,13.23-31.95c8.54-8.54,19.88-13.24,31.95-13.24c10.9,0,21.43,3.94,29.66,11.1c9.86,8.59,15.51,21,15.51,34.07
		c0,11.53-4.34,22.5-12.22,30.9C667.51,130.28,655.51,135.48,643.07,135.49z M643.07,59.62c-8.2,0-15.91,3.2-21.71,8.99
		c-5.79,5.79-8.98,13.5-8.98,21.7c0,7.34,2.64,14.45,7.42,20.02c5.84,6.78,14.32,10.67,23.27,10.67c8.57-0.01,16.52-3.45,22.39-9.7
		c5.35-5.71,8.3-13.16,8.3-20.99c0-8.87-3.84-17.31-10.54-23.14C657.63,62.3,650.47,59.62,643.07,59.62z"/>
</g>
<g>
	<path class="st1" d="M688.24,90.31h-14.49c0-8.87-3.84-17.31-10.54-23.14c-5.59-4.87-12.74-7.54-20.14-7.54V45.13
		c10.9,0,21.43,3.94,29.66,11.1C682.59,64.82,688.24,77.24,688.24,90.31z"/>
</g>
<g>
	<path class="st2" d="M643.07,135.49c-13.17-0.01-25.65-5.73-34.26-15.71l10.98-9.46c5.85,6.78,14.33,10.67,23.28,10.68
		c8.57-0.01,16.51-3.45,22.38-9.7c5.35-5.71,8.3-13.16,8.3-20.99h14.5c0,11.53-4.34,22.5-12.22,30.9
		C667.51,130.28,655.51,135.48,643.07,135.49z"/>
</g>
<g>
	<g>
		<path class="st1" d="M687.71,47.61l-3.39,3.2h4.94v1.56h-7.29v-1.56l4.51-4.24c0.59-0.56,0.9-1.18,0.9-1.77
			c0-0.98-0.72-1.55-1.79-1.55c-1.14,0-1.84,0.59-1.84,1.73v0.58h-1.79v-0.58c0-2.16,1.4-3.28,3.62-3.28c2.15,0,3.57,1.11,3.57,3.05
			C689.17,45.91,688.55,46.85,687.71,47.61z"/>
	</g>
	<g>
		<path class="st1" d="M691.15,49.26h1.79v0.13c0,1.04,0.7,1.56,1.8,1.56c1.14,0,1.84-0.53,1.84-2.03c0-1.47-0.69-2.03-1.81-2.03
			c-0.96,0-1.53,0.39-1.77,1.01h-1.72l0.48-6.06h6.05v1.55h-4.66l-0.27,2.87c0.7-0.61,1.52-0.81,2.24-0.81
			c1.72,0,3.25,1.01,3.25,3.52c0,2.36-1.42,3.55-3.62,3.55c-2.19,0-3.59-1.13-3.59-3.23L691.15,49.26L691.15,49.26z"/>
	</g>
	<g>
		<path class="st1" d="M704.45,45.58c0,1.25-0.83,1.88-2.06,1.88c-1.25,0-2.07-0.63-2.07-1.88v-1.92c0-1.25,0.83-1.88,2.07-1.88
			c1.24,0,2.06,0.63,2.06,1.88V45.58z M708.45,41.86h1.47l-7.23,10.52h-1.47L708.45,41.86z M703.14,43.66c0-0.49-0.3-0.74-0.76-0.74
			c-0.47,0-0.77,0.24-0.77,0.74v1.92c0,0.49,0.3,0.74,0.77,0.74c0.45,0,0.76-0.24,0.76-0.74V43.66z M710.82,50.58
			c0,1.25-0.83,1.88-2.07,1.88c-1.24,0-2.06-0.63-2.06-1.88v-1.92c0-1.25,0.83-1.88,2.06-1.88c1.25,0,2.07,0.63,2.07,1.88V50.58z
			 M709.52,48.65c0-0.5-0.3-0.74-0.77-0.74c-0.45,0-0.76,0.24-0.76,0.74v1.92c0,0.49,0.3,0.74,0.76,0.74c0.47,0,0.77-0.24,0.77-0.74
			V48.65z"/>
	</g>
</g>
<g>
	<g>
		<path class="st7" d="M656.82,146.16h2.6v-2.27h1.79v2.27h1.49v1.55h-1.49v2.15h-1.79v-2.15h-4.42v-1.55l3.29-6.83h1.86
			L656.82,146.16z"/>
	</g>
	<g>
		<path class="st7" d="M671.65,146.56c0,2.25-1.46,3.44-3.77,3.44c-2.29,0-3.74-1.18-3.74-3.44v-3.94c0-2.24,1.46-3.44,3.77-3.44
			c2.29,0,3.75,1.2,3.75,3.44L671.65,146.56L671.65,146.56z M669.86,142.62c0-1.22-0.76-1.9-1.96-1.9c-1.23,0-1.99,0.68-1.99,1.9
			v3.94c0,1.22,0.76,1.88,1.95,1.88c1.24,0,1.99-0.66,1.99-1.88L669.86,142.62L669.86,142.62z"/>
	</g>
	<g>
		<path class="st7" d="M677.74,143.06c0,1.25-0.83,1.88-2.06,1.88c-1.24,0-2.07-0.63-2.07-1.88v-1.92c0-1.25,0.83-1.88,2.07-1.88
			c1.24,0,2.06,0.63,2.06,1.88V143.06z M681.73,139.33h1.47l-7.23,10.52h-1.47L681.73,139.33z M676.43,141.14
			c0-0.49-0.3-0.74-0.76-0.74c-0.47,0-0.76,0.24-0.76,0.74v1.92c0,0.49,0.29,0.74,0.76,0.74c0.45,0,0.76-0.24,0.76-0.74V141.14z
			 M684.11,148.05c0,1.25-0.83,1.88-2.07,1.88c-1.24,0-2.06-0.63-2.06-1.88v-1.92c0-1.25,0.83-1.88,2.06-1.88
			c1.25,0,2.07,0.63,2.07,1.88V148.05z M682.8,146.12c0-0.5-0.3-0.74-0.77-0.74c-0.45,0-0.76,0.24-0.76,0.74v1.92
			c0,0.49,0.3,0.74,0.76,0.74c0.47,0,0.77-0.24,0.77-0.74V146.12z"/>
	</g>
</g>
<g>
	<g>
		<path class="st8" d="M587.38,46.34h0.69c1.09,0,1.68-0.63,1.68-1.49c0-0.98-0.59-1.59-1.76-1.59c-1.19,0-1.84,0.57-1.84,1.55v0.31
			h-1.77v-0.49c0-1.74,1.28-2.91,3.61-2.91c2.31,0,3.61,1.17,3.61,2.93c0,1.18-0.57,2.03-1.59,2.47c1.04,0.4,1.62,1.24,1.62,2.47
			c0,1.79-1.29,2.96-3.61,2.96c-2.36,0-3.64-1.17-3.64-2.93V49.1h1.77v0.31c0,0.99,0.66,1.55,1.86,1.55c1.17,0,1.77-0.61,1.77-1.58
			s-0.66-1.5-1.73-1.5h-0.69L587.38,46.34L587.38,46.34z"/>
	</g>
	<g>
		<path class="st8" d="M593.59,49.26h1.79v0.13c0,1.04,0.7,1.56,1.8,1.56c1.14,0,1.84-0.53,1.84-2.03c0-1.47-0.69-2.03-1.81-2.03
			c-0.96,0-1.53,0.39-1.77,1.01h-1.72l0.48-6.06h6.05v1.55h-4.66l-0.27,2.87c0.7-0.61,1.52-0.81,2.24-0.81
			c1.72,0,3.25,1.01,3.25,3.52c0,2.36-1.42,3.55-3.62,3.55c-2.19,0-3.59-1.13-3.59-3.23L593.59,49.26L593.59,49.26z"/>
	</g>
	<g>
		<path class="st8" d="M606.89,45.58c0,1.25-0.83,1.88-2.06,1.88c-1.25,0-2.07-0.63-2.07-1.88v-1.92c0-1.25,0.83-1.88,2.07-1.88
			c1.24,0,2.06,0.63,2.06,1.88V45.58z M610.89,41.86h1.47l-7.23,10.52h-1.47L610.89,41.86z M605.59,43.66c0-0.49-0.3-0.74-0.76-0.74
			c-0.47,0-0.77,0.24-0.77,0.74v1.92c0,0.49,0.3,0.74,0.77,0.74c0.45,0,0.76-0.24,0.76-0.74V43.66z M613.27,50.58
			c0,1.25-0.83,1.88-2.07,1.88c-1.24,0-2.06-0.63-2.06-1.88v-1.92c0-1.25,0.83-1.88,2.06-1.88c1.25,0,2.07,0.63,2.07,1.88V50.58z
			 M611.96,48.65c0-0.5-0.3-0.74-0.77-0.74c-0.45,0-0.76,0.24-0.76,0.74v1.92c0,0.49,0.3,0.74,0.76,0.74c0.47,0,0.77-0.24,0.77-0.74
			V48.65z"/>
	</g>
</g>
<line class="st9" x1="168" y1="26.81" x2="168" y2="151.99"/>
<line class="st9" x1="374.92" y1="27.72" x2="374.92" y2="152.91"/>
<line class="st9" x1="557.25" y1="27.72" x2="557.25" y2="152.91"/>
</svg>
