<?xml version="1.0" encoding="utf-8"?>
<!-- Generator: Adobe Illustrator 24.2.3, SVG Export Plug-In . SVG Version: 6.00 Build 0)  -->
<svg version="1.1" id="Layer_1" xmlns="http://www.w3.org/2000/svg" xmlns:xlink="http://www.w3.org/1999/xlink" x="0px" y="0px"
	 viewBox="0 0 725 320" style="enable-background:new 0 0 725 320;" xml:space="preserve">
<style type="text/css">
	.st0{fill:#D9D9D9;}
	.st1{fill:#4096AB;}
	.st2{fill:#186572;}
	.st3{fill:#29ABE2;}
	.st4{fill:#233362;}
	.st5{fill:#BADDE2;}
	.st6{fill:#B2B2B2;}
	.st7{fill:#3C3C3B;}
	.st8{fill:#C6C6C6;}
</style>
<g>
	<path class="st0" d="M106.46,240.24h-0.01c-20.56-0.01-40.05-8.95-53.48-24.53c-11.01-12.8-17.07-29.14-17.07-46.03
		c0-18.85,7.34-36.57,20.66-49.89c13.33-13.33,31.05-20.67,49.9-20.67c17.02,0,33.47,6.16,46.32,17.34
		c15.4,13.41,24.22,32.8,24.22,53.21c0,18-6.78,35.14-19.08,48.26C144.63,232.11,125.88,240.23,106.46,240.24z M106.46,121.76
		c-12.8,0-24.84,4.99-33.9,14.04c-9.05,9.05-14.03,21.08-14.03,33.89c0,11.47,4.12,22.57,11.59,31.26
		c9.12,10.59,22.37,16.67,36.34,16.67c13.39-0.01,25.8-5.39,34.96-15.15c8.36-8.91,12.96-20.55,12.96-32.78
		c0-13.86-6-27.03-16.46-36.14C129.19,125.94,118.02,121.76,106.46,121.76z"/>
</g>
<g>
	<path class="st1" d="M177,169.68h-22.63c0-13.86-6-27.03-16.46-36.14c-8.73-7.6-19.9-11.78-31.46-11.78V99.13
		c17.02,0,33.47,6.16,46.32,17.34C168.17,129.88,177,149.28,177,169.68z"/>
</g>
<g>
	<path class="st2" d="M106.46,240.24c-20.57-0.01-40.06-8.95-53.5-24.53l17.14-14.77c9.13,10.59,22.38,16.67,36.35,16.68
		c13.38-0.01,25.79-5.39,34.95-15.15c8.36-8.91,12.96-20.55,12.96-32.78H177c0,18-6.78,35.14-19.08,48.26
		C144.63,232.11,125.88,240.23,106.46,240.24z"/>
</g>
<g>
	<path class="st3" d="M348.93,240.24h-0.01c-20.57-0.01-40.06-8.95-53.48-24.54c-11.02-12.8-17.08-29.14-17.08-46.02
		c0-18.84,7.34-36.56,20.67-49.89c13.33-13.33,31.05-20.67,49.9-20.67c17.02,0,33.48,6.16,46.32,17.34
		c15.4,13.42,24.23,32.81,24.23,53.21c0,18-6.78,35.14-19.09,48.26C387.11,232.1,368.35,240.23,348.93,240.24z M348.93,121.76
		c-12.8,0-24.84,4.99-33.9,14.04c-9.06,9.05-14.04,21.09-14.04,33.89c0,11.46,4.12,22.57,11.6,31.26
		c9.12,10.59,22.36,16.67,36.34,16.67c13.39-0.01,25.8-5.39,34.95-15.15c8.36-8.92,12.97-20.56,12.97-32.78
		c0-13.86-6-27.03-16.46-36.14C371.66,125.94,360.49,121.76,348.93,121.76z"/>
</g>
<g>
	<path class="st1" d="M419.47,169.68h-22.63c0-13.86-6-27.03-16.46-36.14l14.87-17.06C410.65,129.89,419.47,149.28,419.47,169.68z"
		/>
</g>
<g>
	<path class="st4" d="M348.93,240.24c-20.58-0.01-40.07-8.95-53.49-24.54l17.15-14.77c9.12,10.59,22.37,16.67,36.34,16.68
		c13.38-0.01,25.79-5.39,34.95-15.15l16.51,15.48C387.11,232.1,368.35,240.23,348.93,240.24z"/>
</g>
<g>
	<path class="st2" d="M300.99,169.68h-22.63c0-18.84,7.34-36.56,20.67-49.89c13.33-13.33,31.05-20.67,49.9-20.67v22.63
		c-12.8,0-24.84,4.99-33.9,14.04C305.97,144.85,300.99,156.88,300.99,169.68z"/>
</g>
<g>
	<path class="st5" d="M400.38,217.94l-16.51-15.48c8.36-8.92,12.97-20.56,12.97-32.78h22.63
		C419.47,187.68,412.69,204.82,400.38,217.94z"/>
</g>
<g>
	<path class="st0" d="M380.39,133.54c-8.73-7.6-19.9-11.78-31.46-11.78V99.13c17.02,0,33.48,6.16,46.32,17.34L380.39,133.54z"/>
</g>
<g>
	<g>
		<path class="st0" d="M591.38,240.24h-0.01c-20.56-0.01-40.05-8.95-53.47-24.54c-11.01-12.79-17.07-29.13-17.07-46.02
			c0-18.84,7.34-36.56,20.66-49.89c13.33-13.33,31.05-20.67,49.89-20.67c17.03,0,33.48,6.16,46.34,17.34
			c15.4,13.41,24.23,32.8,24.23,53.21c0,17.99-6.78,35.13-19.1,48.26C629.56,232.1,610.81,240.23,591.38,240.24z M591.37,121.76
			c-12.8,0-24.83,4.99-33.88,14.04c-9.05,9.05-14.03,21.08-14.03,33.89c0,11.48,4.12,22.58,11.59,31.26
			c9.12,10.59,22.36,16.67,36.33,16.67c13.4-0.01,25.81-5.39,34.96-15.15c8.37-8.92,12.97-20.56,12.97-32.78
			c0-13.86-6-27.03-16.46-36.14C614.12,125.94,602.94,121.76,591.37,121.76z"/>
	</g>
	<g>
		<path class="st2" d="M557.49,135.8l-16-16c13.33-13.33,31.05-20.67,49.89-20.67v22.63C578.58,121.76,566.54,126.75,557.49,135.8z"
			/>
	</g>
	<g>
		<path class="st4" d="M661.94,169.68h-22.63c0-13.86-6-27.03-16.46-36.14l14.86-17.07C653.11,129.88,661.94,149.28,661.94,169.68z"
			/>
	</g>
	<g>
		<path class="st1" d="M591.38,240.24l-0.01-22.63c13.4-0.01,25.82-5.39,34.97-15.15c8.37-8.92,12.97-20.56,12.97-32.78h22.63
			c0,17.99-6.78,35.13-19.1,48.26C629.56,232.1,610.81,240.23,591.38,240.24z"/>
	</g>
	<g>
		<path class="st3" d="M622.86,133.54c-8.73-7.6-19.91-11.79-31.48-11.79V99.13c17.03,0,33.48,6.16,46.34,17.34L622.86,133.54z"/>
	</g>
</g>
<g>
	<g>
		<path class="st1" d="M176.18,103l-5.3,5h7.72v2.44h-11.39V108l7.04-6.62c0.92-0.87,1.41-1.85,1.41-2.77
			c0-1.53-1.12-2.42-2.79-2.42c-1.78,0-2.87,0.92-2.87,2.7v0.91h-2.79V98.9c0-3.38,2.18-5.12,5.66-5.12c3.35,0,5.58,1.74,5.58,4.76
			C178.45,100.35,177.49,101.81,176.18,103z"/>
	</g>
	<g>
		<path class="st1" d="M181.54,105.58h2.79v0.21c0,1.62,1.1,2.44,2.81,2.44c1.78,0,2.87-0.82,2.87-3.17c0-2.3-1.08-3.17-2.82-3.17
			c-1.5,0-2.39,0.61-2.77,1.57h-2.69l0.75-9.46h9.45v2.42h-7.27l-0.42,4.48c1.1-0.96,2.37-1.27,3.5-1.27c2.69,0,5.07,1.57,5.07,5.49
			c0,3.68-2.21,5.54-5.66,5.54c-3.42,0-5.61-1.76-5.61-5.04V105.58z"/>
	</g>
	<g>
		<path class="st1" d="M202.31,99.83c0,1.95-1.29,2.94-3.22,2.94c-1.95,0-3.24-0.99-3.24-2.94v-3c0-1.95,1.29-2.93,3.24-2.93
			c1.93,0,3.22,0.99,3.22,2.93V99.83z M208.56,94.02h2.3l-11.29,16.43h-2.3L208.56,94.02z M200.27,96.83c0-0.77-0.47-1.15-1.18-1.15
			c-0.73,0-1.2,0.38-1.2,1.15v3c0,0.77,0.47,1.15,1.2,1.15c0.71,0,1.18-0.38,1.18-1.15V96.83z M212.27,107.63
			c0,1.95-1.29,2.93-3.24,2.93c-1.93,0-3.22-0.99-3.22-2.93v-3c0-1.95,1.29-2.94,3.22-2.94c1.95,0,3.24,0.99,3.24,2.94V107.63z
			 M210.23,104.62c0-0.78-0.47-1.15-1.2-1.15c-0.71,0-1.18,0.38-1.18,1.15v3c0,0.77,0.47,1.15,1.18,1.15c0.73,0,1.2-0.38,1.2-1.15
			V104.62z"/>
	</g>
</g>
<g>
	<g>
		<path class="st6" d="M375.26,87.61h2.79v0.21c0,1.62,1.11,2.44,2.82,2.44c1.78,0,2.86-0.82,2.86-3.17c0-2.3-1.08-3.17-2.82-3.17
			c-1.5,0-2.4,0.61-2.77,1.57h-2.7l0.75-9.46h9.46v2.42h-7.27l-0.42,4.48c1.11-0.96,2.37-1.27,3.5-1.27c2.7,0,5.07,1.57,5.07,5.49
			c0,3.68-2.2,5.54-5.65,5.54c-3.43,0-5.61-1.76-5.61-5.05V87.61z"/>
	</g>
	<g>
		<path class="st6" d="M396.05,81.86c0,1.95-1.3,2.94-3.22,2.94c-1.95,0-3.24-0.99-3.24-2.94v-3c0-1.95,1.29-2.93,3.24-2.93
			c1.92,0,3.22,0.99,3.22,2.93V81.86z M402.29,76.04h2.3L393.3,92.47h-2.3L402.29,76.04z M394,78.86c0-0.77-0.46-1.15-1.17-1.15
			c-0.73,0-1.2,0.38-1.2,1.15v3c0,0.77,0.47,1.15,1.2,1.15c0.71,0,1.17-0.38,1.17-1.15V78.86z M405.99,89.66
			c0,1.95-1.29,2.93-3.24,2.93c-1.92,0-3.21-0.99-3.21-2.93v-3c0-1.95,1.29-2.94,3.21-2.94c1.95,0,3.24,0.99,3.24,2.94V89.66z
			 M403.95,86.65c0-0.78-0.47-1.15-1.2-1.15c-0.7,0-1.17,0.38-1.17,1.15v3c0,0.77,0.47,1.15,1.17,1.15c0.73,0,1.2-0.38,1.2-1.15
			V86.65z"/>
	</g>
</g>
<g>
	<g>
		<path class="st6" d="M509.62,246.81h4.06v-3.54h2.79v3.54h2.32v2.42h-2.32v3.36h-2.79v-3.36h-6.9v-2.42l5.14-10.65h2.91
			L509.62,246.81z"/>
	</g>
	<g>
		<path class="st6" d="M521.03,247.72h2.79v0.21c0,1.62,1.11,2.44,2.82,2.44c1.78,0,2.86-0.82,2.86-3.17c0-2.3-1.08-3.17-2.81-3.17
			c-1.5,0-2.4,0.61-2.77,1.57h-2.7l0.75-9.46h9.46v2.42h-7.28l-0.42,4.48c1.11-0.96,2.37-1.27,3.5-1.27c2.7,0,5.07,1.57,5.07,5.49
			c0,3.68-2.2,5.54-5.65,5.54c-3.43,0-5.61-1.76-5.61-5.04V247.72z"/>
	</g>
	<g>
		<path class="st6" d="M541.81,241.97c0,1.95-1.3,2.94-3.22,2.94c-1.95,0-3.24-0.99-3.24-2.94v-3c0-1.95,1.29-2.93,3.24-2.93
			c1.92,0,3.22,0.99,3.22,2.93V241.97z M548.06,236.15h2.3l-11.29,16.43h-2.3L548.06,236.15z M539.77,238.97
			c0-0.77-0.46-1.15-1.17-1.15c-0.73,0-1.2,0.38-1.2,1.15v3c0,0.77,0.47,1.15,1.2,1.15c0.71,0,1.17-0.38,1.17-1.15V238.97z
			 M551.76,249.77c0,1.95-1.29,2.93-3.24,2.93c-1.92,0-3.21-0.99-3.21-2.93v-3c0-1.95,1.29-2.94,3.21-2.94
			c1.95,0,3.24,0.99,3.24,2.94V249.77z M549.72,246.76c0-0.78-0.47-1.15-1.2-1.15c-0.7,0-1.17,0.38-1.17,1.15v3
			c0,0.77,0.47,1.15,1.17,1.15c0.73,0,1.2-0.38,1.2-1.15V246.76z"/>
	</g>
</g>
<g>
	<g>
		<path class="st1" d="M430.72,144.96h-2.77v-13.61l-4.23,3.03v-2.81l4.23-3.03h2.77V144.96z"/>
	</g>
	<g>
		<path class="st1" d="M433.77,140.11h2.79v0.21c0,1.62,1.11,2.44,2.82,2.44c1.78,0,2.86-0.82,2.86-3.17c0-2.3-1.08-3.17-2.81-3.17
			c-1.5,0-2.4,0.61-2.77,1.57h-2.7l0.75-9.46h9.46v2.42h-7.27l-0.42,4.48c1.11-0.96,2.37-1.27,3.5-1.27c2.7,0,5.07,1.57,5.07,5.49
			c0,3.68-2.2,5.54-5.65,5.54c-3.43,0-5.61-1.76-5.61-5.05V140.11z"/>
	</g>
	<g>
		<path class="st1" d="M454.56,134.36c0,1.95-1.3,2.94-3.22,2.94c-1.95,0-3.24-0.99-3.24-2.94v-3c0-1.95,1.29-2.93,3.24-2.93
			c1.92,0,3.22,0.99,3.22,2.93V134.36z M460.8,128.54h2.3l-11.29,16.43h-2.3L460.8,128.54z M452.51,131.35
			c0-0.77-0.46-1.15-1.17-1.15c-0.73,0-1.2,0.38-1.2,1.15v3c0,0.77,0.47,1.15,1.2,1.15c0.71,0,1.17-0.38,1.17-1.15V131.35z
			 M464.5,142.15c0,1.95-1.29,2.93-3.24,2.93c-1.92,0-3.21-0.99-3.21-2.93v-3c0-1.95,1.29-2.94,3.21-2.94
			c1.95,0,3.24,0.99,3.24,2.94V142.15z M462.46,139.15c0-0.78-0.47-1.15-1.2-1.15c-0.7,0-1.17,0.38-1.17,1.15v3
			c0,0.77,0.47,1.15,1.17,1.15c0.73,0,1.2-0.38,1.2-1.15V139.15z"/>
	</g>
</g>
<g>
	<g>
		<path class="st1" d="M656.77,231.92h1.08c1.71,0,2.63-0.99,2.63-2.32c0-1.53-0.92-2.49-2.75-2.49c-1.86,0-2.87,0.89-2.87,2.42
			v0.49h-2.77v-0.77c0-2.72,1.99-4.55,5.64-4.55c3.61,0,5.63,1.83,5.63,4.57c0,1.85-0.89,3.17-2.49,3.85
			c1.62,0.63,2.53,1.93,2.53,3.85c0,2.79-2.02,4.62-5.63,4.62c-3.69,0-5.68-1.83-5.68-4.58v-0.77h2.77v0.49
			c0,1.55,1.03,2.42,2.91,2.42c1.83,0,2.77-0.96,2.77-2.46c0-1.5-1.03-2.35-2.7-2.35h-1.08V231.92z"/>
	</g>
	<g>
		<path class="st1" d="M678.21,236.22c0,3.52-2.28,5.37-5.89,5.37c-3.57,0-5.84-1.85-5.84-5.37v-6.15c0-3.5,2.28-5.37,5.89-5.37
			c3.57,0,5.85,1.88,5.85,5.37V236.22z M675.42,230.07c0-1.9-1.18-2.96-3.06-2.96c-1.92,0-3.1,1.06-3.1,2.96v6.15
			c0,1.9,1.18,2.93,3.05,2.93c1.93,0,3.1-1.03,3.1-2.93V230.07z"/>
	</g>
	<g>
		<path class="st1" d="M687.72,230.75c0,1.95-1.29,2.94-3.22,2.94c-1.95,0-3.24-0.99-3.24-2.94v-3c0-1.95,1.29-2.93,3.24-2.93
			c1.93,0,3.22,0.99,3.22,2.93V230.75z M693.96,224.93h2.3l-11.29,16.43h-2.3L693.96,224.93z M685.68,227.74
			c0-0.77-0.47-1.15-1.18-1.15c-0.73,0-1.2,0.38-1.2,1.15v3c0,0.77,0.47,1.15,1.2,1.15c0.71,0,1.18-0.38,1.18-1.15V227.74z
			 M697.67,238.54c0,1.95-1.29,2.93-3.24,2.93c-1.93,0-3.22-0.99-3.22-2.93v-3c0-1.95,1.29-2.94,3.22-2.94
			c1.95,0,3.24,0.99,3.24,2.94V238.54z M695.63,235.54c0-0.78-0.47-1.15-1.2-1.15c-0.71,0-1.18,0.38-1.18,1.15v3
			c0,0.77,0.47,1.15,1.18,1.15c0.73,0,1.2-0.38,1.2-1.15V235.54z"/>
	</g>
</g>
<g>
	<g>
		<path class="st5" d="M427.46,213.58h-2.77v-13.61l-4.23,3.03v-2.81l4.23-3.03h2.77V213.58z"/>
	</g>
	<g>
		<path class="st5" d="M430.51,208.72h2.79v0.21c0,1.62,1.1,2.44,2.81,2.44c1.78,0,2.87-0.82,2.87-3.17c0-2.3-1.08-3.17-2.82-3.17
			c-1.5,0-2.39,0.61-2.77,1.57h-2.69l0.75-9.46h9.45v2.42h-7.28l-0.42,4.48c1.1-0.96,2.37-1.27,3.5-1.27c2.69,0,5.07,1.57,5.07,5.49
			c0,3.68-2.21,5.54-5.66,5.54c-3.42,0-5.61-1.76-5.61-5.05V208.72z"/>
	</g>
	<g>
		<path class="st5" d="M451.29,202.97c0,1.95-1.29,2.94-3.22,2.94c-1.94,0-3.24-0.99-3.24-2.94v-3c0-1.95,1.3-2.93,3.24-2.93
			c1.93,0,3.22,0.99,3.22,2.93V202.97z M457.53,197.16h2.3l-11.29,16.43h-2.3L457.53,197.16z M449.25,199.97
			c0-0.77-0.47-1.15-1.18-1.15c-0.73,0-1.19,0.38-1.19,1.15v3c0,0.77,0.46,1.15,1.19,1.15c0.71,0,1.18-0.38,1.18-1.15V199.97z
			 M461.24,210.77c0,1.95-1.29,2.93-3.24,2.93c-1.93,0-3.22-0.99-3.22-2.93v-3c0-1.95,1.29-2.94,3.22-2.94
			c1.95,0,3.24,0.99,3.24,2.94V210.77z M459.2,207.76c0-0.78-0.47-1.15-1.2-1.15c-0.71,0-1.18,0.38-1.18,1.15v3
			c0,0.77,0.47,1.15,1.18,1.15c0.73,0,1.2-0.38,1.2-1.15V207.76z"/>
	</g>
</g>
<g>
	<g>
		<path class="st4" d="M342.59,263.33l-5.31,5H345v2.44h-11.38v-2.44l7.04-6.62c0.92-0.87,1.41-1.85,1.41-2.77
			c0-1.53-1.13-2.42-2.8-2.42c-1.78,0-2.86,0.92-2.86,2.7v0.91h-2.79v-0.91c0-3.38,2.18-5.12,5.65-5.12c3.36,0,5.59,1.74,5.59,4.76
			C344.86,260.67,343.9,262.13,342.59,263.33z"/>
	</g>
	<g>
		<path class="st4" d="M347.94,265.91h2.8v0.21c0,1.62,1.1,2.44,2.81,2.44c1.78,0,2.86-0.82,2.86-3.17c0-2.3-1.08-3.17-2.81-3.17
			c-1.5,0-2.4,0.61-2.77,1.57h-2.7l0.75-9.46h9.46v2.42h-7.27l-0.42,4.48c1.11-0.96,2.37-1.27,3.5-1.27c2.7,0,5.07,1.57,5.07,5.49
			c0,3.68-2.2,5.54-5.65,5.54c-3.43,0-5.61-1.76-5.61-5.05V265.91z"/>
	</g>
	<g>
		<path class="st4" d="M368.72,260.16c0,1.95-1.3,2.94-3.22,2.94c-1.95,0-3.24-0.99-3.24-2.94v-3c0-1.95,1.29-2.93,3.24-2.93
			c1.92,0,3.22,0.99,3.22,2.93V260.16z M374.97,254.34h2.3l-11.29,16.43h-2.3L374.97,254.34z M366.68,257.15
			c0-0.77-0.46-1.15-1.17-1.15c-0.73,0-1.2,0.38-1.2,1.15v3c0,0.77,0.47,1.15,1.2,1.15c0.71,0,1.17-0.38,1.17-1.15V257.15z
			 M378.67,267.95c0,1.95-1.29,2.93-3.24,2.93c-1.92,0-3.21-0.99-3.21-2.93v-3c0-1.95,1.29-2.94,3.21-2.94
			c1.95,0,3.24,0.99,3.24,2.94V267.95z M376.63,264.95c0-0.78-0.47-1.15-1.2-1.15c-0.7,0-1.17,0.38-1.17,1.15v3
			c0,0.77,0.47,1.15,1.17,1.15c0.73,0,1.2-0.38,1.2-1.15V264.95z"/>
	</g>
</g>
<g>
	<g>
		<path class="st4" d="M673.15,143.33h-2.77v-13.61l-4.23,3.03v-2.81l4.23-3.03h2.77V143.33z"/>
	</g>
	<g>
		<path class="st4" d="M676.21,138.47H679v0.21c0,1.62,1.1,2.44,2.81,2.44c1.78,0,2.87-0.82,2.87-3.17c0-2.3-1.08-3.17-2.82-3.17
			c-1.5,0-2.39,0.61-2.77,1.57h-2.69l0.75-9.46h9.45v2.42h-7.27l-0.42,4.48c1.1-0.96,2.37-1.27,3.5-1.27c2.69,0,5.07,1.57,5.07,5.49
			c0,3.68-2.21,5.54-5.66,5.54c-3.42,0-5.61-1.76-5.61-5.05V138.47z"/>
	</g>
	<g>
		<path class="st4" d="M696.99,132.72c0,1.95-1.29,2.94-3.22,2.94c-1.94,0-3.24-0.99-3.24-2.94v-3c0-1.95,1.3-2.93,3.24-2.93
			c1.93,0,3.22,0.99,3.22,2.93V132.72z M703.23,126.9h2.3l-11.29,16.43h-2.3L703.23,126.9z M694.94,129.72
			c0-0.77-0.47-1.15-1.18-1.15c-0.73,0-1.19,0.38-1.19,1.15v3c0,0.77,0.46,1.15,1.19,1.15c0.71,0,1.18-0.38,1.18-1.15V129.72z
			 M706.94,140.52c0,1.95-1.29,2.93-3.24,2.93c-1.93,0-3.22-0.99-3.22-2.93v-3c0-1.95,1.29-2.94,3.22-2.94
			c1.95,0,3.24,0.99,3.24,2.94V140.52z M704.9,137.51c0-0.78-0.47-1.15-1.2-1.15c-0.71,0-1.18,0.38-1.18,1.15v3
			c0,0.77,0.47,1.15,1.18,1.15c0.73,0,1.2-0.38,1.2-1.15V137.51z"/>
	</g>
</g>
<g>
	<g>
		<path class="st3" d="M240.2,210.2h-2.77v-13.61l-4.23,3.03v-2.81l4.23-3.03h2.77V210.2z"/>
	</g>
	<g>
		<path class="st3" d="M243.26,205.35h2.79v0.21c0,1.62,1.1,2.44,2.81,2.44c1.78,0,2.87-0.82,2.87-3.17c0-2.3-1.08-3.17-2.82-3.17
			c-1.5,0-2.39,0.61-2.77,1.57h-2.69l0.75-9.46h9.45v2.42h-7.28l-0.42,4.48c1.1-0.96,2.37-1.27,3.5-1.27c2.69,0,5.07,1.57,5.07,5.49
			c0,3.68-2.21,5.54-5.66,5.54c-3.42,0-5.61-1.76-5.61-5.05V205.35z"/>
	</g>
	<g>
		<path class="st3" d="M264.04,199.59c0,1.95-1.29,2.94-3.22,2.94c-1.94,0-3.24-0.99-3.24-2.94v-3c0-1.95,1.3-2.93,3.24-2.93
			c1.93,0,3.22,0.99,3.22,2.93V199.59z M270.28,193.78h2.3l-11.29,16.43h-2.3L270.28,193.78z M262,196.59
			c0-0.77-0.47-1.15-1.18-1.15c-0.73,0-1.19,0.38-1.19,1.15v3c0,0.77,0.46,1.15,1.19,1.15c0.71,0,1.18-0.38,1.18-1.15V196.59z
			 M273.99,207.39c0,1.95-1.29,2.93-3.24,2.93c-1.93,0-3.22-0.99-3.22-2.93v-3c0-1.95,1.29-2.94,3.22-2.94
			c1.95,0,3.24,0.99,3.24,2.94V207.39z M271.95,204.38c0-0.78-0.47-1.15-1.2-1.15c-0.71,0-1.18,0.38-1.18,1.15v3
			c0,0.77,0.47,1.15,1.18,1.15c0.73,0,1.2-0.38,1.2-1.15V204.38z"/>
	</g>
</g>
<g>
	<g>
		<path class="st3" d="M614.63,89.35h2.79v0.21c0,1.62,1.1,2.44,2.81,2.44c1.78,0,2.87-0.82,2.87-3.17c0-2.3-1.08-3.17-2.82-3.17
			c-1.5,0-2.39,0.61-2.77,1.57h-2.69l0.75-9.46h9.45v2.42h-7.28l-0.42,4.48c1.1-0.96,2.37-1.27,3.5-1.27c2.69,0,5.07,1.57,5.07,5.49
			c0,3.68-2.21,5.54-5.66,5.54c-3.42,0-5.61-1.76-5.61-5.05V89.35z"/>
	</g>
	<g>
		<path class="st3" d="M635.41,83.6c0,1.95-1.29,2.94-3.22,2.94c-1.94,0-3.24-0.99-3.24-2.94v-3c0-1.95,1.3-2.93,3.24-2.93
			c1.93,0,3.22,0.99,3.22,2.93V83.6z M641.65,77.78h2.3l-11.29,16.43h-2.3L641.65,77.78z M633.37,80.59c0-0.77-0.47-1.15-1.18-1.15
			c-0.73,0-1.19,0.38-1.19,1.15v3c0,0.77,0.46,1.15,1.19,1.15c0.71,0,1.18-0.38,1.18-1.15V80.59z M645.36,91.39
			c0,1.95-1.29,2.93-3.24,2.93c-1.93,0-3.22-0.99-3.22-2.93v-3c0-1.95,1.29-2.94,3.22-2.94c1.95,0,3.24,0.99,3.24,2.94V91.39z
			 M643.32,88.39c0-0.78-0.47-1.15-1.2-1.15c-0.71,0-1.18,0.38-1.18,1.15v3c0,0.77,0.47,1.15,1.18,1.15c0.73,0,1.2-0.38,1.2-1.15
			V88.39z"/>
	</g>
</g>
<g>
	<g>
		<path class="st2" d="M261.63,104.64l-5.31,5h7.72v2.44h-11.38v-2.44l7.04-6.62c0.92-0.87,1.41-1.85,1.41-2.77
			c0-1.53-1.13-2.42-2.8-2.42c-1.78,0-2.86,0.92-2.86,2.7v0.91h-2.79v-0.91c0-3.38,2.18-5.12,5.65-5.12c3.36,0,5.59,1.74,5.59,4.76
			C263.9,101.98,262.94,103.44,261.63,104.64z"/>
	</g>
	<g>
		<path class="st2" d="M266.98,107.22h2.8v0.21c0,1.62,1.1,2.44,2.81,2.44c1.78,0,2.86-0.82,2.86-3.17c0-2.3-1.08-3.17-2.81-3.17
			c-1.5,0-2.4,0.61-2.77,1.57h-2.7l0.75-9.46h9.46v2.42h-7.28l-0.42,4.48c1.11-0.96,2.37-1.27,3.5-1.27c2.7,0,5.07,1.57,5.07,5.49
			c0,3.68-2.2,5.54-5.65,5.54c-3.43,0-5.61-1.76-5.61-5.05V107.22z"/>
	</g>
	<g>
		<path class="st2" d="M287.77,101.47c0,1.95-1.3,2.94-3.22,2.94c-1.95,0-3.24-0.99-3.24-2.94v-3c0-1.95,1.29-2.93,3.24-2.93
			c1.92,0,3.22,0.99,3.22,2.93V101.47z M294.01,95.65h2.3l-11.29,16.43h-2.3L294.01,95.65z M285.72,98.46
			c0-0.77-0.46-1.15-1.17-1.15c-0.73,0-1.2,0.38-1.2,1.15v3c0,0.77,0.47,1.15,1.2,1.15c0.71,0,1.17-0.38,1.17-1.15V98.46z
			 M297.71,109.26c0,1.95-1.29,2.93-3.24,2.93c-1.92,0-3.21-0.99-3.21-2.93v-3c0-1.95,1.29-2.94,3.21-2.94
			c1.95,0,3.24,0.99,3.24,2.94V109.26z M295.67,106.26c0-0.78-0.47-1.15-1.2-1.15c-0.7,0-1.17,0.38-1.17,1.15v3
			c0,0.77,0.47,1.15,1.17,1.15c0.73,0,1.2-0.38,1.2-1.15V106.26z"/>
	</g>
</g>
<g>
	<g>
		<path class="st2" d="M517.33,94.15h2.79v0.21c0,1.62,1.1,2.44,2.82,2.44c1.78,0,2.87-0.82,2.87-3.17c0-2.3-1.08-3.17-2.82-3.17
			c-1.5,0-2.39,0.61-2.77,1.57h-2.69l0.75-9.46h9.45v2.42h-7.27l-0.42,4.48c1.1-0.96,2.37-1.27,3.5-1.27c2.69,0,5.07,1.57,5.07,5.49
			c0,3.68-2.21,5.54-5.66,5.54c-3.42,0-5.61-1.76-5.61-5.05V94.15z"/>
	</g>
	<g>
		<path class="st2" d="M538.11,88.4c0,1.95-1.29,2.94-3.22,2.94c-1.94,0-3.24-0.99-3.24-2.94v-3c0-1.95,1.3-2.93,3.24-2.93
			c1.93,0,3.22,0.99,3.22,2.93V88.4z M544.35,82.58h2.3l-11.29,16.43h-2.3L544.35,82.58z M536.07,85.39c0-0.77-0.47-1.15-1.18-1.15
			c-0.73,0-1.19,0.38-1.19,1.15v3c0,0.77,0.46,1.15,1.19,1.15c0.71,0,1.18-0.38,1.18-1.15V85.39z M548.06,96.19
			c0,1.95-1.29,2.93-3.24,2.93c-1.93,0-3.22-0.99-3.22-2.93v-3c0-1.95,1.29-2.94,3.22-2.94c1.95,0,3.24,0.99,3.24,2.94V96.19z
			 M546.02,93.19c0-0.78-0.47-1.15-1.2-1.15c-0.71,0-1.18,0.38-1.18,1.15v3c0,0.77,0.47,1.15,1.18,1.15c0.73,0,1.2-0.38,1.2-1.15
			V93.19z"/>
	</g>
</g>
<g>
	<g>
		<path class="st7" d="M127.94,256.9H132v-3.54h2.79v3.54h2.33v2.42h-2.33v3.36H132v-3.36h-6.9v-2.42l5.14-10.66h2.91L127.94,256.9z
			"/>
	</g>
	<g>
		<path class="st7" d="M151.09,257.53c0,3.52-2.28,5.37-5.89,5.37c-3.57,0-5.84-1.85-5.84-5.37v-6.15c0-3.5,2.28-5.37,5.89-5.37
			c3.57,0,5.85,1.88,5.85,5.37V257.53z M148.3,251.38c0-1.9-1.18-2.96-3.06-2.96c-1.92,0-3.1,1.06-3.1,2.96v6.15
			c0,1.9,1.18,2.93,3.05,2.93c1.93,0,3.1-1.03,3.1-2.93V251.38z"/>
	</g>
	<g>
		<path class="st7" d="M160.6,252.06c0,1.95-1.29,2.94-3.22,2.94c-1.94,0-3.24-0.99-3.24-2.94v-3c0-1.95,1.3-2.93,3.24-2.93
			c1.93,0,3.22,0.99,3.22,2.93V252.06z M166.84,246.24h2.3l-11.29,16.43h-2.3L166.84,246.24z M158.56,249.06
			c0-0.77-0.47-1.15-1.18-1.15c-0.73,0-1.19,0.38-1.19,1.15v3c0,0.77,0.46,1.15,1.19,1.15c0.71,0,1.18-0.38,1.18-1.15V249.06z
			 M170.55,259.86c0,1.95-1.29,2.93-3.24,2.93c-1.93,0-3.22-0.99-3.22-2.93v-3c0-1.95,1.29-2.94,3.22-2.94
			c1.95,0,3.24,0.99,3.24,2.94V259.86z M168.51,256.85c0-0.78-0.47-1.15-1.2-1.15c-0.71,0-1.18,0.38-1.18,1.15v3
			c0,0.77,0.47,1.15,1.18,1.15c0.73,0,1.2-0.38,1.2-1.15V256.85z"/>
	</g>
</g>
<g>
	<g>
		<path class="st8" d="M19.49,101.01h1.08c1.71,0,2.63-0.99,2.63-2.32c0-1.53-0.92-2.49-2.75-2.49c-1.86,0-2.87,0.89-2.87,2.42v0.49
			h-2.77v-0.77c0-2.72,2-4.55,5.64-4.55c3.61,0,5.63,1.83,5.63,4.57c0,1.85-0.89,3.17-2.49,3.85c1.62,0.63,2.53,1.93,2.53,3.85
			c0,2.79-2.02,4.62-5.63,4.62c-3.69,0-5.68-1.83-5.68-4.58v-0.77h2.77v0.49c0,1.55,1.03,2.42,2.91,2.42c1.83,0,2.77-0.96,2.77-2.46
			c0-1.5-1.03-2.35-2.7-2.35h-1.08V101.01z"/>
	</g>
	<g>
		<path class="st8" d="M29.19,105.58h2.79v0.21c0,1.62,1.1,2.44,2.81,2.44c1.78,0,2.87-0.82,2.87-3.17c0-2.3-1.08-3.17-2.82-3.17
			c-1.5,0-2.39,0.61-2.77,1.57h-2.69l0.75-9.46h9.45v2.42h-7.28l-0.42,4.48c1.1-0.96,2.37-1.27,3.5-1.27c2.69,0,5.07,1.57,5.07,5.49
			c0,3.68-2.21,5.54-5.66,5.54c-3.42,0-5.61-1.76-5.61-5.04V105.58z"/>
	</g>
	<g>
		<path class="st8" d="M49.96,99.83c0,1.95-1.29,2.94-3.22,2.94c-1.95,0-3.24-0.99-3.24-2.94v-3c0-1.95,1.29-2.93,3.24-2.93
			c1.93,0,3.22,0.99,3.22,2.93V99.83z M56.21,94.02h2.3l-11.29,16.43h-2.3L56.21,94.02z M47.92,96.83c0-0.77-0.47-1.15-1.18-1.15
			c-0.73,0-1.2,0.38-1.2,1.15v3c0,0.77,0.47,1.15,1.2,1.15c0.71,0,1.18-0.38,1.18-1.15V96.83z M59.92,107.63
			c0,1.95-1.29,2.93-3.24,2.93c-1.93,0-3.22-0.99-3.22-2.93v-3c0-1.95,1.29-2.94,3.22-2.94c1.95,0,3.24,0.99,3.24,2.94V107.63z
			 M57.88,104.62c0-0.78-0.47-1.15-1.2-1.15c-0.71,0-1.18,0.38-1.18,1.15v3c0,0.77,0.47,1.15,1.18,1.15c0.73,0,1.2-0.38,1.2-1.15
			V104.62z"/>
	</g>
</g>
</svg>
