<?xml version="1.0" encoding="utf-8"?>
<!-- Generator: Adobe Illustrator 24.3.0, SVG Export Plug-In . SVG Version: 6.00 Build 0)  -->
<svg version="1.1" id="Layer_1" xmlns="http://www.w3.org/2000/svg" xmlns:xlink="http://www.w3.org/1999/xlink" x="0px" y="0px"
	 viewBox="0 0 353.3 100.25" style="enable-background:new 0 0 353.3 100.25;" xml:space="preserve">
<style type="text/css">
	.st0{fill:#213463;}
	.st1{fill:#FFFFFF;}
</style>
<rect x="0.32" y="-0.21" class="st0" width="352.66" height="100.66"/>
<g>
	<path class="st1" d="M107.74,39.44l-0.99-3.24h-4.96l-0.99,3.24H97.7l4.8-13.66h3.53l4.82,13.66H107.74z M106.07,33.78
		c-0.91-2.94-1.43-4.59-1.54-4.98c-0.12-0.38-0.2-0.69-0.25-0.91c-0.2,0.79-0.79,2.76-1.76,5.89H106.07z"/>
	<path class="st1" d="M121.95,39.44h-2.84v-6.08c0-0.75-0.13-1.31-0.4-1.69c-0.27-0.38-0.69-0.56-1.28-0.56
		c-0.79,0-1.37,0.27-1.72,0.8c-0.35,0.53-0.53,1.41-0.53,2.64v4.9h-2.84V29.03h2.17l0.38,1.33h0.16c0.32-0.5,0.75-0.88,1.31-1.14
		c0.56-0.26,1.19-0.39,1.89-0.39c1.21,0,2.13,0.33,2.75,0.98c0.63,0.65,0.94,1.6,0.94,2.83V39.44z"/>
	<path class="st1" d="M134.48,39.44h-2.84v-6.08c0-0.75-0.13-1.31-0.4-1.69c-0.27-0.38-0.69-0.56-1.28-0.56
		c-0.79,0-1.37,0.27-1.72,0.8c-0.35,0.53-0.53,1.41-0.53,2.64v4.9h-2.84V29.03h2.17l0.38,1.33h0.16c0.32-0.5,0.75-0.88,1.31-1.14
		c0.56-0.26,1.19-0.39,1.89-0.39c1.21,0,2.13,0.33,2.75,0.98c0.63,0.65,0.94,1.6,0.94,2.83V39.44z"/>
	<path class="st1" d="M146.85,34.22c0,1.69-0.45,3.02-1.34,3.97s-2.14,1.43-3.73,1.43c-1,0-1.88-0.22-2.64-0.66
		c-0.76-0.44-1.35-1.07-1.76-1.88c-0.41-0.82-0.61-1.77-0.61-2.87c0-1.7,0.44-3.02,1.33-3.97c0.89-0.94,2.13-1.41,3.74-1.41
		c1,0,1.88,0.22,2.64,0.65c0.76,0.43,1.35,1.06,1.76,1.87S146.85,33.13,146.85,34.22z M139.66,34.22c0,1.03,0.17,1.81,0.51,2.34
		c0.34,0.53,0.89,0.79,1.65,0.79c0.76,0,1.3-0.26,1.63-0.79c0.33-0.52,0.5-1.3,0.5-2.34c0-1.03-0.17-1.8-0.5-2.32
		c-0.33-0.51-0.88-0.77-1.65-0.77c-0.76,0-1.3,0.26-1.64,0.77C139.83,32.41,139.66,33.18,139.66,34.22z"/>
	<path class="st1" d="M156.57,39.44l-0.38-1.33h-0.15c-0.3,0.48-0.74,0.86-1.29,1.12c-0.56,0.26-1.19,0.4-1.91,0.4
		c-1.22,0-2.14-0.33-2.76-0.98c-0.62-0.65-0.93-1.6-0.93-2.82v-6.79h2.84v6.08c0,0.75,0.13,1.31,0.4,1.69
		c0.27,0.38,0.69,0.56,1.27,0.56c0.79,0,1.37-0.27,1.72-0.8c0.35-0.53,0.53-1.41,0.53-2.64v-4.9h2.84v10.41H156.57z"/>
	<path class="st1" d="M171.33,39.44h-2.84v-6.08c0-0.75-0.13-1.31-0.4-1.69c-0.27-0.38-0.69-0.56-1.28-0.56
		c-0.79,0-1.37,0.27-1.72,0.8c-0.35,0.53-0.53,1.41-0.53,2.64v4.9h-2.84V29.03h2.17l0.38,1.33h0.16c0.32-0.5,0.75-0.88,1.31-1.14
		c0.56-0.26,1.19-0.39,1.89-0.39c1.21,0,2.13,0.33,2.75,0.98c0.63,0.65,0.94,1.6,0.94,2.83V39.44z"/>
	<path class="st1" d="M178.48,39.62c-3.24,0-4.86-1.78-4.86-5.33c0-1.77,0.44-3.12,1.32-4.05c0.88-0.93,2.14-1.4,3.79-1.4
		c1.2,0,2.28,0.24,3.24,0.71l-0.84,2.2c-0.45-0.18-0.86-0.33-1.25-0.44s-0.77-0.17-1.15-0.17c-1.48,0-2.21,1.05-2.21,3.15
		c0,2.04,0.74,3.05,2.21,3.05c0.55,0,1.05-0.07,1.52-0.22c0.47-0.15,0.93-0.37,1.4-0.68v2.43c-0.46,0.29-0.92,0.49-1.39,0.6
		S179.19,39.62,178.48,39.62z"/>
	<path class="st1" d="M183.94,26.34c0-0.92,0.51-1.39,1.54-1.39c1.03,0,1.54,0.46,1.54,1.39c0,0.44-0.13,0.78-0.39,1.03
		c-0.26,0.25-0.64,0.37-1.16,0.37C184.45,27.74,183.94,27.27,183.94,26.34z M186.9,39.44h-2.84V29.03h2.84V39.44z"/>
	<path class="st1" d="M199.48,39.44h-2.84v-6.08c0-0.75-0.13-1.31-0.4-1.69c-0.27-0.38-0.69-0.56-1.28-0.56
		c-0.79,0-1.37,0.27-1.72,0.8c-0.35,0.53-0.53,1.41-0.53,2.64v4.9h-2.84V29.03h2.17l0.38,1.33h0.16c0.32-0.5,0.75-0.88,1.31-1.14
		c0.55-0.26,1.19-0.39,1.89-0.39c1.21,0,2.13,0.33,2.75,0.98s0.94,1.6,0.94,2.83V39.44z"/>
	<path class="st1" d="M211.46,29.03v1.44l-1.63,0.42c0.3,0.47,0.45,0.99,0.45,1.56c0,1.12-0.39,1.99-1.17,2.61
		c-0.78,0.62-1.86,0.94-3.24,0.94l-0.51-0.03l-0.42-0.05c-0.29,0.22-0.44,0.47-0.44,0.74c0,0.41,0.52,0.61,1.56,0.61h1.77
		c1.14,0,2.01,0.25,2.61,0.74c0.6,0.49,0.9,1.21,0.9,2.16c0,1.22-0.51,2.16-1.52,2.83c-1.01,0.67-2.47,1-4.37,1
		c-1.45,0-2.56-0.25-3.33-0.76c-0.77-0.51-1.15-1.21-1.15-2.13c0-0.63,0.2-1.15,0.59-1.57c0.39-0.42,0.96-0.72,1.72-0.9
		c-0.29-0.12-0.55-0.33-0.76-0.61c-0.22-0.28-0.33-0.58-0.33-0.9c0-0.4,0.12-0.73,0.34-0.99s0.56-0.52,1-0.78
		c-0.55-0.24-0.98-0.61-1.3-1.14c-0.32-0.52-0.48-1.14-0.48-1.84c0-1.14,0.37-2.01,1.11-2.63c0.74-0.62,1.79-0.93,3.16-0.93
		c0.29,0,0.64,0.03,1.04,0.08s0.66,0.09,0.77,0.12H211.46z M203.42,40.91c0,0.39,0.19,0.7,0.56,0.92c0.38,0.22,0.9,0.33,1.58,0.33
		c1.02,0,1.82-0.14,2.39-0.42c0.58-0.28,0.87-0.66,0.87-1.14c0-0.39-0.17-0.66-0.51-0.81c-0.34-0.15-0.87-0.22-1.58-0.22h-1.47
		c-0.52,0-0.96,0.12-1.31,0.37C203.6,40.18,203.42,40.51,203.42,40.91z M204.46,32.44c0,0.56,0.13,1.01,0.39,1.34
		c0.26,0.33,0.65,0.49,1.18,0.49c0.53,0,0.92-0.16,1.17-0.49c0.25-0.33,0.37-0.78,0.37-1.34c0-1.25-0.51-1.88-1.54-1.88
		C204.98,30.56,204.46,31.19,204.46,32.44z"/>
	<path class="st1" d="M221.18,39.44h-2.84V25.83h7.8v2.36h-4.96v3.51h4.62v2.35h-4.62V39.44z"/>
	<path class="st1" d="M236.84,35.66c0,1.23-0.44,2.2-1.33,2.9c-0.88,0.71-2.11,1.06-3.69,1.06c-1.45,0-2.74-0.27-3.85-0.82v-2.68
		c0.92,0.41,1.7,0.7,2.33,0.87s1.22,0.25,1.75,0.25c0.63,0,1.12-0.12,1.46-0.36c0.34-0.24,0.51-0.6,0.51-1.08
		c0-0.27-0.07-0.5-0.22-0.71c-0.15-0.21-0.37-0.41-0.66-0.6c-0.29-0.19-0.88-0.5-1.76-0.92c-0.83-0.39-1.46-0.77-1.87-1.13
		c-0.42-0.36-0.75-0.78-1-1.26c-0.25-0.48-0.37-1.04-0.37-1.68c0-1.2,0.41-2.15,1.22-2.84c0.82-0.69,1.94-1.03,3.38-1.03
		c0.71,0,1.38,0.08,2.02,0.25c0.64,0.17,1.31,0.4,2.02,0.71l-0.93,2.24c-0.73-0.3-1.33-0.51-1.8-0.62s-0.94-0.18-1.4-0.18
		c-0.55,0-0.96,0.13-1.26,0.38c-0.29,0.25-0.44,0.59-0.44,1c0,0.25,0.06,0.48,0.18,0.67c0.12,0.19,0.3,0.37,0.56,0.55
		c0.26,0.18,0.87,0.5,1.83,0.95c1.27,0.61,2.14,1.22,2.62,1.83S236.84,34.77,236.84,35.66z"/>
	<path class="st1" d="M250.59,32.5c0,2.24-0.64,3.96-1.91,5.15s-3.12,1.79-5.52,1.79h-3.85V25.83h4.27c2.22,0,3.95,0.59,5.18,1.76
		S250.59,30.4,250.59,32.5z M247.6,32.58c0-2.92-1.29-4.38-3.87-4.38h-1.54v8.86h1.24C246.21,37.06,247.6,35.56,247.6,32.58z"/>
	<path class="st1" d="M270.44,39.44h-3.67l-5.92-10.29h-0.08c0.12,1.82,0.18,3.11,0.18,3.89v6.4h-2.58V25.83H262l5.91,10.19h0.07
		c-0.09-1.77-0.14-3.02-0.14-3.75v-6.44h2.6V39.44z"/>
	<path class="st1" d="M278.35,39.62c-1.67,0-2.98-0.46-3.93-1.39c-0.94-0.92-1.41-2.23-1.41-3.93c0-1.74,0.44-3.09,1.31-4.04
		c0.87-0.95,2.08-1.43,3.62-1.43c1.47,0,2.62,0.42,3.43,1.26c0.82,0.84,1.23,2,1.23,3.47v1.38h-6.71c0.03,0.81,0.27,1.44,0.72,1.89
		c0.45,0.45,1.07,0.68,1.88,0.68c0.63,0,1.22-0.06,1.78-0.2s1.14-0.34,1.75-0.62v2.2c-0.5,0.25-1.03,0.43-1.59,0.55
		C279.85,39.56,279.16,39.62,278.35,39.62z M277.95,30.86c-0.6,0-1.07,0.19-1.42,0.57c-0.34,0.38-0.54,0.92-0.59,1.62h3.98
		c-0.01-0.7-0.2-1.24-0.55-1.62C279.03,31.05,278.55,30.86,277.95,30.86z"/>
	<path class="st1" d="M289.28,37.36c0.5,0,1.09-0.11,1.79-0.33v2.11c-0.71,0.32-1.58,0.47-2.61,0.47c-1.14,0-1.96-0.29-2.48-0.86
		c-0.52-0.57-0.78-1.43-0.78-2.58v-5.02h-1.36v-1.2l1.56-0.95l0.82-2.2h1.81v2.21h2.91v2.13h-2.91v5.02c0,0.4,0.11,0.7,0.34,0.89
		C288.61,37.27,288.91,37.36,289.28,37.36z"/>
	<path class="st1" d="M301.73,39.44l-0.8-3.64l-1.08-4.6h-0.06l-1.9,8.24h-3.05l-2.96-10.41h2.83l1.2,4.61
		c0.19,0.83,0.39,1.96,0.59,3.42h0.06c0.02-0.47,0.13-1.22,0.33-2.24l0.15-0.79l1.28-4.99h3.13l1.22,4.99
		c0.02,0.14,0.06,0.34,0.12,0.6c0.05,0.27,0.1,0.55,0.15,0.85c0.05,0.3,0.09,0.6,0.13,0.88c0.04,0.29,0.06,0.52,0.07,0.69h0.06
		c0.06-0.45,0.16-1.06,0.3-1.84s0.25-1.3,0.31-1.58l1.25-4.61h2.78l-3,10.41H301.73z"/>
	<path class="st1" d="M318.95,34.22c0,1.69-0.45,3.02-1.34,3.97s-2.14,1.43-3.73,1.43c-1,0-1.88-0.22-2.64-0.66
		c-0.76-0.44-1.35-1.07-1.76-1.88c-0.41-0.82-0.61-1.77-0.61-2.87c0-1.7,0.44-3.02,1.33-3.97c0.89-0.94,2.13-1.41,3.74-1.41
		c1,0,1.88,0.22,2.64,0.65c0.76,0.43,1.35,1.06,1.76,1.87S318.95,33.13,318.95,34.22z M311.75,34.22c0,1.03,0.17,1.81,0.51,2.34
		c0.34,0.53,0.89,0.79,1.65,0.79c0.76,0,1.3-0.26,1.63-0.79c0.33-0.52,0.5-1.3,0.5-2.34c0-1.03-0.17-1.8-0.5-2.32
		c-0.33-0.51-0.88-0.77-1.65-0.77c-0.76,0-1.3,0.26-1.64,0.77C311.92,32.41,311.75,33.18,311.75,34.22z"/>
	<path class="st1" d="M327.1,28.84c0.38,0,0.7,0.03,0.96,0.08l-0.21,2.66c-0.23-0.06-0.51-0.09-0.84-0.09
		c-0.91,0-1.61,0.23-2.12,0.7c-0.51,0.47-0.76,1.12-0.76,1.95v5.3h-2.84V29.03h2.15l0.42,1.75H324c0.32-0.58,0.76-1.05,1.31-1.41
		C325.86,29.02,326.45,28.84,327.1,28.84z"/>
	<path class="st1" d="M332.68,33.78l1.24-1.58l2.91-3.16h3.2l-4.13,4.51l4.38,5.89H337l-3-4.22l-1.22,0.98v3.24h-2.84V24.96h2.84
		v6.46l-0.15,2.36H332.68z"/>
	<path class="st1" d="M108.81,52.95c0,1.46-0.46,2.58-1.37,3.36c-0.92,0.78-2.22,1.16-3.9,1.16h-1.24v4.84h-2.89V48.71h4.35
		c1.65,0,2.91,0.36,3.76,1.07S108.81,51.54,108.81,52.95z M102.3,55.11h0.95c0.89,0,1.55-0.17,1.99-0.53
		c0.44-0.35,0.66-0.86,0.66-1.53c0-0.68-0.18-1.18-0.55-1.5s-0.95-0.48-1.74-0.48h-1.31V55.11z"/>
	<path class="st1" d="M116.97,51.71c0.38,0,0.7,0.03,0.96,0.08l-0.21,2.66c-0.23-0.06-0.51-0.09-0.84-0.09
		c-0.91,0-1.61,0.23-2.12,0.7S114,56.18,114,57.02v5.3h-2.84V51.91h2.15l0.42,1.75h0.14c0.32-0.58,0.76-1.05,1.31-1.41
		C115.73,51.89,116.32,51.71,116.97,51.71z"/>
	<path class="st1" d="M124.53,62.5c-1.68,0-2.98-0.46-3.93-1.39c-0.94-0.92-1.41-2.23-1.41-3.93c0-1.74,0.44-3.09,1.31-4.04
		c0.87-0.95,2.08-1.43,3.62-1.43c1.47,0,2.62,0.42,3.43,1.26c0.82,0.84,1.23,2,1.23,3.47v1.38h-6.71c0.03,0.81,0.27,1.44,0.72,1.89
		s1.07,0.68,1.88,0.68c0.63,0,1.22-0.06,1.78-0.2c0.56-0.13,1.14-0.34,1.75-0.62v2.2c-0.5,0.25-1.03,0.43-1.59,0.55
		C126.03,62.44,125.34,62.5,124.53,62.5z M124.13,53.73c-0.6,0-1.07,0.19-1.41,0.57c-0.34,0.38-0.54,0.92-0.59,1.62h3.98
		c-0.01-0.7-0.2-1.24-0.55-1.62C125.2,53.92,124.73,53.73,124.13,53.73z"/>
	<path class="st1" d="M138.34,59.22c0,1.07-0.37,1.88-1.11,2.44c-0.74,0.56-1.85,0.84-3.33,0.84c-0.76,0-1.4-0.05-1.94-0.15
		c-0.53-0.1-1.03-0.25-1.5-0.45v-2.35c0.53,0.25,1.12,0.46,1.78,0.62s1.24,0.25,1.75,0.25c1.03,0,1.54-0.3,1.54-0.89
		c0-0.22-0.07-0.41-0.2-0.54c-0.14-0.14-0.37-0.3-0.71-0.48c-0.33-0.18-0.78-0.38-1.34-0.62c-0.8-0.33-1.39-0.65-1.76-0.93
		c-0.38-0.29-0.65-0.61-0.82-0.98c-0.17-0.37-0.26-0.82-0.26-1.36c0-0.92,0.36-1.64,1.07-2.15c0.72-0.51,1.73-0.76,3.05-0.76
		c1.25,0,2.47,0.27,3.66,0.82l-0.86,2.05c-0.52-0.22-1.01-0.41-1.46-0.55c-0.45-0.14-0.92-0.21-1.39-0.21
		c-0.84,0-1.26,0.23-1.26,0.68c0,0.25,0.14,0.48,0.4,0.66c0.27,0.19,0.86,0.46,1.77,0.83c0.81,0.33,1.41,0.64,1.79,0.92
		c0.38,0.29,0.66,0.61,0.84,0.99C138.25,58.26,138.34,58.71,138.34,59.22z"/>
	<path class="st1" d="M147.81,59.22c0,1.07-0.37,1.88-1.11,2.44c-0.74,0.56-1.85,0.84-3.33,0.84c-0.76,0-1.4-0.05-1.94-0.15
		c-0.53-0.1-1.03-0.25-1.5-0.45v-2.35c0.53,0.25,1.12,0.46,1.78,0.62s1.24,0.25,1.75,0.25c1.03,0,1.54-0.3,1.54-0.89
		c0-0.22-0.07-0.41-0.2-0.54c-0.14-0.14-0.37-0.3-0.71-0.48c-0.33-0.18-0.78-0.38-1.34-0.62c-0.8-0.33-1.39-0.65-1.76-0.93
		c-0.38-0.29-0.65-0.61-0.82-0.98c-0.17-0.37-0.26-0.82-0.26-1.36c0-0.92,0.36-1.64,1.07-2.15c0.72-0.51,1.73-0.76,3.05-0.76
		c1.25,0,2.47,0.27,3.66,0.82l-0.86,2.05c-0.52-0.22-1.01-0.41-1.46-0.55c-0.45-0.14-0.92-0.21-1.39-0.21
		c-0.84,0-1.26,0.23-1.26,0.68c0,0.25,0.14,0.48,0.4,0.66c0.27,0.19,0.86,0.46,1.77,0.83c0.81,0.33,1.41,0.64,1.79,0.92
		c0.38,0.29,0.66,0.61,0.84,0.99C147.72,58.26,147.81,58.71,147.81,59.22z"/>
	<path class="st1" d="M154.74,62.5c-1.68,0-2.98-0.46-3.93-1.39c-0.94-0.92-1.41-2.23-1.41-3.93c0-1.74,0.44-3.09,1.31-4.04
		c0.87-0.95,2.08-1.43,3.62-1.43c1.47,0,2.62,0.42,3.43,1.26c0.82,0.84,1.23,2,1.23,3.47v1.38h-6.71c0.03,0.81,0.27,1.44,0.72,1.89
		s1.07,0.68,1.88,0.68c0.63,0,1.22-0.06,1.78-0.2c0.56-0.13,1.14-0.34,1.75-0.62v2.2c-0.5,0.25-1.03,0.43-1.59,0.55
		C156.24,62.44,155.55,62.5,154.74,62.5z M154.34,53.73c-0.6,0-1.07,0.19-1.41,0.57c-0.34,0.38-0.54,0.92-0.59,1.62h3.98
		c-0.01-0.7-0.2-1.24-0.55-1.62C155.42,53.92,154.94,53.73,154.34,53.73z"/>
	<path class="st1" d="M167.1,51.71c0.38,0,0.7,0.03,0.96,0.08l-0.21,2.66c-0.23-0.06-0.51-0.09-0.84-0.09
		c-0.91,0-1.61,0.23-2.12,0.7s-0.76,1.12-0.76,1.95v5.3h-2.84V51.91h2.15l0.42,1.75H164c0.32-0.58,0.76-1.05,1.31-1.41
		C165.85,51.89,166.45,51.71,167.1,51.71z"/>
</g>
<circle class="st1" cx="46.93" cy="49.2" r="33.03"/>
<path class="st0" d="M33.7,49.86l10.87,9.12c0.48,0.45,1.06,0.74,1.68,0.86c0,0,0,0,0,0c0.03,0.01,0.05,0.01,0.08,0.01
	c0.01,0,0.01,0,0.02,0c0.02,0,0.04,0.01,0.06,0.01c0.01,0,0.02,0,0.03,0c0.02,0,0.03,0.01,0.05,0.01c0.01,0,0.02,0,0.03,0
	c0.02,0,0.03,0,0.05,0.01c0.01,0,0.03,0,0.04,0c0.01,0,0.03,0,0.04,0c0.01,0,0.03,0,0.04,0c0.01,0,0.03,0,0.04,0
	c0.01,0,0.03,0,0.04,0c0.01,0,0.03,0,0.04,0c0.01,0,0.03,0,0.04,0c0.01,0,0.03,0,0.04,0c0.01,0,0.03,0,0.04,0s0.03,0,0.04,0
	c0.01,0,0.03,0,0.04,0c0.01,0,0.03,0,0.04,0c0.01,0,0.03,0,0.04,0c0.01,0,0.03,0,0.04,0c0.01,0,0.03,0,0.04,0c0.01,0,0.03,0,0.04,0
	c0.01,0,0.03,0,0.04,0c0.01,0,0.03,0,0.04,0c0.02,0,0.03,0,0.05-0.01c0.01,0,0.02,0,0.03,0c0.02,0,0.03,0,0.05-0.01
	c0.01,0,0.02,0,0.03,0c0.02,0,0.04-0.01,0.06-0.01c0.01,0,0.01,0,0.02,0c0.03,0,0.05-0.01,0.08-0.01c0,0,0,0,0,0
	c0.61-0.12,1.2-0.41,1.68-0.86l10.87-9.12c1.46-1.22,1.65-3.41,0.43-4.87l0,0c-1.22-1.46-3.41-1.65-4.87-0.43l-5.08,4.26V32.88
	c0-2.04-1.67-3.7-3.72-3.7h0c-2.04,0-3.72,1.67-3.72,3.7v15.95l-5.08-4.26c-1.46-1.22-3.65-1.03-4.87,0.43l0,0
	C32.05,46.44,32.24,48.64,33.7,49.86z"/>
<path class="st0" d="M61.4,63.18L61.4,63.18c0,1.67-1.37,3.04-3.04,3.04H35.51c-1.67,0-3.04-1.37-3.04-3.04v0
	c0-1.67,1.37-3.04,3.04-3.04h22.86C60.03,60.14,61.4,61.51,61.4,63.18z"/>
<g>
	<path class="st1" d="M276.55,80.13c0.48-0.08,1.11-0.15,1.91-0.15c0.98,0,1.71,0.23,2.16,0.64c0.42,0.37,0.68,0.93,0.68,1.61
		c0,0.7-0.21,1.25-0.6,1.65c-0.53,0.56-1.38,0.85-2.36,0.85c-0.3,0-0.57-0.01-0.8-0.07v3.09h-1V80.13z M277.55,83.85
		c0.22,0.06,0.49,0.08,0.82,0.08c1.2,0,1.93-0.58,1.93-1.65c0-1.02-0.72-1.51-1.82-1.51c-0.43,0-0.77,0.03-0.94,0.08V83.85z"/>
	<path class="st1" d="M282.64,80.14c0.61-0.09,1.33-0.16,2.12-0.16c1.43,0,2.45,0.33,3.12,0.96c0.69,0.63,1.09,1.52,1.09,2.77
		c0,1.26-0.39,2.29-1.11,3c-0.72,0.72-1.91,1.11-3.41,1.11c-0.71,0-1.3-0.03-1.81-0.09V80.14z M283.63,86.96
		c0.25,0.05,0.62,0.06,1.01,0.06c2.13,0,3.28-1.19,3.28-3.27c0.01-1.82-1.02-2.98-3.12-2.98c-0.52,0-0.9,0.05-1.17,0.1V86.96z"/>
	<path class="st1" d="M290.25,80.04h4.15v0.84h-3.16v2.56h2.92v0.82h-2.92v3.49h-1V80.04z"/>
	<path class="st1" d="M300.4,79.81c-0.84,1.12-1.44,2.61-1.44,4.68c0,2.04,0.63,3.5,1.44,4.65h-0.79c-0.72-0.95-1.5-2.42-1.5-4.65
		c0.01-2.25,0.78-3.72,1.5-4.68H300.4z"/>
	<path class="st1" d="M305.58,81.16h-2.84l-0.29,1.91c0.17-0.02,0.33-0.05,0.61-0.05c0.57,0,1.14,0.13,1.6,0.4
		c0.58,0.33,1.06,0.97,1.06,1.91c0,1.45-1.16,2.54-2.77,2.54c-0.81,0-1.5-0.23-1.85-0.46l0.25-0.77c0.31,0.18,0.92,0.41,1.59,0.41
		c0.95,0,1.76-0.62,1.76-1.61c-0.01-0.96-0.65-1.65-2.14-1.65c-0.42,0-0.75,0.05-1.03,0.08l0.48-3.57h3.56V81.16z"/>
	<path class="st1" d="M310.12,87.75v-2.03h-3.46v-0.66l3.32-4.75h1.09v4.62h1.04v0.79h-1.04v2.03H310.12z M310.12,84.94v-2.48
		c0-0.39,0.01-0.78,0.03-1.17h-0.03c-0.23,0.43-0.41,0.76-0.62,1.1l-1.82,2.53v0.02H310.12z"/>
	<path class="st1" d="M313.11,86.6c0.29,0.18,0.95,0.47,1.65,0.47c1.29,0,1.69-0.82,1.68-1.44c-0.01-1.04-0.95-1.49-1.92-1.49h-0.56
		v-0.76h0.56c0.73,0,1.66-0.38,1.66-1.26c0-0.6-0.38-1.12-1.3-1.12c-0.59,0-1.17,0.26-1.49,0.49l-0.26-0.73
		c0.39-0.29,1.14-0.57,1.95-0.57c1.46,0,2.13,0.87,2.13,1.77c0,0.77-0.46,1.42-1.37,1.75v0.02c0.92,0.18,1.66,0.87,1.66,1.91
		c0,1.19-0.93,2.23-2.71,2.23c-0.84,0-1.57-0.26-1.93-0.5L313.11,86.6z"/>
	<path class="st1" d="M321.52,80.04h1v3.72h0.03c0.21-0.3,0.41-0.57,0.61-0.82l2.36-2.9h1.24l-2.79,3.27l3.01,4.44h-1.18l-2.54-3.79
		l-0.73,0.85v2.94h-1V80.04z"/>
	<path class="st1" d="M327.72,80.14c0.43-0.09,1.12-0.16,1.82-0.16c1,0,1.64,0.17,2.12,0.56c0.4,0.3,0.64,0.76,0.64,1.36
		c0,0.74-0.49,1.4-1.3,1.69v0.02c0.73,0.18,1.59,0.79,1.59,1.93c0,0.66-0.26,1.17-0.65,1.54c-0.54,0.49-1.41,0.72-2.67,0.72
		c-0.69,0-1.21-0.05-1.54-0.09V80.14z M328.71,83.3h0.9c1.05,0,1.67-0.55,1.67-1.29c0-0.9-0.69-1.26-1.69-1.26
		c-0.46,0-0.72,0.03-0.88,0.07V83.3z M328.71,87c0.2,0.03,0.48,0.05,0.84,0.05c1.03,0,1.98-0.38,1.98-1.5c0-1.05-0.9-1.49-1.99-1.49
		h-0.82V87z"/>
	<path class="st1" d="M333.28,89.14c0.81-1.13,1.44-2.62,1.44-4.68c0-2.05-0.62-3.51-1.44-4.65h0.78c0.73,0.94,1.5,2.4,1.5,4.66
		c0,2.24-0.77,3.7-1.5,4.67H333.28z"/>
</g>
</svg>
