<?xml version="1.0" encoding="utf-8"?>
<!-- Generator: Adobe Illustrator 24.3.0, SVG Export Plug-In . SVG Version: 6.00 Build 0)  -->
<svg version="1.1" id="Layer_1" xmlns="http://www.w3.org/2000/svg" xmlns:xlink="http://www.w3.org/1999/xlink" x="0px" y="0px"
	 viewBox="0 0 353.3 100.25" style="enable-background:new 0 0 353.3 100.25;" xml:space="preserve">
<style type="text/css">
	.st0{fill:#213463;}
	.st1{fill:#FFFFFF;}
</style>
<rect x="0.32" y="-0.21" class="st0" width="352.66" height="100.66"/>
<circle class="st1" cx="46.93" cy="49.2" r="33.03"/>
<path class="st0" d="M33.7,49.86l10.87,9.12c0.48,0.45,1.06,0.74,1.68,0.86c0,0,0,0,0,0c0.03,0.01,0.05,0.01,0.08,0.01
	c0.01,0,0.01,0,0.02,0c0.02,0,0.04,0.01,0.06,0.01c0.01,0,0.02,0,0.03,0c0.02,0,0.03,0.01,0.05,0.01c0.01,0,0.02,0,0.03,0
	c0.02,0,0.03,0,0.05,0.01c0.01,0,0.03,0,0.04,0c0.01,0,0.03,0,0.04,0c0.01,0,0.03,0,0.04,0c0.01,0,0.03,0,0.04,0
	c0.01,0,0.03,0,0.04,0c0.01,0,0.03,0,0.04,0c0.01,0,0.03,0,0.04,0c0.01,0,0.03,0,0.04,0c0.01,0,0.03,0,0.04,0s0.03,0,0.04,0
	c0.01,0,0.03,0,0.04,0c0.01,0,0.03,0,0.04,0c0.01,0,0.03,0,0.04,0c0.01,0,0.03,0,0.04,0c0.01,0,0.03,0,0.04,0c0.01,0,0.03,0,0.04,0
	c0.01,0,0.03,0,0.04,0c0.01,0,0.03,0,0.04,0c0.02,0,0.03,0,0.05-0.01c0.01,0,0.02,0,0.03,0c0.02,0,0.03,0,0.05-0.01
	c0.01,0,0.02,0,0.03,0c0.02,0,0.04-0.01,0.06-0.01c0.01,0,0.01,0,0.02,0c0.03,0,0.05-0.01,0.08-0.01c0,0,0,0,0,0
	c0.61-0.12,1.2-0.41,1.68-0.86l10.87-9.12c1.46-1.22,1.65-3.41,0.43-4.87l0,0c-1.22-1.46-3.41-1.65-4.87-0.43l-5.08,4.26V32.88
	c0-2.04-1.67-3.7-3.72-3.7h0c-2.04,0-3.72,1.67-3.72,3.7v15.95l-5.08-4.26c-1.46-1.22-3.65-1.03-4.87,0.43l0,0
	C32.05,46.44,32.24,48.64,33.7,49.86z"/>
<path class="st0" d="M61.4,63.18L61.4,63.18c0,1.67-1.37,3.04-3.04,3.04H35.51c-1.67,0-3.04-1.37-3.04-3.04v0
	c0-1.67,1.37-3.04,3.04-3.04h22.86C60.03,60.14,61.4,61.51,61.4,63.18z"/>
<g>
	<path class="st1" d="M102.23,31.98h-2.38V20.56h6.55v1.98h-4.16v2.95h3.88v1.98h-3.88V31.98z"/>
	<path class="st1" d="M115.38,28.81c0,1.03-0.37,1.84-1.11,2.44s-1.77,0.89-3.1,0.89c-1.22,0-2.3-0.23-3.23-0.69V29.2
		c0.77,0.34,1.42,0.59,1.96,0.73c0.53,0.14,1.02,0.21,1.46,0.21c0.53,0,0.94-0.1,1.22-0.3c0.28-0.2,0.43-0.5,0.43-0.91
		c0-0.22-0.06-0.42-0.19-0.6c-0.12-0.17-0.31-0.34-0.55-0.5c-0.24-0.16-0.74-0.42-1.48-0.77c-0.7-0.33-1.22-0.64-1.57-0.95
		c-0.35-0.3-0.63-0.65-0.84-1.05c-0.21-0.4-0.31-0.87-0.31-1.41c0-1.01,0.34-1.8,1.03-2.38c0.68-0.58,1.63-0.87,2.84-0.87
		c0.59,0,1.16,0.07,1.7,0.21s1.1,0.34,1.69,0.59l-0.78,1.88c-0.61-0.25-1.11-0.42-1.51-0.52c-0.4-0.1-0.79-0.15-1.18-0.15
		c-0.46,0-0.81,0.11-1.05,0.32c-0.25,0.21-0.37,0.49-0.37,0.84c0,0.21,0.05,0.4,0.15,0.56c0.1,0.16,0.26,0.31,0.47,0.46
		c0.22,0.15,0.73,0.42,1.54,0.8c1.07,0.51,1.8,1.02,2.2,1.54C115.18,27.43,115.38,28.06,115.38,28.81z"/>
	<path class="st1" d="M126.92,26.16c0,1.88-0.54,3.32-1.61,4.32s-2.62,1.5-4.64,1.5h-3.23V20.56h3.59c1.86,0,3.31,0.49,4.34,1.48
		S126.92,24.39,126.92,26.16z M124.41,26.22c0-2.45-1.08-3.68-3.25-3.68h-1.29v7.44h1.04C123.24,29.98,124.41,28.73,124.41,26.22z"
		/>
	<path class="st1" d="M143.58,31.98h-3.08l-4.97-8.64h-0.07c0.1,1.53,0.15,2.61,0.15,3.27v5.38h-2.16V20.56h3.05l4.96,8.55h0.05
		c-0.08-1.48-0.12-2.53-0.12-3.15v-5.41h2.18V31.98z"/>
	<path class="st1" d="M150.22,32.13c-1.41,0-2.51-0.39-3.3-1.16c-0.79-0.78-1.19-1.88-1.19-3.3c0-1.46,0.37-2.59,1.1-3.39
		c0.73-0.8,1.74-1.2,3.04-1.2c1.23,0,2.2,0.35,2.88,1.05s1.03,1.67,1.03,2.91v1.16h-5.63c0.03,0.68,0.23,1.21,0.6,1.59
		c0.38,0.38,0.9,0.57,1.58,0.57c0.53,0,1.02-0.05,1.49-0.16s0.96-0.28,1.47-0.52v1.84c-0.42,0.21-0.86,0.36-1.34,0.46
		C151.48,32.08,150.9,32.13,150.22,32.13z M149.88,24.77c-0.51,0-0.9,0.16-1.19,0.48c-0.29,0.32-0.45,0.77-0.49,1.36h3.34
		c-0.01-0.59-0.16-1.04-0.46-1.36S150.39,24.77,149.88,24.77z"/>
	<path class="st1" d="M159.4,30.24c0.42,0,0.92-0.09,1.5-0.27v1.77c-0.59,0.27-1.32,0.4-2.19,0.4c-0.95,0-1.65-0.24-2.08-0.72
		c-0.44-0.48-0.65-1.2-0.65-2.17v-4.21h-1.14v-1.01l1.31-0.8l0.69-1.84h1.52v1.86h2.45v1.79h-2.45v4.21c0,0.34,0.09,0.59,0.29,0.75
		C158.83,30.15,159.09,30.24,159.4,30.24z"/>
	<path class="st1" d="M169.84,31.98l-0.67-3.05l-0.91-3.86h-0.05l-1.59,6.91h-2.56l-2.48-8.73h2.38l1.01,3.87
		c0.16,0.69,0.33,1.65,0.49,2.87h0.05c0.02-0.4,0.11-1.02,0.27-1.88l0.12-0.66l1.08-4.19h2.62l1.02,4.19
		c0.02,0.11,0.05,0.28,0.1,0.51c0.04,0.22,0.09,0.46,0.13,0.71c0.04,0.25,0.08,0.5,0.11,0.74c0.03,0.24,0.05,0.44,0.06,0.58h0.05
		c0.05-0.38,0.13-0.89,0.25-1.54c0.12-0.65,0.21-1.09,0.26-1.32l1.05-3.87h2.34l-2.52,8.73H169.84z"/>
	<path class="st1" d="M184.3,27.59c0,1.42-0.38,2.53-1.12,3.34c-0.75,0.8-1.79,1.2-3.13,1.2c-0.84,0-1.58-0.18-2.22-0.55
		s-1.13-0.89-1.48-1.58s-0.52-1.49-0.52-2.41c0-1.43,0.37-2.54,1.12-3.33c0.74-0.79,1.79-1.19,3.14-1.19c0.84,0,1.58,0.18,2.22,0.55
		c0.64,0.36,1.13,0.89,1.48,1.57C184.13,25.88,184.3,26.68,184.3,27.59z M178.26,27.59c0,0.86,0.14,1.52,0.43,1.96
		c0.28,0.44,0.75,0.66,1.39,0.66c0.64,0,1.09-0.22,1.37-0.66c0.28-0.44,0.42-1.09,0.42-1.96c0-0.86-0.14-1.51-0.42-1.95
		c-0.28-0.43-0.74-0.65-1.38-0.65c-0.64,0-1.09,0.21-1.38,0.64S178.26,26.73,178.26,27.59z"/>
	<path class="st1" d="M191.14,23.08c0.32,0,0.59,0.02,0.8,0.07l-0.18,2.23c-0.19-0.05-0.43-0.08-0.7-0.08
		c-0.76,0-1.35,0.2-1.78,0.59c-0.42,0.39-0.64,0.94-0.64,1.64v4.45h-2.38v-8.73h1.8l0.35,1.47h0.12c0.27-0.49,0.64-0.88,1.1-1.18
		C190.1,23.23,190.6,23.08,191.14,23.08z"/>
	<path class="st1" d="M195.82,27.23l1.04-1.33l2.45-2.66h2.69l-3.47,3.79l3.68,4.95h-2.75l-2.52-3.54l-1.02,0.82v2.72h-2.38V19.82
		h2.38v5.42l-0.12,1.98H195.82z"/>
	<path class="st1" d="M99.85,51.18V39.76h2.42v11.42H99.85z"/>
	<path class="st1" d="M113.02,51.18h-2.38v-5.1c0-0.63-0.11-1.1-0.34-1.42c-0.22-0.31-0.58-0.47-1.07-0.47
		c-0.67,0-1.15,0.22-1.45,0.67s-0.45,1.18-0.45,2.21v4.11h-2.38v-8.73h1.82l0.32,1.12h0.13c0.27-0.42,0.63-0.74,1.1-0.96
		c0.47-0.22,1-0.32,1.59-0.32c1.02,0,1.79,0.27,2.31,0.82c0.53,0.55,0.79,1.34,0.79,2.38V51.18z"/>
	<path class="st1" d="M119.16,49.44c0.42,0,0.92-0.09,1.5-0.27v1.77c-0.59,0.27-1.32,0.4-2.19,0.4c-0.95,0-1.65-0.24-2.08-0.72
		c-0.44-0.48-0.65-1.2-0.65-2.17v-4.21h-1.14v-1.01l1.31-0.8l0.69-1.84h1.52v1.86h2.45v1.79h-2.45v4.21c0,0.34,0.09,0.59,0.29,0.75
		C118.59,49.35,118.84,49.44,119.16,49.44z"/>
	<path class="st1" d="M127.3,42.28c0.32,0,0.59,0.02,0.8,0.07l-0.18,2.23c-0.19-0.05-0.43-0.08-0.7-0.08c-0.76,0-1.35,0.2-1.78,0.59
		c-0.42,0.39-0.64,0.94-0.64,1.64v4.45h-2.38v-8.73h1.8l0.35,1.47h0.12c0.27-0.49,0.64-0.88,1.1-1.18
		C126.25,42.43,126.76,42.28,127.3,42.28z"/>
	<path class="st1" d="M137.63,46.79c0,1.42-0.38,2.53-1.12,3.34c-0.75,0.8-1.79,1.2-3.13,1.2c-0.84,0-1.58-0.18-2.22-0.55
		s-1.13-0.89-1.48-1.58s-0.52-1.49-0.52-2.41c0-1.43,0.37-2.54,1.12-3.33c0.74-0.79,1.79-1.19,3.14-1.19c0.84,0,1.58,0.18,2.22,0.55
		c0.64,0.36,1.13,0.89,1.48,1.57C137.45,45.08,137.63,45.88,137.63,46.79z M131.59,46.79c0,0.86,0.14,1.52,0.43,1.96
		c0.28,0.44,0.75,0.66,1.39,0.66c0.64,0,1.09-0.22,1.37-0.66c0.28-0.44,0.42-1.09,0.42-1.96c0-0.86-0.14-1.51-0.42-1.95
		c-0.28-0.43-0.74-0.65-1.38-0.65c-0.64,0-1.09,0.21-1.38,0.64S131.59,45.93,131.59,46.79z"/>
	<path class="st1" d="M142.36,51.33c-1.03,0-1.83-0.4-2.42-1.2s-0.88-1.9-0.88-3.31c0-1.43,0.3-2.55,0.89-3.35
		c0.6-0.8,1.42-1.2,2.46-1.2c1.1,0,1.94,0.43,2.52,1.28h0.08c-0.12-0.65-0.18-1.23-0.18-1.74v-2.8h2.39v12.16h-1.83l-0.46-1.13h-0.1
		C144.29,50.9,143.47,51.33,142.36,51.33z M143.2,49.44c0.61,0,1.06-0.18,1.34-0.53c0.28-0.35,0.44-0.96,0.46-1.8v-0.26
		c0-0.94-0.14-1.61-0.43-2.02s-0.76-0.61-1.41-0.61c-0.53,0-0.94,0.23-1.24,0.68c-0.29,0.45-0.44,1.11-0.44,1.96s0.15,1.5,0.45,1.93
		S142.64,49.44,143.2,49.44z"/>
	<path class="st1" d="M155.91,51.18l-0.32-1.12h-0.12c-0.26,0.41-0.62,0.72-1.09,0.94s-1,0.33-1.6,0.33c-1.03,0-1.8-0.27-2.32-0.82
		c-0.52-0.55-0.78-1.34-0.78-2.37v-5.7h2.38v5.1c0,0.63,0.11,1.1,0.34,1.42c0.22,0.32,0.58,0.47,1.07,0.47
		c0.67,0,1.15-0.22,1.45-0.67s0.45-1.18,0.45-2.21v-4.11h2.38v8.73H155.91z"/>
	<path class="st1" d="M163.78,51.33c-2.72,0-4.08-1.49-4.08-4.48c0-1.48,0.37-2.62,1.11-3.4c0.74-0.78,1.8-1.18,3.18-1.18
		c1.01,0,1.92,0.2,2.72,0.59l-0.7,1.84c-0.38-0.15-0.72-0.27-1.05-0.37c-0.32-0.1-0.65-0.14-0.97-0.14c-1.24,0-1.86,0.88-1.86,2.64
		c0,1.71,0.62,2.56,1.86,2.56c0.46,0,0.88-0.06,1.27-0.18c0.39-0.12,0.78-0.31,1.17-0.57v2.04c-0.39,0.25-0.77,0.41-1.17,0.51
		C164.88,51.29,164.38,51.33,163.78,51.33z"/>
	<path class="st1" d="M172.14,49.44c0.42,0,0.92-0.09,1.5-0.27v1.77c-0.59,0.27-1.32,0.4-2.19,0.4c-0.95,0-1.65-0.24-2.08-0.72
		c-0.44-0.48-0.65-1.2-0.65-2.17v-4.21h-1.14v-1.01l1.31-0.8l0.69-1.84h1.52v1.86h2.45v1.79h-2.45v4.21c0,0.34,0.09,0.59,0.29,0.75
		C171.58,49.35,171.83,49.44,172.14,49.44z"/>
	<path class="st1" d="M183.34,46.79c0,1.42-0.38,2.53-1.12,3.34c-0.75,0.8-1.79,1.2-3.13,1.2c-0.84,0-1.58-0.18-2.22-0.55
		s-1.13-0.89-1.48-1.58s-0.52-1.49-0.52-2.41c0-1.43,0.37-2.54,1.12-3.33c0.74-0.79,1.79-1.19,3.14-1.19c0.84,0,1.58,0.18,2.22,0.55
		c0.64,0.36,1.13,0.89,1.48,1.57C183.17,45.08,183.34,45.88,183.34,46.79z M177.31,46.79c0,0.86,0.14,1.52,0.43,1.96
		c0.28,0.44,0.75,0.66,1.39,0.66c0.64,0,1.09-0.22,1.37-0.66c0.28-0.44,0.42-1.09,0.42-1.96c0-0.86-0.14-1.51-0.42-1.95
		c-0.28-0.43-0.74-0.65-1.38-0.65c-0.64,0-1.09,0.21-1.38,0.64S177.31,45.93,177.31,46.79z"/>
	<path class="st1" d="M190.19,42.28c0.32,0,0.59,0.02,0.8,0.07l-0.18,2.23c-0.19-0.05-0.43-0.08-0.7-0.08
		c-0.76,0-1.35,0.2-1.78,0.59c-0.42,0.39-0.64,0.94-0.64,1.64v4.45h-2.38v-8.73h1.8l0.35,1.47h0.12c0.27-0.49,0.64-0.88,1.1-1.18
		C189.15,42.43,189.65,42.28,190.19,42.28z"/>
	<path class="st1" d="M191.33,42.44h2.61l1.65,4.91c0.14,0.43,0.24,0.93,0.29,1.52h0.05c0.06-0.54,0.17-1.04,0.34-1.52l1.62-4.91
		h2.55l-3.7,9.85c-0.34,0.91-0.82,1.59-1.45,2.05c-0.63,0.45-1.36,0.68-2.2,0.68c-0.41,0-0.82-0.04-1.21-0.13V53
		c0.29,0.07,0.6,0.1,0.94,0.1c0.42,0,0.79-0.13,1.11-0.39c0.31-0.26,0.56-0.65,0.74-1.17l0.14-0.43L191.33,42.44z"/>
	<path class="st1" d="M206.02,39.76h3.55c1.62,0,2.8,0.23,3.53,0.69c0.73,0.46,1.1,1.19,1.1,2.2c0,0.68-0.16,1.24-0.48,1.68
		s-0.75,0.7-1.28,0.79v0.08c0.72,0.16,1.25,0.46,1.57,0.91c0.32,0.44,0.48,1.03,0.48,1.77c0,1.04-0.38,1.85-1.13,2.44
		c-0.75,0.58-1.77,0.88-3.07,0.88h-4.27V39.76z M208.45,44.28h1.41c0.66,0,1.13-0.1,1.43-0.3c0.29-0.2,0.44-0.54,0.44-1.01
		c0-0.44-0.16-0.75-0.48-0.94c-0.32-0.19-0.83-0.29-1.52-0.29h-1.27V44.28z M208.45,46.2v2.98h1.58c0.67,0,1.16-0.13,1.48-0.38
		c0.32-0.25,0.48-0.65,0.48-1.17c0-0.95-0.68-1.42-2.03-1.42H208.45z"/>
	<path class="st1" d="M221.46,42.28c0.32,0,0.59,0.02,0.8,0.07l-0.18,2.23c-0.19-0.05-0.43-0.08-0.7-0.08
		c-0.76,0-1.35,0.2-1.78,0.59c-0.42,0.39-0.64,0.94-0.64,1.64v4.45h-2.38v-8.73h1.8l0.35,1.47h0.12c0.27-0.49,0.64-0.88,1.1-1.18
		C220.42,42.43,220.92,42.28,221.46,42.28z"/>
	<path class="st1" d="M223.75,40.19c0-0.78,0.43-1.16,1.3-1.16c0.86,0,1.3,0.39,1.3,1.16c0,0.37-0.11,0.66-0.32,0.86
		c-0.22,0.21-0.54,0.31-0.97,0.31C224.18,41.36,223.75,40.97,223.75,40.19z M226.23,51.18h-2.38v-8.73h2.38V51.18z"/>
	<path class="st1" d="M232.69,51.33c-1.41,0-2.51-0.39-3.3-1.16c-0.79-0.78-1.19-1.88-1.19-3.3c0-1.46,0.37-2.59,1.1-3.39
		c0.73-0.8,1.74-1.2,3.04-1.2c1.23,0,2.2,0.35,2.88,1.05s1.03,1.67,1.03,2.91v1.16h-5.63c0.03,0.68,0.23,1.21,0.6,1.59
		c0.38,0.38,0.9,0.57,1.58,0.57c0.53,0,1.02-0.05,1.49-0.16s0.96-0.28,1.47-0.52v1.84c-0.42,0.21-0.86,0.36-1.34,0.46
		C233.95,51.28,233.37,51.33,232.69,51.33z M232.35,43.97c-0.51,0-0.9,0.16-1.19,0.48c-0.29,0.32-0.45,0.77-0.49,1.36h3.34
		c-0.01-0.59-0.16-1.04-0.46-1.36S232.86,43.97,232.35,43.97z"/>
	<path class="st1" d="M243.02,44.23h-2.06v6.95h-2.38v-6.95h-1.31v-1.15l1.31-0.64V41.8c0-0.99,0.24-1.72,0.73-2.18
		c0.49-0.46,1.27-0.69,2.35-0.69c0.82,0,1.55,0.12,2.2,0.37l-0.61,1.75c-0.48-0.15-0.92-0.23-1.33-0.23c-0.34,0-0.58,0.1-0.73,0.3
		c-0.15,0.2-0.23,0.46-0.23,0.77v0.55h2.06V44.23z"/>
</g>
<g>
	<path class="st1" d="M288.75,87.82c0,0.81-0.27,1.42-0.8,1.85s-1.32,0.64-2.35,0.64h-0.66l-0.6,2.81h-0.83l1.51-7.14h1.61
		c0.7,0,1.22,0.15,1.58,0.46S288.75,87.21,288.75,87.82z M285.1,89.59h0.65c0.7,0,1.24-0.15,1.6-0.44s0.55-0.73,0.55-1.3
		c0-0.41-0.11-0.7-0.34-0.88s-0.57-0.27-1.04-0.27h-0.8L285.1,89.59z"/>
	<path class="st1" d="M295.1,88.83c0,0.85-0.17,1.6-0.51,2.25s-0.83,1.15-1.46,1.5s-1.38,0.53-2.23,0.53h-1.72l1.51-7.14h1.67
		c0.9,0,1.58,0.24,2.05,0.73S295.1,87.9,295.1,88.83z M290.95,92.4c0.66,0,1.24-0.15,1.73-0.45s0.88-0.72,1.15-1.26
		s0.4-1.17,0.4-1.87s-0.17-1.23-0.5-1.59s-0.83-0.54-1.47-0.54h-0.87l-1.22,5.7H290.95z"/>
	<path class="st1" d="M296.67,93.12h-0.84l1.51-7.14h3.59l-0.15,0.75h-2.77l-0.54,2.6h2.58l-0.16,0.75h-2.58L296.67,93.12z"/>
	<path class="st1" d="M303.13,91.79c0-1.1,0.2-2.12,0.59-3.06s1.02-1.85,1.88-2.75h0.77c-0.8,0.88-1.41,1.81-1.81,2.78
		c-0.41,0.98-0.61,1.98-0.61,3.02c0,1.1,0.19,2.08,0.56,2.92h-0.64C303.37,93.83,303.13,92.86,303.13,91.79z"/>
	<path class="st1" d="M310.03,93.12h-4.39l0.15-0.72l2.27-2.05c0.33-0.3,0.62-0.57,0.86-0.8c0.24-0.23,0.44-0.45,0.6-0.65
		c0.16-0.2,0.27-0.41,0.35-0.61c0.08-0.2,0.11-0.42,0.11-0.67c0-0.32-0.1-0.58-0.29-0.77s-0.46-0.28-0.8-0.28
		c-0.25,0-0.5,0.05-0.73,0.14s-0.5,0.25-0.79,0.47l-0.4-0.56c0.62-0.5,1.29-0.75,2.02-0.75c0.57,0,1.03,0.14,1.36,0.43
		c0.33,0.29,0.5,0.68,0.5,1.19c0,0.36-0.06,0.69-0.19,1c-0.13,0.3-0.34,0.62-0.64,0.96s-0.78,0.8-1.44,1.37l-1.72,1.5v0.04h3.31
		L310.03,93.12z"/>
	<path class="st1" d="M316.42,88.16c0,0.96-0.13,1.84-0.38,2.63c-0.26,0.79-0.6,1.4-1.04,1.8c-0.44,0.41-0.95,0.61-1.54,0.61
		c-0.57,0-1.01-0.21-1.32-0.62c-0.31-0.42-0.46-1.02-0.46-1.8c0-0.88,0.13-1.72,0.4-2.51c0.27-0.8,0.62-1.4,1.06-1.8
		c0.44-0.41,0.94-0.61,1.5-0.61C315.83,85.86,316.42,86.63,316.42,88.16z M314.59,86.57c-0.37,0-0.71,0.19-1.02,0.56
		s-0.57,0.9-0.76,1.58c-0.19,0.68-0.29,1.36-0.29,2.07c0,0.56,0.08,0.99,0.24,1.29c0.16,0.3,0.42,0.45,0.79,0.45
		c0.38,0,0.71-0.19,1.02-0.56c0.31-0.37,0.55-0.9,0.74-1.6c0.18-0.7,0.28-1.43,0.28-2.21C315.58,87.09,315.25,86.57,314.59,86.57z"
		/>
	<path class="st1" d="M319.47,93.12h-0.84l0.96-4.46c0.19-0.85,0.34-1.43,0.43-1.75c-0.16,0.17-0.39,0.35-0.68,0.54l-0.87,0.54
		l-0.39-0.62l2.19-1.39H321L319.47,93.12z"/>
	<path class="st1" d="M327.16,93.12h-0.91c-0.23-0.59-0.47-1.17-0.71-1.76c-0.24-0.58-0.48-1.17-0.72-1.77l-0.85,0.64l-0.61,2.88
		h-0.83l1.51-7.14h0.83l-0.74,3.47l3.42-3.47h1.02l-3.12,3.11L327.16,93.12z"/>
	<path class="st1" d="M331.44,85.98c1.41,0,2.11,0.55,2.11,1.64c0,0.46-0.14,0.85-0.42,1.16s-0.68,0.52-1.2,0.62v0.05
		c0.38,0.1,0.66,0.28,0.86,0.54s0.3,0.56,0.3,0.92c0,0.69-0.25,1.23-0.74,1.62c-0.49,0.39-1.16,0.59-1.99,0.59h-2.26l1.51-7.14
		H331.44z M329.08,92.41h1.3c0.59,0,1.04-0.13,1.36-0.39c0.32-0.26,0.47-0.63,0.47-1.11c0-0.38-0.12-0.67-0.36-0.87
		c-0.24-0.2-0.59-0.3-1.05-0.3h-1.15L329.08,92.41z M329.8,89.03h1.21c0.51,0,0.91-0.12,1.22-0.36s0.45-0.56,0.45-0.97
		c0-0.34-0.11-0.59-0.32-0.76c-0.22-0.17-0.56-0.25-1.02-0.25h-1.03L329.8,89.03z"/>
	<path class="st1" d="M336.1,88.9c0,1.11-0.2,2.13-0.59,3.07s-1.02,1.85-1.87,2.73h-0.76c1.62-1.79,2.42-3.73,2.42-5.8
		c0-1.11-0.18-2.08-0.55-2.92h0.64C335.87,86.85,336.1,87.83,336.1,88.9z"/>
</g>
</svg>
