<?xml version="1.0" encoding="utf-8"?>
<!-- Generator: Adobe Illustrator 24.2.3, SVG Export Plug-In . SVG Version: 6.00 Build 0)  -->
<svg version="1.1" id="Layer_1" xmlns="http://www.w3.org/2000/svg" xmlns:xlink="http://www.w3.org/1999/xlink" x="0px" y="0px"
	 viewBox="0 0 241.2 70.2" style="enable-background:new 0 0 241.2 70.2;" xml:space="preserve">
<style type="text/css">
	.st0{fill:#FFFFFF;}
	.st1{font-family:'MyriadPro-Semibold';}
	.st2{font-size:38px;}
	.st3{fill:none;stroke:#FFFFFF;stroke-width:1.8;}
</style>
<path class="st0" d="M108.5,19.1V8.9H61.1L56.4,43L51.6,8.9H0v10.2h9.7v42.2h11.6V41.1h10.2v-9.7H21.3V19.1h13.1l-1.2,38.3
	c3.7-1,7.4-1.8,11.2-2.3V22.6l5.3,31.9c4.4-0.3,8.9-0.3,13.3,0.2l5.3-32.1v32.8c3.8,0.7,7.6,1.6,11.2,2.8L78.3,19h8.9v42.2h11.6
	V19.1H108.5z"/>
<text transform="matrix(1 0 0 1 142.68 49.65)" class="st0 st1 st2">P</text>
<text transform="matrix(1 0 0 1 163.01 49.65)" class="st0 st1 st2">o</text>
<text transform="matrix(1 0 0 1 184.44 49.65)" class="st0 st1 st2">r</text>
<text transform="matrix(1 0 0 1 198.84 49.65)" class="st0 st1 st2">tal</text>
<line class="st3" x1="127.6" y1="0" x2="127.6" y2="70.2"/>
<path class="st0" d="M219.3,10.6l-3.1-1.8l-3.1,1.8l-3.1,1.8v7.2l3.1,1.8l3.1,1.8l3.1-1.8l3.1-1.8v-7.2L219.3,10.6z M217,5.3l4,2.3
	l4,2.3l0.9,0.5v11.1L225,22l-4,2.3l-4,2.3l-0.9,0.5l-0.9-0.5l-4-2.3l0,0l-4-2.3l-0.9-0.5V10.4l0.9-0.5l4-2.3l0,0l4-2.3l0.9-0.5
	L217,5.3z"/>
<rect x="165.7" y="14.6" class="st0" width="41.3" height="3.1"/>
<rect x="224.6" y="14.6" class="st0" width="13.4" height="3.1"/>
</svg>
