<?xml version="1.0" encoding="utf-8"?>
<!-- Generator: Adobe Illustrator 24.3.0, SVG Export Plug-In . SVG Version: 6.00 Build 0)  -->
<svg version="1.1" id="Layer_1" xmlns="http://www.w3.org/2000/svg" xmlns:xlink="http://www.w3.org/1999/xlink" x="0px" y="0px"
	 viewBox="0 0 274.86 70.2" style="enable-background:new 0 0 274.86 70.2;" xml:space="preserve">
<style type="text/css">
	.st0{fill:#203467;}
	.st1{fill:none;stroke:#0099B0;stroke-width:1.8;}
	.st2{enable-background:new    ;}
	.st3{fill:#0099B0;}
	.st4{fill:#663F98;}
</style>
<path class="st0" d="M108.45,19.11V8.86H61.07l-4.7,34.18l-4.7-34.18H0v10.25h9.66v42.24h11.63V41.11h10.17v-9.74H21.29V19.11h13.08
	l-1.16,38.32c3.68-1.03,7.43-1.81,11.22-2.34V22.63l5.28,31.9c4.41-0.32,8.85-0.26,13.25,0.18l5.31-32.08v32.81
	c3.82,0.66,7.58,1.61,11.25,2.84l-1.19-39.17h8.88v42.24H98.8V19.11H108.45z"/>
<line class="st1" x1="127.61" y1="0" x2="127.61" y2="70.2"/>
<g class="st2">
	<path class="st3" d="M166.97,39.11c-0.15-3.31-0.34-7.29-0.3-10.75h-0.11c-0.84,3.12-1.9,6.57-3.04,9.8l-3.72,11.09h-3.61
		l-3.42-10.94c-0.99-3.27-1.9-6.76-2.58-9.96h-0.08c-0.11,3.34-0.27,7.41-0.46,10.9l-0.57,10.3h-4.37l1.71-25.61h6.16l3.34,10.3
		c0.91,3,1.71,6.04,2.36,8.89h0.11c0.68-2.77,1.56-5.93,2.55-8.93l3.53-10.26h6.08l1.48,25.61h-4.56L166.97,39.11z"/>
</g>
<g class="st2">
	<path class="st3" d="M194.36,40.14c0,6.8-4.79,9.84-9.5,9.84c-5.24,0-9.27-3.61-9.27-9.54c0-6.08,3.99-9.8,9.57-9.8
		C190.67,30.64,194.36,34.51,194.36,40.14z M180.42,40.33c0,3.57,1.75,6.27,4.6,6.27c2.66,0,4.52-2.62,4.52-6.34
		c0-2.89-1.29-6.19-4.48-6.19C181.75,34.06,180.42,37.25,180.42,40.33z"/>
	<path class="st3" d="M198.05,49.56c0.08-1.25,0.15-3.31,0.15-5.21V22.58h4.67V33.6h0.08c1.14-1.79,3.15-2.96,5.93-2.96
		c4.52,0,7.75,3.76,7.71,9.38c0,6.65-4.22,9.95-8.4,9.95c-2.39,0-4.52-0.91-5.85-3.19h-0.08l-0.23,2.77H198.05z M202.87,41.92
		c0,0.38,0.04,0.76,0.11,1.1c0.49,1.86,2.13,3.27,4.14,3.27c2.93,0,4.71-2.36,4.71-6.08c0-3.27-1.56-5.93-4.67-5.93
		c-1.9,0-3.61,1.37-4.14,3.42c-0.08,0.34-0.15,0.76-0.15,1.22V41.92z"/>
	<path class="st3" d="M225.41,25.89c0,1.41-1.03,2.51-2.66,2.51c-1.56,0-2.58-1.1-2.58-2.51c0-1.44,1.06-2.54,2.62-2.54
		C224.38,23.34,225.37,24.45,225.41,25.89z M220.43,49.56v-18.5h4.71v18.5H220.43z"/>
	<path class="st3" d="M230.16,22.58h4.71v26.98h-4.71V22.58z"/>
	<path class="st3" d="M243.23,41.62c0.11,3.34,2.74,4.79,5.7,4.79c2.17,0,3.72-0.3,5.13-0.84l0.68,3.23
		c-1.6,0.65-3.8,1.14-6.46,1.14c-6,0-9.54-3.69-9.54-9.35c0-5.13,3.12-9.95,9.04-9.95c6,0,7.98,4.94,7.98,9
		c0,0.87-0.08,1.56-0.15,1.98H243.23z M251.36,38.35c0.04-1.71-0.72-4.52-3.84-4.52c-2.89,0-4.1,2.62-4.29,4.52H251.36z"/>
</g>
<path class="st4" d="M266.92,7.93h-9.52c-4.37,0.04-7.9,3.57-7.93,7.94v1.17c0.01,2.44,1.14,4.73,3.05,6.24l0.53,6.75l6.92-5.1h7
	c4.37-0.03,7.9-3.56,7.94-7.93v-1.17c-0.03-4.37-3.57-7.91-7.94-7.94 M271.4,16.8c0,2.68-1.84,4.63-5,4.63h-6.88l-4,3.05l-0.74-3.39
	c-0.58-0.36-1.08-0.85-1.46-1.42c-0.53-0.86-0.79-1.86-0.75-2.87v-1c0-3.25,2.5-4.64,5.41-4.64h8.39c3.15,0,5,2,5,4.64L271.4,16.8z"
	/>
</svg>
