<?xml version="1.0" encoding="utf-8"?>
<!-- Generator: Adobe Illustrator 24.3.0, SVG Export Plug-In . SVG Version: 6.00 Build 0)  -->
<svg version="1.1" id="Layer_1" xmlns="http://www.w3.org/2000/svg" xmlns:xlink="http://www.w3.org/1999/xlink" x="0px" y="0px"
	 viewBox="0 0 241.2 70.2" style="enable-background:new 0 0 241.2 70.2;" xml:space="preserve">
<style type="text/css">
	.st0{fill:#FFFFFF;}
	.st1{enable-background:new    ;}
	.st2{fill:none;stroke:#FFFFFF;stroke-width:1.8;}
</style>
<path class="st0" d="M108.5,19.1V8.9H61.1L56.4,43L51.6,8.9H0v10.2h9.7v42.2h11.6V41.1h10.2v-9.7H21.3V19.1h13.1l-1.2,38.3
	c3.7-1,7.4-1.8,11.2-2.3V22.6l5.3,31.9c4.4-0.3,8.9-0.3,13.3,0.2l5.3-32.1v32.8c3.8,0.7,7.6,1.6,11.2,2.8L78.3,19h8.9v42.2h11.6
	V19.1H108.5z"/>
<g class="st1">
	<path class="st0" d="M145.38,24.38c1.67-0.3,3.99-0.53,7.14-0.53c3.42,0,5.93,0.72,7.56,2.09c1.52,1.25,2.51,3.27,2.51,5.66
		c0,2.43-0.76,4.44-2.2,5.81c-1.86,1.86-4.79,2.74-8.09,2.74c-0.87,0-1.67-0.04-2.28-0.15v9.65h-4.63V24.38z M150.01,36.31
		c0.57,0.15,1.33,0.19,2.28,0.19c3.5,0,5.62-1.71,5.62-4.71c0-2.85-1.98-4.37-5.21-4.37c-1.29,0-2.2,0.11-2.7,0.23V36.31z"/>
</g>
<g class="st1">
	<path class="st0" d="M183.11,40.23c0,6.8-4.79,9.84-9.5,9.84c-5.24,0-9.27-3.61-9.27-9.54c0-6.08,3.99-9.8,9.57-9.8
		C179.42,30.73,183.11,34.6,183.11,40.23z M169.17,40.42c0,3.57,1.75,6.27,4.6,6.27c2.66,0,4.52-2.62,4.52-6.34
		c0-2.89-1.29-6.19-4.48-6.19C170.5,34.15,169.17,37.34,169.17,40.42z"/>
</g>
<g class="st1">
	<path class="st0" d="M186.95,37.11c0-2.51-0.04-4.29-0.15-5.96h4.07l0.15,3.53h0.15c0.91-2.62,3.08-3.95,5.05-3.95
		c0.46,0,0.72,0.04,1.1,0.11v4.41c-0.38-0.08-0.8-0.15-1.37-0.15c-2.24,0-3.76,1.44-4.18,3.53c-0.08,0.42-0.15,0.91-0.15,1.44v9.57
		h-4.67V37.11z"/>
</g>
<g class="st1">
	<path class="st0" d="M206.71,25.87v5.28h4.45v3.5h-4.45v8.17c0,2.24,0.61,3.42,2.39,3.42c0.8,0,1.41-0.11,1.82-0.23l0.08,3.57
		c-0.68,0.27-1.9,0.46-3.38,0.46c-1.71,0-3.15-0.57-4.03-1.52c-0.99-1.06-1.44-2.74-1.44-5.17v-8.7h-2.66v-3.5h2.66v-4.18
		L206.71,25.87z"/>
	<path class="st0" d="M225.1,49.65l-0.3-2.05h-0.11c-1.14,1.44-3.08,2.47-5.47,2.47c-3.72,0-5.81-2.7-5.81-5.51
		c0-4.67,4.14-7.03,10.98-6.99v-0.3c0-1.22-0.49-3.23-3.76-3.23c-1.82,0-3.72,0.57-4.98,1.37l-0.91-3.04
		c1.37-0.84,3.76-1.63,6.69-1.63c5.93,0,7.64,3.76,7.64,7.79v6.69c0,1.67,0.08,3.31,0.27,4.45H225.1z M224.49,40.61
		c-3.31-0.08-6.46,0.65-6.46,3.46c0,1.82,1.18,2.66,2.66,2.66c1.86,0,3.23-1.22,3.65-2.54c0.11-0.34,0.15-0.72,0.15-1.03V40.61z"/>
	<path class="st0" d="M233.99,22.67h4.71v26.98h-4.71V22.67z"/>
</g>
<line class="st2" x1="127.6" y1="0" x2="127.6" y2="70.2"/>
<path class="st0" d="M219.3,10.6l-3.1-1.8l-3.1,1.8l-3.1,1.8v7.2l3.1,1.8l3.1,1.8l3.1-1.8l3.1-1.8v-7.2L219.3,10.6z M217,5.3l4,2.3
	l4,2.3l0.9,0.5v11.1L225,22l-4,2.3l-4,2.3l-0.9,0.5l-0.9-0.5l-4-2.3l0,0l-4-2.3l-0.9-0.5V10.4l0.9-0.5l4-2.3l0,0l4-2.3l0.9-0.5
	L217,5.3z"/>
<rect x="165.7" y="14.6" class="st0" width="41.3" height="3.1"/>
<rect x="224.6" y="14.6" class="st0" width="13.4" height="3.1"/>
</svg>
