<?xml version="1.0" encoding="utf-8"?>
<!-- Generator: Adobe Illustrator 24.2.3, SVG Export Plug-In . SVG Version: 6.00 Build 0)  -->
<svg version="1.1" id="Layer_1" xmlns="http://www.w3.org/2000/svg" xmlns:xlink="http://www.w3.org/1999/xlink" x="0px" y="0px"
	 viewBox="0 0 313.2 70.2" style="enable-background:new 0 0 313.2 70.2;" xml:space="preserve">
<style type="text/css">
	.st0{fill:#FFFFFF;}
	.st1{fill:#FFFFFF;stroke:#FFFFFF;stroke-width:1.8;}
</style>
<path class="st0" d="M108.5,19.1V8.9H61.1L56.4,43L51.6,8.9H0v10.2h9.6v42.2h11.6V41.1h10.2v-9.7H21.3V19.1h13.1l-1.2,38.3
	c3.7-1,7.4-1.8,11.2-2.3V22.6l5.3,31.9c4.4-0.3,8.9-0.3,13.3,0.2l5.3-32.1v32.8c3.8,0.7,7.6,1.6,11.2,2.8l-1.2-39.2h8.9v42.2h11.6
	V19.1H108.5z"/>
<path class="st0" d="M308.5,49.1h4.7V22.5h-4.7V49.1z M299.2,42.8c0,0.3,0,0.7-0.1,1c-0.5,1.5-2,2.5-3.6,2.5
	c-1.3,0.1-2.5-0.9-2.6-2.2c0-0.1,0-0.3,0-0.4c0-2.8,3.1-3.5,6.4-3.4V42.8z M303.7,38.2c0-4-1.7-7.7-7.5-7.7
	c-2.3-0.1-4.6,0.5-6.6,1.6l0.9,3c1.5-0.9,3.2-1.3,4.9-1.3c3.2,0,3.7,2,3.7,3.2v0.3c-6.7,0-10.8,2.3-10.8,6.9c0,3,2.4,5.4,5.4,5.4
	c0.1,0,0.2,0,0.3,0c2.1,0.1,4.1-0.8,5.4-2.4h0.1l0.3,2h4.2c-0.2-1.5-0.3-2.9-0.3-4.4L303.7,38.2z M284.6,30.9h-4.6v18.2h4.6V30.9z
	 M267.6,27.6v3.4h-2.6v3.4h2.6v8.6c0,2.4,0.5,4,1.4,5.1c1.1,1.1,2.5,1.6,4,1.5c1.1,0,2.3-0.1,3.3-0.5l-0.1-3.5
	c-0.6,0.2-1.2,0.2-1.8,0.2c-1.8,0-2.4-1.2-2.4-3.4v-8.1h4.4v-3.4h-4.4v-4.7L267.6,27.6z M257.6,42.8c0,0.3,0,0.7-0.2,1
	c-0.5,1.5-2,2.5-3.6,2.5c-1.3,0.1-2.5-0.9-2.6-2.2c0-0.1,0-0.3,0-0.4c0-2.8,3.1-3.5,6.4-3.4L257.6,42.8z M262.1,38.2
	c0-4-1.7-7.7-7.5-7.7c-2.3-0.1-4.6,0.5-6.6,1.6l0.9,3c1.5-0.9,3.2-1.3,4.9-1.3c3.2,0,3.7,2,3.7,3.2v0.3c-6.7,0-10.8,2.3-10.8,6.9
	c0,3,2.4,5.4,5.4,5.4c0.1,0,0.2,0,0.3,0c2.1,0.1,4.1-0.8,5.4-2.4h0.1l0.3,2h4.2c-0.2-1.5-0.3-2.9-0.3-4.4L262.1,38.2z M230.7,38.7
	c0-0.4,0.1-0.8,0.2-1.2c0.4-2,2.1-3.4,4.1-3.4c3,0,4.5,2.6,4.5,5.8c0,3.6-1.7,6-4.6,6c-1.9,0-3.6-1.4-4-3.2
	c-0.1-0.4-0.2-0.8-0.1-1.3L230.7,38.7z M226.1,56.6h4.6v-9.4h0.1c1.2,1.6,3.1,2.5,5.1,2.4c4.2,0,8.3-3.2,8.3-9.8
	c0-5.7-3.5-9.3-7.7-9.3c-2.5-0.1-4.9,1.1-6.2,3.2h-0.1l-0.2-2.8h-4c0.1,1.7,0.1,3.7,0.1,6.1L226.1,56.6z M209.3,48.3
	c1.7,0.9,3.6,1.3,5.5,1.3c4.8,0,7.4-2.4,7.4-5.7c0-2.7-1.6-4.4-4.9-5.6c-2.3-0.8-3.2-1.4-3.2-2.5s0.9-1.9,2.5-1.9
	c1.4,0,2.7,0.4,3.9,1l0.9-3.3c-1.5-0.7-3.2-1.1-4.8-1.1c-4.2,0-6.9,2.5-6.9,5.7c0,2.1,1.5,4.1,5,5.3c2.2,0.8,3,1.4,3,2.7
	s-0.9,2-2.9,2c-1.6-0.1-3.2-0.5-4.7-1.3L209.3,48.3z M197.4,33.9c3.1,0,4.4,3.3,4.4,6.1c0,3.7-1.8,6.3-4.5,6.3
	c-2.8,0-4.5-2.7-4.5-6.2C192.9,37.1,194.2,33.9,197.4,33.9 M197.6,30.5c-5.5,0-9.4,3.7-9.4,9.7s4,9.4,9.1,9.4c4.6,0,9.4-3,9.4-9.7
	C206.6,34.3,203,30.5,197.6,30.5 M173.2,38.1c0.2-1.9,1.4-4.5,4.2-4.5c3.1,0,3.8,2.8,3.8,4.5H173.2z M185.4,41.3
	c0.1-0.6,0.2-1.3,0.2-1.9c0-4-1.9-8.9-7.9-8.9s-8.9,4.8-8.9,9.8c0,5.6,3.5,9.3,9.4,9.3c2.2,0,4.3-0.4,6.4-1.2l-0.7-3.2
	c-1.6,0.6-3.3,0.9-5.1,0.8c-2.9,0-5.5-1.4-5.6-4.7H185.4z M165.2,35.2h-8.9v3.6h4.5v6.3c-1.1,0.4-2.3,0.6-3.5,0.5
	c-5.2,0-8.8-3.4-8.8-9.1c0-5.9,3.8-9.1,9.2-9.1c2-0.1,3.9,0.3,5.7,1.1l1-3.7c-2.1-0.9-4.4-1.3-6.7-1.2c-8.4,0-14,5.1-14,13.1
	c-0.2,3.5,1.1,6.8,3.5,9.3c2.4,2.3,5.6,3.4,9.9,3.4c2.8,0,5.5-0.5,8.1-1.4L165.2,35.2z"/>
<line class="st1" x1="127.6" y1="0" x2="127.6" y2="70.2"/>
<path class="st0" d="M282.1,15.9c-2.4,0-4.3-1.9-4.3-4.3c0-2.4,1.9-4.3,4.3-4.3c2.4,0,4.3,1.9,4.3,4.3
	C286.4,14,284.5,15.9,282.1,15.9C282.1,15.9,282.1,15.9,282.1,15.9 M282.1,1.5c-5.7,0-10.2,4.6-10.2,10.3c0,9,10.2,16.3,10.2,16.3
	s10.3-7.6,10.3-16.3C292.3,6.1,287.7,1.5,282.1,1.5L282.1,1.5"/>
</svg>
