<svg id="Layer_1" data-name="Layer 1" xmlns="http://www.w3.org/2000/svg" viewBox="0 0 274.86 70.2"><defs><style>.cls-1{fill:#203467;}.cls-2{fill:none;stroke:#0099b0;stroke-width:1.8px;}.cls-3{font-size:38px;fill:#0099b0;font-family:MyriadPro-Semibold, Myriad Pro;font-weight:600;}.cls-4{fill:#663f98;}</style></defs><title>DFM Mobile</title><path class="cls-1" d="M392.38,281.18V270.93H345l-4.7,34.18-4.7-34.18H283.93v10.25h9.66v42.24h11.63V303.18h10.17v-9.74H305.22V281.18H318.3l-1.16,38.32a85.1,85.1,0,0,1,11.22-2.34V284.7l5.28,31.9a77.63,77.63,0,0,1,13.25.18l5.31-32.08v32.81a75.69,75.69,0,0,1,11.25,2.84l-1.19-39.17h8.88v42.24h11.59V281.18Z" transform="translate(-283.93 -262.07)"/><line class="cls-2" x1="127.61" x2="127.61" y2="70.2"/><text class="cls-3" transform="translate(142.65 49.56)">M</text><text class="cls-3" transform="translate(174.26 49.56)">obile</text><path class="cls-4" d="M550.85,270h-9.52a8,8,0,0,0-7.93,7.94v1.17a8,8,0,0,0,3.05,6.24l.53,6.75L543.9,287h7a8,8,0,0,0,7.94-7.93v-1.17a8,8,0,0,0-7.94-7.94m4.43,8.91c0,2.68-1.84,4.63-5,4.63h-6.88l-4,3.05-.74-3.39a4.83,4.83,0,0,1-1.46-1.42,5.09,5.09,0,0,1-.75-2.87v-1c0-3.25,2.5-4.64,5.41-4.64h8.39c3.15,0,5,2,5,4.64Z" transform="translate(-283.93 -262.07)"/></svg>