<svg id="Layer_1" data-name="Layer 1" xmlns="http://www.w3.org/2000/svg" viewBox="0 0 279.55 68.65"><defs><style>.cls-1{fill:#203467;}.cls-2{fill:none;stroke:#0099b0;stroke-width:1.51px;}.cls-3{fill:#0099b0;}</style></defs><title>DFM Analytics</title><path class="cls-1" d="M376.6,271v-10H330.25l-4.6,33.42-4.6-33.42H270.54v10H280v41.3h11.38V292.46h9.94v-9.53h-9.94V271h12.79L303,308.42a84.55,84.55,0,0,1,11-2.29V274.39l5.16,31.2a75.22,75.22,0,0,1,13,.17l5.2-31.37v32.08a74.39,74.39,0,0,1,11,2.78L347.14,271h8.68v41.3h11.34V271Z" transform="translate(-270.54 -252.26)"/><line class="cls-2" x1="124.79" x2="124.79" y2="68.65"/><path class="cls-3" d="M423.86,288.47l-2,6.72h-4.47l7.6-23.73h5.53l7.71,23.73h-4.65l-2.15-6.72Zm6.79-3.28-1.86-5.84c-.46-1.45-.85-3.06-1.2-4.44h-.07c-.35,1.38-.7,3-1.13,4.44l-1.83,5.84Z" transform="translate(-270.54 -252.26)"/><path class="cls-3" d="M440.8,283.15c0-2,0-3.62-.15-5.1h3.81l.21,2.57h.1a6.19,6.19,0,0,1,5.46-3c3,0,6.09,1.94,6.09,7.36v10.17H452v-9.68c0-2.46-.92-4.33-3.27-4.33a3.62,3.62,0,0,0-3.38,2.54,4.36,4.36,0,0,0-.18,1.4v10.07H440.8Z" transform="translate(-270.54 -252.26)"/><path class="cls-3" d="M470.05,295.19l-.28-1.9h-.1a6.37,6.37,0,0,1-5.07,2.29,5.09,5.09,0,0,1-5.39-5.11c0-4.33,3.84-6.51,10.18-6.47v-.28c0-1.13-.46-3-3.49-3a9.06,9.06,0,0,0-4.61,1.27l-.85-2.82a12.42,12.42,0,0,1,6.2-1.51c5.49,0,7.08,3.48,7.08,7.22v6.19a28.37,28.37,0,0,0,.24,4.12Zm-.56-8.38c-3.06-.07-6,.6-6,3.21a2.27,2.27,0,0,0,2.46,2.46,3.51,3.51,0,0,0,3.38-2.36,3,3,0,0,0,.14-.95Z" transform="translate(-270.54 -252.26)"/><rect class="cls-3" x="207.23" y="17.93" width="4.36" height="24.99"/><path class="cls-3" d="M489,278.05l3.1,9.19c.35,1.05.7,2.35.95,3.34h.1c.29-1,.6-2.25.92-3.38l2.67-9.15h4.65l-4.29,11.68c-2.36,6.41-4,9.26-6,11a8.66,8.66,0,0,1-4.54,2.22l-1-3.66a7.4,7.4,0,0,0,2.54-1.2,7.51,7.51,0,0,0,2.36-2.71,1.77,1.77,0,0,0,.28-.77,1.9,1.9,0,0,0-.25-.85l-6.26-15.73Z" transform="translate(-270.54 -252.26)"/><path class="cls-3" d="M508.33,273.15v4.9h4.12v3.23h-4.12v7.57c0,2.08.56,3.17,2.22,3.17a6.24,6.24,0,0,0,1.69-.21l.07,3.31a9.41,9.41,0,0,1-3.13.42,5,5,0,0,1-3.74-1.41c-.91-1-1.33-2.53-1.33-4.78v-8.07h-2.47v-3.23h2.47v-3.88Z" transform="translate(-270.54 -252.26)"/><rect class="cls-3" x="244.66" y="25.78" width="4.36" height="17.14"/><path class="cls-3" d="M536.29,294.66a12.41,12.41,0,0,1-4.86.88c-5.35,0-8.84-3.41-8.84-8.73,0-5.14,3.52-9.15,9.54-9.15a10.72,10.72,0,0,1,4.19.81l-.77,3.24a7.63,7.63,0,0,0-3.28-.67c-3.31,0-5.28,2.43-5.24,5.56,0,3.52,2.29,5.53,5.24,5.53a8.53,8.53,0,0,0,3.42-.67Z" transform="translate(-270.54 -252.26)"/><path class="cls-3" d="M538.75,291.21a9.69,9.69,0,0,0,4.4,1.23c1.91,0,2.75-.77,2.75-1.9s-.7-1.76-2.82-2.5c-3.34-1.16-4.75-3-4.71-5,0-3,2.5-5.39,6.47-5.39a10.1,10.1,0,0,1,4.55,1l-.85,3.06a7.73,7.73,0,0,0-3.63-1c-1.55,0-2.39.74-2.39,1.79s.81,1.62,3,2.4c3.1,1.12,4.54,2.71,4.58,5.24,0,3.1-2.43,5.35-7,5.35a11.11,11.11,0,0,1-5.21-1.19Z" transform="translate(-270.54 -252.26)"/><rect class="cls-1" x="244.66" y="14.72" width="4.36" height="7.93"/><rect class="cls-1" x="251.44" y="10.02" width="4.36" height="12.63"/><rect class="cls-1" x="258.92" y="5.29" width="4.36" height="17.36"/></svg>