<?xml version="1.0" encoding="utf-8"?>
<!-- Generator: Adobe Illustrator 24.2.3, SVG Export Plug-In . SVG Version: 6.00 Build 0)  -->
<svg version="1.1" id="Layer_1" xmlns="http://www.w3.org/2000/svg" xmlns:xlink="http://www.w3.org/1999/xlink" x="0px" y="0px"
	 viewBox="0 0 725 320" style="enable-background:new 0 0 725 320;" xml:space="preserve">
<style type="text/css">
	.st0{fill:#61AFBC;}
	.st1{fill:#186572;}
	.st2{fill:#BADDE2;}
	.st3{fill:#29ABE2;}
</style>
<g>
	<g>
		<rect x="15.82" y="23.41" class="st0" width="683.85" height="3.23"/>
	</g>
	<g>
		<rect x="15.82" y="68.45" class="st0" width="683.85" height="3.23"/>
	</g>
	<g>
		<rect x="15.82" y="113.49" class="st0" width="683.85" height="3.23"/>
	</g>
	<g>
		<rect x="15.82" y="158.53" class="st0" width="683.85" height="3.23"/>
	</g>
	<g>
		<rect x="15.82" y="203.56" class="st0" width="683.85" height="3.23"/>
	</g>
	<g>
		<rect x="15.82" y="248.6" class="st0" width="683.85" height="3.23"/>
	</g>
	<g>
		<rect x="15.82" y="293.62" class="st0" width="683.85" height="3.23"/>
	</g>
	<g>
		<rect x="63.43" y="25.03" class="st0" width="3.21" height="270.21"/>
	</g>
	<g>
		<rect x="111.28" y="25.03" class="st0" width="3.21" height="270.21"/>
	</g>
	<g>
		<rect x="159.13" y="25.03" class="st0" width="3.21" height="270.21"/>
	</g>
	<g>
		<rect x="206.98" y="25.03" class="st0" width="3.21" height="270.21"/>
	</g>
	<g>
		<rect x="254.83" y="25.03" class="st0" width="3.21" height="270.21"/>
	</g>
	<g>
		<rect x="302.67" y="25.03" class="st0" width="3.21" height="270.21"/>
	</g>
	<g>
		<rect x="350.52" y="25.03" class="st0" width="3.21" height="270.21"/>
	</g>
	<g>
		<rect x="398.37" y="25.03" class="st0" width="3.21" height="270.21"/>
	</g>
	<g>
		<rect x="446.22" y="25.03" class="st0" width="3.21" height="270.21"/>
	</g>
	<g>
		<rect x="494.07" y="25.03" class="st0" width="3.21" height="270.21"/>
	</g>
	<g>
		<rect x="541.92" y="25.03" class="st0" width="3.21" height="270.21"/>
	</g>
	<g>
		<rect x="589.76" y="25.03" class="st0" width="3.21" height="270.21"/>
	</g>
	<g>
		<rect x="637.61" y="25.03" class="st0" width="3.21" height="270.21"/>
	</g>
</g>
<g>
	<g>
		<g>
			<path class="st1" d="M107.32,197.61c3.07-3.07,8.05-3.07,11.13,0c3.08,3.07,3.08,8.05,0,11.14c-3.08,3.07-8.06,3.07-11.14,0
				C104.24,205.66,104.24,200.68,107.32,197.61z"/>
		</g>
		<g>
			<path class="st1" d="M203.57,107.52c3.07-3.07,8.05-3.07,11.13,0c3.08,3.07,3.08,8.06,0,11.14c-3.08,3.09-8.06,3.09-11.15,0
				C200.48,115.59,200.48,110.6,203.57,107.52z"/>
		</g>
		<g>
			<path class="st1" d="M250.87,197.61c3.07-3.07,8.05-3.07,11.13,0c3.08,3.07,3.08,8.05,0,11.14c-3.08,3.07-8.06,3.07-11.14,0
				C247.78,205.66,247.78,200.68,250.87,197.61z"/>
		</g>
		<g>
			<path class="st1" d="M298.71,63.92c3.07-3.06,8.05-3.06,11.13,0c3.08,3.09,3.08,8.06,0,11.15c-3.08,3.07-8.06,3.07-11.14,0
				C295.63,71.98,295.63,67.01,298.71,63.92z"/>
		</g>
		<g>
			<path class="st1" d="M346.56,242.63c3.07-3.06,8.05-3.06,11.13,0c3.08,3.09,3.08,8.06,0,11.15c-3.08,3.07-8.06,3.07-11.14,0
				C343.48,250.7,343.48,245.72,346.56,242.63z"/>
		</g>
		<g>
			<path class="st1" d="M489.58,109.53c3.07-3.07,8.05-3.07,11.13,0c3.08,3.09,3.08,8.05,0,11.14c-3.08,3.09-8.06,3.09-11.15,0
				C486.5,117.58,486.5,112.62,489.58,109.53z"/>
		</g>
		<g>
			<path class="st1" d="M585.8,151.15c3.07-3.06,8.05-3.06,11.13,0c3.08,3.09,3.08,8.06,0,11.15c-3.08,3.07-8.06,3.07-11.14,0
				C582.72,159.22,582.72,154.24,585.8,151.15z"/>
		</g>
		<g>
			<path class="st1" d="M441.92,199.6c3.07-3.07,8.05-3.07,11.14,0c3.08,3.07,3.08,8.05,0,11.14c-3.08,3.07-8.06,3.07-11.14,0
				C438.84,207.65,438.84,202.68,441.92,199.6z"/>
		</g>
		<g>
			<path class="st1" d="M633.65,106.13c3.07-3.06,8.05-3.06,11.13,0c3.08,3.09,3.08,8.06,0,11.15c-3.08,3.07-8.06,3.07-11.14,0
				C630.57,114.19,630.57,109.22,633.65,106.13z"/>
		</g>
		<g>
			<path class="st1" d="M59.47,153.98c3.07-3.07,8.05-3.07,11.13,0c3.08,3.07,3.08,8.05,0,11.14s-8.06,3.09-11.14,0
				C56.39,162.03,56.39,157.05,59.47,153.98z"/>
		</g>
		<g>
			<path class="st1" d="M155.17,107.54c3.07-3.07,8.05-3.07,11.13,0c3.08,3.07,3.08,8.05,0,11.14c-3.08,3.09-8.06,3.09-11.14,0
				C152.09,115.59,152.09,110.61,155.17,107.54z"/>
		</g>
	</g>
	<g>
		<path class="st1" d="M12.42,277.11c-0.22,0-0.45-0.05-0.66-0.14c-0.81-0.36-1.16-1.32-0.8-2.12l52.62-115.95
			c0.21-0.47,0.64-0.8,1.14-0.91c0.51-0.12,1.02,0.04,1.4,0.38l46.35,42.25l48.2-86.87c0.28-0.51,0.82-0.82,1.4-0.82H210
			c0.6,0,1.14,0.33,1.42,0.86l44.73,85.4l46.61-130.22c0.23-0.66,0.83-1.12,1.58-1.06c0.7,0.03,1.3,0.51,1.48,1.19l47.36,176.88
			l93.14-42.03l47.93-89.84c0.28-0.53,0.77-0.92,1.43-0.85l47.85,0.4c0.38,0,0.75,0.14,1.04,0.39l46.75,40.53l46.79-44.03
			c0.16-0.16,0.35-0.27,0.56-0.35l59.03-21.1c0.84-0.29,1.76,0.14,2.05,0.97c0.3,0.83-0.14,1.75-0.97,2.05l-58.72,20.99l-47.6,44.79
			c-0.6,0.57-1.53,0.59-2.15,0.05l-47.4-41.09l-46.28-0.39l-47.73,89.46c-0.17,0.31-0.43,0.56-0.76,0.71l-95.36,43.03
			c-0.43,0.18-0.92,0.18-1.35-0.01c-0.43-0.2-0.74-0.58-0.86-1.04L304.06,74.89l-46.12,128.83c-0.21,0.6-0.77,1.02-1.4,1.06
			c-0.68-0.03-1.24-0.29-1.53-0.86l-45.98-87.78h-46.01l-48.73,87.82c-0.24,0.42-0.66,0.72-1.14,0.8c-0.5,0.08-0.98-0.06-1.34-0.4
			l-46.22-42.13l-51.7,113.94C13.61,276.76,13.03,277.11,12.42,277.11z"/>
	</g>
</g>
<g>
	<g>
		<g>
			<path class="st2" d="M12.42,277.11c-0.33,0-0.66-0.1-0.94-0.31c-0.72-0.52-0.88-1.52-0.35-2.24l52.09-71.68l47.85-47.98
				l47.66-88.07c0.28-0.52,0.82-0.84,1.41-0.84h0.01c0.59,0,1.14,0.33,1.41,0.86l48.34,92.29l45.97,41.36l46.77-45.78l47.87-44.78
				c0.62-0.58,1.6-0.58,2.2,0.01l47.67,45.46l94.89,45.56l142.57-45.64l58.76-58.35c0.63-0.63,1.64-0.62,2.27,0.01
				c0.62,0.63,0.62,1.65-0.01,2.27l-59.03,58.62c-0.18,0.18-0.4,0.31-0.64,0.39l-143.54,45.95c-0.39,0.12-0.81,0.09-1.18-0.08
				l-95.7-45.95c-0.15-0.07-0.29-0.17-0.41-0.29l-46.75-44.59l-46.74,43.71l-47.82,46.81c-0.61,0.6-1.57,0.61-2.2,0.05l-47.3-42.56
				c-0.14-0.12-0.26-0.28-0.35-0.45L160.1,71.01l-46.34,85.63c-0.07,0.14-0.17,0.26-0.27,0.37l-47.85,47.96l-51.93,71.49
				C13.4,276.88,12.92,277.11,12.42,277.11z"/>
		</g>
	</g>
	<g>
		<g>
			<path class="st2" d="M106.79,150.29c3.07-3.07,8.05-3.07,11.13,0c3.08,3.09,3.08,8.06,0,11.14c-3.08,3.09-8.06,3.09-11.14,0
				C103.71,158.36,103.71,153.38,106.79,150.29z"/>
		</g>
		<g>
			<path class="st2" d="M203.04,154.57c3.07-3.07,8.05-3.07,11.13,0c3.08,3.09,3.08,8.05,0,11.14c-3.08,3.07-8.06,3.07-11.14,0
				C199.96,162.62,199.96,157.65,203.04,154.57z"/>
		</g>
		<g>
			<path class="st2" d="M250.87,197.61c3.07-3.07,8.05-3.07,11.13,0c3.08,3.07,3.08,8.05,0,11.14c-3.08,3.07-8.06,3.07-11.14,0
				C247.78,205.66,247.78,200.68,250.87,197.61z"/>
		</g>
		<g>
			<path class="st2" d="M298.19,150.29c3.07-3.07,8.05-3.07,11.13,0c3.08,3.09,3.08,8.06,0,11.14c-3.08,3.09-8.06,3.09-11.14,0
				C295.1,158.36,295.1,153.38,298.19,150.29z"/>
		</g>
		<g>
			<path class="st2" d="M346.56,109.16c3.07-3.07,8.05-3.07,11.13,0c3.08,3.07,3.08,8.05,0,11.14c-3.08,3.09-8.06,3.09-11.14,0
				C343.48,117.21,343.48,112.24,346.56,109.16z"/>
		</g>
		<g>
			<path class="st2" d="M393.89,154.57c3.07-3.07,8.05-3.07,11.13,0c3.08,3.09,3.08,8.05,0,11.14c-3.08,3.07-8.06,3.07-11.14,0
				C390.8,162.62,390.8,157.65,393.89,154.57z"/>
		</g>
		<g>
			<path class="st2" d="M393.89,154.57c3.07-3.07,8.05-3.07,11.13,0c3.08,3.09,3.08,8.05,0,11.14c-3.08,3.07-8.06,3.07-11.14,0
				C390.8,162.62,390.8,157.65,393.89,154.57z"/>
		</g>
		<g>
			<path class="st2" d="M393.89,154.57c3.07-3.07,8.05-3.07,11.13,0c3.08,3.09,3.08,8.05,0,11.14c-3.08,3.07-8.06,3.07-11.14,0
				C390.8,162.62,390.8,157.65,393.89,154.57z"/>
		</g>
		<g>
			<path class="st2" d="M489.58,197.13c3.07-3.07,8.05-3.07,11.13,0c3.08,3.07,3.08,8.05,0,11.14c-3.08,3.09-8.06,3.09-11.15,0
				C486.5,205.18,486.5,200.2,489.58,197.13z"/>
		</g>
		<g>
			<path class="st2" d="M633.12,151.17c3.07-3.06,8.05-3.06,11.13,0c3.08,3.09,3.08,8.06,0,11.15c-3.08,3.07-8.06,3.07-11.14,0
				C630.04,159.23,630.04,154.25,633.12,151.17z"/>
		</g>
		<g>
			<path class="st2" d="M58.94,198.25c3.07-3.07,8.05-3.07,11.13,0c3.08,3.09,3.08,8.06,0,11.14c-3.08,3.09-8.06,3.09-11.14,0
				C55.86,206.31,55.86,201.34,58.94,198.25z"/>
		</g>
		<g>
			<path class="st2" d="M154.64,62.02c3.07-3.07,8.05-3.07,11.13,0c3.08,3.09,3.08,8.06,0,11.14c-3.08,3.09-8.06,3.09-11.14,0
				C151.56,70.08,151.56,65.1,154.64,62.02z"/>
		</g>
	</g>
</g>
<g>
	<g>
		<path class="st3" d="M12.42,277.11c-0.6,0-1.17-0.33-1.44-0.9c-0.39-0.8-0.06-1.76,0.74-2.15l52.09-25.29l95.49-44.94
			L302.66,70.31c0.62-0.57,1.57-0.57,2.19-0.01l94.9,87.92l190.41-89.61c0.21-0.1,0.45-0.15,0.68-0.15h47.58l64.14-22.21
			c0.85-0.29,1.75,0.16,2.04,0.99c0.29,0.84-0.16,1.75-0.99,2.05l-64.4,22.29c-0.17,0.06-0.35,0.08-0.52,0.08H591.2l-191.07,89.92
			c-0.6,0.28-1.3,0.17-1.77-0.27l-94.6-87.64L161.3,206.35c-0.12,0.12-0.26,0.21-0.41,0.28l-95.7,45.04l-52.07,25.28
			C12.9,277.05,12.66,277.11,12.42,277.11z"/>
	</g>
	<g>
		<g>
			<path class="st3" d="M203.04,154.57c3.07-3.07,8.05-3.07,11.13,0c3.08,3.09,3.08,8.05,0,11.14c-3.08,3.07-8.06,3.07-11.14,0
				C199.96,162.62,199.96,157.65,203.04,154.57z"/>
		</g>
		<g>
			<path class="st3" d="M298.71,63.92c3.07-3.06,8.05-3.06,11.13,0c3.08,3.09,3.08,8.06,0,11.15c-3.08,3.07-8.06,3.07-11.14,0
				C295.63,71.98,295.63,67.01,298.71,63.92z"/>
		</g>
		<g>
			<path class="st3" d="M393.89,154.57c3.07-3.07,8.05-3.07,11.13,0c3.08,3.09,3.08,8.05,0,11.14c-3.08,3.07-8.06,3.07-11.14,0
				C390.8,162.62,390.8,157.65,393.89,154.57z"/>
		</g>
		<g>
			<path class="st3" d="M489.58,109.53c3.07-3.07,8.05-3.07,11.13,0c3.08,3.09,3.08,8.05,0,11.14c-3.08,3.09-8.06,3.09-11.15,0
				C486.5,117.58,486.5,112.62,489.58,109.53z"/>
		</g>
		<g>
			<path class="st3" d="M585.28,64.49c3.08-3.07,8.05-3.07,11.13,0c3.08,3.09,3.08,8.05,0,11.14c-3.08,3.09-8.06,3.09-11.14,0
				C582.2,72.54,582.2,67.58,585.28,64.49z"/>
		</g>
		<g>
			<path class="st3" d="M633.12,64.49c3.07-3.07,8.05-3.07,11.13,0c3.08,3.09,3.08,8.05,0,11.14c-3.08,3.09-8.06,3.09-11.14,0
				C630.04,72.54,630.04,67.58,633.12,64.49z"/>
		</g>
		<g>
			<path class="st3" d="M58.94,244.63c3.07-3.06,8.05-3.06,11.13,0c3.08,3.09,3.08,8.06,0,11.15c-3.08,3.07-8.06,3.07-11.14,0
				C55.86,252.69,55.86,247.71,58.94,244.63z"/>
		</g>
		<g>
			<path class="st3" d="M154.64,199.6c3.07-3.07,8.05-3.07,11.13,0c3.08,3.07,3.08,8.05,0,11.14c-3.08,3.07-8.06,3.07-11.14,0
				C151.56,207.65,151.56,202.68,154.64,199.6z"/>
		</g>
	</g>
</g>
</svg>
