<?xml version="1.0" encoding="utf-8"?>
<!-- Generator: Adobe Illustrator 24.2.3, SVG Export Plug-In . SVG Version: 6.00 Build 0)  -->
<svg version="1.1" id="Layer_1" xmlns="http://www.w3.org/2000/svg" xmlns:xlink="http://www.w3.org/1999/xlink" x="0px" y="0px"
	 viewBox="0 0 725 320" style="enable-background:new 0 0 725 320;" xml:space="preserve">
<style type="text/css">
	.st0{fill:#186572;}
	.st1{fill:#BADDE2;}
</style>
<g>
	<path class="st0" d="M115.54,196.89c-40.85,0-74.08-33.23-74.08-74.08c0-40.85,33.23-74.08,74.08-74.08
		c40.85,0,74.08,33.23,74.08,74.08C189.61,163.66,156.38,196.89,115.54,196.89z M115.54,72.49c-27.75,0-50.32,22.57-50.32,50.32
		c0,27.75,22.58,50.32,50.32,50.32c27.75,0,50.32-22.58,50.32-50.32C165.86,95.07,143.28,72.49,115.54,72.49z"/>
</g>
<g>
	<path class="st0" d="M279.65,196.89c-40.84,0-74.07-33.23-74.07-74.08c0-40.85,33.23-74.08,74.07-74.08
		c40.85,0,74.09,33.23,74.09,74.08C353.73,163.66,320.5,196.89,279.65,196.89z M279.65,72.49c-27.74,0-50.31,22.57-50.31,50.32
		c0,27.75,22.57,50.32,50.31,50.32c27.75,0,50.33-22.58,50.33-50.32C329.98,95.07,307.4,72.49,279.65,72.49z"/>
</g>
<g>
	<path class="st0" d="M443.77,196.89c-40.85,0-74.08-33.23-74.08-74.08c0-40.85,33.23-74.08,74.08-74.08
		c40.85,0,74.09,33.23,74.09,74.08C517.86,163.66,484.62,196.89,443.77,196.89z M443.77,72.49c-27.75,0-50.32,22.57-50.32,50.32
		c0,27.75,22.58,50.32,50.32,50.32c27.75,0,50.33-22.58,50.33-50.32C494.1,95.07,471.52,72.49,443.77,72.49z"/>
</g>
<g>
	<path class="st1" d="M607.89,196.89c-40.84,0-74.07-33.23-74.07-74.08c0-40.85,33.23-74.08,74.07-74.08
		c40.85,0,74.08,33.23,74.08,74.08C681.97,163.66,648.74,196.89,607.89,196.89z M607.89,72.49c-27.74,0-50.31,22.57-50.31,50.32
		c0,27.75,22.57,50.32,50.31,50.32c27.75,0,50.32-22.58,50.32-50.32C658.22,95.07,635.64,72.49,607.89,72.49z"/>
</g>
<g>
	<path class="st1" d="M189.61,122.81h-23.76c0-27.75-22.58-50.32-50.32-50.32V48.73C156.38,48.73,189.61,81.96,189.61,122.81z"/>
</g>
<g>
	<path class="st1" d="M279.65,196.89v-23.76c27.75,0,50.33-22.58,50.33-50.32c0-27.75-22.58-50.32-50.33-50.32V48.73
		c40.85,0,74.09,33.23,74.09,74.08C353.73,163.66,320.5,196.89,279.65,196.89z"/>
</g>
<g>
	<path class="st1" d="M443.77,196.89c-40.85,0-74.08-33.23-74.08-74.08h23.76c0,27.75,22.58,50.32,50.32,50.32
		c27.75,0,50.33-22.58,50.33-50.32c0-27.75-22.58-50.32-50.33-50.32V48.73c40.85,0,74.09,33.23,74.09,74.08
		C517.86,163.66,484.62,196.89,443.77,196.89z"/>
</g>
<g>
	<g>
		<path class="st1" d="M90.27,246.92l-10.9,10.28h15.87v5.02h-23.4v-5.02l14.47-13.61c1.88-1.79,2.9-3.81,2.9-5.69
			c0-3.14-2.31-4.97-5.74-4.97c-3.67,0-5.89,1.88-5.89,5.55v1.88h-5.74v-1.88c0-6.95,4.49-10.52,11.63-10.52
			c6.9,0,11.48,3.57,11.48,9.79C94.95,241.47,92.98,244.46,90.27,246.92z"/>
	</g>
	<g>
		<path class="st1" d="M101.28,252.23h5.74v0.43c0,3.33,2.27,5.02,5.79,5.02c3.67,0,5.88-1.69,5.88-6.51c0-4.73-2.22-6.51-5.79-6.51
			c-3.09,0-4.92,1.25-5.69,3.23h-5.55l1.54-19.45h19.45v4.97H107.7l-0.87,9.22c2.27-1.98,4.87-2.6,7.19-2.6
			c5.55,0,10.42,3.23,10.42,11.29c0,7.58-4.54,11.39-11.63,11.39c-7.05,0-11.53-3.62-11.53-10.37V252.23z"/>
	</g>
	<g>
		<path class="st1" d="M143.99,240.4c0,4-2.65,6.03-6.61,6.03c-4,0-6.66-2.03-6.66-6.03v-6.18c0-4.01,2.65-6.03,6.66-6.03
			c3.96,0,6.61,2.03,6.61,6.03V240.4z M156.83,228.44h4.73l-23.21,33.77h-4.73L156.83,228.44z M139.8,234.23
			c0-1.59-0.97-2.37-2.41-2.37c-1.5,0-2.46,0.77-2.46,2.37v6.18c0,1.59,0.96,2.36,2.46,2.36c1.45,0,2.41-0.77,2.41-2.36V234.23z
			 M164.45,256.42c0,4.01-2.65,6.03-6.66,6.03c-3.96,0-6.61-2.03-6.61-6.03v-6.18c0-4,2.65-6.03,6.61-6.03c4,0,6.66,2.03,6.66,6.03
			V256.42z M160.25,250.25c0-1.59-0.96-2.36-2.46-2.36c-1.45,0-2.41,0.77-2.41,2.36v6.18c0,1.59,0.97,2.37,2.41,2.37
			c1.5,0,2.46-0.77,2.46-2.37V250.25z"/>
	</g>
</g>
<g>
	<g>
		<path class="st1" d="M239.46,252.23h5.74v0.43c0,3.33,2.27,5.02,5.79,5.02c3.67,0,5.89-1.69,5.89-6.51c0-4.73-2.22-6.51-5.79-6.51
			c-3.09,0-4.92,1.25-5.69,3.23h-5.55l1.54-19.45h19.45v4.97h-14.96l-0.87,9.22c2.27-1.98,4.87-2.6,7.19-2.6
			c5.55,0,10.42,3.23,10.42,11.29c0,7.58-4.54,11.39-11.63,11.39c-7.04,0-11.53-3.62-11.53-10.37V252.23z"/>
	</g>
	<g>
		<path class="st1" d="M293.03,251.65c0,7.24-4.68,11.05-12.11,11.05c-7.33,0-12.01-3.81-12.01-11.05V239
			c0-7.19,4.68-11.05,12.11-11.05c7.33,0,12.02,3.86,12.02,11.05V251.65z M287.28,239c0-3.91-2.41-6.08-6.27-6.08
			c-3.96,0-6.37,2.17-6.37,6.08v12.64c0,3.91,2.41,6.03,6.27,6.03c3.95,0,6.37-2.12,6.37-6.03V239z"/>
	</g>
	<g>
		<path class="st1" d="M312.58,240.4c0,4-2.65,6.03-6.61,6.03c-4,0-6.66-2.03-6.66-6.03v-6.18c0-4.01,2.65-6.03,6.66-6.03
			c3.96,0,6.61,2.03,6.61,6.03V240.4z M325.41,228.44h4.73l-23.21,33.77h-4.73L325.41,228.44z M308.38,234.23
			c0-1.59-0.97-2.37-2.41-2.37c-1.5,0-2.46,0.77-2.46,2.37v6.18c0,1.59,0.96,2.36,2.46,2.36c1.45,0,2.41-0.77,2.41-2.36V234.23z
			 M333.03,256.42c0,4.01-2.65,6.03-6.66,6.03c-3.96,0-6.61-2.03-6.61-6.03v-6.18c0-4,2.65-6.03,6.61-6.03c4,0,6.66,2.03,6.66,6.03
			V256.42z M328.84,250.25c0-1.59-0.96-2.36-2.46-2.36c-1.45,0-2.41,0.77-2.41,2.36v6.18c0,1.59,0.97,2.37,2.41,2.37
			c1.5,0,2.46-0.77,2.46-2.37V250.25z"/>
	</g>
</g>
<g>
	<g>
		<path class="st1" d="M417.17,250.34h8.35v-7.28h5.74v7.28h4.78v4.97h-4.78v6.9h-5.74v-6.9h-14.18v-4.97l10.57-21.9h5.98
			L417.17,250.34z"/>
	</g>
	<g>
		<path class="st1" d="M440.63,252.23h5.74v0.43c0,3.33,2.27,5.02,5.79,5.02c3.67,0,5.89-1.69,5.89-6.51c0-4.73-2.22-6.51-5.79-6.51
			c-3.09,0-4.92,1.25-5.69,3.23h-5.55l1.54-19.45H462v4.97h-14.96l-0.87,9.22c2.27-1.98,4.87-2.6,7.19-2.6
			c5.55,0,10.42,3.23,10.42,11.29c0,7.58-4.54,11.39-11.63,11.39c-7.04,0-11.53-3.62-11.53-10.37V252.23z"/>
	</g>
	<g>
		<path class="st1" d="M483.33,240.4c0,4-2.65,6.03-6.61,6.03c-4,0-6.66-2.03-6.66-6.03v-6.18c0-4.01,2.65-6.03,6.66-6.03
			c3.96,0,6.61,2.03,6.61,6.03V240.4z M496.17,228.44h4.73l-23.21,33.77h-4.73L496.17,228.44z M479.13,234.23
			c0-1.59-0.97-2.37-2.41-2.37c-1.5,0-2.46,0.77-2.46,2.37v6.18c0,1.59,0.96,2.36,2.46,2.36c1.45,0,2.41-0.77,2.41-2.36V234.23z
			 M503.79,256.42c0,4.01-2.65,6.03-6.66,6.03c-3.96,0-6.61-2.03-6.61-6.03v-6.18c0-4,2.65-6.03,6.61-6.03c4,0,6.66,2.03,6.66,6.03
			V256.42z M499.59,250.25c0-1.59-0.96-2.36-2.46-2.36c-1.45,0-2.41,0.77-2.41,2.36v6.18c0,1.59,0.97,2.37,2.41,2.37
			c1.5,0,2.46-0.77,2.46-2.37V250.25z"/>
	</g>
</g>
<g>
	<g>
		<path class="st1" d="M578.63,262.21h-5.69v-27.98l-8.69,6.22v-5.79l8.69-6.22h5.69V262.21z"/>
	</g>
	<g>
		<path class="st1" d="M609.03,251.65c0,7.24-4.68,11.05-12.11,11.05c-7.33,0-12.01-3.81-12.01-11.05V239
			c0-7.19,4.68-11.05,12.11-11.05c7.33,0,12.01,3.86,12.01,11.05V251.65z M603.29,239c0-3.91-2.41-6.08-6.27-6.08
			c-3.96,0-6.37,2.17-6.37,6.08v12.64c0,3.91,2.41,6.03,6.27,6.03c3.95,0,6.37-2.12,6.37-6.03V239z"/>
	</g>
	<g>
		<path class="st1" d="M639.44,251.65c0,7.24-4.68,11.05-12.11,11.05c-7.33,0-12.01-3.81-12.01-11.05V239
			c0-7.19,4.68-11.05,12.11-11.05c7.33,0,12.01,3.86,12.01,11.05V251.65z M633.7,239c0-3.91-2.41-6.08-6.27-6.08
			c-3.96,0-6.37,2.17-6.37,6.08v12.64c0,3.91,2.41,6.03,6.27,6.03c3.95,0,6.37-2.12,6.37-6.03V239z"/>
	</g>
	<g>
		<path class="st1" d="M658.99,240.4c0,4-2.65,6.03-6.61,6.03c-4,0-6.66-2.03-6.66-6.03v-6.18c0-4.01,2.65-6.03,6.66-6.03
			c3.96,0,6.61,2.03,6.61,6.03V240.4z M671.82,228.44h4.73l-23.21,33.77h-4.73L671.82,228.44z M654.79,234.23
			c0-1.59-0.97-2.37-2.41-2.37c-1.5,0-2.46,0.77-2.46,2.37v6.18c0,1.59,0.96,2.36,2.46,2.36c1.45,0,2.41-0.77,2.41-2.36V234.23z
			 M679.45,256.42c0,4.01-2.65,6.03-6.66,6.03c-3.96,0-6.61-2.03-6.61-6.03v-6.18c0-4,2.65-6.03,6.61-6.03c4,0,6.66,2.03,6.66,6.03
			V256.42z M675.25,250.25c0-1.59-0.96-2.36-2.46-2.36c-1.45,0-2.41,0.77-2.41,2.36v6.18c0,1.59,0.97,2.37,2.41,2.37
			c1.5,0,2.46-0.77,2.46-2.37V250.25z"/>
	</g>
</g>
</svg>
