<?xml version="1.0" encoding="UTF-8"?>
<!DOCTYPE svg PUBLIC "-//W3C//DTD SVG 1.1//EN" "http://www.w3.org/Graphics/SVG/1.1/DTD/svg11.dtd">
<svg version="1.1" xmlns="http://www.w3.org/2000/svg" xmlns:xlink="http://www.w3.org/1999/xlink" x="0" y="0" width="262" height="72" viewBox="0, 0, 262, 72">
  <g id="Image">
    <path d="M122.662,2.562 L122.662,67.98 L120.984,67.98 L120.984,2.562 L122.662,2.562 z M51.056,10.818 L2.906,10.818 L2.906,20.37 L11.908,20.37 L11.908,59.733 L22.746,59.733 L22.746,40.871 L32.223,40.871 L32.223,31.795 L22.746,31.795 L22.746,20.37 L34.935,20.37 L33.854,56.08 C37.286,55.119 40.779,54.39 44.309,53.899 L44.309,23.65 L49.23,53.377 C53.343,53.081 57.474,53.137 61.577,53.545 L66.525,23.65 L66.525,54.225 C70.083,54.838 73.587,55.723 77.009,56.872 L75.9,20.37 L84.175,20.37 L84.175,59.733 L94.976,59.733 L94.976,20.37 L103.968,20.37 L103.968,10.818 L59.816,10.818 L55.436,42.67 L51.056,10.818 z M175.352,34.298 C178.327,34.298 179.531,37.379 179.53,40.07 C179.531,43.54 177.795,45.984 175.316,45.984 C172.661,45.984 171.032,43.47 171.032,40.141 C171.032,37.273 172.271,34.298 175.352,34.298 z M175.458,31.111 C170.253,31.111 166.535,34.581 166.534,40.247 C166.535,45.771 170.288,49.135 175.175,49.135 C179.566,49.135 184.028,46.302 184.028,39.964 C184.028,34.723 180.593,31.111 175.458,31.111 z M195.961,34.51 C198.865,34.51 200.317,36.989 200.317,40.035 C200.317,43.505 198.653,45.7 195.926,45.7 C194.049,45.7 192.526,44.39 192.066,42.655 C191.995,42.336 191.96,41.982 191.96,41.628 L191.96,38.831 C191.96,38.406 192.031,38.016 192.101,37.697 C192.597,35.785 194.191,34.51 195.961,34.51 z M191.96,23.604 L187.604,23.604 L187.604,43.894 C187.604,45.665 187.533,47.577 187.463,48.746 L191.181,48.746 L191.393,46.161 L191.464,46.161 C192.704,48.285 194.687,49.135 196.917,49.135 C200.813,49.135 204.743,46.055 204.743,39.857 C204.779,34.617 201.769,31.111 197.555,31.111 C194.97,31.111 193.093,32.209 192.031,33.873 L191.96,33.873 L191.96,23.604 z M233.568,34.085 C236.472,34.086 237.18,36.706 237.145,38.299 L229.567,38.299 C229.744,36.529 230.877,34.086 233.568,34.085 z M233.816,31.111 C228.292,31.111 225.388,35.608 225.388,40.389 C225.388,45.665 228.681,49.1 234.276,49.1 C236.755,49.1 238.809,48.64 240.296,48.037 L239.659,45.028 C238.349,45.523 236.897,45.807 234.878,45.807 C232.116,45.807 229.673,44.461 229.567,41.345 L241.111,41.345 C241.182,40.955 241.252,40.318 241.252,39.503 C241.252,35.714 239.411,31.111 233.816,31.111 z M212.711,31.5 L208.32,31.5 L208.32,48.746 L212.711,48.746 L212.711,31.5 z M145.081,24.878 L139.344,24.878 L137.751,48.746 L141.823,48.746 L142.354,39.149 C142.531,35.891 142.673,32.102 142.779,28.986 L142.85,28.986 C143.487,31.961 144.337,35.219 145.258,38.264 L148.445,48.462 L151.809,48.462 L155.279,38.122 C156.342,35.112 157.333,31.89 158.112,28.986 L158.218,28.986 C158.183,32.209 158.36,35.927 158.502,39.008 L158.962,48.746 L163.211,48.746 L161.83,24.878 L156.165,24.878 L152.871,34.44 C151.951,37.237 151.136,40.176 150.499,42.761 L150.392,42.761 C149.791,40.105 149.047,37.273 148.197,34.475 L145.081,24.878 z M221.776,23.604 L217.385,23.604 L217.385,48.746 L221.776,48.746 L221.776,23.604 z M251.13,12.962 C254.066,12.962 255.79,14.825 255.79,17.286 L255.818,18.217 C255.818,20.715 254.103,22.532 251.158,22.532 L244.747,22.532 L241.019,25.374 L240.33,22.215 C239.787,21.876 239.324,21.425 238.969,20.892 C238.476,20.09 238.233,19.159 238.27,18.217 L238.27,17.286 C238.27,14.257 240.6,12.962 243.312,12.962 L251.13,12.962 z M251.689,9.914 L251.643,9.952 L242.771,9.952 C238.701,9.987 235.412,13.281 235.382,17.351 L235.382,18.441 C235.394,20.711 236.441,22.852 238.224,24.256 L238.718,30.546 L245.166,25.794 L251.689,25.794 C255.76,25.763 259.053,22.474 259.089,18.404 L259.089,17.313 C259.058,13.24 255.763,9.945 251.689,9.914 z M210.515,24.312 C209.064,24.312 208.072,25.339 208.072,26.684 C208.072,27.995 209.028,29.022 210.48,29.022 C212.003,29.022 212.959,27.995 212.959,26.684 C212.923,25.339 212.003,24.312 210.515,24.312 z" fill="#FFFFFF"/>
  </g>
</svg>
