<?xml version="1.0" encoding="UTF-8"?>
<!DOCTYPE svg PUBLIC "-//W3C//DTD SVG 1.1//EN" "http://www.w3.org/Graphics/SVG/1.1/DTD/svg11.dtd">
<svg version="1.1" xmlns="http://www.w3.org/2000/svg" xmlns:xlink="http://www.w3.org/1999/xlink" x="0" y="0" width="228" height="72" viewBox="0, 0, 228, 72">
  <g id="Image">
    <path d="M122.567,3.096 L122.567,68.682 L120.885,68.682 L120.885,3.096 L122.567,3.096 z M50.759,11.374 L2.505,11.374 L2.505,20.95 L11.53,20.95 L11.53,60.413 L22.404,60.413 L22.404,41.504 L31.897,41.504 L31.897,32.404 L22.404,32.404 L22.404,20.95 L34.625,20.95 L33.532,56.751 C36.973,55.789 40.475,55.058 44.014,54.565 L44.014,24.239 L48.947,54.042 C53.074,53.745 57.218,53.801 61.335,54.21 L66.296,24.239 L66.296,54.892 C69.86,55.505 73.37,56.392 76.797,57.545 L75.686,20.95 L83.982,20.95 L83.982,60.413 L94.81,60.413 L94.81,20.95 L103.835,20.95 L103.835,11.374 L59.551,11.374 L55.16,43.307 L50.759,11.374 z M212.238,41.033 L212.238,43.412 C212.238,43.696 212.203,44.051 212.096,44.37 C211.706,45.613 210.428,46.749 208.688,46.749 C207.303,46.749 206.203,45.968 206.203,44.264 C206.203,41.637 209.149,40.962 212.238,41.033 z M209.362,31.802 C206.629,31.802 204.392,32.548 203.114,33.329 L203.966,36.169 C205.138,35.424 206.913,34.891 208.617,34.891 C211.67,34.891 212.132,36.773 212.132,37.909 L212.132,38.193 C205.741,38.157 201.871,40.358 201.871,44.725 C201.871,47.352 203.824,49.873 207.303,49.873 C209.54,49.873 211.351,48.914 212.416,47.565 L212.522,47.565 L212.806,49.482 L216.747,49.482 C216.569,48.417 216.498,46.891 216.498,45.329 L216.498,39.08 C216.498,35.317 214.901,31.802 209.362,31.802 z M164.882,34.998 C167.864,34.998 169.071,38.086 169.071,40.784 C169.071,44.264 167.332,46.713 164.846,46.713 C162.184,46.713 160.551,44.193 160.551,40.855 C160.551,37.98 161.793,34.998 164.882,34.998 z M164.989,31.802 C159.77,31.802 156.042,35.282 156.042,40.962 C156.042,46.5 159.805,49.873 164.704,49.873 C169.107,49.873 173.58,47.033 173.58,40.678 C173.58,35.424 170.136,31.802 164.989,31.802 z M195.623,27.258 L191.363,28.288 L191.363,32.193 L188.878,32.193 L188.878,35.459 L191.363,35.459 L191.363,43.589 C191.363,45.861 191.789,47.423 192.712,48.417 C193.528,49.305 194.878,49.838 196.475,49.837 C197.86,49.838 198.996,49.66 199.635,49.411 L199.564,46.074 C199.173,46.181 198.605,46.287 197.86,46.287 C196.191,46.287 195.623,45.187 195.623,43.092 L195.623,35.459 L199.777,35.459 L199.777,32.193 L195.623,32.193 L195.623,27.258 z M185.826,31.802 C183.98,31.802 181.957,33.045 181.105,35.495 L180.962,35.495 L180.82,32.193 L177.022,32.193 C177.128,33.755 177.164,35.424 177.164,37.767 L177.164,49.482 L181.531,49.482 L181.531,40.536 C181.531,40.039 181.602,39.577 181.673,39.187 C182.063,37.234 183.483,35.885 185.578,35.885 C186.11,35.885 186.501,35.956 186.856,36.027 L186.856,31.909 C186.501,31.838 186.252,31.802 185.826,31.802 z M145.178,28.714 C148.196,28.714 150.042,30.134 150.042,32.796 C150.042,35.601 148.054,37.199 144.788,37.199 C143.9,37.199 143.19,37.163 142.658,37.021 L142.658,28.927 C143.119,28.82 143.971,28.714 145.178,28.714 z M145.001,25.376 C142.054,25.377 139.888,25.59 138.326,25.873 L138.326,49.482 L142.658,49.482 L142.658,40.465 C143.226,40.571 143.971,40.607 144.788,40.607 C147.876,40.607 150.61,39.79 152.35,38.051 C153.699,36.773 154.409,34.891 154.409,32.619 C154.409,30.382 153.486,28.501 152.066,27.329 C150.539,26.051 148.196,25.377 145.001,25.376 z M225.516,24.276 L221.114,24.276 L221.114,49.482 L225.516,49.482 L225.516,24.276 z M204.465,11.327 L207.361,13.009 L210.267,14.681 L210.267,21.389 L207.361,23.052 L204.465,24.734 L201.569,23.052 L198.682,21.389 L198.682,14.681 L201.569,13.009 L204.465,11.327 z M204.465,7.609 L203.671,8.076 L199.934,10.215 L196.197,12.355 L195.384,12.822 L195.384,16.69 L157.284,16.69 L157.284,19.614 L195.384,19.614 L195.384,23.239 L196.197,23.715 L203.671,27.994 L204.465,28.452 L205.278,27.994 L212.752,23.715 L213.565,23.239 L213.565,19.614 L224.869,19.614 L224.869,16.69 L213.565,16.69 L213.565,12.822 L212.752,12.355 L209.015,10.215 L205.278,8.076 L204.465,7.609 z" fill="#FFFFFF"/>
  </g>
</svg>
