<?xml version="1.0" encoding="UTF-8"?>
<!DOCTYPE svg PUBLIC "-//W3C//DTD SVG 1.1//EN" "http://www.w3.org/Graphics/SVG/1.1/DTD/svg11.dtd">
<svg version="1.1" xmlns="http://www.w3.org/2000/svg" xmlns:xlink="http://www.w3.org/1999/xlink" x="0" y="0" width="278" height="72" viewBox="0, 0, 278, 72">
  <g id="Image">
    <path d="M120.397,4.256 L120.397,68.674 L118.989,68.674 L118.989,4.256 L120.397,4.256 z M49.995,12.379 L2.597,12.379 L2.597,21.78 L11.458,21.78 L11.458,60.542 L22.137,60.542 L22.137,42.019 L31.463,42.019 L31.463,33.084 L22.137,33.084 L22.137,21.78 L34.14,21.78 L33.077,56.942 C36.445,55.996 39.872,55.276 43.336,54.787 L43.336,25.017 L48.186,54.293 C52.224,54 56.281,54.053 60.31,54.452 L65.188,25.017 L65.188,55.123 C68.725,55.724 72.211,56.594 75.615,57.725 L74.524,21.78 L82.676,21.78 L82.676,60.542 L93.308,60.542 L93.308,21.78 L102.122,21.78 L102.122,12.379 L58.622,12.379 L54.313,43.745 L49.995,12.379 z M227.825,31.116 C230.967,31.116 233.515,33.664 233.515,36.806 C233.515,39.948 230.967,42.495 227.825,42.495 C224.683,42.495 222.136,39.948 222.136,36.806 C222.136,33.664 224.683,31.116 227.825,31.116 z M227.825,27.227 C222.535,27.227 218.247,31.516 218.247,36.806 C218.37,39.239 219.093,41.664 220.919,43.383 L215.979,49.874 L219.423,52.495 L224.541,45.769 C225.577,46.207 226.705,46.379 227.825,46.384 C233.115,46.384 237.404,42.096 237.404,36.806 C237.404,31.516 233.115,27.227 227.825,27.227 z M249.099,31.014 C251.813,31.014 253.259,33.42 253.259,36.377 C253.259,39.678 251.673,41.907 248.997,41.907 C247.215,41.914 245.667,40.686 245.266,38.951 C245.167,38.57 245.12,38.178 245.126,37.785 L245.145,35.211 C245.149,34.85 245.206,34.492 245.313,34.148 C245.694,32.35 247.262,31.052 249.099,31.014 z M250.508,27.656 C248.205,27.559 246.021,28.682 244.762,30.613 L244.697,30.613 L244.492,28.029 L240.761,28.029 C240.827,29.643 240.901,31.433 240.901,33.625 L240.967,51.57 L245.191,51.57 L245.191,42.915 L245.257,42.915 C246.342,44.389 248.091,45.226 249.92,45.144 C253.735,45.144 257.549,42.224 257.549,36.181 C257.549,30.958 254.35,27.656 250.508,27.656 z M210.982,27.684 C205.096,27.684 201.655,31.601 201.655,36.619 C201.655,41.805 205.059,45.144 210.282,45.144 C211.906,45.174 213.519,44.882 215.029,44.286 L214.451,41.152 C213.399,41.598 212.265,41.821 211.121,41.805 C208.23,41.805 206.001,39.846 206.001,36.414 C205.964,33.355 207.885,30.986 211.121,30.986 C212.22,30.96 213.311,31.183 214.311,31.639 L215.067,28.477 C213.771,27.943 212.383,27.673 210.981,27.684 z M267.892,30.566 C270.709,30.566 271.362,33.112 271.362,34.66 L264.013,34.66 C264.162,32.944 265.281,30.566 267.892,30.566 z M268.163,27.684 C262.781,27.684 259.983,32.021 259.983,36.684 C259.983,41.805 263.183,45.144 268.611,45.144 C270.605,45.174 272.587,44.823 274.449,44.108 L273.833,41.189 C272.341,41.736 270.759,41.992 269.17,41.945 C266.484,41.945 264.115,40.639 264.012,37.617 L275.242,37.617 C275.338,37.025 275.385,36.426 275.382,35.826 C275.382,32.152 273.544,27.684 268.163,27.684 z M192.366,21.221 C187.348,21.221 184.186,24.103 184.186,27.889 C184.186,31.219 186.62,33.243 190.435,34.623 C193.392,35.668 194.557,36.722 194.557,38.466 C194.557,40.359 193.047,41.627 190.332,41.627 C188.373,41.612 186.449,41.105 184.736,40.154 L183.804,43.698 C185.759,44.666 187.917,45.155 190.099,45.125 C196.096,45.125 198.894,41.907 198.894,38.177 C198.894,34.847 196.936,32.814 192.916,31.303 C189.82,30.1 188.476,29.279 188.476,27.488 C188.476,26.136 189.652,24.69 192.328,24.69 C193.931,24.676 195.513,25.054 196.936,25.791 L197.962,22.387 C196.214,21.563 194.297,21.163 192.366,21.221 z M160.487,28.029 L156.225,28.029 L156.225,44.817 L160.487,44.817 L160.487,28.029 z M174.207,27.684 C172.043,27.62 170.011,28.72 168.881,30.566 L168.825,30.566 L168.62,28.057 L164.89,28.057 C165.02,29.503 165.02,31.116 165.02,33.047 L164.992,44.817 L169.254,44.817 L169.254,34.968 C169.237,34.505 169.297,34.041 169.432,33.597 C169.887,32.148 171.215,31.15 172.733,31.116 C174.99,31.116 175.923,32.944 175.923,35.341 L175.923,44.817 L180.148,44.817 L180.148,34.866 C180.148,29.55 177.126,27.684 174.207,27.684 z M153.026,21.64 L139.661,21.64 L139.661,44.798 L143.886,44.798 L143.886,34.968 L152.411,34.968 L152.411,31.499 L143.886,31.499 L143.886,25.11 L153.026,25.11 L153.026,21.64 z M158.361,21.062 C157.391,21.059 156.517,21.644 156.151,22.542 C155.784,23.44 156,24.47 156.695,25.146 C157.39,25.821 158.425,26.008 159.312,25.617 C160.199,25.225 160.76,24.335 160.73,23.366 C160.746,22.739 160.5,22.133 160.05,21.695 C159.444,21.218 159.83,21.461 158.826,21.085 L158.361,21.062 z" fill="#FFFFFF"/>
  </g>
</svg>
