<?xml version="1.0" encoding="UTF-8"?>
<!DOCTYPE svg PUBLIC "-//W3C//DTD SVG 1.1//EN" "http://www.w3.org/Graphics/SVG/1.1/DTD/svg11.dtd">
<svg version="1.1" xmlns="http://www.w3.org/2000/svg" xmlns:xlink="http://www.w3.org/1999/xlink" x="0" y="0" width="271" height="72" viewBox="0, 0, 271, 72">
  <g id="Image">
    <path d="M122.112,2.837 L122.112,67.592 L120.688,67.592 L120.688,2.837 L122.112,2.837 z M51.334,11.081 L3.689,11.081 L3.689,20.514 L12.612,20.514 L12.612,59.471 L23.347,59.471 L23.347,40.756 L32.723,40.756 L32.723,31.767 L23.347,31.767 L23.347,20.514 L35.411,20.514 L34.308,55.811 C37.715,54.862 41.181,54.14 44.684,53.651 L44.684,23.712 L49.551,53.142 C53.635,52.841 57.738,52.895 61.813,53.302 L66.718,23.712 L66.718,53.972 C70.239,54.58 73.708,55.457 77.094,56.594 L75.944,20.514 L84.131,20.514 L84.131,59.471 L94.828,59.471 L94.828,20.514 L103.732,20.514 L103.732,11.081 L60.012,11.081 L55.673,42.605 L51.334,11.081 z M205.257,27.145 L211.162,41.983 C211.303,42.228 211.383,42.502 211.398,42.784 C211.368,43.044 211.277,43.293 211.134,43.511 C210.609,44.53 209.845,45.408 208.907,46.067 C208.188,46.594 207.375,46.978 206.511,47.199 L207.455,50.651 C209.059,50.395 210.55,49.666 211.737,48.557 C213.624,46.916 215.171,44.228 217.397,38.181 L221.443,27.164 L217.057,27.164 L214.539,35.795 C214.237,36.861 213.945,38.04 213.671,38.983 L213.577,38.983 C213.341,38.049 213.011,36.823 212.68,35.832 L209.756,27.164 L205.257,27.145 z M191.353,35.427 L191.334,37.653 C191.339,37.957 191.294,38.26 191.202,38.549 C190.733,39.903 189.446,40.801 188.014,40.775 C187.383,40.831 186.76,40.604 186.312,40.156 C185.865,39.709 185.638,39.086 185.693,38.455 C185.693,35.993 188.467,35.361 191.353,35.427 z M188.665,26.796 C186.625,26.753 184.609,27.244 182.816,28.22 L183.618,30.88 C184.934,30.099 186.436,29.685 187.967,29.682 C190.825,29.682 191.259,31.446 191.259,32.512 L191.259,32.776 C185.278,32.739 181.656,34.795 181.656,38.879 C181.649,40.207 182.191,41.478 183.154,42.391 C184.117,43.304 185.416,43.778 186.741,43.699 C188.581,43.75 190.344,42.954 191.523,41.539 L191.617,41.539 L191.881,43.332 L195.57,43.332 C195.4,42.043 195.324,40.745 195.343,39.445 L195.343,33.606 C195.343,30.079 193.843,26.796 188.665,26.796 z M227.99,22.542 L224.009,23.504 L224.009,27.164 L221.679,27.164 L221.679,30.211 L224.009,30.211 L224.009,37.823 C224.009,39.945 224.405,41.388 225.264,42.332 C226.204,43.246 227.482,43.728 228.792,43.662 C229.791,43.697 230.789,43.563 231.744,43.266 L231.678,40.143 C231.158,40.282 230.622,40.349 230.084,40.341 C228.518,40.341 227.99,39.313 227.99,37.351 L227.99,30.211 L231.876,30.211 L231.876,27.164 L227.99,27.164 L227.99,22.542 z M250.44,26.796 C244.761,26.796 241.441,30.579 241.441,35.427 C241.441,40.445 244.733,43.662 249.779,43.662 C251.348,43.695 252.907,43.413 254.364,42.832 L253.798,39.813 C252.777,40.244 251.679,40.459 250.572,40.445 C247.789,40.445 245.629,38.549 245.629,35.229 C245.591,32.276 247.45,29.984 250.572,29.984 C251.637,29.963 252.694,30.179 253.666,30.616 L254.392,27.56 C253.139,27.043 251.795,26.783 250.44,26.796 z M262.429,26.787 C258.684,26.787 256.326,29.041 256.326,31.871 C256.288,33.757 257.618,35.493 260.769,36.587 C262.768,37.285 263.429,37.879 263.429,38.945 C263.429,40.011 262.636,40.738 260.835,40.738 C259.378,40.687 257.955,40.289 256.684,39.577 L255.873,42.492 C257.395,43.261 259.082,43.646 260.787,43.615 C265.098,43.615 267.39,41.492 267.39,38.568 C267.353,36.182 265.994,34.682 263.07,33.625 C261.004,32.89 260.24,32.352 260.24,31.361 C260.24,30.371 261.033,29.673 262.495,29.673 C263.696,29.7 264.873,30.024 265.919,30.616 L266.721,27.73 C265.383,27.085 263.913,26.762 262.429,26.787 z M151.83,24.202 C152.16,25.504 152.528,27.022 152.962,28.39 L154.716,33.899 L148.972,33.899 L150.698,28.39 C151.104,27.032 151.434,25.504 151.764,24.202 L151.83,24.202 z M154.594,20.948 L149.377,20.948 L142.209,43.331 L146.425,43.331 L148.312,36.993 L155.452,36.993 L157.48,43.331 L161.866,43.331 L154.594,20.948 z M238.583,27.154 L234.47,27.154 L234.47,43.322 L238.583,43.322 L238.583,27.154 z M203.276,19.75 L199.163,19.75 L199.163,43.322 L203.276,43.322 L203.276,19.75 z M173.186,26.758 C171.085,26.706 169.118,27.787 168.035,29.588 L167.941,29.588 L167.743,27.164 L164.149,27.164 C164.291,28.56 164.291,30.088 164.29,31.974 L164.29,43.294 L168.413,43.294 L168.413,33.795 C168.397,33.349 168.455,32.903 168.583,32.475 C169.02,31.074 170.304,30.109 171.771,30.079 C173.987,30.079 174.855,31.843 174.855,34.163 L174.855,43.294 L178.93,43.294 L178.93,33.701 C178.93,28.588 176.016,26.758 173.186,26.758 z M244.978,12.288 L240.865,12.288 L240.865,24.202 L244.978,24.202 L244.978,12.288 z M238.583,16.722 L234.47,16.722 L234.47,24.202 L238.583,24.202 L238.583,16.722 z M252.034,7.827 L247.921,7.827 L247.921,24.202 L252.034,24.202 L252.034,7.827 z" fill="#FFFFFF"/>
  </g>
</svg>
