<?xml version="1.0" encoding="UTF-8"?>
<!DOCTYPE svg PUBLIC "-//W3C//DTD SVG 1.1//EN" "http://www.w3.org/Graphics/SVG/1.1/DTD/svg11.dtd">
<svg version="1.1" xmlns="http://www.w3.org/2000/svg" xmlns:xlink="http://www.w3.org/1999/xlink" x="0" y="0" width="296" height="72" viewBox="0, 0, 296, 72">
  <g id="Layer_2">
    <path d="M103.721,20.784 L103.721,11.361 L60.147,11.361 L55.817,42.783 L51.497,11.361 L4.016,11.361 L4.016,20.784 L12.887,20.784 L12.887,59.615 L23.587,59.615 L23.587,41.008 L32.927,41.008 L32.927,32.055 L23.596,32.055 L23.596,20.784 L35.621,20.784 L34.545,56.011 C37.931,55.064 41.377,54.345 44.859,53.86 L44.859,24.02 L49.713,53.345 C53.774,53.053 57.852,53.108 61.903,53.511 L66.784,24.02 L66.784,54.182 C70.291,54.786 73.745,55.659 77.117,56.793 L76.023,20.784 L84.187,20.784 L84.187,59.615 L94.841,59.615 L94.841,20.784 z M155.854,47.333 C153.453,48.182 150.927,48.627 148.38,48.648 C144.455,48.648 141.495,47.646 139.289,45.54 C137.075,43.264 135.903,40.172 136.053,37 C136.053,29.664 141.283,24.948 148.969,24.948 C151.079,24.891 153.178,25.266 155.137,26.052 L154.218,29.462 C152.556,28.75 150.758,28.408 148.95,28.46 C143.995,28.46 140.511,31.393 140.511,36.798 C140.511,42.066 143.747,45.2 148.573,45.2 C149.661,45.257 150.749,45.095 151.773,44.722 L151.773,38.931 L147.673,38.931 L147.673,35.594 L155.873,35.594 z M163.245,41.201 C163.346,44.235 165.727,45.54 168.412,45.54 C169.996,45.581 171.573,45.325 173.063,44.787 L173.679,47.71 C171.814,48.44 169.826,48.806 167.823,48.786 C162.381,48.786 159.182,45.403 159.182,40.273 C159.182,35.621 161.912,31.255 167.382,31.255 C172.852,31.255 174.617,35.741 174.617,39.418 C174.623,40.016 174.574,40.613 174.47,41.201 z M170.618,38.241 C170.646,36.697 169.965,34.141 167.134,34.141 C164.523,34.141 163.42,36.522 163.245,38.241 z M185.63,31.255 C190.631,31.255 193.968,34.766 193.968,39.859 C193.968,46.028 189.629,48.786 185.354,48.786 C180.629,48.786 176.952,45.642 176.952,40.135 C176.952,34.629 180.565,31.255 185.63,31.255 z M185.529,34.353 C182.532,34.353 181.328,37.276 181.328,40.034 C181.328,43.27 182.909,45.715 185.492,45.715 C187.91,45.715 189.592,43.343 189.592,39.96 C189.592,37.35 188.425,34.353 185.529,34.353 z M197.25,44.493 C198.566,45.234 200.042,45.647 201.552,45.697 C203.418,45.697 204.245,44.998 204.245,43.858 C204.245,42.718 203.556,42.139 201.488,41.413 C198.233,40.273 196.891,38.48 196.891,36.522 C196.891,33.562 199.336,31.255 203.225,31.255 C204.765,31.235 206.289,31.575 207.674,32.248 L206.847,35.244 C205.762,34.635 204.543,34.303 203.299,34.279 C201.782,34.279 200.954,34.969 200.954,36.035 C200.954,37.101 201.745,37.625 203.878,38.379 C206.911,39.482 208.364,41.036 208.364,43.509 C208.364,46.543 205.983,48.786 201.543,48.786 C199.77,48.804 198.019,48.391 196.441,47.581 z M211.848,37.212 C211.848,35.005 211.774,33.213 211.71,31.632 L215.387,31.632 L215.599,34.215 L215.672,34.215 C216.93,32.283 219.114,31.157 221.418,31.255 C225.279,31.255 228.478,34.555 228.478,39.795 C228.478,45.853 224.654,48.786 220.829,48.786 C218.981,48.877 217.209,48.034 216.113,46.543 L216.049,46.543 L216.049,55.221 L211.839,55.221 z M216.113,41.339 C216.103,41.736 216.15,42.132 216.251,42.516 C216.649,44.232 218.167,45.454 219.928,45.476 C222.622,45.476 224.203,43.27 224.203,39.96 C224.203,37 222.797,34.592 220.039,34.592 C218.201,34.629 216.631,35.928 216.251,37.727 C216.14,38.071 216.081,38.431 216.077,38.793 z M245.007,44.364 C244.989,45.71 245.068,47.056 245.246,48.39 L241.421,48.39 L241.146,46.552 L241.044,46.552 C239.826,48.022 237.998,48.849 236.09,48.795 C234.715,48.873 233.37,48.381 232.371,47.434 C231.372,46.487 230.808,45.17 230.813,43.794 C230.813,39.565 234.573,37.46 240.769,37.46 L240.769,37.184 C240.769,36.099 240.327,34.261 237.358,34.261 C235.771,34.264 234.213,34.689 232.844,35.493 L232.026,32.735 C233.88,31.716 235.97,31.205 238.084,31.255 C243.453,31.255 245.007,34.638 245.007,38.315 z M240.87,40.199 C237.873,40.126 235.023,40.779 235.023,43.334 C234.963,43.99 235.197,44.638 235.663,45.103 C236.128,45.568 236.776,45.803 237.432,45.743 C238.915,45.769 240.247,44.837 240.732,43.435 C240.828,43.139 240.874,42.828 240.87,42.516 z M254.108,27.339 L254.108,31.65 L258.171,31.65 L258.171,34.794 L254.144,34.794 L254.144,42.203 C254.144,44.235 254.696,45.301 256.314,45.301 C256.873,45.322 257.431,45.254 257.969,45.099 L258.033,48.335 C257.046,48.658 256.01,48.811 254.972,48.786 C253.602,48.849 252.268,48.336 251.295,47.37 C250.394,46.405 249.98,44.888 249.98,42.682 L249.98,34.812 L247.571,34.812 L247.571,31.65 L249.98,31.65 L249.98,28.552 z M265.608,48.418 L261.342,48.418 L261.342,31.65 L265.608,31.65 z M283.175,44.364 C283.157,45.71 283.237,47.056 283.414,48.39 L279.59,48.39 L279.314,46.552 L279.213,46.552 C277.995,48.022 276.167,48.849 274.258,48.795 C272.884,48.873 271.539,48.381 270.54,47.434 C269.541,46.487 268.977,45.17 268.982,43.794 C268.982,39.565 272.741,37.46 278.937,37.46 L278.937,37.184 C278.937,36.099 278.496,34.261 275.527,34.261 C273.942,34.263 272.387,34.688 271.022,35.493 L270.195,32.735 C272.048,31.714 274.138,31.203 276.253,31.255 C281.631,31.255 283.175,34.638 283.175,38.315 z M279.039,40.199 C276.051,40.126 273.192,40.779 273.192,43.334 C273.132,43.99 273.366,44.638 273.832,45.103 C274.297,45.568 274.945,45.803 275.6,45.743 C277.085,45.767 278.419,44.837 278.91,43.435 C278.999,43.137 279.042,42.827 279.039,42.516 z M287.652,23.946 L291.927,23.946 L291.927,48.399 L287.652,48.399 z M122.226,3.216 L120.426,3.216 L120.426,67.75 L122.226,67.75 L122.226,3.216 z M263.31,4.577 C268.519,4.577 272.741,8.8 272.741,14.009 C272.741,22.007 263.31,29.03 263.31,29.03 C263.31,29.03 253.887,22.283 253.887,14.009 C253.887,8.803 258.104,4.582 263.31,4.577 z M263.31,17.861 C264.366,17.863 265.38,17.445 266.127,16.698 C266.874,15.951 267.293,14.937 267.29,13.88 C267.29,11.682 265.508,9.9 263.31,9.9 C261.111,9.9 259.329,11.682 259.329,13.88 C259.329,16.079 261.111,17.861 263.31,17.861 z" fill="#FFFFFF"/>
  </g>
</svg>
