<?xml version="1.0" encoding="utf-8"?>
<!-- Generator: Adobe Illustrator 24.2.3, SVG Export Plug-In . SVG Version: 6.00 Build 0)  -->
<svg version="1.1" id="Layer_1" xmlns="http://www.w3.org/2000/svg" xmlns:xlink="http://www.w3.org/1999/xlink" x="0px" y="0px"
	 viewBox="0 0 725 320" style="enable-background:new 0 0 725 320;" xml:space="preserve">
<style type="text/css">
	.st0{fill:#BADDE2;}
	.st1{fill:#186572;}
</style>
<g>
	<rect x="179.28" y="73.36" class="st0" width="469.39" height="29.68"/>
</g>
<g>
	<rect x="179.28" y="125.18" class="st0" width="469.39" height="29.69"/>
</g>
<g>
	<rect x="179.28" y="177" class="st0" width="469.39" height="29.69"/>
</g>
<g>
	<rect x="179.28" y="228.82" class="st0" width="469.39" height="29.68"/>
</g>
<g>
	<rect x="179.28" y="73.36" class="st1" width="158.16" height="29.68"/>
</g>
<g>
	<rect x="179.28" y="125.18" class="st1" width="258.77" height="29.69"/>
</g>
<g>
	<rect x="179.28" y="177" class="st1" width="109.01" height="29.69"/>
</g>
<g>
	<rect x="179.28" y="228.82" class="st1" width="366.42" height="29.68"/>
</g>
<g>
	<g>
		<path class="st1" d="M79.02,88.95l-10.14,9.48h14.76v4.63H61.89v-4.63l13.46-12.54c1.75-1.65,2.69-3.52,2.69-5.25
			c0-2.9-2.15-4.58-5.34-4.58c-3.41,0-5.47,1.73-5.47,5.12v1.73h-5.34v-1.73c0-6.4,4.17-9.7,10.81-9.7c6.41,0,10.67,3.3,10.67,9.04
			C83.37,83.92,81.54,86.68,79.02,88.95z"/>
	</g>
	<g>
		<path class="st1" d="M89.26,93.84h5.34v0.4c0,3.07,2.11,4.63,5.38,4.63c3.41,0,5.47-1.55,5.47-6.01c0-4.36-2.07-6.01-5.38-6.01
			c-2.87,0-4.58,1.15-5.29,2.97h-5.16l1.44-17.93h18.08v4.58H95.23l-0.81,8.5c2.11-1.83,4.53-2.41,6.68-2.41
			c5.16,0,9.69,2.99,9.69,10.41c0,6.98-4.22,10.5-10.81,10.5c-6.55,0-10.72-3.34-10.72-9.57V93.84z"/>
	</g>
	<g>
		<path class="st1" d="M128.96,82.94c0,3.7-2.47,5.56-6.14,5.56c-3.72,0-6.19-1.86-6.19-5.56v-5.69c0-3.69,2.47-5.56,6.19-5.56
			c3.68,0,6.14,1.88,6.14,5.56V82.94z M140.89,71.91h4.4l-21.58,31.15h-4.39L140.89,71.91z M125.06,77.25c0-1.47-0.9-2.18-2.24-2.18
			c-1.39,0-2.29,0.71-2.29,2.18v5.69c0,1.47,0.9,2.19,2.29,2.19c1.35,0,2.24-0.72,2.24-2.19V77.25z M147.99,97.72
			c0,3.69-2.47,5.56-6.19,5.56c-3.68,0-6.14-1.88-6.14-5.56v-5.69c0-3.7,2.46-5.56,6.14-5.56c3.72,0,6.19,1.86,6.19,5.56V97.72z
			 M144.09,92.02c0-1.47-0.9-2.19-2.29-2.19c-1.35,0-2.24,0.72-2.24,2.19v5.69c0,1.47,0.9,2.18,2.24,2.18
			c1.39,0,2.29-0.71,2.29-2.18V92.02z"/>
	</g>
</g>
<g>
	<g>
		<path class="st1" d="M70.73,136.99h2.07c3.27,0,5.03-1.88,5.03-4.41c0-2.9-1.75-4.72-5.25-4.72c-3.54,0-5.47,1.69-5.47,4.58v0.93
			H61.8v-1.47c0-5.16,3.81-8.64,10.77-8.64c6.91,0,10.76,3.47,10.76,8.68c0,3.51-1.7,6.01-4.75,7.29c3.09,1.2,4.85,3.65,4.85,7.29
			c0,5.3-3.86,8.77-10.77,8.77c-7.05,0-10.86-3.47-10.86-8.68v-1.47h5.29v0.93c0,2.94,1.98,4.58,5.56,4.58
			c3.5,0,5.29-1.82,5.29-4.67c0-2.84-1.98-4.45-5.16-4.45h-2.07V136.99z"/>
	</g>
	<g>
		<path class="st1" d="M89.26,145.66h5.34v0.4c0,3.07,2.11,4.63,5.38,4.63c3.41,0,5.47-1.55,5.47-6.01c0-4.36-2.07-6.01-5.38-6.01
			c-2.87,0-4.58,1.15-5.29,2.97h-5.16l1.44-17.93h18.08v4.58H95.23l-0.81,8.5c2.11-1.83,4.53-2.41,6.68-2.41
			c5.16,0,9.69,2.99,9.69,10.41c0,6.98-4.22,10.5-10.81,10.5c-6.55,0-10.72-3.34-10.72-9.57V145.66z"/>
	</g>
	<g>
		<path class="st1" d="M128.96,134.76c0,3.7-2.47,5.56-6.14,5.56c-3.72,0-6.19-1.86-6.19-5.56v-5.69c0-3.69,2.47-5.56,6.19-5.56
			c3.68,0,6.14,1.88,6.14,5.56V134.76z M140.89,123.72h4.4l-21.58,31.15h-4.39L140.89,123.72z M125.06,129.06
			c0-1.47-0.9-2.18-2.24-2.18c-1.39,0-2.29,0.71-2.29,2.18v5.69c0,1.47,0.9,2.19,2.29,2.19c1.35,0,2.24-0.72,2.24-2.19V129.06z
			 M147.99,149.53c0,3.69-2.47,5.56-6.19,5.56c-3.68,0-6.14-1.88-6.14-5.56v-5.69c0-3.7,2.46-5.56,6.14-5.56
			c3.72,0,6.19,1.86,6.19,5.56V149.53z M144.09,143.84c0-1.47-0.9-2.19-2.29-2.19c-1.35,0-2.24,0.72-2.24,2.19v5.69
			c0,1.47,0.9,2.18,2.24,2.18c1.39,0,2.29-0.71,2.29-2.18V143.84z"/>
	</g>
</g>
<g>
	<g>
		<path class="st1" d="M73.82,206.69h-5.29v-25.8l-8.07,5.74v-5.34l8.07-5.74h5.29V206.69z"/>
	</g>
	<g>
		<path class="st1" d="M79.66,197.49H85v0.4c0,3.06,2.11,4.63,5.38,4.63c3.41,0,5.47-1.57,5.47-6.02c0-4.35-2.07-6.01-5.38-6.01
			c-2.87,0-4.58,1.17-5.29,2.99h-5.16l1.44-17.93h18.08v4.58H85.62l-0.81,8.49c2.11-1.82,4.53-2.4,6.68-2.4
			c5.16,0,9.69,2.97,9.69,10.4c0,6.99-4.22,10.5-10.81,10.5c-6.55,0-10.72-3.33-10.72-9.56V197.49z"/>
	</g>
	<g>
		<path class="st1" d="M119.36,186.59c0,3.69-2.47,5.56-6.14,5.56c-3.72,0-6.19-1.88-6.19-5.56v-5.69c0-3.7,2.47-5.56,6.19-5.56
			c3.68,0,6.14,1.86,6.14,5.56V186.59z M131.29,175.55h4.4l-21.58,31.14h-4.39L131.29,175.55z M115.46,180.89
			c0-1.48-0.9-2.19-2.24-2.19c-1.39,0-2.29,0.71-2.29,2.19v5.69c0,1.47,0.9,2.18,2.29,2.18c1.35,0,2.24-0.71,2.24-2.18V180.89z
			 M138.38,201.35c0,3.7-2.47,5.56-6.19,5.56c-3.68,0-6.14-1.86-6.14-5.56v-5.69c0-3.69,2.46-5.56,6.14-5.56
			c3.72,0,6.19,1.88,6.19,5.56V201.35z M134.48,195.66c0-1.47-0.9-2.18-2.29-2.18c-1.35,0-2.24,0.71-2.24,2.18v5.69
			c0,1.48,0.9,2.19,2.24,2.19c1.39,0,2.29-0.71,2.29-2.19V195.66z"/>
	</g>
</g>
<g>
	<g>
		<path class="st1" d="M79.11,242.4c3.23,1.48,4.89,4.14,4.89,7.7c0,5.3-3.95,8.85-11.35,8.85c-7.49,0-11.44-3.42-11.44-8.85
			c0-3.43,1.66-6.14,4.89-7.66c-2.64-1.42-4.08-3.86-4.08-7.03c0-5.07,3.86-8.49,10.54-8.49c6.73,0,10.63,3.29,10.63,8.49
			C83.19,238.49,81.72,240.94,79.11,242.4z M72.57,244.72c-3.91,0-6.01,1.91-6.01,4.85c0,2.89,2.15,4.76,6.1,4.76
			c3.9,0,6.01-1.88,6.01-4.76C78.67,246.59,76.51,244.72,72.57,244.72z M72.57,231.51c-3.32,0-5.25,1.78-5.25,4.48
			c0,2.68,1.93,4.41,5.34,4.41c3.27,0,5.2-1.73,5.2-4.41C77.86,233.24,75.93,231.51,72.57,231.51z"/>
	</g>
	<g>
		<path class="st1" d="M111.6,248.77c0,6.67-4.35,10.18-11.26,10.18c-6.82,0-11.17-3.51-11.17-10.18v-11.67
			c0-6.63,4.35-10.18,11.26-10.18c6.82,0,11.17,3.55,11.17,10.18V248.77z M106.26,237.11c0-3.6-2.24-5.59-5.83-5.59
			c-3.68,0-5.92,2-5.92,5.59v11.67c0,3.6,2.24,5.56,5.83,5.56c3.68,0,5.92-1.96,5.92-5.56V237.11z"/>
	</g>
	<g>
		<path class="st1" d="M129.77,238.4c0,3.69-2.47,5.56-6.14,5.56c-3.72,0-6.19-1.88-6.19-5.56v-5.69c0-3.7,2.47-5.56,6.19-5.56
			c3.68,0,6.14,1.86,6.14,5.56V238.4z M141.7,227.37h4.4l-21.58,31.14h-4.39L141.7,227.37z M125.87,232.71
			c0-1.48-0.9-2.19-2.24-2.19c-1.39,0-2.29,0.71-2.29,2.19v5.69c0,1.47,0.9,2.18,2.29,2.18c1.35,0,2.24-0.71,2.24-2.18V232.71z
			 M148.79,253.17c0,3.7-2.47,5.56-6.19,5.56c-3.68,0-6.14-1.86-6.14-5.56v-5.69c0-3.69,2.46-5.56,6.14-5.56
			c3.72,0,6.19,1.88,6.19,5.56V253.17z M144.89,247.47c0-1.47-0.9-2.18-2.29-2.18c-1.35,0-2.24,0.71-2.24,2.18v5.69
			c0,1.48,0.9,2.19,2.24,2.19c1.39,0,2.29-0.71,2.29-2.19V247.47z"/>
	</g>
</g>
</svg>
