<?xml version="1.0" encoding="utf-8"?>
<!-- Generator: Adobe Illustrator 24.2.3, SVG Export Plug-In . SVG Version: 6.00 Build 0)  -->
<svg version="1.1" id="Layer_1" xmlns="http://www.w3.org/2000/svg" xmlns:xlink="http://www.w3.org/1999/xlink" x="0px" y="0px"
	 viewBox="0 0 725 320" style="enable-background:new 0 0 725 320;" xml:space="preserve">
<style type="text/css">
	.st0{fill:#BADDE2;}
	.st1{fill:#186572;}
</style>
<g>
	<path class="st0" d="M41.72,40.22c0-5.84,4.73-10.58,10.57-10.58c5.85,0,10.58,4.74,10.58,10.58c0,5.85-4.73,10.58-10.58,10.58
		C46.45,50.8,41.72,46.07,41.72,40.22z"/>
</g>
<g>
	<path class="st0" d="M71.01,40.22c0-5.84,4.73-10.58,10.57-10.58c5.84,0,10.58,4.74,10.58,10.58c0,5.85-4.74,10.58-10.58,10.58
		C75.74,50.8,71.01,46.07,71.01,40.22z"/>
</g>
<g>
	<ellipse class="st0" cx="110.88" cy="40.22" rx="10.58" ry="10.58"/>
</g>
<g>
	<path class="st0" d="M129.6,40.22c0-5.84,4.74-10.58,10.58-10.58c5.84,0,10.57,4.74,10.57,10.58c0,5.85-4.73,10.58-10.57,10.58
		C134.34,50.8,129.6,46.07,129.6,40.22z"/>
</g>
<g>
	<path class="st0" d="M158.9,40.22c0-5.84,4.73-10.58,10.58-10.58c5.84,0,10.57,4.74,10.57,10.58c0,5.85-4.73,10.58-10.57,10.58
		C163.63,50.8,158.9,46.07,158.9,40.22z"/>
</g>
<g>
	<path class="st0" d="M41.72,67.08c0-5.84,4.73-10.58,10.57-10.58c5.85,0,10.58,4.74,10.58,10.58c0,5.84-4.73,10.58-10.58,10.58
		C46.45,77.66,41.72,72.92,41.72,67.08z"/>
</g>
<g>
	<path class="st0" d="M71.01,67.08c0-5.84,4.73-10.58,10.57-10.58c5.84,0,10.58,4.74,10.58,10.58c0,5.84-4.74,10.58-10.58,10.58
		C75.74,77.66,71.01,72.92,71.01,67.08z"/>
</g>
<g>
	<ellipse class="st0" cx="110.88" cy="67.08" rx="10.58" ry="10.58"/>
</g>
<g>
	<path class="st0" d="M129.6,67.08c0-5.84,4.74-10.58,10.58-10.58c5.84,0,10.57,4.74,10.57,10.58c0,5.84-4.73,10.58-10.57,10.58
		C134.34,77.66,129.6,72.92,129.6,67.08z"/>
</g>
<g>
	<path class="st0" d="M158.9,67.08c0-5.84,4.73-10.58,10.58-10.58c5.84,0,10.57,4.74,10.57,10.58c0,5.84-4.73,10.58-10.57,10.58
		C163.63,77.66,158.9,72.92,158.9,67.08z"/>
</g>
<g>
	<path class="st0" d="M41.72,93.93c0-5.84,4.73-10.58,10.57-10.58c5.85,0,10.58,4.74,10.58,10.58c0,5.85-4.73,10.58-10.58,10.58
		C46.45,104.5,41.72,99.78,41.72,93.93z"/>
</g>
<g>
	<path class="st0" d="M71.01,93.93c0-5.84,4.73-10.58,10.57-10.58c5.84,0,10.58,4.74,10.58,10.58c0,5.85-4.74,10.58-10.58,10.58
		C75.74,104.5,71.01,99.78,71.01,93.93z"/>
</g>
<g>
	<ellipse class="st0" cx="110.88" cy="93.93" rx="10.58" ry="10.58"/>
</g>
<g>
	<path class="st0" d="M129.6,93.93c0-5.84,4.74-10.58,10.58-10.58c5.84,0,10.57,4.74,10.57,10.58c0,5.85-4.73,10.58-10.57,10.58
		C134.34,104.5,129.6,99.78,129.6,93.93z"/>
</g>
<g>
	<path class="st0" d="M158.9,93.93c0-5.84,4.73-10.58,10.58-10.58c5.84,0,10.57,4.74,10.57,10.58c0,5.85-4.73,10.58-10.57,10.58
		C163.63,104.5,158.9,99.78,158.9,93.93z"/>
</g>
<g>
	<path class="st0" d="M41.72,120.78c0-5.84,4.73-10.58,10.57-10.58c5.85,0,10.58,4.74,10.58,10.58c0,5.84-4.73,10.58-10.58,10.58
		C46.45,131.36,41.72,126.62,41.72,120.78z"/>
</g>
<g>
	<path class="st0" d="M71.01,120.78c0-5.84,4.73-10.58,10.57-10.58c5.84,0,10.58,4.74,10.58,10.58c0,5.84-4.74,10.58-10.58,10.58
		C75.74,131.36,71.01,126.62,71.01,120.78z"/>
</g>
<g>
	<ellipse class="st0" cx="110.88" cy="120.78" rx="10.58" ry="10.58"/>
</g>
<g>
	<path class="st0" d="M129.6,120.78c0-5.84,4.74-10.58,10.58-10.58c5.84,0,10.57,4.74,10.57,10.58c0,5.84-4.73,10.58-10.57,10.58
		C134.34,131.36,129.6,126.62,129.6,120.78z"/>
</g>
<g>
	<path class="st0" d="M158.9,120.78c0-5.84,4.73-10.58,10.58-10.58c5.84,0,10.57,4.74,10.57,10.58c0,5.84-4.73,10.58-10.57,10.58
		C163.63,131.36,158.9,126.62,158.9,120.78z"/>
</g>
<g>
	<path class="st0" d="M41.72,147.63c0-5.84,4.73-10.58,10.57-10.58c5.85,0,10.58,4.74,10.58,10.58c0,5.85-4.73,10.58-10.58,10.58
		C46.45,158.21,41.72,153.48,41.72,147.63z"/>
</g>
<g>
	<path class="st0" d="M71.01,147.63c0-5.84,4.73-10.58,10.57-10.58c5.84,0,10.58,4.74,10.58,10.58c0,5.85-4.74,10.58-10.58,10.58
		C75.74,158.21,71.01,153.48,71.01,147.63z"/>
</g>
<g>
	<path class="st0" d="M100.3,147.63c0-5.84,4.74-10.58,10.58-10.58c5.84,0,10.58,4.74,10.58,10.58c0,5.85-4.74,10.58-10.58,10.58
		C105.04,158.21,100.3,153.48,100.3,147.63z"/>
</g>
<g>
	<path class="st0" d="M129.6,147.63c0-5.84,4.74-10.58,10.58-10.58c5.84,0,10.57,4.74,10.57,10.58c0,5.85-4.73,10.58-10.57,10.58
		C134.34,158.21,129.6,153.48,129.6,147.63z"/>
</g>
<g>
	<path class="st0" d="M158.9,147.63c0-5.84,4.73-10.58,10.58-10.58c5.84,0,10.57,4.74,10.57,10.58c0,5.85-4.73,10.58-10.57,10.58
		C163.63,158.21,158.9,153.48,158.9,147.63z"/>
</g>
<g>
	<path class="st0" d="M41.72,174.49c0-5.84,4.73-10.58,10.57-10.58c5.85,0,10.58,4.74,10.58,10.58c0,5.84-4.73,10.58-10.58,10.58
		C46.45,185.07,41.72,180.33,41.72,174.49z"/>
</g>
<g>
	<path class="st0" d="M71.01,174.49c0-5.84,4.73-10.58,10.57-10.58c5.84,0,10.58,4.74,10.58,10.58c0,5.84-4.74,10.58-10.58,10.58
		C75.74,185.07,71.01,180.33,71.01,174.49z"/>
</g>
<g>
	<ellipse class="st0" cx="110.88" cy="174.49" rx="10.58" ry="10.58"/>
</g>
<g>
	<path class="st0" d="M129.6,174.49c0-5.84,4.74-10.58,10.58-10.58c5.84,0,10.57,4.74,10.57,10.58c0,5.84-4.73,10.58-10.57,10.58
		C134.34,185.07,129.6,180.33,129.6,174.49z"/>
</g>
<g>
	<path class="st0" d="M158.9,174.49c0-5.84,4.73-10.58,10.58-10.58c5.84,0,10.57,4.74,10.57,10.58c0,5.84-4.73,10.58-10.57,10.58
		C163.63,185.07,158.9,180.33,158.9,174.49z"/>
</g>
<g>
	<path class="st0" d="M41.72,201.35c0-5.85,4.73-10.59,10.57-10.59c5.85,0,10.58,4.74,10.58,10.59c0,5.84-4.73,10.58-10.58,10.58
		C46.45,211.93,41.72,207.19,41.72,201.35z"/>
</g>
<g>
	<path class="st0" d="M71.01,201.35c0-5.85,4.73-10.59,10.57-10.59c5.84,0,10.58,4.74,10.58,10.59c0,5.84-4.74,10.58-10.58,10.58
		C75.74,211.93,71.01,207.19,71.01,201.35z"/>
</g>
<g>
	<path class="st0" d="M158.9,201.35c0-5.85,4.73-10.59,10.58-10.59c5.84,0,10.57,4.74,10.57,10.59c0,5.84-4.73,10.58-10.57,10.58
		C163.63,211.93,158.9,207.19,158.9,201.35z"/>
</g>
<g>
	<path class="st0" d="M41.72,228.2c0-5.84,4.73-10.58,10.57-10.58c5.85,0,10.58,4.74,10.58,10.58c0,5.84-4.73,10.58-10.58,10.58
		C46.45,238.77,41.72,234.03,41.72,228.2z"/>
</g>
<g>
	<path class="st0" d="M71.01,228.2c0-5.84,4.73-10.58,10.57-10.58c5.84,0,10.58,4.74,10.58,10.58c0,5.84-4.74,10.58-10.58,10.58
		C75.74,238.77,71.01,234.03,71.01,228.2z"/>
</g>
<g>
	<path class="st0" d="M71.01,255.05c0-5.85,4.73-10.59,10.57-10.59c5.84,0,10.58,4.74,10.58,10.59c0,5.85-4.74,10.58-10.58,10.58
		C75.74,265.63,71.01,260.9,71.01,255.05z"/>
</g>
<g>
	<g>
		<path class="st1" d="M100.3,201.35c0-5.85,4.74-10.59,10.58-10.59c5.84,0,10.58,4.74,10.58,10.59c0,5.84-4.74,10.58-10.58,10.58
			C105.04,211.93,100.3,207.19,100.3,201.35z"/>
	</g>
	<g>
		<path class="st1" d="M129.6,201.35c0-5.85,4.74-10.59,10.58-10.59c5.84,0,10.57,4.74,10.57,10.59c0,5.84-4.73,10.58-10.57,10.58
			C134.34,211.93,129.6,207.19,129.6,201.35z"/>
	</g>
	<g>
		<path class="st1" d="M100.3,228.2c0-5.84,4.74-10.58,10.58-10.58c5.84,0,10.58,4.74,10.58,10.58c0,5.84-4.74,10.58-10.58,10.58
			C105.04,238.77,100.3,234.03,100.3,228.2z"/>
	</g>
	<g>
		<path class="st1" d="M129.6,228.2c0-5.84,4.74-10.58,10.58-10.58c5.84,0,10.57,4.74,10.57,10.58c0,5.84-4.73,10.58-10.57,10.58
			C134.34,238.77,129.6,234.03,129.6,228.2z"/>
	</g>
	<g>
		<path class="st1" d="M158.9,228.2c0-5.84,4.73-10.58,10.58-10.58c5.84,0,10.57,4.74,10.57,10.58c0,5.84-4.73,10.58-10.57,10.58
			C163.63,238.77,158.9,234.03,158.9,228.2z"/>
	</g>
	<g>
		<path class="st1" d="M41.72,255.05c0-5.85,4.73-10.59,10.57-10.59c5.85,0,10.58,4.74,10.58,10.59c0,5.85-4.73,10.58-10.58,10.58
			C46.45,265.63,41.72,260.9,41.72,255.05z"/>
	</g>
	<g>
		<path class="st1" d="M100.3,255.05c0-5.85,4.74-10.59,10.58-10.59c5.84,0,10.58,4.74,10.58,10.59c0,5.85-4.74,10.58-10.58,10.58
			C105.04,265.63,100.3,260.9,100.3,255.05z"/>
	</g>
	<g>
		<path class="st1" d="M129.6,255.05c0-5.85,4.74-10.59,10.58-10.59c5.84,0,10.57,4.74,10.57,10.59c0,5.85-4.73,10.58-10.57,10.58
			C134.34,265.63,129.6,260.9,129.6,255.05z"/>
	</g>
	<g>
		<path class="st1" d="M158.9,255.05c0-5.85,4.73-10.59,10.58-10.59c5.84,0,10.57,4.74,10.57,10.59c0,5.85-4.73,10.58-10.57,10.58
			C163.63,265.63,158.9,260.9,158.9,255.05z"/>
	</g>
	<g>
		<path class="st1" d="M41.72,281.9c0-5.84,4.73-10.58,10.57-10.58c5.85,0,10.58,4.74,10.58,10.58c0,5.85-4.73,10.58-10.58,10.58
			C46.45,292.48,41.72,287.75,41.72,281.9z"/>
	</g>
	<g>
		<path class="st1" d="M71.01,281.9c0-5.84,4.73-10.58,10.57-10.58c5.84,0,10.58,4.74,10.58,10.58c0,5.85-4.74,10.58-10.58,10.58
			C75.74,292.48,71.01,287.75,71.01,281.9z"/>
	</g>
	<g>
		<ellipse class="st1" cx="110.88" cy="281.9" rx="10.58" ry="10.58"/>
	</g>
	<g>
		<path class="st1" d="M129.6,281.9c0-5.84,4.74-10.58,10.58-10.58c5.84,0,10.57,4.74,10.57,10.58c0,5.85-4.73,10.58-10.57,10.58
			C134.34,292.48,129.6,287.75,129.6,281.9z"/>
	</g>
	<g>
		<path class="st1" d="M158.9,281.9c0-5.84,4.73-10.58,10.58-10.58c5.84,0,10.57,4.74,10.57,10.58c0,5.85-4.73,10.58-10.57,10.58
			C163.63,292.48,158.9,287.75,158.9,281.9z"/>
	</g>
</g>
<g>
	<path class="st0" d="M211.43,40.22c0-5.84,4.73-10.58,10.57-10.58c5.85,0,10.58,4.74,10.58,10.58c0,5.85-4.73,10.58-10.58,10.58
		C216.16,50.8,211.43,46.07,211.43,40.22z"/>
</g>
<g>
	<path class="st0" d="M240.73,40.22c0-5.84,4.73-10.58,10.57-10.58c5.84,0,10.58,4.74,10.58,10.58c0,5.85-4.74,10.58-10.58,10.58
		C245.46,50.8,240.73,46.07,240.73,40.22z"/>
</g>
<g>
	<path class="st0" d="M270,40.22c0-5.84,4.75-10.58,10.59-10.58c5.84,0,10.58,4.74,10.58,10.58c0,5.85-4.74,10.58-10.58,10.58
		C274.75,50.8,270,46.07,270,40.22z"/>
</g>
<g>
	<path class="st0" d="M299.3,40.22c0-5.84,4.75-10.58,10.59-10.58c5.84,0,10.57,4.74,10.57,10.58c0,5.85-4.73,10.58-10.57,10.58
		C304.05,50.8,299.3,46.07,299.3,40.22z"/>
</g>
<g>
	<path class="st0" d="M328.61,40.22c0-5.84,4.72-10.58,10.58-10.58c5.84,0,10.57,4.74,10.57,10.58c0,5.85-4.73,10.58-10.57,10.58
		C333.33,50.8,328.61,46.07,328.61,40.22z"/>
</g>
<g>
	<path class="st0" d="M211.43,67.08c0-5.84,4.73-10.58,10.57-10.58c5.85,0,10.58,4.74,10.58,10.58c0,5.84-4.73,10.58-10.58,10.58
		C216.16,77.66,211.43,72.92,211.43,67.08z"/>
</g>
<g>
	<path class="st0" d="M240.73,67.08c0-5.84,4.73-10.58,10.57-10.58c5.84,0,10.58,4.74,10.58,10.58c0,5.84-4.74,10.58-10.58,10.58
		C245.46,77.66,240.73,72.92,240.73,67.08z"/>
</g>
<g>
	<path class="st0" d="M270,67.08c0-5.84,4.75-10.58,10.59-10.58c5.84,0,10.58,4.74,10.58,10.58c0,5.84-4.74,10.58-10.58,10.58
		C274.75,77.66,270,72.92,270,67.08z"/>
</g>
<g>
	<path class="st0" d="M299.3,67.08c0-5.84,4.75-10.58,10.59-10.58c5.84,0,10.57,4.74,10.57,10.58c0,5.84-4.73,10.58-10.57,10.58
		C304.05,77.66,299.3,72.92,299.3,67.08z"/>
</g>
<g>
	<path class="st0" d="M328.61,67.08c0-5.84,4.72-10.58,10.58-10.58c5.84,0,10.57,4.74,10.57,10.58c0,5.84-4.73,10.58-10.57,10.58
		C333.33,77.66,328.61,72.92,328.61,67.08z"/>
</g>
<g>
	<path class="st0" d="M240.73,93.93c0-5.84,4.73-10.58,10.57-10.58c5.84,0,10.58,4.74,10.58,10.58c0,5.85-4.74,10.58-10.58,10.58
		C245.46,104.5,240.73,99.78,240.73,93.93z"/>
</g>
<g>
	<path class="st0" d="M270,93.93c0-5.84,4.75-10.58,10.59-10.58c5.84,0,10.58,4.74,10.58,10.58c0,5.85-4.74,10.58-10.58,10.58
		C274.75,104.5,270,99.78,270,93.93z"/>
</g>
<g>
	<path class="st0" d="M299.3,93.93c0-5.84,4.75-10.58,10.59-10.58c5.84,0,10.57,4.74,10.57,10.58c0,5.85-4.73,10.58-10.57,10.58
		C304.05,104.5,299.3,99.78,299.3,93.93z"/>
</g>
<g>
	<path class="st0" d="M328.61,93.93c0-5.84,4.72-10.58,10.58-10.58c5.84,0,10.57,4.74,10.57,10.58c0,5.85-4.73,10.58-10.57,10.58
		C333.33,104.5,328.61,99.78,328.61,93.93z"/>
</g>
<g>
	<path class="st0" d="M270,120.78c0-5.84,4.75-10.58,10.59-10.58c5.84,0,10.58,4.74,10.58,10.58c0,5.84-4.74,10.58-10.58,10.58
		C274.75,131.36,270,126.62,270,120.78z"/>
</g>
<g>
	<path class="st0" d="M299.3,120.78c0-5.84,4.75-10.58,10.59-10.58c5.84,0,10.57,4.74,10.57,10.58c0,5.84-4.73,10.58-10.57,10.58
		C304.05,131.36,299.3,126.62,299.3,120.78z"/>
</g>
<g>
	<path class="st0" d="M328.61,120.78c0-5.84,4.72-10.58,10.58-10.58c5.84,0,10.57,4.74,10.57,10.58c0,5.84-4.73,10.58-10.57,10.58
		C333.33,131.36,328.61,126.62,328.61,120.78z"/>
</g>
<g>
	<path class="st0" d="M270,147.63c0-5.84,4.75-10.58,10.59-10.58c5.84,0,10.58,4.74,10.58,10.58c0,5.85-4.74,10.58-10.58,10.58
		C274.75,158.21,270,153.48,270,147.63z"/>
</g>
<g>
	<path class="st0" d="M299.3,147.63c0-5.84,4.75-10.58,10.59-10.58c5.84,0,10.57,4.74,10.57,10.58c0,5.85-4.73,10.58-10.57,10.58
		C304.05,158.21,299.3,153.48,299.3,147.63z"/>
</g>
<g>
	<path class="st0" d="M328.61,147.63c0-5.84,4.72-10.58,10.58-10.58c5.84,0,10.57,4.74,10.57,10.58c0,5.85-4.73,10.58-10.57,10.58
		C333.33,158.21,328.61,153.48,328.61,147.63z"/>
</g>
<g>
	<path class="st0" d="M328.61,174.49c0-5.84,4.72-10.58,10.58-10.58c5.84,0,10.57,4.74,10.57,10.58c0,5.84-4.73,10.58-10.57,10.58
		C333.33,185.07,328.61,180.33,328.61,174.49z"/>
</g>
<g>
	<g>
		<path class="st1" d="M211.43,93.93c0-5.84,4.73-10.58,10.57-10.58c5.85,0,10.58,4.74,10.58,10.58c0,5.85-4.73,10.58-10.58,10.58
			C216.16,104.5,211.43,99.78,211.43,93.93z"/>
	</g>
	<g>
		<path class="st1" d="M211.43,120.78c0-5.84,4.73-10.58,10.57-10.58c5.85,0,10.58,4.74,10.58,10.58c0,5.84-4.73,10.58-10.58,10.58
			C216.16,131.36,211.43,126.62,211.43,120.78z"/>
	</g>
	<g>
		<path class="st1" d="M240.73,120.78c0-5.84,4.73-10.58,10.57-10.58c5.84,0,10.58,4.74,10.58,10.58c0,5.84-4.74,10.58-10.58,10.58
			C245.46,131.36,240.73,126.62,240.73,120.78z"/>
	</g>
	<g>
		<path class="st1" d="M211.43,147.63c0-5.84,4.73-10.58,10.57-10.58c5.85,0,10.58,4.74,10.58,10.58c0,5.85-4.73,10.58-10.58,10.58
			C216.16,158.21,211.43,153.48,211.43,147.63z"/>
	</g>
	<g>
		<path class="st1" d="M240.73,147.63c0-5.84,4.73-10.58,10.57-10.58c5.84,0,10.58,4.74,10.58,10.58c0,5.85-4.74,10.58-10.58,10.58
			C245.46,158.21,240.73,153.48,240.73,147.63z"/>
	</g>
	<g>
		<path class="st1" d="M211.43,174.49c0-5.84,4.73-10.58,10.57-10.58c5.85,0,10.58,4.74,10.58,10.58c0,5.84-4.73,10.58-10.58,10.58
			C216.16,185.07,211.43,180.33,211.43,174.49z"/>
	</g>
	<g>
		<path class="st1" d="M240.73,174.49c0-5.84,4.73-10.58,10.57-10.58c5.84,0,10.58,4.74,10.58,10.58c0,5.84-4.74,10.58-10.58,10.58
			C245.46,185.07,240.73,180.33,240.73,174.49z"/>
	</g>
	<g>
		<path class="st1" d="M270,174.49c0-5.84,4.75-10.58,10.59-10.58c5.84,0,10.58,4.74,10.58,10.58c0,5.84-4.74,10.58-10.58,10.58
			C274.75,185.07,270,180.33,270,174.49z"/>
	</g>
	<g>
		<path class="st1" d="M299.3,174.49c0-5.84,4.75-10.58,10.59-10.58c5.84,0,10.57,4.74,10.57,10.58c0,5.84-4.73,10.58-10.57,10.58
			C304.05,185.07,299.3,180.33,299.3,174.49z"/>
	</g>
	<g>
		<path class="st1" d="M211.43,201.35c0-5.85,4.73-10.59,10.57-10.59c5.85,0,10.58,4.74,10.58,10.59c0,5.84-4.73,10.58-10.58,10.58
			C216.16,211.93,211.43,207.19,211.43,201.35z"/>
	</g>
	<g>
		<path class="st1" d="M240.73,201.35c0-5.85,4.73-10.59,10.57-10.59c5.84,0,10.58,4.74,10.58,10.59c0,5.84-4.74,10.58-10.58,10.58
			C245.46,211.93,240.73,207.19,240.73,201.35z"/>
	</g>
	<g>
		<path class="st1" d="M270,201.35c0-5.85,4.75-10.59,10.59-10.59c5.84,0,10.58,4.74,10.58,10.59c0,5.84-4.74,10.58-10.58,10.58
			C274.75,211.93,270,207.19,270,201.35z"/>
	</g>
	<g>
		<path class="st1" d="M299.3,201.35c0-5.85,4.75-10.59,10.59-10.59c5.84,0,10.57,4.74,10.57,10.59c0,5.84-4.73,10.58-10.57,10.58
			C304.05,211.93,299.3,207.19,299.3,201.35z"/>
	</g>
	<g>
		<path class="st1" d="M328.61,201.35c0-5.85,4.72-10.59,10.58-10.59c5.84,0,10.57,4.74,10.57,10.59c0,5.84-4.73,10.58-10.57,10.58
			C333.33,211.93,328.61,207.19,328.61,201.35z"/>
	</g>
	<g>
		<path class="st1" d="M211.43,228.2c0-5.84,4.73-10.58,10.57-10.58c5.85,0,10.58,4.74,10.58,10.58c0,5.84-4.73,10.58-10.58,10.58
			C216.16,238.77,211.43,234.03,211.43,228.2z"/>
	</g>
	<g>
		<path class="st1" d="M240.73,228.2c0-5.84,4.73-10.58,10.57-10.58c5.84,0,10.58,4.74,10.58,10.58c0,5.84-4.74,10.58-10.58,10.58
			C245.46,238.77,240.73,234.03,240.73,228.2z"/>
	</g>
	<g>
		<path class="st1" d="M270,228.2c0-5.84,4.75-10.58,10.59-10.58c5.84,0,10.58,4.74,10.58,10.58c0,5.84-4.74,10.58-10.58,10.58
			C274.75,238.77,270,234.03,270,228.2z"/>
	</g>
	<g>
		<path class="st1" d="M299.3,228.2c0-5.84,4.75-10.58,10.59-10.58c5.84,0,10.57,4.74,10.57,10.58c0,5.84-4.73,10.58-10.57,10.58
			C304.05,238.77,299.3,234.03,299.3,228.2z"/>
	</g>
	<g>
		<path class="st1" d="M328.61,228.2c0-5.84,4.72-10.58,10.58-10.58c5.84,0,10.57,4.74,10.57,10.58c0,5.84-4.73,10.58-10.57,10.58
			C333.33,238.77,328.61,234.03,328.61,228.2z"/>
	</g>
	<g>
		<path class="st1" d="M211.43,255.05c0-5.85,4.73-10.59,10.57-10.59c5.85,0,10.58,4.74,10.58,10.59c0,5.85-4.73,10.58-10.58,10.58
			C216.16,265.63,211.43,260.9,211.43,255.05z"/>
	</g>
	<g>
		<path class="st1" d="M240.73,255.05c0-5.85,4.73-10.59,10.57-10.59c5.84,0,10.58,4.74,10.58,10.59c0,5.85-4.74,10.58-10.58,10.58
			C245.46,265.63,240.73,260.9,240.73,255.05z"/>
	</g>
	<g>
		<path class="st1" d="M270,255.05c0-5.85,4.75-10.59,10.59-10.59c5.84,0,10.58,4.74,10.58,10.59c0,5.85-4.74,10.58-10.58,10.58
			C274.75,265.63,270,260.9,270,255.05z"/>
	</g>
	<g>
		<path class="st1" d="M299.3,255.05c0-5.85,4.75-10.59,10.59-10.59c5.84,0,10.57,4.74,10.57,10.59c0,5.85-4.73,10.58-10.57,10.58
			C304.05,265.63,299.3,260.9,299.3,255.05z"/>
	</g>
	<g>
		<path class="st1" d="M328.61,255.05c0-5.85,4.72-10.59,10.58-10.59c5.84,0,10.57,4.74,10.57,10.59c0,5.85-4.73,10.58-10.57,10.58
			C333.33,265.63,328.61,260.9,328.61,255.05z"/>
	</g>
	<g>
		<path class="st1" d="M211.43,281.9c0-5.84,4.73-10.58,10.57-10.58c5.85,0,10.58,4.74,10.58,10.58c0,5.85-4.73,10.58-10.58,10.58
			C216.16,292.48,211.43,287.75,211.43,281.9z"/>
	</g>
	<g>
		<path class="st1" d="M240.73,281.9c0-5.84,4.73-10.58,10.57-10.58c5.84,0,10.58,4.74,10.58,10.58c0,5.85-4.74,10.58-10.58,10.58
			C245.46,292.48,240.73,287.75,240.73,281.9z"/>
	</g>
	<g>
		<path class="st1" d="M270,281.9c0-5.84,4.75-10.58,10.59-10.58c5.84,0,10.58,4.74,10.58,10.58c0,5.85-4.74,10.58-10.58,10.58
			C274.75,292.48,270,287.75,270,281.9z"/>
	</g>
	<g>
		<path class="st1" d="M299.3,281.9c0-5.84,4.75-10.58,10.59-10.58c5.84,0,10.57,4.74,10.57,10.58c0,5.85-4.73,10.58-10.57,10.58
			C304.05,292.48,299.3,287.75,299.3,281.9z"/>
	</g>
	<g>
		<path class="st1" d="M328.61,281.9c0-5.84,4.72-10.58,10.58-10.58c5.84,0,10.57,4.74,10.57,10.58c0,5.85-4.73,10.58-10.57,10.58
			C333.33,292.48,328.61,287.75,328.61,281.9z"/>
	</g>
</g>
<g>
	<path class="st0" d="M381.13,40.22c0-5.84,4.73-10.58,10.57-10.58c5.86,0,10.58,4.74,10.58,10.58c0,5.85-4.72,10.58-10.58,10.58
		C385.86,50.8,381.13,46.07,381.13,40.22z"/>
</g>
<g>
	<path class="st0" d="M410.43,40.22c0-5.84,4.73-10.58,10.57-10.58c5.84,0,10.59,4.74,10.59,10.58c0,5.85-4.75,10.58-10.59,10.58
		C415.16,50.8,410.43,46.07,410.43,40.22z"/>
</g>
<g>
	<path class="st0" d="M439.72,40.22c0-5.84,4.74-10.58,10.58-10.58c5.84,0,10.59,4.74,10.59,10.58c0,5.85-4.75,10.58-10.59,10.58
		C444.46,50.8,439.72,46.07,439.72,40.22z"/>
</g>
<g>
	<path class="st0" d="M469.02,40.22c0-5.84,4.74-10.58,10.58-10.58s10.57,4.74,10.57,10.58c0,5.85-4.73,10.58-10.57,10.58
		S469.02,46.07,469.02,40.22z"/>
</g>
<g>
	<path class="st0" d="M498.31,40.22c0-5.84,4.73-10.58,10.58-10.58c5.84,0,10.57,4.74,10.57,10.58c0,5.85-4.73,10.58-10.57,10.58
		C503.04,50.8,498.31,46.07,498.31,40.22z"/>
</g>
<g>
	<path class="st0" d="M381.13,67.08c0-5.84,4.73-10.58,10.57-10.58c5.86,0,10.58,4.74,10.58,10.58c0,5.84-4.72,10.58-10.58,10.58
		C385.86,77.66,381.13,72.92,381.13,67.08z"/>
</g>
<g>
	<path class="st0" d="M410.43,67.08c0-5.84,4.73-10.58,10.57-10.58c5.84,0,10.59,4.74,10.59,10.58c0,5.84-4.75,10.58-10.59,10.58
		C415.16,77.66,410.43,72.92,410.43,67.08z"/>
</g>
<g>
	<path class="st0" d="M439.72,67.08c0-5.84,4.74-10.58,10.58-10.58c5.84,0,10.59,4.74,10.59,10.58c0,5.84-4.75,10.58-10.59,10.58
		C444.46,77.66,439.72,72.92,439.72,67.08z"/>
</g>
<g>
	<path class="st0" d="M469.02,67.08c0-5.84,4.74-10.58,10.58-10.58s10.57,4.74,10.57,10.58c0,5.84-4.73,10.58-10.57,10.58
		S469.02,72.92,469.02,67.08z"/>
</g>
<g>
	<path class="st0" d="M498.31,67.08c0-5.84,4.73-10.58,10.58-10.58c5.84,0,10.57,4.74,10.57,10.58c0,5.84-4.73,10.58-10.57,10.58
		C503.04,77.66,498.31,72.92,498.31,67.08z"/>
</g>
<g>
	<path class="st0" d="M381.13,93.93c0-5.84,4.73-10.58,10.57-10.58c5.86,0,10.58,4.74,10.58,10.58c0,5.85-4.72,10.58-10.58,10.58
		C385.86,104.5,381.13,99.78,381.13,93.93z"/>
</g>
<g>
	<path class="st0" d="M410.43,93.93c0-5.84,4.73-10.58,10.57-10.58c5.84,0,10.59,4.74,10.59,10.58c0,5.85-4.75,10.58-10.59,10.58
		C415.16,104.5,410.43,99.78,410.43,93.93z"/>
</g>
<g>
	<path class="st0" d="M439.72,93.93c0-5.84,4.74-10.58,10.58-10.58c5.84,0,10.59,4.74,10.59,10.58c0,5.85-4.75,10.58-10.59,10.58
		C444.46,104.5,439.72,99.78,439.72,93.93z"/>
</g>
<g>
	<path class="st0" d="M469.02,93.93c0-5.84,4.74-10.58,10.58-10.58s10.57,4.74,10.57,10.58c0,5.85-4.73,10.58-10.57,10.58
		S469.02,99.78,469.02,93.93z"/>
</g>
<g>
	<path class="st0" d="M498.31,93.93c0-5.84,4.73-10.58,10.58-10.58c5.84,0,10.57,4.74,10.57,10.58c0,5.85-4.73,10.58-10.57,10.58
		C503.04,104.5,498.31,99.78,498.31,93.93z"/>
</g>
<g>
	<path class="st0" d="M381.13,120.78c0-5.84,4.73-10.58,10.57-10.58c5.86,0,10.58,4.74,10.58,10.58c0,5.84-4.72,10.58-10.58,10.58
		C385.86,131.36,381.13,126.62,381.13,120.78z"/>
</g>
<g>
	<path class="st0" d="M410.43,120.78c0-5.84,4.73-10.58,10.57-10.58c5.84,0,10.59,4.74,10.59,10.58c0,5.84-4.75,10.58-10.59,10.58
		C415.16,131.36,410.43,126.62,410.43,120.78z"/>
</g>
<g>
	<path class="st0" d="M439.72,120.78c0-5.84,4.74-10.58,10.58-10.58c5.84,0,10.59,4.74,10.59,10.58c0,5.84-4.75,10.58-10.59,10.58
		C444.46,131.36,439.72,126.62,439.72,120.78z"/>
</g>
<g>
	<path class="st0" d="M469.02,120.78c0-5.84,4.74-10.58,10.58-10.58s10.57,4.74,10.57,10.58c0,5.84-4.73,10.58-10.57,10.58
		S469.02,126.62,469.02,120.78z"/>
</g>
<g>
	<path class="st0" d="M498.31,120.78c0-5.84,4.73-10.58,10.58-10.58c5.84,0,10.57,4.74,10.57,10.58c0,5.84-4.73,10.58-10.57,10.58
		C503.04,131.36,498.31,126.62,498.31,120.78z"/>
</g>
<g>
	<path class="st0" d="M381.13,147.63c0-5.84,4.73-10.58,10.57-10.58c5.86,0,10.58,4.74,10.58,10.58c0,5.85-4.72,10.58-10.58,10.58
		C385.86,158.21,381.13,153.48,381.13,147.63z"/>
</g>
<g>
	<path class="st0" d="M410.43,147.63c0-5.84,4.73-10.58,10.57-10.58c5.84,0,10.59,4.74,10.59,10.58c0,5.85-4.75,10.58-10.59,10.58
		C415.16,158.21,410.43,153.48,410.43,147.63z"/>
</g>
<g>
	<path class="st0" d="M439.72,147.63c0-5.84,4.74-10.58,10.58-10.58c5.84,0,10.59,4.74,10.59,10.58c0,5.85-4.75,10.58-10.59,10.58
		C444.46,158.21,439.72,153.48,439.72,147.63z"/>
</g>
<g>
	<path class="st0" d="M498.31,147.63c0-5.84,4.73-10.58,10.58-10.58c5.84,0,10.57,4.74,10.57,10.58c0,5.85-4.73,10.58-10.57,10.58
		C503.04,158.21,498.31,153.48,498.31,147.63z"/>
</g>
<g>
	<path class="st0" d="M381.13,174.49c0-5.84,4.73-10.58,10.57-10.58c5.86,0,10.58,4.74,10.58,10.58c0,5.84-4.72,10.58-10.58,10.58
		C385.86,185.07,381.13,180.33,381.13,174.49z"/>
</g>
<g>
	<path class="st0" d="M410.43,174.49c0-5.84,4.73-10.58,10.57-10.58c5.84,0,10.59,4.74,10.59,10.58c0,5.84-4.75,10.58-10.59,10.58
		C415.16,185.07,410.43,180.33,410.43,174.49z"/>
</g>
<g>
	<path class="st0" d="M498.31,174.49c0-5.84,4.73-10.58,10.58-10.58c5.84,0,10.57,4.74,10.57,10.58c0,5.84-4.73,10.58-10.57,10.58
		C503.04,185.07,498.31,180.33,498.31,174.49z"/>
</g>
<g>
	<path class="st0" d="M381.13,201.35c0-5.85,4.73-10.59,10.57-10.59c5.86,0,10.58,4.74,10.58,10.59c0,5.84-4.72,10.58-10.58,10.58
		C385.86,211.93,381.13,207.19,381.13,201.35z"/>
</g>
<g>
	<path class="st0" d="M498.31,201.35c0-5.85,4.73-10.59,10.58-10.59c5.84,0,10.57,4.74,10.57,10.59c0,5.84-4.73,10.58-10.57,10.58
		C503.04,211.93,498.31,207.19,498.31,201.35z"/>
</g>
<g>
	<g>
		<path class="st1" d="M469.02,147.63c0-5.84,4.74-10.58,10.58-10.58s10.57,4.74,10.57,10.58c0,5.85-4.73,10.58-10.57,10.58
			S469.02,153.48,469.02,147.63z"/>
	</g>
	<g>
		<path class="st1" d="M439.72,174.49c0-5.84,4.74-10.58,10.58-10.58c5.84,0,10.59,4.74,10.59,10.58c0,5.84-4.75,10.58-10.59,10.58
			C444.46,185.07,439.72,180.33,439.72,174.49z"/>
	</g>
	<g>
		<path class="st1" d="M469.02,174.49c0-5.84,4.74-10.58,10.58-10.58s10.57,4.74,10.57,10.58c0,5.84-4.73,10.58-10.57,10.58
			S469.02,180.33,469.02,174.49z"/>
	</g>
	<g>
		<path class="st1" d="M410.43,201.35c0-5.85,4.73-10.59,10.57-10.59c5.84,0,10.59,4.74,10.59,10.59c0,5.84-4.75,10.58-10.59,10.58
			C415.16,211.93,410.43,207.19,410.43,201.35z"/>
	</g>
	<g>
		<path class="st1" d="M439.72,201.35c0-5.85,4.74-10.59,10.58-10.59c5.84,0,10.59,4.74,10.59,10.59c0,5.84-4.75,10.58-10.59,10.58
			C444.46,211.93,439.72,207.19,439.72,201.35z"/>
	</g>
	<g>
		<path class="st1" d="M469.02,201.35c0-5.85,4.74-10.59,10.58-10.59s10.57,4.74,10.57,10.59c0,5.84-4.73,10.58-10.57,10.58
			S469.02,207.19,469.02,201.35z"/>
	</g>
	<g>
		<path class="st1" d="M381.13,228.2c0-5.84,4.73-10.58,10.57-10.58c5.86,0,10.58,4.74,10.58,10.58c0,5.84-4.72,10.58-10.58,10.58
			C385.86,238.77,381.13,234.03,381.13,228.2z"/>
	</g>
	<g>
		<path class="st1" d="M410.43,228.2c0-5.84,4.73-10.58,10.57-10.58c5.84,0,10.59,4.74,10.59,10.58c0,5.84-4.75,10.58-10.59,10.58
			C415.16,238.77,410.43,234.03,410.43,228.2z"/>
	</g>
	<g>
		<path class="st1" d="M439.72,228.2c0-5.84,4.74-10.58,10.58-10.58c5.84,0,10.59,4.74,10.59,10.58c0,5.84-4.75,10.58-10.59,10.58
			C444.46,238.77,439.72,234.03,439.72,228.2z"/>
	</g>
	<g>
		<path class="st1" d="M469.02,228.2c0-5.84,4.74-10.58,10.58-10.58s10.57,4.74,10.57,10.58c0,5.84-4.73,10.58-10.57,10.58
			S469.02,234.03,469.02,228.2z"/>
	</g>
	<g>
		<path class="st1" d="M498.31,228.2c0-5.84,4.73-10.58,10.58-10.58c5.84,0,10.57,4.74,10.57,10.58c0,5.84-4.73,10.58-10.57,10.58
			C503.04,238.77,498.31,234.03,498.31,228.2z"/>
	</g>
	<g>
		<path class="st1" d="M381.13,255.05c0-5.85,4.73-10.59,10.57-10.59c5.86,0,10.58,4.74,10.58,10.59c0,5.85-4.72,10.58-10.58,10.58
			C385.86,265.63,381.13,260.9,381.13,255.05z"/>
	</g>
	<g>
		<path class="st1" d="M410.43,255.05c0-5.85,4.73-10.59,10.57-10.59c5.84,0,10.59,4.74,10.59,10.59c0,5.85-4.75,10.58-10.59,10.58
			C415.16,265.63,410.43,260.9,410.43,255.05z"/>
	</g>
	<g>
		<path class="st1" d="M439.72,255.05c0-5.85,4.74-10.59,10.58-10.59c5.84,0,10.59,4.74,10.59,10.59c0,5.85-4.75,10.58-10.59,10.58
			C444.46,265.63,439.72,260.9,439.72,255.05z"/>
	</g>
	<g>
		<path class="st1" d="M469.02,255.05c0-5.85,4.74-10.59,10.58-10.59s10.57,4.74,10.57,10.59c0,5.85-4.73,10.58-10.57,10.58
			S469.02,260.9,469.02,255.05z"/>
	</g>
	<g>
		<path class="st1" d="M498.31,255.05c0-5.85,4.73-10.59,10.58-10.59c5.84,0,10.57,4.74,10.57,10.59c0,5.85-4.73,10.58-10.57,10.58
			C503.04,265.63,498.31,260.9,498.31,255.05z"/>
	</g>
	<g>
		<path class="st1" d="M381.13,281.9c0-5.84,4.73-10.58,10.57-10.58c5.86,0,10.58,4.74,10.58,10.58c0,5.85-4.72,10.58-10.58,10.58
			C385.86,292.48,381.13,287.75,381.13,281.9z"/>
	</g>
	<g>
		<path class="st1" d="M410.43,281.9c0-5.84,4.73-10.58,10.57-10.58c5.84,0,10.59,4.74,10.59,10.58c0,5.85-4.75,10.58-10.59,10.58
			C415.16,292.48,410.43,287.75,410.43,281.9z"/>
	</g>
	<g>
		<path class="st1" d="M439.72,281.9c0-5.84,4.74-10.58,10.58-10.58c5.84,0,10.59,4.74,10.59,10.58c0,5.85-4.75,10.58-10.59,10.58
			C444.46,292.48,439.72,287.75,439.72,281.9z"/>
	</g>
	<g>
		<path class="st1" d="M469.02,281.9c0-5.84,4.74-10.58,10.58-10.58s10.57,4.74,10.57,10.58c0,5.85-4.73,10.58-10.57,10.58
			S469.02,287.75,469.02,281.9z"/>
	</g>
	<g>
		<path class="st1" d="M498.31,281.9c0-5.84,4.73-10.58,10.58-10.58c5.84,0,10.57,4.74,10.57,10.58c0,5.85-4.73,10.58-10.57,10.58
			C503.04,292.48,498.31,287.75,498.31,281.9z"/>
	</g>
</g>
<g>
	<path class="st0" d="M550.84,40.22c0-5.84,4.73-10.58,10.57-10.58c5.85,0,10.58,4.74,10.58,10.58c0,5.85-4.73,10.58-10.58,10.58
		C555.58,50.8,550.84,46.07,550.84,40.22z"/>
</g>
<g>
	<path class="st0" d="M580.14,40.22c0-5.84,4.73-10.58,10.57-10.58c5.84,0,10.58,4.74,10.58,10.58c0,5.85-4.74,10.58-10.58,10.58
		C584.87,50.8,580.14,46.07,580.14,40.22z"/>
</g>
<g>
	<ellipse class="st0" cx="620.01" cy="40.22" rx="10.58" ry="10.58"/>
</g>
<g>
	<path class="st0" d="M638.73,40.22c0-5.84,4.74-10.58,10.58-10.58c5.84,0,10.57,4.74,10.57,10.58c0,5.85-4.73,10.58-10.57,10.58
		C643.47,50.8,638.73,46.07,638.73,40.22z"/>
</g>
<g>
	<path class="st0" d="M668.02,40.22c0-5.84,4.73-10.58,10.58-10.58c5.84,0,10.57,4.74,10.57,10.58c0,5.85-4.73,10.58-10.57,10.58
		C672.75,50.8,668.02,46.07,668.02,40.22z"/>
</g>
<g>
	<path class="st0" d="M550.84,67.08c0-5.84,4.73-10.58,10.57-10.58c5.85,0,10.58,4.74,10.58,10.58c0,5.84-4.73,10.58-10.58,10.58
		C555.58,77.66,550.84,72.92,550.84,67.08z"/>
</g>
<g>
	<path class="st0" d="M580.14,67.08c0-5.84,4.73-10.58,10.57-10.58c5.84,0,10.58,4.74,10.58,10.58c0,5.84-4.74,10.58-10.58,10.58
		C584.87,77.66,580.14,72.92,580.14,67.08z"/>
</g>
<g>
	<ellipse class="st0" cx="620.01" cy="67.08" rx="10.58" ry="10.58"/>
</g>
<g>
	<path class="st0" d="M638.73,67.08c0-5.84,4.74-10.58,10.58-10.58c5.84,0,10.57,4.74,10.57,10.58c0,5.84-4.73,10.58-10.57,10.58
		C643.47,77.66,638.73,72.92,638.73,67.08z"/>
</g>
<g>
	<path class="st0" d="M668.02,67.08c0-5.84,4.73-10.58,10.58-10.58c5.84,0,10.57,4.74,10.57,10.58c0,5.84-4.73,10.58-10.57,10.58
		C672.75,77.66,668.02,72.92,668.02,67.08z"/>
</g>
<g>
	<path class="st0" d="M550.84,93.93c0-5.84,4.73-10.58,10.57-10.58c5.85,0,10.58,4.74,10.58,10.58c0,5.85-4.73,10.58-10.58,10.58
		C555.58,104.5,550.84,99.78,550.84,93.93z"/>
</g>
<g>
	<path class="st0" d="M580.14,93.93c0-5.84,4.73-10.58,10.57-10.58c5.84,0,10.58,4.74,10.58,10.58c0,5.85-4.74,10.58-10.58,10.58
		C584.87,104.5,580.14,99.78,580.14,93.93z"/>
</g>
<g>
	<ellipse class="st0" cx="620.01" cy="93.93" rx="10.58" ry="10.58"/>
</g>
<g>
	<path class="st0" d="M638.73,93.93c0-5.84,4.74-10.58,10.58-10.58c5.84,0,10.57,4.74,10.57,10.58c0,5.85-4.73,10.58-10.57,10.58
		C643.47,104.5,638.73,99.78,638.73,93.93z"/>
</g>
<g>
	<path class="st0" d="M668.02,93.93c0-5.84,4.73-10.58,10.58-10.58c5.84,0,10.57,4.74,10.57,10.58c0,5.85-4.73,10.58-10.57,10.58
		C672.75,104.5,668.02,99.78,668.02,93.93z"/>
</g>
<g>
	<path class="st0" d="M550.84,120.78c0-5.84,4.73-10.58,10.57-10.58c5.85,0,10.58,4.74,10.58,10.58c0,5.84-4.73,10.58-10.58,10.58
		C555.58,131.36,550.84,126.62,550.84,120.78z"/>
</g>
<g>
	<path class="st0" d="M580.14,120.78c0-5.84,4.73-10.58,10.57-10.58c5.84,0,10.58,4.74,10.58,10.58c0,5.84-4.74,10.58-10.58,10.58
		C584.87,131.36,580.14,126.62,580.14,120.78z"/>
</g>
<g>
	<ellipse class="st0" cx="620.01" cy="120.78" rx="10.58" ry="10.58"/>
</g>
<g>
	<path class="st0" d="M638.73,120.78c0-5.84,4.74-10.58,10.58-10.58c5.84,0,10.57,4.74,10.57,10.58c0,5.84-4.73,10.58-10.57,10.58
		C643.47,131.36,638.73,126.62,638.73,120.78z"/>
</g>
<g>
	<path class="st0" d="M668.02,120.78c0-5.84,4.73-10.58,10.58-10.58c5.84,0,10.57,4.74,10.57,10.58c0,5.84-4.73,10.58-10.57,10.58
		C672.75,131.36,668.02,126.62,668.02,120.78z"/>
</g>
<g>
	<path class="st0" d="M550.84,147.63c0-5.84,4.73-10.58,10.57-10.58c5.85,0,10.58,4.74,10.58,10.58c0,5.85-4.73,10.58-10.58,10.58
		C555.58,158.21,550.84,153.48,550.84,147.63z"/>
</g>
<g>
	<path class="st0" d="M580.14,147.63c0-5.84,4.73-10.58,10.57-10.58c5.84,0,10.58,4.74,10.58,10.58c0,5.85-4.74,10.58-10.58,10.58
		C584.87,158.21,580.14,153.48,580.14,147.63z"/>
</g>
<g>
	<path class="st0" d="M609.43,147.63c0-5.84,4.74-10.58,10.58-10.58c5.84,0,10.58,4.74,10.58,10.58c0,5.85-4.74,10.58-10.58,10.58
		C614.17,158.21,609.43,153.48,609.43,147.63z"/>
</g>
<g>
	<path class="st0" d="M638.73,147.63c0-5.84,4.74-10.58,10.58-10.58c5.84,0,10.57,4.74,10.57,10.58c0,5.85-4.73,10.58-10.57,10.58
		C643.47,158.21,638.73,153.48,638.73,147.63z"/>
</g>
<g>
	<path class="st0" d="M668.02,147.63c0-5.84,4.73-10.58,10.58-10.58c5.84,0,10.57,4.74,10.57,10.58c0,5.85-4.73,10.58-10.57,10.58
		C672.75,158.21,668.02,153.48,668.02,147.63z"/>
</g>
<g>
	<path class="st0" d="M550.84,174.49c0-5.84,4.73-10.58,10.57-10.58c5.85,0,10.58,4.74,10.58,10.58c0,5.84-4.73,10.58-10.58,10.58
		C555.58,185.07,550.84,180.33,550.84,174.49z"/>
</g>
<g>
	<path class="st0" d="M580.14,174.49c0-5.84,4.73-10.58,10.57-10.58c5.84,0,10.58,4.74,10.58,10.58c0,5.84-4.74,10.58-10.58,10.58
		C584.87,185.07,580.14,180.33,580.14,174.49z"/>
</g>
<g>
	<ellipse class="st0" cx="620.01" cy="174.49" rx="10.58" ry="10.58"/>
</g>
<g>
	<path class="st0" d="M668.02,174.49c0-5.84,4.73-10.58,10.58-10.58c5.84,0,10.57,4.74,10.57,10.58c0,5.84-4.73,10.58-10.57,10.58
		C672.75,185.07,668.02,180.33,668.02,174.49z"/>
</g>
<g>
	<path class="st0" d="M550.84,201.35c0-5.85,4.73-10.59,10.57-10.59c5.85,0,10.58,4.74,10.58,10.59c0,5.84-4.73,10.58-10.58,10.58
		C555.58,211.93,550.84,207.19,550.84,201.35z"/>
</g>
<g>
	<path class="st0" d="M580.14,201.35c0-5.85,4.73-10.59,10.57-10.59c5.84,0,10.58,4.74,10.58,10.59c0,5.84-4.74,10.58-10.58,10.58
		C584.87,211.93,580.14,207.19,580.14,201.35z"/>
</g>
<g>
	<path class="st0" d="M609.43,201.35c0-5.85,4.74-10.59,10.58-10.59c5.84,0,10.58,4.74,10.58,10.59c0,5.84-4.74,10.58-10.58,10.58
		C614.17,211.93,609.43,207.19,609.43,201.35z"/>
</g>
<g>
	<path class="st0" d="M668.02,201.35c0-5.85,4.73-10.59,10.58-10.59c5.84,0,10.57,4.74,10.57,10.59c0,5.84-4.73,10.58-10.57,10.58
		C672.75,211.93,668.02,207.19,668.02,201.35z"/>
</g>
<g>
	<path class="st0" d="M550.84,228.2c0-5.84,4.73-10.58,10.57-10.58c5.85,0,10.58,4.74,10.58,10.58c0,5.84-4.73,10.58-10.58,10.58
		C555.58,238.77,550.84,234.03,550.84,228.2z"/>
</g>
<g>
	<path class="st0" d="M580.14,228.2c0-5.84,4.73-10.58,10.57-10.58c5.84,0,10.58,4.74,10.58,10.58c0,5.84-4.74,10.58-10.58,10.58
		C584.87,238.77,580.14,234.03,580.14,228.2z"/>
</g>
<g>
	<path class="st0" d="M668.02,228.2c0-5.84,4.73-10.58,10.58-10.58c5.84,0,10.57,4.74,10.57,10.58c0,5.84-4.73,10.58-10.57,10.58
		C672.75,238.77,668.02,234.03,668.02,228.2z"/>
</g>
<g>
	<path class="st0" d="M550.84,255.05c0-5.85,4.73-10.59,10.57-10.59c5.85,0,10.58,4.74,10.58,10.59c0,5.85-4.73,10.58-10.58,10.58
		C555.58,265.63,550.84,260.9,550.84,255.05z"/>
</g>
<g>
	<path class="st0" d="M580.14,255.05c0-5.85,4.73-10.59,10.57-10.59c5.84,0,10.58,4.74,10.58,10.59c0,5.85-4.74,10.58-10.58,10.58
		C584.87,265.63,580.14,260.9,580.14,255.05z"/>
</g>
<g>
	<g>
		<path class="st1" d="M638.73,174.49c0-5.84,4.74-10.58,10.58-10.58c5.84,0,10.57,4.74,10.57,10.58c0,5.84-4.73,10.58-10.57,10.58
			C643.47,185.07,638.73,180.33,638.73,174.49z"/>
	</g>
	<g>
		<path class="st1" d="M638.73,201.35c0-5.85,4.74-10.59,10.58-10.59c5.84,0,10.57,4.74,10.57,10.59c0,5.84-4.73,10.58-10.57,10.58
			C643.47,211.93,638.73,207.19,638.73,201.35z"/>
	</g>
	<g>
		<path class="st1" d="M609.43,228.2c0-5.84,4.74-10.58,10.58-10.58c5.84,0,10.58,4.74,10.58,10.58c0,5.84-4.74,10.58-10.58,10.58
			C614.17,238.77,609.43,234.03,609.43,228.2z"/>
	</g>
	<g>
		<path class="st1" d="M638.73,228.2c0-5.84,4.74-10.58,10.58-10.58c5.84,0,10.57,4.74,10.57,10.58c0,5.84-4.73,10.58-10.57,10.58
			C643.47,238.77,638.73,234.03,638.73,228.2z"/>
	</g>
	<g>
		<path class="st1" d="M609.43,255.05c0-5.85,4.74-10.59,10.58-10.59c5.84,0,10.58,4.74,10.58,10.59c0,5.85-4.74,10.58-10.58,10.58
			C614.17,265.63,609.43,260.9,609.43,255.05z"/>
	</g>
	<g>
		<path class="st1" d="M638.73,255.05c0-5.85,4.74-10.59,10.58-10.59c5.84,0,10.57,4.74,10.57,10.59c0,5.85-4.73,10.58-10.57,10.58
			C643.47,265.63,638.73,260.9,638.73,255.05z"/>
	</g>
	<g>
		<path class="st1" d="M668.02,255.05c0-5.85,4.73-10.59,10.58-10.59c5.84,0,10.57,4.74,10.57,10.59c0,5.85-4.73,10.58-10.57,10.58
			C672.75,265.63,668.02,260.9,668.02,255.05z"/>
	</g>
	<g>
		<path class="st1" d="M550.84,281.9c0-5.84,4.73-10.58,10.57-10.58c5.85,0,10.58,4.74,10.58,10.58c0,5.85-4.73,10.58-10.58,10.58
			C555.58,292.48,550.84,287.75,550.84,281.9z"/>
	</g>
	<g>
		<path class="st1" d="M580.14,281.9c0-5.84,4.73-10.58,10.57-10.58c5.84,0,10.58,4.74,10.58,10.58c0,5.85-4.74,10.58-10.58,10.58
			C584.87,292.48,580.14,287.75,580.14,281.9z"/>
	</g>
	<g>
		<ellipse class="st1" cx="620.01" cy="281.9" rx="10.58" ry="10.58"/>
	</g>
	<g>
		<path class="st1" d="M638.73,281.9c0-5.84,4.74-10.58,10.58-10.58c5.84,0,10.57,4.74,10.57,10.58c0,5.85-4.73,10.58-10.57,10.58
			C643.47,292.48,638.73,287.75,638.73,281.9z"/>
	</g>
	<g>
		<path class="st1" d="M668.02,281.9c0-5.84,4.73-10.58,10.58-10.58c5.84,0,10.57,4.74,10.57,10.58c0,5.85-4.73,10.58-10.57,10.58
			C672.75,292.48,668.02,287.75,668.02,281.9z"/>
	</g>
</g>
</svg>
