<?xml version="1.0" encoding="utf-8"?>
<!-- Generator: Adobe Illustrator 24.2.3, SVG Export Plug-In . SVG Version: 6.00 Build 0)  -->
<svg version="1.1" id="Layer_1" xmlns="http://www.w3.org/2000/svg" xmlns:xlink="http://www.w3.org/1999/xlink" x="0px" y="0px"
	 viewBox="0 0 725 173" style="enable-background:new 0 0 725 173;" xml:space="preserve">
<style type="text/css">
	.st0{fill:#BADDE2;}
	.st1{fill:#186572;}
</style>
<g>
	<path class="st0" d="M22.14,17.85c0-3.34,2.79-6.04,6.24-6.04c3.45,0,6.25,2.71,6.25,6.04c0,3.34-2.79,6.04-6.25,6.04
		C24.94,23.89,22.14,21.19,22.14,17.85z"/>
</g>
<g>
	<path class="st0" d="M39.44,17.85c0-3.34,2.79-6.04,6.24-6.04s6.25,2.71,6.25,6.04c0,3.34-2.8,6.04-6.25,6.04
		C42.23,23.89,39.44,21.19,39.44,17.85z"/>
</g>
<g>
	<ellipse class="st0" cx="62.99" cy="17.85" rx="6.25" ry="6.04"/>
</g>
<g>
	<path class="st0" d="M74.04,17.85c0-3.34,2.8-6.04,6.25-6.04s6.24,2.71,6.24,6.04c0,3.34-2.79,6.04-6.24,6.04
		C76.84,23.89,74.04,21.19,74.04,17.85z"/>
</g>
<g>
	<path class="st0" d="M91.34,17.85c0-3.34,2.79-6.04,6.25-6.04c3.45,0,6.24,2.71,6.24,6.04c0,3.34-2.79,6.04-6.24,6.04
		C94.14,23.89,91.34,21.19,91.34,17.85z"/>
</g>
<g>
	<path class="st0" d="M22.14,33.19c0-3.34,2.79-6.04,6.24-6.04c3.45,0,6.25,2.71,6.25,6.04s-2.79,6.04-6.25,6.04
		C24.94,39.23,22.14,36.52,22.14,33.19z"/>
</g>
<g>
	<path class="st0" d="M39.44,33.19c0-3.34,2.79-6.04,6.24-6.04s6.25,2.71,6.25,6.04s-2.8,6.04-6.25,6.04
		C42.23,39.23,39.44,36.52,39.44,33.19z"/>
</g>
<g>
	<ellipse class="st0" cx="62.99" cy="33.19" rx="6.25" ry="6.04"/>
</g>
<g>
	<path class="st0" d="M74.04,33.19c0-3.34,2.8-6.04,6.25-6.04s6.24,2.71,6.24,6.04s-2.79,6.04-6.24,6.04
		C76.84,39.23,74.04,36.52,74.04,33.19z"/>
</g>
<g>
	<path class="st0" d="M91.34,33.19c0-3.34,2.79-6.04,6.25-6.04c3.45,0,6.24,2.71,6.24,6.04s-2.79,6.04-6.24,6.04
		C94.14,39.23,91.34,36.52,91.34,33.19z"/>
</g>
<g>
	<path class="st0" d="M22.14,48.52c0-3.34,2.79-6.04,6.24-6.04c3.45,0,6.25,2.71,6.25,6.04c0,3.34-2.79,6.04-6.25,6.04
		C24.94,54.56,22.14,51.86,22.14,48.52z"/>
</g>
<g>
	<path class="st0" d="M39.44,48.52c0-3.34,2.79-6.04,6.24-6.04s6.25,2.71,6.25,6.04c0,3.34-2.8,6.04-6.25,6.04
		C42.23,54.56,39.44,51.86,39.44,48.52z"/>
</g>
<g>
	<ellipse class="st0" cx="62.99" cy="48.52" rx="6.25" ry="6.04"/>
</g>
<g>
	<path class="st0" d="M74.04,48.52c0-3.34,2.8-6.04,6.25-6.04s6.24,2.71,6.24,6.04c0,3.34-2.79,6.04-6.24,6.04
		C76.84,54.56,74.04,51.86,74.04,48.52z"/>
</g>
<g>
	<path class="st0" d="M91.34,48.52c0-3.34,2.79-6.04,6.25-6.04c3.45,0,6.24,2.71,6.24,6.04c0,3.34-2.79,6.04-6.24,6.04
		C94.14,54.56,91.34,51.86,91.34,48.52z"/>
</g>
<g>
	<path class="st0" d="M22.14,63.86c0-3.34,2.79-6.04,6.24-6.04c3.45,0,6.25,2.71,6.25,6.04c0,3.34-2.79,6.04-6.25,6.04
		C24.94,69.9,22.14,67.19,22.14,63.86z"/>
</g>
<g>
	<path class="st0" d="M39.44,63.86c0-3.34,2.79-6.04,6.24-6.04s6.25,2.71,6.25,6.04c0,3.34-2.8,6.04-6.25,6.04
		C42.23,69.9,39.44,67.19,39.44,63.86z"/>
</g>
<g>
	<ellipse class="st0" cx="62.99" cy="63.86" rx="6.25" ry="6.04"/>
</g>
<g>
	<path class="st0" d="M74.04,63.86c0-3.34,2.8-6.04,6.25-6.04s6.24,2.71,6.24,6.04c0,3.34-2.79,6.04-6.24,6.04
		C76.84,69.9,74.04,67.19,74.04,63.86z"/>
</g>
<g>
	<path class="st0" d="M91.34,63.86c0-3.34,2.79-6.04,6.25-6.04c3.45,0,6.24,2.71,6.24,6.04c0,3.34-2.79,6.04-6.24,6.04
		C94.14,69.9,91.34,67.19,91.34,63.86z"/>
</g>
<g>
	<path class="st0" d="M22.14,79.19c0-3.34,2.79-6.04,6.24-6.04c3.45,0,6.25,2.71,6.25,6.04c0,3.34-2.79,6.04-6.25,6.04
		C24.94,85.23,22.14,82.53,22.14,79.19z"/>
</g>
<g>
	<path class="st0" d="M39.44,79.19c0-3.34,2.79-6.04,6.24-6.04s6.25,2.71,6.25,6.04c0,3.34-2.8,6.04-6.25,6.04
		C42.23,85.23,39.44,82.53,39.44,79.19z"/>
</g>
<g>
	<path class="st0" d="M56.74,79.19c0-3.34,2.8-6.04,6.25-6.04c3.45,0,6.25,2.71,6.25,6.04c0,3.34-2.8,6.04-6.25,6.04
		C59.54,85.23,56.74,82.53,56.74,79.19z"/>
</g>
<g>
	<path class="st0" d="M74.04,79.19c0-3.34,2.8-6.04,6.25-6.04s6.24,2.71,6.24,6.04c0,3.34-2.79,6.04-6.24,6.04
		C76.84,85.23,74.04,82.53,74.04,79.19z"/>
</g>
<g>
	<path class="st0" d="M91.34,79.19c0-3.34,2.79-6.04,6.25-6.04c3.45,0,6.24,2.71,6.24,6.04c0,3.34-2.79,6.04-6.24,6.04
		C94.14,85.23,91.34,82.53,91.34,79.19z"/>
</g>
<g>
	<path class="st0" d="M22.14,94.53c0-3.34,2.79-6.04,6.24-6.04c3.45,0,6.25,2.71,6.25,6.04s-2.79,6.04-6.25,6.04
		C24.94,100.58,22.14,97.87,22.14,94.53z"/>
</g>
<g>
	<path class="st0" d="M39.44,94.53c0-3.34,2.79-6.04,6.24-6.04s6.25,2.71,6.25,6.04s-2.8,6.04-6.25,6.04
		C42.23,100.58,39.44,97.87,39.44,94.53z"/>
</g>
<g>
	<ellipse class="st0" cx="62.99" cy="94.53" rx="6.25" ry="6.04"/>
</g>
<g>
	<path class="st0" d="M74.04,94.53c0-3.34,2.8-6.04,6.25-6.04s6.24,2.71,6.24,6.04s-2.79,6.04-6.24,6.04
		C76.84,100.58,74.04,97.87,74.04,94.53z"/>
</g>
<g>
	<path class="st0" d="M91.34,94.53c0-3.34,2.79-6.04,6.25-6.04c3.45,0,6.24,2.71,6.24,6.04s-2.79,6.04-6.24,6.04
		C94.14,100.58,91.34,97.87,91.34,94.53z"/>
</g>
<g>
	<path class="st0" d="M22.14,109.87c0-3.34,2.79-6.05,6.24-6.05c3.45,0,6.25,2.71,6.25,6.05c0,3.34-2.79,6.04-6.25,6.04
		C24.94,115.92,22.14,113.21,22.14,109.87z"/>
</g>
<g>
	<path class="st0" d="M39.44,109.87c0-3.34,2.79-6.05,6.24-6.05s6.25,2.71,6.25,6.05c0,3.34-2.8,6.04-6.25,6.04
		C42.23,115.92,39.44,113.21,39.44,109.87z"/>
</g>
<g>
	<path class="st0" d="M91.34,109.87c0-3.34,2.79-6.05,6.25-6.05c3.45,0,6.24,2.71,6.24,6.05c0,3.34-2.79,6.04-6.24,6.04
		C94.14,115.92,91.34,113.21,91.34,109.87z"/>
</g>
<g>
	<path class="st0" d="M22.14,125.21c0-3.34,2.79-6.04,6.24-6.04c3.45,0,6.25,2.71,6.25,6.04c0,3.34-2.79,6.04-6.25,6.04
		C24.94,131.25,22.14,128.54,22.14,125.21z"/>
</g>
<g>
	<path class="st0" d="M39.44,125.21c0-3.34,2.79-6.04,6.24-6.04s6.25,2.71,6.25,6.04c0,3.34-2.8,6.04-6.25,6.04
		C42.23,131.25,39.44,128.54,39.44,125.21z"/>
</g>
<g>
	<path class="st0" d="M39.44,140.54c0-3.34,2.79-6.05,6.24-6.05s6.25,2.71,6.25,6.05c0,3.34-2.8,6.04-6.25,6.04
		C42.23,146.59,39.44,143.88,39.44,140.54z"/>
</g>
<g>
	<g>
		<path class="st1" d="M56.74,109.87c0-3.34,2.8-6.05,6.25-6.05c3.45,0,6.25,2.71,6.25,6.05c0,3.34-2.8,6.04-6.25,6.04
			C59.54,115.92,56.74,113.21,56.74,109.87z"/>
	</g>
	<g>
		<path class="st1" d="M74.04,109.87c0-3.34,2.8-6.05,6.25-6.05s6.24,2.71,6.24,6.05c0,3.34-2.79,6.04-6.24,6.04
			C76.84,115.92,74.04,113.21,74.04,109.87z"/>
	</g>
	<g>
		<path class="st1" d="M56.74,125.21c0-3.34,2.8-6.04,6.25-6.04c3.45,0,6.25,2.71,6.25,6.04c0,3.34-2.8,6.04-6.25,6.04
			C59.54,131.25,56.74,128.54,56.74,125.21z"/>
	</g>
	<g>
		<path class="st1" d="M74.04,125.21c0-3.34,2.8-6.04,6.25-6.04s6.24,2.71,6.24,6.04c0,3.34-2.79,6.04-6.24,6.04
			C76.84,131.25,74.04,128.54,74.04,125.21z"/>
	</g>
	<g>
		<path class="st1" d="M91.34,125.21c0-3.34,2.79-6.04,6.25-6.04c3.45,0,6.24,2.71,6.24,6.04c0,3.34-2.79,6.04-6.24,6.04
			C94.14,131.25,91.34,128.54,91.34,125.21z"/>
	</g>
	<g>
		<path class="st1" d="M22.14,140.54c0-3.34,2.79-6.05,6.24-6.05c3.45,0,6.25,2.71,6.25,6.05c0,3.34-2.79,6.04-6.25,6.04
			C24.94,146.59,22.14,143.88,22.14,140.54z"/>
	</g>
	<g>
		<path class="st1" d="M56.74,140.54c0-3.34,2.8-6.05,6.25-6.05c3.45,0,6.25,2.71,6.25,6.05c0,3.34-2.8,6.04-6.25,6.04
			C59.54,146.59,56.74,143.88,56.74,140.54z"/>
	</g>
	<g>
		<path class="st1" d="M74.04,140.54c0-3.34,2.8-6.05,6.25-6.05s6.24,2.71,6.24,6.05c0,3.34-2.79,6.04-6.24,6.04
			C76.84,146.59,74.04,143.88,74.04,140.54z"/>
	</g>
	<g>
		<path class="st1" d="M91.34,140.54c0-3.34,2.79-6.05,6.25-6.05c3.45,0,6.24,2.71,6.24,6.05c0,3.34-2.79,6.04-6.24,6.04
			C94.14,146.59,91.34,143.88,91.34,140.54z"/>
	</g>
	<g>
		<path class="st1" d="M22.14,155.88c0-3.34,2.79-6.04,6.24-6.04c3.45,0,6.25,2.71,6.25,6.04c0,3.34-2.79,6.04-6.25,6.04
			C24.94,161.92,22.14,159.22,22.14,155.88z"/>
	</g>
	<g>
		<path class="st1" d="M39.44,155.88c0-3.34,2.79-6.04,6.24-6.04s6.25,2.71,6.25,6.04c0,3.34-2.8,6.04-6.25,6.04
			C42.23,161.92,39.44,159.22,39.44,155.88z"/>
	</g>
	<g>
		<ellipse class="st1" cx="62.99" cy="155.88" rx="6.25" ry="6.04"/>
	</g>
	<g>
		<path class="st1" d="M74.04,155.88c0-3.34,2.8-6.04,6.25-6.04s6.24,2.71,6.24,6.04c0,3.34-2.79,6.04-6.24,6.04
			C76.84,161.92,74.04,159.22,74.04,155.88z"/>
	</g>
	<g>
		<path class="st1" d="M91.34,155.88c0-3.34,2.79-6.04,6.25-6.04c3.45,0,6.24,2.71,6.24,6.04c0,3.34-2.79,6.04-6.24,6.04
			C94.14,161.92,91.34,159.22,91.34,155.88z"/>
	</g>
</g>
<g>
	<path class="st0" d="M122.37,17.85c0-3.34,2.79-6.04,6.24-6.04c3.45,0,6.25,2.71,6.25,6.04c0,3.34-2.79,6.04-6.25,6.04
		C125.16,23.89,122.37,21.19,122.37,17.85z"/>
</g>
<g>
	<path class="st0" d="M139.67,17.85c0-3.34,2.79-6.04,6.24-6.04s6.25,2.71,6.25,6.04c0,3.34-2.8,6.04-6.25,6.04
		C142.46,23.89,139.67,21.19,139.67,17.85z"/>
</g>
<g>
	<path class="st0" d="M156.95,17.85c0-3.34,2.81-6.04,6.25-6.04s6.25,2.71,6.25,6.04c0,3.34-2.8,6.04-6.25,6.04
		C159.76,23.89,156.95,21.19,156.95,17.85z"/>
</g>
<g>
	<path class="st0" d="M174.26,17.85c0-3.34,2.81-6.04,6.25-6.04s6.24,2.71,6.24,6.04c0,3.34-2.79,6.04-6.24,6.04
		C177.06,23.89,174.26,21.19,174.26,17.85z"/>
</g>
<g>
	<path class="st0" d="M191.57,17.85c0-3.34,2.79-6.04,6.25-6.04c3.45,0,6.24,2.71,6.24,6.04c0,3.34-2.79,6.04-6.24,6.04
		C194.35,23.89,191.57,21.19,191.57,17.85z"/>
</g>
<g>
	<path class="st0" d="M122.37,33.19c0-3.34,2.79-6.04,6.24-6.04c3.45,0,6.25,2.71,6.25,6.04s-2.79,6.04-6.25,6.04
		C125.16,39.23,122.37,36.52,122.37,33.19z"/>
</g>
<g>
	<path class="st0" d="M139.67,33.19c0-3.34,2.79-6.04,6.24-6.04s6.25,2.71,6.25,6.04s-2.8,6.04-6.25,6.04
		C142.46,39.23,139.67,36.52,139.67,33.19z"/>
</g>
<g>
	<path class="st0" d="M156.95,33.19c0-3.34,2.81-6.04,6.25-6.04s6.25,2.71,6.25,6.04s-2.8,6.04-6.25,6.04S156.95,36.52,156.95,33.19
		z"/>
</g>
<g>
	<path class="st0" d="M174.26,33.19c0-3.34,2.81-6.04,6.25-6.04s6.24,2.71,6.24,6.04s-2.79,6.04-6.24,6.04
		S174.26,36.52,174.26,33.19z"/>
</g>
<g>
	<path class="st0" d="M191.57,33.19c0-3.34,2.79-6.04,6.25-6.04c3.45,0,6.24,2.71,6.24,6.04s-2.79,6.04-6.24,6.04
		C194.35,39.23,191.57,36.52,191.57,33.19z"/>
</g>
<g>
	<path class="st0" d="M139.67,48.52c0-3.34,2.79-6.04,6.24-6.04s6.25,2.71,6.25,6.04c0,3.34-2.8,6.04-6.25,6.04
		C142.46,54.56,139.67,51.86,139.67,48.52z"/>
</g>
<g>
	<path class="st0" d="M156.95,48.52c0-3.34,2.81-6.04,6.25-6.04s6.25,2.71,6.25,6.04c0,3.34-2.8,6.04-6.25,6.04
		C159.76,54.56,156.95,51.86,156.95,48.52z"/>
</g>
<g>
	<path class="st0" d="M174.26,48.52c0-3.34,2.81-6.04,6.25-6.04s6.24,2.71,6.24,6.04c0,3.34-2.79,6.04-6.24,6.04
		C177.06,54.56,174.26,51.86,174.26,48.52z"/>
</g>
<g>
	<path class="st0" d="M191.57,48.52c0-3.34,2.79-6.04,6.25-6.04c3.45,0,6.24,2.71,6.24,6.04c0,3.34-2.79,6.04-6.24,6.04
		C194.35,54.56,191.57,51.86,191.57,48.52z"/>
</g>
<g>
	<path class="st0" d="M156.95,63.86c0-3.34,2.81-6.04,6.25-6.04s6.25,2.71,6.25,6.04c0,3.34-2.8,6.04-6.25,6.04
		S156.95,67.19,156.95,63.86z"/>
</g>
<g>
	<path class="st0" d="M174.26,63.86c0-3.34,2.81-6.04,6.25-6.04s6.24,2.71,6.24,6.04c0,3.34-2.79,6.04-6.24,6.04
		S174.26,67.19,174.26,63.86z"/>
</g>
<g>
	<path class="st0" d="M191.57,63.86c0-3.34,2.79-6.04,6.25-6.04c3.45,0,6.24,2.71,6.24,6.04c0,3.34-2.79,6.04-6.24,6.04
		C194.35,69.9,191.57,67.19,191.57,63.86z"/>
</g>
<g>
	<path class="st0" d="M156.95,79.19c0-3.34,2.81-6.04,6.25-6.04s6.25,2.71,6.25,6.04c0,3.34-2.8,6.04-6.25,6.04
		S156.95,82.53,156.95,79.19z"/>
</g>
<g>
	<path class="st0" d="M174.26,79.19c0-3.34,2.81-6.04,6.25-6.04s6.24,2.71,6.24,6.04c0,3.34-2.79,6.04-6.24,6.04
		S174.26,82.53,174.26,79.19z"/>
</g>
<g>
	<path class="st0" d="M191.57,79.19c0-3.34,2.79-6.04,6.25-6.04c3.45,0,6.24,2.71,6.24,6.04c0,3.34-2.79,6.04-6.24,6.04
		C194.35,85.23,191.57,82.53,191.57,79.19z"/>
</g>
<g>
	<path class="st0" d="M191.57,94.53c0-3.34,2.79-6.04,6.25-6.04c3.45,0,6.24,2.71,6.24,6.04s-2.79,6.04-6.24,6.04
		C194.35,100.58,191.57,97.87,191.57,94.53z"/>
</g>
<g>
	<g>
		<path class="st1" d="M122.37,48.52c0-3.34,2.79-6.04,6.24-6.04c3.45,0,6.25,2.71,6.25,6.04c0,3.34-2.79,6.04-6.25,6.04
			C125.16,54.56,122.37,51.86,122.37,48.52z"/>
	</g>
	<g>
		<path class="st1" d="M122.37,63.86c0-3.34,2.79-6.04,6.24-6.04c3.45,0,6.25,2.71,6.25,6.04c0,3.34-2.79,6.04-6.25,6.04
			C125.16,69.9,122.37,67.19,122.37,63.86z"/>
	</g>
	<g>
		<path class="st1" d="M139.67,63.86c0-3.34,2.79-6.04,6.24-6.04s6.25,2.71,6.25,6.04c0,3.34-2.8,6.04-6.25,6.04
			C142.46,69.9,139.67,67.19,139.67,63.86z"/>
	</g>
	<g>
		<path class="st1" d="M122.37,79.19c0-3.34,2.79-6.04,6.24-6.04c3.45,0,6.25,2.71,6.25,6.04c0,3.34-2.79,6.04-6.25,6.04
			C125.16,85.23,122.37,82.53,122.37,79.19z"/>
	</g>
	<g>
		<path class="st1" d="M139.67,79.19c0-3.34,2.79-6.04,6.24-6.04s6.25,2.71,6.25,6.04c0,3.34-2.8,6.04-6.25,6.04
			C142.46,85.23,139.67,82.53,139.67,79.19z"/>
	</g>
	<g>
		<path class="st1" d="M122.37,94.53c0-3.34,2.79-6.04,6.24-6.04c3.45,0,6.25,2.71,6.25,6.04s-2.79,6.04-6.25,6.04
			C125.16,100.58,122.37,97.87,122.37,94.53z"/>
	</g>
	<g>
		<path class="st1" d="M139.67,94.53c0-3.34,2.79-6.04,6.24-6.04s6.25,2.71,6.25,6.04s-2.8,6.04-6.25,6.04
			C142.46,100.58,139.67,97.87,139.67,94.53z"/>
	</g>
	<g>
		<path class="st1" d="M156.95,94.53c0-3.34,2.81-6.04,6.25-6.04s6.25,2.71,6.25,6.04s-2.8,6.04-6.25,6.04
			S156.95,97.87,156.95,94.53z"/>
	</g>
	<g>
		<path class="st1" d="M174.26,94.53c0-3.34,2.81-6.04,6.25-6.04s6.24,2.71,6.24,6.04s-2.79,6.04-6.24,6.04
			S174.26,97.87,174.26,94.53z"/>
	</g>
	<g>
		<path class="st1" d="M122.37,109.87c0-3.34,2.79-6.05,6.24-6.05c3.45,0,6.25,2.71,6.25,6.05c0,3.34-2.79,6.04-6.25,6.04
			C125.16,115.92,122.37,113.21,122.37,109.87z"/>
	</g>
	<g>
		<path class="st1" d="M139.67,109.87c0-3.34,2.79-6.05,6.24-6.05s6.25,2.71,6.25,6.05c0,3.34-2.8,6.04-6.25,6.04
			C142.46,115.92,139.67,113.21,139.67,109.87z"/>
	</g>
	<g>
		<path class="st1" d="M156.95,109.87c0-3.34,2.81-6.05,6.25-6.05s6.25,2.71,6.25,6.05c0,3.34-2.8,6.04-6.25,6.04
			C159.76,115.92,156.95,113.21,156.95,109.87z"/>
	</g>
	<g>
		<path class="st1" d="M174.26,109.87c0-3.34,2.81-6.05,6.25-6.05s6.24,2.71,6.24,6.05c0,3.34-2.79,6.04-6.24,6.04
			C177.06,115.92,174.26,113.21,174.26,109.87z"/>
	</g>
	<g>
		<path class="st1" d="M191.57,109.87c0-3.34,2.79-6.05,6.25-6.05c3.45,0,6.24,2.71,6.24,6.05c0,3.34-2.79,6.04-6.24,6.04
			C194.35,115.92,191.57,113.21,191.57,109.87z"/>
	</g>
	<g>
		<path class="st1" d="M122.37,125.21c0-3.34,2.79-6.04,6.24-6.04c3.45,0,6.25,2.71,6.25,6.04c0,3.34-2.79,6.04-6.25,6.04
			C125.16,131.25,122.37,128.54,122.37,125.21z"/>
	</g>
	<g>
		<path class="st1" d="M139.67,125.21c0-3.34,2.79-6.04,6.24-6.04s6.25,2.71,6.25,6.04c0,3.34-2.8,6.04-6.25,6.04
			C142.46,131.25,139.67,128.54,139.67,125.21z"/>
	</g>
	<g>
		<path class="st1" d="M156.95,125.21c0-3.34,2.81-6.04,6.25-6.04s6.25,2.71,6.25,6.04c0,3.34-2.8,6.04-6.25,6.04
			C159.76,131.25,156.95,128.54,156.95,125.21z"/>
	</g>
	<g>
		<path class="st1" d="M174.26,125.21c0-3.34,2.81-6.04,6.25-6.04s6.24,2.71,6.24,6.04c0,3.34-2.79,6.04-6.24,6.04
			C177.06,131.25,174.26,128.54,174.26,125.21z"/>
	</g>
	<g>
		<path class="st1" d="M191.57,125.21c0-3.34,2.79-6.04,6.25-6.04c3.45,0,6.24,2.71,6.24,6.04c0,3.34-2.79,6.04-6.24,6.04
			C194.35,131.25,191.57,128.54,191.57,125.21z"/>
	</g>
	<g>
		<path class="st1" d="M122.37,140.54c0-3.34,2.79-6.05,6.24-6.05c3.45,0,6.25,2.71,6.25,6.05c0,3.34-2.79,6.04-6.25,6.04
			C125.16,146.59,122.37,143.88,122.37,140.54z"/>
	</g>
	<g>
		<path class="st1" d="M139.67,140.54c0-3.34,2.79-6.05,6.24-6.05s6.25,2.71,6.25,6.05c0,3.34-2.8,6.04-6.25,6.04
			C142.46,146.59,139.67,143.88,139.67,140.54z"/>
	</g>
	<g>
		<path class="st1" d="M156.95,140.54c0-3.34,2.81-6.05,6.25-6.05s6.25,2.71,6.25,6.05c0,3.34-2.8,6.04-6.25,6.04
			S156.95,143.88,156.95,140.54z"/>
	</g>
	<g>
		<path class="st1" d="M174.26,140.54c0-3.34,2.81-6.05,6.25-6.05s6.24,2.71,6.24,6.05c0,3.34-2.79,6.04-6.24,6.04
			S174.26,143.88,174.26,140.54z"/>
	</g>
	<g>
		<path class="st1" d="M191.57,140.54c0-3.34,2.79-6.05,6.25-6.05c3.45,0,6.24,2.71,6.24,6.05c0,3.34-2.79,6.04-6.24,6.04
			C194.35,146.59,191.57,143.88,191.57,140.54z"/>
	</g>
	<g>
		<path class="st1" d="M122.37,155.88c0-3.34,2.79-6.04,6.24-6.04c3.45,0,6.25,2.71,6.25,6.04c0,3.34-2.79,6.04-6.25,6.04
			C125.16,161.92,122.37,159.22,122.37,155.88z"/>
	</g>
	<g>
		<path class="st1" d="M139.67,155.88c0-3.34,2.79-6.04,6.24-6.04s6.25,2.71,6.25,6.04c0,3.34-2.8,6.04-6.25,6.04
			C142.46,161.92,139.67,159.22,139.67,155.88z"/>
	</g>
	<g>
		<path class="st1" d="M156.95,155.88c0-3.34,2.81-6.04,6.25-6.04s6.25,2.71,6.25,6.04c0,3.34-2.8,6.04-6.25,6.04
			C159.76,161.92,156.95,159.22,156.95,155.88z"/>
	</g>
	<g>
		<path class="st1" d="M174.26,155.88c0-3.34,2.81-6.04,6.25-6.04s6.24,2.71,6.24,6.04c0,3.34-2.79,6.04-6.24,6.04
			C177.06,161.92,174.26,159.22,174.26,155.88z"/>
	</g>
	<g>
		<path class="st1" d="M191.57,155.88c0-3.34,2.79-6.04,6.25-6.04c3.45,0,6.24,2.71,6.24,6.04c0,3.34-2.79,6.04-6.24,6.04
			C194.35,161.92,191.57,159.22,191.57,155.88z"/>
	</g>
</g>
<g>
	<path class="st0" d="M222.58,17.85c0-3.34,2.79-6.04,6.24-6.04c3.46,0,6.25,2.71,6.25,6.04c0,3.34-2.79,6.04-6.25,6.04
		C225.38,23.89,222.58,21.19,222.58,17.85z"/>
</g>
<g>
	<path class="st0" d="M239.88,17.85c0-3.34,2.79-6.04,6.24-6.04s6.25,2.71,6.25,6.04c0,3.34-2.81,6.04-6.25,6.04
		C242.68,23.89,239.88,21.19,239.88,17.85z"/>
</g>
<g>
	<path class="st0" d="M257.18,17.85c0-3.34,2.8-6.04,6.25-6.04s6.25,2.71,6.25,6.04c0,3.34-2.81,6.04-6.25,6.04
		C259.98,23.89,257.18,21.19,257.18,17.85z"/>
</g>
<g>
	<path class="st0" d="M274.49,17.85c0-3.34,2.8-6.04,6.25-6.04s6.24,2.71,6.24,6.04c0,3.34-2.79,6.04-6.24,6.04
		S274.49,21.19,274.49,17.85z"/>
</g>
<g>
	<path class="st0" d="M291.78,17.85c0-3.34,2.79-6.04,6.25-6.04c3.45,0,6.24,2.71,6.24,6.04c0,3.34-2.79,6.04-6.24,6.04
		C294.58,23.89,291.78,21.19,291.78,17.85z"/>
</g>
<g>
	<path class="st0" d="M222.58,33.19c0-3.34,2.79-6.04,6.24-6.04c3.46,0,6.25,2.71,6.25,6.04s-2.79,6.04-6.25,6.04
		C225.38,39.23,222.58,36.52,222.58,33.19z"/>
</g>
<g>
	<path class="st0" d="M239.88,33.19c0-3.34,2.79-6.04,6.24-6.04s6.25,2.71,6.25,6.04s-2.81,6.04-6.25,6.04
		S239.88,36.52,239.88,33.19z"/>
</g>
<g>
	<path class="st0" d="M257.18,33.19c0-3.34,2.8-6.04,6.25-6.04s6.25,2.71,6.25,6.04s-2.81,6.04-6.25,6.04S257.18,36.52,257.18,33.19
		z"/>
</g>
<g>
	<path class="st0" d="M274.49,33.19c0-3.34,2.8-6.04,6.25-6.04s6.24,2.71,6.24,6.04s-2.79,6.04-6.24,6.04S274.49,36.52,274.49,33.19
		z"/>
</g>
<g>
	<path class="st0" d="M291.78,33.19c0-3.34,2.79-6.04,6.25-6.04c3.45,0,6.24,2.71,6.24,6.04s-2.79,6.04-6.24,6.04
		C294.58,39.23,291.78,36.52,291.78,33.19z"/>
</g>
<g>
	<path class="st0" d="M222.58,48.52c0-3.34,2.79-6.04,6.24-6.04c3.46,0,6.25,2.71,6.25,6.04c0,3.34-2.79,6.04-6.25,6.04
		C225.38,54.56,222.58,51.86,222.58,48.52z"/>
</g>
<g>
	<path class="st0" d="M239.88,48.52c0-3.34,2.79-6.04,6.24-6.04s6.25,2.71,6.25,6.04c0,3.34-2.81,6.04-6.25,6.04
		C242.68,54.56,239.88,51.86,239.88,48.52z"/>
</g>
<g>
	<path class="st0" d="M257.18,48.52c0-3.34,2.8-6.04,6.25-6.04s6.25,2.71,6.25,6.04c0,3.34-2.81,6.04-6.25,6.04
		C259.98,54.56,257.18,51.86,257.18,48.52z"/>
</g>
<g>
	<path class="st0" d="M274.49,48.52c0-3.34,2.8-6.04,6.25-6.04s6.24,2.71,6.24,6.04c0,3.34-2.79,6.04-6.24,6.04
		S274.49,51.86,274.49,48.52z"/>
</g>
<g>
	<path class="st0" d="M291.78,48.52c0-3.34,2.79-6.04,6.25-6.04c3.45,0,6.24,2.71,6.24,6.04c0,3.34-2.79,6.04-6.24,6.04
		C294.58,54.56,291.78,51.86,291.78,48.52z"/>
</g>
<g>
	<path class="st0" d="M222.58,63.86c0-3.34,2.79-6.04,6.24-6.04c3.46,0,6.25,2.71,6.25,6.04c0,3.34-2.79,6.04-6.25,6.04
		C225.38,69.9,222.58,67.19,222.58,63.86z"/>
</g>
<g>
	<path class="st0" d="M239.88,63.86c0-3.34,2.79-6.04,6.24-6.04s6.25,2.71,6.25,6.04c0,3.34-2.81,6.04-6.25,6.04
		S239.88,67.19,239.88,63.86z"/>
</g>
<g>
	<path class="st0" d="M257.18,63.86c0-3.34,2.8-6.04,6.25-6.04s6.25,2.71,6.25,6.04c0,3.34-2.81,6.04-6.25,6.04
		S257.18,67.19,257.18,63.86z"/>
</g>
<g>
	<path class="st0" d="M274.49,63.86c0-3.34,2.8-6.04,6.25-6.04s6.24,2.71,6.24,6.04c0,3.34-2.79,6.04-6.24,6.04
		S274.49,67.19,274.49,63.86z"/>
</g>
<g>
	<path class="st0" d="M291.78,63.86c0-3.34,2.79-6.04,6.25-6.04c3.45,0,6.24,2.71,6.24,6.04c0,3.34-2.79,6.04-6.24,6.04
		C294.58,69.9,291.78,67.19,291.78,63.86z"/>
</g>
<g>
	<path class="st0" d="M222.58,79.19c0-3.34,2.79-6.04,6.24-6.04c3.46,0,6.25,2.71,6.25,6.04c0,3.34-2.79,6.04-6.25,6.04
		C225.38,85.23,222.58,82.53,222.58,79.19z"/>
</g>
<g>
	<path class="st0" d="M239.88,79.19c0-3.34,2.79-6.04,6.24-6.04s6.25,2.71,6.25,6.04c0,3.34-2.81,6.04-6.25,6.04
		S239.88,82.53,239.88,79.19z"/>
</g>
<g>
	<path class="st0" d="M257.18,79.19c0-3.34,2.8-6.04,6.25-6.04s6.25,2.71,6.25,6.04c0,3.34-2.81,6.04-6.25,6.04
		S257.18,82.53,257.18,79.19z"/>
</g>
<g>
	<path class="st0" d="M291.78,79.19c0-3.34,2.79-6.04,6.25-6.04c3.45,0,6.24,2.71,6.24,6.04c0,3.34-2.79,6.04-6.24,6.04
		C294.58,85.23,291.78,82.53,291.78,79.19z"/>
</g>
<g>
	<path class="st0" d="M222.58,94.53c0-3.34,2.79-6.04,6.24-6.04c3.46,0,6.25,2.71,6.25,6.04s-2.79,6.04-6.25,6.04
		C225.38,100.58,222.58,97.87,222.58,94.53z"/>
</g>
<g>
	<path class="st0" d="M239.88,94.53c0-3.34,2.79-6.04,6.24-6.04s6.25,2.71,6.25,6.04s-2.81,6.04-6.25,6.04
		S239.88,97.87,239.88,94.53z"/>
</g>
<g>
	<path class="st0" d="M291.78,94.53c0-3.34,2.79-6.04,6.25-6.04c3.45,0,6.24,2.71,6.24,6.04s-2.79,6.04-6.24,6.04
		C294.58,100.58,291.78,97.87,291.78,94.53z"/>
</g>
<g>
	<path class="st0" d="M222.58,109.87c0-3.34,2.79-6.05,6.24-6.05c3.46,0,6.25,2.71,6.25,6.05c0,3.34-2.79,6.04-6.25,6.04
		C225.38,115.92,222.58,113.21,222.58,109.87z"/>
</g>
<g>
	<path class="st0" d="M291.78,109.87c0-3.34,2.79-6.05,6.25-6.05c3.45,0,6.24,2.71,6.24,6.05c0,3.34-2.79,6.04-6.24,6.04
		C294.58,115.92,291.78,113.21,291.78,109.87z"/>
</g>
<g>
	<g>
		<path class="st1" d="M274.49,79.19c0-3.34,2.8-6.04,6.25-6.04s6.24,2.71,6.24,6.04c0,3.34-2.79,6.04-6.24,6.04
			S274.49,82.53,274.49,79.19z"/>
	</g>
	<g>
		<path class="st1" d="M257.18,94.53c0-3.34,2.8-6.04,6.25-6.04s6.25,2.71,6.25,6.04s-2.81,6.04-6.25,6.04
			S257.18,97.87,257.18,94.53z"/>
	</g>
	<g>
		<path class="st1" d="M274.49,94.53c0-3.34,2.8-6.04,6.25-6.04s6.24,2.71,6.24,6.04s-2.79,6.04-6.24,6.04
			S274.49,97.87,274.49,94.53z"/>
	</g>
	<g>
		<path class="st1" d="M239.88,109.87c0-3.34,2.79-6.05,6.24-6.05s6.25,2.71,6.25,6.05c0,3.34-2.81,6.04-6.25,6.04
			C242.68,115.92,239.88,113.21,239.88,109.87z"/>
	</g>
	<g>
		<path class="st1" d="M257.18,109.87c0-3.34,2.8-6.05,6.25-6.05s6.25,2.71,6.25,6.05c0,3.34-2.81,6.04-6.25,6.04
			C259.98,115.92,257.18,113.21,257.18,109.87z"/>
	</g>
	<g>
		<path class="st1" d="M274.49,109.87c0-3.34,2.8-6.05,6.25-6.05s6.24,2.71,6.24,6.05c0,3.34-2.79,6.04-6.24,6.04
			S274.49,113.21,274.49,109.87z"/>
	</g>
	<g>
		<path class="st1" d="M222.58,125.21c0-3.34,2.79-6.04,6.24-6.04c3.46,0,6.25,2.71,6.25,6.04c0,3.34-2.79,6.04-6.25,6.04
			C225.38,131.25,222.58,128.54,222.58,125.21z"/>
	</g>
	<g>
		<path class="st1" d="M239.88,125.21c0-3.34,2.79-6.04,6.24-6.04s6.25,2.71,6.25,6.04c0,3.34-2.81,6.04-6.25,6.04
			C242.68,131.25,239.88,128.54,239.88,125.21z"/>
	</g>
	<g>
		<path class="st1" d="M257.18,125.21c0-3.34,2.8-6.04,6.25-6.04s6.25,2.71,6.25,6.04c0,3.34-2.81,6.04-6.25,6.04
			C259.98,131.25,257.18,128.54,257.18,125.21z"/>
	</g>
	<g>
		<path class="st1" d="M274.49,125.21c0-3.34,2.8-6.04,6.25-6.04s6.24,2.71,6.24,6.04c0,3.34-2.79,6.04-6.24,6.04
			S274.49,128.54,274.49,125.21z"/>
	</g>
	<g>
		<path class="st1" d="M291.78,125.21c0-3.34,2.79-6.04,6.25-6.04c3.45,0,6.24,2.71,6.24,6.04c0,3.34-2.79,6.04-6.24,6.04
			C294.58,131.25,291.78,128.54,291.78,125.21z"/>
	</g>
	<g>
		<path class="st1" d="M222.58,140.54c0-3.34,2.79-6.05,6.24-6.05c3.46,0,6.25,2.71,6.25,6.05c0,3.34-2.79,6.04-6.25,6.04
			C225.38,146.59,222.58,143.88,222.58,140.54z"/>
	</g>
	<g>
		<path class="st1" d="M239.88,140.54c0-3.34,2.79-6.05,6.24-6.05s6.25,2.71,6.25,6.05c0,3.34-2.81,6.04-6.25,6.04
			S239.88,143.88,239.88,140.54z"/>
	</g>
	<g>
		<path class="st1" d="M257.18,140.54c0-3.34,2.8-6.05,6.25-6.05s6.25,2.71,6.25,6.05c0,3.34-2.81,6.04-6.25,6.04
			S257.18,143.88,257.18,140.54z"/>
	</g>
	<g>
		<path class="st1" d="M274.49,140.54c0-3.34,2.8-6.05,6.25-6.05s6.24,2.71,6.24,6.05c0,3.34-2.79,6.04-6.24,6.04
			S274.49,143.88,274.49,140.54z"/>
	</g>
	<g>
		<path class="st1" d="M291.78,140.54c0-3.34,2.79-6.05,6.25-6.05c3.45,0,6.24,2.71,6.24,6.05c0,3.34-2.79,6.04-6.24,6.04
			C294.58,146.59,291.78,143.88,291.78,140.54z"/>
	</g>
	<g>
		<path class="st1" d="M222.58,155.88c0-3.34,2.79-6.04,6.24-6.04c3.46,0,6.25,2.71,6.25,6.04c0,3.34-2.79,6.04-6.25,6.04
			C225.38,161.92,222.58,159.22,222.58,155.88z"/>
	</g>
	<g>
		<path class="st1" d="M239.88,155.88c0-3.34,2.79-6.04,6.24-6.04s6.25,2.71,6.25,6.04c0,3.34-2.81,6.04-6.25,6.04
			C242.68,161.92,239.88,159.22,239.88,155.88z"/>
	</g>
	<g>
		<path class="st1" d="M257.18,155.88c0-3.34,2.8-6.04,6.25-6.04s6.25,2.71,6.25,6.04c0,3.34-2.81,6.04-6.25,6.04
			C259.98,161.92,257.18,159.22,257.18,155.88z"/>
	</g>
	<g>
		<path class="st1" d="M274.49,155.88c0-3.34,2.8-6.04,6.25-6.04s6.24,2.71,6.24,6.04c0,3.34-2.79,6.04-6.24,6.04
			S274.49,159.22,274.49,155.88z"/>
	</g>
	<g>
		<path class="st1" d="M291.78,155.88c0-3.34,2.79-6.04,6.25-6.04c3.45,0,6.24,2.71,6.24,6.04c0,3.34-2.79,6.04-6.24,6.04
			C294.58,161.92,291.78,159.22,291.78,155.88z"/>
	</g>
</g>
<g>
	<path class="st0" d="M322.8,17.85c0-3.34,2.79-6.04,6.24-6.04c3.45,0,6.25,2.71,6.25,6.04c0,3.34-2.79,6.04-6.25,6.04
		C325.6,23.89,322.8,21.19,322.8,17.85z"/>
</g>
<g>
	<path class="st0" d="M340.11,17.85c0-3.34,2.79-6.04,6.24-6.04c3.45,0,6.25,2.71,6.25,6.04c0,3.34-2.8,6.04-6.25,6.04
		C342.9,23.89,340.11,21.19,340.11,17.85z"/>
</g>
<g>
	<ellipse class="st0" cx="363.65" cy="17.85" rx="6.25" ry="6.04"/>
</g>
<g>
	<path class="st0" d="M374.71,17.85c0-3.34,2.8-6.04,6.25-6.04s6.24,2.71,6.24,6.04c0,3.34-2.79,6.04-6.24,6.04
		C377.51,23.89,374.71,21.19,374.71,17.85z"/>
</g>
<g>
	<path class="st0" d="M392,17.85c0-3.34,2.79-6.04,6.25-6.04c3.45,0,6.24,2.71,6.24,6.04c0,3.34-2.79,6.04-6.24,6.04
		C394.8,23.89,392,21.19,392,17.85z"/>
</g>
<g>
	<path class="st0" d="M322.8,33.19c0-3.34,2.79-6.04,6.24-6.04c3.45,0,6.25,2.71,6.25,6.04s-2.79,6.04-6.25,6.04
		C325.6,39.23,322.8,36.52,322.8,33.19z"/>
</g>
<g>
	<path class="st0" d="M340.11,33.19c0-3.34,2.79-6.04,6.24-6.04c3.45,0,6.25,2.71,6.25,6.04s-2.8,6.04-6.25,6.04
		C342.9,39.23,340.11,36.52,340.11,33.19z"/>
</g>
<g>
	<ellipse class="st0" cx="363.65" cy="33.19" rx="6.25" ry="6.04"/>
</g>
<g>
	<path class="st0" d="M374.71,33.19c0-3.34,2.8-6.04,6.25-6.04s6.24,2.71,6.24,6.04s-2.79,6.04-6.24,6.04S374.71,36.52,374.71,33.19
		z"/>
</g>
<g>
	<path class="st0" d="M392,33.19c0-3.34,2.79-6.04,6.25-6.04c3.45,0,6.24,2.71,6.24,6.04s-2.79,6.04-6.24,6.04
		C394.8,39.23,392,36.52,392,33.19z"/>
</g>
<g>
	<path class="st0" d="M322.8,48.52c0-3.34,2.79-6.04,6.24-6.04c3.45,0,6.25,2.71,6.25,6.04c0,3.34-2.79,6.04-6.25,6.04
		C325.6,54.56,322.8,51.86,322.8,48.52z"/>
</g>
<g>
	<path class="st0" d="M340.11,48.52c0-3.34,2.79-6.04,6.24-6.04c3.45,0,6.25,2.71,6.25,6.04c0,3.34-2.8,6.04-6.25,6.04
		C342.9,54.56,340.11,51.86,340.11,48.52z"/>
</g>
<g>
	<ellipse class="st0" cx="363.65" cy="48.52" rx="6.25" ry="6.04"/>
</g>
<g>
	<path class="st0" d="M374.71,48.52c0-3.34,2.8-6.04,6.25-6.04s6.24,2.71,6.24,6.04c0,3.34-2.79,6.04-6.24,6.04
		C377.51,54.56,374.71,51.86,374.71,48.52z"/>
</g>
<g>
	<path class="st0" d="M392,48.52c0-3.34,2.79-6.04,6.25-6.04c3.45,0,6.24,2.71,6.24,6.04c0,3.34-2.79,6.04-6.24,6.04
		C394.8,54.56,392,51.86,392,48.52z"/>
</g>
<g>
	<path class="st0" d="M322.8,63.86c0-3.34,2.79-6.04,6.24-6.04c3.45,0,6.25,2.71,6.25,6.04c0,3.34-2.79,6.04-6.25,6.04
		C325.6,69.9,322.8,67.19,322.8,63.86z"/>
</g>
<g>
	<path class="st0" d="M340.11,63.86c0-3.34,2.79-6.04,6.24-6.04c3.45,0,6.25,2.71,6.25,6.04c0,3.34-2.8,6.04-6.25,6.04
		C342.9,69.9,340.11,67.19,340.11,63.86z"/>
</g>
<g>
	<ellipse class="st0" cx="363.65" cy="63.86" rx="6.25" ry="6.04"/>
</g>
<g>
	<path class="st0" d="M374.71,63.86c0-3.34,2.8-6.04,6.25-6.04s6.24,2.71,6.24,6.04c0,3.34-2.79,6.04-6.24,6.04
		S374.71,67.19,374.71,63.86z"/>
</g>
<g>
	<path class="st0" d="M392,63.86c0-3.34,2.79-6.04,6.25-6.04c3.45,0,6.24,2.71,6.24,6.04c0,3.34-2.79,6.04-6.24,6.04
		C394.8,69.9,392,67.19,392,63.86z"/>
</g>
<g>
	<path class="st0" d="M322.8,79.19c0-3.34,2.79-6.04,6.24-6.04c3.45,0,6.25,2.71,6.25,6.04c0,3.34-2.79,6.04-6.25,6.04
		C325.6,85.23,322.8,82.53,322.8,79.19z"/>
</g>
<g>
	<path class="st0" d="M340.11,79.19c0-3.34,2.79-6.04,6.24-6.04c3.45,0,6.25,2.71,6.25,6.04c0,3.34-2.8,6.04-6.25,6.04
		C342.9,85.23,340.11,82.53,340.11,79.19z"/>
</g>
<g>
	<path class="st0" d="M357.4,79.19c0-3.34,2.8-6.04,6.25-6.04c3.45,0,6.25,2.71,6.25,6.04c0,3.34-2.8,6.04-6.25,6.04
		C360.2,85.23,357.4,82.53,357.4,79.19z"/>
</g>
<g>
	<path class="st0" d="M374.71,79.19c0-3.34,2.8-6.04,6.25-6.04s6.24,2.71,6.24,6.04c0,3.34-2.79,6.04-6.24,6.04
		S374.71,82.53,374.71,79.19z"/>
</g>
<g>
	<path class="st0" d="M392,79.19c0-3.34,2.79-6.04,6.25-6.04c3.45,0,6.24,2.71,6.24,6.04c0,3.34-2.79,6.04-6.24,6.04
		C394.8,85.23,392,82.53,392,79.19z"/>
</g>
<g>
	<path class="st0" d="M322.8,94.53c0-3.34,2.79-6.04,6.24-6.04c3.45,0,6.25,2.71,6.25,6.04s-2.79,6.04-6.25,6.04
		C325.6,100.58,322.8,97.87,322.8,94.53z"/>
</g>
<g>
	<path class="st0" d="M340.11,94.53c0-3.34,2.79-6.04,6.24-6.04c3.45,0,6.25,2.71,6.25,6.04s-2.8,6.04-6.25,6.04
		C342.9,100.58,340.11,97.87,340.11,94.53z"/>
</g>
<g>
	<ellipse class="st0" cx="363.65" cy="94.53" rx="6.25" ry="6.04"/>
</g>
<g>
	<path class="st0" d="M392,94.53c0-3.34,2.79-6.04,6.25-6.04c3.45,0,6.24,2.71,6.24,6.04s-2.79,6.04-6.24,6.04
		C394.8,100.58,392,97.87,392,94.53z"/>
</g>
<g>
	<path class="st0" d="M322.8,109.87c0-3.34,2.79-6.05,6.24-6.05c3.45,0,6.25,2.71,6.25,6.05c0,3.34-2.79,6.04-6.25,6.04
		C325.6,115.92,322.8,113.21,322.8,109.87z"/>
</g>
<g>
	<path class="st0" d="M340.11,109.87c0-3.34,2.79-6.05,6.24-6.05c3.45,0,6.25,2.71,6.25,6.05c0,3.34-2.8,6.04-6.25,6.04
		C342.9,115.92,340.11,113.21,340.11,109.87z"/>
</g>
<g>
	<path class="st0" d="M357.4,109.87c0-3.34,2.8-6.05,6.25-6.05c3.45,0,6.25,2.71,6.25,6.05c0,3.34-2.8,6.04-6.25,6.04
		C360.2,115.92,357.4,113.21,357.4,109.87z"/>
</g>
<g>
	<path class="st0" d="M392,109.87c0-3.34,2.79-6.05,6.25-6.05c3.45,0,6.24,2.71,6.24,6.05c0,3.34-2.79,6.04-6.24,6.04
		C394.8,115.92,392,113.21,392,109.87z"/>
</g>
<g>
	<path class="st0" d="M322.8,125.21c0-3.34,2.79-6.04,6.24-6.04c3.45,0,6.25,2.71,6.25,6.04c0,3.34-2.79,6.04-6.25,6.04
		C325.6,131.25,322.8,128.54,322.8,125.21z"/>
</g>
<g>
	<path class="st0" d="M340.11,125.21c0-3.34,2.79-6.04,6.24-6.04c3.45,0,6.25,2.71,6.25,6.04c0,3.34-2.8,6.04-6.25,6.04
		C342.9,131.25,340.11,128.54,340.11,125.21z"/>
</g>
<g>
	<path class="st0" d="M392,125.21c0-3.34,2.79-6.04,6.25-6.04c3.45,0,6.24,2.71,6.24,6.04c0,3.34-2.79,6.04-6.24,6.04
		C394.8,131.25,392,128.54,392,125.21z"/>
</g>
<g>
	<path class="st0" d="M322.8,140.54c0-3.34,2.79-6.05,6.24-6.05c3.45,0,6.25,2.71,6.25,6.05c0,3.34-2.79,6.04-6.25,6.04
		C325.6,146.59,322.8,143.88,322.8,140.54z"/>
</g>
<g>
	<path class="st0" d="M340.11,140.54c0-3.34,2.79-6.05,6.24-6.05c3.45,0,6.25,2.71,6.25,6.05c0,3.34-2.8,6.04-6.25,6.04
		C342.9,146.59,340.11,143.88,340.11,140.54z"/>
</g>
<g>
	<g>
		<path class="st1" d="M374.71,94.53c0-3.34,2.8-6.04,6.25-6.04s6.24,2.71,6.24,6.04s-2.79,6.04-6.24,6.04
			S374.71,97.87,374.71,94.53z"/>
	</g>
	<g>
		<path class="st1" d="M374.71,109.87c0-3.34,2.8-6.05,6.25-6.05s6.24,2.71,6.24,6.05c0,3.34-2.79,6.04-6.24,6.04
			C377.51,115.92,374.71,113.21,374.71,109.87z"/>
	</g>
	<g>
		<path class="st1" d="M357.4,125.21c0-3.34,2.8-6.04,6.25-6.04c3.45,0,6.25,2.71,6.25,6.04c0,3.34-2.8,6.04-6.25,6.04
			C360.2,131.25,357.4,128.54,357.4,125.21z"/>
	</g>
	<g>
		<path class="st1" d="M374.71,125.21c0-3.34,2.8-6.04,6.25-6.04s6.24,2.71,6.24,6.04c0,3.34-2.79,6.04-6.24,6.04
			C377.51,131.25,374.71,128.54,374.71,125.21z"/>
	</g>
	<g>
		<path class="st1" d="M357.4,140.54c0-3.34,2.8-6.05,6.25-6.05c3.45,0,6.25,2.71,6.25,6.05c0,3.34-2.8,6.04-6.25,6.04
			C360.2,146.59,357.4,143.88,357.4,140.54z"/>
	</g>
	<g>
		<path class="st1" d="M374.71,140.54c0-3.34,2.8-6.05,6.25-6.05s6.24,2.71,6.24,6.05c0,3.34-2.79,6.04-6.24,6.04
			S374.71,143.88,374.71,140.54z"/>
	</g>
	<g>
		<path class="st1" d="M392,140.54c0-3.34,2.79-6.05,6.25-6.05c3.45,0,6.24,2.71,6.24,6.05c0,3.34-2.79,6.04-6.24,6.04
			C394.8,146.59,392,143.88,392,140.54z"/>
	</g>
	<g>
		<path class="st1" d="M322.8,155.88c0-3.34,2.79-6.04,6.24-6.04c3.45,0,6.25,2.71,6.25,6.04c0,3.34-2.79,6.04-6.25,6.04
			C325.6,161.92,322.8,159.22,322.8,155.88z"/>
	</g>
	<g>
		<path class="st1" d="M340.11,155.88c0-3.34,2.79-6.04,6.24-6.04c3.45,0,6.25,2.71,6.25,6.04c0,3.34-2.8,6.04-6.25,6.04
			C342.9,161.92,340.11,159.22,340.11,155.88z"/>
	</g>
	<g>
		<ellipse class="st1" cx="363.65" cy="155.88" rx="6.25" ry="6.04"/>
	</g>
	<g>
		<path class="st1" d="M374.71,155.88c0-3.34,2.8-6.04,6.25-6.04s6.24,2.71,6.24,6.04c0,3.34-2.79,6.04-6.24,6.04
			C377.51,161.92,374.71,159.22,374.71,155.88z"/>
	</g>
	<g>
		<path class="st1" d="M392,155.88c0-3.34,2.79-6.04,6.25-6.04c3.45,0,6.24,2.71,6.24,6.04c0,3.34-2.79,6.04-6.24,6.04
			C394.8,161.92,392,159.22,392,155.88z"/>
	</g>
</g>
<g>
	<path class="st0" d="M423.03,16.22c0-3.34,2.79-6.04,6.24-6.04c3.45,0,6.25,2.71,6.25,6.04c0,3.34-2.79,6.04-6.25,6.04
		C425.82,22.26,423.03,19.56,423.03,16.22z"/>
</g>
<g>
	<path class="st0" d="M440.32,16.22c0-3.34,2.79-6.04,6.24-6.04s6.25,2.71,6.25,6.04c0,3.34-2.8,6.04-6.25,6.04
		C443.12,22.26,440.32,19.56,440.32,16.22z"/>
</g>
<g>
	<ellipse class="st0" cx="463.87" cy="16.22" rx="6.25" ry="6.04"/>
</g>
<g>
	<path class="st0" d="M474.92,16.22c0-3.34,2.8-6.04,6.25-6.04s6.24,2.71,6.24,6.04c0,3.34-2.79,6.04-6.24,6.04
		C477.72,22.26,474.92,19.56,474.92,16.22z"/>
</g>
<g>
	<path class="st0" d="M492.23,16.22c0-3.34,2.79-6.04,6.25-6.04c3.45,0,6.24,2.71,6.24,6.04c0,3.34-2.79,6.04-6.24,6.04
		C495.02,22.26,492.23,19.56,492.23,16.22z"/>
</g>
<g>
	<path class="st0" d="M423.03,31.56c0-3.34,2.79-6.04,6.24-6.04c3.45,0,6.25,2.71,6.25,6.04c0,3.34-2.79,6.04-6.25,6.04
		C425.82,37.6,423.03,34.89,423.03,31.56z"/>
</g>
<g>
	<path class="st0" d="M440.32,31.56c0-3.34,2.79-6.04,6.24-6.04s6.25,2.71,6.25,6.04c0,3.34-2.8,6.04-6.25,6.04
		S440.32,34.89,440.32,31.56z"/>
</g>
<g>
	<ellipse class="st0" cx="463.87" cy="31.56" rx="6.25" ry="6.04"/>
</g>
<g>
	<path class="st0" d="M474.92,31.56c0-3.34,2.8-6.04,6.25-6.04s6.24,2.71,6.24,6.04c0,3.34-2.79,6.04-6.24,6.04
		S474.92,34.89,474.92,31.56z"/>
</g>
<g>
	<path class="st0" d="M492.23,31.56c0-3.34,2.79-6.04,6.25-6.04c3.45,0,6.24,2.71,6.24,6.04c0,3.34-2.79,6.04-6.24,6.04
		C495.02,37.6,492.23,34.89,492.23,31.56z"/>
</g>
<g>
	<path class="st0" d="M423.03,46.89c0-3.34,2.79-6.04,6.24-6.04c3.45,0,6.25,2.71,6.25,6.04c0,3.34-2.79,6.04-6.25,6.04
		C425.82,52.93,423.03,50.23,423.03,46.89z"/>
</g>
<g>
	<path class="st0" d="M440.32,46.89c0-3.34,2.79-6.04,6.24-6.04s6.25,2.71,6.25,6.04c0,3.34-2.8,6.04-6.25,6.04
		C443.12,52.93,440.32,50.23,440.32,46.89z"/>
</g>
<g>
	<ellipse class="st0" cx="463.87" cy="46.89" rx="6.25" ry="6.04"/>
</g>
<g>
	<path class="st0" d="M474.92,46.89c0-3.34,2.8-6.04,6.25-6.04s6.24,2.71,6.24,6.04c0,3.34-2.79,6.04-6.24,6.04
		C477.72,52.93,474.92,50.23,474.92,46.89z"/>
</g>
<g>
	<path class="st0" d="M492.23,46.89c0-3.34,2.79-6.04,6.25-6.04c3.45,0,6.24,2.71,6.24,6.04c0,3.34-2.79,6.04-6.24,6.04
		C495.02,52.93,492.23,50.23,492.23,46.89z"/>
</g>
<g>
	<path class="st0" d="M423.03,62.23c0-3.34,2.79-6.04,6.24-6.04c3.45,0,6.25,2.71,6.25,6.04c0,3.34-2.79,6.04-6.25,6.04
		C425.82,68.27,423.03,65.56,423.03,62.23z"/>
</g>
<g>
	<path class="st0" d="M440.32,62.23c0-3.34,2.79-6.04,6.24-6.04s6.25,2.71,6.25,6.04c0,3.34-2.8,6.04-6.25,6.04
		S440.32,65.56,440.32,62.23z"/>
</g>
<g>
	<ellipse class="st0" cx="463.87" cy="62.23" rx="6.25" ry="6.04"/>
</g>
<g>
	<path class="st0" d="M474.92,62.23c0-3.34,2.8-6.04,6.25-6.04s6.24,2.71,6.24,6.04c0,3.34-2.79,6.04-6.24,6.04
		S474.92,65.56,474.92,62.23z"/>
</g>
<g>
	<path class="st0" d="M492.23,62.23c0-3.34,2.79-6.04,6.25-6.04c3.45,0,6.24,2.71,6.24,6.04c0,3.34-2.79,6.04-6.24,6.04
		C495.02,68.27,492.23,65.56,492.23,62.23z"/>
</g>
<g>
	<path class="st0" d="M423.03,77.56c0-3.34,2.79-6.04,6.24-6.04c3.45,0,6.25,2.71,6.25,6.04c0,3.34-2.79,6.04-6.25,6.04
		C425.82,83.61,423.03,80.9,423.03,77.56z"/>
</g>
<g>
	<path class="st0" d="M440.32,77.56c0-3.34,2.79-6.04,6.24-6.04s6.25,2.71,6.25,6.04c0,3.34-2.8,6.04-6.25,6.04
		S440.32,80.9,440.32,77.56z"/>
</g>
<g>
	<path class="st0" d="M457.62,77.56c0-3.34,2.8-6.04,6.25-6.04s6.25,2.71,6.25,6.04c0,3.34-2.8,6.04-6.25,6.04
		S457.62,80.9,457.62,77.56z"/>
</g>
<g>
	<path class="st0" d="M474.92,77.56c0-3.34,2.8-6.04,6.25-6.04s6.24,2.71,6.24,6.04c0,3.34-2.79,6.04-6.24,6.04
		S474.92,80.9,474.92,77.56z"/>
</g>
<g>
	<path class="st0" d="M492.23,77.56c0-3.34,2.79-6.04,6.25-6.04c3.45,0,6.24,2.71,6.24,6.04c0,3.34-2.79,6.04-6.24,6.04
		C495.02,83.61,492.23,80.9,492.23,77.56z"/>
</g>
<g>
	<path class="st0" d="M423.03,92.9c0-3.34,2.79-6.04,6.24-6.04c3.45,0,6.25,2.71,6.25,6.04s-2.79,6.04-6.25,6.04
		C425.82,98.95,423.03,96.24,423.03,92.9z"/>
</g>
<g>
	<path class="st0" d="M440.32,92.9c0-3.34,2.79-6.04,6.24-6.04s6.25,2.71,6.25,6.04s-2.8,6.04-6.25,6.04S440.32,96.24,440.32,92.9z"
		/>
</g>
<g>
	<ellipse class="st0" cx="463.87" cy="92.9" rx="6.25" ry="6.04"/>
</g>
<g>
	<path class="st0" d="M474.92,92.9c0-3.34,2.8-6.04,6.25-6.04s6.24,2.71,6.24,6.04s-2.79,6.04-6.24,6.04S474.92,96.24,474.92,92.9z"
		/>
</g>
<g>
	<path class="st0" d="M492.23,92.9c0-3.34,2.79-6.04,6.25-6.04c3.45,0,6.24,2.71,6.24,6.04s-2.79,6.04-6.24,6.04
		C495.02,98.95,492.23,96.24,492.23,92.9z"/>
</g>
<g>
	<path class="st0" d="M423.03,108.25c0-3.34,2.79-6.05,6.24-6.05c3.45,0,6.25,2.71,6.25,6.05c0,3.34-2.79,6.04-6.25,6.04
		C425.82,114.29,423.03,111.58,423.03,108.25z"/>
</g>
<g>
	<path class="st0" d="M440.32,108.25c0-3.34,2.79-6.05,6.24-6.05s6.25,2.71,6.25,6.05c0,3.34-2.8,6.04-6.25,6.04
		C443.12,114.29,440.32,111.58,440.32,108.25z"/>
</g>
<g>
	<path class="st0" d="M492.23,108.25c0-3.34,2.79-6.05,6.25-6.05c3.45,0,6.24,2.71,6.24,6.05c0,3.34-2.79,6.04-6.24,6.04
		C495.02,114.29,492.23,111.58,492.23,108.25z"/>
</g>
<g>
	<path class="st0" d="M423.03,123.58c0-3.34,2.79-6.04,6.24-6.04c3.45,0,6.25,2.71,6.25,6.04c0,3.34-2.79,6.04-6.25,6.04
		C425.82,129.62,423.03,126.91,423.03,123.58z"/>
</g>
<g>
	<path class="st0" d="M440.32,123.58c0-3.34,2.79-6.04,6.24-6.04s6.25,2.71,6.25,6.04c0,3.34-2.8,6.04-6.25,6.04
		C443.12,129.62,440.32,126.91,440.32,123.58z"/>
</g>
<g>
	<path class="st0" d="M440.32,138.92c0-3.34,2.79-6.05,6.24-6.05s6.25,2.71,6.25,6.05c0,3.34-2.8,6.04-6.25,6.04
		S440.32,142.26,440.32,138.92z"/>
</g>
<g>
	<g>
		<path class="st1" d="M457.62,108.25c0-3.34,2.8-6.05,6.25-6.05s6.25,2.71,6.25,6.05c0,3.34-2.8,6.04-6.25,6.04
			C460.42,114.29,457.62,111.58,457.62,108.25z"/>
	</g>
	<g>
		<path class="st1" d="M474.92,108.25c0-3.34,2.8-6.05,6.25-6.05s6.24,2.71,6.24,6.05c0,3.34-2.79,6.04-6.24,6.04
			C477.72,114.29,474.92,111.58,474.92,108.25z"/>
	</g>
	<g>
		<path class="st1" d="M457.62,123.58c0-3.34,2.8-6.04,6.25-6.04s6.25,2.71,6.25,6.04c0,3.34-2.8,6.04-6.25,6.04
			C460.42,129.62,457.62,126.91,457.62,123.58z"/>
	</g>
	<g>
		<path class="st1" d="M474.92,123.58c0-3.34,2.8-6.04,6.25-6.04s6.24,2.71,6.24,6.04c0,3.34-2.79,6.04-6.24,6.04
			C477.72,129.62,474.92,126.91,474.92,123.58z"/>
	</g>
	<g>
		<path class="st1" d="M492.23,123.58c0-3.34,2.79-6.04,6.25-6.04c3.45,0,6.24,2.71,6.24,6.04c0,3.34-2.79,6.04-6.24,6.04
			C495.02,129.62,492.23,126.91,492.23,123.58z"/>
	</g>
	<g>
		<path class="st1" d="M423.03,138.92c0-3.34,2.79-6.05,6.24-6.05c3.45,0,6.25,2.71,6.25,6.05c0,3.34-2.79,6.04-6.25,6.04
			C425.82,144.96,423.03,142.26,423.03,138.92z"/>
	</g>
	<g>
		<path class="st1" d="M457.62,138.92c0-3.34,2.8-6.05,6.25-6.05s6.25,2.71,6.25,6.05c0,3.34-2.8,6.04-6.25,6.04
			S457.62,142.26,457.62,138.92z"/>
	</g>
	<g>
		<path class="st1" d="M474.92,138.92c0-3.34,2.8-6.05,6.25-6.05s6.24,2.71,6.24,6.05c0,3.34-2.79,6.04-6.24,6.04
			S474.92,142.26,474.92,138.92z"/>
	</g>
	<g>
		<path class="st1" d="M492.23,138.92c0-3.34,2.79-6.05,6.25-6.05c3.45,0,6.24,2.71,6.24,6.05c0,3.34-2.79,6.04-6.24,6.04
			C495.02,144.96,492.23,142.26,492.23,138.92z"/>
	</g>
	<g>
		<path class="st1" d="M423.03,154.25c0-3.34,2.79-6.04,6.24-6.04c3.45,0,6.25,2.71,6.25,6.04c0,3.34-2.79,6.04-6.25,6.04
			C425.82,160.29,423.03,157.59,423.03,154.25z"/>
	</g>
	<g>
		<path class="st1" d="M440.32,154.25c0-3.34,2.79-6.04,6.24-6.04s6.25,2.71,6.25,6.04c0,3.34-2.8,6.04-6.25,6.04
			C443.12,160.29,440.32,157.59,440.32,154.25z"/>
	</g>
	<g>
		<ellipse class="st1" cx="463.87" cy="154.25" rx="6.25" ry="6.04"/>
	</g>
	<g>
		<path class="st1" d="M474.92,154.25c0-3.34,2.8-6.04,6.25-6.04s6.24,2.71,6.24,6.04c0,3.34-2.79,6.04-6.24,6.04
			C477.72,160.29,474.92,157.59,474.92,154.25z"/>
	</g>
	<g>
		<path class="st1" d="M492.23,154.25c0-3.34,2.79-6.04,6.25-6.04c3.45,0,6.24,2.71,6.24,6.04c0,3.34-2.79,6.04-6.24,6.04
			C495.02,160.29,492.23,157.59,492.23,154.25z"/>
	</g>
</g>
<g>
	<path class="st0" d="M523.25,16.22c0-3.34,2.79-6.04,6.24-6.04c3.45,0,6.25,2.71,6.25,6.04c0,3.34-2.79,6.04-6.25,6.04
		C526.04,22.26,523.25,19.56,523.25,16.22z"/>
</g>
<g>
	<path class="st0" d="M540.55,16.22c0-3.34,2.79-6.04,6.24-6.04s6.25,2.71,6.25,6.04c0,3.34-2.8,6.04-6.25,6.04
		C543.34,22.26,540.55,19.56,540.55,16.22z"/>
</g>
<g>
	<path class="st0" d="M557.84,16.22c0-3.34,2.81-6.04,6.25-6.04s6.25,2.71,6.25,6.04c0,3.34-2.8,6.04-6.25,6.04
		C560.64,22.26,557.84,19.56,557.84,16.22z"/>
</g>
<g>
	<path class="st0" d="M575.14,16.22c0-3.34,2.81-6.04,6.25-6.04s6.24,2.71,6.24,6.04c0,3.34-2.79,6.04-6.24,6.04
		C577.94,22.26,575.14,19.56,575.14,16.22z"/>
</g>
<g>
	<path class="st0" d="M592.45,16.22c0-3.34,2.79-6.04,6.25-6.04c3.45,0,6.24,2.71,6.24,6.04c0,3.34-2.79,6.04-6.24,6.04
		C595.23,22.26,592.45,19.56,592.45,16.22z"/>
</g>
<g>
	<path class="st0" d="M523.25,31.56c0-3.34,2.79-6.04,6.24-6.04c3.45,0,6.25,2.71,6.25,6.04c0,3.34-2.79,6.04-6.25,6.04
		C526.04,37.6,523.25,34.89,523.25,31.56z"/>
</g>
<g>
	<path class="st0" d="M540.55,31.56c0-3.34,2.79-6.04,6.24-6.04s6.25,2.71,6.25,6.04c0,3.34-2.8,6.04-6.25,6.04
		C543.34,37.6,540.55,34.89,540.55,31.56z"/>
</g>
<g>
	<path class="st0" d="M557.84,31.56c0-3.34,2.81-6.04,6.25-6.04s6.25,2.71,6.25,6.04c0,3.34-2.8,6.04-6.25,6.04
		S557.84,34.89,557.84,31.56z"/>
</g>
<g>
	<path class="st0" d="M575.14,31.56c0-3.34,2.81-6.04,6.25-6.04s6.24,2.71,6.24,6.04c0,3.34-2.79,6.04-6.24,6.04
		S575.14,34.89,575.14,31.56z"/>
</g>
<g>
	<path class="st0" d="M592.45,31.56c0-3.34,2.79-6.04,6.25-6.04c3.45,0,6.24,2.71,6.24,6.04c0,3.34-2.79,6.04-6.24,6.04
		C595.23,37.6,592.45,34.89,592.45,31.56z"/>
</g>
<g>
	<path class="st0" d="M540.55,46.89c0-3.34,2.79-6.04,6.24-6.04s6.25,2.71,6.25,6.04c0,3.34-2.8,6.04-6.25,6.04
		C543.34,52.93,540.55,50.23,540.55,46.89z"/>
</g>
<g>
	<path class="st0" d="M557.84,46.89c0-3.34,2.81-6.04,6.25-6.04s6.25,2.71,6.25,6.04c0,3.34-2.8,6.04-6.25,6.04
		C560.64,52.93,557.84,50.23,557.84,46.89z"/>
</g>
<g>
	<path class="st0" d="M575.14,46.89c0-3.34,2.81-6.04,6.25-6.04s6.24,2.71,6.24,6.04c0,3.34-2.79,6.04-6.24,6.04
		C577.94,52.93,575.14,50.23,575.14,46.89z"/>
</g>
<g>
	<path class="st0" d="M592.45,46.89c0-3.34,2.79-6.04,6.25-6.04c3.45,0,6.24,2.71,6.24,6.04c0,3.34-2.79,6.04-6.24,6.04
		C595.23,52.93,592.45,50.23,592.45,46.89z"/>
</g>
<g>
	<path class="st0" d="M557.84,62.23c0-3.34,2.81-6.04,6.25-6.04s6.25,2.71,6.25,6.04c0,3.34-2.8,6.04-6.25,6.04
		S557.84,65.56,557.84,62.23z"/>
</g>
<g>
	<path class="st0" d="M575.14,62.23c0-3.34,2.81-6.04,6.25-6.04s6.24,2.71,6.24,6.04c0,3.34-2.79,6.04-6.24,6.04
		S575.14,65.56,575.14,62.23z"/>
</g>
<g>
	<path class="st0" d="M592.45,62.23c0-3.34,2.79-6.04,6.25-6.04c3.45,0,6.24,2.71,6.24,6.04c0,3.34-2.79,6.04-6.24,6.04
		C595.23,68.27,592.45,65.56,592.45,62.23z"/>
</g>
<g>
	<path class="st0" d="M557.84,77.56c0-3.34,2.81-6.04,6.25-6.04s6.25,2.71,6.25,6.04c0,3.34-2.8,6.04-6.25,6.04
		S557.84,80.9,557.84,77.56z"/>
</g>
<g>
	<path class="st0" d="M575.14,77.56c0-3.34,2.81-6.04,6.25-6.04s6.24,2.71,6.24,6.04c0,3.34-2.79,6.04-6.24,6.04
		S575.14,80.9,575.14,77.56z"/>
</g>
<g>
	<path class="st0" d="M592.45,77.56c0-3.34,2.79-6.04,6.25-6.04c3.45,0,6.24,2.71,6.24,6.04c0,3.34-2.79,6.04-6.24,6.04
		C595.23,83.61,592.45,80.9,592.45,77.56z"/>
</g>
<g>
	<path class="st0" d="M592.45,92.9c0-3.34,2.79-6.04,6.25-6.04c3.45,0,6.24,2.71,6.24,6.04s-2.79,6.04-6.24,6.04
		C595.23,98.95,592.45,96.24,592.45,92.9z"/>
</g>
<g>
	<g>
		<path class="st1" d="M523.25,46.89c0-3.34,2.79-6.04,6.24-6.04c3.45,0,6.25,2.71,6.25,6.04c0,3.34-2.79,6.04-6.25,6.04
			C526.04,52.93,523.25,50.23,523.25,46.89z"/>
	</g>
	<g>
		<path class="st1" d="M523.25,62.23c0-3.34,2.79-6.04,6.24-6.04c3.45,0,6.25,2.71,6.25,6.04c0,3.34-2.79,6.04-6.25,6.04
			C526.04,68.27,523.25,65.56,523.25,62.23z"/>
	</g>
	<g>
		<path class="st1" d="M540.55,62.23c0-3.34,2.79-6.04,6.24-6.04s6.25,2.71,6.25,6.04c0,3.34-2.8,6.04-6.25,6.04
			C543.34,68.27,540.55,65.56,540.55,62.23z"/>
	</g>
	<g>
		<path class="st1" d="M523.25,77.56c0-3.34,2.79-6.04,6.24-6.04c3.45,0,6.25,2.71,6.25,6.04c0,3.34-2.79,6.04-6.25,6.04
			C526.04,83.61,523.25,80.9,523.25,77.56z"/>
	</g>
	<g>
		<path class="st1" d="M540.55,77.56c0-3.34,2.79-6.04,6.24-6.04s6.25,2.71,6.25,6.04c0,3.34-2.8,6.04-6.25,6.04
			C543.34,83.61,540.55,80.9,540.55,77.56z"/>
	</g>
	<g>
		<path class="st1" d="M523.25,92.9c0-3.34,2.79-6.04,6.24-6.04c3.45,0,6.25,2.71,6.25,6.04s-2.79,6.04-6.25,6.04
			C526.04,98.95,523.25,96.24,523.25,92.9z"/>
	</g>
	<g>
		<path class="st1" d="M540.55,92.9c0-3.34,2.79-6.04,6.24-6.04s6.25,2.71,6.25,6.04s-2.8,6.04-6.25,6.04
			C543.34,98.95,540.55,96.24,540.55,92.9z"/>
	</g>
	<g>
		<path class="st1" d="M557.84,92.9c0-3.34,2.81-6.04,6.25-6.04s6.25,2.71,6.25,6.04s-2.8,6.04-6.25,6.04S557.84,96.24,557.84,92.9z
			"/>
	</g>
	<g>
		<path class="st1" d="M575.14,92.9c0-3.34,2.81-6.04,6.25-6.04s6.24,2.71,6.24,6.04s-2.79,6.04-6.24,6.04S575.14,96.24,575.14,92.9
			z"/>
	</g>
	<g>
		<path class="st1" d="M523.25,108.25c0-3.34,2.79-6.05,6.24-6.05c3.45,0,6.25,2.71,6.25,6.05c0,3.34-2.79,6.04-6.25,6.04
			C526.04,114.29,523.25,111.58,523.25,108.25z"/>
	</g>
	<g>
		<path class="st1" d="M540.55,108.25c0-3.34,2.79-6.05,6.24-6.05s6.25,2.71,6.25,6.05c0,3.34-2.8,6.04-6.25,6.04
			C543.34,114.29,540.55,111.58,540.55,108.25z"/>
	</g>
	<g>
		<path class="st1" d="M557.84,108.25c0-3.34,2.81-6.05,6.25-6.05s6.25,2.71,6.25,6.05c0,3.34-2.8,6.04-6.25,6.04
			C560.64,114.29,557.84,111.58,557.84,108.25z"/>
	</g>
	<g>
		<path class="st1" d="M575.14,108.25c0-3.34,2.81-6.05,6.25-6.05s6.24,2.71,6.24,6.05c0,3.34-2.79,6.04-6.24,6.04
			C577.94,114.29,575.14,111.58,575.14,108.25z"/>
	</g>
	<g>
		<path class="st1" d="M592.45,108.25c0-3.34,2.79-6.05,6.25-6.05c3.45,0,6.24,2.71,6.24,6.05c0,3.34-2.79,6.04-6.24,6.04
			C595.23,114.29,592.45,111.58,592.45,108.25z"/>
	</g>
	<g>
		<path class="st1" d="M523.25,123.58c0-3.34,2.79-6.04,6.24-6.04c3.45,0,6.25,2.71,6.25,6.04c0,3.34-2.79,6.04-6.25,6.04
			C526.04,129.62,523.25,126.91,523.25,123.58z"/>
	</g>
	<g>
		<path class="st1" d="M540.55,123.58c0-3.34,2.79-6.04,6.24-6.04s6.25,2.71,6.25,6.04c0,3.34-2.8,6.04-6.25,6.04
			C543.34,129.62,540.55,126.91,540.55,123.58z"/>
	</g>
	<g>
		<path class="st1" d="M557.84,123.58c0-3.34,2.81-6.04,6.25-6.04s6.25,2.71,6.25,6.04c0,3.34-2.8,6.04-6.25,6.04
			C560.64,129.62,557.84,126.91,557.84,123.58z"/>
	</g>
	<g>
		<path class="st1" d="M575.14,123.58c0-3.34,2.81-6.04,6.25-6.04s6.24,2.71,6.24,6.04c0,3.34-2.79,6.04-6.24,6.04
			C577.94,129.62,575.14,126.91,575.14,123.58z"/>
	</g>
	<g>
		<path class="st1" d="M592.45,123.58c0-3.34,2.79-6.04,6.25-6.04c3.45,0,6.24,2.71,6.24,6.04c0,3.34-2.79,6.04-6.24,6.04
			C595.23,129.62,592.45,126.91,592.45,123.58z"/>
	</g>
	<g>
		<path class="st1" d="M523.25,138.92c0-3.34,2.79-6.05,6.24-6.05c3.45,0,6.25,2.71,6.25,6.05c0,3.34-2.79,6.04-6.25,6.04
			C526.04,144.96,523.25,142.26,523.25,138.92z"/>
	</g>
	<g>
		<path class="st1" d="M540.55,138.92c0-3.34,2.79-6.05,6.24-6.05s6.25,2.71,6.25,6.05c0,3.34-2.8,6.04-6.25,6.04
			C543.34,144.96,540.55,142.26,540.55,138.92z"/>
	</g>
	<g>
		<path class="st1" d="M557.84,138.92c0-3.34,2.81-6.05,6.25-6.05s6.25,2.71,6.25,6.05c0,3.34-2.8,6.04-6.25,6.04
			S557.84,142.26,557.84,138.92z"/>
	</g>
	<g>
		<path class="st1" d="M575.14,138.92c0-3.34,2.81-6.05,6.25-6.05s6.24,2.71,6.24,6.05c0,3.34-2.79,6.04-6.24,6.04
			S575.14,142.26,575.14,138.92z"/>
	</g>
	<g>
		<path class="st1" d="M592.45,138.92c0-3.34,2.79-6.05,6.25-6.05c3.45,0,6.24,2.71,6.24,6.05c0,3.34-2.79,6.04-6.24,6.04
			C595.23,144.96,592.45,142.26,592.45,138.92z"/>
	</g>
	<g>
		<path class="st1" d="M523.25,154.25c0-3.34,2.79-6.04,6.24-6.04c3.45,0,6.25,2.71,6.25,6.04c0,3.34-2.79,6.04-6.25,6.04
			C526.04,160.29,523.25,157.59,523.25,154.25z"/>
	</g>
	<g>
		<path class="st1" d="M540.55,154.25c0-3.34,2.79-6.04,6.24-6.04s6.25,2.71,6.25,6.04c0,3.34-2.8,6.04-6.25,6.04
			C543.34,160.29,540.55,157.59,540.55,154.25z"/>
	</g>
	<g>
		<path class="st1" d="M557.84,154.25c0-3.34,2.81-6.04,6.25-6.04s6.25,2.71,6.25,6.04c0,3.34-2.8,6.04-6.25,6.04
			C560.64,160.29,557.84,157.59,557.84,154.25z"/>
	</g>
	<g>
		<path class="st1" d="M575.14,154.25c0-3.34,2.81-6.04,6.25-6.04s6.24,2.71,6.24,6.04c0,3.34-2.79,6.04-6.24,6.04
			C577.94,160.29,575.14,157.59,575.14,154.25z"/>
	</g>
	<g>
		<path class="st1" d="M592.45,154.25c0-3.34,2.79-6.04,6.25-6.04c3.45,0,6.24,2.71,6.24,6.04c0,3.34-2.79,6.04-6.24,6.04
			C595.23,160.29,592.45,157.59,592.45,154.25z"/>
	</g>
</g>
<g>
	<path class="st0" d="M623.46,16.22c0-3.34,2.79-6.04,6.24-6.04c3.46,0,6.25,2.71,6.25,6.04c0,3.34-2.79,6.04-6.25,6.04
		C626.26,22.26,623.46,19.56,623.46,16.22z"/>
</g>
<g>
	<path class="st0" d="M640.77,16.22c0-3.34,2.79-6.04,6.24-6.04s6.25,2.71,6.25,6.04c0,3.34-2.81,6.04-6.25,6.04
		C643.56,22.26,640.77,19.56,640.77,16.22z"/>
</g>
<g>
	<path class="st0" d="M658.06,16.22c0-3.34,2.8-6.04,6.25-6.04s6.25,2.71,6.25,6.04c0,3.34-2.81,6.04-6.25,6.04
		C660.86,22.26,658.06,19.56,658.06,16.22z"/>
</g>
<g>
	<path class="st0" d="M675.37,16.22c0-3.34,2.8-6.04,6.25-6.04s6.24,2.71,6.24,6.04c0,3.34-2.79,6.04-6.24,6.04
		S675.37,19.56,675.37,16.22z"/>
</g>
<g>
	<path class="st0" d="M692.66,16.22c0-3.34,2.79-6.04,6.25-6.04c3.45,0,6.24,2.71,6.24,6.04c0,3.34-2.79,6.04-6.24,6.04
		C695.46,22.26,692.66,19.56,692.66,16.22z"/>
</g>
<g>
	<path class="st0" d="M623.46,31.56c0-3.34,2.79-6.04,6.24-6.04c3.46,0,6.25,2.71,6.25,6.04c0,3.34-2.79,6.04-6.25,6.04
		C626.26,37.6,623.46,34.89,623.46,31.56z"/>
</g>
<g>
	<path class="st0" d="M640.77,31.56c0-3.34,2.79-6.04,6.24-6.04s6.25,2.71,6.25,6.04c0,3.34-2.81,6.04-6.25,6.04
		S640.77,34.89,640.77,31.56z"/>
</g>
<g>
	<path class="st0" d="M658.06,31.56c0-3.34,2.8-6.04,6.25-6.04s6.25,2.71,6.25,6.04c0,3.34-2.81,6.04-6.25,6.04
		S658.06,34.89,658.06,31.56z"/>
</g>
<g>
	<path class="st0" d="M675.37,31.56c0-3.34,2.8-6.04,6.25-6.04s6.24,2.71,6.24,6.04c0,3.34-2.79,6.04-6.24,6.04
		S675.37,34.89,675.37,31.56z"/>
</g>
<g>
	<path class="st0" d="M692.66,31.56c0-3.34,2.79-6.04,6.25-6.04c3.45,0,6.24,2.71,6.24,6.04c0,3.34-2.79,6.04-6.24,6.04
		C695.46,37.6,692.66,34.89,692.66,31.56z"/>
</g>
<g>
	<path class="st0" d="M623.46,46.89c0-3.34,2.79-6.04,6.24-6.04c3.46,0,6.25,2.71,6.25,6.04c0,3.34-2.79,6.04-6.25,6.04
		C626.26,52.93,623.46,50.23,623.46,46.89z"/>
</g>
<g>
	<path class="st0" d="M640.77,46.89c0-3.34,2.79-6.04,6.24-6.04s6.25,2.71,6.25,6.04c0,3.34-2.81,6.04-6.25,6.04
		C643.56,52.93,640.77,50.23,640.77,46.89z"/>
</g>
<g>
	<path class="st0" d="M658.06,46.89c0-3.34,2.8-6.04,6.25-6.04s6.25,2.71,6.25,6.04c0,3.34-2.81,6.04-6.25,6.04
		C660.86,52.93,658.06,50.23,658.06,46.89z"/>
</g>
<g>
	<path class="st0" d="M675.37,46.89c0-3.34,2.8-6.04,6.25-6.04s6.24,2.71,6.24,6.04c0,3.34-2.79,6.04-6.24,6.04
		S675.37,50.23,675.37,46.89z"/>
</g>
<g>
	<path class="st0" d="M692.66,46.89c0-3.34,2.79-6.04,6.25-6.04c3.45,0,6.24,2.71,6.24,6.04c0,3.34-2.79,6.04-6.24,6.04
		C695.46,52.93,692.66,50.23,692.66,46.89z"/>
</g>
<g>
	<path class="st0" d="M623.46,62.23c0-3.34,2.79-6.04,6.24-6.04c3.46,0,6.25,2.71,6.25,6.04c0,3.34-2.79,6.04-6.25,6.04
		C626.26,68.27,623.46,65.56,623.46,62.23z"/>
</g>
<g>
	<path class="st0" d="M640.77,62.23c0-3.34,2.79-6.04,6.24-6.04s6.25,2.71,6.25,6.04c0,3.34-2.81,6.04-6.25,6.04
		S640.77,65.56,640.77,62.23z"/>
</g>
<g>
	<path class="st0" d="M658.06,62.23c0-3.34,2.8-6.04,6.25-6.04s6.25,2.71,6.25,6.04c0,3.34-2.81,6.04-6.25,6.04
		S658.06,65.56,658.06,62.23z"/>
</g>
<g>
	<path class="st0" d="M675.37,62.23c0-3.34,2.8-6.04,6.25-6.04s6.24,2.71,6.24,6.04c0,3.34-2.79,6.04-6.24,6.04
		S675.37,65.56,675.37,62.23z"/>
</g>
<g>
	<path class="st0" d="M692.66,62.23c0-3.34,2.79-6.04,6.25-6.04c3.45,0,6.24,2.71,6.24,6.04c0,3.34-2.79,6.04-6.24,6.04
		C695.46,68.27,692.66,65.56,692.66,62.23z"/>
</g>
<g>
	<path class="st0" d="M623.46,77.56c0-3.34,2.79-6.04,6.24-6.04c3.46,0,6.25,2.71,6.25,6.04c0,3.34-2.79,6.04-6.25,6.04
		C626.26,83.61,623.46,80.9,623.46,77.56z"/>
</g>
<g>
	<path class="st0" d="M640.77,77.56c0-3.34,2.79-6.04,6.24-6.04s6.25,2.71,6.25,6.04c0,3.34-2.81,6.04-6.25,6.04
		S640.77,80.9,640.77,77.56z"/>
</g>
<g>
	<path class="st0" d="M658.06,77.56c0-3.34,2.8-6.04,6.25-6.04s6.25,2.71,6.25,6.04c0,3.34-2.81,6.04-6.25,6.04
		S658.06,80.9,658.06,77.56z"/>
</g>
<g>
	<path class="st0" d="M692.66,77.56c0-3.34,2.79-6.04,6.25-6.04c3.45,0,6.24,2.71,6.24,6.04c0,3.34-2.79,6.04-6.24,6.04
		C695.46,83.61,692.66,80.9,692.66,77.56z"/>
</g>
<g>
	<path class="st0" d="M623.46,92.9c0-3.34,2.79-6.04,6.24-6.04c3.46,0,6.25,2.71,6.25,6.04s-2.79,6.04-6.25,6.04
		C626.26,98.95,623.46,96.24,623.46,92.9z"/>
</g>
<g>
	<path class="st0" d="M640.77,92.9c0-3.34,2.79-6.04,6.24-6.04s6.25,2.71,6.25,6.04s-2.81,6.04-6.25,6.04S640.77,96.24,640.77,92.9z
		"/>
</g>
<g>
	<path class="st0" d="M692.66,92.9c0-3.34,2.79-6.04,6.25-6.04c3.45,0,6.24,2.71,6.24,6.04s-2.79,6.04-6.24,6.04
		C695.46,98.95,692.66,96.24,692.66,92.9z"/>
</g>
<g>
	<path class="st0" d="M623.46,108.25c0-3.34,2.79-6.05,6.24-6.05c3.46,0,6.25,2.71,6.25,6.05c0,3.34-2.79,6.04-6.25,6.04
		C626.26,114.29,623.46,111.58,623.46,108.25z"/>
</g>
<g>
	<path class="st0" d="M692.66,108.25c0-3.34,2.79-6.05,6.25-6.05c3.45,0,6.24,2.71,6.24,6.05c0,3.34-2.79,6.04-6.24,6.04
		C695.46,114.29,692.66,111.58,692.66,108.25z"/>
</g>
<g>
	<g>
		<path class="st1" d="M675.37,77.56c0-3.34,2.8-6.04,6.25-6.04s6.24,2.71,6.24,6.04c0,3.34-2.79,6.04-6.24,6.04
			S675.37,80.9,675.37,77.56z"/>
	</g>
	<g>
		<path class="st1" d="M658.06,92.9c0-3.34,2.8-6.04,6.25-6.04s6.25,2.71,6.25,6.04s-2.81,6.04-6.25,6.04S658.06,96.24,658.06,92.9z
			"/>
	</g>
	<g>
		<path class="st1" d="M675.37,92.9c0-3.34,2.8-6.04,6.25-6.04s6.24,2.71,6.24,6.04s-2.79,6.04-6.24,6.04S675.37,96.24,675.37,92.9z
			"/>
	</g>
	<g>
		<path class="st1" d="M640.77,108.25c0-3.34,2.79-6.05,6.24-6.05s6.25,2.71,6.25,6.05c0,3.34-2.81,6.04-6.25,6.04
			C643.56,114.29,640.77,111.58,640.77,108.25z"/>
	</g>
	<g>
		<path class="st1" d="M658.06,108.25c0-3.34,2.8-6.05,6.25-6.05s6.25,2.71,6.25,6.05c0,3.34-2.81,6.04-6.25,6.04
			C660.86,114.29,658.06,111.58,658.06,108.25z"/>
	</g>
	<g>
		<path class="st1" d="M675.37,108.25c0-3.34,2.8-6.05,6.25-6.05s6.24,2.71,6.24,6.05c0,3.34-2.79,6.04-6.24,6.04
			S675.37,111.58,675.37,108.25z"/>
	</g>
	<g>
		<path class="st1" d="M623.46,123.58c0-3.34,2.79-6.04,6.24-6.04c3.46,0,6.25,2.71,6.25,6.04c0,3.34-2.79,6.04-6.25,6.04
			C626.26,129.62,623.46,126.91,623.46,123.58z"/>
	</g>
	<g>
		<path class="st1" d="M640.77,123.58c0-3.34,2.79-6.04,6.24-6.04s6.25,2.71,6.25,6.04c0,3.34-2.81,6.04-6.25,6.04
			C643.56,129.62,640.77,126.91,640.77,123.58z"/>
	</g>
	<g>
		<path class="st1" d="M658.06,123.58c0-3.34,2.8-6.04,6.25-6.04s6.25,2.71,6.25,6.04c0,3.34-2.81,6.04-6.25,6.04
			C660.86,129.62,658.06,126.91,658.06,123.58z"/>
	</g>
	<g>
		<path class="st1" d="M675.37,123.58c0-3.34,2.8-6.04,6.25-6.04s6.24,2.71,6.24,6.04c0,3.34-2.79,6.04-6.24,6.04
			S675.37,126.91,675.37,123.58z"/>
	</g>
	<g>
		<path class="st1" d="M692.66,123.58c0-3.34,2.79-6.04,6.25-6.04c3.45,0,6.24,2.71,6.24,6.04c0,3.34-2.79,6.04-6.24,6.04
			C695.46,129.62,692.66,126.91,692.66,123.58z"/>
	</g>
	<g>
		<path class="st1" d="M623.46,138.92c0-3.34,2.79-6.05,6.24-6.05c3.46,0,6.25,2.71,6.25,6.05c0,3.34-2.79,6.04-6.25,6.04
			C626.26,144.96,623.46,142.26,623.46,138.92z"/>
	</g>
	<g>
		<path class="st1" d="M640.77,138.92c0-3.34,2.79-6.05,6.24-6.05s6.25,2.71,6.25,6.05c0,3.34-2.81,6.04-6.25,6.04
			S640.77,142.26,640.77,138.92z"/>
	</g>
	<g>
		<path class="st1" d="M658.06,138.92c0-3.34,2.8-6.05,6.25-6.05s6.25,2.71,6.25,6.05c0,3.34-2.81,6.04-6.25,6.04
			S658.06,142.26,658.06,138.92z"/>
	</g>
	<g>
		<path class="st1" d="M675.37,138.92c0-3.34,2.8-6.05,6.25-6.05s6.24,2.71,6.24,6.05c0,3.34-2.79,6.04-6.24,6.04
			S675.37,142.26,675.37,138.92z"/>
	</g>
	<g>
		<path class="st1" d="M692.66,138.92c0-3.34,2.79-6.05,6.25-6.05c3.45,0,6.24,2.71,6.24,6.05c0,3.34-2.79,6.04-6.24,6.04
			C695.46,144.96,692.66,142.26,692.66,138.92z"/>
	</g>
	<g>
		<path class="st1" d="M623.46,154.25c0-3.34,2.79-6.04,6.24-6.04c3.46,0,6.25,2.71,6.25,6.04c0,3.34-2.79,6.04-6.25,6.04
			C626.26,160.29,623.46,157.59,623.46,154.25z"/>
	</g>
	<g>
		<path class="st1" d="M640.77,154.25c0-3.34,2.79-6.04,6.24-6.04s6.25,2.71,6.25,6.04c0,3.34-2.81,6.04-6.25,6.04
			C643.56,160.29,640.77,157.59,640.77,154.25z"/>
	</g>
	<g>
		<path class="st1" d="M658.06,154.25c0-3.34,2.8-6.04,6.25-6.04s6.25,2.71,6.25,6.04c0,3.34-2.81,6.04-6.25,6.04
			C660.86,160.29,658.06,157.59,658.06,154.25z"/>
	</g>
	<g>
		<path class="st1" d="M675.37,154.25c0-3.34,2.8-6.04,6.25-6.04s6.24,2.71,6.24,6.04c0,3.34-2.79,6.04-6.24,6.04
			S675.37,157.59,675.37,154.25z"/>
	</g>
	<g>
		<path class="st1" d="M692.66,154.25c0-3.34,2.79-6.04,6.25-6.04c3.45,0,6.24,2.71,6.24,6.04c0,3.34-2.79,6.04-6.24,6.04
			C695.46,160.29,692.66,157.59,692.66,154.25z"/>
	</g>
</g>
</svg>
