<?xml version="1.0" encoding="utf-8"?>
<!-- Generator: Adobe Illustrator 24.2.3, SVG Export Plug-In . SVG Version: 6.00 Build 0)  -->
<svg version="1.1" id="Layer_1" xmlns="http://www.w3.org/2000/svg" xmlns:xlink="http://www.w3.org/1999/xlink" x="0px" y="0px"
	 viewBox="0 0 725 320" style="enable-background:new 0 0 725 320;" xml:space="preserve">
<style type="text/css">
	.st0{fill:#186572;}
	.st1{fill:#BADDE2;}
</style>
<g>
	<g>
		<g>
			<polygon class="st0" points="66.81,47.78 36.98,47.78 36.98,47.78 27.04,47.78 27.04,57.75 36.98,57.75 36.98,77.64 36.98,86.75 
				36.98,107.46 46.93,107.46 46.93,86.75 56.87,86.75 56.87,107.46 66.81,107.46 66.81,86.75 66.81,77.64 66.81,57.75 76.76,57.75 
				76.76,47.78 			"/>
		</g>
		<g>
			<path class="st0" d="M52.72,42.82c4.58,0,8.29-3.72,8.29-8.3c0-4.58-3.71-8.29-8.29-8.29c-4.57,0-8.28,3.7-8.28,8.29
				C44.44,39.09,48.15,42.82,52.72,42.82z"/>
		</g>
	</g>
	<g>
		<g>
			<polygon class="st0" points="129.86,47.78 100.03,47.78 100.03,47.78 90.07,47.78 90.07,57.75 100.03,57.75 100.03,77.64 
				100.03,86.75 100.03,107.46 109.97,107.46 109.97,86.75 119.92,86.75 119.92,107.46 129.86,107.46 129.86,86.75 129.86,77.64 
				129.86,57.75 139.82,57.75 139.82,47.78 			"/>
		</g>
		<g>
			<path class="st0" d="M115.78,42.82c4.56,0,8.28-3.72,8.28-8.3c0-4.58-3.72-8.29-8.28-8.29c-4.59,0-8.29,3.7-8.29,8.29
				C107.49,39.09,111.19,42.82,115.78,42.82z"/>
		</g>
	</g>
	<g>
		<g>
			<polygon class="st0" points="192.92,47.78 163.06,47.78 163.06,47.78 153.11,47.78 153.11,57.75 163.06,57.75 163.06,77.64 
				163.06,86.75 163.06,107.46 173.02,107.46 173.02,86.75 182.96,86.75 182.96,107.46 192.92,107.46 192.92,86.75 192.92,77.64 
				192.92,57.75 202.86,57.75 202.86,47.78 			"/>
		</g>
		<g>
			<path class="st0" d="M178.83,42.82c4.58,0,8.28-3.72,8.28-8.3c0-4.58-3.7-8.29-8.28-8.29c-4.59,0-8.29,3.7-8.29,8.29
				C170.54,39.09,174.24,42.82,178.83,42.82z"/>
		</g>
	</g>
	<g>
		<g>
			<polygon class="st0" points="255.96,47.78 226.13,47.78 226.13,47.78 216.17,47.78 216.17,57.75 226.13,57.75 226.13,77.64 
				226.13,86.75 226.13,107.46 236.07,107.46 236.07,86.75 246,86.75 246,107.46 255.96,107.46 255.96,86.75 255.96,77.64 
				255.96,57.75 265.89,57.75 265.89,47.78 			"/>
		</g>
		<g>
			<path class="st0" d="M241.86,42.82c4.59,0,8.29-3.72,8.29-8.3c0-4.58-3.69-8.29-8.29-8.29c-4.57,0-8.29,3.7-8.29,8.29
				C233.57,39.09,237.29,42.82,241.86,42.82z"/>
		</g>
	</g>
	<g>
		<g>
			<polygon class="st0" points="319.01,47.78 289.17,47.78 289.17,47.78 279.24,47.78 279.24,57.75 289.17,57.75 289.17,77.64 
				289.17,86.75 289.17,107.46 299.13,107.46 299.13,86.75 309.06,86.75 309.06,107.46 319.01,107.46 319.01,86.75 319.01,77.64 
				319.01,57.75 328.95,57.75 328.95,47.78 			"/>
		</g>
		<g>
			<path class="st0" d="M304.92,42.82c4.58,0,8.29-3.72,8.29-8.3c0-4.58-3.71-8.29-8.29-8.29c-4.57,0-8.28,3.7-8.28,8.29
				C296.64,39.09,300.34,42.82,304.92,42.82z"/>
		</g>
	</g>
</g>
<g>
	<g>
		<polygon class="st1" points="382.06,47.78 352.21,47.78 352.21,47.78 342.28,47.78 342.28,57.75 352.21,57.75 352.21,77.64 
			352.21,86.75 352.21,107.46 362.17,107.46 362.17,86.75 372.12,86.75 372.12,107.46 382.06,107.46 382.06,86.75 382.06,77.64 
			382.06,57.75 392.01,57.75 392.01,47.78 		"/>
	</g>
	<g>
		<path class="st1" d="M367.98,42.82c4.56,0,8.29-3.72,8.29-8.3c0-4.58-3.72-8.29-8.29-8.29c-4.59,0-8.3,3.7-8.3,8.29
			C359.68,39.09,363.39,42.82,367.98,42.82z"/>
	</g>
</g>
<g>
	<g>
		<polygon class="st1" points="445.12,47.78 415.26,47.78 415.26,47.78 405.31,47.78 405.31,57.75 415.26,57.75 415.26,77.64 
			415.26,86.75 415.26,107.46 425.21,107.46 425.21,86.75 435.16,86.75 435.16,107.46 445.12,107.46 445.12,86.75 445.12,77.64 
			445.12,57.75 455.06,57.75 455.06,47.78 		"/>
	</g>
	<g>
		<path class="st1" d="M431.01,42.82c4.59,0,8.29-3.72,8.29-8.3c0-4.58-3.7-8.29-8.29-8.29c-4.58,0-8.28,3.7-8.28,8.29
			C422.74,39.09,426.44,42.82,431.01,42.82z"/>
	</g>
</g>
<g>
	<g>
		<polygon class="st1" points="508.15,47.78 478.32,47.78 478.32,47.78 468.37,47.78 468.37,57.75 478.32,57.75 478.32,77.64 
			478.32,86.75 478.32,107.46 488.26,107.46 488.26,86.75 498.2,86.75 498.2,107.46 508.15,107.46 508.15,86.75 508.15,77.64 
			508.15,57.75 518.1,57.75 518.1,47.78 		"/>
	</g>
	<g>
		<path class="st1" d="M494.06,42.82c4.59,0,8.28-3.72,8.28-8.3c0-4.58-3.69-8.29-8.28-8.29c-4.57,0-8.29,3.7-8.29,8.29
			C485.78,39.09,489.49,42.82,494.06,42.82z"/>
	</g>
</g>
<g>
	<g>
		<polygon class="st1" points="571.2,47.78 541.38,47.78 541.38,47.78 531.42,47.78 531.42,57.75 541.38,57.75 541.38,77.64 
			541.38,86.75 541.38,107.46 551.33,107.46 551.33,86.75 561.26,86.75 561.26,107.46 571.2,107.46 571.2,86.75 571.2,77.64 
			571.2,57.75 581.16,57.75 581.16,47.78 		"/>
	</g>
	<g>
		<path class="st1" d="M557.12,42.82c4.57,0,8.29-3.72,8.29-8.3c0-4.58-3.71-8.29-8.29-8.29c-4.58,0-8.29,3.7-8.29,8.29
			C548.83,39.09,552.53,42.82,557.12,42.82z"/>
	</g>
</g>
<g>
	<g>
		<g>
			<polygon class="st0" points="66.81,137.56 36.98,137.56 36.98,137.56 27.04,137.56 27.04,147.52 36.98,147.52 36.98,167.4 
				36.98,176.52 36.98,197.24 46.93,197.24 46.93,176.52 56.87,176.52 56.87,197.24 66.81,197.24 66.81,176.52 66.81,167.4 
				66.81,147.52 76.76,147.52 76.76,137.56 			"/>
		</g>
		<g>
			<path class="st0" d="M52.72,132.57c4.58,0,8.29-3.69,8.29-8.28c0-4.58-3.71-8.29-8.29-8.29c-4.57,0-8.28,3.7-8.28,8.29
				C44.44,128.88,48.15,132.57,52.72,132.57z"/>
		</g>
	</g>
	<g>
		<g>
			<polygon class="st0" points="129.86,137.56 100.03,137.56 100.03,137.56 90.07,137.56 90.07,147.52 100.03,147.52 100.03,167.4 
				100.03,176.52 100.03,197.24 109.97,197.24 109.97,176.52 119.92,176.52 119.92,197.24 129.86,197.24 129.86,176.52 
				129.86,167.4 129.86,147.52 139.82,147.52 139.82,137.56 			"/>
		</g>
		<g>
			<path class="st0" d="M115.78,132.57c4.56,0,8.28-3.69,8.28-8.28c0-4.58-3.72-8.29-8.28-8.29c-4.59,0-8.29,3.7-8.29,8.29
				C107.49,128.88,111.19,132.57,115.78,132.57z"/>
		</g>
	</g>
	<g>
		<g>
			<polygon class="st0" points="192.92,137.56 163.06,137.56 163.06,137.56 153.11,137.56 153.11,147.52 163.06,147.52 
				163.06,167.4 163.06,176.52 163.06,197.24 173.02,197.24 173.02,176.52 182.96,176.52 182.96,197.24 192.92,197.24 
				192.92,176.52 192.92,167.4 192.92,147.52 202.86,147.52 202.86,137.56 			"/>
		</g>
		<g>
			<path class="st0" d="M178.83,132.57c4.58,0,8.28-3.69,8.28-8.28c0-4.58-3.7-8.29-8.28-8.29c-4.59,0-8.29,3.7-8.29,8.29
				C170.54,128.88,174.24,132.57,178.83,132.57z"/>
		</g>
	</g>
	<g>
		<g>
			<polygon class="st0" points="255.96,137.56 226.13,137.56 226.13,137.56 216.17,137.56 216.17,147.52 226.13,147.52 
				226.13,167.4 226.13,176.52 226.13,197.24 236.07,197.24 236.07,176.52 246,176.52 246,197.24 255.96,197.24 255.96,176.52 
				255.96,167.4 255.96,147.52 265.89,147.52 265.89,137.56 			"/>
		</g>
		<g>
			<path class="st0" d="M241.86,132.57c4.59,0,8.29-3.69,8.29-8.28c0-4.58-3.69-8.29-8.29-8.29c-4.57,0-8.29,3.7-8.29,8.29
				C233.57,128.88,237.29,132.57,241.86,132.57z"/>
		</g>
	</g>
	<g>
		<g>
			<polygon class="st0" points="319.01,137.56 289.17,137.56 289.17,137.56 279.24,137.56 279.24,147.52 289.17,147.52 
				289.17,167.4 289.17,176.52 289.17,197.24 299.13,197.24 299.13,176.52 309.06,176.52 309.06,197.24 319.01,197.24 
				319.01,176.52 319.01,167.4 319.01,147.52 328.95,147.52 328.95,137.56 			"/>
		</g>
		<g>
			<path class="st0" d="M304.92,132.57c4.58,0,8.29-3.69,8.29-8.28c0-4.58-3.71-8.29-8.29-8.29c-4.57,0-8.28,3.7-8.28,8.29
				C296.64,128.88,300.34,132.57,304.92,132.57z"/>
		</g>
	</g>
	<g>
		<g>
			<polygon class="st0" points="382.06,137.56 352.21,137.56 352.21,137.56 342.28,137.56 342.28,147.52 352.21,147.52 
				352.21,167.4 352.21,176.52 352.21,197.24 362.17,197.24 362.17,176.52 372.12,176.52 372.12,197.24 382.06,197.24 
				382.06,176.52 382.06,167.4 382.06,147.52 392.01,147.52 392.01,137.56 			"/>
		</g>
		<g>
			<path class="st0" d="M367.98,132.57c4.56,0,8.29-3.69,8.29-8.28c0-4.58-3.72-8.29-8.29-8.29c-4.59,0-8.3,3.7-8.3,8.29
				C359.68,128.88,363.39,132.57,367.98,132.57z"/>
		</g>
	</g>
	<g>
		<g>
			<polygon class="st0" points="445.12,137.56 415.26,137.56 415.26,137.56 405.31,137.56 405.31,147.52 415.26,147.52 
				415.26,167.4 415.26,176.52 415.26,197.24 425.21,197.24 425.21,176.52 435.16,176.52 435.16,197.24 445.12,197.24 
				445.12,176.52 445.12,167.4 445.12,147.52 455.06,147.52 455.06,137.56 			"/>
		</g>
		<g>
			<path class="st0" d="M431.01,132.57c4.59,0,8.29-3.69,8.29-8.28c0-4.58-3.7-8.29-8.29-8.29c-4.58,0-8.28,3.7-8.28,8.29
				C422.74,128.88,426.44,132.57,431.01,132.57z"/>
		</g>
	</g>
</g>
<g>
	<g>
		<polygon class="st1" points="508.15,137.56 478.32,137.56 478.32,137.56 468.37,137.56 468.37,147.52 478.32,147.52 478.32,167.4 
			478.32,176.52 478.32,197.24 488.26,197.24 488.26,176.52 498.2,176.52 498.2,197.24 508.15,197.24 508.15,176.52 508.15,167.4 
			508.15,147.52 518.1,147.52 518.1,137.56 		"/>
	</g>
	<g>
		<path class="st1" d="M494.06,132.57c4.59,0,8.28-3.69,8.28-8.28c0-4.58-3.69-8.29-8.28-8.29c-4.57,0-8.29,3.7-8.29,8.29
			C485.78,128.88,489.49,132.57,494.06,132.57z"/>
	</g>
</g>
<g>
	<g>
		<polygon class="st1" points="571.2,137.56 541.38,137.56 541.38,137.56 531.42,137.56 531.42,147.52 541.38,147.52 541.38,167.4 
			541.38,176.52 541.38,197.24 551.33,197.24 551.33,176.52 561.26,176.52 561.26,197.24 571.2,197.24 571.2,176.52 571.2,167.4 
			571.2,147.52 581.16,147.52 581.16,137.56 		"/>
	</g>
	<g>
		<path class="st1" d="M557.12,132.57c4.57,0,8.29-3.69,8.29-8.28c0-4.58-3.71-8.29-8.29-8.29c-4.58,0-8.29,3.7-8.29,8.29
			C548.83,128.88,552.53,132.57,557.12,132.57z"/>
	</g>
</g>
<g>
	<g>
		<g>
			<polygon class="st0" points="66.81,227.33 36.98,227.33 36.98,227.33 27.04,227.33 27.04,237.28 36.98,237.28 36.98,257.17 
				36.98,266.3 36.98,287 46.93,287 46.93,266.3 56.87,266.3 56.87,287 66.81,287 66.81,266.3 66.81,257.17 66.81,237.28 
				76.76,237.28 76.76,227.33 			"/>
		</g>
		<g>
			<path class="st0" d="M52.72,222.36c4.58,0,8.29-3.7,8.29-8.29c0-4.58-3.71-8.29-8.29-8.29c-4.57,0-8.28,3.7-8.28,8.29
				C44.44,218.65,48.15,222.36,52.72,222.36z"/>
		</g>
	</g>
	<g>
		<g>
			<polygon class="st0" points="129.86,227.33 100.03,227.33 100.03,227.33 90.07,227.33 90.07,237.28 100.03,237.28 100.03,257.17 
				100.03,266.3 100.03,287 109.97,287 109.97,266.3 119.92,266.3 119.92,287 129.86,287 129.86,266.3 129.86,257.17 129.86,237.28 
				139.82,237.28 139.82,227.33 			"/>
		</g>
		<g>
			<path class="st0" d="M115.78,222.36c4.56,0,8.28-3.7,8.28-8.29c0-4.58-3.72-8.29-8.28-8.29c-4.59,0-8.29,3.7-8.29,8.29
				C107.49,218.65,111.19,222.36,115.78,222.36z"/>
		</g>
	</g>
	<g>
		<g>
			<polygon class="st0" points="192.92,227.33 163.06,227.33 163.06,227.33 153.11,227.33 153.11,237.28 163.06,237.28 
				163.06,257.17 163.06,266.3 163.06,287 173.02,287 173.02,266.3 182.96,266.3 182.96,287 192.92,287 192.92,266.3 192.92,257.17 
				192.92,237.28 202.86,237.28 202.86,227.33 			"/>
		</g>
		<g>
			<path class="st0" d="M178.83,222.36c4.58,0,8.28-3.7,8.28-8.29c0-4.58-3.7-8.29-8.28-8.29c-4.59,0-8.29,3.7-8.29,8.29
				C170.54,218.65,174.24,222.36,178.83,222.36z"/>
		</g>
	</g>
</g>
<g>
	<g>
		<polygon class="st1" points="255.96,227.33 226.13,227.33 226.13,227.33 216.17,227.33 216.17,237.28 226.13,237.28 
			226.13,257.17 226.13,266.3 226.13,287 236.07,287 236.07,266.3 246,266.3 246,287 255.96,287 255.96,266.3 255.96,257.17 
			255.96,237.28 265.89,237.28 265.89,227.33 		"/>
	</g>
	<g>
		<path class="st1" d="M241.86,222.36c4.59,0,8.29-3.7,8.29-8.29c0-4.58-3.69-8.29-8.29-8.29c-4.57,0-8.29,3.7-8.29,8.29
			C233.57,218.65,237.29,222.36,241.86,222.36z"/>
	</g>
</g>
<g>
	<g>
		<polygon class="st1" points="319.01,227.33 289.17,227.33 289.17,227.33 279.24,227.33 279.24,237.28 289.17,237.28 
			289.17,257.17 289.17,266.3 289.17,287 299.13,287 299.13,266.3 309.06,266.3 309.06,287 319.01,287 319.01,266.3 319.01,257.17 
			319.01,237.28 328.95,237.28 328.95,227.33 		"/>
	</g>
	<g>
		<path class="st1" d="M304.92,222.36c4.58,0,8.29-3.7,8.29-8.29c0-4.58-3.71-8.29-8.29-8.29c-4.57,0-8.28,3.7-8.28,8.29
			C296.64,218.65,300.34,222.36,304.92,222.36z"/>
	</g>
</g>
<g>
	<g>
		<polygon class="st1" points="382.06,227.33 352.21,227.33 352.21,227.33 342.28,227.33 342.28,237.28 352.21,237.28 
			352.21,257.17 352.21,266.3 352.21,287 362.17,287 362.17,266.3 372.12,266.3 372.12,287 382.06,287 382.06,266.3 382.06,257.17 
			382.06,237.28 392.01,237.28 392.01,227.33 		"/>
	</g>
	<g>
		<path class="st1" d="M367.98,222.36c4.56,0,8.29-3.7,8.29-8.29c0-4.58-3.72-8.29-8.29-8.29c-4.59,0-8.3,3.7-8.3,8.29
			C359.68,218.65,363.39,222.36,367.98,222.36z"/>
	</g>
</g>
<g>
	<g>
		<polygon class="st1" points="445.12,227.33 415.26,227.33 415.26,227.33 405.31,227.33 405.31,237.28 415.26,237.28 
			415.26,257.17 415.26,266.3 415.26,287 425.21,287 425.21,266.3 435.16,266.3 435.16,287 445.12,287 445.12,266.3 445.12,257.17 
			445.12,237.28 455.06,237.28 455.06,227.33 		"/>
	</g>
	<g>
		<path class="st1" d="M431.01,222.36c4.59,0,8.29-3.7,8.29-8.29c0-4.58-3.7-8.29-8.29-8.29c-4.58,0-8.28,3.7-8.28,8.29
			C422.74,218.65,426.44,222.36,431.01,222.36z"/>
	</g>
</g>
<g>
	<g>
		<polygon class="st1" points="508.15,227.33 478.32,227.33 478.32,227.33 468.37,227.33 468.37,237.28 478.32,237.28 
			478.32,257.17 478.32,266.3 478.32,287 488.26,287 488.26,266.3 498.2,266.3 498.2,287 508.15,287 508.15,266.3 508.15,257.17 
			508.15,237.28 518.1,237.28 518.1,227.33 		"/>
	</g>
	<g>
		<path class="st1" d="M494.06,222.36c4.59,0,8.28-3.7,8.28-8.29c0-4.58-3.69-8.29-8.28-8.29c-4.57,0-8.29,3.7-8.29,8.29
			C485.78,218.65,489.49,222.36,494.06,222.36z"/>
	</g>
</g>
<g>
	<g>
		<polygon class="st1" points="571.2,227.33 541.38,227.33 541.38,227.33 531.42,227.33 531.42,237.28 541.38,237.28 541.38,257.17 
			541.38,266.3 541.38,287 551.33,287 551.33,266.3 561.26,266.3 561.26,287 571.2,287 571.2,266.3 571.2,257.17 571.2,237.28 
			581.16,237.28 581.16,227.33 		"/>
	</g>
	<g>
		<path class="st1" d="M557.12,222.36c4.57,0,8.29-3.7,8.29-8.29c0-4.58-3.71-8.29-8.29-8.29c-4.58,0-8.29,3.7-8.29,8.29
			C548.83,218.65,552.53,222.36,557.12,222.36z"/>
	</g>
</g>
</svg>
