<?xml version="1.0" encoding="utf-8"?>
<!-- Generator: Adobe Illustrator 24.3.0, SVG Export Plug-In . SVG Version: 6.00 Build 0)  -->
<svg version="1.1" id="Layer_1" xmlns="http://www.w3.org/2000/svg" xmlns:xlink="http://www.w3.org/1999/xlink" x="0px" y="0px"
	 viewBox="0 0 353.3 100.25" style="enable-background:new 0 0 353.3 100.25;" xml:space="preserve">
<style type="text/css">
	.st0{fill:#213563;}
	.st1{fill:#FFFFFF;}
</style>
<rect x="0.32" y="-0.36" class="st0" width="352.66" height="100.66"/>
<g>
	<path class="st1" d="M107.75,39.28l-0.99-3.24h-4.96l-0.99,3.24H97.7l4.8-13.66h3.53l4.82,13.66H107.75z M106.07,33.62
		c-0.91-2.94-1.43-4.59-1.54-4.98c-0.12-0.38-0.2-0.69-0.25-0.91c-0.2,0.79-0.79,2.76-1.76,5.89H106.07z"/>
	<path class="st1" d="M121.95,39.28h-2.84V33.2c0-0.75-0.13-1.31-0.4-1.69c-0.27-0.38-0.69-0.56-1.28-0.56
		c-0.79,0-1.37,0.27-1.72,0.8s-0.53,1.41-0.53,2.64v4.9h-2.84V28.88h2.17l0.38,1.33h0.16c0.32-0.5,0.75-0.88,1.31-1.14
		s1.19-0.39,1.89-0.39c1.21,0,2.13,0.33,2.75,0.98c0.63,0.65,0.94,1.6,0.94,2.83L121.95,39.28L121.95,39.28z"/>
	<path class="st1" d="M134.48,39.28h-2.84V33.2c0-0.75-0.13-1.31-0.4-1.69c-0.27-0.38-0.69-0.56-1.28-0.56
		c-0.79,0-1.37,0.27-1.72,0.8c-0.35,0.53-0.53,1.41-0.53,2.64v4.9h-2.84V28.88h2.17l0.38,1.33h0.16c0.32-0.5,0.75-0.88,1.31-1.14
		s1.19-0.39,1.89-0.39c1.21,0,2.13,0.33,2.75,0.98c0.63,0.65,0.94,1.6,0.94,2.83L134.48,39.28L134.48,39.28z"/>
	<path class="st1" d="M146.86,34.06c0,1.69-0.45,3.02-1.34,3.97s-2.14,1.43-3.73,1.43c-1,0-1.88-0.22-2.64-0.66
		s-1.35-1.07-1.76-1.88c-0.41-0.82-0.61-1.77-0.61-2.87c0-1.7,0.44-3.02,1.33-3.97c0.89-0.94,2.13-1.41,3.74-1.41
		c1,0,1.88,0.22,2.64,0.65s1.35,1.06,1.76,1.87S146.86,32.97,146.86,34.06z M139.66,34.06c0,1.03,0.17,1.81,0.51,2.34
		s0.89,0.79,1.65,0.79c0.76,0,1.3-0.26,1.63-0.79c0.33-0.52,0.5-1.3,0.5-2.34c0-1.03-0.17-1.8-0.5-2.32
		c-0.33-0.51-0.88-0.77-1.65-0.77c-0.76,0-1.3,0.26-1.64,0.77C139.83,32.25,139.66,33.02,139.66,34.06z"/>
	<path class="st1" d="M156.58,39.28l-0.38-1.33h-0.15c-0.3,0.48-0.74,0.86-1.29,1.12c-0.56,0.26-1.19,0.4-1.91,0.4
		c-1.22,0-2.14-0.33-2.76-0.98c-0.62-0.65-0.93-1.6-0.93-2.82v-6.79H152v6.08c0,0.75,0.13,1.31,0.4,1.69s0.69,0.56,1.27,0.56
		c0.79,0,1.37-0.27,1.72-0.8s0.53-1.41,0.53-2.64v-4.9h2.84v10.41L156.58,39.28L156.58,39.28z"/>
	<path class="st1" d="M171.34,39.28h-2.84V33.2c0-0.75-0.13-1.31-0.4-1.69s-0.69-0.56-1.28-0.56c-0.79,0-1.37,0.27-1.72,0.8
		s-0.53,1.41-0.53,2.64v4.9h-2.84V28.88h2.17l0.38,1.33h0.16c0.32-0.5,0.75-0.88,1.31-1.14s1.19-0.39,1.89-0.39
		c1.21,0,2.13,0.33,2.75,0.98c0.63,0.65,0.94,1.6,0.94,2.83L171.34,39.28L171.34,39.28z"/>
	<path class="st1" d="M178.49,39.47c-3.24,0-4.86-1.78-4.86-5.33c0-1.77,0.44-3.12,1.32-4.05s2.14-1.4,3.79-1.4
		c1.2,0,2.28,0.24,3.24,0.71l-0.84,2.2c-0.45-0.18-0.86-0.33-1.25-0.44s-0.77-0.17-1.15-0.17c-1.48,0-2.21,1.05-2.21,3.15
		c0,2.04,0.74,3.05,2.21,3.05c0.55,0,1.05-0.07,1.52-0.22s0.93-0.37,1.4-0.68v2.43c-0.46,0.29-0.92,0.49-1.39,0.6
		S179.2,39.47,178.49,39.47z"/>
	<path class="st1" d="M183.94,26.19c0-0.92,0.51-1.39,1.54-1.39s1.54,0.46,1.54,1.39c0,0.44-0.13,0.78-0.39,1.03
		s-0.64,0.37-1.16,0.37C184.45,27.58,183.94,27.12,183.94,26.19z M186.9,39.28h-2.84V28.87h2.84V39.28z"/>
	<path class="st1" d="M199.48,39.28h-2.84V33.2c0-0.75-0.13-1.31-0.4-1.69s-0.69-0.56-1.28-0.56c-0.79,0-1.37,0.27-1.72,0.8
		s-0.53,1.41-0.53,2.64v4.9h-2.84V28.88h2.17l0.38,1.33h0.16c0.32-0.5,0.75-0.88,1.31-1.14c0.55-0.26,1.19-0.39,1.89-0.39
		c1.21,0,2.13,0.33,2.75,0.98s0.94,1.6,0.94,2.83L199.48,39.28L199.48,39.28z"/>
	<path class="st1" d="M211.46,28.88v1.44l-1.63,0.42c0.3,0.47,0.45,0.99,0.45,1.56c0,1.12-0.39,1.99-1.17,2.61s-1.86,0.94-3.24,0.94
		l-0.51-0.03l-0.42-0.05c-0.29,0.22-0.44,0.47-0.44,0.74c0,0.41,0.52,0.61,1.56,0.61h1.77c1.14,0,2.01,0.25,2.61,0.74
		c0.6,0.49,0.9,1.21,0.9,2.16c0,1.22-0.51,2.16-1.52,2.83c-1.01,0.67-2.47,1-4.37,1c-1.45,0-2.56-0.25-3.33-0.76
		s-1.15-1.21-1.15-2.13c0-0.63,0.2-1.15,0.59-1.57c0.39-0.42,0.96-0.72,1.72-0.9c-0.29-0.12-0.55-0.33-0.76-0.61
		c-0.22-0.28-0.33-0.58-0.33-0.9c0-0.4,0.12-0.73,0.34-0.99s0.56-0.52,1-0.78c-0.55-0.24-0.98-0.61-1.3-1.14
		c-0.32-0.52-0.48-1.14-0.48-1.84c0-1.14,0.37-2.01,1.11-2.63s1.79-0.93,3.16-0.93c0.29,0,0.64,0.03,1.04,0.08s0.66,0.09,0.77,0.12
		h3.63V28.88z M203.43,40.75c0,0.39,0.19,0.7,0.56,0.92c0.38,0.22,0.9,0.33,1.58,0.33c1.02,0,1.82-0.14,2.39-0.42
		c0.58-0.28,0.87-0.66,0.87-1.14c0-0.39-0.17-0.66-0.51-0.81s-0.87-0.22-1.58-0.22h-1.47c-0.52,0-0.96,0.12-1.31,0.37
		C203.6,40.02,203.43,40.35,203.43,40.75z M204.46,32.28c0,0.56,0.13,1.01,0.39,1.34s0.65,0.49,1.18,0.49s0.92-0.16,1.17-0.49
		s0.37-0.78,0.37-1.34c0-1.25-0.51-1.88-1.54-1.88C204.98,30.4,204.46,31.03,204.46,32.28z"/>
	<path class="st1" d="M221.19,39.28h-2.84V25.67h7.8v2.36h-4.96v3.51h4.62v2.35h-4.62V39.28z"/>
	<path class="st1" d="M236.84,35.5c0,1.23-0.44,2.2-1.33,2.9c-0.88,0.71-2.11,1.06-3.69,1.06c-1.45,0-2.74-0.27-3.85-0.82v-2.68
		c0.92,0.41,1.7,0.7,2.33,0.87s1.22,0.25,1.75,0.25c0.63,0,1.12-0.12,1.46-0.36s0.51-0.6,0.51-1.08c0-0.27-0.07-0.5-0.22-0.71
		s-0.37-0.41-0.66-0.6s-0.88-0.5-1.76-0.92c-0.83-0.39-1.46-0.77-1.87-1.13c-0.42-0.36-0.75-0.78-1-1.26s-0.37-1.04-0.37-1.68
		c0-1.2,0.41-2.15,1.22-2.84c0.82-0.69,1.94-1.03,3.38-1.03c0.71,0,1.38,0.08,2.02,0.25c0.64,0.17,1.31,0.4,2.02,0.71l-0.93,2.24
		c-0.73-0.3-1.33-0.51-1.8-0.62s-0.94-0.18-1.4-0.18c-0.55,0-0.96,0.13-1.26,0.38c-0.29,0.25-0.44,0.59-0.44,1
		c0,0.25,0.06,0.48,0.18,0.67s0.3,0.37,0.56,0.55s0.87,0.5,1.83,0.95c1.27,0.61,2.14,1.22,2.62,1.83S236.84,34.61,236.84,35.5z"/>
	<path class="st1" d="M250.6,32.35c0,2.24-0.64,3.96-1.91,5.15s-3.12,1.79-5.52,1.79h-3.85V25.68h4.27c2.22,0,3.95,0.59,5.18,1.76
		S250.6,30.24,250.6,32.35z M247.6,32.42c0-2.92-1.29-4.38-3.87-4.38h-1.54v8.86h1.24C246.21,36.9,247.6,35.41,247.6,32.42z"/>
	<path class="st1" d="M270.44,39.28h-3.67l-5.92-10.29h-0.08c0.12,1.82,0.18,3.11,0.18,3.89v6.4h-2.58V25.67h3.64l5.91,10.19h0.07
		c-0.09-1.77-0.14-3.02-0.14-3.75v-6.44h2.6v13.61H270.44z"/>
	<path class="st1" d="M278.35,39.47c-1.67,0-2.98-0.46-3.93-1.39c-0.94-0.92-1.41-2.23-1.41-3.93c0-1.74,0.44-3.09,1.31-4.04
		s2.08-1.43,3.62-1.43c1.47,0,2.62,0.42,3.43,1.26c0.82,0.84,1.23,2,1.23,3.47v1.38h-6.71c0.03,0.81,0.27,1.44,0.72,1.89
		s1.07,0.68,1.88,0.68c0.63,0,1.22-0.06,1.78-0.2s1.14-0.34,1.75-0.62v2.2c-0.5,0.25-1.03,0.43-1.59,0.55
		C279.85,39.41,279.17,39.47,278.35,39.47z M277.95,30.7c-0.6,0-1.07,0.19-1.42,0.57c-0.34,0.38-0.54,0.92-0.59,1.62h3.98
		c-0.01-0.7-0.2-1.24-0.55-1.62C279.03,30.89,278.55,30.7,277.95,30.7z"/>
	<path class="st1" d="M289.29,37.21c0.5,0,1.09-0.11,1.79-0.33v2.11c-0.71,0.32-1.58,0.47-2.61,0.47c-1.14,0-1.96-0.29-2.48-0.86
		c-0.52-0.57-0.78-1.43-0.78-2.58V31h-1.36v-1.2l1.56-0.95l0.82-2.2h1.81v2.21h2.91v2.13h-2.91v5.02c0,0.4,0.11,0.7,0.34,0.89
		C288.62,37.11,288.92,37.21,289.29,37.21z"/>
	<path class="st1" d="M301.73,39.28l-0.8-3.64l-1.08-4.6h-0.06l-1.9,8.24h-3.05l-2.96-10.41h2.83l1.2,4.61
		c0.19,0.83,0.39,1.96,0.59,3.42h0.06c0.02-0.47,0.13-1.22,0.33-2.24l0.15-0.79l1.28-4.99h3.13l1.22,4.99
		c0.02,0.14,0.06,0.34,0.12,0.6c0.05,0.27,0.1,0.55,0.15,0.85c0.05,0.3,0.09,0.6,0.13,0.88c0.04,0.29,0.06,0.52,0.07,0.69h0.06
		c0.06-0.45,0.16-1.06,0.3-1.84s0.25-1.3,0.31-1.58l1.25-4.61h2.78l-3,10.41L301.73,39.28L301.73,39.28z"/>
	<path class="st1" d="M318.95,34.06c0,1.69-0.45,3.02-1.34,3.97s-2.14,1.43-3.73,1.43c-1,0-1.88-0.22-2.64-0.66
		s-1.35-1.07-1.76-1.88c-0.41-0.82-0.61-1.77-0.61-2.87c0-1.7,0.44-3.02,1.33-3.97c0.89-0.94,2.13-1.41,3.74-1.41
		c1,0,1.88,0.22,2.64,0.65s1.35,1.06,1.76,1.87S318.95,32.97,318.95,34.06z M311.76,34.06c0,1.03,0.17,1.81,0.51,2.34
		s0.89,0.79,1.65,0.79c0.76,0,1.3-0.26,1.63-0.79c0.33-0.52,0.5-1.3,0.5-2.34c0-1.03-0.17-1.8-0.5-2.32
		c-0.33-0.51-0.88-0.77-1.65-0.77c-0.76,0-1.3,0.26-1.64,0.77C311.92,32.25,311.76,33.02,311.76,34.06z"/>
	<path class="st1" d="M327.1,28.68c0.38,0,0.7,0.03,0.96,0.08l-0.21,2.66c-0.23-0.06-0.51-0.09-0.84-0.09
		c-0.91,0-1.61,0.23-2.12,0.7s-0.76,1.12-0.76,1.95v5.3h-2.84V28.87h2.15l0.42,1.75H324c0.32-0.58,0.76-1.05,1.31-1.41
		C325.86,28.86,326.46,28.68,327.1,28.68z"/>
	<path class="st1" d="M332.68,33.62l1.24-1.58l2.91-3.16h3.2l-4.13,4.51l4.38,5.89H337l-3-4.22l-1.22,0.98v3.24h-2.84V24.8h2.84
		v6.46l-0.15,2.36H332.68z"/>
	<path class="st1" d="M108.82,52.79c0,1.46-0.46,2.58-1.37,3.36c-0.92,0.78-2.22,1.16-3.9,1.16h-1.24v4.84h-2.89v-13.6h4.35
		c1.65,0,2.91,0.36,3.76,1.07S108.82,51.38,108.82,52.79z M102.3,54.95h0.95c0.89,0,1.55-0.17,1.99-0.53
		c0.44-0.35,0.66-0.86,0.66-1.53c0-0.68-0.18-1.18-0.55-1.5s-0.95-0.48-1.74-0.48h-1.31V54.95z"/>
	<path class="st1" d="M116.97,51.55c0.38,0,0.7,0.03,0.96,0.08l-0.21,2.66c-0.23-0.06-0.51-0.09-0.84-0.09
		c-0.91,0-1.61,0.23-2.12,0.7S114,56.02,114,56.85v5.3h-2.84v-10.4h2.15l0.42,1.75h0.14c0.32-0.58,0.76-1.05,1.31-1.41
		C115.73,51.73,116.33,51.55,116.97,51.55z"/>
	<path class="st1" d="M124.53,62.34c-1.68,0-2.98-0.46-3.93-1.39c-0.94-0.92-1.41-2.23-1.41-3.93c0-1.74,0.44-3.09,1.31-4.04
		s2.08-1.43,3.62-1.43c1.47,0,2.62,0.42,3.43,1.26c0.82,0.84,1.23,2,1.23,3.47v1.38h-6.71c0.03,0.81,0.27,1.44,0.72,1.89
		s1.07,0.68,1.88,0.68c0.63,0,1.22-0.06,1.78-0.2c0.56-0.13,1.14-0.34,1.75-0.62v2.2c-0.5,0.25-1.03,0.43-1.59,0.55
		C126.03,62.28,125.34,62.34,124.53,62.34z M124.13,53.57c-0.6,0-1.07,0.19-1.41,0.57s-0.54,0.92-0.59,1.62h3.98
		c-0.01-0.7-0.2-1.24-0.55-1.62C125.21,53.76,124.73,53.57,124.13,53.57z"/>
	<path class="st1" d="M138.34,59.07c0,1.07-0.37,1.88-1.11,2.44s-1.85,0.84-3.33,0.84c-0.76,0-1.4-0.05-1.94-0.15
		c-0.53-0.1-1.03-0.25-1.5-0.45V59.4c0.53,0.25,1.12,0.46,1.78,0.62s1.24,0.25,1.75,0.25c1.03,0,1.54-0.3,1.54-0.89
		c0-0.22-0.07-0.41-0.2-0.54c-0.14-0.14-0.37-0.3-0.71-0.48c-0.33-0.18-0.78-0.38-1.34-0.62c-0.8-0.33-1.39-0.65-1.76-0.93
		c-0.38-0.29-0.65-0.61-0.82-0.98c-0.17-0.37-0.26-0.82-0.26-1.36c0-0.92,0.36-1.64,1.07-2.15c0.72-0.51,1.73-0.76,3.05-0.76
		c1.25,0,2.47,0.27,3.66,0.82l-0.86,2.05c-0.52-0.22-1.01-0.41-1.46-0.55c-0.45-0.14-0.92-0.21-1.39-0.21
		c-0.84,0-1.26,0.23-1.26,0.68c0,0.25,0.14,0.48,0.4,0.66c0.27,0.19,0.86,0.46,1.77,0.83c0.81,0.33,1.41,0.64,1.79,0.92
		c0.38,0.29,0.66,0.61,0.84,0.99C138.25,58.11,138.34,58.55,138.34,59.07z"/>
	<path class="st1" d="M147.82,59.07c0,1.07-0.37,1.88-1.11,2.44s-1.85,0.84-3.33,0.84c-0.76,0-1.4-0.05-1.94-0.15
		c-0.53-0.1-1.03-0.25-1.5-0.45V59.4c0.53,0.25,1.12,0.46,1.78,0.62s1.24,0.25,1.75,0.25c1.03,0,1.54-0.3,1.54-0.89
		c0-0.22-0.07-0.41-0.2-0.54c-0.14-0.14-0.37-0.3-0.71-0.48c-0.33-0.18-0.78-0.38-1.34-0.62c-0.8-0.33-1.39-0.65-1.76-0.93
		c-0.38-0.29-0.65-0.61-0.82-0.98c-0.17-0.37-0.26-0.82-0.26-1.36c0-0.92,0.36-1.64,1.07-2.15c0.72-0.51,1.73-0.76,3.05-0.76
		c1.25,0,2.47,0.27,3.66,0.82l-0.86,2.05c-0.52-0.22-1.01-0.41-1.46-0.55c-0.45-0.14-0.92-0.21-1.39-0.21
		c-0.84,0-1.26,0.23-1.26,0.68c0,0.25,0.14,0.48,0.4,0.66c0.27,0.19,0.86,0.46,1.77,0.83c0.81,0.33,1.41,0.64,1.79,0.92
		c0.38,0.29,0.66,0.61,0.84,0.99C147.73,58.11,147.82,58.55,147.82,59.07z"/>
	<path class="st1" d="M154.74,62.34c-1.68,0-2.98-0.46-3.93-1.39c-0.94-0.92-1.41-2.23-1.41-3.93c0-1.74,0.44-3.09,1.31-4.04
		s2.08-1.43,3.62-1.43c1.47,0,2.62,0.42,3.43,1.26c0.82,0.84,1.23,2,1.23,3.47v1.38h-6.71c0.03,0.81,0.27,1.44,0.72,1.89
		s1.07,0.68,1.88,0.68c0.63,0,1.22-0.06,1.78-0.2c0.56-0.13,1.14-0.34,1.75-0.62v2.2c-0.5,0.25-1.03,0.43-1.59,0.55
		C156.24,62.28,155.55,62.34,154.74,62.34z M154.34,53.57c-0.6,0-1.07,0.19-1.41,0.57s-0.54,0.92-0.59,1.62h3.98
		c-0.01-0.7-0.2-1.24-0.55-1.62C155.42,53.76,154.94,53.57,154.34,53.57z"/>
	<path class="st1" d="M167.1,51.55c0.38,0,0.7,0.03,0.96,0.08l-0.21,2.66c-0.23-0.06-0.51-0.09-0.84-0.09
		c-0.91,0-1.61,0.23-2.12,0.7s-0.76,1.12-0.76,1.95v5.3h-2.84v-10.4h2.15l0.42,1.75H164c0.32-0.58,0.76-1.05,1.31-1.41
		S166.46,51.55,167.1,51.55z"/>
</g>
<circle class="st1" cx="46.94" cy="49.04" r="33.03"/>
<path class="st0" d="M33.7,49.7l10.87,9.12c0.48,0.45,1.06,0.74,1.68,0.86l0,0c0.03,0.01,0.05,0.01,0.08,0.01c0.01,0,0.01,0,0.02,0
	c0.02,0,0.04,0.01,0.06,0.01c0.01,0,0.02,0,0.03,0c0.02,0,0.03,0.01,0.05,0.01c0.01,0,0.02,0,0.03,0c0.02,0,0.03,0,0.05,0.01
	c0.01,0,0.03,0,0.04,0s0.03,0,0.04,0s0.03,0,0.04,0s0.03,0,0.04,0s0.03,0,0.04,0s0.03,0,0.04,0s0.03,0,0.04,0s0.03,0,0.04,0
	s0.03,0,0.04,0s0.03,0,0.04,0s0.03,0,0.04,0s0.03,0,0.04,0s0.03,0,0.04,0s0.03,0,0.04,0s0.03,0,0.04,0s0.03,0,0.04,0s0.03,0,0.04,0
	s0.03,0,0.04,0c0.02,0,0.03,0,0.05-0.01c0.01,0,0.02,0,0.03,0c0.02,0,0.03,0,0.05-0.01c0.01,0,0.02,0,0.03,0
	c0.02,0,0.04-0.01,0.06-0.01c0.01,0,0.01,0,0.02,0c0.03,0,0.05-0.01,0.08-0.01l0,0c0.61-0.12,1.2-0.41,1.68-0.86l10.87-9.12
	c1.46-1.22,1.65-3.41,0.43-4.87l0,0c-1.22-1.46-3.41-1.65-4.87-0.43l-5.08,4.26V32.71c0-2.04-1.67-3.7-3.72-3.7l0,0
	c-2.04,0-3.72,1.67-3.72,3.7v15.95l-5.08-4.26c-1.46-1.22-3.65-1.03-4.87,0.43l0,0C32.05,46.29,32.25,48.48,33.7,49.7z"/>
<path class="st0" d="M61.41,63.02L61.41,63.02c0,1.67-1.37,3.04-3.04,3.04H35.51c-1.67,0-3.04-1.37-3.04-3.04l0,0
	c0-1.67,1.37-3.04,3.04-3.04h22.86C60.04,59.98,61.41,61.35,61.41,63.02z"/>
<g>
	<path class="st1" d="M276.55,79.97c0.48-0.08,1.11-0.15,1.91-0.15c0.98,0,1.71,0.23,2.16,0.64c0.42,0.37,0.68,0.93,0.68,1.61
		c0,0.7-0.21,1.25-0.6,1.65c-0.53,0.56-1.38,0.85-2.36,0.85c-0.3,0-0.57-0.01-0.8-0.07v3.09h-1L276.55,79.97L276.55,79.97z
		 M277.55,83.69c0.22,0.06,0.49,0.08,0.82,0.08c1.2,0,1.93-0.58,1.93-1.65c0-1.02-0.72-1.51-1.82-1.51c-0.43,0-0.77,0.03-0.94,0.08
		v3H277.55z"/>
	<path class="st1" d="M282.64,79.98c0.61-0.09,1.33-0.16,2.12-0.16c1.43,0,2.45,0.33,3.12,0.96c0.69,0.63,1.09,1.52,1.09,2.77
		c0,1.26-0.39,2.29-1.11,3c-0.72,0.72-1.91,1.11-3.41,1.11c-0.71,0-1.3-0.03-1.81-0.09V79.98z M283.64,86.81
		c0.25,0.05,0.62,0.06,1.01,0.06c2.13,0,3.28-1.19,3.28-3.27c0.01-1.82-1.02-2.98-3.12-2.98c-0.52,0-0.9,0.05-1.17,0.1V86.81z"/>
	<path class="st1" d="M290.26,79.88h4.15v0.84h-3.16v2.56h2.92v0.82h-2.92v3.49h-1v-7.71H290.26z"/>
	<path class="st1" d="M300.4,79.65c-0.84,1.12-1.44,2.61-1.44,4.68c0,2.04,0.63,3.5,1.44,4.65h-0.79c-0.72-0.95-1.5-2.42-1.5-4.65
		c0.01-2.25,0.78-3.72,1.5-4.68H300.4z"/>
	<path class="st1" d="M305.58,81h-2.84l-0.29,1.91c0.17-0.02,0.33-0.05,0.61-0.05c0.57,0,1.14,0.13,1.6,0.4
		c0.58,0.33,1.06,0.97,1.06,1.91c0,1.45-1.16,2.54-2.77,2.54c-0.81,0-1.5-0.23-1.85-0.46l0.25-0.77c0.31,0.18,0.92,0.41,1.59,0.41
		c0.95,0,1.76-0.62,1.76-1.61c-0.01-0.96-0.65-1.65-2.14-1.65c-0.42,0-0.75,0.05-1.03,0.08l0.48-3.57h3.56V81H305.58z"/>
	<path class="st1" d="M310.12,87.59v-2.03h-3.46V84.9l3.32-4.75h1.09v4.62h1.04v0.79h-1.04v2.03H310.12z M310.12,84.78V82.3
		c0-0.39,0.01-0.78,0.03-1.17h-0.03c-0.23,0.43-0.41,0.76-0.62,1.1l-1.82,2.53v0.02L310.12,84.78L310.12,84.78z"/>
	<path class="st1" d="M313.12,86.44c0.29,0.18,0.95,0.47,1.65,0.47c1.29,0,1.69-0.82,1.68-1.44c-0.01-1.04-0.95-1.49-1.92-1.49
		h-0.56v-0.76h0.56c0.73,0,1.66-0.38,1.66-1.26c0-0.6-0.38-1.12-1.3-1.12c-0.59,0-1.17,0.26-1.49,0.49l-0.26-0.73
		c0.39-0.29,1.14-0.57,1.95-0.57c1.46,0,2.13,0.87,2.13,1.77c0,0.77-0.46,1.42-1.37,1.75v0.02c0.92,0.18,1.66,0.87,1.66,1.91
		c0,1.19-0.93,2.23-2.71,2.23c-0.84,0-1.57-0.26-1.93-0.5L313.12,86.44z"/>
	<path class="st1" d="M321.52,79.88h1v3.72h0.03c0.21-0.3,0.41-0.57,0.61-0.82l2.36-2.9h1.24l-2.79,3.27l3.01,4.44h-1.18l-2.54-3.79
		l-0.74,0.85v2.94h-1V79.88z"/>
	<path class="st1" d="M327.72,79.98c0.43-0.09,1.12-0.16,1.82-0.16c1,0,1.64,0.17,2.12,0.56c0.4,0.3,0.64,0.76,0.64,1.36
		c0,0.74-0.49,1.4-1.3,1.69v0.02c0.73,0.18,1.59,0.79,1.59,1.93c0,0.66-0.26,1.17-0.65,1.54c-0.54,0.49-1.41,0.72-2.67,0.72
		c-0.69,0-1.21-0.05-1.54-0.09v-7.57H327.72z M328.72,83.14h0.9c1.05,0,1.67-0.55,1.67-1.29c0-0.9-0.69-1.26-1.69-1.26
		c-0.46,0-0.72,0.03-0.88,0.07V83.14z M328.72,86.84c0.2,0.03,0.48,0.05,0.84,0.05c1.03,0,1.98-0.38,1.98-1.5
		c0-1.05-0.9-1.49-1.99-1.49h-0.82v2.94H328.72z"/>
	<path class="st1" d="M333.28,88.98c0.81-1.13,1.44-2.62,1.44-4.68c0-2.05-0.62-3.51-1.44-4.65h0.78c0.73,0.94,1.5,2.4,1.5,4.66
		c0,2.24-0.77,3.7-1.5,4.67L333.28,88.98L333.28,88.98z"/>
</g>
</svg>
