<?xml version="1.0" encoding="UTF-8"?>
<!DOCTYPE svg PUBLIC "-//W3C//DTD SVG 1.1//EN" "http://www.w3.org/Graphics/SVG/1.1/DTD/svg11.dtd">
<svg version="1.1" xmlns="http://www.w3.org/2000/svg" xmlns:xlink="http://www.w3.org/1999/xlink" x="0" y="0" width="382" height="382" viewBox="0, 0, 382, 382">
  <g id="Layer_1">
    <g>
      <path d="M203.7,273 L179.7,273 L179.7,216.3 L182.7,216.3" fill="#515356"/>
      <g>
        <path d="M219.5,256 C227.3,256 235.5,251.2 239,244.5 C240.2,242.3 241.5,239.9 241.5,237.5 L241.5,127.5 C250.6,131.9 257.1,143.6 257.2,157.3 L257.2,157.6 L257.1,230.5 L257.1,238.1 C256,257.8 237.6,273.2 222.3,273.2 L222.2,272.7 L216.1,256.2" fill="#515356"/>
        <g>
          <path d="M179.7,157.6 L179.7,137.1 L179.8,137.1 L179.8,120.3 L216,120.3 C217.8,120 221.5,120.7 223.4,120.7 L223.8,120.7 C222.7,124.2 222.1,128 222.1,131.9 L222.1,138.8 L198.9,138.8 L198.9,209.2" fill="#515356"/>
          <path d="M151.3,196 L149.5,200.7 L153.9,200.7 C155.1,203.6 155.7,206.8 155.7,210.4 C155.7,212.5 155.3,214.6 154.6,216.4 L143.7,216.4 L117,288.6 L98.3,288.6 L137,183.9 C142.8,187.3 147.9,191.1 151.3,196" fill="#515356"/>
          <path d="M109.5,210.3 C109.5,216.8 114.7,223 121.2,226.8 L114.5,244.7 C101,238.2 90.4,224.8 90.4,210.3 L90.4,208.8 L109.5,208.8 C109.5,209.3 109.5,209.9 109.5,210.3" fill="#515356"/>
          <g>
            <path d="M179.7,157.6 L179.7,137.1 L179.8,137.1 L179.8,120.3 L216,120.3 C217.8,120 221.5,120.7 223.4,120.7 L223.8,120.7 C222.7,124.2 222.1,128 222.1,131.9 L222.1,138.8 L198.9,138.8 L198.9,209.2" fill="#515356"/>
            <path d="M138.9,229.3 C145.6,227.5 152,222.9 154.6,216.3 C155.3,214.5 155.7,212.4 155.7,210.3 C155.7,206.7 155.1,203.5 153.9,200.6 C153.2,199 152.3,197.4 151.2,195.9 C147.8,191.1 142.8,187.3 137,183.8 C118.4,172.6 92.7,164.4 92.7,133.8 C92.7,111.5 113.9,94.9 134.7,94.9 C155.5,94.9 177,113 177,133.8 L177,135.2 L157.9,135.2 L157.9,133.8 C157.9,123.5 144.9,113.9 134.6,113.9 C124.3,113.9 111.7,121.7 111.7,133.8 C111.7,169.3 174.7,162.4 174.7,210.4 C174.7,232.7 153.6,249.2 132.8,249.2 L131.6,249.2" fill="#515356"/>
            <path d="M241.1,211.8 C241.1,222.1 247.5,230.4 257.8,230.4 C268.1,230.4 276.4,219.8 276.4,210.4 L295.4,210.4 C295.4,233.4 278.6,249.4 257.8,249.4 C237.7,249.4 223.3,233.7 222.1,214 L222,131.9 C222,111.1 236.9,94.2 257.7,94.2 C278.5,94.2 295.3,112.2 295.3,133.3 L276.3,133.3 C276.3,120 268,113.2 257.7,113.2 C247.4,113.2 241,121.6 241,131.9" fill="#515356"/>
            <path d="M153.7,138.8 L172.7,138.8 L228.1,288.6 L209.4,288.6 L182.6,216.4 L174.1,216.4 C174.4,214.5 174.6,212.5 174.6,210.4 C174.6,206.9 174.3,203.7 173.7,200.7 L176.8,200.7 L163.1,163.7 L158.2,177 C153.5,173.3 148.3,170.3 143,167.3" fill="#515356"/>
          </g>
        </g>
      </g>
    </g>
    <g>
      <g>
        <path d="M203.7,273 L179.7,273 L179.7,216.3 L182.7,216.3 z" fill="#515356"/>
        <path d="M203.7,273 L179.7,273 L179.7,216.3 L182.7,216.3 z" fill-opacity="0" stroke="#E6E6E6" stroke-width="1"/>
      </g>
      <g>
        <path d="M179.7,157.6 L179.7,137.1 L179.8,137.1 L179.8,120.3 L216,120.3 C217.8,120 221.5,120.7 223.4,120.7 L223.8,120.7 C222.7,124.2 222.1,128 222.1,131.9 L222.1,138.8 L198.9,138.8 L198.9,209.2 L179.7,157.6 z" fill="#515356"/>
        <path d="M179.7,157.6 L179.7,137.1 L179.8,137.1 L179.8,120.3 L216,120.3 C217.8,120 221.5,120.7 223.4,120.7 L223.8,120.7 C222.7,124.2 222.1,128 222.1,131.9 L222.1,138.8 L198.9,138.8 L198.9,209.2 L179.7,157.6 z" fill-opacity="0" stroke="#E6E6E6" stroke-width="1"/>
      </g>
      <g>
        <path d="M151.3,196 L149.5,200.7 L153.9,200.7 C155.1,203.6 155.7,206.8 155.7,210.4 C155.7,212.5 155.3,214.6 154.6,216.4 L143.7,216.4 L117,288.6 L98.3,288.6 L137,183.9 C142.8,187.3 147.9,191.1 151.3,196 z" fill="#515356"/>
        <path d="M151.3,196 L149.5,200.7 L153.9,200.7 C155.1,203.6 155.7,206.8 155.7,210.4 C155.7,212.5 155.3,214.6 154.6,216.4 L143.7,216.4 L117,288.6 L98.3,288.6 L137,183.9 C142.8,187.3 147.9,191.1 151.3,196 z" fill-opacity="0" stroke="#E6E6E6" stroke-width="1"/>
      </g>
      <g>
        <path d="M138.9,229.3 C145.6,227.5 152,222.9 154.6,216.3 C155.3,214.5 155.7,212.4 155.7,210.3 C155.7,206.7 155.1,203.5 153.9,200.6 C153.2,199 152.3,197.4 151.2,195.9 C147.8,191.1 142.8,187.3 137,183.8 C118.4,172.6 92.7,164.4 92.7,133.8 C92.7,111.5 113.9,94.9 134.7,94.9 C155.5,94.9 177,113 177,133.8 L177,135.2 L157.9,135.2 L157.9,133.8 C157.9,123.5 144.9,113.9 134.6,113.9 C124.3,113.9 111.7,121.7 111.7,133.8 C111.7,169.3 174.7,162.4 174.7,210.4 C174.7,232.7 153.6,249.2 132.8,249.2 L131.6,249.2 L138.9,229.3 z" fill="#515356"/>
        <path d="M138.9,229.3 C145.6,227.5 152,222.9 154.6,216.3 C155.3,214.5 155.7,212.4 155.7,210.3 C155.7,206.7 155.1,203.5 153.9,200.6 C153.2,199 152.3,197.4 151.2,195.9 C147.8,191.1 142.8,187.3 137,183.8 C118.4,172.6 92.7,164.4 92.7,133.8 C92.7,111.5 113.9,94.9 134.7,94.9 C155.5,94.9 177,113 177,133.8 L177,135.2 L157.9,135.2 L157.9,133.8 C157.9,123.5 144.9,113.9 134.6,113.9 C124.3,113.9 111.7,121.7 111.7,133.8 C111.7,169.3 174.7,162.4 174.7,210.4 C174.7,232.7 153.6,249.2 132.8,249.2 L131.6,249.2 L138.9,229.3 z" fill-opacity="0" stroke="#E6E6E6" stroke-width="1"/>
      </g>
      <g>
        <path d="M109.5,210.3 C109.5,216.8 114.7,223 121.2,226.8 L114.5,244.7 C101,238.2 90.4,224.8 90.4,210.3 L90.4,208.8 L109.5,208.8 C109.5,209.3 109.5,209.9 109.5,210.3 z" fill="#515356"/>
        <path d="M109.5,210.3 C109.5,216.8 114.7,223 121.2,226.8 L114.5,244.7 C101,238.2 90.4,224.8 90.4,210.3 L90.4,208.8 L109.5,208.8 C109.5,209.3 109.5,209.9 109.5,210.3 z" fill-opacity="0" stroke="#E6E6E6" stroke-width="1"/>
      </g>
      <g>
        <path d="M241.1,211.8 C241.1,222.1 247.5,230.4 257.8,230.4 C268.1,230.4 276.4,219.8 276.4,210.4 L295.4,210.4 C295.4,233.4 278.6,249.4 257.8,249.4 C237.7,249.4 223.3,233.7 222.1,214 L222,131.9 C222,111.1 236.9,94.2 257.7,94.2 C278.5,94.2 295.3,112.2 295.3,133.3 L276.3,133.3 C276.3,120 268,113.2 257.7,113.2 C247.4,113.2 241,121.6 241,131.9 L241,211.8 z" fill="#515356"/>
        <path d="M241.1,211.8 C241.1,222.1 247.5,230.4 257.8,230.4 C268.1,230.4 276.4,219.8 276.4,210.4 L295.4,210.4 C295.4,233.4 278.6,249.4 257.8,249.4 C237.7,249.4 223.3,233.7 222.1,214 L222,131.9 C222,111.1 236.9,94.2 257.7,94.2 C278.5,94.2 295.3,112.2 295.3,133.3 L276.3,133.3 C276.3,120 268,113.2 257.7,113.2 C247.4,113.2 241,121.6 241,131.9 L241,211.8 z" fill-opacity="0" stroke="#E6E6E6" stroke-width="1"/>
      </g>
      <g>
        <path d="M219.5,256 C227.3,256 235.5,251.2 239,244.5 C240.2,242.3 241.5,239.9 241.5,237.5 L241.5,127.5 C250.6,131.9 257.1,143.6 257.2,157.3 L257.2,157.6 L257.1,230.5 L257.1,238.1 C256,257.8 237.6,273.2 222.3,273.2 L222.2,272.7 L216.1,256.2 L219.5,256.2 z" fill="#515356"/>
        <path d="M219.5,256 C227.3,256 235.5,251.2 239,244.5 C240.2,242.3 241.5,239.9 241.5,237.5 L241.5,127.5 C250.6,131.9 257.1,143.6 257.2,157.3 L257.2,157.6 L257.1,230.5 L257.1,238.1 C256,257.8 237.6,273.2 222.3,273.2 L222.2,272.7 L216.1,256.2 L219.5,256.2 z" fill-opacity="0" stroke="#E6E6E6" stroke-width="1"/>
      </g>
      <g>
        <path d="M153.7,138.8 L172.7,138.8 L228.1,288.6 L209.4,288.6 L182.6,216.4 L174.1,216.4 C174.4,214.5 174.6,212.5 174.6,210.4 C174.6,206.9 174.3,203.7 173.7,200.7 L176.8,200.7 L163.1,163.7 L158.2,177 C153.5,173.3 148.3,170.3 143,167.3 L153.7,138.8 z" fill="#515356"/>
        <path d="M153.7,138.8 L172.7,138.8 L228.1,288.6 L209.4,288.6 L182.6,216.4 L174.1,216.4 C174.4,214.5 174.6,212.5 174.6,210.4 C174.6,206.9 174.3,203.7 173.7,200.7 L176.8,200.7 L163.1,163.7 L158.2,177 C153.5,173.3 148.3,170.3 143,167.3 L153.7,138.8 z" fill-opacity="0" stroke="#E6E6E6" stroke-width="1"/>
      </g>
    </g>
    <g>
      <path d="M243.7,342 C243.2,341.4 242.4,341.1 241.6,341 C241,341 240.3,341.1 239.6,341.3 C239,341.6 238.4,341.9 237.8,342.5 C237.4,343 237,343.8 236.9,344.7 C236.6,345.6 236.8,346.8 237,348 C237.6,349.6 238.6,351.1 239.6,351.9 C240.2,352.4 240.8,352.7 241.6,352.8 C242.1,352.9 242.8,352.7 243.4,352.5 C244.4,352.1 245.2,351.5 245.7,350.8 C246.2,350 246.3,349.2 246.4,348.3 C246.4,347.4 246.3,346.5 245.9,345.6 C245.5,344.2 244.7,343.1 243.7,342 z" fill="#515356"/>
      <path d="M71.1,292.3 C71.2,291.8 71.2,291.3 71.1,290.8 C71,290.1 70.6,289.4 70,288.8 C69.6,288.3 69,287.8 68.4,287.6 C67.7,287.3 66.8,287.2 66,287.3 C64.9,287.4 64,287.9 62.9,288.7 C62.6,288.9 62.4,289.1 62.2,289.3 C61.2,290.3 60.5,291.3 60,292.3 C59.7,293.7 59.9,295 60.9,296.2 C61.3,296.7 61.7,297 62.2,297.3 C62.5,297.5 62.8,297.6 63.2,297.7 C64.2,297.8 65,297.8 65.9,297.5 C66.8,297.2 67.5,296.8 68.2,296.2 C69.4,295.2 70.4,294.2 71,292.8 C70.9,292.7 71,292.5 71.1,292.3 z" fill="#515356"/>
      <path d="M93.3,314.2 L93.3,314.2 L93.2,314.2 L89.5,316.8 L87.4,318.2 L89.5,319.7 L90.7,320.8 L93.2,314.6 z" fill="#515356"/>
      <path d="M281,48.8 L280.9,49 L281,48.9 z" fill="#515356"/>
      <path d="M239.5,42.7 C240.2,42.9 240.8,43 241.4,42.9 C241.7,42.9 242,42.8 242.3,42.6 C243.2,42.3 243.9,41.8 244.5,41.1 C244.9,40.3 245.4,39.5 245.7,38.7 C246.2,37.3 246.3,35.8 246.2,34.4 C246,33 245,31.9 243.3,31.4 C242.7,31.3 242.1,31.2 241.5,31.3 L241.2,31.3 C240.4,31.5 239.7,31.8 239,32.5 C238.4,33 237.8,34.1 237.4,35.4 C236.9,37 236.7,38.6 236.9,40 C237.1,41.2 238,42.2 239.5,42.7 z" fill="#515356"/>
      <path d="M32.2,215.3 L32.3,215.3 C34.1,215.1 35.6,214.6 36.7,213.7 C37.7,212.8 38.2,211.6 38.1,210 C37.9,209 37.6,208.2 36.9,207.6 C36.2,207 35.4,206.5 34.6,206.4 C33.7,206.3 33,206.2 32.2,206.2 L31.9,206.2 C30.4,206.5 29,206.9 27.7,207.7 C26.5,208.4 26,209.7 26.3,211.6 C26.4,212.3 26.6,213 27,213.6 C27.5,214.1 28.2,214.8 29,215 C29.8,215.2 31,215.4 32.2,215.3 z" fill="#515356"/>
      <path d="M259,43.1 C259.5,43.3 260,43.4 260.3,43.3 C260.8,43.3 261,43.2 261.3,42.8 C261.5,42.6 261.8,42.2 262,41.8 C262.3,40.9 262.3,40.3 262.2,39.9 C262.1,39.4 261.4,38.7 260.2,38.3 L259,37.8 L257.6,37.2 L255.6,41.7 L258.5,43 C258.7,42.9 258.8,43 259,43.1 z" fill="#515356"/>
      <path d="M152.2,344.3 L150.4,347 L148.3,350.3 L150.4,350.8 L152.4,351.4 L152.2,344.3 z" fill="#515356"/>
      <path d="M121.9,48.7 L124.4,47.3 L121.9,44.7 L119.4,42.2 L119.3,42.3 L120.5,49.4 z" fill="#515356"/>
      <path d="M188.9,348.4 L188.9,348.4 C188.2,348.3 187.5,348.5 186.9,348.9 C186.2,349.3 185.6,349.8 185.1,350.7 C184.6,351.5 184.4,352.6 184.2,353.9 C184.2,355.7 184.5,357.2 185.2,358.4 C185.9,359.6 187.1,360.2 188.7,360.3 L188.8,360.3 C189.8,360.3 190.7,360 191.4,359.5 C192.1,358.9 192.6,358.2 192.9,357.4 C193.2,356.5 193.4,355.7 193.4,354.7 C193.5,353.2 193.2,351.8 192.6,350.4 C192,349.1 190.8,348.4 188.9,348.4 z" fill="#515356"/>
      <path d="M65.4,95.5 L66.9,93.4 L68,92 L66.9,91.6 L64.6,90.8 L61.3,89.5 L61.2,89.5 L64.6,94.4 z" fill="#515356"/>
      <path d="M41.5,131.3 L43.2,127.3 C43.5,126.5 43.5,125.8 43.2,125.4 C43,124.8 42.5,124.4 41.8,124.2 C41.3,124 40.9,123.9 40.4,124.1 C40.3,124.1 40.2,124.2 40.1,124.2 C39.7,124.4 39.2,124.8 38.9,125.6 L37.3,129.7 L40.5,131 L41.5,131.3 z" fill="#515356"/>
      <path d="M119.5,330.5 L116.4,328.9 L111.6,338.2 L111.3,338.8 L111.6,338.9 L114.5,340.4 C115.6,340.9 116.7,340.8 117.8,340.1 C118.9,339.3 119.8,338.2 120.5,336.8 C121,335.8 121.2,335 121.5,334.3 C121.6,333.6 121.6,332.9 121.4,332.1 C120.8,331.4 120.4,331 119.5,330.5 z" fill="#515356"/>
      <path d="M192.9,11.1 C93.6,11.1 12.6,92.1 12.6,191.4 C12.6,290.7 93.6,371.6 192.9,371.6 C292.2,371.6 373.2,290.7 373.2,191.4 C373.1,92.2 292.2,11.1 192.9,11.1 z M363.1,187 L351.6,193.8 L351.6,193.9 L363.2,193.8 L363.3,197.1 L348,197.3 L346.6,197.3 L346.5,193.8 L347.9,192.9 L358.2,186.8 L358.2,186.7 L347.9,186.8 L346.4,186.8 L346.3,183.5 L347.9,183.4 L362.9,183.2 L363.1,187 z M361.6,168.5 L350.7,170.1 C350,170.2 349.3,170.4 348.7,170.7 C348.5,171 348.2,171.3 348,171.5 C347.9,171.7 347.8,171.8 347.8,172 C347.7,172.5 347.7,173 347.7,173.5 C347.8,173.9 347.8,174.3 348,174.7 C348.5,176.1 349.7,176.7 351.5,176.5 L362.5,174.9 L363,178.6 L352.1,180.2 C350.9,180.3 349.9,180.3 349,180 C348.7,179.9 348.3,179.7 348,179.6 C347.5,179.4 347.1,179.1 346.7,178.7 C346.2,178.2 345.9,177.5 345.8,176.7 C345.3,175.8 345.2,174.9 345.1,174 C344.9,173 344.9,171.8 345,170.8 C345.3,169.8 345.7,169 346.6,168.1 C347,167.8 347.6,167.4 348.1,167.2 C348.7,166.9 349.3,166.7 350,166.7 L361.2,165.1 L361.6,168.5 z M358,150 L348,154.7 L345.7,155.8 L345.8,155.9 L348,155.9 L359.2,156 L360.3,160.9 L348,163.5 L344,164.4 L343.4,161.3 L348,160.3 L357,158.5 L356.9,158.4 L348,158.2 L342.7,158.1 L342,154.8 L348,152.1 L355,149 L354.9,148.9 L348,150.4 L341.3,151.8 L340.7,148.7 L348,147.1 L357,145.1 L358,150 z M349.6,124.4 L351.4,129.2 L348,131.5 L340.1,136.8 L348,135.6 L353.6,134.8 L355.4,139.6 L348,142.4 L339.8,145.5 L339.7,145.5 L338.5,142.6 L339.7,142.1 L347.9,139 L351.5,137.6 L351.4,137.5 L348,138 L339.8,139.2 L337.4,139.5 L336.2,136.2 L339.7,133.8 L347.9,128.4 L348,128.3 L348,128.3 L339.8,131.5 L335.1,133.3 L333.9,130.2 L339.8,128 L348,124.9 L349.6,124.4 z M337.4,191.5 C337.4,270.9 272.5,335.7 192.9,335.7 C113.3,335.7 48.4,270.9 48.4,191.5 C48.4,112.1 113.3,47.2 192.9,47.2 C272.5,47.2 337.4,112 337.4,191.5 z M339.8,109.2 C340.4,109.3 341,109.5 341.5,109.9 C342.8,110.7 343.9,111.9 344.8,113.4 C345.3,114.4 345.5,115.3 345.6,116.3 C345.9,117.3 345.6,118.3 345.3,119.4 C345,120.4 344.6,121.3 343.7,122.1 C342.9,123.1 341.7,123.9 340.3,124.6 C340.2,124.7 340,124.7 339.8,124.8 C338.8,125.3 337.8,125.6 336.7,125.8 C335.7,125.9 334.6,125.8 333.5,125.6 C333.1,125.4 332.7,125.2 332.3,125 C331.8,124.7 331.3,124.4 330.9,124 C330.2,123.3 329.5,122.4 328.9,121.3 C328.2,119.8 328,118.4 327.9,117.2 C327.9,115.8 328.4,114.6 329.1,113.5 C329.9,112.4 331.1,111.5 332.3,110.7 L332.8,110.4 C334.4,109.6 335.9,109.2 337.4,109 C338.3,108.9 339,109 339.8,109.2 z M330.4,94.1 C331,94.1 331.7,94.3 332.3,94.6 C332.6,94.7 332.9,94.9 333.2,95.1 C333.9,95.7 334.7,96.6 335.3,97.6 C336,98.8 336.5,99.9 336.6,101.1 C336.7,102.3 336.5,103.4 336.1,104.4 C335.7,105.4 335.1,106.3 334.1,106.9 L332.3,104 L332.2,103.9 L332.3,103.9 C333.5,102.5 333.7,100.9 332.8,99.3 C332.7,99 332.5,98.8 332.3,98.6 C331.6,97.9 330.7,97.4 329.7,97.4 C328.3,97.2 327,97.7 325.3,98.7 L325.3,98.8 C324.5,99.3 323.8,100 323.3,100.6 C322.7,101.3 322.4,102 322.2,102.8 C322.1,103.5 322.4,104.4 322.9,105 C323.9,106.8 325.6,107.4 327.6,106.6 L329.5,109.5 C328.3,110 327.2,110.3 326,110.4 C325,110.3 323.9,109.9 322.9,109.3 C322.1,108.7 321.2,107.9 320.5,106.6 C319.6,105.4 319.3,104 318.9,102.8 C318.9,101.5 319.2,100.2 319.9,98.9 C320.7,97.6 321.9,96.4 323.4,95.4 C323.6,95.3 323.7,95.2 323.8,95.1 C325,94.6 326.2,94 327.3,93.8 C328.4,93.9 329.5,93.9 330.4,94.1 z M324.2,82.7 L322.1,84.7 L318.8,81 L309.7,89.2 L308.5,90.2 L306.2,87.6 L309.7,84.5 L316.4,78.4 L313.1,74.6 L315.1,72.6 L324.2,82.7 z M305.9,63.7 L302.6,76.7 L302.7,76.7 L309.6,69.6 L310.8,68.4 L313.2,70.8 L309.7,74.4 L301.7,82.8 L299.2,80.3 L302.5,67.1 L302.5,67 L295.6,74.1 L294.3,75.5 L291.9,73.3 L295.6,69.5 L303.5,61.3 L305.9,63.7 z M295.4,55.3 L299.1,57.9 L297.5,60.2 L295.4,58.7 L290.2,55.1 L288,58.2 L294.7,62.8 L293,65.3 L286.3,60.7 L283.8,64.2 L291.4,69.6 L289.8,71.8 L282.2,66.6 L279.3,64.6 L282.2,60.4 L288.9,50.8 L295.4,55.3 z M275.4,42.5 L271.4,55.5 L271.5,55.6 L280.8,45.5 L282.3,46.3 L285.2,48 L282.3,53 L276.8,62.5 L274,60.9 L280.9,49 L271.3,59.4 L268.3,57.6 L272.7,44.1 L272.6,44.1 L265.6,56.1 L264.4,55.4 L262.9,54.5 L264.4,51.8 L271.3,40 L275.4,42.5 z M259,34.4 L262.7,36.1 C263.4,36.4 263.9,36.7 264.3,37.1 C264.4,37.2 264.5,37.2 264.6,37.4 C264.9,38 265.3,38.4 265.5,39.1 C265.8,39.6 265.9,40.3 265.7,40.9 C265.8,41.5 265.5,42.3 265.3,42.9 C265,43.5 264.7,44.1 264.3,44.5 C263.8,45.1 263.2,45.6 262.6,45.9 C261.6,46.5 260.4,46.5 259.1,46 C258.8,45.9 258.6,45.8 258.3,45.7 L254.6,44.1 L252.1,49.7 L249.3,48.5 L248.9,48.3 L249.3,47.3 L255.8,33 L259,34.4 z M233.5,35.6 L233.6,34.9 C234.2,33.2 235,31.8 235.8,30.7 C236.8,29.5 238,28.9 239.4,28.5 C240,28.3 240.7,28.2 241.4,28.2 C242.3,28.2 243.2,28.4 244.3,28.7 C245.3,29 246.1,29.5 247,30.1 C247.8,30.6 248.4,31.5 248.9,32.4 C249,32.7 249.2,33 249.3,33.4 C249.5,34.1 249.7,34.8 249.7,35.6 C249.7,36.6 249.6,37.6 249.3,38.8 C249.2,39.1 249.2,39.3 249,39.6 C248.5,40.9 248.1,42 247.3,43 C246.6,43.9 245.8,44.5 244.9,45.1 C244,45.6 243,45.8 242,45.8 L241.5,45.8 C240.7,45.7 239.8,45.6 238.8,45.3 C237.3,44.8 236.1,44.1 235,43.2 C234,42.1 233.6,41 233.2,39.7 C233,38.3 233.1,36.9 233.5,35.6 z M220.8,23.9 L224.3,24.4 L222.1,38 L230.3,39.3 L229.8,42.2 L218.2,40.4 L220.8,23.9 z M205,21.7 L217.4,23.2 L216.9,26.2 L208,25 L207.7,28.5 L215.8,29.5 L215.4,32.5 L207.3,31.4 L206.8,35.8 L216,37 L215.6,39.9 L202.9,38.3 L205,21.7 z M190.7,21.4 L193.8,33.5 L193.9,34.2 L194,34.2 L197.7,22.4 L197.9,21.6 L201.5,21.7 L197.3,33.6 L195.6,38.3 L192.3,38.2 L188.4,26.3 L186.9,21.4 L190.7,21.4 z M183.5,21.8 L183.8,24.7 L174.9,25.6 L175.2,29.3 L183.4,28.5 L183.7,31.5 L175.5,32.2 L175.8,36.6 L185.1,35.8 L185.4,38.6 L172.7,39.8 L171.1,23.1 L183.5,21.8 z M160.8,24.2 C161.1,24.1 161.3,24.1 161.6,24.1 C162.8,24 164.1,24.2 164.9,24.6 C165.9,25.2 166.8,26 167.5,27.1 C168.1,28.2 168.5,29.5 168.8,30.8 C169.1,32.4 169.1,33.8 168.8,35.2 C168.6,36.6 168,37.8 167.2,38.9 C166.5,39.9 165.2,40.5 163.5,40.7 L161.7,41 L156.3,41.9 L153.6,25.4 L160.8,24.2 z M130.6,32.7 L132.3,32.1 L142.2,41.2 L142.3,41.2 L138.7,30.2 L141.8,29.2 L147,45 L143.7,46.1 L133.6,37 L133.5,37 L137.2,48.2 L134.1,49.2 L130.6,38.7 L128.9,33.3 L130.6,32.7 z M119.5,38 L121.9,40.2 L130.6,48.5 L132.4,50.1 L130.6,51 L129,51.9 L126.4,49.4 L121.8,51.7 L120.8,52.2 L121.4,55.7 L118.1,57.3 L115.7,39.8 L119.5,38 z M98.3,52 C98.4,51 98.8,50.1 99.4,49.3 C99.7,48.9 100.1,48.5 100.4,48.1 C100.9,47.7 101.3,47.4 101.8,47 C103,46.3 104,45.8 105.3,45.7 C106.4,45.6 107.6,45.8 108.6,46.2 C109.6,46.7 110.5,47.2 111.1,48.2 L108.1,50 C106.7,48.7 105.2,48.5 103.5,49.5 C102.3,50.3 101.7,51.3 101.6,52.6 C101.4,54 101.9,55.4 102.9,57 L103,57 C103.5,57.9 104.2,58.5 104.8,59 C105.5,59.6 106.2,60 107,60.1 C107.8,60.2 108.6,60 109.3,59.5 C111.1,58.4 111.7,56.8 110.9,54.7 L113.9,52.9 C114.4,54.1 114.7,55.1 114.7,56.3 C114.6,57.3 114.3,58.4 113.7,59.5 C113.2,60.2 112.4,61.1 111.2,62 C110,62.7 108.6,63.2 107.2,63.5 C105.9,63.5 104.6,63.3 103.3,62.5 C102.2,61.9 101.3,60.9 100.4,59.7 C100.3,59.4 100.1,59.2 99.9,58.9 C99.8,58.8 99.6,58.6 99.6,58.5 C99.1,57.3 98.6,56.1 98.3,55 C98.1,54 98.1,52.9 98.3,52 z M92.9,53.8 L94.1,55.4 L100.5,64.2 L102.8,67.3 L100.5,69 L100,69.3 L94,61.2 L90.1,55.8 L92.9,53.8 z M78.3,65.5 L82.5,61.7 C83.1,61.2 83.7,60.7 84.4,60.5 C84.6,60.4 84.9,60.3 85.1,60.2 C85.9,60 86.9,60.1 87.5,60.4 C88.2,60.7 89.1,61.1 89.5,61.8 C90,62.2 90.3,62.7 90.5,63.2 C90.7,63.7 90.8,64.3 90.8,64.8 C90.8,65.3 90.7,65.9 90.5,66.4 C91.2,66 91.9,66 92.6,66.3 C93,66.5 93.6,66.8 94,67.3 C94.1,67.4 94.3,67.6 94.4,67.7 L94.8,68.2 C95.1,68.4 95.2,68.7 95.4,68.7 C95.9,69.3 96.2,69.7 96.6,69.7 C96.9,70 97.2,70 97.6,70 L97.9,70.2 L95,73 C94.7,72.9 94.4,72.7 94,72.4 L93.9,72.3 C93.6,72.1 93.2,71.6 92.9,71.2 C92.6,70.9 92.1,70.6 91.8,70.2 C91.5,69.7 91.1,69.5 90.8,69.2 C90.6,69.1 90.2,69 89.8,69.1 C89.4,69.4 88.8,69.6 88.2,70.1 L85.5,72.6 L90,77.4 L87.4,79.8 L84.3,76.3 L78.2,69.6 L76.2,67.4 L78.3,65.5 z M66.9,76.9 L71.1,72.5 L74,69.6 L76,71.6 L71.1,76.7 L70.2,77.7 L71.1,78.5 L73,80.3 L78,75 L78.2,75.2 L80.2,77.1 L78.2,79.1 L75.1,82.3 L78.2,85.2 L80.2,87.2 L78.2,89.2 L77.8,89.7 L71.1,83.2 L66.9,79.1 L65.8,78 L66.9,76.9 z M59.4,85.8 L59.6,85.6 L64.6,87.3 L66.9,88.1 L71.1,89.5 L76.5,91.3 L74.1,94.3 L71.1,93.3 L70.7,93 L67,97.8 L66.9,97.9 L67,97.9 L69.1,100.8 L67,103.5 L66.7,103.8 L64.7,100.7 L59.5,92.5 L57.2,88.8 L59.4,85.8 z M42.1,111.5 L47.1,111.6 L55.6,111.6 L55.7,111.5 L47.1,106.6 L45.5,105.6 L47.1,102.7 L59.3,109.7 L61.7,111.1 L59.9,114.2 L59.3,114.2 L47.2,114.2 L46.2,114.2 L46.2,114.3 L47.2,114.8 L56.6,120.2 L55,123 L47.2,118.5 L40.4,114.6 L42.1,111.5 z M36.4,123.9 C36.9,122.9 37.3,122.1 38.2,121.4 C38.9,120.9 39.7,120.7 40.3,120.6 L40.4,120.5 C41.3,120.4 42,120.5 42.7,120.8 C43.3,121 43.7,121.3 44.3,121.8 C44.6,122.1 45,122.6 45.1,123.2 C45.4,123.7 45.6,124.2 45.6,124.8 C46,124.3 46.6,123.8 47.2,123.8 L47.3,123.8 C48.1,123.8 48.8,123.9 49.7,124.3 L50.3,124.5 C50.6,124.6 50.9,124.7 51,124.8 C51.8,125 52.3,125.2 52.7,125.1 C53.1,125.2 53.4,125.1 53.5,125 L54,125 L52.6,128.5 C52.3,128.5 51.7,128.4 51.4,128.4 C51,128.3 50.4,128.2 50,127.9 C49.6,127.7 49,127.6 48.6,127.4 C48.1,127.2 47.6,127.1 47.3,127.1 C47.1,127.1 46.6,127.1 46.4,127.4 C46.1,127.7 45.7,128.1 45.4,128.8 L44,132.1 L47.3,133.4 L50.2,134.6 L48.9,137.8 L47.3,137.2 L40.5,134.5 L33.4,131.6 L36.4,123.9 z M31.3,136.1 L32.2,136.4 L34.1,137 L32.2,143.5 L31.6,145.5 L32.2,145.7 L35.1,146.6 L37.4,138.7 L40.2,139.6 L38,147.4 L40.4,148.1 L42.2,148.6 L44.8,139.7 L47.3,140.3 L47.7,140.4 L47.3,141.8 L44.2,152.8 L40.5,151.7 L32.3,149.3 L28,148 L31.3,136.1 z M24.8,162.6 L31.1,163.7 L32.2,157.8 L32.3,157.3 L32.2,157.3 L26.1,156.2 L26.7,152.8 L32.2,153.8 L40.4,155.2 L43.3,155.7 L42.7,159.2 L40.5,158.8 L35.4,158 L34.2,164.4 L40.5,165.4 L41.5,165.6 L41,169.1 L40.5,169 L32.3,167.6 L24.4,166.2 L24.8,162.6 z M23.6,169.2 L26.5,169.5 L26.1,174.5 L32.2,175 L40,175.6 L39.7,179.1 L32.2,178.4 L25.8,177.9 L25.5,183 L22.6,182.7 L23.6,169.2 z M22.3,196 L32.2,195.9 L33.4,195.9 C34.3,195.9 34.9,195.7 35.4,195.4 C35.9,195.1 36.3,194.6 36.4,194.3 C36.7,193.8 36.8,193.3 36.8,192.8 C36.7,190.6 35.6,189.4 33.4,189.5 L32.2,189.5 L22.3,189.6 L22.2,185.9 L32.3,185.8 L33.4,185.8 C34.6,185.7 35.6,185.9 36.4,186.3 C37.2,186.8 38,187.2 38.4,187.9 C38.9,188.4 39.1,189.1 39.4,189.8 C39.6,190.7 39.7,191.5 39.7,192.5 C39.7,193.6 39.6,194.7 39.2,195.8 C38.9,196.9 38.2,197.6 37.3,198.3 C36.4,198.9 35.3,199.3 33.8,199.4 L32.2,199.4 L22.4,199.5 L22.3,196 z M25.2,216.1 C24.2,215.1 23.6,213.5 23.4,211.6 C23.3,210.6 23.3,209.7 23.5,208.6 C23.8,207.7 24.3,206.8 24.9,205.9 C25.6,205.1 26.3,204.4 27.5,203.8 C28.5,203.3 29.8,202.8 31.4,202.6 C31.7,202.5 32,202.5 32.4,202.5 C33.4,202.4 34.3,202.5 35.3,202.6 C36.4,203 37.3,203.3 38.3,203.9 C39,204.6 39.8,205.5 40.3,206.3 C40.4,206.6 40.6,206.8 40.6,207.2 C40.9,207.9 41.1,208.6 41.1,209.4 C41.2,211 41.1,212.4 40.6,213.8 C40.6,213.9 40.6,213.9 40.5,213.9 C40,215.1 39.2,216.1 38.1,216.9 C37,217.6 35.7,218.2 34.2,218.5 L33.5,218.6 C33.1,218.7 32.7,218.7 32.3,218.7 C31,218.8 29.8,218.7 28.8,218.4 C27.2,218 26.1,217.3 25.2,216.1 z M37,225.3 C37,225.6 36.9,226.2 37,227.1 C37,227.8 36.9,228.5 36.9,228.8 C37,229.9 36.9,230.9 36.8,231.8 C36.6,232.5 36.2,233.4 35.6,234 C35.1,234.5 34.2,235.1 33.1,235.4 C32.8,235.4 32.5,235.5 32.1,235.5 C31.4,235.5 30.8,235.4 30.3,235.2 C29.3,234.9 28.7,234.3 28.1,233.5 C27.6,232.7 26.9,231.7 26.7,230.4 C26.4,229.2 26.3,228.2 26.4,227.3 C26.6,226.3 26.8,225.5 27.1,225 C27.6,224.3 28.1,223.8 28.5,223.5 C29.2,223.1 29.7,222.9 30.3,222.7 L31,225.9 C29.4,226.5 29,227.8 29.4,230.1 C29.7,230.8 29.9,231.4 30.4,231.9 C30.7,232.4 31.4,232.5 31.9,232.4 L32,232.3 C32.8,232.2 33.3,231.5 33.4,230.7 C33.3,229.9 33.4,229.1 33.4,228.2 L33.4,226.5 C33.4,225.2 33.5,224.2 33.6,223.4 C33.8,222.7 34.2,222.1 34.7,221.8 C35.3,221.3 35.9,220.8 36.9,220.6 C38.1,220.4 38.9,220.4 39.8,220.7 C39.9,220.8 40.1,220.8 40.1,220.9 C40.8,221.2 41.4,221.7 41.9,222.1 C42.4,222.8 42.7,223.4 43.1,224.1 C43.3,224.5 43.5,225.1 43.6,225.6 C44.6,230.2 43.5,233 40.1,234 C40,234 39.9,234.1 39.8,234.1 L39.1,230.7 C39.5,230.6 39.8,230.5 40.1,230.3 C40.2,230.2 40.4,230.1 40.4,230 C40.7,229.5 40.9,229.1 40.9,228.6 C41,228.1 40.9,227.5 40.8,226.9 C40.6,226.1 40.3,225.3 40,224.9 C39.5,224 38.8,223.6 38,223.8 C37.5,223.9 37.2,224.1 36.9,224.4 C37.1,224.6 37,224.9 37,225.3 z M37.4,254.5 C37.4,250.3 40.8,246.8 45.1,246.8 C49.3,246.8 52.8,250.3 52.8,254.5 C52.8,258.8 49.3,262.3 45.1,262.3 C40.8,262.3 37.4,258.8 37.4,254.5 z M49,283.8 L60.5,276.3 L57.8,272 L60.3,270.4 L62.2,273.3 L67.7,281.8 L65.2,283.4 L62.4,279.3 L62.1,279.5 L50.9,286.7 L49,283.8 z M64,301.2 C63.4,301.2 62.8,301.1 62.2,300.9 C61.8,300.8 61.5,300.6 61.1,300.4 C60.3,299.8 59.4,299.1 58.6,298.2 C57.6,297 57,295.6 56.7,294.4 C56.5,293 56.6,291.7 57.2,290.5 C57.7,289.2 58.5,288.1 59.6,287.1 L60.1,286.7 C60.7,286.2 61.4,285.7 62.1,285.4 C62.8,285 63.6,284.7 64.3,284.4 C65.7,284.1 67.1,284.1 68.5,284.6 C69.4,284.9 70.3,285.3 71.1,286 C71.6,286.4 72,286.8 72.4,287.4 C73.1,288.2 73.6,289.1 73.9,289.9 C74.2,290.8 74.4,291.9 74.2,293 C74.2,293.9 73.8,295 73.1,296.1 C72.6,296.9 71.9,297.8 71.1,298.5 C70.9,298.7 70.6,298.9 70.4,299.1 C69.3,299.9 68.3,300.6 67.2,300.9 C66.1,301.1 65,301.2 64,301.2 z M73.8,314.2 C75,312.4 75.8,311.1 76.4,310.5 C76.9,309.7 77.6,308.7 78.2,307.8 C78.9,306.8 79.4,306 80,305.3 C80.5,304.6 81,303.9 81.5,303.3 L81.4,303.2 C80.7,303.7 80.1,304.1 79.5,304.5 C78.9,304.9 78.1,305.4 77.2,306 C76.3,306.6 75.4,307.2 74.5,307.8 C73.7,308.3 72.6,308.9 71.2,309.8 C70.9,310 70.6,310.2 70.3,310.4 L68,308 L71.2,302.6 L74.3,297.4 L76.8,293 L79.4,295.8 C75.7,301.7 73.3,305.1 72.5,306.2 L72.5,306.3 C73.2,305.9 73.9,305.3 74.8,304.7 C75.8,304.1 76.5,303.5 77.1,303.1 C77.7,302.7 78.7,302.1 80,301.3 C81.2,300.4 82.2,299.7 82.9,299.4 L85.4,302 C81.8,307.4 79.4,310.8 78.3,312.3 C79.2,311.8 79.9,311.4 80.6,310.8 C81.3,310.4 82.2,309.8 83.1,309.4 C83.8,308.9 84.6,308.4 85.4,307.9 C85.5,307.8 85.7,307.7 85.8,307.6 C86.9,307.1 88,306.3 89,305.7 L89.5,306.2 L91.5,308.3 L89.5,309.4 L85.3,311.6 L80.5,314.2 L76.1,316.6 L73.8,314.2 z M89.5,327.5 L88.7,326.9 L89.5,324.8 L89.9,323.6 L89.5,323.3 L85.3,320.1 L85,319.9 L82,321.8 L79.1,319.6 L85.2,315.7 L89.4,313 L93.1,310.5 L93.9,310 L95,310.9 L97,312.5 L95,318.8 L93.1,324.6 L91.6,329.3 L89.5,327.5 z M106,334.6 C105.8,334.9 105.7,335.1 105.6,335.2 C105.2,335.8 105,336.4 104.9,336.8 C104.8,337.1 104.8,337.5 105,337.6 L104.7,338 L104.6,337.9 L101.4,335.8 C101.5,335.5 101.7,335.1 101.9,334.7 C102,334.3 102.4,333.9 102.6,333.5 C102.8,333 103.1,332.5 103.3,332.1 C103.6,331.8 103.8,331.3 104,331 C104.1,330.7 104,330.4 103.8,330 C103.6,329.6 103.2,329.3 102.6,328.8 L99.5,326.8 L96,332.3 L95.2,331.8 L93.3,330.5 L93.2,330.4 L93.3,330.1 L95.2,327.2 L102.2,316.4 L104.7,318 L107.7,320 L109.3,321 L109.4,321.1 C110.2,321.7 110.8,322.4 111.3,323.1 C111.4,323.3 111.4,323.5 111.5,323.6 C111.8,324.3 111.9,324.9 111.8,325.5 C111.7,325.9 111.6,326.3 111.5,326.7 C111.4,327 111.3,327.4 111.2,327.7 C110.8,328.2 110.3,328.6 109.9,329 C109.7,329.1 109.6,329.2 109.4,329.3 C109.1,329.5 108.7,329.6 108.3,329.7 C108.1,329.8 107.8,329.8 107.6,329.8 C107.3,329.9 107,329.8 106.6,329.8 C107.2,330.5 107.4,331.1 107.3,331.8 C107.2,332.4 106.9,333.2 106.3,334 L106,334.6 z M117.6,343.6 C116.3,343.9 115,343.7 113.4,342.9 L111.4,341.9 L109.3,340.8 L107.5,339.8 L106.8,339.5 L107.5,338.1 L109.3,334.6 L111.4,330.4 L114.4,324.5 L121,327.8 C122.2,328.4 123,329.1 123.6,329.9 C123.8,330.1 123.9,330.4 124.1,330.6 C124.6,331.6 124.8,332.8 124.8,334.1 C124.7,335.3 124.3,336.6 123.7,337.8 L123.6,337.8 C122.9,339.2 122,340.3 121,341.4 C120.1,342.6 118.9,343.4 117.6,343.6 z M138.1,339 C138.1,339.7 138,340.4 137.8,341 L134.7,339.8 C135.2,338.1 134.3,336.9 132.4,336.1 C131.6,335.8 130.9,335.7 130.3,335.8 C129.7,335.9 129.2,336.3 129,336.8 C128.6,337.6 128.9,338.3 129.5,339 C130.2,339.4 130.9,340 131.6,340.4 C132.1,340.9 132.6,341.3 132.8,341.4 C133.9,342.1 134.6,342.8 135.1,343.4 C135.7,343.9 136,344.6 136.1,345.2 C136.2,345.9 136,346.6 135.6,347.6 C135.3,348.7 134.7,349.4 134,349.8 C133.2,350.3 132.4,350.6 131.5,350.8 C130.8,350.8 129.9,350.7 129.5,350.6 C128.8,350.4 128.2,350.3 127.8,350.1 C126,349.4 124.6,348.5 123.7,347.4 C122.5,345.9 122.2,344.2 123,342.2 L123.7,342.5 L126,343.4 C125.8,344 125.8,344.6 125.9,345.1 C126,345.5 126.2,345.9 126.6,346.4 C126.9,346.7 127.6,347 128,347.2 C130.3,348.2 131.7,347.9 132.3,346.7 C132.4,346.3 132.4,345.9 132.3,345.6 C132.2,345.2 132.1,344.9 131.7,344.6 C131.5,344.4 131,344.1 130.3,343.6 C129.7,343.1 129.2,342.8 128.9,342.6 C127.9,341.9 127.1,341.4 126.5,340.8 C126,340.1 125.5,339.5 125.3,338.7 C125.1,337.8 125.2,336.9 125.6,335.8 C125.9,334.9 126.6,334.2 127.4,333.7 C128.1,333.1 129,332.8 130.1,332.8 C131.1,332.8 132.2,333.1 133.4,333.6 C134.6,334 135.6,334.6 136.2,335.1 C136.9,335.8 137.3,336.4 137.6,337.1 C138,337.7 138.1,338.4 138.1,339 z M152.9,357.9 L152.6,354.4 L150.4,353.8 L146.7,352.8 L144.8,355.8 L141.2,354.8 L150.4,341.5 L151.2,340.3 L155.1,341.4 L156.6,359 L152.9,357.9 z M169,355.4 C169.3,356.3 169.5,357 170.2,357.6 C170.7,358.2 171.5,358.5 172.4,358.6 C174.4,358.9 175.8,358 176.6,355.9 L180.1,356.4 C179.7,357.6 179.1,358.6 178.4,359.5 C177.7,360.3 176.8,361 175.7,361.4 C174.7,361.6 173.5,361.7 172.2,361.6 C170.7,361.4 169.4,360.9 168.2,360.3 C167.1,359.6 166.3,358.5 165.7,357.1 C165.2,355.7 165,354 165.2,352.1 C165.3,352 165.3,351.8 165.3,351.6 C165.6,350.3 165.9,349.1 166.4,348.3 C166.9,347.3 167.6,346.4 168.3,345.8 C169.1,345.2 170,344.7 171,344.4 C172,344.1 173.2,344.1 174.3,344.2 C175.7,344.4 176.7,344.7 177.8,345.4 C178.8,346.1 179.6,346.9 180,347.9 C180.5,348.9 180.7,350.1 180.7,351.1 L177.2,350.7 C177,348.9 175.9,347.7 174.1,347.4 C172.7,347.2 171.5,347.7 170.6,348.6 C169.7,349.6 169.1,350.9 168.9,352.8 L168.9,352.9 C168.7,353.7 168.8,354.5 169,355.4 z M196.8,354.5 C196.8,355.9 196.7,357.1 196.3,358.2 C195.8,359.2 195.2,360.2 194.5,360.9 C193.8,361.6 192.9,362.3 192,362.5 C191,362.7 189.9,362.9 188.8,362.9 L188.7,362.9 C187.1,362.8 185.6,362.5 184.5,362 C183.3,361.3 182.4,360.2 181.8,359 C181.2,357.8 180.8,356.5 180.8,355 L180.8,354.4 C180.9,352.6 181.2,351.1 181.8,349.6 C182.3,348.3 183.3,347.3 184.5,346.5 C185.7,345.8 187.1,345.3 188.9,345.4 L189.1,345.4 C190.2,345.4 191.1,345.5 192.1,345.8 C193,346.2 193.9,346.8 194.6,347.5 C195.3,348.2 196,349.2 196.4,350.4 C196.7,351.6 196.9,353 196.8,354.5 z M215.3,361.3 L212.2,361.6 L210.9,347.6 L210.9,347.7 L209.1,361.8 L205.6,362.1 L201.2,348.4 L201.2,348.5 L202.4,362.4 L199.1,362.7 L197.6,346.1 L202.7,345.6 L206.9,358.5 L208.8,345.1 L213.8,344.6 L215.2,359.6 L215.3,361.3 L215.3,361.3 z M233.8,357.7 L231.1,358.2 L228.3,344.4 L228.3,344.5 L228,358.8 L224.7,359.4 L218.8,346.3 L218.8,346.4 L221.5,360.1 L218.2,360.7 L215.2,345.1 L215,344.4 L215.2,344.3 L220,343.4 L225.5,355.7 L226,342.2 L231,341.3 L233.7,355.1 L234.2,357.6 L233.8,357.7 z M249.1,351.3 C249,351.6 248.8,351.9 248.6,352.3 C248.3,352.8 247.9,353.4 247.4,353.8 C246.5,354.3 245.6,354.9 244.5,355.3 C243.5,355.6 242.5,355.8 241.6,355.8 L240.2,355.8 C238.8,355.5 237.6,354.8 236.6,353.9 C235.6,352.9 234.9,351.9 234.4,350.4 L234.1,349.8 C234,349.5 234,349.2 233.9,348.9 C233.5,347.5 233.4,346.3 233.4,345.1 C233.5,344.4 233.7,343.7 233.9,343.1 C234.1,342.4 234.4,341.9 234.9,341.3 C235.8,340.1 237.1,339.3 238.8,338.6 C239.8,338.3 240.6,338.1 241.6,338.1 L241.8,338.1 C242.7,338.2 243.8,338.4 244.6,338.8 C245.6,339.3 246.5,340 247.3,340.8 C247.8,341.5 248.3,342.3 248.7,343.2 C248.8,343.6 249,344 249.2,344.5 C249.7,345.8 249.9,347 249.9,348.2 C249.8,349.1 249.5,350.2 249.1,351.3 z M263.5,347.6 L252.5,339.5 L252.4,339.5 L257.3,350.3 L254.4,351.7 L248.7,339.2 L247.5,336.5 L248.7,336 L250.8,335 L261.6,342.9 L256.9,332.3 L259.8,330.9 L266.7,346.2 L263.5,347.6 z M279.4,330.8 L274.8,333.5 L278.4,339.6 L275.3,341.4 L266.9,327 L277.2,321.1 L278.6,323.6 L271.3,327.8 L273.2,331.1 L279.3,327.6 L279.6,327.5 L281,330 L279.4,330.8 z M296.3,327 C296.1,327.9 295.6,328.4 295.1,329 C294.6,329.5 293.9,330.2 293.2,330.7 L293,330.8 C292.1,331.3 291.2,331.8 290.1,332.2 C289.1,332.5 288,332.4 287,332.1 C286,331.7 285,330.9 284.1,329.8 L279.4,323 L277.7,320.6 L279.4,319.4 L280.6,318.6 L286.9,327.6 C287.4,328.2 287.9,328.8 288.5,328.9 C289,329.2 289.5,329.2 289.9,329.2 C290.4,329.1 291,328.9 291.3,328.7 C292.4,328 292.9,327.1 293,326.3 L293,325.8 C292.9,325.3 292.7,324.6 292.3,324 L286,314.9 L288.9,312.9 L293.1,319 L295.2,322 C295.9,323 296.4,323.8 296.5,324.8 C296.5,325.6 296.5,326.3 296.3,327 z M304.2,321.4 L303.2,320.4 L295,311.1 L292.8,313 L291.2,314.4 L289.3,312.2 L292.8,309.1 L299.5,303.2 L301.4,305.4 L297.7,308.7 L303.1,315 L306.7,319.1 L304.2,321.4 z M319.3,305.6 C319.2,306.5 319,307.1 318.6,307.8 C318.2,308.5 317.6,309.2 317,309.8 C316.3,310.5 315.5,311.2 314.7,311.7 C314.6,311.8 314.5,311.9 314.4,312 C313.4,312.4 312.4,312.6 311.3,312.4 C310.2,312.3 309.1,311.7 308,310.8 L303.3,306.4 L299.8,303.1 L302.2,300.4 L303.3,301.5 L310.2,307.9 C310.7,308.4 311.4,308.9 312,309 C312.5,309.1 313.1,309.1 313.4,308.9 C313.9,308.8 314.4,308.4 314.6,308.1 L314.7,308 C316.2,306.4 316.3,304.9 314.7,303.4 L314.6,303.3 L306.5,295.7 L309,293 L314.8,298.4 L317.1,300.6 C317.9,301.3 318.7,302.2 318.9,303.1 C319.3,304.2 319.4,304.9 319.3,305.6 z M329.5,294.6 C329.1,294.5 328.8,294.3 328.3,294.1 C327.8,293.9 327.5,293.6 327.1,293.3 C326.6,293 326.3,292.7 325.9,292.3 C325.8,292.2 325.8,292.2 325.6,292.1 C325.3,291.9 325,291.8 324.8,291.6 C324.5,291.5 324.1,291.5 323.8,291.7 C323.4,292 323.1,292.2 322.6,292.9 L320.5,295.6 L320.3,295.8 L320.5,295.9 L325.5,299.7 L323.4,302.5 L320.5,300.3 L314.8,295.9 L310.2,292.3 L314.8,286.4 L315.3,285.7 C316,284.7 316.8,284.1 317.5,283.8 C318.4,283.4 319.2,283.3 320,283.5 C320.1,283.6 320.3,283.6 320.4,283.6 C321,283.7 321.6,284 322.1,284.4 C322.6,284.7 323.1,285.2 323.3,285.7 C323.6,286.2 323.8,286.7 323.9,287.3 C324,287.8 323.9,288.5 323.8,288.9 C324.3,288.5 325,288.3 325.5,288.4 C325.6,288.5 325.6,288.5 325.7,288.5 C326.4,288.6 327.1,289 327.8,289.6 L328.4,290.1 C328.7,290.3 328.9,290.4 329,290.5 C329.5,291 330.2,291.3 330.4,291.5 C330.8,291.6 331.1,291.6 331.3,291.4 L331.7,291.6 L329.5,294.6 z M333.4,289.4 L325.6,284.3 L320.4,281 L319.4,280.3 L320.4,278.8 L325.6,270.8 L326.2,269.9 L328.7,271.5 L325.6,276.1 L323.8,279 L325.6,280.2 L326.8,280.9 L331.2,274 L333.7,275.6 L329.2,282.5 L332.9,284.9 L338,277 L340.5,278.6 L333.4,289.4 z M342.8,260.6 C338.6,260.6 335.1,257.1 335.1,252.9 C335.1,248.6 338.6,245.2 342.8,245.2 C347,245.2 350.5,248.6 350.5,252.9 C350.5,257.2 347,260.6 342.8,260.6 z M359.2,226.8 L351.4,228.6 L357.7,233.5 L356.7,237.4 L347.9,229.4 L347.8,229.3 L341.7,227.9 L342.5,224.6 L347.9,225.9 L348.6,226 L360.2,222.6 L359.2,226.8 z M360.5,221 L357.7,220.5 L358.3,215.5 L348,214.1 L344.7,213.6 L345.2,210.2 L348.1,210.6 L358.9,212.2 L359.6,207.1 L362.5,207.5 L360.5,221 z M362.5,205.2 L348,203.8 L345.9,203.6 L346.2,200.2 L348,200.4 L362.8,201.8 L362.5,205.2 z" fill="#515356"/>
      <path d="M107.6,326.6 C107.7,326.5 107.8,326.3 107.9,326.2 C108.2,325.7 108.3,325.2 108.3,324.6 C108.2,324.3 108,323.9 107.6,323.6 C107.5,323.5 107.3,323.4 107.1,323.3 L104.6,321.7 L103.4,320.9 L100.9,324.7 L104.5,327.1 C104.6,327.2 104.6,327.2 104.6,327.2 C105.3,327.6 106,327.7 106.4,327.5 C106.9,327.3 107.3,327 107.6,326.6 z" fill="#515356"/>
      <path d="M320.4,287.4 L320.3,287.3 C319.9,287 319.4,286.8 318.8,286.8 C318.3,286.9 317.7,287.2 317.2,287.8 L314.7,291.1 L314.5,291.4 L314.7,291.5 L318.1,294.2 L320.4,291.2 L320.7,290.9 C321.3,290.2 321.5,289.5 321.4,288.9 C321.3,288.3 321,287.9 320.4,287.4 z" fill="#515356"/>
      <path d="M84.4,70.2 L87,67.7 C87.7,67.1 88,66.5 88,65.9 C88.1,65.3 87.8,64.7 87.2,64.1 C86.8,63.7 86.4,63.5 85.7,63.4 C85.4,63.4 84.8,63.5 84.4,63.9 C84.3,64 84.1,64 84.1,64.2 L80.8,67.1 L83.9,70.6 L84.4,70.2 z" fill="#515356"/>
      <path d="M331.5,116.1 C330.8,117.3 330.8,118.5 331.4,120 C331.7,120.5 331.9,120.9 332.3,121.2 C332.6,121.6 333,121.8 333.5,121.9 C334.2,122.2 335.2,122.4 336,122.4 C337,122.1 337.8,121.9 338.6,121.5 C339.1,121.3 339.5,121 339.8,120.8 C340.7,120.3 341.4,119.6 342,118.8 C342.8,117.8 342.7,116.3 342,114.6 C341.6,114.1 341.2,113.4 340.7,113.1 C340.4,112.9 340.1,112.8 339.7,112.7 C339.2,112.5 338.7,112.4 338.2,112.3 C337.3,112.3 336.2,112.6 335,113.2 C333.8,113.7 333,114.4 332.2,115.2 C331.9,115.4 331.7,115.7 331.5,116.1 z" fill="#515356"/>
      <path d="M161.5,38.4 L162.5,38.3 C163.8,38.1 164.7,37.3 165.1,36.1 C165.6,34.9 165.6,33.4 165.4,31.8 C165.1,30.7 164.9,29.9 164.5,29.2 C164.2,28.4 163.8,27.9 163.1,27.5 C162.7,27.2 162.1,27.1 161.5,27.1 C161.2,27.2 161,27.2 160.7,27.2 L157.4,27.7 L159.1,38.7 L161.5,38.4 z" fill="#515356"/>
    </g>
  </g>
</svg>
