<?xml version="1.0" encoding="utf-8"?>
<!-- Generator: Adobe Illustrator 24.1.2, SVG Export Plug-In . SVG Version: 6.00 Build 0)  -->
<svg version="1.1" id="Layer_1" xmlns="http://www.w3.org/2000/svg" xmlns:xlink="http://www.w3.org/1999/xlink" x="0px" y="0px"
	 viewBox="0 0 262.85 134" style="enable-background:new 0 0 262.85 134;" xml:space="preserve">
<style type="text/css">
	.st0{fill:#49A8BB;}
	.st1{fill:#666666;}
	.st2{fill:#203165;}
	.st3{fill:#FFFFFF;}
</style>
<rect x="2.96" y="91.59" class="st0" width="257.23" height="25.56"/>
<g>
	<path class="st1" d="M35.93,19.23h-4.29v-1.55h10.44v1.55h-4.31v12.55h-1.84V19.23z"/>
	<path class="st1" d="M43.44,16.93h1.84v6.32h0.04c0.29-0.52,0.75-0.98,1.32-1.3c0.54-0.31,1.19-0.52,1.88-0.52
		c1.36,0,3.54,0.84,3.54,4.33v6.02h-1.84v-5.82c0-1.63-0.61-3.01-2.34-3.01c-1.19,0-2.13,0.84-2.47,1.84
		c-0.1,0.25-0.13,0.52-0.13,0.88v6.11h-1.84V16.93z"/>
	<path class="st1" d="M57.1,18.81c0.02,0.63-0.44,1.13-1.17,1.13c-0.65,0-1.11-0.5-1.11-1.13c0-0.65,0.48-1.15,1.15-1.15
		C56.66,17.66,57.1,18.16,57.1,18.81z M55.05,31.78V21.65h1.84v10.12H55.05z"/>
	<path class="st1" d="M59.69,29.9c0.54,0.36,1.51,0.73,2.43,0.73c1.34,0,1.97-0.67,1.97-1.51c0-0.88-0.52-1.36-1.88-1.86
		c-1.82-0.65-2.68-1.65-2.68-2.87c0-1.63,1.32-2.97,3.49-2.97c1.02,0,1.92,0.29,2.49,0.63l-0.46,1.34c-0.4-0.25-1.13-0.59-2.07-0.59
		c-1.09,0-1.69,0.63-1.69,1.38c0,0.84,0.61,1.21,1.92,1.72c1.76,0.67,2.66,1.55,2.66,3.05c0,1.78-1.38,3.03-3.79,3.03
		c-1.11,0-2.13-0.27-2.85-0.69L59.69,29.9z"/>
	<path class="st1" d="M72.66,24.4c0-1.05-0.02-1.9-0.08-2.74h1.61l0.08,1.63h0.06c0.56-0.96,1.51-1.86,3.18-1.86
		c1.38,0,2.43,0.84,2.87,2.03h0.04c0.31-0.56,0.71-1,1.13-1.32c0.61-0.46,1.28-0.71,2.24-0.71c1.34,0,3.33,0.88,3.33,4.39v5.96h-1.8
		v-5.73c0-1.95-0.71-3.12-2.2-3.12c-1.05,0-1.86,0.77-2.18,1.67c-0.08,0.25-0.15,0.59-0.15,0.92v6.25h-1.8v-6.07
		c0-1.61-0.71-2.78-2.11-2.78c-1.15,0-1.99,0.92-2.28,1.84c-0.1,0.27-0.15,0.59-0.15,0.9v6.11h-1.8V24.4z"/>
	<path class="st1" d="M99.26,26.63c0,3.74-2.59,5.38-5.04,5.38c-2.74,0-4.85-2.01-4.85-5.21c0-3.39,2.22-5.38,5.02-5.38
		C97.29,21.42,99.26,23.54,99.26,26.63z M91.23,26.74c0,2.22,1.28,3.89,3.08,3.89c1.76,0,3.08-1.65,3.08-3.93
		c0-1.72-0.86-3.89-3.03-3.89S91.23,24.81,91.23,26.74z"/>
	<path class="st1" d="M101.58,24.4c0-1.05-0.02-1.9-0.08-2.74h1.63l0.1,1.67h0.04c0.5-0.96,1.67-1.9,3.35-1.9
		c1.4,0,3.58,0.84,3.58,4.31v6.05h-1.84v-5.84c0-1.63-0.61-2.99-2.34-2.99c-1.21,0-2.15,0.86-2.47,1.88
		c-0.08,0.23-0.13,0.54-0.13,0.86v6.09h-1.84V24.4z"/>
	<path class="st1" d="M115.32,18.75v2.91h2.64v1.4h-2.64v5.46c0,1.26,0.36,1.97,1.38,1.97c0.48,0,0.84-0.06,1.07-0.13l0.08,1.38
		c-0.36,0.15-0.92,0.25-1.63,0.25c-0.86,0-1.55-0.27-1.99-0.77c-0.52-0.54-0.71-1.44-0.71-2.64v-5.52h-1.57v-1.4h1.57v-2.43
		L115.32,18.75z"/>
	<path class="st1" d="M120.02,16.93h1.84v6.32h0.04c0.29-0.52,0.75-0.98,1.32-1.3c0.54-0.31,1.19-0.52,1.88-0.52
		c1.36,0,3.54,0.84,3.54,4.33v6.02h-1.84v-5.82c0-1.63-0.61-3.01-2.34-3.01c-1.19,0-2.13,0.84-2.47,1.84
		c-0.1,0.25-0.13,0.52-0.13,0.88v6.11h-1.84V16.93z"/>
	<path class="st1" d="M131.38,29.9c0.54,0.36,1.51,0.73,2.43,0.73c1.34,0,1.97-0.67,1.97-1.51c0-0.88-0.52-1.36-1.88-1.86
		c-1.82-0.65-2.68-1.65-2.68-2.87c0-1.63,1.32-2.97,3.49-2.97c1.02,0,1.92,0.29,2.49,0.63l-0.46,1.34c-0.4-0.25-1.13-0.59-2.07-0.59
		c-1.09,0-1.69,0.63-1.69,1.38c0,0.84,0.61,1.21,1.92,1.72c1.76,0.67,2.66,1.55,2.66,3.05c0,1.78-1.38,3.03-3.79,3.03
		c-1.11,0-2.13-0.27-2.85-0.69L131.38,29.9z"/>
	<path class="st1" d="M151.56,31.4c-0.48,0.25-1.55,0.59-2.91,0.59c-3.05,0-5.04-2.07-5.04-5.17c0-3.12,2.13-5.38,5.44-5.38
		c1.09,0,2.05,0.27,2.55,0.52l-0.42,1.42c-0.44-0.25-1.13-0.48-2.13-0.48c-2.32,0-3.58,1.72-3.58,3.83c0,2.34,1.51,3.79,3.51,3.79
		c1.05,0,1.74-0.27,2.26-0.5L151.56,31.4z"/>
	<path class="st1" d="M159.32,31.78l-0.15-1.28h-0.06c-0.57,0.79-1.65,1.51-3.1,1.51c-2.05,0-3.1-1.44-3.1-2.91
		c0-2.45,2.18-3.79,6.09-3.77v-0.21c0-0.84-0.23-2.34-2.3-2.34c-0.94,0-1.92,0.29-2.64,0.75l-0.42-1.21c0.84-0.54,2.05-0.9,3.33-0.9
		c3.1,0,3.85,2.11,3.85,4.14v3.79c0,0.88,0.04,1.74,0.17,2.43H159.32z M159.05,26.61c-2.01-0.04-4.29,0.31-4.29,2.28
		c0,1.19,0.79,1.76,1.74,1.76c1.32,0,2.15-0.84,2.45-1.69c0.06-0.19,0.1-0.4,0.1-0.59V26.61z"/>
	<path class="st1" d="M163.79,24.4c0-1.05-0.02-1.9-0.08-2.74h1.61l0.08,1.63h0.06c0.56-0.96,1.51-1.86,3.18-1.86
		c1.38,0,2.43,0.84,2.87,2.03h0.04c0.31-0.56,0.71-1,1.13-1.32c0.61-0.46,1.28-0.71,2.24-0.71c1.34,0,3.33,0.88,3.33,4.39v5.96h-1.8
		v-5.73c0-1.95-0.71-3.12-2.2-3.12c-1.05,0-1.86,0.77-2.18,1.67c-0.08,0.25-0.15,0.59-0.15,0.92v6.25h-1.8v-6.07
		c0-1.61-0.71-2.78-2.11-2.78c-1.15,0-1.99,0.92-2.28,1.84c-0.1,0.27-0.15,0.59-0.15,0.9v6.11h-1.8V24.4z"/>
	<path class="st1" d="M181.24,24.96c0-1.3-0.04-2.34-0.08-3.31h1.65l0.08,1.74h0.04c0.75-1.23,1.95-1.97,3.6-1.97
		c2.45,0,4.29,2.07,4.29,5.15c0,3.64-2.22,5.44-4.6,5.44c-1.34,0-2.51-0.59-3.12-1.59h-0.04v5.5h-1.82V24.96z M183.05,27.66
		c0,0.27,0.04,0.52,0.08,0.75c0.33,1.28,1.44,2.15,2.76,2.15c1.95,0,3.08-1.59,3.08-3.91c0-2.03-1.07-3.77-3.01-3.77
		c-1.25,0-2.43,0.9-2.78,2.28c-0.06,0.23-0.13,0.5-0.13,0.75V27.66z"/>
	<path class="st1" d="M198.74,31.78l-0.15-1.28h-0.06c-0.57,0.79-1.65,1.51-3.1,1.51c-2.05,0-3.1-1.44-3.1-2.91
		c0-2.45,2.18-3.79,6.09-3.77v-0.21c0-0.84-0.23-2.34-2.3-2.34c-0.94,0-1.92,0.29-2.64,0.75l-0.42-1.21c0.84-0.54,2.05-0.9,3.33-0.9
		c3.1,0,3.85,2.11,3.85,4.14v3.79c0,0.88,0.04,1.74,0.17,2.43H198.74z M198.47,26.61c-2.01-0.04-4.29,0.31-4.29,2.28
		c0,1.19,0.79,1.76,1.74,1.76c1.32,0,2.15-0.84,2.45-1.69c0.06-0.19,0.1-0.4,0.1-0.59V26.61z"/>
	<path class="st1" d="M205.26,18.81c0.02,0.63-0.44,1.13-1.17,1.13c-0.65,0-1.11-0.5-1.11-1.13c0-0.65,0.48-1.15,1.15-1.15
		C204.83,17.66,205.26,18.16,205.26,18.81z M203.21,31.78V21.65h1.84v10.12H203.21z"/>
	<path class="st1" d="M216.83,21.65c-0.04,0.73-0.08,1.55-0.08,2.78v5.88c0,2.32-0.46,3.74-1.44,4.62
		c-0.98,0.92-2.41,1.21-3.68,1.21c-1.21,0-2.55-0.29-3.37-0.84l0.46-1.4c0.67,0.42,1.72,0.79,2.97,0.79c1.88,0,3.26-0.98,3.26-3.54
		v-1.13h-0.04c-0.56,0.94-1.65,1.69-3.22,1.69c-2.51,0-4.31-2.13-4.31-4.94c0-3.43,2.24-5.38,4.56-5.38c1.76,0,2.72,0.92,3.16,1.76
		h0.04l0.08-1.53H216.83z M214.93,25.65c0-0.31-0.02-0.59-0.1-0.84c-0.33-1.07-1.23-1.95-2.57-1.95c-1.76,0-3.01,1.48-3.01,3.83
		c0,1.99,1,3.64,2.99,3.64c1.13,0,2.15-0.71,2.55-1.88c0.1-0.31,0.15-0.67,0.15-0.98V25.65z"/>
	<path class="st1" d="M219.67,24.4c0-1.05-0.02-1.9-0.08-2.74h1.63l0.1,1.67h0.04c0.5-0.96,1.67-1.9,3.35-1.9
		c1.4,0,3.58,0.84,3.58,4.31v6.05h-1.84v-5.84c0-1.63-0.61-2.99-2.34-2.99c-1.21,0-2.15,0.86-2.47,1.88
		c-0.08,0.23-0.12,0.54-0.12,0.86v6.09h-1.84V24.4z"/>
</g>
<g>
	<path class="st2" d="M29.8,56.98c-2.36,0-4.2,0.97-5.52,2.9c-1.32,1.93-1.98,4.59-1.98,7.99c0,7.06,2.68,10.58,8.05,10.58
		c1.62,0,3.19-0.23,4.72-0.68c1.52-0.45,3.05-1,4.59-1.63v8.38c-3.06,1.35-6.52,2.03-10.38,2.03c-5.54,0-9.78-1.61-12.73-4.82
		s-4.43-7.85-4.43-13.92c0-3.8,0.72-7.13,2.15-10.01c1.43-2.88,3.49-5.09,6.17-6.63c2.68-1.55,5.84-2.32,9.47-2.32
		c3.96,0,7.75,0.86,11.36,2.58l-3.04,7.8c-1.35-0.64-2.71-1.17-4.06-1.6S31.36,56.98,29.8,56.98z"/>
	<path class="st2" d="M81.12,67.67c0,6.17-1.51,10.86-4.54,14.07c-3.03,3.21-7.46,4.82-13.29,4.82c-5.75,0-10.16-1.61-13.23-4.84
		c-3.07-3.23-4.6-7.93-4.6-14.1c0-6.1,1.53-10.76,4.58-13.98c3.05-3.22,7.49-4.83,13.31-4.83c5.84,0,10.26,1.6,13.27,4.79
		C79.62,56.79,81.12,61.48,81.12,67.67z M55.89,67.67c0,7.09,2.47,10.63,7.4,10.63c2.51,0,4.37-0.86,5.58-2.58
		c1.21-1.72,1.82-4.41,1.82-8.05c0-3.66-0.61-6.37-1.84-8.11c-1.23-1.75-3.06-2.62-5.51-2.62C58.37,56.93,55.89,60.51,55.89,67.67z"
		/>
	<path class="st2" d="M108.34,49.38h11.09l-12.01,36.67H95.75L83.78,49.38h11.14l4.99,18.59c1.04,4.13,1.61,7.01,1.71,8.63
		c0.12-1.17,0.35-2.63,0.7-4.39c0.35-1.76,0.66-3.14,0.93-4.14L108.34,49.38z"/>
	<path class="st2" d="M123.39,86.05V49.38h9.96v36.67H123.39z"/>
	<path class="st2" d="M172.4,66.94c0,6.12-1.68,10.84-5.05,14.15c-3.37,3.31-8.11,4.97-14.21,4.97h-11.86V49.38h12.69
		c5.89,0,10.43,1.5,13.63,4.51C170.8,56.9,172.4,61.25,172.4,66.94z M162.12,67.29c0-3.36-0.67-5.85-1.99-7.48
		c-1.33-1.62-3.35-2.43-6.06-2.43h-2.88v20.54h2.21c3.01,0,5.22-0.87,6.62-2.62S162.12,70.88,162.12,67.29z"/>
	<path class="st2" d="M176.09,76.19v-7.83h14.17v7.83H176.09z"/>
	<path class="st2" d="M214.97,86.05h-10.06V66.64c0-2.36,0.05-4.52,0.15-6.47c-0.62,0.75-1.39,1.54-2.31,2.36l-4.16,3.44l-5.14-6.32
		l12.59-10.26h8.93V86.05z"/>
	<path class="st2" d="M249.86,66.16c0,7.17-1.55,12.37-4.64,15.58s-8.04,4.82-14.85,4.82c-2.24,0-3.95-0.08-5.12-0.25v-7.85
		c1.44,0.27,2.88,0.4,4.31,0.4c3.54,0,6.28-0.73,8.2-2.19c1.92-1.46,2.97-3.78,3.14-6.94h-0.3c-0.65,1.2-1.3,2.07-1.93,2.61
		c-0.64,0.54-1.41,0.95-2.33,1.23c-0.92,0.28-2.07,0.43-3.44,0.43c-3.18,0-5.66-1.06-7.45-3.19c-1.79-2.12-2.68-5.05-2.68-8.78
		c0-4.06,1.16-7.25,3.47-9.56c2.32-2.31,5.49-3.46,9.52-3.46c4.48,0,7.95,1.49,10.41,4.46C248.63,56.44,249.86,60.68,249.86,66.16z
		 M236.04,56.93c-1.09,0-1.97,0.39-2.65,1.18c-0.68,0.79-1.02,2.05-1.02,3.79c0,1.37,0.29,2.46,0.88,3.27
		c0.58,0.81,1.48,1.22,2.68,1.22c1.09,0,2.03-0.39,2.83-1.18c0.8-0.79,1.2-1.73,1.2-2.83c0-1.49-0.37-2.77-1.12-3.84
		C238.12,57.46,237.17,56.93,236.04,56.93z"/>
</g>
<g>
	<path class="st3" d="M33.51,111.18h-2.24V99.39h-4.03v-1.92h10.31v1.92h-4.03V111.18z"/>
	<path class="st3" d="M44.67,100.62c0.44,0,0.81,0.03,1.1,0.09l-0.22,2.05c-0.31-0.08-0.64-0.11-0.98-0.11
		c-0.88,0-1.6,0.29-2.14,0.86s-0.82,1.32-0.82,2.24v5.42h-2.2v-10.37h1.73l0.29,1.83h0.11c0.34-0.62,0.79-1.11,1.35-1.47
		C43.43,100.8,44.03,100.62,44.67,100.62z"/>
	<path class="st3" d="M54.18,111.18l-0.44-1.44h-0.08c-0.5,0.63-1,1.06-1.51,1.29c-0.51,0.23-1.16,0.34-1.95,0.34
		c-1.02,0-1.81-0.28-2.39-0.83c-0.57-0.55-0.86-1.33-0.86-2.33c0-1.07,0.4-1.88,1.19-2.42s2-0.84,3.63-0.89l1.79-0.06v-0.55
		c0-0.66-0.15-1.16-0.46-1.49c-0.31-0.33-0.79-0.49-1.44-0.49c-0.53,0-1.04,0.08-1.53,0.23s-0.96,0.34-1.41,0.55l-0.71-1.58
		c0.56-0.29,1.18-0.52,1.85-0.67s1.3-0.23,1.89-0.23c1.32,0,2.31,0.29,2.99,0.86s1.01,1.48,1.01,2.71v6.99H54.18z M50.89,109.68
		c0.8,0,1.44-0.22,1.93-0.67s0.73-1.07,0.73-1.88v-0.9l-1.33,0.06c-1.04,0.04-1.79,0.21-2.26,0.52c-0.47,0.31-0.71,0.78-0.71,1.42
		c0,0.46,0.14,0.82,0.41,1.07C49.93,109.55,50.34,109.68,50.89,109.68z"/>
	<path class="st3" d="M63.01,111.37c-1.57,0-2.76-0.46-3.58-1.37c-0.82-0.92-1.22-2.23-1.22-3.94c0-1.74,0.43-3.08,1.28-4.02
		c0.85-0.94,2.09-1.41,3.7-1.41c1.09,0,2.08,0.2,2.95,0.61L65.48,103c-0.93-0.36-1.7-0.54-2.31-0.54c-1.79,0-2.69,1.19-2.69,3.57
		c0,1.16,0.22,2.04,0.67,2.62c0.45,0.58,1.1,0.88,1.96,0.88c0.98,0,1.91-0.24,2.79-0.73v1.92c-0.39,0.23-0.81,0.4-1.26,0.5
		C64.19,111.32,63.65,111.37,63.01,111.37z"/>
	<path class="st3" d="M70.46,105.71l1.25-1.56l3.13-3.34h2.54l-4.17,4.45l4.44,5.92h-2.59l-3.33-4.55l-1.21,0.99v3.55h-2.19V96.59
		h2.19v7.12l-0.11,2H70.46z"/>
	<path class="st3" d="M79.19,98.06c0-0.39,0.11-0.7,0.32-0.91c0.22-0.21,0.52-0.32,0.92-0.32c0.39,0,0.69,0.11,0.9,0.32
		c0.22,0.21,0.32,0.52,0.32,0.91c0,0.38-0.11,0.67-0.32,0.89c-0.22,0.21-0.52,0.32-0.9,0.32c-0.4,0-0.71-0.11-0.92-0.32
		C79.29,98.73,79.19,98.44,79.19,98.06z M81.52,111.18h-2.2v-10.37h2.2V111.18z"/>
	<path class="st3" d="M93.8,111.18h-2.21v-6.38c0-0.8-0.16-1.4-0.48-1.79c-0.32-0.39-0.83-0.59-1.53-0.59
		c-0.93,0-1.61,0.28-2.04,0.83c-0.43,0.55-0.65,1.47-0.65,2.77v5.17h-2.2v-10.37h1.73l0.31,1.36h0.11c0.31-0.49,0.76-0.88,1.33-1.14
		c0.58-0.27,1.21-0.4,1.91-0.4c2.49,0,3.73,1.27,3.73,3.8V111.18z"/>
	<path class="st3" d="M105.62,100.81v1.21l-1.77,0.33c0.16,0.22,0.3,0.49,0.4,0.81c0.11,0.32,0.16,0.66,0.16,1.01
		c0,1.07-0.37,1.91-1.11,2.52c-0.74,0.61-1.75,0.92-3.05,0.92c-0.33,0-0.63-0.02-0.9-0.07c-0.48,0.29-0.71,0.64-0.71,1.03
		c0,0.24,0.11,0.42,0.33,0.53c0.22,0.12,0.63,0.18,1.22,0.18h1.81c1.14,0,2.01,0.24,2.61,0.73c0.59,0.49,0.89,1.19,0.89,2.11
		c0,1.18-0.48,2.08-1.45,2.72c-0.97,0.64-2.37,0.96-4.2,0.96c-1.41,0-2.49-0.25-3.24-0.75s-1.12-1.21-1.12-2.14
		c0-0.64,0.2-1.17,0.6-1.61c0.4-0.43,0.97-0.74,1.69-0.91c-0.29-0.12-0.54-0.33-0.73-0.6c-0.19-0.28-0.29-0.57-0.29-0.88
		c0-0.39,0.11-0.72,0.33-0.98s0.54-0.53,0.98-0.8c-0.54-0.23-0.97-0.61-1.31-1.13c-0.33-0.52-0.5-1.13-0.5-1.83
		c0-1.12,0.35-2,1.06-2.62s1.72-0.93,3.03-0.93c0.29,0,0.6,0.02,0.92,0.06c0.32,0.04,0.56,0.08,0.73,0.13H105.62z M97.47,112.79
		c0,0.47,0.21,0.84,0.64,1.1c0.43,0.26,1.03,0.38,1.81,0.38c1.2,0,2.09-0.17,2.68-0.52c0.59-0.34,0.88-0.8,0.88-1.37
		c0-0.45-0.16-0.77-0.48-0.96c-0.32-0.19-0.92-0.29-1.8-0.29h-1.67c-0.63,0-1.13,0.15-1.51,0.45
		C97.66,111.89,97.47,112.29,97.47,112.79z M98.42,104.17c0,0.65,0.17,1.15,0.5,1.5c0.33,0.35,0.81,0.52,1.44,0.52
		c1.28,0,1.91-0.68,1.91-2.04c0-0.67-0.16-1.2-0.47-1.56c-0.32-0.37-0.8-0.55-1.44-0.55c-0.64,0-1.12,0.18-1.45,0.54
		C98.58,102.95,98.42,103.47,98.42,104.17z"/>
	<path class="st3" d="M119.5,108.23c0,1.01-0.37,1.79-1.11,2.33c-0.74,0.54-1.79,0.81-3.17,0.81c-1.38,0-2.49-0.21-3.33-0.63v-1.9
		c1.22,0.56,2.35,0.84,3.4,0.84c1.36,0,2.03-0.41,2.03-1.23c0-0.26-0.07-0.48-0.23-0.66c-0.15-0.18-0.4-0.36-0.74-0.54
		s-0.82-0.4-1.43-0.64c-1.19-0.46-2-0.93-2.42-1.39c-0.42-0.46-0.63-1.06-0.63-1.8c0-0.89,0.36-1.58,1.07-2.07
		c0.72-0.49,1.69-0.74,2.92-0.74c1.22,0,2.37,0.25,3.46,0.74l-0.71,1.66c-1.12-0.46-2.06-0.69-2.82-0.69
		c-1.16,0-1.74,0.33-1.74,0.99c0,0.33,0.15,0.6,0.45,0.83c0.3,0.23,0.96,0.53,1.98,0.93c0.86,0.33,1.48,0.63,1.87,0.91
		c0.39,0.28,0.67,0.59,0.86,0.95C119.41,107.3,119.5,107.73,119.5,108.23z"/>
	<path class="st3" d="M129.2,111.18l-0.31-1.36h-0.11c-0.31,0.48-0.74,0.86-1.31,1.13c-0.57,0.27-1.21,0.41-1.94,0.41
		c-1.26,0-2.19-0.31-2.81-0.94c-0.62-0.62-0.93-1.57-0.93-2.84v-6.78h2.22v6.4c0,0.79,0.16,1.39,0.49,1.79
		c0.32,0.4,0.83,0.6,1.53,0.6c0.93,0,1.6-0.28,2.04-0.83c0.43-0.55,0.65-1.48,0.65-2.78v-5.17h2.21v10.37H129.2z"/>
	<path class="st3" d="M139.33,100.62c0.44,0,0.81,0.03,1.1,0.09l-0.22,2.05c-0.31-0.08-0.64-0.11-0.98-0.11
		c-0.88,0-1.6,0.29-2.14,0.86s-0.82,1.32-0.82,2.24v5.42h-2.2v-10.37h1.73l0.29,1.83h0.11c0.34-0.62,0.79-1.11,1.35-1.47
		C138.1,100.8,138.69,100.62,139.33,100.62z"/>
	<path class="st3" d="M144.71,111.18l-3.94-10.37h2.33l2.11,6.03c0.36,1.01,0.58,1.83,0.66,2.46h0.08c0.06-0.45,0.28-1.27,0.66-2.46
		l2.11-6.03h2.34l-3.96,10.37H144.71z"/>
	<path class="st3" d="M157.16,111.37c-1.61,0-2.87-0.47-3.78-1.41c-0.91-0.94-1.37-2.24-1.37-3.89c0-1.69,0.42-3.03,1.27-4
		s2-1.45,3.48-1.45c1.37,0,2.45,0.42,3.25,1.25c0.79,0.83,1.19,1.98,1.19,3.43v1.19h-6.91c0.03,1.01,0.3,1.78,0.82,2.32
		c0.51,0.54,1.23,0.81,2.17,0.81c0.61,0,1.18-0.06,1.71-0.17c0.53-0.12,1.1-0.31,1.7-0.58v1.79c-0.54,0.26-1.08,0.44-1.63,0.54
		C158.49,111.32,157.87,111.37,157.16,111.37z M156.76,102.29c-0.7,0-1.26,0.22-1.68,0.67c-0.42,0.44-0.67,1.09-0.75,1.94h4.71
		c-0.01-0.86-0.22-1.5-0.62-1.95C158.01,102.51,157.46,102.29,156.76,102.29z"/>
	<path class="st3" d="M162.12,100.81h2.4l2.11,5.88c0.32,0.84,0.53,1.63,0.64,2.36h0.08c0.06-0.34,0.16-0.76,0.31-1.25
		c0.15-0.49,0.94-2.82,2.38-6.99h2.38l-4.44,11.75c-0.81,2.16-2.15,3.23-4.03,3.23c-0.49,0-0.96-0.05-1.42-0.16v-1.74
		c0.33,0.08,0.71,0.11,1.13,0.11c1.06,0,1.81-0.62,2.24-1.85l0.38-0.98L162.12,100.81z"/>
	<path class="st3" d="M185.95,108.23c0,1.01-0.37,1.79-1.11,2.33c-0.74,0.54-1.79,0.81-3.17,0.81c-1.38,0-2.49-0.21-3.33-0.63v-1.9
		c1.22,0.56,2.35,0.84,3.4,0.84c1.36,0,2.04-0.41,2.04-1.23c0-0.26-0.08-0.48-0.23-0.66c-0.15-0.18-0.4-0.36-0.74-0.54
		c-0.34-0.19-0.82-0.4-1.44-0.64c-1.19-0.46-2-0.93-2.42-1.39c-0.42-0.46-0.63-1.06-0.63-1.8c0-0.89,0.36-1.58,1.07-2.07
		c0.71-0.49,1.69-0.74,2.92-0.74c1.22,0,2.37,0.25,3.46,0.74l-0.71,1.66c-1.12-0.46-2.06-0.69-2.82-0.69
		c-1.16,0-1.74,0.33-1.74,0.99c0,0.33,0.15,0.6,0.46,0.83c0.3,0.23,0.96,0.53,1.98,0.93c0.86,0.33,1.48,0.63,1.87,0.91
		c0.39,0.28,0.68,0.59,0.86,0.95S185.95,107.73,185.95,108.23z"/>
	<path class="st3" d="M192.19,109.59c0.54,0,1.08-0.08,1.61-0.25v1.66c-0.24,0.11-0.56,0.2-0.94,0.27c-0.38,0.07-0.78,0.11-1.2,0.11
		c-2.09,0-3.13-1.1-3.13-3.3v-5.59h-1.42v-0.98l1.52-0.81l0.75-2.19h1.36v2.31h2.95v1.67h-2.95v5.55c0,0.53,0.13,0.92,0.4,1.18
		C191.41,109.46,191.76,109.59,192.19,109.59z"/>
	<path class="st3" d="M202.37,111.18l-0.44-1.44h-0.08c-0.5,0.63-1,1.06-1.51,1.29c-0.51,0.23-1.16,0.34-1.95,0.34
		c-1.02,0-1.81-0.28-2.39-0.83s-0.86-1.33-0.86-2.33c0-1.07,0.4-1.88,1.19-2.42s2-0.84,3.63-0.89l1.79-0.06v-0.55
		c0-0.66-0.15-1.16-0.46-1.49s-0.79-0.49-1.44-0.49c-0.53,0-1.04,0.08-1.53,0.23c-0.49,0.16-0.96,0.34-1.41,0.55l-0.71-1.58
		c0.56-0.29,1.18-0.52,1.85-0.67s1.3-0.23,1.89-0.23c1.32,0,2.31,0.29,2.99,0.86s1.01,1.48,1.01,2.71v6.99H202.37z M199.08,109.68
		c0.8,0,1.44-0.22,1.93-0.67c0.48-0.45,0.73-1.07,0.73-1.88v-0.9l-1.33,0.06c-1.04,0.04-1.79,0.21-2.26,0.52
		c-0.47,0.31-0.71,0.78-0.71,1.42c0,0.46,0.14,0.82,0.41,1.07C198.12,109.55,198.54,109.68,199.08,109.68z"/>
	<path class="st3" d="M210.88,109.59c0.54,0,1.08-0.08,1.61-0.25v1.66c-0.24,0.11-0.56,0.2-0.94,0.27c-0.38,0.07-0.78,0.11-1.2,0.11
		c-2.09,0-3.13-1.1-3.13-3.3v-5.59h-1.42v-0.98l1.52-0.81l0.75-2.19h1.36v2.31h2.95v1.67h-2.95v5.55c0,0.53,0.13,0.92,0.4,1.18
		C210.1,109.46,210.45,109.59,210.88,109.59z"/>
	<path class="st3" d="M221.88,111.18l-0.31-1.36h-0.11c-0.31,0.48-0.74,0.86-1.31,1.13c-0.57,0.27-1.21,0.41-1.94,0.41
		c-1.26,0-2.19-0.31-2.81-0.94s-0.93-1.57-0.93-2.84v-6.78h2.22v6.4c0,0.79,0.16,1.39,0.49,1.79c0.33,0.4,0.83,0.6,1.53,0.6
		c0.92,0,1.6-0.28,2.04-0.83c0.43-0.55,0.65-1.48,0.65-2.78v-5.17h2.21v10.37H221.88z"/>
	<path class="st3" d="M233.73,108.23c0,1.01-0.37,1.79-1.11,2.33c-0.74,0.54-1.79,0.81-3.17,0.81c-1.38,0-2.49-0.21-3.33-0.63v-1.9
		c1.22,0.56,2.35,0.84,3.4,0.84c1.36,0,2.04-0.41,2.04-1.23c0-0.26-0.08-0.48-0.23-0.66c-0.15-0.18-0.4-0.36-0.74-0.54
		c-0.34-0.19-0.82-0.4-1.44-0.64c-1.19-0.46-2-0.93-2.42-1.39c-0.42-0.46-0.63-1.06-0.63-1.8c0-0.89,0.36-1.58,1.07-2.07
		c0.71-0.49,1.69-0.74,2.92-0.74c1.22,0,2.37,0.25,3.46,0.74l-0.71,1.66c-1.12-0.46-2.06-0.69-2.82-0.69
		c-1.16,0-1.74,0.33-1.74,0.99c0,0.33,0.15,0.6,0.46,0.83c0.3,0.23,0.96,0.53,1.98,0.93c0.86,0.33,1.48,0.63,1.87,0.91
		c0.39,0.28,0.68,0.59,0.86,0.95S233.73,107.73,233.73,108.23z"/>
</g>
</svg>
