<?xml version="1.0" encoding="UTF-8"?>
<!DOCTYPE svg PUBLIC "-//W3C//DTD SVG 1.1//EN" "http://www.w3.org/Graphics/SVG/1.1/DTD/svg11.dtd">
<svg version="1.1" xmlns="http://www.w3.org/2000/svg" xmlns:xlink="http://www.w3.org/1999/xlink" x="0" y="0" width="272.53" height="142.891" viewBox="0, 0, 272.53, 142.891">
  <g id="Layer_1">
    <g>
      <path d="M-0,116.608 L14.92,116.608 L14.92,120.48 L4.72,120.48 L4.72,127.616 L14.232,127.616 L14.232,131.493 L4.72,131.493 L4.72,142.466 L-0,142.466 z" fill="#FFFFFF"/>
      <path d="M19.529,116.608 L24.249,116.608 L24.249,142.466 L19.529,142.466 z" fill="#FFFFFF"/>
      <path d="M29.659,142.466 L29.659,116.608 L35.033,116.608 L41.71,127.698 C43.377,130.484 44.852,133.38 46.124,136.367 L46.201,136.367 C45.894,132.914 45.777,129.578 45.777,125.624 L45.777,116.608 L50.15,116.608 L50.15,142.466 L45.277,142.466 L38.519,131.111 C36.806,128.22 35.256,125.235 33.876,122.171 L33.759,122.207 C33.948,125.543 33.989,128.96 33.989,133.221 L33.989,142.467 z" fill="#FFFFFF"/>
      <path d="M77.422,131.913 C77.269,128.577 77.075,124.547 77.116,121.053 L76.999,121.053 C76.156,124.2 75.078,127.689 73.929,130.953 L70.169,142.153 L66.527,142.153 L63.074,131.104 C62.074,127.804 61.158,124.274 60.464,121.051 L60.387,121.051 C60.27,124.428 60.116,128.535 59.927,132.065 L59.35,142.465 L54.935,142.465 L56.662,116.607 L62.879,116.607 L66.256,127.007 C67.175,130.036 67.983,133.107 68.636,135.982 L68.753,135.982 C69.443,133.182 70.326,129.995 71.322,126.966 L74.888,116.606 L81.028,116.606 L82.528,142.464 L77.928,142.464 z" fill="#FFFFFF"/>
      <path d="M92.39,135.133 L90.163,142.458 L85.289,142.458 L93.575,116.6 L99.598,116.6 L107.998,142.458 L102.936,142.458 L100.596,135.133 z M99.79,131.567 L97.757,125.197 C97.257,123.624 96.838,121.861 96.457,120.365 L96.38,120.365 C95.997,121.865 95.614,123.665 95.154,125.197 L93.154,131.567 z" fill="#FFFFFF"/>
      <path d="M111.612,116.95 C113.973,116.582 116.359,116.402 118.748,116.414 C122.467,116.414 125.001,117.027 126.727,118.488 C128.213,119.79 129.031,121.694 128.954,123.668 C128.932,126.604 127.055,129.205 124.275,130.15 L124.275,130.267 C126.119,130.957 127.228,132.76 127.881,135.253 C128.384,137.703 129.063,140.114 129.914,142.466 L125.042,142.466 C124.291,140.486 123.713,138.445 123.315,136.366 C122.584,132.989 121.359,131.917 118.672,131.84 L116.292,131.84 L116.292,142.465 L111.612,142.465 z M116.291,128.382 L119.091,128.382 C122.273,128.382 124.271,126.696 124.271,124.122 C124.271,121.282 122.271,119.979 119.209,119.979 C118.231,119.952 117.253,120.029 116.292,120.209 z" fill="#FFFFFF"/>
      <path d="M133.445,116.608 L138.124,116.608 L138.124,128.5 L138.241,128.5 C138.854,127.5 139.508,126.584 140.121,125.7 L146.874,116.607 L152.708,116.607 L143.808,127.615 L153.284,142.465 L147.757,142.465 L140.435,130.61 L138.135,133.374 L138.135,142.467 L133.456,142.467 L133.456,116.608 z" fill="#FFFFFF"/>
      <path d="M168.974,121.517 L161.991,121.517 L161.991,116.608 L181.868,116.608 L181.868,121.517 L174.808,121.517 L174.808,142.466 L168.974,142.466 z" fill="#FFFFFF"/>
      <path d="M184.973,116.991 C187.549,116.579 190.155,116.386 192.763,116.414 C196.599,116.414 199.286,116.991 201.125,118.488 C202.756,119.796 203.656,121.81 203.541,123.898 C203.488,126.754 201.668,129.277 198.974,130.227 L198.974,130.344 C200.774,131.074 201.774,132.76 202.427,135.144 C203.234,138.097 204,141.473 204.501,142.469 L198.514,142.469 C197.745,140.519 197.155,138.503 196.752,136.446 C196.021,133.187 194.908,132.339 192.492,132.303 L190.765,132.303 L190.765,142.469 L184.973,142.469 z M190.766,128.076 L193.066,128.076 C195.983,128.076 197.709,126.62 197.709,124.352 C197.709,122.012 196.1,120.786 193.409,120.786 C192.522,120.747 191.634,120.813 190.763,120.98 L190.763,128.08 z" fill="#FFFFFF"/>
      <path d="M213.56,116.608 L213.56,131.458 C213.56,135.948 215.287,138.211 218.239,138.211 C221.309,138.211 222.995,136.065 222.995,131.458 L222.995,116.608 L228.824,116.608 L228.824,131.108 C228.824,139.087 224.793,142.888 218.045,142.888 C211.522,142.888 207.726,139.246 207.726,131.032 L207.726,116.608 z" fill="#FFFFFF"/>
      <path d="M234.085,136.439 C236.094,137.464 238.312,138.014 240.567,138.048 C243.254,138.048 244.674,136.934 244.674,135.248 C244.674,133.639 243.448,132.714 240.337,131.642 C236.037,130.109 233.201,127.729 233.201,123.969 C233.201,119.555 236.92,116.22 242.983,116.22 C245.252,116.155 247.508,116.599 249.583,117.52 L248.283,122.199 C246.612,121.382 244.774,120.962 242.914,120.973 C240.38,120.973 239.154,122.163 239.154,123.466 C239.154,125.116 240.574,125.846 243.954,127.113 C248.521,128.804 250.631,131.179 250.631,134.827 C250.631,139.164 247.331,142.847 240.231,142.847 C237.698,142.865 235.193,142.315 232.901,141.238 z" fill="#FFFFFF"/>
      <path d="M259.637,121.517 L252.654,121.517 L252.654,116.608 L272.531,116.608 L272.531,121.517 L265.471,121.517 L265.471,142.466 L259.637,142.466 z" fill="#FFFFFF"/>
      <path d="M184.59,0.01 L184.59,21.235 L204.599,21.235 L204.599,108.751 L228.608,108.751 L228.608,21.235 L248.617,21.235 L248.617,0.01 z" fill="#FFFFFF"/>
      <path d="M165.372,96.507 L165.372,28.54 L154.372,95 C145.244,94.086 136.054,93.962 126.904,94.627 L115.962,28.535 L115.962,95.776 C108.114,96.87 100.349,98.489 92.719,100.624 L95.779,0 L130.924,0 L140.671,70.812 L150.413,0 L185.563,0 L188.671,102.39 C181.063,99.847 173.274,97.881 165.371,96.51" fill="#FFFFFF"/>
      <path d="M23.907,0.01 L23.907,21.235 L43.916,21.235 L43.916,108.751 L68.032,108.751 L68.032,66.822 L89.084,66.822 L89.084,46.639 L68.033,46.639 L68.033,21.239 L95.873,21.239 L95.873,0.01 z" fill="#FFFFFF"/>
    </g>
  </g>
</svg>
