<svg xmlns="http://www.w3.org/2000/svg" width="272.53" height="142.891" viewBox="0 0 272.53 142.891"><defs><style>.a{fill:#203366;}.b{fill:#0097ae;}</style></defs><g transform="translate(-388.98 -246.31)"><path class="a" d="M388.98,474.58H403.9v3.872H393.7v7.136h9.512v3.877H393.7v10.973h-4.72Z" transform="translate(0 -111.662)"/><rect class="a" width="4.72" height="25.858" transform="translate(408.509 362.918)"/><path class="a" d="M447.04,500.438V474.58h5.374l6.677,11.09a71.212,71.212,0,0,1,4.414,8.669h.077c-.307-3.453-.424-6.789-.424-10.743V474.58h4.373v25.858h-4.873L455.9,489.083a90.2,90.2,0,0,1-4.643-8.94l-.117.036c.189,3.336.23,6.753.23,11.014v9.246Z" transform="translate(-28.401 -111.662)"/><path class="a" d="M519.007,489.875c-.153-3.336-.347-7.366-.306-10.86h-.117c-.843,3.147-1.921,6.636-3.07,9.9l-3.76,11.2h-3.642l-3.453-11.049c-1-3.3-1.916-6.83-2.61-10.053h-.077c-.117,3.377-.271,7.484-.46,11.014l-.577,10.4H496.52l1.727-25.858h6.217l3.377,10.4c.919,3.029,1.727,6.1,2.38,8.975h.117c.69-2.8,1.573-5.987,2.569-9.016l3.566-10.36h6.14l1.5,25.858h-4.6Z" transform="translate(-52.605 -111.652)"/><path class="a" d="M563.041,493.1l-2.227,7.325H555.94l8.286-25.858h6.023l8.4,25.858h-5.062l-2.34-7.325Zm7.4-3.566-2.033-6.37c-.5-1.573-.919-3.336-1.3-4.832h-.077c-.383,1.5-.766,3.3-1.226,4.832l-2,6.37Z" transform="translate(-81.671 -111.657)"/><path class="a" d="M607.47,474.736a44.844,44.844,0,0,1,7.136-.536c3.719,0,6.253.613,7.979,2.074a6.546,6.546,0,0,1,2.227,5.18,6.9,6.9,0,0,1-4.679,6.482v.117c1.844.69,2.953,2.493,3.606,4.986a51.86,51.86,0,0,0,2.033,7.213H620.9a36.661,36.661,0,0,1-1.727-6.1c-.731-3.377-1.956-4.449-4.643-4.526h-2.38v10.625H607.47Zm4.679,11.432h2.8c3.182,0,5.18-1.686,5.18-4.26,0-2.84-2-4.143-5.062-4.143a13.77,13.77,0,0,0-2.917.23Z" transform="translate(-106.878 -111.476)"/><path class="a" d="M650.21,474.58h4.679v11.892h.117c.613-1,1.267-1.916,1.88-2.8l6.753-9.093h5.834l-8.9,11.008,9.476,14.85h-5.527L657.2,488.582l-2.3,2.764v9.093h-4.679V474.58Z" transform="translate(-127.785 -111.662)"/><path class="b" d="M713.073,479.489H706.09V474.58h19.877v4.909h-7.06v20.949h-5.834Z" transform="translate(-155.119 -111.662)"/><path class="b" d="M751.08,474.777a46.187,46.187,0,0,1,7.79-.577c3.836,0,6.523.577,8.362,2.074a6.477,6.477,0,0,1,2.416,5.41,6.845,6.845,0,0,1-4.567,6.329v.117c1.8.73,2.8,2.416,3.453,4.8.807,2.953,1.573,6.329,2.074,7.325h-5.987a34.445,34.445,0,0,1-1.762-6.023c-.731-3.259-1.844-4.107-4.26-4.143h-1.727v10.166H751.08Zm5.793,11.085h2.3c2.917,0,4.643-1.456,4.643-3.724,0-2.34-1.609-3.566-4.3-3.566a11.4,11.4,0,0,0-2.646.194v7.1Z" transform="translate(-177.127 -111.476)"/><path class="b" d="M801.454,474.58v14.85c0,4.49,1.727,6.753,4.679,6.753,3.07,0,4.756-2.146,4.756-6.753V474.58h5.829v14.5c0,7.979-4.031,11.78-10.779,11.78-6.523,0-10.319-3.642-10.319-11.856V474.58Z" transform="translate(-198.914 -111.662)"/><path class="b" d="M846.085,494.039a14.747,14.747,0,0,0,6.482,1.609c2.687,0,4.107-1.114,4.107-2.8,0-1.609-1.226-2.534-4.337-3.606-4.3-1.533-7.136-3.913-7.136-7.673,0-4.414,3.719-7.749,9.782-7.749a15.2,15.2,0,0,1,6.6,1.3l-1.3,4.679a12.059,12.059,0,0,0-5.369-1.226c-2.534,0-3.76,1.19-3.76,2.493,0,1.65,1.42,2.38,4.8,3.647,4.567,1.691,6.677,4.066,6.677,7.714,0,4.337-3.3,8.02-10.4,8.02a16.952,16.952,0,0,1-7.33-1.609Z" transform="translate(-223.02 -111.29)"/><path class="b" d="M890.553,479.489H883.57V474.58h19.877v4.909h-7.06v20.949h-5.834Z" transform="translate(-241.936 -111.662)"/><path class="a" d="M750.33,246.33v21.225h20.009v87.516h24.009V267.555h20.009V246.33Z" transform="translate(-176.76 -0.01)"/><path class="a" d="M643.136,342.817V274.85l-11,66.46a159.57,159.57,0,0,0-27.468-.373l-10.942-66.092v67.241a176.86,176.86,0,0,0-23.243,4.848l3.06-100.624h35.145l9.747,70.812,9.742-70.812h35.15L666.435,348.7a159.522,159.522,0,0,0-23.3-5.88" transform="translate(-88.784)"/><path class="a" d="M435.78,246.33v21.225h20.009v87.516h24.116V313.142h21.052V292.959H479.906v-25.4h27.84V246.33Z" transform="translate(-22.893 -0.01)"/></g></svg>