<svg xmlns="http://www.w3.org/2000/svg" width="606.616" height="29.842" viewBox="0 0 606.616 29.842"><defs><style>.a{fill:#0097ae;}</style></defs><g transform="translate(0 0.051)"><path class="a" d="M275.67,370.2V347.48h4.522l5.376,16.082c.5,1.5.863,2.62,1.086,3.371.256-.8.663-2.045,1.206-3.651l5.44-15.8h4.05V370.2h-2.9V351.179l-6.6,19.021h-2.716l-6.575-19.349V370.2Z" transform="translate(-275.67 -347.099)"/><path class="a" d="M319.3,369.654a10.242,10.242,0,0,1-2.988,1.853,8.445,8.445,0,0,1-3.076.543,6.016,6.016,0,0,1-4.17-1.318,4.394,4.394,0,0,1-1.454-3.387,4.578,4.578,0,0,1,1.989-3.811,6.807,6.807,0,0,1,2.013-.919,20.063,20.063,0,0,1,2.477-.423,24.9,24.9,0,0,0,4.977-.959v-.727a3.084,3.084,0,0,0-.8-2.4,4.665,4.665,0,0,0-3.2-.943,4.969,4.969,0,0,0-2.908.687,4.226,4.226,0,0,0-1.382,2.445l-2.732-.375a6.679,6.679,0,0,1,1.23-2.828,5.4,5.4,0,0,1,2.461-1.662,11.071,11.071,0,0,1,3.739-.575,9.953,9.953,0,0,1,3.419.5,4.562,4.562,0,0,1,1.941,1.246,4.4,4.4,0,0,1,.871,1.9,16.434,16.434,0,0,1,.136,2.572V364.8a39.633,39.633,0,0,0,.176,4.921,6.232,6.232,0,0,0,.711,1.973h-2.916a5.7,5.7,0,0,1-.559-2.029m-.232-6.231a21.2,21.2,0,0,1-4.562,1.055,10.138,10.138,0,0,0-2.4.559,2.341,2.341,0,0,0-1.1.9,2.485,2.485,0,0,0,.455,3.2,3.651,3.651,0,0,0,2.477.743,5.76,5.76,0,0,0,2.868-.7,4.394,4.394,0,0,0,1.845-1.933,6.805,6.805,0,0,0,.447-2.788Z" transform="translate(-282.093 -348.582)"/><path class="a" d="M55.61,23.21V.49H58.4V13.44L65,6.745h3.611l-6.287,6.111L69.247,23.21H65.8l-5.44-8.42L58.4,16.683V23.21Z" transform="translate(-11.184 -0.109)"/><path class="a" d="M351.534,347.48H354.3v3.2H351.51Zm0,6.255H354.3V370.2H351.51Z" transform="translate(-290.923 -347.099)"/><path class="a" d="M360.7,371.681V355.216h2.516v2.341a5.912,5.912,0,0,1,5.233-2.708,6.816,6.816,0,0,1,2.74.535,4.306,4.306,0,0,1,1.869,1.4,5.44,5.44,0,0,1,.863,2.061,15.829,15.829,0,0,1,.16,2.716v10.122h-2.756v-10.01a7.58,7.58,0,0,0-.328-2.556,2.732,2.732,0,0,0-1.158-1.342,3.667,3.667,0,0,0-1.941-.511,4.522,4.522,0,0,0-3.076,1.134c-.863.759-1.3,2.189-1.3,4.3v8.987Z" transform="translate(-292.771 -348.58)"/><path class="a" d="M382.378,373.048l2.716.4a2.565,2.565,0,0,0,.943,1.829,4.634,4.634,0,0,0,2.836.8,4.929,4.929,0,0,0,2.988-.8,3.787,3.787,0,0,0,1.43-2.173,18.076,18.076,0,0,0,.2-3.579,5.728,5.728,0,0,1-4.554,2.157,6.215,6.215,0,0,1-5.257-2.445,9.467,9.467,0,0,1-1.861-5.88,10.928,10.928,0,0,1,.855-4.346,6.8,6.8,0,0,1,2.469-3.076,6.671,6.671,0,0,1,3.811-1.086,5.888,5.888,0,0,1,4.793,2.357v-1.981h2.6v14.22a13.316,13.316,0,0,1-.8,5.456,5.736,5.736,0,0,1-2.477,2.532,8.66,8.66,0,0,1-4.178.927,7.869,7.869,0,0,1-4.793-1.326,4.482,4.482,0,0,1-1.75-3.994m2.309-9.89a7.258,7.258,0,0,0,1.286,4.729,4.242,4.242,0,0,0,6.447,0,6.844,6.844,0,0,0,1.3-4.641,6.735,6.735,0,0,0-1.342-4.554,4.122,4.122,0,0,0-3.2-1.534,4.034,4.034,0,0,0-3.2,1.51,6.7,6.7,0,0,0-1.3,4.49" transform="translate(-297.018 -348.581)"/><path class="a" d="M417.269,370.093V355.777H414.8V353.6h2.469v-1.75a7.542,7.542,0,0,1,.3-2.461,3.579,3.579,0,0,1,1.414-1.757,5.09,5.09,0,0,1,2.852-.679,13.94,13.94,0,0,1,2.6.28l-.423,2.437a9.314,9.314,0,0,0-1.646-.16,2.453,2.453,0,0,0-1.8.543,2.932,2.932,0,0,0-.527,2.029V353.6h3.2v2.173h-3.2V370.07Z" transform="translate(-303.651 -346.992)"/><path class="a" d="M428.51,347.48H431.3v3.2H428.51Zm0,6.255H431.3V370.2H428.51Z" transform="translate(-306.409 -347.099)"/><path class="a" d="M437.68,371.681V355.216h2.508v2.341a5.92,5.92,0,0,1,5.241-2.708,6.807,6.807,0,0,1,2.732.535,4.258,4.258,0,0,1,1.869,1.4,5.457,5.457,0,0,1,.871,2.061,16.068,16.068,0,0,1,.152,2.716v10.122h-2.788v-10.01a7.58,7.58,0,0,0-.328-2.556,2.676,2.676,0,0,0-1.15-1.342,3.715,3.715,0,0,0-1.949-.511,4.53,4.53,0,0,0-3.076,1.134q-1.294,1.142-1.294,4.3v8.987Z" transform="translate(-308.253 -348.58)"/><path class="a" d="M470.637,369.654a10.315,10.315,0,0,1-2.98,1.853,8.507,8.507,0,0,1-3.076.543,5.991,5.991,0,0,1-4.17-1.318,4.37,4.37,0,0,1-1.462-3.387,4.562,4.562,0,0,1,2-3.811,6.673,6.673,0,0,1,2.005-.919,20.055,20.055,0,0,1,2.477-.423,24.768,24.768,0,0,0,4.977-.959v-.727a3.084,3.084,0,0,0-.8-2.4,4.657,4.657,0,0,0-3.2-.943,4.953,4.953,0,0,0-2.908.687,4.234,4.234,0,0,0-1.39,2.445l-2.732-.375a6.783,6.783,0,0,1,1.23-2.828,5.4,5.4,0,0,1,2.461-1.662,11.136,11.136,0,0,1,3.739-.575,9.969,9.969,0,0,1,3.427.5,4.529,4.529,0,0,1,1.933,1.246,4.4,4.4,0,0,1,.871,1.9,15.473,15.473,0,0,1,.136,2.572V364.8a38.99,38.99,0,0,0,.184,4.921,6.024,6.024,0,0,0,.7,1.973h-2.916a6.048,6.048,0,0,1-.559-2.029m-.232-6.231a21.226,21.226,0,0,1-4.554,1.055,10.228,10.228,0,0,0-2.4.559,2.437,2.437,0,0,0-.639,4.09,3.619,3.619,0,0,0,2.469.743,5.736,5.736,0,0,0,2.868-.7,4.346,4.346,0,0,0,1.845-1.933,6.807,6.807,0,0,0,.447-2.788Z" transform="translate(-312.53 -348.582)"/><path class="a" d="M482.59,371.681V355.216h2.516v2.341a5.912,5.912,0,0,1,5.233-2.708,6.816,6.816,0,0,1,2.74.535,4.306,4.306,0,0,1,1.869,1.4,5.441,5.441,0,0,1,.863,2.061,15.832,15.832,0,0,1,.16,2.716v10.122h-2.788v-10.01a7.581,7.581,0,0,0-.328-2.556,2.693,2.693,0,0,0-1.158-1.342,3.667,3.667,0,0,0-1.941-.511,4.53,4.53,0,0,0-3.076,1.134q-1.294,1.142-1.294,4.3v8.987Z" transform="translate(-317.285 -348.58)"/><path class="a" d="M515.579,365.649l2.74.359a7.094,7.094,0,0,1-2.3,4.442,6.711,6.711,0,0,1-4.546,1.6,7.07,7.07,0,0,1-5.432-2.2,8.938,8.938,0,0,1-2.061-6.335,11.441,11.441,0,0,1,.887-4.665,6.135,6.135,0,0,1,2.692-3,7.988,7.988,0,0,1,3.922-1,6.782,6.782,0,0,1,4.386,1.358,6.191,6.191,0,0,1,2.189,3.851l-2.708.415a4.554,4.554,0,0,0-1.374-2.493,3.555,3.555,0,0,0-2.4-.8,4.338,4.338,0,0,0-3.427,1.51q-1.318,1.51-1.318,4.793c0,2.2.423,3.819,1.27,4.793a4.13,4.13,0,0,0,3.323,1.5,3.906,3.906,0,0,0,2.74-1.007,5,5,0,0,0,1.4-3.1" transform="translate(-321.586 -348.579)"/><path class="a" d="M525.34,347.48h2.788v3.2H525.34Zm0,6.255h2.788V370.2H525.34Z" transform="translate(-325.883 -347.099)"/><path class="a" d="M545.057,369.654a10.314,10.314,0,0,1-2.98,1.853,8.548,8.548,0,0,1-3.084.543,6.016,6.016,0,0,1-4.17-1.318,4.394,4.394,0,0,1-1.454-3.387,4.578,4.578,0,0,1,1.989-3.811,6.759,6.759,0,0,1,2.005-.919,20.544,20.544,0,0,1,2.484-.423,24.89,24.89,0,0,0,4.977-.959v-.727a3.084,3.084,0,0,0-.8-2.4,4.682,4.682,0,0,0-3.2-.943,4.969,4.969,0,0,0-2.908.687,4.226,4.226,0,0,0-1.382,2.445l-2.732-.375a6.774,6.774,0,0,1,1.222-2.828,5.385,5.385,0,0,1,2.469-1.662,11.058,11.058,0,0,1,3.731-.575,9.969,9.969,0,0,1,3.427.5A4.561,4.561,0,0,1,546.6,356.6a4.5,4.5,0,0,1,.871,1.9,16.423,16.423,0,0,1,.136,2.572V364.8a39.639,39.639,0,0,0,.176,4.921,6.23,6.23,0,0,0,.711,1.973h-2.916a5.864,5.864,0,0,1-.559-2.029m-.232-6.231a21.2,21.2,0,0,1-4.522,1.047,10.136,10.136,0,0,0-2.4.559,2.341,2.341,0,0,0-1.1.9,2.485,2.485,0,0,0,.455,3.2,3.651,3.651,0,0,0,2.477.743,5.76,5.76,0,0,0,2.868-.7,4.434,4.434,0,0,0,1.845-1.933,6.807,6.807,0,0,0,.447-2.788Z" transform="translate(-327.498 -348.582)"/><rect class="a" width="2.788" height="22.72" transform="translate(224.662 0.381)"/><path class="a" d="M577.58,371.68V355.215h2.5v2.317a5.825,5.825,0,0,1,2.061-1.949,5.72,5.72,0,0,1,2.924-.735,5.456,5.456,0,0,1,3,.759,4.122,4.122,0,0,1,1.654,2.125,5.9,5.9,0,0,1,5.081-2.884,4.969,4.969,0,0,1,3.763,1.358,5.77,5.77,0,0,1,1.318,4.17v11.3h-2.8V361.294a7.574,7.574,0,0,0-.272-2.4,2.4,2.4,0,0,0-.983-1.182,3.067,3.067,0,0,0-1.678-.455,3.914,3.914,0,0,0-2.884,1.158,4.99,4.99,0,0,0-1.142,3.7V371.7h-2.8V360.983a4.705,4.705,0,0,0-.631-2.82,2.572,2.572,0,0,0-2.229-.935,4.051,4.051,0,0,0-2.181.623,3.539,3.539,0,0,0-1.446,1.813,10.129,10.129,0,0,0-.447,3.443v8.54Z" transform="translate(-336.389 -348.578)"/><path class="a" d="M621.547,369.646a10.384,10.384,0,0,1-2.988,1.853,8.508,8.508,0,0,1-3.076.543,6.015,6.015,0,0,1-4.17-1.318,4.393,4.393,0,0,1-1.454-3.387,4.578,4.578,0,0,1,1.989-3.811,6.671,6.671,0,0,1,2.005-.919,20.267,20.267,0,0,1,2.508-.455,25.013,25.013,0,0,0,4.977-.959v-.727a3.084,3.084,0,0,0-.8-2.4,4.682,4.682,0,0,0-3.2-.943,4.969,4.969,0,0,0-2.908.687,4.274,4.274,0,0,0-1.39,2.445l-2.724-.375a6.774,6.774,0,0,1,1.222-2.828,5.384,5.384,0,0,1,2.469-1.662,11.056,11.056,0,0,1,3.731-.575,9.969,9.969,0,0,1,3.427.5,4.481,4.481,0,0,1,1.933,1.246,4.315,4.315,0,0,1,.871,1.9,15.21,15.21,0,0,1,.144,2.572v3.723a39.627,39.627,0,0,0,.176,4.921,6.215,6.215,0,0,0,.7,1.973H622.09a5.7,5.7,0,0,1-.559-2.029m-.232-6.231a21.2,21.2,0,0,1-4.562,1.055,10.332,10.332,0,0,0-2.4.559,2.437,2.437,0,0,0-.639,4.09,3.651,3.651,0,0,0,2.477.743,5.7,5.7,0,0,0,2.86-.7,4.346,4.346,0,0,0,1.845-1.933,6.655,6.655,0,0,0,.455-2.788Z" transform="translate(-342.881 -348.574)"/><path class="a" d="M633.46,371.682V355.217h2.508v2.5a6.9,6.9,0,0,1,1.773-2.317,3.14,3.14,0,0,1,1.8-.551,5.416,5.416,0,0,1,2.86.895l-.959,2.588a4,4,0,0,0-2.045-.6,2.668,2.668,0,0,0-1.646.551,2.963,2.963,0,0,0-1.039,1.526,11.061,11.061,0,0,0-.463,3.251v8.62Z" transform="translate(-347.628 -348.581)"/><path class="a" d="M371.44,23.21V.49h2.8V13.44l6.6-6.695h3.611l-6.287,6.111,6.926,10.354h-3.443l-5.44-8.42-1.965,1.893V23.21Z" transform="translate(-74.703 -0.109)"/><path class="a" d="M678.389,366.377l2.884.359a7.046,7.046,0,0,1-2.524,3.923,7.621,7.621,0,0,1-4.713,1.39,7.525,7.525,0,0,1-5.728-2.221,8.7,8.7,0,0,1-2.117-6.239,9.079,9.079,0,0,1,2.141-6.447,7.246,7.246,0,0,1,5.544-2.293,7.062,7.062,0,0,1,5.4,2.245,8.97,8.97,0,0,1,2.093,6.327v.743H669.074a6.391,6.391,0,0,0,1.534,4.155,4.578,4.578,0,0,0,3.443,1.438,4.242,4.242,0,0,0,2.62-.8,5.344,5.344,0,0,0,1.718-2.572m-9.155-4.514h9.187a5.592,5.592,0,0,0-1.055-3.116,4.258,4.258,0,0,0-3.459-1.6,4.434,4.434,0,0,0-3.2,1.286,5.081,5.081,0,0,0-1.454,3.443" transform="translate(-354.21 -348.58)"/><path class="a" d="M695.519,367.83l.4,2.461a10.147,10.147,0,0,1-2.109.248,4.793,4.793,0,0,1-2.357-.479,2.66,2.66,0,0,1-1.174-1.262,9.858,9.858,0,0,1-.344-3.3v-9.491H687.89v-2.173h2.045V349.76l2.78-1.67v5.744h2.8v2.173h-2.8v9.627a4.976,4.976,0,0,0,.144,1.534,1.166,1.166,0,0,0,.479.543,1.853,1.853,0,0,0,.951.2,9.125,9.125,0,0,0,1.23-.1" transform="translate(-358.575 -347.221)"/><path class="a" d="M699.85,366.759l2.764-.431a3.835,3.835,0,0,0,1.294,2.54,4.521,4.521,0,0,0,2.964.879,4.314,4.314,0,0,0,2.852-.8,2.333,2.333,0,0,0,.935-1.837,1.694,1.694,0,0,0-.8-1.486,12.261,12.261,0,0,0-2.852-.943,26.55,26.55,0,0,1-4.258-1.342,4.05,4.05,0,0,1-2.4-3.771,4.369,4.369,0,0,1,.5-2.045,4.681,4.681,0,0,1,1.374-1.6,5.928,5.928,0,0,1,1.773-.8,8.718,8.718,0,0,1,2.4-.328,9.441,9.441,0,0,1,3.4.559,4.578,4.578,0,0,1,2.165,1.51,5.913,5.913,0,0,1,.959,2.548l-2.724.375a3.02,3.02,0,0,0-1.078-1.989,3.994,3.994,0,0,0-2.524-.711,4.625,4.625,0,0,0-2.74.631,1.861,1.861,0,0,0-.8,1.494,1.518,1.518,0,0,0,.344.975,2.4,2.4,0,0,0,1.07.743c.28.1,1.1.344,2.461.711a34.1,34.1,0,0,1,4.13,1.294,4.114,4.114,0,0,1,1.837,1.47,4.05,4.05,0,0,1,.671,2.4,4.665,4.665,0,0,1-.8,2.62,5.248,5.248,0,0,1-2.349,1.909,8.589,8.589,0,0,1-3.475.671,7.684,7.684,0,0,1-4.889-1.334,6.215,6.215,0,0,1-2.149-3.946" transform="translate(-360.98 -348.57)"/><path class="a" d="M735.491,371.769,730.45,355.3h2.884l2.62,9.507.975,3.531c.04-.176.328-1.3.855-3.4l2.62-9.643h2.868l2.461,9.547.8,3.148.943-3.2,2.82-9.523h2.716l-5.145,16.465h-2.9l-2.62-9.858-.631-2.8-3.339,12.662Z" transform="translate(-367.134 -348.668)"/><path class="a" d="M760.71,363.452q0-4.578,2.541-6.775a7.637,7.637,0,0,1,5.177-1.829,7.413,7.413,0,0,1,5.592,2.221,8.462,8.462,0,0,1,2.149,6.151,10.824,10.824,0,0,1-.951,4.993,6.71,6.71,0,0,1-2.772,2.828,8.093,8.093,0,0,1-3.994,1.007,7.4,7.4,0,0,1-5.592-2.213,8.866,8.866,0,0,1-2.133-6.391m2.868,0a6.952,6.952,0,0,0,1.382,4.729,4.594,4.594,0,0,0,6.926,0,7.219,7.219,0,0,0,1.382-4.793,6.783,6.783,0,0,0-1.39-4.626,4.594,4.594,0,0,0-6.918,0,6.938,6.938,0,0,0-1.382,4.729" transform="translate(-373.22 -348.58)"/><path class="a" d="M784.43,371.682V355.217h2.509v2.5a6.791,6.791,0,0,1,1.773-2.317,3.132,3.132,0,0,1,1.79-.551,5.416,5.416,0,0,1,2.868.895l-.959,2.588a4,4,0,0,0-2.045-.6,2.652,2.652,0,0,0-1.646.551,2.964,2.964,0,0,0-1.039,1.526,11.061,11.061,0,0,0-.463,3.251v8.62Z" transform="translate(-377.99 -348.581)"/><path class="a" d="M522.41,23.21V.49H525.2V13.44L531.8,6.745h3.611l-6.3,6.111,6.934,10.354h-3.443l-5.44-8.42L525.2,16.683V23.21Z" transform="translate(-105.066 -0.109)"/><path class="a" d="M829.971,370.091V355.775H827.51V353.6h2.461v-1.75a7.775,7.775,0,0,1,.328-2.469,3.547,3.547,0,0,1,1.422-1.758,5.056,5.056,0,0,1,2.844-.679,13.867,13.867,0,0,1,2.6.28l-.423,2.437a9.3,9.3,0,0,0-1.6-.16,2.444,2.444,0,0,0-1.8.543,2.931,2.931,0,0,0-.527,2.029v1.518h3.2v2.181h-3.2v14.292Z" transform="translate(-386.655 -346.99)"/><path class="a" d="M839.9,363.452q0-4.578,2.54-6.775a7.637,7.637,0,0,1,5.177-1.829,7.413,7.413,0,0,1,5.592,2.221,8.492,8.492,0,0,1,2.149,6.151,10.929,10.929,0,0,1-.951,4.993,6.71,6.71,0,0,1-2.772,2.828,8.092,8.092,0,0,1-3.994,1.007,7.382,7.382,0,0,1-5.592-2.213,8.866,8.866,0,0,1-2.133-6.391m2.868,0a6.928,6.928,0,0,0,1.374,4.729,4.6,4.6,0,0,0,6.934,0,7.16,7.16,0,0,0,1.382-4.793,6.783,6.783,0,0,0-1.39-4.626,4.6,4.6,0,0,0-6.926,0,6.979,6.979,0,0,0-1.374,4.729" transform="translate(-389.146 -348.58)"/><path class="a" d="M863.62,371.682V355.217h2.508v2.5A6.791,6.791,0,0,1,867.9,355.4a3.132,3.132,0,0,1,1.789-.551,5.416,5.416,0,0,1,2.868.895l-.959,2.588a4.035,4.035,0,0,0-2.045-.6,2.652,2.652,0,0,0-1.646.551,2.964,2.964,0,0,0-1.039,1.526,10.811,10.811,0,0,0-.463,3.251v8.62Z" transform="translate(-393.917 -348.581)"/><path class="a" d="M894.389,367.83l.4,2.461a10.147,10.147,0,0,1-2.109.248,4.793,4.793,0,0,1-2.357-.479,2.66,2.66,0,0,1-1.174-1.262,9.86,9.86,0,0,1-.343-3.3v-9.491H886.76v-2.173h2.045V349.76l2.78-1.67v5.744h2.8v2.173h-2.8v9.627a4.98,4.98,0,0,0,.16,1.558,1.168,1.168,0,0,0,.479.543,1.83,1.83,0,0,0,.951.2,9.128,9.128,0,0,0,1.23-.1" transform="translate(-398.571 -347.221)"/><path class="a" d="M900.12,370.2V347.48h2.788v8.149a6.231,6.231,0,0,1,4.929-2.261,6.646,6.646,0,0,1,3.2.719,4.274,4.274,0,0,1,1.933,1.989,9.276,9.276,0,0,1,.575,3.691V370.2h-2.788V359.767a4.291,4.291,0,0,0-.911-3.044,3.347,3.347,0,0,0-2.564-.959,4.609,4.609,0,0,0-2.333.647,3.627,3.627,0,0,0-1.55,1.742,7.99,7.99,0,0,0-.471,3.044v9Z" transform="translate(-401.258 -347.099)"/><path class="a" d="M933.609,366.377l2.884.359a7.046,7.046,0,0,1-2.524,3.922,7.622,7.622,0,0,1-4.713,1.39,7.526,7.526,0,0,1-5.728-2.221,8.7,8.7,0,0,1-2.117-6.239,9.079,9.079,0,0,1,2.141-6.447,7.246,7.246,0,0,1,5.544-2.293,7.062,7.062,0,0,1,5.4,2.245,8.97,8.97,0,0,1,2.093,6.327v.743H924.278a6.391,6.391,0,0,0,1.534,4.155,4.578,4.578,0,0,0,3.443,1.438,4.242,4.242,0,0,0,2.62-.8,5.345,5.345,0,0,0,1.718-2.572m-9.163-4.506h9.2a5.592,5.592,0,0,0-1.055-3.116,4.258,4.258,0,0,0-3.459-1.6,4.434,4.434,0,0,0-3.2,1.286,5.113,5.113,0,0,0-1.454,3.443" transform="translate(-405.539 -348.58)"/><path class="a" d="M956.47,377.995V355.227h2.54v2.141a6.39,6.39,0,0,1,2.029-1.885,5.633,5.633,0,0,1,2.748-.623,6.5,6.5,0,0,1,3.723,1.086,6.615,6.615,0,0,1,2.4,3.06,11.848,11.848,0,0,1-.08,8.876,6.879,6.879,0,0,1-2.636,3.108,6.75,6.75,0,0,1-3.635,1.07,5.281,5.281,0,0,1-2.508-.583,5.593,5.593,0,0,1-1.813-1.494v7.989Zm2.524-14.452a7.122,7.122,0,0,0,1.286,4.7,3.984,3.984,0,0,0,6.319-.08,7.457,7.457,0,0,0,1.326-4.873,7.3,7.3,0,0,0-1.294-4.713,3.915,3.915,0,0,0-3.092-1.6,3.994,3.994,0,0,0-3.156,1.67,7.47,7.47,0,0,0-1.374,4.841" transform="translate(-412.591 -348.582)"/><path class="a" d="M977.63,363.452q0-4.578,2.54-6.775a7.637,7.637,0,0,1,5.177-1.829,7.413,7.413,0,0,1,5.592,2.221,8.492,8.492,0,0,1,2.149,6.151,10.931,10.931,0,0,1-.951,4.993,6.71,6.71,0,0,1-2.772,2.828,8.093,8.093,0,0,1-3.995,1.007,7.382,7.382,0,0,1-5.592-2.213,8.866,8.866,0,0,1-2.133-6.391m2.868,0a6.927,6.927,0,0,0,1.374,4.729,4.6,4.6,0,0,0,6.934,0,7.161,7.161,0,0,0,1.382-4.793,6.783,6.783,0,0,0-1.39-4.626,4.6,4.6,0,0,0-6.926,0,6.98,6.98,0,0,0-1.374,4.729" transform="translate(-416.846 -348.58)"/><path class="a" d="M1000.09,363.452q0-4.578,2.54-6.775a7.637,7.637,0,0,1,5.177-1.829,7.414,7.414,0,0,1,5.592,2.221,8.492,8.492,0,0,1,2.149,6.151,10.93,10.93,0,0,1-.951,4.993,6.759,6.759,0,0,1-2.772,2.828,8.093,8.093,0,0,1-3.994,1.007,7.382,7.382,0,0,1-5.592-2.213c-1.43-1.478-2.133-3.6-2.133-6.391m2.868,0a6.928,6.928,0,0,0,1.374,4.729,4.6,4.6,0,0,0,6.934,0,7.132,7.132,0,0,0,1.374-4.793,6.823,6.823,0,0,0-1.382-4.626,4.6,4.6,0,0,0-6.926,0,6.979,6.979,0,0,0-1.374,4.729" transform="translate(-421.363 -348.58)"/><path class="a" d="M1023.8,371.682V355.217h2.557v2.5a6.792,6.792,0,0,1,1.773-2.317,3.132,3.132,0,0,1,1.79-.551,5.44,5.44,0,0,1,2.828.919l-.959,2.588a4.035,4.035,0,0,0-2.045-.6,2.652,2.652,0,0,0-1.646.551,2.963,2.963,0,0,0-1.039,1.526,10.808,10.808,0,0,0-.463,3.252v8.62Z" transform="translate(-426.132 -348.581)"/></g></svg>