<?xml version="1.0" encoding="utf-8"?>
<!-- Generator: Adobe Illustrator 25.2.3, SVG Export Plug-In . SVG Version: 6.00 Build 0)  -->
<svg version="1.1" id="Layer_1" xmlns="http://www.w3.org/2000/svg" xmlns:xlink="http://www.w3.org/1999/xlink" x="0px" y="0px"
	 viewBox="0 0 272.5 142.9" style="enable-background:new 0 0 272.5 142.9;" xml:space="preserve">
<style type="text/css">
	.st0{fill:#0097AE;}
	.st1{fill:#203366;}
</style>
<g>
	<path class="st0" d="M1.2,116.2H16v3.8H5.9v7.1h9.4v3.8H5.9v10.9H1.2V116.2z"/>
	<path class="st0" d="M25.2,116.2v25.6h-4.7v-25.6H25.2z"/>
	<path class="st0" d="M30.6,141.8v-25.6h5.3l6.6,11c1.7,2.8,3.2,5.8,4.4,8.6h0.1c-0.3-3.4-0.4-6.7-0.4-10.6v-8.9h4.3v25.6H46
		l-6.7-11.2c-1.6-2.8-3.3-6-4.6-8.9l-0.1,0c0.2,3.3,0.2,6.7,0.2,10.9v9.2H30.6z"/>
	<path class="st0" d="M77.9,131.3c-0.2-3.3-0.3-7.3-0.3-10.8h-0.1c-0.8,3.1-1.9,6.6-3,9.8l-3.7,11.1h-3.6l-3.4-10.9
		c-1-3.3-1.9-6.8-2.6-10H61c-0.1,3.3-0.3,7.4-0.5,10.9L60,141.8h-4.4l1.7-25.6h6.2l3.3,10.3c0.9,3,1.7,6,2.4,8.9h0.1
		c0.7-2.8,1.6-5.9,2.5-8.9l3.5-10.3h6.1l1.5,25.6h-4.6L77.9,131.3z"/>
	<path class="st0" d="M92.7,134.5l-2.2,7.3h-4.8l8.2-25.6h6l8.3,25.6h-5l-2.3-7.3H92.7z M100,131l-2-6.3c-0.5-1.6-0.9-3.3-1.3-4.8
		h-0.1c-0.4,1.5-0.8,3.3-1.2,4.8l-2,6.3H100z"/>
	<path class="st0" d="M111.7,116.5c1.7-0.3,4.4-0.5,7.1-0.5c3.7,0,6.2,0.6,7.9,2.1c1.4,1.2,2.2,3,2.2,5.1c0,3.3-2.2,5.5-4.6,6.4v0.1
		c1.8,0.7,2.9,2.5,3.6,4.9c0.8,3.2,1.5,6.2,2,7.1H125c-0.4-0.8-1-2.8-1.7-6c-0.7-3.3-1.9-4.4-4.6-4.5h-2.4v10.5h-4.6V116.5z
		 M116.3,127.8h2.8c3.2,0,5.1-1.7,5.1-4.2c0-2.8-2-4.1-5-4.1c-1.5,0-2.4,0.1-2.9,0.2V127.8z"/>
	<path class="st0" d="M133.3,116.2h4.6v11.8h0.1c0.6-1,1.3-1.9,1.9-2.8l6.7-9h5.8l-8.8,10.9l9.4,14.7h-5.5l-7.3-11.7l-2.3,2.7v9
		h-4.6V116.2z"/>
</g>
<g>
	<path class="st1" d="M168.5,121h-6.9v-4.9h19.7v4.9h-7v20.7h-5.8V121z"/>
	<path class="st1" d="M184.4,116.5c1.9-0.3,4.6-0.6,7.7-0.6c3.8,0,6.5,0.6,8.3,2.1c1.6,1.2,2.4,3,2.4,5.4c0,3.2-2.3,5.5-4.5,6.3v0.1
		c1.8,0.7,2.8,2.4,3.4,4.7c0.8,2.9,1.6,6.3,2.1,7.3h-5.9c-0.4-0.8-1-2.8-1.7-6c-0.7-3.2-1.8-4.1-4.2-4.1h-1.7v10.1h-5.7V116.5z
		 M190.1,127.5h2.3c2.9,0,4.6-1.4,4.6-3.7c0-2.3-1.6-3.5-4.3-3.5c-1.4,0-2.2,0.1-2.6,0.2V127.5z"/>
	<path class="st1" d="M212.7,116.2v14.7c0,4.4,1.7,6.7,4.6,6.7c3,0,4.7-2.1,4.7-6.7v-14.7h5.8v14.4c0,7.9-4,11.7-10.7,11.7
		c-6.5,0-10.2-3.6-10.2-11.7v-14.3H212.7z"/>
	<path class="st1" d="M233,135.8c1.5,0.8,4,1.6,6.4,1.6c2.7,0,4.1-1.1,4.1-2.8c0-1.6-1.2-2.5-4.3-3.6c-4.3-1.5-7.1-3.9-7.1-7.6
		c0-4.4,3.7-7.7,9.7-7.7c2.9,0,5,0.6,6.5,1.3l-1.3,4.6c-1-0.5-2.8-1.2-5.3-1.2c-2.5,0-3.7,1.2-3.7,2.5c0,1.6,1.4,2.4,4.7,3.6
		c4.5,1.7,6.6,4,6.6,7.6c0,4.3-3.3,7.9-10.3,7.9c-2.9,0-5.8-0.8-7.3-1.6L233,135.8z"/>
	<path class="st1" d="M258.3,121h-6.9v-4.9h19.7v4.9h-7v20.7h-5.8V121z"/>
</g>
<polygon class="st1" points="184,0.7 184,21.7 203.8,21.7 203.8,108.4 227.6,108.4 227.6,21.7 247.4,21.7 247.4,0.7 "/>
<g>
	<path class="st1" d="M165,96.3V29l-10.9,65.8c-9.4-0.9-18.5-1-27.2-0.4L116,29v66.6c-8.1,1.1-15.8,2.8-23,4.8l3-99.6h34.8l9.7,70.1
		l9.6-70.1h34.8l3.1,101.4C180.2,99.5,172.5,97.6,165,96.3"/>
</g>
<polygon class="st1" points="24.9,0.7 24.9,21.7 44.7,21.7 44.7,108.4 68.6,108.4 68.6,66.9 89.4,66.9 89.4,46.9 68.6,46.9 
	68.6,21.7 96.1,21.7 96.1,0.7 "/>
</svg>
