<?xml version="1.0" standalone="no"?>
<!DOCTYPE svg PUBLIC "-//W3C//DTD SVG 20010904//EN"
 "http://www.w3.org/TR/2001/REC-SVG-20010904/DTD/svg10.dtd">
<svg version="1.0" xmlns="http://www.w3.org/2000/svg"
 width="700.000000pt" height="700.000000pt" viewBox="0 0 700.000000 700.000000"
 preserveAspectRatio="xMidYMid meet">
<metadata>
Created by potrace 1.11, written by Peter Selinger 2001-2013
</metadata>
<g transform="translate(0.000000,700.000000) scale(0.100000,-0.100000)"
fill="#000000" stroke="none">
<path d="M619 5335 c-1 0 -2 -123 -3 -272 l-2 -273 258 0 258 0 0 -1062 c0
-585 0 -1091 0 -1125 l0 -63 310 1 309 0 0 527 c0 290 1 533 1 540 0 9 61 12
270 12 l270 0 -2 258 -3 257 -263 1 c-145 1 -265 3 -267 6 -4 4 -7 240 -6 510
l1 138 347 2 348 3 1 55 c1 30 2 101 3 158 0 56 4 102 9 102 11 0 6 -311 -6
-319 -5 -3 -10 -46 -12 -96 -1 -49 -3 -135 -5 -190 -2 -55 -6 -188 -9 -295 -3
-107 -8 -267 -11 -355 -3 -88 -8 -234 -10 -325 -5 -186 -14 -476 -20 -656 l-4
-122 57 14 c161 40 279 66 397 86 71 12 133 27 137 32 4 6 7 386 5 844 -1 457
1 832 4 832 5 0 24 -96 34 -175 1 -11 5 -36 9 -55 7 -43 13 -76 26 -160 6 -36
13 -76 15 -90 2 -14 9 -54 14 -90 6 -36 13 -76 16 -90 3 -14 7 -38 9 -55 3
-25 63 -393 82 -500 3 -16 18 -111 35 -210 41 -254 36 -234 67 -228 62 11 567
5 649 -8 24 -4 31 5 37 44 8 51 14 91 21 127 3 14 7 48 11 75 3 28 8 52 9 55
2 3 6 26 10 50 5 42 20 128 29 175 2 11 7 43 10 70 4 28 9 57 11 65 2 8 6 33
10 55 3 22 12 76 20 120 8 44 17 100 21 125 7 57 11 76 19 120 7 38 12 66 19
119 3 18 12 75 21 125 9 50 17 102 20 116 5 35 18 114 21 123 1 4 2 18 3 32 0
14 5 25 10 25 5 0 8 -339 8 -830 -2 -823 -2 -831 18 -835 11 -3 72 -16 135
-29 63 -14 180 -44 260 -66 80 -23 155 -44 166 -47 21 -5 22 -2 19 59 -2 34
-6 167 -10 293 -3 127 -8 282 -10 345 -4 122 -14 444 -20 645 -2 66 -7 219
-10 340 -4 121 -8 259 -9 308 l-3 87 236 0 236 0 0 -1122 0 -1123 308 -2 307
-3 0 1125 0 1125 258 0 258 0 0 270 c0 149 -3 271 -6 271 -18 5 -2513 3 -2515
-1 -3 -5 -20 -119 -41 -275 -3 -27 -8 -57 -9 -65 -2 -9 -6 -43 -10 -75 -4 -33
-9 -71 -11 -85 -3 -22 -21 -149 -29 -205 -1 -11 -5 -45 -9 -75 -4 -30 -9 -66
-11 -80 -2 -14 -7 -45 -10 -70 -4 -25 -8 -57 -11 -71 -2 -15 -6 -47 -9 -70 -9
-75 -15 -123 -20 -149 -2 -14 -7 -45 -10 -70 -3 -25 -10 -72 -15 -105 -5 -33
-12 -87 -16 -120 -4 -33 -8 -67 -9 -75 -3 -23 -17 -112 -20 -135 -2 -11 -4
-31 -4 -44 -1 -13 -3 -22 -5 -20 -6 5 -8 20 -31 179 -2 14 -9 63 -15 110 -17
128 -20 153 -25 180 -3 14 -7 48 -11 75 -3 28 -7 61 -10 75 -2 14 -6 50 -10
80 -3 30 -8 64 -10 75 -2 11 -6 40 -9 65 -3 25 -8 61 -11 80 -3 19 -8 47 -10
63 -9 71 -26 195 -29 217 -2 14 -7 48 -10 75 -6 48 -9 66 -19 130 -2 17 -7 53
-11 80 -3 28 -8 61 -10 75 -13 81 -28 197 -27 213 0 9 -2 18 -6 18 -5 1 -2665
5 -2743 4z m1846 -155 c3 -5 1 -10 -4 -10 -6 0 -11 5 -11 10 0 6 2 10 4 10 3
0 8 -4 11 -10z m1782 -637 c-3 -10 -5 -4 -5 12 0 17 2 24 5 18 2 -7 2 -21 0
-30z"/>
<path d="M2928 2340 c-26 -3 -50 -9 -54 -13 -12 -11 -10 -638 1 -646 6 -4 33
-7 60 -6 l50 0 0 139 0 138 57 -4 c79 -6 101 -28 127 -131 12 -45 28 -96 35
-112 12 -28 17 -30 64 -30 28 0 54 3 58 7 4 4 -2 38 -13 75 -12 38 -27 90 -34
116 -7 30 -26 63 -46 85 -19 20 -30 38 -24 40 25 8 63 47 81 83 52 101 -1 220
-112 249 -47 13 -181 18 -250 10z m219 -108 c66 -36 52 -154 -22 -182 -12 -5
-48 -10 -79 -11 l-58 -3 -1 105 -1 104 30 5 c36 7 102 -2 131 -18z"/>
<path d="M4860 2342 c-25 -1 -60 -5 -77 -7 l-33 -6 0 -324 c0 -179 3 -326 8
-326 4 -1 37 -2 75 -3 l67 -1 0 133 0 133 46 -5 c67 -7 87 -31 114 -134 35
-133 30 -128 108 -126 88 2 85 1 77 22 -3 9 -18 60 -31 112 -28 105 -52 152
-86 167 -23 10 -22 10 10 27 37 19 77 76 87 125 14 68 -28 151 -93 185 -45 23
-157 35 -272 28z m191 -141 c25 -25 28 -35 24 -68 -5 -39 -43 -82 -75 -84 -8
0 -33 -2 -55 -2 l-40 -2 -3 93 -3 92 61 0 c55 0 65 -3 91 -29z"/>
<path d="M6123 2328 c-92 -34 -146 -123 -129 -213 11 -60 81 -122 184 -164 94
-38 120 -68 99 -111 -26 -52 -89 -62 -199 -31 l-67 18 -14 -61 -14 -61 36 -13
c19 -7 60 -15 90 -19 31 -3 62 -7 70 -8 26 -3 114 16 146 32 96 49 138 156 95
249 -24 55 -55 80 -146 119 -118 52 -147 81 -123 127 19 36 122 46 193 19 16
-7 30 -10 31 -9 2 2 10 27 19 57 19 63 18 65 -61 81 -70 15 -151 10 -210 -12z"/>
<path d="M0 2008 l0 -333 60 0 c57 0 60 1 61 25 0 14 0 78 0 142 l0 116 122 0
122 -1 0 49 0 49 -105 2 c-58 0 -113 2 -122 2 -15 1 -17 13 -17 91 l0 90 129
0 c97 0 130 3 131 13 1 6 2 28 3 47 l1 35 -193 3 -192 2 0 -332z"/>
<path d="M503 2008 l2 -332 58 -1 c31 0 57 2 58 5 0 3 1 151 2 330 l1 325 -62
3 -62 3 3 -333z"/>
<path d="M763 2008 l2 -332 48 -1 c27 -1 51 4 55 9 3 6 5 124 4 261 l-2 250
45 -90 c25 -49 91 -166 147 -260 l103 -169 50 -1 c28 -1 56 0 63 3 9 3 12 79
12 333 l0 329 -58 0 -58 0 2 -217 c2 -120 5 -233 7 -251 3 -18 3 -31 2 -30 -2
2 -25 46 -52 98 -66 126 -105 194 -115 198 -4 2 -8 8 -8 13 0 5 -22 45 -50 89
-27 44 -50 84 -50 90 0 6 -31 10 -74 10 l-74 0 1 -332z"/>
<path d="M1456 2328 c-3 -7 -4 -20 -4 -28 0 -16 -11 -194 -17 -270 -6 -68 -18
-270 -19 -315 l-1 -39 54 -1 c41 0 55 4 56 15 2 15 12 202 21 409 2 58 6 106
8 108 2 2 11 -29 20 -69 19 -77 58 -212 107 -365 l30 -92 46 3 47 2 53 160
c30 87 69 209 88 269 l34 110 1 -60 c1 -33 3 -98 5 -145 13 -287 16 -333 19
-339 3 -3 28 -6 58 -6 l53 0 -1 55 c-1 55 -10 243 -20 395 -3 44 -6 109 -8
145 l-4 65 -80 3 -80 3 -70 -213 c-38 -117 -73 -228 -77 -246 -4 -18 -9 -31
-12 -29 -2 3 -13 38 -23 78 -20 82 -42 153 -91 307 l-33 102 -78 0 c-54 0 -80
-4 -82 -12z"/>
<path d="M2395 2318 c-4 -13 -50 -158 -102 -323 -53 -165 -96 -304 -97 -309 0
-6 26 -10 59 -10 l60 -1 28 89 c15 49 30 92 33 95 7 7 192 8 203 1 5 -3 20
-44 35 -92 15 -49 30 -88 34 -89 34 -5 122 -2 122 4 0 4 -30 99 -66 210 -36
111 -84 257 -106 325 l-40 122 -78 0 c-73 0 -79 -2 -85 -22z m123 -216 c19
-64 35 -124 36 -132 1 -12 -13 -14 -72 -14 -40 1 -75 4 -79 8 -3 3 8 52 25
109 17 56 34 115 38 130 4 15 9 25 12 22 3 -3 21 -58 40 -123z"/>
<path d="M3430 2328 c-1 -21 -1 -580 0 -619 l0 -36 58 2 57 1 5 120 c5 109 7
122 31 152 l25 33 94 -150 c51 -83 96 -152 99 -152 23 -5 123 -3 127 2 2 4
-46 85 -107 181 -62 95 -114 180 -116 188 -2 8 32 59 75 112 44 53 94 115 112
137 l32 41 -76 0 -75 0 -110 -151 -111 -151 0 151 0 151 -60 0 c-41 0 -60 -4
-60 -12z"/>
<path d="M4162 2278 l3 -63 85 0 85 0 5 -270 5 -270 70 0 70 0 5 270 5 269 85
1 85 0 3 63 3 62 -256 0 -256 0 3 -62z"/>
<path d="M5337 2333 c-6 -13 0 -425 7 -462 26 -135 112 -203 257 -204 131 0
214 53 255 164 14 36 17 88 19 277 l3 233 -74 -3 -75 -3 -2 -225 c-2 -193 -5
-230 -20 -261 -44 -89 -165 -83 -204 9 -13 30 -16 82 -17 259 l-1 223 -72 0
c-39 0 -74 -3 -76 -7z"/>
<path d="M6490 2277 l0 -64 90 1 90 1 0 -266 c0 -205 3 -268 13 -271 11 -4 68
-3 120 1 16 1 17 21 17 266 0 245 1 265 18 266 9 1 49 2 87 3 l70 1 3 63 3 62
-256 0 -255 0 0 -63z"/>
</g>
</svg>
