<?xml version="1.0" encoding="utf-8"?>
<!-- Generator: Adobe Illustrator 25.2.0, SVG Export Plug-In . SVG Version: 6.00 Build 0)  -->
<svg version="1.1" id="Layer_1" xmlns="http://www.w3.org/2000/svg" xmlns:xlink="http://www.w3.org/1999/xlink" x="0px" y="0px"
	 viewBox="0 0 24 27" style="enable-background:new 0 0 24 27;" xml:space="preserve">
<style type="text/css">
	.st0{fill-rule:evenodd;clip-rule:evenodd;fill:#203366;}
</style>
<path class="st0" d="M13.3,26.9c5.5-0.6,9.9-4.9,10.6-10.3C24.7,9.5,19.1,3.5,12,3.4V0.2C12,0,11.8-0.1,11.7,0L5,4.8
	C4.9,4.9,4.9,5,5,5.1c0,0,0,0,0,0l6.7,4.8c0.2,0.1,0.4,0,0.4-0.2V6.6c4.9,0.1,8.9,4.2,8.6,9.1c-0.3,4.2-3.8,7.7-8.1,7.9
	C7.9,24,4,20.8,3.3,16.5c-0.1-0.8-0.8-1.4-1.6-1.4c-1,0-1.8,0.9-1.6,1.8C1,23.1,6.7,27.6,13.3,26.9L13.3,26.9z"/>
</svg>
