<?xml version="1.0" encoding="utf-8"?>
<!-- Generator: Adobe Illustrator 24.3.0, SVG Export Plug-In . SVG Version: 6.00 Build 0)  -->
<svg version="1.1" id="Layer_1" xmlns="http://www.w3.org/2000/svg" xmlns:xlink="http://www.w3.org/1999/xlink" x="0px" y="0px"
	 viewBox="0 0 408.33 155.75" style="enable-background:new 0 0 408.33 155.75;" xml:space="preserve">
<style type="text/css">
	.st0{fill:#666666;}
	.st1{fill:#203366;}
	.st2{fill:#0097AE;}
</style>
<g>
	<path class="st0" d="M10.67,50.69H6.04v-1.52h11.26v1.52h-4.63v12.38h-1.95L10.67,50.69z"/>
	<path class="st0" d="M18.78,48.43h1.95v6.23l0,0c0.35-0.55,0.84-0.99,1.43-1.28c0.62-0.34,1.32-0.52,2.03-0.52
		c1.46,0,3.82,0.83,3.82,4.27v5.93h-1.95v-5.73c0-1.61-0.66-2.93-2.53-2.93c-1.18-0.01-2.24,0.71-2.66,1.81
		c-0.11,0.28-0.16,0.57-0.15,0.87v6.02h-1.95L18.78,48.43z"/>
	<path class="st0" d="M33.53,50.29c-0.06,0.68-0.66,1.19-1.34,1.12c-0.6-0.05-1.07-0.53-1.12-1.12c0.01-0.64,0.54-1.15,1.18-1.15
		c0.02,0,0.05,0,0.07,0c0.62-0.05,1.17,0.42,1.22,1.04C33.53,50.22,33.53,50.25,33.53,50.29z M31.31,63.06v-9.98h1.95v9.98
		L31.31,63.06L31.31,63.06z"/>
	<path class="st0" d="M36.32,61.22c0.8,0.45,1.7,0.7,2.63,0.71c1.44,0,2.13-0.65,2.13-1.48c0-0.83-0.57-1.35-2.03-1.83
		c-1.95-0.64-2.93-1.63-2.93-2.83c0-1.61,1.43-2.93,3.77-2.93c0.94-0.01,1.86,0.2,2.69,0.62l-0.5,1.32
		c-0.68-0.38-1.45-0.58-2.24-0.59c-1.18,0-1.83,0.62-1.83,1.37c0,0.74,0.65,1.19,2.07,1.7c1.95,0.65,2.93,1.52,2.93,3.01
		c0,1.75-1.49,2.99-4.1,2.99c-1.06,0.01-2.12-0.22-3.07-0.68L36.32,61.22z"/>
	<path class="st0" d="M50.33,55.79c0-1.03,0-1.87-0.09-2.7h1.74l0.09,1.61h0.06c0.72-1.19,2.04-1.9,3.44-1.83
		c1.35-0.05,2.58,0.75,3.09,2h0.05c0.32-0.5,0.73-0.92,1.22-1.25c0.71-0.5,1.56-0.74,2.42-0.7c1.44,0,3.59,0.87,3.59,4.32v5.86
		h-1.95v-5.67c0-1.95-0.77-3.07-2.38-3.07c-1.05,0.01-1.98,0.66-2.35,1.64c-0.1,0.29-0.15,0.6-0.16,0.91v6.16h-1.95v-5.98
		c0-1.58-0.77-2.73-2.28-2.73c-1.12,0.03-2.1,0.75-2.46,1.81c-0.11,0.28-0.16,0.59-0.16,0.89v6.02h-1.95v-7.26H50.33z"/>
	<path class="st0" d="M79.05,57.99c0,3.69-2.8,5.31-5.45,5.31c-2.73,0.15-5.07-1.94-5.23-4.67c-0.01-0.16-0.01-0.31,0-0.47
		c-0.12-2.81,2.06-5.19,4.87-5.31c0.18-0.01,0.36-0.01,0.54,0.01c2.72-0.18,5.07,1.88,5.25,4.6C79.06,57.63,79.06,57.81,79.05,57.99
		z M70.37,58.09c0,2.2,1.39,3.84,3.33,3.84c1.94,0,3.33-1.62,3.33-3.9c0-1.69-0.98-3.83-3.27-3.83S70.36,56.19,70.37,58.09
		L70.37,58.09z"/>
	<path class="st0" d="M81.54,55.79c0-1.03,0-1.87-0.09-2.7h1.77l0.11,1.65l0,0c0.79-1.22,2.17-1.94,3.62-1.87
		c1.51,0,3.9,0.83,3.9,4.25v5.96H88.9v-5.75c0-1.61-0.65-2.93-2.53-2.93c-1.19-0.01-2.26,0.73-2.66,1.85
		c-0.1,0.27-0.14,0.55-0.14,0.84v6h-1.95L81.54,55.79z"/>
	<path class="st0" d="M96.38,50.23v2.86h2.85v1.39h-2.85v5.38c0,1.24,0.39,1.95,1.49,1.95c0.39,0.01,0.77-0.04,1.15-0.13l0.09,1.36
		c-0.57,0.18-1.17,0.27-1.77,0.25c-0.79,0.05-1.56-0.23-2.15-0.76c-0.59-0.73-0.87-1.67-0.76-2.61v-5.45h-1.72v-1.39h1.7v-2.4
		L96.38,50.23z"/>
	<path class="st0" d="M101.5,48.43h1.95v6.23l0,0c0.35-0.55,0.84-0.99,1.43-1.28c0.62-0.34,1.32-0.52,2.03-0.52
		c1.46,0,3.82,0.83,3.82,4.27v5.93h-1.95v-5.73c0-1.61-0.66-2.93-2.53-2.93c-1.18-0.01-2.24,0.71-2.66,1.81
		c-0.11,0.28-0.16,0.57-0.15,0.87v6.02h-1.95L101.5,48.43z"/>
	<path class="st0" d="M113.71,61.22c0.8,0.45,1.7,0.7,2.63,0.71c1.44,0,2.13-0.65,2.13-1.48c0-0.83-0.57-1.35-2.03-1.83
		c-1.95-0.64-2.93-1.63-2.93-2.83c0-1.61,1.43-2.93,3.77-2.93c0.93-0.01,1.85,0.2,2.68,0.62l-0.5,1.32
		c-0.68-0.38-1.45-0.58-2.24-0.59c-1.17,0-1.83,0.62-1.83,1.37c0,0.74,0.66,1.19,2.08,1.7c1.89,0.65,2.87,1.52,2.87,3.01
		c0,1.75-1.49,2.99-4.09,2.99c-1.07,0.02-2.12-0.22-3.08-0.68L113.71,61.22z"/>
</g>
<g>
	<path class="st0" d="M135.5,62.69c-1,0.41-2.07,0.61-3.14,0.59c-3.29,0-5.44-2.04-5.44-5.1c0-3.06,2.3-5.3,5.86-5.3
		c0.94-0.01,1.88,0.16,2.75,0.52l-0.46,1.4c-0.72-0.34-1.5-0.5-2.29-0.47c-2.07-0.13-3.85,1.45-3.98,3.52s1.45,3.85,3.52,3.98
		c0.12,0.01,0.25,0.01,0.37,0c0.84,0.01,1.67-0.16,2.44-0.49L135.5,62.69z"/>
	<path class="st0" d="M143.88,63.06l-0.17-1.26h-0.07c-0.83,0.98-2.06,1.53-3.35,1.49c-2.21,0-3.34-1.43-3.34-2.87
		c0-2.42,2.35-3.74,6.57-3.72v-0.17c0-0.83-0.24-2.31-2.48-2.31c-1,0-1.98,0.26-2.85,0.74l-0.46-1.19c1.1-0.6,2.34-0.91,3.6-0.89
		c3.35,0,4.15,2.08,4.15,4.08v3.74c-0.01,0.8,0.05,1.6,0.19,2.39L143.88,63.06z M143.59,57.97c-2.18,0-4.64,0.31-4.64,2.25
		c-0.03,0.93,0.71,1.71,1.64,1.74c0.08,0,0.16,0,0.25-0.01c1.14,0.05,2.19-0.61,2.65-1.66c0.06-0.19,0.1-0.39,0.11-0.59V57.97z"/>
	<path class="st0" d="M148.7,55.79c0-1.03,0-1.87-0.09-2.7h1.74l0.09,1.61h0.07c0.72-1.19,2.04-1.89,3.43-1.83
		c1.35-0.04,2.59,0.75,3.1,2l0,0c0.33-0.5,0.76-0.92,1.26-1.25c0.71-0.49,1.56-0.74,2.42-0.7c1.44,0,3.59,0.87,3.59,4.32v5.86h-1.95
		v-5.67c0-1.95-0.76-3.07-2.37-3.07c-1.05,0.01-1.98,0.66-2.35,1.64c-0.1,0.29-0.16,0.6-0.17,0.91v6.16h-1.95v-5.98
		c0-1.58-0.76-2.73-2.27-2.73c-1.12,0.03-2.1,0.75-2.46,1.81c-0.11,0.28-0.17,0.58-0.17,0.89v6.02h-1.95v-7.26H148.7z"/>
	<path class="st0" d="M167.54,56.35c0-1.29,0-2.31-0.09-3.27h1.79l0.09,1.72l0,0c0.87-1.29,2.35-2.03,3.9-1.95
		c2.65,0,4.64,2.04,4.64,5.08c0,3.59-2.4,5.37-4.97,5.37c-1.31,0.07-2.58-0.52-3.37-1.57h-0.05v5.42h-1.95L167.54,56.35
		L167.54,56.35z M169.49,59c0.01,0.25,0.04,0.5,0.09,0.74c0.4,1.3,1.62,2.16,2.98,2.12c2.11,0,3.33-1.56,3.33-3.9
		c0-1.95-1.15-3.71-3.25-3.71c-1.39-0.01-2.62,0.91-3,2.24c-0.08,0.24-0.13,0.49-0.15,0.74V59z"/>
	<path class="st0" d="M186.42,63.06l-0.17-1.26h-0.07c-0.83,0.98-2.06,1.53-3.35,1.49c-2.21,0-3.34-1.43-3.34-2.87
		c0-2.42,2.35-3.74,6.57-3.72v-0.17c0-0.83-0.24-2.31-2.48-2.31c-1,0-1.98,0.26-2.85,0.74l-0.46-1.19c1.1-0.6,2.34-0.91,3.6-0.89
		c3.35,0,4.15,2.08,4.15,4.08v3.74c-0.01,0.8,0.05,1.6,0.19,2.39L186.42,63.06z M186.12,57.97c-2.18,0-4.64,0.31-4.64,2.25
		c-0.03,0.93,0.71,1.71,1.64,1.74c0.08,0,0.16,0,0.25-0.01c1.14,0.05,2.19-0.61,2.65-1.66c0.06-0.19,0.1-0.39,0.11-0.59V57.97z"/>
	<path class="st0" d="M193.47,50.29c-0.09,0.68-0.71,1.16-1.39,1.07c-0.56-0.07-1-0.51-1.07-1.07c0.01-0.64,0.54-1.15,1.18-1.15
		c0.03,0,0.05,0,0.08,0c0.62-0.04,1.16,0.44,1.2,1.06C193.47,50.23,193.47,50.26,193.47,50.29z M191.3,63.06v-9.98h1.95v9.98
		L191.3,63.06L191.3,63.06z"/>
	<path class="st0" d="M205.94,53.08c0,0.72-0.08,1.53-0.08,2.74v5.8c0,2.28-0.5,3.69-1.56,4.55c-1.15,0.85-2.55,1.27-3.97,1.2
		c-1.26,0.03-2.51-0.25-3.63-0.83l0.49-1.39c0.99,0.53,2.09,0.8,3.21,0.78c2.03,0,3.51-0.98,3.51-3.48v-1.11l0,0
		c-0.8,1.11-2.11,1.74-3.47,1.66c-2.56,0.02-4.64-2.03-4.66-4.59c0-0.1,0-0.19,0.01-0.29c-0.18-2.74,1.9-5.11,4.65-5.29
		c0.09-0.01,0.19-0.01,0.28-0.01c1.37-0.08,2.68,0.6,3.39,1.78l0,0l0.08-1.51H205.94z M203.89,56.98c0.01-0.28-0.03-0.56-0.11-0.83
		c-0.38-1.2-1.52-1.99-2.77-1.95c-1.9,0-3.25,1.45-3.25,3.77c0,1.95,1.08,3.59,3.23,3.59c1.21,0.01,2.31-0.73,2.75-1.85
		c0.11-0.31,0.16-0.64,0.16-0.98v-1.71L203.89,56.98z"/>
	<path class="st0" d="M209.03,55.79c0-1.03,0-1.87-0.09-2.7h1.76l0.11,1.65l0,0c0.79-1.22,2.17-1.94,3.62-1.87
		c1.51,0,3.9,0.83,3.9,4.25v5.96h-1.95v-5.75c0-1.61-0.65-2.93-2.52-2.93c-1.19-0.01-2.26,0.73-2.67,1.85
		c-0.09,0.27-0.13,0.55-0.13,0.84v6h-1.95v-7.3H209.03z"/>
</g>
<g>
	<rect x="42" y="89.23" class="st1" width="13.95" height="40.41"/>
	<path class="st1" d="M85.7,129.64V107.6c0-2.69-0.39-4.71-1.16-6.08c-0.77-1.37-2.02-2.05-3.73-2.05c-2.35,0-4.05,0.94-5.1,2.82
		c-1.05,1.88-1.57,5.1-1.57,9.66v17.69H60.2V89.23h10.52l1.75,4.99h0.82c1.19-1.9,2.84-3.33,4.94-4.28c2.1-0.95,4.52-1.43,7.26-1.43
		c4.47,0,7.95,1.3,10.43,3.89c2.48,2.59,3.73,6.24,3.73,10.95v26.29H85.7z"/>
	<path class="st1" d="M129.16,129.64V107.6c0-2.69-0.39-4.71-1.16-6.08c-0.77-1.37-2.02-2.05-3.73-2.05c-2.35,0-4.05,0.94-5.1,2.82
		c-1.05,1.88-1.57,5.1-1.57,9.66v17.69h-13.95V89.23h10.52l1.75,4.99h0.82c1.19-1.9,2.84-3.33,4.94-4.28
		c2.1-0.95,4.52-1.43,7.26-1.43c4.47,0,7.95,1.3,10.43,3.89c2.48,2.59,3.73,6.24,3.73,10.95v26.29H129.16z"/>
	<path class="st1" d="M185.7,109.34c0,6.61-1.78,11.77-5.33,15.46c-3.56,3.7-8.53,5.55-14.93,5.55c-6.13,0-11.02-1.89-14.64-5.67
		c-3.63-3.78-5.44-8.89-5.44-15.34c0-6.59,1.78-11.7,5.33-15.35c3.55-3.65,8.54-5.47,14.96-5.47c3.97,0,7.48,0.84,10.52,2.53
		c3.04,1.69,5.39,4.11,7.04,7.26C184.88,101.46,185.7,105.14,185.7,109.34 M159.52,109.34c0,3.47,0.46,6.12,1.39,7.94
		c0.93,1.82,2.48,2.73,4.67,2.73c2.16,0,3.69-0.91,4.58-2.73c0.89-1.82,1.34-4.46,1.34-7.94c0-3.45-0.45-6.05-1.36-7.81
		c-0.9-1.76-2.45-2.64-4.64-2.64c-2.14,0-3.67,0.87-4.6,2.62C159.99,103.26,159.52,105.87,159.52,109.34"/>
	<path class="st1" d="M200.29,133.62l-16.93-44.39h14.55l6.85,23.9c0.02,0.12,0.07,0.32,0.14,0.61c0.07,0.29,0.14,0.62,0.21,1.02
		c0.07,0.39,0.14,0.81,0.2,1.25c0.06,0.44,0.09,0.85,0.09,1.23"/>
	<path class="st1" d="M258.09,129.64l-2.67-5.35h-0.29c-1.88,2.33-3.79,3.92-5.74,4.78c-1.95,0.86-4.47,1.28-7.56,1.28
		c-3.8,0-6.8-1.14-8.99-3.42c-2.19-2.28-3.28-5.49-3.28-9.63c0-4.3,1.5-7.51,4.49-9.61c3-2.11,7.34-3.29,13.02-3.55l6.74-0.21v-0.57
		c0-3.33-1.64-4.99-4.92-4.99c-2.95,0-6.69,1-11.24,3l-4.03-9.2c4.71-2.43,10.65-3.64,17.83-3.64c5.18,0,9.2,1.28,12.04,3.85
		c2.84,2.57,4.26,6.16,4.26,10.77v26.5H258.09z M247.74,120.51c1.69,0,3.13-0.53,4.33-1.6c1.2-1.07,1.8-2.46,1.8-4.17v-3.14
		l-3.21,0.14c-4.59,0.17-6.88,1.85-6.88,5.06C243.78,119.27,245.1,120.51,247.74,120.51"/>
	<path class="st1" d="M291.56,119.33c1.88,0,4.12-0.46,6.74-1.39v10.16c-1.88,0.81-3.67,1.39-5.37,1.73
		c-1.7,0.34-3.69,0.52-5.97,0.52c-4.68,0-8.06-1.15-10.13-3.44c-2.07-2.29-3.1-5.82-3.1-10.57V99.68h-4.89v-5.67l6.21-4.39l3.6-8.49
		h9.13v8.1h9.91v10.45h-9.91v15.73C287.77,118.02,289.04,119.33,291.56,119.33"/>
	<rect x="299.95" y="89.23" class="st1" width="13.95" height="40.41"/>
	<path class="st1" d="M356.75,109.34c0,6.61-1.78,11.77-5.33,15.46c-3.56,3.7-8.53,5.55-14.93,5.55c-6.13,0-11.01-1.89-14.64-5.67
		c-3.62-3.78-5.44-8.89-5.44-15.34c0-6.59,1.78-11.7,5.33-15.35c3.55-3.65,8.54-5.47,14.96-5.47c3.97,0,7.48,0.84,10.52,2.53
		c3.04,1.69,5.39,4.11,7.05,7.26C355.92,101.46,356.75,105.14,356.75,109.34 M330.57,109.34c0,3.47,0.46,6.12,1.39,7.94
		c0.93,1.82,2.48,2.73,4.67,2.73c2.16,0,3.69-0.91,4.58-2.73c0.89-1.82,1.34-4.46,1.34-7.94c0-3.45-0.45-6.05-1.36-7.81
		c-0.9-1.76-2.45-2.64-4.64-2.64c-2.14,0-3.67,0.87-4.6,2.62C331.03,103.26,330.57,105.87,330.57,109.34"/>
	<path class="st1" d="M384.72,129.64V107.6c0-2.69-0.39-4.71-1.16-6.08c-0.77-1.37-2.02-2.05-3.73-2.05c-2.35,0-4.05,0.94-5.1,2.82
		c-1.05,1.88-1.57,5.1-1.57,9.66v17.69h-13.95V89.23h10.52l1.75,4.99h0.82c1.19-1.9,2.84-3.33,4.94-4.28
		c2.1-0.95,4.52-1.43,7.26-1.43c4.47,0,7.95,1.3,10.43,3.89c2.49,2.59,3.73,6.24,3.73,10.95v26.29H384.72z"/>
	<polygon class="st2" points="203.35,138.09 241.54,13.35 256.13,13.35 217.89,138.08 	"/>
</g>
</svg>
