<svg id="Layer_1" data-name="Layer 1" xmlns="http://www.w3.org/2000/svg" xmlns:xlink="http://www.w3.org/1999/xlink" viewBox="0 0 408.33 155.75"><defs><style>.cls-1{fill:none;}.cls-2{fill:#666;}.cls-3{clip-path:url(#clip-path);}.cls-4{fill:#00a7b8;}.cls-5{fill:#0e2d6d;}</style><clipPath id="clip-path" transform="translate(-11.98 -12.77)"><rect class="cls-1" x="236.32" y="-15.48" width="212.27" height="212.27"/></clipPath></defs><path class="cls-2" d="M20.94,55H16.2V53.44H27.74V55H23V67.68h-2Z" transform="translate(-11.98 -12.77)"/><path class="cls-2" d="M29.25,52.69h2v6.38h0a3.59,3.59,0,0,1,1.46-1.31,4.39,4.39,0,0,1,2.08-.53c1.5,0,3.91.85,3.91,4.37v6.08h-2V61.81c0-1.65-.68-3-2.59-3a2.9,2.9,0,0,0-2.73,1.85,2.18,2.18,0,0,0-.15.89v6.17h-2Z" transform="translate(-11.98 -12.77)"/><path class="cls-2" d="M44.36,54.59a1.27,1.27,0,0,1-2.53,0,1.19,1.19,0,0,1,1.28-1.17A1.16,1.16,0,0,1,44.36,54.59ZM42.09,67.68V57.45h2V67.67h-2Z" transform="translate(-11.98 -12.77)"/><path class="cls-2" d="M47.22,65.79a5.71,5.71,0,0,0,2.69.73c1.48,0,2.18-.67,2.18-1.52s-.58-1.38-2.08-1.88c-2-.66-3-1.67-3-2.9,0-1.65,1.46-3,3.86-3a5.91,5.91,0,0,1,2.76.64l-.51,1.35a4.69,4.69,0,0,0-2.29-.6c-1.21,0-1.87.64-1.87,1.4s.67,1.22,2.12,1.74c2,.67,3,1.56,3,3.08,0,1.79-1.53,3.06-4.2,3.06a7,7,0,0,1-3.15-.7Z" transform="translate(-11.98 -12.77)"/><path class="cls-2" d="M61.57,60.23c0-1.06,0-1.92-.09-2.77h1.78l.09,1.65h.06a3.92,3.92,0,0,1,3.52-1.88,3.3,3.3,0,0,1,3.17,2.05h.05A4.33,4.33,0,0,1,71.4,58a4,4,0,0,1,2.48-.72c1.48,0,3.68.89,3.68,4.43v6h-2V61.9c0-2-.79-3.15-2.44-3.15a2.61,2.61,0,0,0-2.41,1.68,3.28,3.28,0,0,0-.16.93v6.31h-2V61.54c0-1.62-.79-2.8-2.34-2.8a2.74,2.74,0,0,0-2.52,1.85,2.53,2.53,0,0,0-.16.91v6.17h-2V60.23Z" transform="translate(-11.98 -12.77)"/><path class="cls-2" d="M91,62.48c0,3.78-2.87,5.44-5.58,5.44a5.08,5.08,0,0,1-5.36-5.27,5.22,5.22,0,0,1,5.55-5.43A5.06,5.06,0,0,1,91,62.48Zm-8.89.11c0,2.25,1.42,3.93,3.41,3.93s3.41-1.66,3.41-4c0-1.73-1-3.92-3.35-3.92S82.1,60.64,82.1,62.59Z" transform="translate(-11.98 -12.77)"/><path class="cls-2" d="M93.55,60.23c0-1.06,0-1.92-.09-2.77h1.81l.11,1.69h0a4.19,4.19,0,0,1,3.71-1.92c1.55,0,4,.85,4,4.35v6.11h-2V61.8c0-1.65-.67-3-2.59-3a2.88,2.88,0,0,0-2.73,1.9,2.46,2.46,0,0,0-.14.86v6.15h-2Z" transform="translate(-11.98 -12.77)"/><path class="cls-2" d="M108.75,54.53v2.93h2.92v1.42h-2.92v5.51c0,1.27.4,2,1.53,2a4.63,4.63,0,0,0,1.18-.13l.09,1.39a5.38,5.38,0,0,1-1.81.26,3,3,0,0,1-2.2-.78,3.61,3.61,0,0,1-.78-2.67V58.88H105V57.46h1.74V55Z" transform="translate(-11.98 -12.77)"/><path class="cls-2" d="M114,52.69h2v6.38h0a3.59,3.59,0,0,1,1.46-1.31,4.39,4.39,0,0,1,2.08-.53c1.5,0,3.91.85,3.91,4.37v6.08h-2V61.81c0-1.65-.68-3-2.59-3a2.9,2.9,0,0,0-2.73,1.85,2.18,2.18,0,0,0-.15.89v6.17h-2Z" transform="translate(-11.98 -12.77)"/><path class="cls-2" d="M126.51,65.79a5.71,5.71,0,0,0,2.69.73c1.48,0,2.18-.67,2.18-1.52s-.58-1.38-2.08-1.88c-2-.66-3-1.67-3-2.9,0-1.65,1.46-3,3.86-3a5.9,5.9,0,0,1,2.75.64l-.51,1.35a4.69,4.69,0,0,0-2.29-.6c-1.2,0-1.87.64-1.87,1.4s.68,1.22,2.13,1.74c1.94.67,2.94,1.56,2.94,3.08,0,1.79-1.53,3.06-4.19,3.06a7,7,0,0,1-3.16-.7Z" transform="translate(-11.98 -12.77)"/><path class="cls-2" d="M148.83,67.3a8.12,8.12,0,0,1-3.22.6c-3.37,0-5.57-2.09-5.57-5.23s2.36-5.43,6-5.43a7.25,7.25,0,0,1,2.82.53l-.47,1.43a5.11,5.11,0,0,0-2.35-.48,3.85,3.85,0,1,0-.08,7.69,6.3,6.3,0,0,0,2.5-.5Z" transform="translate(-11.98 -12.77)"/><path class="cls-2" d="M157.42,67.68l-.17-1.29h-.07a4.32,4.32,0,0,1-3.43,1.53c-2.26,0-3.42-1.46-3.42-2.94,0-2.48,2.41-3.83,6.73-3.81V61c0-.85-.25-2.37-2.54-2.37a6.06,6.06,0,0,0-2.92.76l-.47-1.22a7.48,7.48,0,0,1,3.69-.91c3.43,0,4.25,2.13,4.25,4.18v3.83a13,13,0,0,0,.19,2.45Zm-.3-5.22c-2.23,0-4.75.32-4.75,2.31a1.73,1.73,0,0,0,1.93,1.77,2.81,2.81,0,0,0,2.71-1.7,2.18,2.18,0,0,0,.11-.6V62.46Z" transform="translate(-11.98 -12.77)"/><path class="cls-2" d="M162.36,60.23c0-1.06,0-1.92-.09-2.77h1.78l.09,1.65h.07a3.92,3.92,0,0,1,3.51-1.88,3.33,3.33,0,0,1,3.18,2.05h0A4.58,4.58,0,0,1,172.19,58a4.08,4.08,0,0,1,2.48-.72c1.48,0,3.68.89,3.68,4.43v6h-2V61.9c0-2-.78-3.15-2.43-3.15a2.6,2.6,0,0,0-2.41,1.68,3,3,0,0,0-.17.93v6.31h-2V61.54c0-1.62-.78-2.8-2.33-2.8a2.74,2.74,0,0,0-2.52,1.85,2.34,2.34,0,0,0-.17.91v6.17h-2V60.23Z" transform="translate(-11.98 -12.77)"/><path class="cls-2" d="M181.66,60.8c0-1.32,0-2.37-.09-3.35h1.83l.09,1.76h0a4.53,4.53,0,0,1,4-2c2.71,0,4.75,2.09,4.75,5.2,0,3.68-2.46,5.5-5.09,5.5a4.06,4.06,0,0,1-3.45-1.61h-.05v5.55h-2V60.8Zm2,2.72a4.28,4.28,0,0,0,.09.76,3.09,3.09,0,0,0,3.05,2.17c2.16,0,3.41-1.6,3.41-4,0-2-1.18-3.8-3.33-3.8a3.17,3.17,0,0,0-3.07,2.3,2.7,2.7,0,0,0-.15.76Z" transform="translate(-11.98 -12.77)"/><path class="cls-2" d="M201,67.68l-.17-1.29h-.07a4.32,4.32,0,0,1-3.43,1.53c-2.26,0-3.42-1.46-3.42-2.94,0-2.48,2.41-3.83,6.73-3.81V61c0-.85-.25-2.37-2.54-2.37a6.06,6.06,0,0,0-2.92.76l-.47-1.22a7.48,7.48,0,0,1,3.69-.91c3.43,0,4.25,2.13,4.25,4.18v3.83a13,13,0,0,0,.19,2.45Zm-.3-5.22c-2.23,0-4.75.32-4.75,2.31a1.73,1.73,0,0,0,1.93,1.77,2.81,2.81,0,0,0,2.71-1.7,2.18,2.18,0,0,0,.11-.6V62.46Z" transform="translate(-11.98 -12.77)"/><path class="cls-2" d="M208.23,54.59a1.27,1.27,0,0,1-2.52,0A1.19,1.19,0,0,1,207,53.42,1.16,1.16,0,0,1,208.23,54.59ZM206,67.68V57.45h2V67.67h-2Z" transform="translate(-11.98 -12.77)"/><path class="cls-2" d="M221,57.45c0,.74-.08,1.57-.08,2.81V66.2c0,2.34-.51,3.78-1.6,4.66a6.3,6.3,0,0,1-4.07,1.23,7.75,7.75,0,0,1-3.72-.85l.5-1.42a6.77,6.77,0,0,0,3.29.8c2.08,0,3.6-1,3.6-3.57V65.91h0a4.08,4.08,0,0,1-3.56,1.7,4.74,4.74,0,0,1-4.77-5,5.1,5.1,0,0,1,5.05-5.43A3.79,3.79,0,0,1,219.11,59h0l.08-1.55H221Zm-2.1,4a2.57,2.57,0,0,0-.11-.85,2.88,2.88,0,0,0-2.84-2c-1.95,0-3.33,1.49-3.33,3.86,0,2,1.11,3.68,3.31,3.68a3,3,0,0,0,2.82-1.9,3.11,3.11,0,0,0,.16-1V61.49Z" transform="translate(-11.98 -12.77)"/><path class="cls-2" d="M224.17,60.23c0-1.06,0-1.92-.09-2.77h1.8l.11,1.69h0a4.2,4.2,0,0,1,3.71-1.92c1.55,0,4,.85,4,4.35v6.11h-2V61.8c0-1.65-.67-3-2.58-3a2.9,2.9,0,0,0-2.74,1.9,2.73,2.73,0,0,0-.13.86v6.15h-2V60.23Z" transform="translate(-11.98 -12.77)"/><g class="cls-3"><path class="cls-4" d="M336.63,61.15c-.08,0-.12-.1-.23-.08h-.15a.33.33,0,0,1-.15-.1c0-.08.09-.07.15-.1h0c.15-.09.15-.09.2-.09h.15a1.14,1.14,0,0,0,.5-.2h-.21a1.31,1.31,0,0,0,.48-.18l-.25-.1.19,0a.1.1,0,0,0,.09-.06c.05-.06-.09,0,0-.1h-.07a.41.41,0,0,1-.29,0,2.17,2.17,0,0,1,.56-.16c.08,0,.12,0,.17-.07l0,0,0,0c-.09,0-.2.06-.29,0l.24-.08a.83.83,0,0,0-.46.11,1.18,1.18,0,0,1,.44-.28.2.2,0,0,0,.09-.06.19.19,0,0,1,.16-.09c.15,0,.26-.14.4-.18s.07-.06.13-.08L339,59l.09,0a3,3,0,0,0-.84.2c-.31.12-.34.05-.67.19l-.21.08a.47.47,0,0,1,.09-.06l.11-.07h-.2a2,2,0,0,0,.32-.11l-.28,0a5.76,5.76,0,0,0-1,.16,1.06,1.06,0,0,0-.19.06c-.85.21-.89.2-1,.28a6.43,6.43,0,0,1-.92.21l-.22.07h0l.24,0a2.42,2.42,0,0,0-.47.11h.16l-.67.12-.08,0,0,0-.1,0a1.28,1.28,0,0,0-.38.07c-.07.06-.07.06-.11,0a.06.06,0,0,0-.06,0l-.19,0-.82.24a.31.31,0,0,0-.13.06.55.55,0,0,1-.31.13l-.1,0-.67.25-.21.09.18,0h.08a.69.69,0,0,1-.38.21c-.28.07-.56.2-.85.29l-.43.17s0,0,0,0h0a2,2,0,0,0,.46,0l.38-.1c-.32.18-.61.18-.92.35l.28,0-.16.1a2,2,0,0,0,.69-.16,3,3,0,0,1,.83-.18c.07,0,.2-.05.13.09a0,0,0,0,0,0,0c.15,0,.13.07.1.18s0,.07,0,.08-.09.12,0,.13l-.13.14-.22.21s0,0,0,0,0,0,0,0l.24-.1.16-.12s0,0,0,0,0,.13.09.1a.19.19,0,0,1,.13,0s0,.05,0,.08a.28.28,0,0,1-.09.05h-.23l-.25,0s0,0-.06.06,0,0,0,0a1,1,0,0,0,.53-.07c-.07.08-.13.11-.16.19a.46.46,0,0,1-.35.32.5.5,0,0,0-.14.08v0l.28-.08c-.09.08-.14.11-.2.1-.21,0-.39.2-.51.38a.11.11,0,0,0,0,.06H330l0,0c-.22.17-.22.17-.14.36a.29.29,0,0,1,0,.27.19.19,0,0,0,0,.08s.07,0,.09,0a.31.31,0,0,1,.25-.13l-.17.15c-.16.13-.2.22-.11.33a.3.3,0,0,1,.05.19,1,1,0,0,1,0,.18c0,.06.12,0,.08.09s.07.08.11.12v0c-.09.21,0,.07.09.05s.19-.08.28-.1.16,0,.16.09.13.13.2.12a.43.43,0,0,0,.24-.17c.13-.2.24-.4.36-.6a.48.48,0,0,0,.06-.18c0-.14,0-.14.09-.19l.08,0,.34-.35c.09-.11.09-.11,0-.15l.14-.08c.09,0,.12-.08.06-.14s0-.06,0-.07a.29.29,0,0,0,.21-.17.37.37,0,0,1,.17-.1.39.39,0,0,0,.28-.18s.05,0,.06,0,.07,0,.12,0l.12-.07a2.12,2.12,0,0,0,.77-.54,1.8,1.8,0,0,1,.2-.19,1.3,1.3,0,0,1,.2-.15,1.57,1.57,0,0,1,.23,0l.24-.12a4.07,4.07,0,0,0,.93-.42,5.47,5.47,0,0,1,.69-.41l-.86.16a1.41,1.41,0,0,1,.24-.13c.07,0,.1,0,.07-.12s.07-.09.13-.09.11,0,.13.05.27,0,.37,0,.1,0,.12-.07.07-.14,0-.16" transform="translate(-11.98 -12.77)"/><path class="cls-4" d="M349.11,124.4l-1.94-.36a4.48,4.48,0,0,1-1.17-.27l-.16,0c-.3,0-.6-.07-.91-.09s-.57,0-.86,0a7.89,7.89,0,0,0-2,0,14.74,14.74,0,0,1-1.63.2h-.19s.08,0,.09.05,0,.06-.08.08a4,4,0,0,0-.77.35,1.52,1.52,0,0,1-.72.23c-.17,0-.29,0-.24.11s-.13.08,0,.09c0,0,0,0,0,0a1,1,0,0,1-.34.11c-.44,0-.67.23-1.06.3a.16.16,0,0,0-.1,0l-.37.33a34.75,34.75,0,0,0,4.92.35,33.91,33.91,0,0,0,8.84-1.16c-.08-.06-.17-.14-.29-.22a3.44,3.44,0,0,0-1-.2" transform="translate(-11.98 -12.77)"/><path class="cls-4" d="M361.8,64.54a.17.17,0,0,0-.21,0s-.06.08-.16.05a.49.49,0,0,0-.17,0c-.23.06-.45.13-.69.18-.09,0-.14,0-.12.12s0,.07-.11.09a1.26,1.26,0,0,1-.67-.13,0,0,0,0,1,0-.06s.08,0,.12,0l.15-.06a.65.65,0,0,0-.17-.08,1.36,1.36,0,0,0-.29-.06c-.2,0-.2,0-.15.13s0,.08,0,.12a.21.21,0,0,0,.08.11c.19.12.2.11.14.29a.58.58,0,0,0-.16,0,1.19,1.19,0,0,0-.41,0,2.75,2.75,0,0,0-.5.2c-.07,0-.07.07,0,.12l.3.19a3.4,3.4,0,0,1-.94-.12.48.48,0,0,0-.2,0,.11.11,0,0,0-.08.05s0,.06.05.07l.33.1s.09.05.09.08-.05,0-.09.06a.54.54,0,0,1-.18,0,1.82,1.82,0,0,0-.4-.11.56.56,0,0,1-.45-.26.24.24,0,0,1-.06-.11c0-.1,0-.15-.16-.18l-.41-.13-.19-.1c.09-.06.15,0,.22,0l.06,0c.52.08,1.05.15,1.59.19a.92.92,0,0,0,.53-.11c.16-.1.12-.23-.09-.31l-.09,0c-.27-.06-.55-.11-.82-.19a3.57,3.57,0,0,0-1.3-.19.91.91,0,0,1-.33,0c-.18-.08-.17-.07-.26-.07H355s0,0-.07-.05l.37-.07a2.08,2.08,0,0,0-.58-.1s-.1,0-.14,0-.06-.08-.1-.08a.49.49,0,0,0-.21,0s-.05,0-.08.07h-.09c-.06-.11-.13,0-.2,0l-.18.12c0-.09.06-.12.12-.16s0,0,0,0h-.05a1.79,1.79,0,0,0-.35.09c-.07,0-.26,0-.23.1h-.07c-.06,0-.13,0-.21,0s-.13,0-.08.09a.77.77,0,0,0-.4,0c-.06-.09-.17,0-.27,0s-.14,0-.16,0-.08.07-.17.06-.17,0-.25,0l-.07.06h.08l.09,0a.18.18,0,0,1-.09,0,.54.54,0,0,1-.4,0c-.05,0-.09,0-.14,0s0,.16-.18.15c0,0,0,0,.06,0l.37-.06.08,0s-.05.06-.08.07h-.15c-.1.16-.33.2-.5.3s-.27.25-.39.33,0,.2-.23.19c0,.14-.2.16-.36.2s-.14.08-.2.13,0,.09.06.09a.76.76,0,0,0,.21,0,.21.21,0,0,1-.17.08,3.27,3.27,0,0,1-.44,0s-.09,0-.09,0c-.05.19-.24.19-.45.2a.36.36,0,0,1,.12.08,0,0,0,0,1,0,0c-.19-.08-.33.08-.51.08s-.23.11-.24.27-.1.23.06.3c0,0,0,0,0,0s0,.07,0,.1a.33.33,0,0,1,.1.06s-.09.06-.14.06-.11.1-.11.15.09,0,.14,0,0,0,.06,0l.07,0s0,.06,0,.09,0,0,0,0-.12.11,0,.16c.84.43,1.11-.21,1.32-.2s.19-.09.25-.17c.22.12.25.33.37.5s.23.34.34.52c0,0,.06.08.05.09-.16.12,0,.2,0,.3s.1.14.23.12.21,0,.24-.16.14-.13.22-.13a.7.7,0,0,0,.48-.16s.1,0,.07,0c-.1-.22.05-.43,0-.64,0,0,0-.08.09-.1a.62.62,0,0,1,.24-.1c.24,0,.21-.21.33-.3a2.43,2.43,0,0,0-.25-.2,1.59,1.59,0,0,0-.2-.07c-.33-.18,0-.41,0-.61a1.8,1.8,0,0,1,.63-.33l.13,0c.16-.08.42-.12.29-.33,0,0,0,0,.05-.07a.51.51,0,0,1,.37-.22,1.39,1.39,0,0,1,.67.07.16.16,0,0,1,.08.06c.06.08,0,.11-.08.16s-.34.23-.5.29-.18.17-.35.19a.17.17,0,0,0-.12.25c0,.07.12.15.11.22,0,.22,0,.4.37.45a.46.46,0,0,0,.45.11,9.07,9.07,0,0,1,1.37-.21s.12,0,.13,0,.2.12.33.13.07,0,.09,0l0,0a2.13,2.13,0,0,0-.55.12.56.56,0,0,1-.47,0,2,2,0,0,0-.87.07c-.15,0-.17.11-.1.22a.36.36,0,0,0,.17.13c.14,0,.15.06.12.16a.3.3,0,0,0,0,.12c0,.08,0,.14-.06.18a.26.26,0,0,1-.29,0l-.13-.12a.32.32,0,0,0-.48.08c-.24.33,0,.57,0,.72s0,.15-.17.16a.65.65,0,0,0-.22,0c0,.16-.1.19-.23.2a.36.36,0,0,1-.33-.13.21.21,0,0,0-.17,0,.83.83,0,0,0-.36.08c-.28.17-.63.16-.91.32,0,0-.13,0-.13,0s-.19-.09-.16-.21a.11.11,0,0,0-.09,0,3.33,3.33,0,0,1-.76.21c-.09-.13-.25-.14-.38-.2a.22.22,0,0,1-.1-.13,1.1,1.1,0,0,1,0-.18l.16.05.06,0a.23.23,0,0,0,.13-.06.13.13,0,0,0-.05-.11l-.22,0s0-.07.05-.08a1.92,1.92,0,0,0,.21-.16c.09-.11-.13-.11-.11-.2a1.21,1.21,0,0,0,0-.18c0-.1,0-.15-.13-.1a1.45,1.45,0,0,1-.49.18s-.06.09-.05.1.08.08,0,.08-.13,0-.12.09,0,.23.05.29.13.38.2.57,0,.11,0,.12-.18.18-.33.1a.31.31,0,0,0-.19,0,1.38,1.38,0,0,1-.53.13c-.13,0-.24,0-.16.21s0,.08,0,.12-.05,0-.08,0,0-.06-.08-.21c0,0-.1.05-.11.08a1.21,1.21,0,0,1-.93.73l-.12,0a.19.19,0,0,0-.18.19c0,.17-.12.23-.26.28s-.24.08-.28.15-.15.13-.26.12a.36.36,0,0,1-.34-.13s-.09,0-.14,0a.4.4,0,0,0,0,.11,1.72,1.72,0,0,1,0,.24s-.06.09-.09.1-.29.06-.38,0-.44,0-.66,0c0,0,0,.06-.06.09s0,.3.23.26.23.09.35.11a.31.31,0,0,1,.29.25.43.43,0,0,0,.23.32c.07,0,.08.09.09.18a1.5,1.5,0,0,1-.09.46c0,.16-.06.33-.1.49-.15.5-.31.34-1.06.31l-1.27,0c-.05,0-.1,0-.15,0-.34,0-.11.08-.57.23-.11,0-.17.12-.09.23a.41.41,0,0,1,0,.36,1.87,1.87,0,0,0,0,.34,2.88,2.88,0,0,1-.1.51c-.07.2-.19.38-.27.58s-.16.24,0,.32.15.34.14.55-.07.24,0,.27a.44.44,0,0,0,.28.07.59.59,0,0,0,.22,0c.23-.06.34,0,.44.19a2.85,2.85,0,0,0,.16.3c.06.1.15.12.26,0a3,3,0,0,1,.35-.22,1.42,1.42,0,0,1,.7-.09c.19,0,.38,0,.48-.26a.22.22,0,0,1,.13-.12c.24,0,.35-.22.44-.44a.46.46,0,0,1,.15-.16c.11-.07.15-.12.08-.27a.41.41,0,0,1,0-.36c.25-.34.41-.8.9-.85.1,0,.18-.1.27-.14a.42.42,0,0,0,.26-.52.41.41,0,0,1,.45-.47,3.16,3.16,0,0,1,.53.13c.5.13.46-.15.75-.25.48-.17.39-.33.63-.35a.75.75,0,0,1,.58.41,1,1,0,0,0,.18.35c.34.32.6.77,1.13.84l.06,0a5.83,5.83,0,0,0,.78.61.26.26,0,0,1,.05.09c.11.25.27.5,0,.78,0,0,0,0,0,.06a.68.68,0,0,0,0,.14s.11,0,.14,0,.17-.42.39-.52a.2.2,0,0,0,0-.13,1,1,0,0,0-.12-.16.27.27,0,0,1,0-.37c.13-.22.28,0,.56.15a.35.35,0,0,0,.11,0s0-.13,0-.15a1.87,1.87,0,0,0-.33-.3c-.18-.11-.38-.18-.57-.29s-.11-.11-.1-.14c.08-.19,0-.17-.14-.17a.71.71,0,0,1-.74-.55c-.17-.48-.55-.36-.61-.67a3.4,3.4,0,0,1,0-.45c0-.07.2-.17.27-.2s.23,0,.26.15.11.25.23.11.16-.06.21,0a.44.44,0,0,1,.08.21.85.85,0,0,0,.52.57,5.36,5.36,0,0,1,1.23.79.34.34,0,0,1,.14.38,1.48,1.48,0,0,0,0,.51c0,.08.15.15.14.22s.14.11.19.2.18.17.27.26a.11.11,0,0,1,0,.06c-.11.15.09.24.1.24.2,0,.24.11.06.25,0,0,0,0,0,.07a.85.85,0,0,1,.22.48s.06,0,.08,0,.14,0,.16.07.2-.07.27,0a1.77,1.77,0,0,1,0-.23.57.57,0,0,1,0-.14s0-.06.05,0,.13,0,.08-.13,0-.15.09-.14a.3.3,0,0,1,.13,0c.11.06.11,0,.1-.09s0-.11,0-.13,0-.15-.05-.2-.08,0-.12,0a.87.87,0,0,0-.11-.09.27.27,0,0,0-.09,0,.75.75,0,0,1,.07.12s0,0-.07,0-.2-.11-.12-.25a.25.25,0,0,0,0-.33c-.07-.09-.18-.19-.12-.34s0-.13.11,0a.41.41,0,0,0,.13.1c.14.07.21,0,.25-.15s0-.08.05-.09a.9.9,0,0,1,.8,0c.08,0,.2,0,.23.12s0,.17-.06.25l0,.11c0,.13,0,.2.14.2a.14.14,0,0,1,.12.06,1.53,1.53,0,0,1,.08.37c0,.06.11.24-.11.17,0,0,0,.09,0,.1a.4.4,0,0,1,.3.37c0,.22.31.25.42.43.23,0,.37.1.53.26a.32.32,0,0,0,.48-.16c0-.16.12-.18.22-.14a2.43,2.43,0,0,1,.54.31.4.4,0,0,0,.4.12c.16,0,.34-.06.42-.26a.16.16,0,0,1,.25-.09c.14.08.26.09.36,0s.09,0,.12,0a.18.18,0,0,1,0,.13,1.18,1.18,0,0,0,0,.67,1.13,1.13,0,0,1,0,.51c-.1.51-.25,1-.37,1.51a.47.47,0,0,1-.27.36,1,1,0,0,1-.91-.09.53.53,0,0,0-.41-.08,1.49,1.49,0,0,0-.56.25.33.33,0,0,1-.25.07,5.49,5.49,0,0,1-.69-.21,1.67,1.67,0,0,0-.81-.17.2.2,0,0,1-.24-.11c-.07-.15-.18-.14-.32-.15a.76.76,0,0,1-.56-.24.6.6,0,0,0-.54-.26.91.91,0,0,0-.69.36c-.16.18-.1.37,0,.57v0a.57.57,0,0,1-.26.47c-.14.1-.25,0-.38,0a1.79,1.79,0,0,0-1-.45.49.49,0,0,1-.44-.41c0-.09-.07-.23-.13-.25-.33-.1-.62-.33-1-.27a.5.5,0,0,1-.33-.07,8.42,8.42,0,0,1-.76-.45c-.14-.09-.14-.2,0-.33l.16-.14a.46.46,0,0,0,0-.7.22.22,0,0,1,0-.32.76.76,0,0,0,.11-.14.2.2,0,0,0,0-.11s-.08,0-.11,0-.17,0-.22-.09a.21.21,0,0,0-.15-.11,1.91,1.91,0,0,0-.33.06,2.68,2.68,0,0,1-.55.11,1.58,1.58,0,0,0-.91.11.22.22,0,0,1-.22,0,.53.53,0,0,0-.42-.07c-.43.07-.87.16-1.3.25,0,0-.06,0-.09,0a2.52,2.52,0,0,1-.77.38c-.06,0-.11.09-.16.14a.57.57,0,0,1-.6.17,1.33,1.33,0,0,0-.52,0,.47.47,0,0,1-.57-.24c-.08-.13-.21-.11-.29,0a3,3,0,0,0-.18.41,1.23,1.23,0,0,1-.67.74,2.39,2.39,0,0,0-.22.12,1.19,1.19,0,0,0-.52.64.77.77,0,0,1-.12.24.63.63,0,0,0-.17.6.8.8,0,0,1-.22.76,3.18,3.18,0,0,1-.83.77.38.38,0,0,1-.13.06c-.31,0-.47.24-.58.54a.76.76,0,0,1-.34.44.67.67,0,0,0-.2.26,4,4,0,0,0-.18.52.92.92,0,0,1-.22.44,2.74,2.74,0,0,0-.51.9,1.3,1.3,0,0,1-.19.37.7.7,0,0,0,0,.93.6.6,0,0,1,.1.58.82.82,0,0,0,0,.38,2.32,2.32,0,0,1-.07,1.38,1,1,0,0,0-.09.3,1.48,1.48,0,0,1-.29.77.29.29,0,0,0,0,.33,1.3,1.3,0,0,1,.1.25c.08.18.18.35.05.56,0,0,0,.08,0,.12a.62.62,0,0,0,.16.54c.11.14.19.27.36.15a.41.41,0,0,1,.05.09c0,.08,0,.18,0,.23a3.75,3.75,0,0,0,.5.71,1.78,1.78,0,0,1,.49,1.06.87.87,0,0,0,.35.68A5.84,5.84,0,0,1,340,96.39a3.07,3.07,0,0,0,.67.58.48.48,0,0,0,.57,0,2.06,2.06,0,0,1,2.14-.17.28.28,0,0,0,.2,0c.2-.1.4-.2.59-.32a1.23,1.23,0,0,1,.62-.27c.06,0,.11-.07.17-.11s.11-.11.18-.12a9,9,0,0,1,1-.14.73.73,0,0,1,.74.61c0,.09.05.19.08.28.25.78.67.19,1.13.25,0,0,.09,0,.1,0,.1-.18.19,0,.28,0s.18.45.45.42a2.14,2.14,0,0,1,.1.9c-.06.21-.1.41-.15.62a.75.75,0,0,0,0,.15,1.81,1.81,0,0,1-.2,1.11c-.09.18-.09.27,0,.4s.17.48.29.64c.72,1.06,1.08,1.28,1.15,1.89a5.63,5.63,0,0,0,.47,1.42.54.54,0,0,1,0,.51.35.35,0,0,0,0,.25,2,2,0,0,0,.18.56,1.42,1.42,0,0,1,0,1.09.33.33,0,0,1-.12.17c-.37.24-.44.85-.68,1.84,0,0,0,0,0,.07,0,.22,0,.45,0,.67a.77.77,0,0,0,.09.47c.14.24.27.48.39.73a11.2,11.2,0,0,0,.64,1.3c.19.25,0,.83.2,1.32a.53.53,0,0,1,0,.12c.11.67.13,1.15.5,1.46a1.29,1.29,0,0,1,.39.63c.28.71.48.82.46,1.09,0,.06,0,.13-.06.15s-.08.14,0,.23.18.19.1.31,0,0,0,0c.19,0,.29.15.43.21a.36.36,0,0,0,.23,0,1,1,0,0,1,.5-.11.36.36,0,0,0,.18,0,1.38,1.38,0,0,1,.8-.1,1.92,1.92,0,0,0,.54,0c.54-.17.53-.09.68-.18a8.72,8.72,0,0,0,1.17-.84,2.94,2.94,0,0,0,.31-.3,4.42,4.42,0,0,1,.71-.82.79.79,0,0,0,.32-.38c.07-.18.13-.37.2-.56s.11-.23,0-.33a.15.15,0,0,1,0-.14,1.46,1.46,0,0,1,.75-.45c.3-.11.55-.27.52-.63,0,0,0-.05,0-.06a2.25,2.25,0,0,0-.1-1.38.42.42,0,0,1,.16-.52s.09-.1.15-.14a5,5,0,0,0,.85-.86.79.79,0,0,1,.29-.2l.4-.19a2,2,0,0,0,.86-.83,1.2,1.2,0,0,0,.16-.82,7.39,7.39,0,0,1,0-1.05,1.85,1.85,0,0,1,.06-.66.27.27,0,0,0-.1-.36c-.19-.09-.21-.29-.24-.48s0-.25-.07-.37a2,2,0,0,1,0-.8c0-.16.06-.29-.05-.41a.66.66,0,0,1-.08-.71c.13-.44.36-.82.52-1.25a2,2,0,0,1,.35-.58,6.57,6.57,0,0,0,.67-1,6,6,0,0,1,1.24-1.48,5.38,5.38,0,0,0,1.22-1.38,10.85,10.85,0,0,0,.72-1.4c.17-.38.3-.79.46-1.18a2.76,2.76,0,0,0,.36-1.21c0-.06,0-.12.06-.18a3,3,0,0,0,.06-.75c0-.22-.18-.22-.32-.07a1.23,1.23,0,0,1-.66.29c-.35.08-.71,0-1,.3a.26.26,0,0,1-.23,0,.34.34,0,0,0-.38.09.44.44,0,0,1-.7-.13c-.14-.22,0-.12-.46-.52l0,0c.5-.53,0-.5-.64-1.48a1.54,1.54,0,0,0-.56-.52c-.09,0-.16-.15-.26-.2s-.11,0-.19-.27a2.9,2.9,0,0,1-.12-.42,2,2,0,0,0-.69-1.32.65.65,0,0,1-.24-.43l-.12-.84a1.65,1.65,0,0,0-.57-1.23.73.73,0,0,1-.28-.66.5.5,0,0,0-.09-.31,15.13,15.13,0,0,1-.69-1.4,5.32,5.32,0,0,0-.58-1.17,3.51,3.51,0,0,1-.26-.59s0-.06.05-.09l0,0a2.28,2.28,0,0,1,.27.51,1.55,1.55,0,0,0,.36.53c.12.13.21.09.24-.09s.06-.41.09-.66c0,.07.05.09.05.12s0,.26,0,.39.21.14.26.28,0,.09.07.13c.27.42.53.85.79,1.28a1.4,1.4,0,0,1,.16.4.56.56,0,0,0,.27.39,1.59,1.59,0,0,1,.62,1.24,1.47,1.47,0,0,0,.59,1.22,1,1,0,0,1,.37.52,3.57,3.57,0,0,0,.54,1,1.69,1.69,0,0,1,.4,1.1,2,2,0,0,0,.07.6,3.65,3.65,0,0,1,.2.95c0,.3.17.43.43.38a1,1,0,0,0,.53-.26.56.56,0,0,1,.3-.14,3.58,3.58,0,0,0,.64-.26,4,4,0,0,0,.95-.57.46.46,0,0,1,.16-.07l.72-.34a.37.37,0,0,0,.23-.32.35.35,0,0,1,.21-.33c.28-.12.53-.35.85-.31.11,0,.18,0,.18-.18s.13-.36.31-.37a.3.3,0,0,0,.28-.29.28.28,0,0,1,.22-.26c.2,0,.26-.2.22-.44a.64.64,0,0,1,0-.24c0-.14,0-.35.22-.28,0,0,.06,0,.07,0,.14-.31.28-.62.41-.93s-.21-.3-.3-.5a.73.73,0,0,0-.55-.46.86.86,0,0,1-.62-.58,1.38,1.38,0,0,1-.21-.74s0-.08-.06-.08a.12.12,0,0,0-.08,0,6.37,6.37,0,0,0-.41.72.54.54,0,0,1-.62.38.87.87,0,0,0-.36,0c-.16.07-.27,0-.41-.07s-.14-.15-.13-.3a3.32,3.32,0,0,0,0-.63s-.06-.1-.09-.15c-.12.15-.07,0-.2.65L367,84a.09.09,0,0,1,0-.07c.13-.27-.06-.44-.21-.56a3.45,3.45,0,0,1-.84-1.24c-.05-.1-.12-.22-.1-.3s.11-.17.18-.23.22-.32.42-.11a.11.11,0,0,0,.1,0c.1,0,.17,0,.22.14l.51.85c.08.14.14.31.31.35.53.13.65.94,1.84.69,0,0,0,0,0-.06s0-.13,0-.14c.25-.09.39,0,.47.34a.64.64,0,0,0,.52.55c.46.09,1,.15,1.11.2a1.8,1.8,0,0,0,1,0c.34,0,.69,0,1-.08s.42-.1.52.26a.15.15,0,0,0,.1.09c.1,0,.13.13.16.24a.47.47,0,0,0,.37.41.31.31,0,0,1,.2.16l0,0a34,34,0,0,0-13.22-21" transform="translate(-11.98 -12.77)"/><path class="cls-4" d="M357.17,66.36c0-.06.11,0,.17,0s.07,0,.1,0,0-.07-.05-.08l-.19-.07c.19,0,.37,0,.43.21s.13.12.21.18.05.11,0,.15-.12.07-.2,0a.94.94,0,0,0-.23-.16.71.71,0,0,1-.15-.08s-.09-.11-.07-.14" transform="translate(-11.98 -12.77)"/><path class="cls-4" d="M355.88,66.65l.22-.14.1,0,.5.19a.25.25,0,0,1,.12.18c0,.08-.06.16-.2.13h0c-.11,0-.13.14-.25.06a1.26,1.26,0,0,1-.2-.2l-.26-.24" transform="translate(-11.98 -12.77)"/><path class="cls-4" d="M356.89,75.76h-.74a.68.68,0,0,1,.78-.34c.09,0,.18,0,.2.14s-.17.21-.24.21" transform="translate(-11.98 -12.77)"/><path class="cls-4" d="M362,75.22a.67.67,0,0,1-.64.25.5.5,0,0,0-.32,0,.8.8,0,0,1-.59-.06c-.22-.11-.5,0-.67-.29a1.62,1.62,0,0,0-1.81.18.28.28,0,0,1-.3.08c-.16,0-.33,0-.5,0s-.56-.09-.66-.44a.33.33,0,0,0-.1-.14.13.13,0,0,1,0-.18c.08-.14,0-.37.26-.43,0,0,0-.12,0-.19,0-.26,0-.54.2-.48.09,0,.13-.06.12-.15a.34.34,0,0,1,.17-.38.28.28,0,0,0,.11-.15c.09-.24.35-.13.5-.23s.12.09.11.11c-.09.2.08.17.17.18s.22,0,.33,0a.12.12,0,0,1,.07.05.07.07,0,0,1,0,.08,2.15,2.15,0,0,1-.32.18,1.42,1.42,0,0,1,.34.13.28.28,0,0,1,.12.16c0,.06,0,.15.06.17a.42.42,0,0,0,.22,0,1.49,1.49,0,0,0,.25-.13.7.7,0,0,1,.45-.12s.08-.07.12-.11a.74.74,0,0,0-.14,0l-.22,0c-.05,0-.13,0-.15,0s-.33-.22-.5-.33l.55-.18a4.39,4.39,0,0,1,1.24-.34.56.56,0,0,1,.12,0s0,.07-.07.08l-.42.2.11.09c.11.06.17.12,0,.19a.18.18,0,0,0-.08.09c-.09.2-.09.2-.29.23.16.26.44.3.65.44l.52.32a4.53,4.53,0,0,0,.55.34,1,1,0,0,1,.51.55.34.34,0,0,1-.05.28" transform="translate(-11.98 -12.77)"/><path class="cls-4" d="M366,73a.57.57,0,0,1,0,.13c.05.18.13.25.31.24s.09,0,.11,0a.84.84,0,0,1,.18.15l-.11.08-.1.06h-.05s0,0,0-.06,0-.13-.08-.14-.43-.07-.64-.07-.17.06-.24.11a.17.17,0,0,0,0,.14c.13.16,0,.13-.07.12h-.13c.17.21.31.41.47.57a1.52,1.52,0,0,0,.43.28c.23.12.24.11.24.36a.32.32,0,0,0,0,.14.65.65,0,0,0,.13.16c.1-.16.21-.41.46-.12l.25.3c.06.06.13.11.15.18s-.17.18-.27.16a.76.76,0,0,0-.2-.06c-.06,0-.16,0-.18.06s0,.23.13.27.19.07.24.19a.67.67,0,0,0,.17.31c.21.25.16.31.35,1.09,0,.09,0,.14-.06.15l-.67.12a1,1,0,0,1-.66-.25,1.05,1.05,0,0,0-.46-.23c-.21,0-.29-.24-.35-.42s-.16-.33,0-.47,0-.15,0-.23,0-.36.23-.37c0,0,0,0,0-.05a.14.14,0,0,0-.06-.07,1.06,1.06,0,0,1-.5-.42,7.17,7.17,0,0,0-.66-.69.91.91,0,0,1-.25-.42.65.65,0,0,0-.32-.44c-.13-.08-.12-.17-.07-.28a.65.65,0,0,0,.09-.23c0-.12.08-.15.17-.2a1.05,1.05,0,0,0,.31-.18c.13-.08.25-.18.37-.26a.6.6,0,0,1,.62-.09.43.43,0,0,0,.16,0A.39.39,0,0,1,366,73" transform="translate(-11.98 -12.77)"/><path class="cls-4" d="M325.58,122.86h0Z" transform="translate(-11.98 -12.77)"/><path class="cls-4" d="M308.55,83.45l.06-.08c.06-.07.09-.22.15-.27s.12.07.19,0a.3.3,0,0,1,.4,0,.78.78,0,0,0,.22,0c.06-.2.1-.06.22.11s.26,0,.27,0,.11-.1.16,0a.12.12,0,0,0,.07.07s0,0,.06,0,0,0,0-.06-.13-.16,0-.28,0-.06,0-.06l-.12-.06s0,0,0-.07,0,0,.06,0,.19,0,.29,0,.28-.14.36-.08a.3.3,0,0,0,.26,0,.32.32,0,0,1,.45.26c0,.07.06.08.12,0l.21-.14c.09-.07.16,0,.2.06a1.43,1.43,0,0,0,.12.31.37.37,0,0,1,0,.38c-.12.23,0,.47-.1.71,0,0,0,.1,0,.14s0,.06,0,.08c0,.31.11.5.14.77,0,.1,0,.11.11.06a.7.7,0,0,0,.15-.19,3,3,0,0,0,.2-.69,9.53,9.53,0,0,0,0-1.19,2.06,2.06,0,0,1,.82-1.93l.46-.44a1.15,1.15,0,0,1,.41-.33.29.29,0,0,0,.14-.11.79.79,0,0,1,.49-.35c.09,0,.12-.08.11-.2s.05-.19.16-.17.11-.07.17-.12.08-.14,0-.15a.15.15,0,0,1-.07,0l.08-.1c.14-.12.22-.29.15-.35s0-.13,0-.21.12-.2.12-.29a2.78,2.78,0,0,1,.25-.68s.08-.09.12-.14a1.22,1.22,0,0,0-.09.79c.17-.2.38-.36.33-.67a.38.38,0,0,1,0-.1l.09,0s0,.13.11,0a5.75,5.75,0,0,0,.44-.54c.18-.29.11-.23.51-.37l-.2,0a1.54,1.54,0,0,1,.29-.17,2.2,2.2,0,0,0,.44-.12,1.1,1.1,0,0,1,.44-.13c.19,0,0-.28.11-.4s.26-.32.38-.49c.23-.32.57-.28.82-.54,0,0,.07,0,.1,0l.51-.22c.12-.25.31-.18.46-.26a3.59,3.59,0,0,0,.35-.12.3.3,0,0,1,.34,0s0,0,0,.08-.06,0-.08,0c-.22,0-.42.16-.62.26a1.09,1.09,0,0,0-.25.23.22.22,0,0,0,0,.27c0,.09.11,0,.17,0l.48-.35c.07,0,.14-.12.19-.13a3.62,3.62,0,0,0,.95-.34.2.2,0,0,0,.13-.08A.34.34,0,0,1,323,74a1.47,1.47,0,0,0,.31-.15.37.37,0,0,0,.07-.14c-.12,0-.06-.15,0-.25a.06.06,0,0,0,0-.06s0,0-.07,0l-.51.51s-.09.1-.12.1a1.71,1.71,0,0,1-.51,0,.36.36,0,0,1-.26-.46c0-.1,0-.2.12-.28a1,1,0,0,0,.11-.15c-.05,0-.09,0-.13,0a.11.11,0,0,1-.16,0s0-.06,0-.07.07,0,.08,0c.17.09.35-.06.53-.15s.23-.28,0-.36a.93.93,0,0,0-.62.1,4.74,4.74,0,0,0-1.52.86.68.68,0,0,1-.4.22c.43-.34.81-.65,1.2-.93s.51-.16.78-.43a1,1,0,0,1,.59-.29c.18,0,.36,0,.54-.06.48-.06,1.07.09,1.53-.18a2.81,2.81,0,0,1,1.16-.52,1.74,1.74,0,0,0,.55-.27c.07,0,.16-.27.25-.4s.14-.11.09-.17a.44.44,0,0,0-.19-.1.38.38,0,0,0-.12.05c-.09,0-.07,0,0-.07s.05-.19-.1-.14l-.4.13c.08-.14.13-.12.6-.29,0,0,0,0,0,0v0c-.2,0-.27-.13-.44-.14s-.26,0-.14-.21l-.07-.06a1.36,1.36,0,0,1-.12-.12.11.11,0,0,1,.06-.17c.24-.08.26-.18.19-.32s0,0,0,0,0-.18.06-.27a2.38,2.38,0,0,0,.11-.79l-.63.45a1.79,1.79,0,0,1-.69.34c-.26.1-.26.11-.37-.07,0,0,0,0-.07,0-.21,0-.08-.11,0-.19a1.46,1.46,0,0,1,.56-.54l-.42-.08s-.07-.06-.06-.07,0-.12,0-.18-.19-.16-.38-.09a1.72,1.72,0,0,1-.74,0,.53.53,0,0,0-.49.29.32.32,0,0,1-.13.15c-.26.17-.28.41-.51.58a5.48,5.48,0,0,1-.52.31c-.18.11-.19.12-.11.25s.11.26-.09.5a4.68,4.68,0,0,1-.46.43,3.2,3.2,0,0,1-1,.53c-.22.09-.22.09-.3.32a.6.6,0,0,1-.06.11c-.24.31-.33.7-.68,1,0,0,0,.05,0,.06s-.08,0-.1,0-.14,0-.21.07-.21.09-.22,0a2,2,0,0,0,0-.24c-.11-.51.27-.61.33-.79a.73.73,0,0,1,.28-.35c.1-.1.1-.15,0-.17-.27,0-.58,0-.81-.13a1.14,1.14,0,0,1-.3-.28.52.52,0,0,0-.68-.2l-.27.07c.11-.19.21-.37.33-.55s.06-.12,0-.11a.86.86,0,0,1-.16,0c-.08,0-.08-.07,0-.14a2.72,2.72,0,0,1,.43-.4,11,11,0,0,1,1-.65,3.19,3.19,0,0,1,1-.46.69.69,0,0,0,.32-.16,1.43,1.43,0,0,1,.27-.15,1.22,1.22,0,0,1,.64-.15.91.91,0,0,0,.23-.08l.49-.23s.12,0,.13-.08.17-.13.26-.17l.38-.14.1-.06c0-.16.13-.11.19-.12s.08,0,.12,0a.42.42,0,0,0,.35,0c.06-.07.09-.13.14,0s.07,0,.11,0l.69-.22c.11,0,.23-.1.21-.22s.07-.16.24-.19a.73.73,0,0,0,.35-.18.08.08,0,0,0,0,0,.46.46,0,0,0-.16-.11,1.13,1.13,0,0,0-.32,0,.82.82,0,0,0-.29.07.23.23,0,0,0-.14.15.31.31,0,0,1-.15.08,1.32,1.32,0,0,0-.43.18c-.08,0-.2.14-.25.05a.26.26,0,0,0-.12,0c0,.17-.22.16-.35.21s-.1,0-.1,0,.05-.19.21-.25l.11,0a.71.71,0,0,0,.15-.16c0-.06,0-.1-.15-.06l-.23.09-.26.13s-.06,0-.1,0l.05-.07,0,0,.13-.14s.18-.08,0-.09h-.19a0,0,0,0,1,0,0s0,0,.06-.05a2.33,2.33,0,0,0,.28-.11c.16-.06,0-.13.11-.19s.14-.18.05-.23c.17-.07.34-.11.48-.18a.46.46,0,0,1,.32-.08,1.11,1.11,0,0,0,.42-.08l.5-.16.19-.07a2,2,0,0,1-.36,0,1.53,1.53,0,0,0-.63,0,1.75,1.75,0,0,0-.76.31,2.07,2.07,0,0,1-.81.38,1.32,1.32,0,0,0-.52.28c-.2.11-.21.14-.08.18l.16.08c-.31.16-.23.12-.29.17h.15a.8.8,0,0,1-.14.09l-.6.19a.39.39,0,0,0-.28.16s0,0-.07.06l-.12,0a.08.08,0,0,1-.07,0l.08-.07.27-.17a.67.67,0,0,0-.69.09l-.06,0a34,34,0,0,0-11.14,17.65" transform="translate(-11.98 -12.77)"/><path class="cls-4" d="M314.08,75.74a1.4,1.4,0,0,1-.63.9c-.1.06-.13,0-.12-.11a.9.9,0,0,1,.06-.22,3.31,3.31,0,0,1,.49-.86c.11-.14.2-.3.31-.45s.23-.37.43-.38a.21.21,0,0,0,.1,0c.5-.27.55-.11.72-.15s.08,0,.08-.06a.1.1,0,0,0,0-.11.35.35,0,0,0-.51-.07.29.29,0,0,1-.44-.1.14.14,0,0,1,0-.07c0-.11,0-.1-.06-.07l-.65.34c-.08,0-.14.07-.13-.06s-.05,0-.08,0l-.22.09a2.37,2.37,0,0,1,.8-.57,1.19,1.19,0,0,0,.43-.27,1.62,1.62,0,0,1,.37-.23c.07,0,.14-.1.19-.1s.22,0,.33,0,.08.07.06.15c-.13.41.25.07.15.29s-.05.16-.08.24-.09.25-.06.29.53.14.81.2.17.41,0,.61-.15.08-.2,0a1.17,1.17,0,0,1-.05-.11l-.06-.1s0,.09-.05.13a.83.83,0,0,1-.11.17c-.24.18-.31.47-.45.6a2,2,0,0,1-.2.11.75.75,0,0,1,0-.21c0-.18,0-.21-.14-.12l0,0-.15,0a1.3,1.3,0,0,1,.1-.15,3.85,3.85,0,0,0,.27-.3c.17-.27.16-.34,0-.46s-.15-.06-.26.07-.23.29-.39.28a2,2,0,0,0-.59.78" transform="translate(-11.98 -12.77)"/><path class="cls-4" d="M315.6,76.25c-.25.13-.51.26-.76.37a.23.23,0,0,1-.18,0,.1.1,0,0,1,0-.17c.06-.08.11-.2.19-.09s.29-.11.42-.2-.11,0,1-.33a1.49,1.49,0,0,1-.62.45" transform="translate(-11.98 -12.77)"/><path class="cls-4" d="M317,75.21a.39.39,0,0,0,.33-.11s.09,0,.13,0a.42.42,0,0,1,0,.15.68.68,0,0,1-.55.35c-.16-.1-.39,0-.61.07,0,0,0,0-.06,0s0-.09.06-.11a1.25,1.25,0,0,1,.74-.31" transform="translate(-11.98 -12.77)"/><path class="cls-4" d="M325.11,121.44c0-.08-.17-.29-.34-.31a1.69,1.69,0,0,1-.57-.2c-.21-.09-.33-.28-.23-.37a.33.33,0,0,1,.18-.08c.06,0,.05,0,0-.08a.58.58,0,0,0-.15-.29.19.19,0,0,1-.06-.18c0-.07,0-.11-.12-.15s-.05,0-.07-.07.06,0,.08,0,.14.07.2.08.13,0,.13,0a.61.61,0,0,0-.1-.14s-.14,0-.15,0-.18,0-.29,0a1.67,1.67,0,0,1-.44-.44s0,0,.06,0,.24.09.35.11a.94.94,0,0,0,.37,0c.23,0-.09-.24-.1-.34a.55.55,0,0,0-.25-.36s0-.08,0-.06a2.58,2.58,0,0,0,1,0c.13,0,.25-.07.26-.2,0-.42.08-.45-.21-.65-.09-.07-.23-.17-.24-.24s-.25-.26-.58-.44c-.13-.07-.22-.16-.21-.3a2.18,2.18,0,0,0,.54.25,2.92,2.92,0,0,0,.72.18c.4.06.45-.24.55-.6a1.76,1.76,0,0,0,0-.46s0-.06,0-.07a.2.2,0,0,1,0-.29.4.4,0,0,0,0-.34c0-.15.1,0,.15,0s.07.18.06.42l.06,0a3.4,3.4,0,0,0,.07-.34c0-.24,0-.64.1-.72s.1-.18.1-.3a1.19,1.19,0,0,0-.18-.56,2.54,2.54,0,0,1-.19-.69s0-.07,0-.06.07-.06.1-.11c.16-.23.31-.49.62-.55a.52.52,0,0,0,.37-.26c.17-.27.4,0,.54-.15s.15.06.21,0,.28-.17.43-.37-.09-.12.1-.69a1.47,1.47,0,0,0,.1-1,.68.68,0,0,1,0-.31,2,2,0,0,0,0-.24c0-.19,0-.39,0-.58,0-.37-.13-.53-.25-1.47a1.83,1.83,0,0,1,0-.4s.05,0,.05,0c.17.19.18,0,.21-.1s.1-.36.17-.54a1.16,1.16,0,0,1,.19-.45,2.8,2.8,0,0,0,.47-.78,1.78,1.78,0,0,0,.16-.84,6.34,6.34,0,0,0-.29-1.29c-.06-.22-.17-.3-.36-.27a.59.59,0,0,1-.53-.2l-.46-.46c-.34-.37-.68-.74-1.16-.67a.86.86,0,0,1-.75-.18c-.23-.2-.4.08-.6,0,0,0-.08.16-.13.25h-.05s0-.06,0-.08c.07-.49.07-.49-.31-.78,0,0,0,0,0,0-.25-.15-.49-.31-.74-.44s-.4,0-.42.11a1.15,1.15,0,0,1-.29.48c-.06.09-.07.08-.2,0s-.08,0-.11,0,.05-.1.09-.11c.24-.06.31-.29.37-.55s0-.27-.17-.28-.3,0-.45,0-.22,0-.26.21a.49.49,0,0,1-.27.39c0-.13.08-.26.05-.3-.14-.22,0-.31.07-.43l.33-.55a.38.38,0,0,0-.08-.48c-.38-.45-.28-.73-.37-1.06A.71.71,0,0,0,322,97a3.57,3.57,0,0,1-.45-.5,1.39,1.39,0,0,0-.94-.52c-.25,0-.51.07-.77,0a.15.15,0,0,1-.13-.08,1,1,0,0,0-.38-.47.21.21,0,0,1-.07-.14,1.1,1.1,0,0,0-.36-.64.54.54,0,0,0-.53-.23l-.16,0a3.4,3.4,0,0,1,.12-.38.18.18,0,0,0,0-.22.53.53,0,0,0-.39-.2c-.15,0-.14-.21-.23-.27s.06-.13.1-.2a.86.86,0,0,0-.67.22.4.4,0,0,1-.64-.09.24.24,0,0,0-.18-.07c-.13,0-.27,0-.4.07s-.17,0-.21-.24a.44.44,0,0,0-.09-.22.41.41,0,0,0-.43-.13,3.57,3.57,0,0,0-.47.25c-.13.07-.15.19-.09.38s.07.2.09.31a.34.34,0,0,1-.1.38s-.08,0-.1,0a.64.64,0,0,1-.1-.56.78.78,0,0,0,.07-.62.21.21,0,0,1,.08-.27.23.23,0,0,0,.1-.07.17.17,0,0,0,0-.22c-.15-.26-.2,0-.33.14s-.32.44-.56.39-.13.15-.19.19-.18-.11-.26,0l0,.06a.86.86,0,0,0-.16.56c0,.07,0,.18,0,.19s-.19.26-.3.37a.25.25,0,0,0-.06.28,1,1,0,0,1,0,.17l-.35-.6a.5.5,0,0,0-.7-.17l-.29.23a.33.33,0,0,1-.42-.12,3.79,3.79,0,0,1-.44-1,.81.81,0,0,1,0-.27c0-.37.09-.73.15-1.09,0-.1,0-.19.05-.28s0-.29.07-.42,0-.31-.11-.31-.06-.05-.07-.09a.23.23,0,0,0-.22-.25c-.14,0-.28-.08-.43,0a.46.46,0,0,1-.2,0c-.14,0-.27-.1-.4,0s0,0,0,0l-.13-.09a1.34,1.34,0,0,1,.07-.18,1.21,1.21,0,0,0,.11-.3,4.56,4.56,0,0,0,.14-.9l.07-.06c0,.15.06.11.08,0s.08-.33.12-.5a.9.9,0,0,1,0-.19,6,6,0,0,0,.32-.75s0-.15-.05-.15a2.42,2.42,0,0,0-.47,0c-.11,0-.21.1-.32.13s-.23.15-.29.41-.08.27-.1.41-.27.35-.31.64c0,0-.1.07-.12,0s-.17,0-.26,0a2.47,2.47,0,0,1-.42.17.12.12,0,0,1-.13,0,.62.62,0,0,0-.09-.12c0,.4-.06.81-.08,1.21a.19.19,0,0,1,.22.1c.3.54.44,1,.7,1.1a2.29,2.29,0,0,1,.6.35c.11.07.23.17.35,0,0,0,.06,0,.08,0a.3.3,0,0,1,0,.13c-.06.07-.05.12,0,.2l.38.72a.76.76,0,0,1,.07.45c0,.27,0,.28.13.42h.08a.59.59,0,0,0-.05-.19s.07,0,.08.05a.89.89,0,0,0,.29.4.29.29,0,0,1,.08.31c0,.08,0,.14.08.12a.08.08,0,0,1,.08,0c0,.11.07.11.15.1s.26,0,.34.25.08.06.13.07.07.16.11.23a.06.06,0,0,0,.07,0c.12,0,.16-.14.1-.32s-.09-.16,0-.22a1,1,0,0,0,.23-.31c0-.06.11-.12.14-.1a2,2,0,0,1,.32.33s0,.13,0,.21a1,1,0,0,0,.15.49c.15.38.16.22.18,1.35a1.2,1.2,0,0,0,.05.5.17.17,0,0,1,0,.1,4.65,4.65,0,0,1-.2.52.34.34,0,0,1-.21.14c-.11,0,.05.28-.08.32s-.07.07,0,.16a.15.15,0,0,1,0,.2l-.16.08c-.09,0-.13.11-.14.27a2,2,0,0,1-.12.68.76.76,0,0,0,0,.42c0,.1,0,.2,0,.29s.07.18.12.26.09,0,.13,0a.06.06,0,0,1,.09,0s0,.08,0,.13a.55.55,0,0,1-.15.38c-.26.29-.27.47-.1,1,0,.08.08.19.06.23s0,.24.13.33a1.76,1.76,0,0,1,.31.35c.26.51.55,1,.77,1.57a6.34,6.34,0,0,0,.47.94c.18.3.34.61.52.91s0,.28.26.66a3.47,3.47,0,0,0,1.08,1A7.33,7.33,0,0,1,316.6,109a7.4,7.4,0,0,1,.46,1.25,3,3,0,0,1,.25,1.14.29.29,0,0,0,0,.09c.12.4.29.78.4,1.17s.21.81.3,1.2a1.05,1.05,0,0,0,.2.48.44.44,0,0,1,.09.23c0,.22.13.43.25.64a4.51,4.51,0,0,1,.4.75c.19.5.29,1,.42,1.44a1.09,1.09,0,0,1,0,.18.42.42,0,0,0,.06.14,3.36,3.36,0,0,0,.34.41,1.42,1.42,0,0,1,.24.26,32.89,32.89,0,0,0,4.95,3.36c-.06-.12.09-.18.12-.25" transform="translate(-11.98 -12.77)"/><path class="cls-4" d="M328.89,65.55s-.24-.09-.23-.11-.14-.14-.23-.13-.2,0-.22-.08-.06-.06-.12-.07l-.1,0s.12-.05.13-.08a.18.18,0,0,1,.21-.08h.18l.05,0a.08.08,0,0,0,0,0c-.07,0-.24,0-.24-.07a2.58,2.58,0,0,0,.29,0s.06,0,.09,0,0-.05-.06-.06l-.09,0h-.14l.15-.08.15-.08c-.34,0-.53-.08-.85,0l.14-.06c.07,0,.17,0,.19-.08s-.11,0-.18,0a.84.84,0,0,0-.2,0c-.08,0-.14,0-.12,0s0-.25-.25-.26h0l.21-.09a.16.16,0,0,0-.05-.09s-.06,0-.11,0h-.56a.53.53,0,0,0-.16,0s0,.11,0,.13.11,0,.18,0a1.07,1.07,0,0,1,.4,0,1.8,1.8,0,0,0-.32,0,.67.67,0,0,1-.48.08.67.67,0,0,0-.17,0l-.22.06a1.84,1.84,0,0,1,.31-.16c.14,0,.16-.11.18-.18s-.07-.05-.14-.05a4.65,4.65,0,0,0-1.11.2c-.18.06-.19.06-.18.19a1.66,1.66,0,0,0-.22,0c-.11,0-.15.07-.08.1s0,0,0,.08-.14,0-.14,0-.09-.08,0-.13a1.52,1.52,0,0,1,.55-.29,4.45,4.45,0,0,0,.45-.13,4,4,0,0,0-2.19.64c.46,0,.33,0,.44,0a.71.71,0,0,1-.16,0,2.26,2.26,0,0,1-.26,0s-.07,0-.1.06a0,0,0,0,0,0,0,.22.22,0,0,0,.12.05c.15,0,.35,0,.43,0a8.41,8.41,0,0,0,.87,0,2.09,2.09,0,0,1,.7,0,.32.32,0,0,0,.13,0,.26.26,0,0,0,.11-.07c0-.1.06-.09.13-.07s.16.21.32.26c0,0,0,.07-.06.07l-.28.06,0,0s0,0,0,0c.27-.08.41,0,.53.08s0,.29-.21.38-.48.16-.73.26c0,0-.12.08-.11.09s0,.13-.17.15l-.35.08c-.07,0-.16.09-.22.09s-.08,0-.13-.07-.43.07-.65.16l-.05,0c-.07.07-.07.13,0,.14h.1a4.54,4.54,0,0,1,.7-.1l.06,0c.2-.08.31-.07.33.07s0,.15.15.16,0,0,0,.08-.11.08,0,.13.26,0,.3.09.46.12.66.22c0,0,.09,0,.11,0s.05-.08,0-.11a1.64,1.64,0,0,0-.14-.22.87.87,0,0,1-.09-.11s0,0,0-.06l.07,0c.18.06.34.13.51.2s.2,0,.33-.11l.07-.09h.06c.06,0,.1,0,.11-.05s0-.16,0-.24,0-.12-.06-.13-.12,0-.09-.13,0-.06,0-.1a.28.28,0,0,1,0-.09h.1c.07,0,.14,0,.15-.08l.06,0c.2-.07.2-.07.31,0s0,.05.07.05,0,0,0,.08,0,.14.13.17a.23.23,0,0,0,.24-.06.38.38,0,0,1,.29-.13.55.55,0,0,0,.29-.13c.06-.09.1-.08.18-.08l.14,0,.14-.09a.29.29,0,0,0-.12-.07s-.08,0-.11,0" transform="translate(-11.98 -12.77)"/><path class="cls-4" d="M367,107.94a1.75,1.75,0,0,0-.25-1.17.51.51,0,0,0-.22.44.34.34,0,0,1-.21.31,1.28,1.28,0,0,0-.29.39s0,0,0,.06c0,.28-.35.33-.42.57-.21-.06-.26.12-.33.27s-.08,0-.11,0c-.3.14-.64.1-.84.54a1.61,1.61,0,0,0-.17,1,1.23,1.23,0,0,1-.26,1.13,2.43,2.43,0,0,0-.2.28.73.73,0,0,0-.15.75.63.63,0,0,1,0,.43.65.65,0,0,0,.33.74c.29.18.47-.06.62-.08.5-.06.54-.5.93-1.38a12.16,12.16,0,0,0,1-2.43.64.64,0,0,1,.14-.39.55.55,0,0,0,.11-.44.33.33,0,0,1,.07-.33l.07.06c.11.1.15.1.19,0a.45.45,0,0,0,0-.2,3.7,3.7,0,0,1,0-.47" transform="translate(-11.98 -12.77)"/><path class="cls-4" d="M344,68.17c.14,0,.15.09,0,.19a.27.27,0,0,0-.07.13l.17,0h0l-.06.32s0,0,.06,0a.17.17,0,0,1,0-.07.39.39,0,0,1,.1-.08s.07,0,.07.06a.55.55,0,0,1-.16.37,1.84,1.84,0,0,0,.34,0c.13,0,.22,0,.17.14s.06.08.1.12.07,0,.07.06c0,.18-.1.29-.3.31h-.12c-.2,0-.2,0-.13.16s0,.21-.11.28a.67.67,0,0,0-.12.06c-.05,0-.16.08-.16.11s.1.06.17,0a.56.56,0,0,1,.23.05c.14.1.28.07.47,0-.21.32-.42.13-.6.26s-.32.26-.49.39c.26-.16.58.06.8-.21,0,0,.08,0,.12,0,1.29-.08,1.15,0,1.52-.19.06,0,.11-.08,0-.12s0-.19.17-.29.15-.12.11-.23a.23.23,0,0,0-.23-.15l-.22,0s-.08,0-.07-.06c.09-.19-.08-.32-.09-.47a.24.24,0,0,0-.16-.15.3.3,0,0,1-.21-.24c0-.23-.15-.34-.41-.35-.07,0-.08,0,0-.06a4.17,4.17,0,0,0,.41-.43c.07-.09.05-.13-.07-.14h-.46s-.09,0-.09,0a.15.15,0,0,1,0-.09l.24-.14s0-.07,0-.07l-.52,0a.23.23,0,0,0-.1.07c-.1.11-.2.23-.29.35s-.11,0-.2,0,0,0-.05,0,0,0,0,0,.05.06.09.06" transform="translate(-11.98 -12.77)"/><path class="cls-4" d="M339.8,65.7l-.32,0h.19c.11,0,.25.1.23.14s-.17.09-.27.12a2.93,2.93,0,0,1,.67.08,1.09,1.09,0,0,0,.6,0c1.26-.38,1-.18,1.51-.47.11-.06.12-.14,0-.18a.32.32,0,0,1-.21-.14.67.67,0,0,0-.37-.07,1.67,1.67,0,0,1-.74.1c-.15,0-.31.09-.46,0h0c0,.1-.17.08-.25.13s-.13,0-.11,0,.05-.11,0-.14L340,65.3s0,0,0,0,0,.09-.1.07a.23.23,0,0,0-.26.06.75.75,0,0,1-.13.11l.54,0a.27.27,0,0,1-.22.15" transform="translate(-11.98 -12.77)"/><path class="cls-4" d="M360.65,63.81s.05.06.08.07h.17l-.18-.12s-.08,0-.07,0" transform="translate(-11.98 -12.77)"/><path class="cls-4" d="M326.17,72.22a.86.86,0,0,0,.07-.1s-.05,0-.08,0-.15,0-.2,0-.26,0-.38,0-.08,0,0-.1.14,0,.1-.12-.11,0-.16,0a.9.9,0,0,0-.18.1,9.9,9.9,0,0,0,.82-.79c-.05,0-.09,0-.13,0a1.11,1.11,0,0,0-.27.13A3.7,3.7,0,0,0,325,72c-.11.13-.19.29-.37.35a.3.3,0,0,0-.13.14c0,.12-.11.16-.2.21-.25.15-.21.15-.26.24s.07.06.1,0a1.35,1.35,0,0,1,.66,0,1,1,0,0,0,.17,0c.07,0,.17-.12.19,0a1.64,1.64,0,0,0,.25-.06h.05c0,.15.06.1.13,0s0-.06.08-.07a.17.17,0,0,1,.1,0s0,0,0,.08a1.77,1.77,0,0,1-.12.17c-.07.13.14.24.31.07l.18-.17c.13-.13-.07-.19,0-.31-.17.06-.11,0-.2,0s0,0,.27-.31l-.2,0,.12-.18s0,0,.06,0" transform="translate(-11.98 -12.77)"/><path class="cls-4" d="M324.55,63.41s0,.05.05.05a2.26,2.26,0,0,0,.37,0c.08,0,.16,0,.14.05a.22.22,0,0,1-.17.11.55.55,0,0,0-.24.12c-.05,0-.07.07,0,.07a1.73,1.73,0,0,0,.59,0s.07,0,.11,0a.23.23,0,0,0,.12,0,8.48,8.48,0,0,0,1.09-.08.12.12,0,0,1,.08,0,1.38,1.38,0,0,0,.77,0,1.29,1.29,0,0,0,.28-.08c.08,0,.08-.08,0-.08a1.42,1.42,0,0,0-.36,0l-1.06.12a4.4,4.4,0,0,1-.48,0c-.1,0-.23,0-.2-.08s-.05,0-.1,0l.31,0a.89.89,0,0,0-.44-.06.58.58,0,0,1-.19,0,1.52,1.52,0,0,0-.57,0l-.14,0" transform="translate(-11.98 -12.77)"/><path class="cls-4" d="M342.38,69.48c0,.06,0,.08,0,.11s-.09.09,0,.14.14.09,0,.23c-.24.3-.39.33-.25.45.3.24.59-.12,1.1-.21a.41.41,0,0,0,.35-.27c.14-.33-.07-.47.19-.56.06,0,.14-.13.13-.18s-.08-.19-.15-.21a1.35,1.35,0,0,0-.6,0c-.11,0-.2.1-.19.18s-.09.16-.19.18-.46-.07-.39.14" transform="translate(-11.98 -12.77)"/><path class="cls-4" d="M314.07,87.81s-.05-.1-.09-.11c-.19-.06-.3-.28-.47-.37s-.36-.41-.53-.49c-.59-.28-.78-.77-1.64-.31a.71.71,0,0,0-.39.54,1.23,1.23,0,0,0,.47-.32.37.37,0,0,1,.35-.16c.08,0,.14,0,0,.16s0,.09,0,.09.11,0,.17,0l.29.1a1.25,1.25,0,0,0,.36.15c.11,0,.17.06.17.22s.06.25.16.27.2-.05.2.11-.07.2-.13.33l.6,0a2.17,2.17,0,0,0,.41-.09s.07-.07,0-.13" transform="translate(-11.98 -12.77)"/><path class="cls-4" d="M350.13,62.62s0,0,0,0a1,1,0,0,0,.65,0,.36.36,0,0,1,.15,0h.26l.26,0-.78.08H351l-.28,0,.36.1c.13,0,.22,0,.28,0a1.57,1.57,0,0,1,.45-.22.6.6,0,0,1,.3,0,1.06,1.06,0,0,1,.25.09s0,0,0,.06l.07,0a1.48,1.48,0,0,1,.21,0,.84.84,0,0,0,.4,0l-.7-.13-.2,0a4.08,4.08,0,0,1-.52-.07,1.18,1.18,0,0,0-.43,0c-.1,0-.1,0-.06,0a0,0,0,0,1,0,0h0a.66.66,0,0,0-.46,0l-.05,0s-.06,0-.12,0l-.4,0-.1,0h.09c.05,0,.18,0,.07,0" transform="translate(-11.98 -12.77)"/><polyline class="cls-4" points="313.6 110.09 313.61 110.09 313.6 110.09 313.6 110.09"/><path class="cls-4" d="M325.58,122.86h0" transform="translate(-11.98 -12.77)"/><path class="cls-4" d="M315.85,88.5a1.09,1.09,0,0,1-.26-.22.43.43,0,0,0-.56-.21c-.37.15-.48-.22-.66.07.14,0,.25.12.19.36,0,0,0,0,0,.07,0,.21,0,.26-.12.27s-.33-.07-.4-.07a.24.24,0,0,0-.1,0c0,.08,0,.18.18.18a1.45,1.45,0,0,0,.36,0c.18,0,.33,0,.39.29l.09-.14c.09-.16.16-.33.33-.21,0,0,0,0,.05,0a.41.41,0,0,1,.51,0s.11,0,.13-.08a.31.31,0,0,0,0-.19.35.35,0,0,0-.13-.11" transform="translate(-11.98 -12.77)"/><path class="cls-4" d="M321.69,64.25l.06,0s-.09,0-.06,0" transform="translate(-11.98 -12.77)"/><path class="cls-4" d="M321.2,64.69c0,.09.05.1.14.06a2.12,2.12,0,0,1,.53-.12,1.38,1.38,0,0,0,.42-.17c.08,0,.13,0,.09-.11s0-.1.13-.13l.23-.09a.16.16,0,0,0,.09-.07s0,0,0,0l-.11,0c-.21,0-.54.07-.93.16h0l-.06,0h0c.05,0,.05,0,0,.06a.4.4,0,0,1-.23.08l-.26.2s0,.05,0,.09" transform="translate(-11.98 -12.77)"/><path class="cls-4" d="M322.54,66.76c.13-.16.14-.17,0-.23s-.16-.18-.35-.16c0,0,0,0,0,0,.09-.16,0-.12-.13-.06s-.43.27-.64.43a1,1,0,0,1-.29.17A.71.71,0,0,0,321,67h0c0,.06.36-.14.17.13a.12.12,0,0,0,.08,0l.69-.27c.2-.09.21-.1.32,0a.31.31,0,0,0,.36.05.83.83,0,0,0,.16-.09l-.1,0a.57.57,0,0,0-.13,0" transform="translate(-11.98 -12.77)"/><path class="cls-4" d="M352.11,62.54h.26a1.92,1.92,0,0,0,.24,0,2.6,2.6,0,0,0,1-.09l-.51,0a1.35,1.35,0,0,1-.45,0h-.05a.47.47,0,0,1-.21,0,2.18,2.18,0,0,0-.57,0l-.1,0s.07,0,.1,0a1.15,1.15,0,0,1,.33,0" transform="translate(-11.98 -12.77)"/><path class="cls-4" d="M324,63.45c-.16,0-.32,0-.48,0s-.14,0-.16.08l0,.07s-.07,0-.09,0-.1-.08-.21,0a.48.48,0,0,1-.29.08.81.81,0,0,0-.19,0l0,0,.52,0-.28.13a2.22,2.22,0,0,0,1.12-.23l.11,0c.07,0,.07-.07,0-.08" transform="translate(-11.98 -12.77)"/><path class="cls-4" d="M348.59,76.18a.69.69,0,0,0,0,.25.13.13,0,0,0,.12.08.48.48,0,0,0,.39-.44,1.48,1.48,0,0,0,0-.21h0a1.34,1.34,0,0,0,0-.28c0-.22-.12-.26-.31-.16s-.25.06-.27.12,0,.22,0,.33,0,.21,0,.31" transform="translate(-11.98 -12.77)"/><path class="cls-4" d="M350.38,77.23l.81.44a.15.15,0,0,0,.23-.17.69.69,0,0,1,.12-.6,1.12,1.12,0,0,0-.29,0,.71.71,0,0,1-.62,0,.32.32,0,0,0-.19,0,.28.28,0,0,0-.14.12s0,.11.08.14" transform="translate(-11.98 -12.77)"/><path class="cls-4" d="M324.74,63l-.54-.1h0c-.29,0-.21,0-.3,0L324,63l-.14,0a.22.22,0,0,1-.08,0l-.16,0h.13a1.13,1.13,0,0,1,.53.06.48.48,0,0,0,.46-.11s0,0,0,0" transform="translate(-11.98 -12.77)"/><path class="cls-4" d="M320,65.46l.06,0a.27.27,0,0,1,.08-.07l-.14,0" transform="translate(-11.98 -12.77)"/><path class="cls-4" d="M320.93,65.44c0-.08-.06-.15-.09-.21s-.08,0-.18,0l-.5.2-.08.07c.37.13.39.13.85,0" transform="translate(-11.98 -12.77)"/><path class="cls-4" d="M325.2,63.24h.34l.15,0v0h-.32l.26-.09s-.07-.06-.13-.07a1.43,1.43,0,0,0-.29,0,.33.33,0,0,0-.13.07l0,.11c-.06.07,0,0,.08,0" transform="translate(-11.98 -12.77)"/><path class="cls-4" d="M325.87,65.43c.09-.08.05-.09,0-.1h-.1a1.21,1.21,0,0,0-.56.21c-.06,0-.09.09,0,.11a1.2,1.2,0,0,0,.71-.22" transform="translate(-11.98 -12.77)"/><path class="cls-4" d="M332.48,64.56h-.16a.78.78,0,0,0-.16,0,1.59,1.59,0,0,0-.21.15c.06,0,.07.1.19.08l.23,0c.1,0,.23,0,.28-.09s-.1-.08-.17-.11" transform="translate(-11.98 -12.77)"/><path class="cls-5" d="M341.51,128.34a36.21,36.21,0,1,1,36.2-36.2,36.21,36.21,0,0,1-36.2,36.2m43.81-36.2a11.31,11.31,0,0,1,7.82-10.77l-3.49-10.74A11.32,11.32,0,0,1,377,53.12l-9.19-6.68A11.32,11.32,0,0,1,347.4,39.7h-12a11.33,11.33,0,0,1-20.35,6.84l-9.18,6.67a11.33,11.33,0,0,1-12.53,17.48l-3.48,10.68a11.32,11.32,0,0,1,0,21.53l3.49,10.72a11.32,11.32,0,0,1,12.54,17.45l9.23,6.72a11.32,11.32,0,0,1,20.39,6.78h11.54A11.31,11.31,0,0,1,367.59,138l9.4-6.83a11.32,11.32,0,0,1,12.65-17.49l3.5-10.78a11.31,11.31,0,0,1-7.82-10.76" transform="translate(-11.98 -12.77)"/><path class="cls-4" d="M324.46,144a6.19,6.19,0,1,0,3.7,7.94,6.19,6.19,0,0,0-3.7-7.94" transform="translate(-11.98 -12.77)"/><path class="cls-4" d="M318.66,144a6.27,6.27,0,0,1,.28-1.07,5.59,5.59,0,0,1,4.42-3.61,1.73,1.73,0,0,0,1.46-2,1.7,1.7,0,0,0-1.13-1.38,1.72,1.72,0,0,0-.85-.09A9.07,9.07,0,0,0,315.68,148c.05-.17.11-.34.17-.51a6.94,6.94,0,0,1,2.81-3.49" transform="translate(-11.98 -12.77)"/><path class="cls-4" d="M331,138.82a1.74,1.74,0,1,0-2.63,2.29,5.57,5.57,0,0,1,1.05,5.58,5.43,5.43,0,0,1-.48,1,6.89,6.89,0,0,1-.09,4.48c-.06.17-.13.34-.2.5A9.05,9.05,0,0,0,331,138.82" transform="translate(-11.98 -12.77)"/><path class="cls-4" d="M358.64,40.14a6.19,6.19,0,1,1,7.93-3.7,6.19,6.19,0,0,1-7.93,3.7" transform="translate(-11.98 -12.77)"/><path class="cls-4" d="M360.26,48.3a1.72,1.72,0,0,1-.85-.08,1.77,1.77,0,0,1-1.13-1.39,1.74,1.74,0,0,1,1.46-2,5.56,5.56,0,0,0,4.42-3.61,5.82,5.82,0,0,0,.28-1.07,6.89,6.89,0,0,0,2.81-3.49c.07-.17.12-.34.17-.5a9.06,9.06,0,0,1-7.16,12.12" transform="translate(-11.98 -12.77)"/><path class="cls-4" d="M354.17,36.43a5.43,5.43,0,0,0-.48,1A5.59,5.59,0,0,0,354.74,43a1.75,1.75,0,0,1-2.63,2.3,9,9,0,0,1,2.35-13.85c-.07.16-.14.32-.2.49a6.89,6.89,0,0,0-.09,4.48" transform="translate(-11.98 -12.77)"/><path class="cls-4" d="M324.21,40.14a6.19,6.19,0,1,0-7.94-3.7,6.2,6.2,0,0,0,7.94,3.7" transform="translate(-11.98 -12.77)"/><path class="cls-4" d="M322.59,48.3a1.75,1.75,0,0,0,.85-.08,1.77,1.77,0,0,0,1.13-1.39,1.75,1.75,0,0,0-1.47-2,5.59,5.59,0,0,1-4.42-3.61,5.09,5.09,0,0,1-.27-1.07,6.91,6.91,0,0,1-2.82-3.49c-.06-.17-.11-.34-.16-.5a9,9,0,0,0,7.16,12.12" transform="translate(-11.98 -12.77)"/><path class="cls-4" d="M328.67,36.43a4.86,4.86,0,0,1,.48,1,5.56,5.56,0,0,1-1,5.58,1.75,1.75,0,0,0,2.63,2.3,9.06,9.06,0,0,0-2.35-13.85c.07.16.14.32.2.49a6.82,6.82,0,0,1,.08,4.48" transform="translate(-11.98 -12.77)"/><path class="cls-4" d="M358.38,144a6.19,6.19,0,1,1-3.7,7.94,6.2,6.2,0,0,1,3.7-7.94" transform="translate(-11.98 -12.77)"/><path class="cls-4" d="M364.18,144a5.42,5.42,0,0,0-.27-1.07,5.59,5.59,0,0,0-4.42-3.61,1.74,1.74,0,0,1-.34-3.36,1.78,1.78,0,0,1,.86-.09,9.08,9.08,0,0,1,7.18,5.87,9,9,0,0,1,0,6.26c-.05-.17-.1-.34-.16-.51a6.91,6.91,0,0,0-2.82-3.49" transform="translate(-11.98 -12.77)"/><path class="cls-4" d="M351.85,138.82a1.74,1.74,0,1,1,2.63,2.29,5.57,5.57,0,0,0-1,5.58,5.43,5.43,0,0,0,.48,1,6.89,6.89,0,0,0,.08,4.48c.07.17.13.34.21.5a9.06,9.06,0,0,1-2.36-13.85" transform="translate(-11.98 -12.77)"/><path class="cls-4" d="M297,60a6.19,6.19,0,1,0-8.6,1.66A6.19,6.19,0,0,0,297,60" transform="translate(-11.98 -12.77)"/><path class="cls-4" d="M300.47,67.59a1.63,1.63,0,0,0,.65-.57,1.74,1.74,0,0,0-2.25-2.52,5.61,5.61,0,0,1-5.7-.33,5.82,5.82,0,0,1-.85-.71A6.88,6.88,0,0,1,288,62.29c-.15-.11-.3-.21-.43-.32a9,9,0,0,0,12.9,5.62" transform="translate(-11.98 -12.77)"/><path class="cls-4" d="M298.44,54.41a5.19,5.19,0,0,1,1,.53,5.59,5.59,0,0,1,2.43,5.13,1.74,1.74,0,0,0,3.47.32,9.07,9.07,0,0,0-10-9.84,4.92,4.92,0,0,1,.45.28,6.88,6.88,0,0,1,2.7,3.58" transform="translate(-11.98 -12.77)"/><path class="cls-4" d="M385.59,124.1a6.19,6.19,0,1,1,1.66,8.6,6.19,6.19,0,0,1-1.66-8.6" transform="translate(-11.98 -12.77)"/><path class="cls-4" d="M390.27,120.67a5.82,5.82,0,0,0-.85-.71,5.54,5.54,0,0,0-5.69-.33,1.75,1.75,0,0,1-1.61-3.1A9.07,9.07,0,0,1,395,122.15l-.43-.31a6.86,6.86,0,0,0-4.33-1.17" transform="translate(-11.98 -12.77)"/><path class="cls-4" d="M377.27,123.74a1.75,1.75,0,1,1,3.48.32,5.58,5.58,0,0,0,2.42,5.13,5.14,5.14,0,0,0,1,.52,6.8,6.8,0,0,0,2.7,3.58l.45.29a9.07,9.07,0,0,1-10-9.84" transform="translate(-11.98 -12.77)"/><path class="cls-4" d="M385.42,60.33a6.19,6.19,0,1,0,1.17-8.68,6.19,6.19,0,0,0-1.17,8.68" transform="translate(-11.98 -12.77)"/><path class="cls-4" d="M377.14,61.21a1.81,1.81,0,0,0,.34.79,1.72,1.72,0,0,0,1.65.66,1.74,1.74,0,0,0,1.46-2,5.58,5.58,0,0,1,2.13-5.29,5.41,5.41,0,0,1,.94-.58,6.89,6.89,0,0,1,2.49-3.72l.44-.31a9.06,9.06,0,0,0-9.45,10.44" transform="translate(-11.98 -12.77)"/><path class="cls-4" d="M390.29,63.49a5.43,5.43,0,0,1-.82.76,5.57,5.57,0,0,1-5.63.66,1.75,1.75,0,1,0-1.42,3.19A9.06,9.06,0,0,0,395,61.74c-.13.11-.27.23-.41.33a6.84,6.84,0,0,1-4.25,1.42" transform="translate(-11.98 -12.77)"/><path class="cls-4" d="M286.76,92.18a6.2,6.2,0,1,0-6.48,5.89,6.2,6.2,0,0,0,6.48-5.89" transform="translate(-11.98 -12.77)"/><path class="cls-4" d="M285.06,86.63a5.1,5.1,0,0,1,1.11-.06,5.59,5.59,0,0,1,4.76,3.15,1.74,1.74,0,0,0,3.31-.68,1.67,1.67,0,0,0-.17-.84A9.06,9.06,0,0,0,280.36,85h.54a6.8,6.8,0,0,1,4.16,1.65" transform="translate(-11.98 -12.77)"/><path class="cls-4" d="M293.64,96.87a1.75,1.75,0,0,0-3-1.82,5.57,5.57,0,0,1-5,2.65,5,5,0,0,1-1.09-.16,6.84,6.84,0,0,1-4.31,1.25l-.53,0a9.07,9.07,0,0,0,13.93-1.88" transform="translate(-11.98 -12.77)"/><path class="cls-4" d="M396.28,92a6.19,6.19,0,1,1,6,6.37,6.2,6.2,0,0,1-6-6.37" transform="translate(-11.98 -12.77)"/><path class="cls-4" d="M389,96.09a1.67,1.67,0,0,1-.19-.84,1.75,1.75,0,0,1,1-1.5,1.73,1.73,0,0,1,2.34.76A5.58,5.58,0,0,0,397,97.57a5.7,5.7,0,0,0,1.1-.08,6.88,6.88,0,0,0,4.2,1.57h.53a9.05,9.05,0,0,1-13.76-3" transform="translate(-11.98 -12.77)"/><path class="cls-4" d="M398.39,86.57a5.81,5.81,0,0,0-1.1-.14,5.57,5.57,0,0,0-5,2.75,1.75,1.75,0,1,1-3-1.77,9.07,9.07,0,0,1,13.89-2.14l-.53,0a6.82,6.82,0,0,0-4.28,1.33" transform="translate(-11.98 -12.77)"/><path class="cls-4" d="M297.44,124a6.19,6.19,0,1,1-8.7-1,6.2,6.2,0,0,1,8.7,1" transform="translate(-11.98 -12.77)"/><path class="cls-4" d="M299.3,129.52a5.45,5.45,0,0,0,.93-.6,5.56,5.56,0,0,0,2-5.33,1.74,1.74,0,0,1,3.09-1.38,1.68,1.68,0,0,1,.35.78,9.06,9.06,0,0,1-9.25,10.62l.43-.32a6.87,6.87,0,0,0,2.42-3.77" transform="translate(-11.98 -12.77)"/><path class="cls-4" d="M300.29,116.2a1.75,1.75,0,0,1-1.35,3.22,5.56,5.56,0,0,0-5.63.77,5.31,5.31,0,0,0-.8.77,6.86,6.86,0,0,0-4.22,1.49l-.41.35a9.06,9.06,0,0,1,12.41-6.6" transform="translate(-11.98 -12.77)"/></g><path class="cls-4" d="M270.13,116.26c.16.45.43.7.75.58,1.09-.38-.63-3.32,1.51-4.06,1.16-.41,2.14.37,2.6,1.68a4.45,4.45,0,0,1,0,3l-1.28-.15a3.7,3.7,0,0,0,.15-2.41c-.19-.55-.51-.81-.88-.68-1.11.39.65,3.32-1.45,4.06-1.07.38-2.07-.31-2.56-1.68a4.49,4.49,0,0,1-.15-2.47l1.29.12A4.5,4.5,0,0,0,270.13,116.26Z" transform="translate(-11.98 -12.77)"/><path class="cls-4" d="M272,108.71a1.33,1.33,0,0,0-1.75-1l-3.54.86-.34-1.38,3.55-.86a2.56,2.56,0,0,1,3.28,2.1,2.59,2.59,0,0,1-1.94,3.41l-3.55.86-.33-1.37,3.54-.87A1.36,1.36,0,0,0,272,108.71Z" transform="translate(-11.98 -12.77)"/><path class="cls-4" d="M267.27,99.89A2.2,2.2,0,0,1,270,102l.2,1.23,1.77-.29.23,1.4-6.19,1-.44-2.63C265.27,101.15,265.9,100.12,267.27,99.89Zm.27,1.32c-.69.12-1,.62-.84,1.4l.2,1.16,2.09-.35-.19-1.16C268.67,101.48,268.25,101.09,267.54,101.21Z" transform="translate(-11.98 -12.77)"/><path class="cls-4" d="M266.8,93.28c1.46-.1,2.36.76,2.46,2.36l.08,1.24,1.79-.11.09,1.41-6.27.4-.17-2.66C264.68,94.33,265.41,93.36,266.8,93.28Zm.13,1.34c-.7,0-1,.51-1,1.3l.08,1.17,2.12-.13-.08-1.18C268,95,267.65,94.57,266.93,94.62Z" transform="translate(-11.98 -12.77)"/><path class="cls-4" d="M267.8,85.64A3.38,3.38,0,1,1,264.58,89,3.23,3.23,0,0,1,267.8,85.64Zm-.06,5.29a1.92,1.92,0,1,0,0-3.84,1.92,1.92,0,1,0,0,3.84Z" transform="translate(-11.98 -12.77)"/><path class="cls-4" d="M271.54,80.79l-1.89.78,0,.14-.15,1.3,1.79.2-.17,1.41-6.24-.71.31-2.71c.19-1.63,1.08-2.47,2.46-2.31a2.07,2.07,0,0,1,1.88,1.4l2.21-1.1Zm-3.23,2.09.14-1.31c.09-.77-.21-1.26-.93-1.34s-1.09.33-1.18,1.1l-.15,1.3Z" transform="translate(-11.98 -12.77)"/><path class="cls-4" d="M266.79,72.19l1.17.25-.4,1.88,5,1.08-.3,1.38-5-1.08-.41,1.87-1.18-.25Z" transform="translate(-11.98 -12.77)"/><path class="cls-4" d="M269.17,64.21l1.12.37-1,2.94,1.47.47.88-2.69,1.13.36-.88,2.7,2.26.73-.44,1.35-6-1.94Z" transform="translate(-11.98 -12.77)"/><path class="cls-4" d="M275.46,62.26a1.33,1.33,0,0,0-.77-1.87l-3.35-1.46.57-1.3,3.35,1.46a2.84,2.84,0,0,1-2.27,5.2l-3.35-1.47.57-1.3L273.55,63A1.36,1.36,0,0,0,275.46,62.26Z" transform="translate(-11.98 -12.77)"/><path class="cls-4" d="M273.37,54.67l5-.69-3.53-2,.66-1.18L281,53.9,280.37,55l-5,.69,3.52,2-.66,1.18-5.49-3.06Z" transform="translate(-11.98 -12.77)"/><path class="cls-4" d="M282.58,45.89a3.12,3.12,0,0,1,.66,4.55l-1.48,2.14L276.6,49l1.51-2.19A3.08,3.08,0,0,1,282.58,45.89Zm-.82,1.19a1.85,1.85,0,0,0-2.68.44l-.7,1,3.2,2.22.74-1.06A1.82,1.82,0,0,0,281.76,47.08Z" transform="translate(-11.98 -12.77)"/><path class="cls-4" d="M285.54,37.5l.88.79-2.05,2.31,1.15,1,1.88-2.12.89.79-1.88,2.12L288.19,44,287.25,45l-4.7-4.16Z" transform="translate(-11.98 -12.77)"/><path class="cls-4" d="M293.21,34.33a3.38,3.38,0,1,1-4.64.07A3.21,3.21,0,0,1,293.21,34.33ZM289.42,38a2,2,0,0,0,2.76.06,1.93,1.93,0,0,0,0-2.74,1.9,1.9,0,0,0-2.72-.06A1.92,1.92,0,0,0,289.42,38Z" transform="translate(-11.98 -12.77)"/><path class="cls-4" d="M299.3,33.56l-1.88-.82-.11.08-1,.8L297.37,35l-1.13.86-3.82-5,2.17-1.66c1.3-1,2.52-.94,3.37.16a2.11,2.11,0,0,1,.3,2.33l2.32.83Zm-3.75-.88,1-.8c.62-.48.76-1,.32-1.6s-1-.56-1.61-.09l-1,.8Z" transform="translate(-11.98 -12.77)"/><path class="cls-4" d="M302.57,25.13c-.4.25-.59.56-.41.85.62,1,3.11-1.34,4.3.59.65,1,.1,2.17-1.08,2.9a4.42,4.42,0,0,1-2.88.63l-.13-1.28a3.74,3.74,0,0,0,2.38-.38c.5-.31.68-.68.48-1-.63-1-3.1,1.36-4.28-.53-.6-1-.16-2.09,1.08-2.86a4.41,4.41,0,0,1,2.38-.69l.16,1.29A4.26,4.26,0,0,0,302.57,25.13Z" transform="translate(-11.98 -12.77)"/><path class="cls-4" d="M311.59,24.7,309,26l.11,1.31-1.31.65-.36-6.83,1.31-.65,5.2,4.43-1.36.67Zm-.92-.82-2-1.74.19,2.62Z" transform="translate(-11.98 -12.77)"/><path class="cls-4" d="M319.14,19.58a3.11,3.11,0,0,1-2,4.12l-2.44.93-2.24-5.87,2.5-1A3.08,3.08,0,0,1,319.14,19.58Zm-1.35.52a1.86,1.86,0,0,0-2.46-1.16l-1.14.43L315.58,23l1.2-.45A1.81,1.81,0,0,0,317.79,20.1Z" transform="translate(-11.98 -12.77)"/><path class="cls-4" d="M322.61,16.59a1.93,1.93,0,0,0,1,3.73A2.45,2.45,0,0,0,325,19.18l1,.66a3.73,3.73,0,0,1-2.16,1.75,3.2,3.2,0,1,1-1.62-6.19,3.61,3.61,0,0,1,2.66.36L324.4,17A2.3,2.3,0,0,0,322.61,16.59Z" transform="translate(-11.98 -12.77)"/><path class="cls-4" d="M330.23,13.75l2.34,3.55,1.28-4.05,1.56-.22.87,6.22-1.26.17-.59-4.19L333.28,19l-.92.13-2.15-3.33L330.8,20l-1.27.18L328.66,14Z" transform="translate(-11.98 -12.77)"/><path class="cls-4" d="M338.83,12.88l.39,6.27-1.41.09-.4-6.27Z" transform="translate(-11.98 -12.77)"/><path class="cls-4" d="M345,16h1.23l0,2.41a4.64,4.64,0,0,1-2.56.79,3.21,3.21,0,0,1-3.3-3.25,3.24,3.24,0,0,1,3.46-3.14,3.91,3.91,0,0,1,2.51,1l-.81,1a2.66,2.66,0,0,0-1.71-.72,2,2,0,1,0,0,3.92A2.82,2.82,0,0,0,345,17.6Z" transform="translate(-11.98 -12.77)"/><path class="cls-4" d="M351.4,19.64l-.79-1.9h-.13l-1.3-.15L349,19.36l-1.41-.16.72-6.24,2.71.31c1.63.19,2.47,1.08,2.31,2.46a2.07,2.07,0,0,1-1.4,1.88L353,19.82Zm-2.09-3.24,1.3.15c.78.09,1.26-.22,1.35-.93s-.33-1.09-1.11-1.18l-1.3-.15Z" transform="translate(-11.98 -12.77)"/><path class="cls-4" d="M358.44,19.59l-2.86-.54-.71,1.1-1.43-.27,3.86-5.66,1.43.28,1.45,6.67-1.49-.29Zm-.23-1.2-.51-2.58L356.26,18Z" transform="translate(-11.98 -12.77)"/><path class="cls-4" d="M364,15.81l1.77,4.74,1.15-3.87,1.29.38-1.79,6-1.24-.36L363.37,18l-1.15,3.86-1.29-.39,1.79-6Z" transform="translate(-11.98 -12.77)"/><path class="cls-4" d="M374.44,19.6,374,20.72,372.21,20l-1.92,4.7L369,24.16l1.92-4.71-1.77-.72.46-1.11Z" transform="translate(-11.98 -12.77)"/><path class="cls-4" d="M381.94,23.53l-.58,1L378.67,23l-.75,1.35,2.47,1.38-.58,1-2.47-1.39-1.16,2.08-1.24-.69L378,21.33Z" transform="translate(-11.98 -12.77)"/><path class="cls-4" d="M383.61,30.59,381.18,29l-1.08.75-1.23-.81,5.74-3.74,1.22.8-1.22,6.72-1.26-.83Zm.24-1.2.52-2.59-2.18,1.5Z" transform="translate(-11.98 -12.77)"/><path class="cls-4" d="M390.41,29.31l-1,4.14,3.83-1.85,1.23,1-3.94,4.89-1-.8,2.65-3.29-3.55,1.75-.72-.58,1-3.85L386.23,34l-1-.8,3.94-4.9Z" transform="translate(-11.98 -12.77)"/><path class="cls-4" d="M397,35.09l-4.39,4.5-1-1L396,34.11Z" transform="translate(-11.98 -12.77)"/><path class="cls-4" d="M399.25,37.41l-3.69,3.44,1.84,2-.91.84-2.8-3,4.6-4.28Z" transform="translate(-11.98 -12.77)"/><path class="cls-4" d="M402.81,41.45,398,45.51l-.91-1.08,4.79-4.06Z" transform="translate(-11.98 -12.77)"/><path class="cls-4" d="M406.87,46.85l-.95.69-2-2.72-1.1.81,1.79,2.45-.95.69-1.79-2.45-1.12.82,2,2.8-.95.69L399,46.69l5.08-3.7Z" transform="translate(-11.98 -12.77)"/><path class="cls-4" d="M408.09,50.93c-.24-.41-.55-.6-.85-.43-1,.59,1.26,3.14-.69,4.28-1.05.63-2.17,0-2.88-1.15a4.42,4.42,0,0,1-.55-2.89l1.28-.1a3.73,3.73,0,0,0,.33,2.39c.29.5.66.69,1,.5,1-.61-1.28-3.14.63-4.27,1-.58,2.1-.1,2.84,1.15a4.52,4.52,0,0,1,.63,2.4l-1.29.13A4.47,4.47,0,0,0,408.09,50.93Z" transform="translate(-11.98 -12.77)"/><path class="cls-4" d="M413.44,61c-.23-.58-.6-.86-1-.7-1.27.52.69,3.38-1.4,4.23-1,.42-2.05-.23-2.58-1.51a3.84,3.84,0,0,1,0-2.75l1,.07a3.32,3.32,0,0,0-.05,2.32c.28.68.71,1,1.15.8,1.3-.53-.71-3.38,1.36-4.22,1-.41,2,.19,2.49,1.46a4,4,0,0,1,.23,2.27l-1,0A3.78,3.78,0,0,0,413.44,61Z" transform="translate(-11.98 -12.77)"/><path class="cls-4" d="M411.56,68.72a1.54,1.54,0,0,0,2.12,1.06l3.5-1.14.33,1L414,70.79a2.74,2.74,0,0,1-1.69-5.2l3.5-1.14.33,1-3.5,1.14A1.55,1.55,0,0,0,411.56,68.72Z" transform="translate(-11.98 -12.77)"/><path class="cls-4" d="M417,77.19c-1.38.3-2.38-.41-2.72-2L414,73.82l-1.85.41-.22-1,6.13-1.33.54,2.44C418.92,75.85,418.35,76.9,417,77.19Zm-.24-1c.81-.17,1.07-.79.87-1.74l-.3-1.37-2.43.53.3,1.37C415.43,75.94,416,76.38,416.78,76.2Z" transform="translate(-11.98 -12.77)"/><path class="cls-4" d="M417.93,83.61c-1.41.19-2.35-.59-2.57-2.15l-.2-1.43-1.87.26-.15-1.05,6.22-.87.35,2.48C419.92,82.41,419.28,83.42,417.93,83.61Zm-.17-1c.82-.12,1.13-.71,1-1.67l-.2-1.39-2.46.34.2,1.39C416.43,82.24,416.91,82.73,417.76,82.61Z" transform="translate(-11.98 -12.77)"/><path class="cls-4" d="M417.25,91.38a3.33,3.33,0,1,1,3-3.45A3.21,3.21,0,0,1,417.25,91.38ZM417,85.8a2.26,2.26,0,0,0-2.15,2.35A2.23,2.23,0,1,0,417,85.8Z" transform="translate(-11.98 -12.77)"/><path class="cls-4" d="M413.79,96.74l2-1c0-.09,0-.19,0-.29l.1-1.48L414,93.82l.06-1.06,6.27.4-.16,2.54c-.1,1.6-.94,2.48-2.3,2.39a2,2,0,0,1-2-1.43l-2.18,1.28Zm2.93-1.26c-.06,1,.32,1.55,1.17,1.61s1.25-.48,1.31-1.45l.1-1.49L416.81,94Z" transform="translate(-11.98 -12.77)"/><path class="cls-4" d="M419.15,104.48l-.95-.14.28-2-5.28-.74.15-1,5.28.74.27-2,.94.13Z" transform="translate(-11.98 -12.77)"/><path class="cls-4" d="M417.16,112.73l-.92-.26.82-3-1.74-.47-.75,2.75-.91-.24.75-2.76-2.49-.67.28-1,6.06,1.64Z" transform="translate(-11.98 -12.77)"/><path class="cls-4" d="M410.78,114.89a1.54,1.54,0,0,0,1.05,2.13l3.47,1.22-.35,1L411.48,118a2.73,2.73,0,0,1,1.81-5.15l3.47,1.22-.35,1-3.47-1.22A1.56,1.56,0,0,0,410.78,114.89Z" transform="translate(-11.98 -12.77)"/><path class="cls-4" d="M413.64,122.28l-5.52,1.13,4.09,1.91-.44,1-5.69-2.66.44-.94,5.5-1.13-4.08-1.91.45-.95,5.69,2.65Z" transform="translate(-11.98 -12.77)"/><path class="cls-4" d="M405,131.79a3.11,3.11,0,0,1-1-4.42l1.3-2.19,5.4,3.19-1.31,2.22A3.08,3.08,0,0,1,405,131.79Zm.53-.92a2.14,2.14,0,0,0,3-.78l.77-1.29-3.77-2.23-.79,1.33A2.12,2.12,0,0,0,405.48,130.87Z" transform="translate(-11.98 -12.77)"/><path class="cls-4" d="M402.47,140.35l-.75-.58,1.92-2.5-1.44-1.1-1.74,2.26-.75-.57,1.74-2.27-2-1.57.64-.83,5,3.82Z" transform="translate(-11.98 -12.77)"/><path class="cls-4" d="M394.9,144a3.33,3.33,0,1,1,4.58-.28A3.21,3.21,0,0,1,394.9,144Zm3.8-4.08a2.25,2.25,0,0,0-3.06,3.29,2.25,2.25,0,0,0,3.06-3.29Z" transform="translate(-11.98 -12.77)"/><path class="cls-4" d="M388.68,145.33l2.12.66.21-.19,1.11-1-1.25-1.42.79-.7,4.17,4.7-1.91,1.69c-1.2,1.06-2.41,1.09-3.31.07a2,2,0,0,1-.38-2.38l-2.45-.64Zm3,1.18c-.72.64-.87,1.32-.3,2s1.23.54,2-.1l1.12-1-1.65-1.86Z" transform="translate(-11.98 -12.77)"/><path class="cls-4" d="M386.1,154c.51-.35.71-.77.47-1.12-.79-1.13-3.15,1.41-4.44-.46-.63-.92-.22-2,.92-2.83a3.81,3.81,0,0,1,2.67-.65l.15,1a3.32,3.32,0,0,0-2.27.45c-.6.42-.81.9-.53,1.3.8,1.15,3.14-1.42,4.41.41.62.89.24,2-.88,2.74a4.11,4.11,0,0,1-2.18.73l-.17-1A3.78,3.78,0,0,0,386.1,154Z" transform="translate(-11.98 -12.77)"/><path class="cls-4" d="M377.17,154.89l2.76-1.54-.16-1.53,1-.54.64,6.83-.94.53L375,154.5l1-.55Zm.81.63,2.4,1.86-.33-3Z" transform="translate(-11.98 -12.77)"/><path class="cls-4" d="M370,160.16a3.11,3.11,0,0,1,1.74-4.19l2.33-1,2.52,5.76-2.36,1A3.09,3.09,0,0,1,370,160.16Zm1-.43a2.15,2.15,0,0,0,2.9,1.13l1.37-.6-1.76-4-1.41.62A2.1,2.1,0,0,0,371,159.73Z" transform="translate(-11.98 -12.77)"/><path class="cls-4" d="M367,163.62a2.21,2.21,0,1,0-1.47-4.17,2.57,2.57,0,0,0-1.4,1.28l-.83-.45a3.51,3.51,0,0,1,2-1.78,3.18,3.18,0,1,1,2.08,6,3.41,3.41,0,0,1-2.57-.12l.32-.93A2.49,2.49,0,0,0,367,163.62Z" transform="translate(-11.98 -12.77)"/><path class="cls-4" d="M359.35,166.71,356.53,163l-1.24,4.48-1.23.24-1.18-6.17,1-.18.89,4.6,1.19-4.33.68-.13,2.7,3.59-.88-4.61,1-.19,1.18,6.17Z" transform="translate(-11.98 -12.77)"/><path class="cls-4" d="M350.75,168.07l-.71-6.24,1-.12.72,6.24Z" transform="translate(-11.98 -12.77)"/><path class="cls-4" d="M344.09,165.31l-.92,0-.09-2.31a4.24,4.24,0,0,1,2.41-.91,3.18,3.18,0,1,1,.18,6.35,3.77,3.77,0,0,1-2.45-.79l.57-.8a2.78,2.78,0,0,0,1.84.65,2.23,2.23,0,1,0-.18-4.45,2.8,2.8,0,0,0-1.42.48Z" transform="translate(-11.98 -12.77)"/><path class="cls-4" d="M337.44,162.1l1.08,1.94h.29l1.49.06.07-1.89,1.06,0-.24,6.27-2.55-.09c-1.6-.06-2.5-.88-2.45-2.24a2,2,0,0,1,1.38-2l-1.33-2.15Zm1.33,2.89c-1,0-1.54.36-1.57,1.21s.51,1.24,1.48,1.28l1.48.05.1-2.48Z" transform="translate(-11.98 -12.77)"/><path class="cls-4" d="M330.6,162.71l3.14.44.79-1.32,1.09.15L332,167.81l-1.08-.15-1.85-6.6,1.12.16Zm.27,1,.79,2.92,1.56-2.6Z" transform="translate(-11.98 -12.77)"/><path class="cls-4" d="M325.64,166.71l-2.2-5.18-1.07,4.38-1-.24,1.49-6.11,1,.25L326,165l1.07-4.38,1,.26-1.49,6.1Z" transform="translate(-11.98 -12.77)"/><path class="cls-4" d="M315,163.55l.32-.9,1.88.66,1.77-5,1,.36-1.77,5,1.87.66-.31.9Z" transform="translate(-11.98 -12.77)"/><path class="cls-4" d="M307.38,160.22l.41-.86,2.85,1.34.77-1.65-2.59-1.2.4-.86,2.59,1.21,1.09-2.33,1,.44L311.2,162Z" transform="translate(-11.98 -12.77)"/><path class="cls-4" d="M305.08,153.4l2.76,1.54,1.22-.94,1,.54-5.48,4.13-1-.53.66-6.82,1,.55Zm-.11,1-.33,3,2.4-1.86Z" transform="translate(-11.98 -12.77)"/><path class="cls-4" d="M298.72,155.12l.79-4.59-4.13,2.16-1-.74,3.7-5.07.79.57-2.75,3.8,4-2.09.55.4-.77,4.43,2.76-3.79.81.59-3.7,5.07Z" transform="translate(-11.98 -12.77)"/><path class="cls-4" d="M291.85,149.83l4.06-4.8.8.68-4,4.8Z" transform="translate(-11.98 -12.77)"/><path class="cls-4" d="M289.51,147.73l3.62-3.89-2-1.86.66-.7,2.76,2.57-4.28,4.6Z" transform="translate(-11.98 -12.77)"/><path class="cls-4" d="M285.7,143.94l4.59-4.27.73.77-4.6,4.28Z" transform="translate(-11.98 -12.77)"/><path class="cls-4" d="M281.38,139l.72-.61,2.21,2.61,1.3-1.09-2-2.35.73-.61,2,2.34,1.32-1.12-2.28-2.69.72-.62,3,3.51-4.8,4Z" transform="translate(-11.98 -12.77)"/><path class="cls-4" d="M279.79,135.24c.37.5.79.69,1.13.45,1.11-.81-1.48-3.12.35-4.44.91-.67,2.05-.27,2.86.84a3.87,3.87,0,0,1,.71,2.66l-1,.17a3.35,3.35,0,0,0-.51-2.26c-.44-.59-.92-.78-1.31-.5-1.13.83,1.5,3.11-.31,4.42-.87.64-2,.29-2.76-.81a4.08,4.08,0,0,1-.77-2.16l1-.2A3.74,3.74,0,0,0,279.79,135.24Z" transform="translate(-11.98 -12.77)"/><path class="cls-5" d="M23.19,91.27,22.64,94h3v2.42H22.18l-.9,4.77H18.69l.92-4.77H17.33l-.9,4.77H13.91l.87-4.77H12V94h3.25l.56-2.73h-3V88.81h3.4L17.13,84H19.7l-.9,4.78h2.32L22,84h2.53l-.92,4.78h2.82v2.46ZM17.79,94h2.3l.55-2.73h-2.3Z" transform="translate(-11.98 -12.77)"/><path class="cls-5" d="M36.44,101.19,32.3,87.71h-.1c.14,2.74.22,4.57.22,5.49v8H29.16V84h5l4.07,13.14h.07L42.58,84h5v17.18h-3.4V93.06c0-.39,0-.83,0-1.33s.06-1.84.15-4h-.1l-4.43,13.46Z" transform="translate(-11.98 -12.77)"/><path class="cls-5" d="M51.43,84.65c0-1.17.65-1.75,2-1.75s1.95.58,1.95,1.75a1.69,1.69,0,0,1-.49,1.3,2,2,0,0,1-1.46.47Q51.43,86.42,51.43,84.65Zm3.73,16.54H51.58V88.05h3.58Z" transform="translate(-11.98 -12.77)"/><path class="cls-5" d="M70.36,88.05v1.82l-2,.53a3.64,3.64,0,0,1,.56,2,4,4,0,0,1-1.47,3.3,6.39,6.39,0,0,1-4.1,1.18l-.65,0-.53-.06a1.17,1.17,0,0,0-.55.94q0,.78,2,.78h2.23a5.17,5.17,0,0,1,3.3.92,3.34,3.34,0,0,1,1.13,2.73,4,4,0,0,1-1.92,3.57A10,10,0,0,1,62.77,107a7.73,7.73,0,0,1-4.2-1,3,3,0,0,1-1.45-2.69,2.81,2.81,0,0,1,.74-2A4.2,4.2,0,0,1,60,100.2a2.27,2.27,0,0,1-1-.77,1.77,1.77,0,0,1-.41-1.13,1.83,1.83,0,0,1,.43-1.25,4.84,4.84,0,0,1,1.26-1,3.52,3.52,0,0,1-1.64-1.44,4.4,4.4,0,0,1-.61-2.33A4.1,4.1,0,0,1,59.5,89a6,6,0,0,1,4-1.18,11.63,11.63,0,0,1,1.31.1l1,.15Zm-10.14,15a1.3,1.3,0,0,0,.71,1.16,3.92,3.92,0,0,0,2,.43,7.08,7.08,0,0,0,3-.53,1.63,1.63,0,0,0,1.1-1.45,1,1,0,0,0-.65-1,5.27,5.27,0,0,0-2-.28H62.53a2.84,2.84,0,0,0-1.65.46A1.44,1.44,0,0,0,60.22,103.05Zm1.3-10.7A2.7,2.7,0,0,0,62,94a1.77,1.77,0,0,0,1.49.63A1.73,1.73,0,0,0,65,94a2.76,2.76,0,0,0,.47-1.69q0-2.37-2-2.37T61.52,92.35Z" transform="translate(-11.98 -12.77)"/><path class="cls-5" d="M79.86,87.8a5.74,5.74,0,0,1,1.21.11l-.27,3.36a4,4,0,0,0-1.06-.12,3.84,3.84,0,0,0-2.67.88,3.19,3.19,0,0,0-1,2.47v6.69H72.53V88.05h2.71l.53,2.21H76a4.79,4.79,0,0,1,1.65-1.78A4.08,4.08,0,0,1,79.86,87.8Z" transform="translate(-11.98 -12.77)"/><path class="cls-5" d="M91.8,101.19l-.69-1.79H91A5.31,5.31,0,0,1,89.15,101a5.9,5.9,0,0,1-2.49.45,4,4,0,0,1-3-1.09,4.11,4.11,0,0,1-1.09-3.07,3.48,3.48,0,0,1,1.46-3.09,8.52,8.52,0,0,1,4.42-1.1L90.75,93v-.58a1.79,1.79,0,0,0-2-2,9.22,9.22,0,0,0-3.7,1L83.81,89a10.58,10.58,0,0,1,5-1.19,6.27,6.27,0,0,1,4.06,1.15,4.26,4.26,0,0,1,1.41,3.5v8.76Zm-1-6.09-1.39.05a4.5,4.5,0,0,0-2.33.56,1.78,1.78,0,0,0-.76,1.58c0,1,.58,1.52,1.74,1.52a2.75,2.75,0,0,0,2-.72,2.52,2.52,0,0,0,.75-1.91Z" transform="translate(-11.98 -12.77)"/><path class="cls-5" d="M110.13,101.19h-3.59V93.52a3.7,3.7,0,0,0-.5-2.14,1.86,1.86,0,0,0-1.61-.71,2.43,2.43,0,0,0-2.18,1,6.29,6.29,0,0,0-.67,3.33v6.18H98V88.05h2.74l.48,1.68h.2a3.86,3.86,0,0,1,1.65-1.44,5.7,5.7,0,0,1,2.39-.49A4.62,4.62,0,0,1,108.94,89a5,5,0,0,1,1.19,3.58Z" transform="translate(-11.98 -12.77)"/><path class="cls-5" d="M119.36,98.57a7.86,7.86,0,0,0,2.25-.41v2.67a8,8,0,0,1-3.29.6,4,4,0,0,1-3.13-1.09,4.76,4.76,0,0,1-1-3.26V90.74h-1.72V89.22l2-1.19,1-2.78h2.29v2.8h3.68v2.69h-3.68v6.34a1.43,1.43,0,0,0,.43,1.13A1.73,1.73,0,0,0,119.36,98.57Z" transform="translate(-11.98 -12.77)"/><path class="cls-5" d="M128.2,94.6v6.59h-3.65V84h5a8.57,8.57,0,0,1,5.18,1.27,5.09,5.09,0,0,1,.85,6.57,5.46,5.46,0,0,1-2.36,1.85q3.87,5.8,5.05,7.49h-4l-4.1-6.59Zm0-3h1.17a4.54,4.54,0,0,0,2.55-.57,2.07,2.07,0,0,0,.83-1.81,1.88,1.88,0,0,0-.85-1.74,5,5,0,0,0-2.6-.52h-1.1Z" transform="translate(-11.98 -12.77)"/><path class="cls-5" d="M146.11,101.43a6.77,6.77,0,0,1-5-1.76,6.62,6.62,0,0,1-1.79-5,7.28,7.28,0,0,1,1.65-5.1,5.89,5.89,0,0,1,4.57-1.81,5.79,5.79,0,0,1,4.34,1.59,6,6,0,0,1,1.55,4.38v1.74H143a3.48,3.48,0,0,0,.91,2.39,3.19,3.19,0,0,0,2.37.86,9.58,9.58,0,0,0,2.25-.25,11.15,11.15,0,0,0,2.21-.79v2.78a9,9,0,0,1-2,.7A12.83,12.83,0,0,1,146.11,101.43Zm-.51-11.08a2.24,2.24,0,0,0-1.78.73,3.32,3.32,0,0,0-.74,2h5a3,3,0,0,0-.7-2A2.32,2.32,0,0,0,145.6,90.35Z" transform="translate(-11.98 -12.77)"/><path class="cls-5" d="M158,101.19h-3.58V82.9H158Z" transform="translate(-11.98 -12.77)"/><path class="cls-5" d="M161.58,84.65c0-1.17.65-1.75,1.95-1.75s1.95.58,1.95,1.75A1.69,1.69,0,0,1,165,86a2,2,0,0,1-1.46.47Q161.58,86.42,161.58,84.65Zm3.74,16.54h-3.59V88.05h3.59Z" transform="translate(-11.98 -12.77)"/><path class="cls-5" d="M175,101.43a6.77,6.77,0,0,1-5-1.76,6.59,6.59,0,0,1-1.79-5,7.28,7.28,0,0,1,1.65-5.1,5.86,5.86,0,0,1,4.57-1.81,5.77,5.77,0,0,1,4.33,1.59,6,6,0,0,1,1.56,4.38v1.74h-8.48a3.43,3.43,0,0,0,.91,2.39,3.17,3.17,0,0,0,2.37.86,9.64,9.64,0,0,0,2.25-.25,11.15,11.15,0,0,0,2.21-.79v2.78a9,9,0,0,1-2,.7A13,13,0,0,1,175,101.43Zm-.51-11.08a2.26,2.26,0,0,0-1.79.73,3.38,3.38,0,0,0-.74,2h5a2.93,2.93,0,0,0-.69-2A2.33,2.33,0,0,0,174.52,90.35Z" transform="translate(-11.98 -12.77)"/><path class="cls-5" d="M190.57,90.74h-3.11v10.45h-3.58V90.74h-2V89l2-1v-1a4.33,4.33,0,0,1,1.1-3.28,5.08,5.08,0,0,1,3.54-1,9.35,9.35,0,0,1,3.3.55L190.91,86a6.61,6.61,0,0,0-2-.34,1.31,1.31,0,0,0-1.11.45,1.92,1.92,0,0,0-.34,1.16v.82h3.11Z" transform="translate(-11.98 -12.77)"/><path class="cls-5" d="M196.49,101.19h-3.58V84h9.85v3h-6.27v4.43h5.83v3h-5.83Z" transform="translate(-11.98 -12.77)"/><path class="cls-5" d="M215.14,101.19l-.48-1.68h-.18a3.87,3.87,0,0,1-1.64,1.42,5.61,5.61,0,0,1-2.41.5,4.61,4.61,0,0,1-3.49-1.24,5,5,0,0,1-1.18-3.57V88.05h3.59v7.68a3.68,3.68,0,0,0,.51,2.13,1.84,1.84,0,0,0,1.61.71,2.42,2.42,0,0,0,2.17-1,6.17,6.17,0,0,0,.67-3.33V88.05h3.59v13.14Z" transform="translate(-11.98 -12.77)"/><path class="cls-5" d="M233.79,101.19H230.2V93.52a3.78,3.78,0,0,0-.5-2.14,1.86,1.86,0,0,0-1.61-.71,2.43,2.43,0,0,0-2.18,1,6.29,6.29,0,0,0-.67,3.33v6.18h-3.58V88.05h2.74l.48,1.68h.2a3.86,3.86,0,0,1,1.65-1.44,5.7,5.7,0,0,1,2.39-.49A4.62,4.62,0,0,1,232.6,89a5,5,0,0,1,1.19,3.58Z" transform="translate(-11.98 -12.77)"/><path class="cls-5" d="M241.64,101.43a4.27,4.27,0,0,1-3.64-1.8,8.29,8.29,0,0,1-1.32-5,8.31,8.31,0,0,1,1.34-5,4.37,4.37,0,0,1,3.71-1.81,4.28,4.28,0,0,1,3.79,1.93h.12a14.65,14.65,0,0,1-.27-2.62V82.9H249v18.29h-2.75l-.69-1.7h-.15A4.12,4.12,0,0,1,241.64,101.43Zm1.26-2.86a2.43,2.43,0,0,0,2-.8,4.62,4.62,0,0,0,.7-2.71v-.39a5.47,5.47,0,0,0-.65-3,2.41,2.41,0,0,0-2.12-.91,2.11,2.11,0,0,0-1.86,1,5.38,5.38,0,0,0-.67,3A5.13,5.13,0,0,0,241,97.6,2.19,2.19,0,0,0,242.9,98.57Z" transform="translate(-11.98 -12.77)"/></svg>