<?xml version="1.0" encoding="utf-8"?>
<!-- Generator: Adobe Illustrator 25.4.1, SVG Export Plug-In . SVG Version: 6.00 Build 0)  -->
<svg version="1.1" id="Layer_1" xmlns="http://www.w3.org/2000/svg" xmlns:xlink="http://www.w3.org/1999/xlink" x="0px" y="0px"
	 viewBox="0 0 408.3 155.8" style="enable-background:new 0 0 408.3 155.8;" xml:space="preserve">
<style type="text/css">
	.st0{fill:#666666;}
	.st1{fill:#4D72AD;}
	.st2{fill:#446299;}
	.st3{fill:#2E477F;}
	.st4{fill:#203366;}
	.st5{fill:#8C5B3E;}
	.st6{fill:#F2F2F2;}
	.st7{fill:none;}
	.st8{enable-background:new    ;}
</style>
<g>
	<g>
		<path class="st0" d="M6.5,11.7H1.9v-1.5h11.2v1.5H8.5v12.4H6.6L6.5,11.7z"/>
		<path class="st0" d="M14.6,9.4h1.9v6.2l0,0c0.4-0.5,0.8-1,1.4-1.3s1.3-0.5,2-0.5c1.5,0,3.8,0.8,3.8,4.3V24h-1.9v-5.7
			c0-1.6-0.7-2.9-2.5-2.9c-1.2,0-2.2,0.7-2.7,1.8c-0.1,0.3-0.2,0.6-0.1,0.9v6h-1.9C14.6,24.1,14.6,9.4,14.6,9.4z"/>
		<path class="st0" d="M29.3,11.3c-0.1,0.7-0.7,1.2-1.3,1.1c-0.6,0-1.1-0.5-1.1-1.1s0.5-1.2,1.2-1.2c0,0,0,0,0.1,0
			c0.6,0,1.2,0.4,1.2,1C29.3,11.2,29.3,11.2,29.3,11.3z M27.1,24V14H29v10H27.1L27.1,24z"/>
		<path class="st0" d="M32.1,22.2c0.8,0.5,1.7,0.7,2.6,0.7c1.4,0,2.1-0.7,2.1-1.5s-0.6-1.3-2-1.8c-1.9-0.6-2.9-1.6-2.9-2.8
			c0-1.6,1.4-2.9,3.8-2.9c0.9,0,1.9,0.2,2.7,0.6l-0.5,1.3c-0.7-0.4-1.4-0.6-2.2-0.6c-1.2,0-1.8,0.6-1.8,1.4c0,0.7,0.7,1.2,2.1,1.7
			c1.9,0.7,2.9,1.5,2.9,3c0,1.8-1.5,3-4.1,3c-1.1,0-2.1-0.2-3.1-0.7L32.1,22.2z"/>
		<path class="st0" d="M46.1,16.8c0-1,0-1.9-0.1-2.7h1.7l0.1,1.6h0.1c0.7-1.2,2-1.9,3.4-1.8c1.3,0,2.6,0.8,3.1,2h0.1
			c0.3-0.5,0.7-0.9,1.2-1.2c0.7-0.5,1.6-0.7,2.4-0.7c1.4,0,3.6,0.9,3.6,4.3v5.9h-1.9v-5.7c0-2-0.8-3.1-2.4-3.1c-1.1,0-2,0.7-2.4,1.6
			c-0.1,0.3-0.1,0.6-0.2,0.9v6.2h-2v-6c0-1.6-0.8-2.7-2.3-2.7c-1.1,0-2.1,0.8-2.5,1.8c-0.1,0.3-0.2,0.6-0.2,0.9v6h-1.7L46.1,16.8
			L46.1,16.8L46.1,16.8z"/>
		<path class="st0" d="M74.9,19c0,3.7-2.8,5.3-5.4,5.3c-2.7,0.2-5.1-1.9-5.2-4.7c0-0.2,0-0.3,0-0.5c-0.1-2.8,2.1-5.2,4.9-5.3
			c0.2,0,0.4,0,0.5,0c2.7-0.2,5.1,1.9,5.2,4.6C74.9,18.6,74.9,18.8,74.9,19z M66.2,19.1c0,2.2,1.4,3.8,3.3,3.8s3.3-1.6,3.3-3.9
			c0-1.7-1-3.8-3.3-3.8C67.3,15.2,66.2,17.2,66.2,19.1L66.2,19.1z"/>
		<path class="st0" d="M77.4,16.8c0-1,0-1.9-0.1-2.7h1.8l0.1,1.7l0,0c0.8-1.2,2.2-1.9,3.6-1.9c1.5,0,3.9,0.8,3.9,4.2v6h-2v-5.8
			c0-1.6-0.6-2.9-2.5-2.9c-1.2,0-2.3,0.7-2.7,1.8c-0.1,0.3-0.1,0.5-0.1,0.8v6h-2L77.4,16.8z"/>
		<path class="st0" d="M92.2,11.2v2.9H95v1.4h-2.8v5.4c0,1.2,0.4,2,1.5,2c0.4,0,0.8,0,1.1-0.1l0.1,1.4c-0.6,0.2-1.2,0.3-1.8,0.2
			c-0.8,0-1.6-0.2-2.1-0.8c-0.6-0.7-0.9-1.7-0.8-2.6v-5.5h-1.7v-1.4h1.7v-2.4L92.2,11.2z"/>
		<path class="st0" d="M97.3,9.4h1.9v6.2l0,0c0.4-0.5,0.8-1,1.4-1.3s1.3-0.5,2-0.5c1.5,0,3.8,0.8,3.8,4.3V24h-1.9v-5.7
			c0-1.6-0.7-2.9-2.5-2.9c-1.2,0-2.2,0.7-2.7,1.8c-0.1,0.3-0.2,0.6-0.1,0.9v6h-2L97.3,9.4z"/>
		<path class="st0" d="M109.5,22.2c0.8,0.5,1.7,0.7,2.6,0.7c1.4,0,2.1-0.7,2.1-1.5s-0.6-1.3-2-1.8c-2-0.6-2.9-1.6-2.9-2.8
			c0-1.6,1.4-2.9,3.8-2.9c0.9,0,1.8,0.2,2.7,0.6l-0.5,1.3c-0.7-0.4-1.5-0.6-2.2-0.6c-1.2,0-1.8,0.6-1.8,1.4c0,0.7,0.7,1.2,2.1,1.7
			c1.9,0.7,2.9,1.5,2.9,3c0,1.8-1.5,3-4.1,3c-1.1,0-2.1-0.2-3.1-0.7L109.5,22.2z"/>
	</g>
	<g>
		<path class="st0" d="M131.3,23.7c-1,0.4-2.1,0.6-3.1,0.6c-3.3,0-5.4-2-5.4-5.1s2.3-5.3,5.9-5.3c0.9,0,1.9,0.2,2.8,0.5l-0.5,1.4
			c-0.7-0.3-1.5-0.5-2.3-0.5c-2.1-0.1-3.9,1.5-4,3.5c-0.1,2.1,1.5,3.8,3.5,4c0.1,0,0.2,0,0.4,0c0.8,0,1.7-0.2,2.4-0.5L131.3,23.7z"
			/>
		<path class="st0" d="M139.7,24l-0.2-1.3h-0.1c-0.8,1-2.1,1.5-3.4,1.5c-2.2,0-3.3-1.4-3.3-2.9c0-2.4,2.4-3.7,6.6-3.7v-0.2
			c0-0.8-0.2-2.3-2.5-2.3c-1,0-2,0.3-2.9,0.7l-0.5-1.2c1.1-0.6,2.3-0.9,3.6-0.9c3.4,0,4.1,2.1,4.1,4.1v3.7c0,0.8,0.1,1.6,0.2,2.4
			L139.7,24z M139.4,19c-2.2,0-4.6,0.3-4.6,2.2c0,0.9,0.7,1.7,1.6,1.7c0.1,0,0.2,0,0.2,0c1.1,0,2.2-0.6,2.6-1.7
			c0.1-0.2,0.1-0.4,0.1-0.6L139.4,19L139.4,19z"/>
		<path class="st0" d="M144.5,16.8c0-1,0-1.9-0.1-2.7h1.7l0.1,1.6h0.1c0.7-1.2,2-1.9,3.4-1.8c1.4,0,2.6,0.8,3.1,2l0,0
			c0.3-0.5,0.8-0.9,1.3-1.2c0.7-0.5,1.6-0.7,2.4-0.7c1.4,0,3.6,0.9,3.6,4.3v5.9h-2v-5.7c0-2-0.8-3.1-2.4-3.1c-1,0-2,0.7-2.4,1.6
			c-0.1,0.3-0.2,0.6-0.2,0.9v6.2h-2v-6c0-1.6-0.8-2.7-2.3-2.7c-1.1,0-2.1,0.8-2.5,1.8c-0.1,0.3-0.2,0.6-0.2,0.9v6h-2L144.5,16.8
			L144.5,16.8L144.5,16.8z"/>
		<path class="st0" d="M163.4,17.3c0-1.3,0-2.3-0.1-3.3h1.8l0.1,1.7l0,0c0.9-1.3,2.4-2,3.9-2c2.6,0,4.6,2,4.6,5.1
			c0,3.6-2.4,5.4-5,5.4c-1.3,0.1-2.6-0.5-3.4-1.6l0,0V28h-2L163.4,17.3L163.4,17.3z M165.3,20c0,0.2,0,0.5,0.1,0.7
			c0.4,1.3,1.6,2.2,3,2.1c2.1,0,3.3-1.6,3.3-3.9c0-2-1.1-3.7-3.2-3.7c-1.4,0-2.6,0.9-3,2.2c-0.1,0.2-0.1,0.5-0.1,0.7L165.3,20
			L165.3,20z"/>
		<path class="st0" d="M182.2,24l-0.2-1.3h-0.1c-0.8,1-2.1,1.5-3.4,1.5c-2.2,0-3.3-1.4-3.3-2.9c0-2.4,2.4-3.7,6.6-3.7v-0.2
			c0-0.8-0.2-2.3-2.5-2.3c-1,0-2,0.3-2.9,0.7l-0.5-1.2c1.1-0.6,2.3-0.9,3.6-0.9c3.4,0,4.1,2.1,4.1,4.1v3.7c0,0.8,0,1.6,0.2,2.4
			L182.2,24z M181.9,19c-2.2,0-4.6,0.3-4.6,2.2c0,0.9,0.7,1.7,1.6,1.7c0.1,0,0.2,0,0.2,0c1.1,0,2.2-0.6,2.6-1.7
			c0.1-0.2,0.1-0.4,0.1-0.6L181.9,19L181.9,19z"/>
		<path class="st0" d="M189.3,11.3c-0.1,0.7-0.7,1.2-1.4,1.1c-0.6-0.1-1-0.5-1.1-1.1c0-0.6,0.5-1.2,1.2-1.2h0.1
			C188.7,10.1,189.2,10.6,189.3,11.3C189.3,11.2,189.3,11.2,189.3,11.3z M187.1,24V14h2v10H187.1L187.1,24z"/>
		<path class="st0" d="M201.8,14.1c0,0.7-0.1,1.5-0.1,2.7v5.8c0,2.3-0.5,3.7-1.6,4.6c-1.1,0.8-2.5,1.3-4,1.2c-1.3,0-2.5-0.2-3.6-0.8
			l0.5-1.4c1,0.5,2.1,0.8,3.2,0.8c2,0,3.5-1,3.5-3.5v-1.1l0,0c-0.8,1.1-2.1,1.7-3.5,1.7c-2.6,0-4.6-2-4.7-4.6c0-0.1,0-0.2,0-0.3
			c-0.2-2.7,1.9-5.1,4.6-5.3c0.1,0,0.2,0,0.3,0c1.4-0.1,2.7,0.6,3.4,1.8l0,0l0.1-1.5L201.8,14.1L201.8,14.1z M199.7,18
			c0-0.3,0-0.6-0.1-0.8c-0.4-1.2-1.5-2-2.8-2c-1.9,0-3.2,1.5-3.2,3.8c0,2,1.1,3.6,3.2,3.6c1.2,0,2.3-0.7,2.8-1.8
			c0.1-0.3,0.2-0.6,0.2-1L199.7,18L199.7,18z"/>
		<path class="st0" d="M204.8,16.8c0-1,0-1.9-0.1-2.7h1.8l0.1,1.7l0,0c0.8-1.2,2.2-1.9,3.6-1.9c1.5,0,3.9,0.8,3.9,4.2v6h-2v-5.8
			c0-1.6-0.6-2.9-2.5-2.9c-1.2,0-2.3,0.7-2.7,1.8c-0.1,0.3-0.1,0.5-0.1,0.8v6h-1.9L204.8,16.8L204.8,16.8z"/>
	</g>
</g>
<g>
	<path class="st1" d="M255.8,25.6c-9.8,1.1-12.3-6.1-10.2-9c2-2.8,14-3.2,36.6-5.5C296,9.7,332.5,7,332.5,7l-1,10.5L255.8,25.6z"/>
</g>
<g>
	<path class="st2" d="M292.4,28.6c-24,8.5-61.2,14.2-66.2,13.6c-6.7-0.8-7.7-7.3-5.9-9.5c1.7-2.2,20.6-5.3,39.2-10.8
		c18.6-5.6,34.3-10.1,42-11.7s21.8-2.6,27.3-2.9s16,12.5,16,12.5L292.4,28.6z"/>
</g>
<g>
	<path class="st3" d="M299.6,42.7c-25.1,14.8-60.3,25.4-68.6,26.7c-8.4,1.2-14.3-5.7-13.9-9.4c0.4-4.3,25.6-10.6,45.1-22
		c31.7-18.5,35.7-25.3,47-28.1s23.3-3,23.3-3L299.6,42.7z"/>
</g>
<g>
	<path class="st4" d="M312.2,10.6c-11.5,7.1-32.4,42.6-32.7,50.2c-0.3,7.6,43.4,43.1,50.4,41c1.6-0.5,2.8-1.4,3.6-2.5
		c2.3,2,5.6,1.8,8.5-1.2c10.5-11,26-16.6,33.1-23.2s11-22.5,11-22.5h24.1V16.6v-10C410.2,6.6,323.7,3.5,312.2,10.6z M350.3,68.1
		c-6.2,7-16.1,12.3-18.9,19.4c-1-1.3-2.1-2.6-3.5-3.7c-8.9-7.5-29.2-18.5-20.7-30.6c7.6-10.8,18.1-3.8,21.5,3.4
		c0,0,4.6-11.1,14.5-9.8C354.8,48.2,356.6,61,350.3,68.1z"/>
</g>
<g>
	<path class="st4" d="M330.6,91.1c0-1.3,0.3-2.5,0.8-3.6c-1-1.3-2.1-2.6-3.5-3.7c-1.1-0.9-2.4-1.9-3.7-2.9c1.8,1.9,2.6,3.7,2.2,5.3
		c-1.1,6.6,0.7,12.2,3.8,15.5c1.5-0.5,2.6-1.4,3.3-2.4C331.7,97.7,330.5,94.9,330.6,91.1z"/>
</g>
<g>
	<g>
		<ellipse class="st5" cx="330" cy="129.8" rx="20.9" ry="20.9"/>
	</g>
	<g>
		<path class="st6" d="M335,129.4c-0.6-0.5-1.2-0.8-1.8-1.1c-0.5-0.2-1.1-0.5-1.7-0.7v-5.9c0.7,0.1,1.1,0.3,1.3,0.5
			c0.1,0.1,0.1,0.4,0.1,0.7v1.8l3.1-0.2v-4.6c-1.4-0.7-2.9-1.1-4.5-1.2v-1.3h-3v1.4c-1.3,0.2-2.5,0.7-3.4,1.5
			c-1.3,1.1-1.9,2.5-1.9,4.4s0.6,3.3,1.8,4.2c0.6,0.5,1.2,0.8,1.8,1.1c0.5,0.2,1.1,0.4,1.7,0.6v6.2c-0.5,0-1-0.1-1.3-0.2
			c-0.4-0.1-0.7-0.3-0.8-0.4c-0.1-0.1-0.1-0.4-0.1-0.7v-1.9l-3.1,0.2v4.8c1.6,0.7,3.4,1.1,5.3,1.2v1.3h3v-1.4
			c1.3-0.2,2.4-0.7,3.3-1.4c1.4-1.1,2.1-2.6,2.1-4.5C336.9,131.7,336.3,130.3,335,129.4z M327.8,126.1c-0.5-0.5-0.7-1.1-0.7-1.7
			c0-0.9,0.3-1.6,0.9-2c0.2-0.1,0.4-0.2,0.6-0.3v4.5C328.3,126.4,328,126.3,327.8,126.1z M331.5,136.3v-4.7c0.9,0.5,1.4,1.2,1.4,2.1
			C332.9,135,332.5,135.8,331.5,136.3z"/>
	</g>
</g>
<rect x="3.8" y="33.8" class="st7" width="239.5" height="143.6"/>
<g class="st8">
	<path class="st4" d="M16.5,58.7l-4.8-16.8h-0.1c0.2,2.9,0.3,5.1,0.3,6.7v10.1H6.3V35.3h8.4l4.9,16.6h0.1l4.8-16.6h8.4v23.4h-5.8
		V48.4c0-0.5,0-1.1,0-1.8c0-0.6,0.1-2.2,0.2-4.8h-0.1l-4.7,16.8H16.5z"/>
	<path class="st4" d="M37.5,36.1c0-0.9,0.3-1.6,0.8-2.1c0.5-0.5,1.4-0.7,2.5-0.7c1.2,0,2,0.2,2.5,0.7c0.5,0.5,0.8,1.2,0.8,2.1
		c0,1.8-1.1,2.7-3.3,2.7C38.6,38.8,37.5,37.9,37.5,36.1z M43.9,58.7h-6.2V40.6h6.2V58.7z"/>
	<path class="st4" d="M65.3,40.6v3l-2.5,0.9c0.3,0.6,0.5,1.3,0.5,2.2c0,1.9-0.7,3.5-2.1,4.5c-1.4,1.1-3.4,1.6-6.1,1.6
		c-0.7,0-1.2,0-1.6-0.1c-0.1,0.3-0.2,0.5-0.2,0.8c0,0.3,0.3,0.5,0.8,0.7c0.5,0.2,1.2,0.2,2,0.2h3c4.1,0,6.1,1.7,6.1,5.1
		c0,2.2-0.9,3.9-2.8,5.1s-4.5,1.8-7.9,1.8c-2.6,0-4.5-0.4-5.9-1.3c-1.4-0.9-2.1-2.1-2.1-3.7c0-2.2,1.3-3.6,4-4.2
		c-0.6-0.2-1-0.6-1.4-1.1c-0.4-0.5-0.6-1-0.6-1.5c0-0.6,0.2-1.1,0.5-1.5s1-0.9,1.9-1.5c-0.9-0.4-1.7-1.1-2.2-1.9
		c-0.5-0.9-0.8-2-0.8-3.2c0-2,0.7-3.5,2-4.6c1.3-1.1,3.3-1.6,5.8-1.6c0.3,0,0.9,0,1.7,0.1c0.8,0.1,1.4,0.1,1.8,0.2H65.3z M51.7,60.9
		c0,0.5,0.3,0.9,0.8,1.2c0.6,0.3,1.3,0.5,2.2,0.5c1.5,0,2.7-0.2,3.6-0.6c0.9-0.4,1.4-0.9,1.4-1.5c0-0.5-0.3-0.8-0.8-1
		c-0.6-0.2-1.3-0.3-2.4-0.3h-2.4c-0.7,0-1.2,0.2-1.7,0.5C51.9,60.1,51.7,60.5,51.7,60.9z M53.6,46.5c0,1.9,0.6,2.8,1.9,2.8
		c0.6,0,1.1-0.2,1.4-0.7c0.3-0.5,0.5-1.1,0.5-2.1c0-1.9-0.6-2.8-1.9-2.8C54.3,43.7,53.6,44.6,53.6,46.5z"/>
	<path class="st4" d="M79,40.2c0.5,0,1.1,0,1.5,0.1l0.4,0.1l-0.6,5.9c-0.5-0.1-1.2-0.2-2.1-0.2c-1.4,0-2.4,0.3-3,0.9
		s-0.9,1.5-0.9,2.7v8.9h-6.2V40.6h4.6l1,2.9H74c0.5-1,1.2-1.7,2.2-2.3C77.1,40.5,78,40.2,79,40.2z"/>
	<path class="st4" d="M95.2,58.7L94,56.3h-0.1c-0.8,1-1.7,1.8-2.6,2.1c-0.9,0.4-2,0.6-3.4,0.6c-1.7,0-3-0.5-4-1.5
		c-1-1-1.5-2.5-1.5-4.3c0-1.9,0.7-3.4,2-4.3c1.3-0.9,3.3-1.5,5.8-1.6l3-0.1v-0.3c0-1.5-0.7-2.2-2.2-2.2c-1.3,0-3,0.4-5,1.3l-1.8-4.1
		c2.1-1.1,4.8-1.6,8-1.6c2.3,0,4.1,0.6,5.4,1.7c1.3,1.2,1.9,2.8,1.9,4.8v11.9H95.2z M90.6,54.6c0.8,0,1.4-0.2,1.9-0.7
		c0.5-0.5,0.8-1.1,0.8-1.9v-1.4l-1.4,0.1c-2.1,0.1-3.1,0.8-3.1,2.3C88.8,54,89.4,54.6,90.6,54.6z"/>
	<path class="st4" d="M115.2,58.7v-9.9c0-1.2-0.2-2.1-0.5-2.7c-0.3-0.6-0.9-0.9-1.7-0.9c-1.1,0-1.8,0.4-2.3,1.3
		c-0.5,0.8-0.7,2.3-0.7,4.3v7.9h-6.2V40.6h4.7l0.8,2.2h0.4c0.5-0.9,1.3-1.5,2.2-1.9c0.9-0.4,2-0.6,3.3-0.6c2,0,3.6,0.6,4.7,1.7
		c1.1,1.2,1.7,2.8,1.7,4.9v11.8H115.2z"/>
	<path class="st4" d="M134.6,54.1c0.8,0,1.8-0.2,3-0.6V58c-0.8,0.4-1.6,0.6-2.4,0.8c-0.8,0.2-1.7,0.2-2.7,0.2
		c-2.1,0-3.6-0.5-4.5-1.5c-0.9-1-1.4-2.6-1.4-4.7v-7.5h-2.2v-2.5l2.8-2l1.6-3.8h4.1v3.6h4.4v4.7h-4.4v7
		C132.9,53.5,133.5,54.1,134.6,54.1z"/>
</g>
<g class="st8">
	<path class="st4" d="M12.6,83.6v8.5H6.3V68.7H14c6.3,0,9.5,2.3,9.5,6.9c0,2.7-1.3,4.8-4,6.3l6.8,10.2h-7.2l-5-8.5H12.6z M12.6,78.8
		h1.2c2.2,0,3.3-1,3.3-2.9c0-1.6-1.1-2.4-3.2-2.4h-1.2V78.8z"/>
	<path class="st4" d="M36.8,92.4c-3,0-5.4-0.8-7-2.4s-2.5-3.9-2.5-6.8c0-3.1,0.8-5.4,2.3-7c1.5-1.6,3.7-2.5,6.6-2.5
		c2.7,0,4.8,0.7,6.3,2.1s2.2,3.5,2.2,6.1v2.8H33.6c0,1,0.4,1.8,1.1,2.4s1.6,0.9,2.9,0.9c1.1,0,2.1-0.1,3-0.3c0.9-0.2,1.9-0.6,3-1.1
		v4.5c-1,0.5-2,0.8-3,1C39.5,92.3,38.3,92.4,36.8,92.4z M36.5,77.9c-0.7,0-1.4,0.2-1.8,0.7c-0.5,0.5-0.8,1.2-0.9,2.2h5.4
		c0-0.9-0.3-1.6-0.7-2.1C37.9,78.2,37.3,77.9,36.5,77.9z"/>
	<path class="st4" d="M54.6,92.1h-6.2V67.2h6.2V92.1z"/>
	<path class="st4" d="M58.8,69.5c0-0.9,0.3-1.6,0.8-2.1c0.5-0.5,1.4-0.7,2.5-0.7c1.2,0,2,0.2,2.5,0.7c0.5,0.5,0.8,1.2,0.8,2.1
		c0,1.8-1.1,2.7-3.3,2.7C59.9,72.2,58.8,71.3,58.8,69.5z M65.2,92.1h-6.2V74h6.2V92.1z"/>
	<path class="st4" d="M78.3,92.4c-3,0-5.4-0.8-7-2.4s-2.5-3.9-2.5-6.8c0-3.1,0.8-5.4,2.3-7c1.5-1.6,3.7-2.5,6.6-2.5
		c2.7,0,4.8,0.7,6.3,2.1s2.2,3.5,2.2,6.1v2.8H75.1c0,1,0.4,1.8,1.1,2.4s1.6,0.9,2.9,0.9c1.1,0,2.1-0.1,3-0.3c0.9-0.2,1.9-0.6,3-1.1
		v4.5c-1,0.5-2,0.8-3,1C81,92.3,79.7,92.4,78.3,92.4z M77.9,77.9c-0.7,0-1.4,0.2-1.8,0.7c-0.5,0.5-0.8,1.2-0.9,2.2h5.4
		c0-0.9-0.3-1.6-0.7-2.1C79.4,78.2,78.7,77.9,77.9,77.9z"/>
	<path class="st4" d="M100.8,78.6H97v13.4h-6.2V78.6h-2.4v-3.1l2.5-1.5v-0.3c0-2.4,0.5-4.1,1.5-5.1S94.9,67,97,67
		c0.8,0,1.6,0.1,2.4,0.2c0.7,0.1,1.6,0.4,2.6,0.7l-1.3,4c-0.8-0.2-1.5-0.3-2.3-0.3c-0.5,0-0.8,0.1-1,0.4c-0.2,0.3-0.3,0.8-0.3,1.4
		V74h3.9V78.6z"/>
</g>
<g class="st8">
	<path class="st1" d="M118.3,92.1h-6.2V68.7h13.8v5.1h-7.6v4.5h7v5.1h-7V92.1z"/>
	<path class="st1" d="M142.3,92.1l-0.8-2.3h-0.4c-0.5,0.8-1.2,1.5-2.2,1.9c-0.9,0.4-2,0.7-3.3,0.7c-2,0-3.5-0.6-4.6-1.7
		c-1.1-1.2-1.7-2.8-1.7-4.9V74h6.2v9.9c0,1.2,0.2,2.1,0.5,2.7s0.9,0.9,1.7,0.9c1.1,0,1.8-0.4,2.3-1.3s0.7-2.3,0.7-4.3V74h6.2v18.1
		H142.3z"/>
	<path class="st1" d="M162.7,92.1v-9.9c0-1.2-0.2-2.1-0.5-2.7c-0.3-0.6-0.9-0.9-1.7-0.9c-1.1,0-1.8,0.4-2.3,1.3
		c-0.5,0.8-0.7,2.3-0.7,4.3v7.9h-6.2V74h4.7l0.8,2.2h0.4c0.5-0.9,1.3-1.5,2.2-1.9c0.9-0.4,2-0.6,3.3-0.6c2,0,3.6,0.6,4.7,1.7
		c1.1,1.2,1.7,2.8,1.7,4.9v11.8H162.7z"/>
	<path class="st1" d="M178.9,92.4c-1.3,0-2.4-0.4-3.4-1.1c-1-0.7-1.7-1.8-2.2-3.2c-0.5-1.4-0.8-3.1-0.8-5c0-2.9,0.6-5.2,1.8-6.9
		c1.2-1.7,2.8-2.5,4.9-2.5c1,0,1.9,0.2,2.7,0.6c0.8,0.4,1.5,1.1,2.1,2h0.1c-0.2-1.4-0.3-2.8-0.3-4.2v-4.8h6.3v24.9h-4.7l-1.3-2.3
		h-0.2C182.6,91.5,181,92.4,178.9,92.4z M181.4,87.5c1,0,1.7-0.3,2.1-0.9c0.4-0.6,0.6-1.6,0.7-2.9v-0.5c0-1.6-0.2-2.7-0.7-3.4
		c-0.5-0.7-1.2-1-2.2-1c-0.8,0-1.5,0.4-1.9,1.2c-0.5,0.8-0.7,1.9-0.7,3.3c0,1.4,0.2,2.5,0.7,3.2C179.9,87.1,180.6,87.5,181.4,87.5z"
		/>
</g>
<rect x="6" y="101.7" class="st7" width="324.7" height="123.7"/>
<g class="st8">
	<path class="st4" d="M14.8,105.8c0,1.2-0.4,2-1.2,2.7s-1.9,0.9-3.4,0.9H8.8v4.5H7.5v-11.4h3C13.3,102.4,14.8,103.5,14.8,105.8z
		 M8.8,108.2H10c1.2,0,2-0.2,2.6-0.6c0.5-0.4,0.8-1,0.8-1.8c0-0.8-0.2-1.3-0.7-1.7c-0.5-0.4-1.3-0.6-2.3-0.6H8.8V108.2z"/>
	<path class="st4" d="M20.9,105.1c0.4,0,0.7,0,1,0.1l-0.2,1.2c-0.4-0.1-0.7-0.1-0.9-0.1c-0.7,0-1.3,0.3-1.8,0.8s-0.7,1.3-0.7,2.1
		v4.6H17v-8.6H18l0.1,1.6h0.1c0.3-0.6,0.7-1,1.1-1.3C19.8,105.3,20.3,105.1,20.9,105.1z"/>
	<path class="st4" d="M30.9,109.6c0,1.4-0.4,2.5-1.1,3.3s-1.7,1.2-2.9,1.2c-0.8,0-1.4-0.2-2-0.5s-1.1-0.9-1.4-1.5
		c-0.3-0.7-0.5-1.5-0.5-2.4c0-1.4,0.3-2.5,1-3.3c0.7-0.8,1.7-1.2,2.9-1.2c1.2,0,2.1,0.4,2.9,1.2C30.5,107.1,30.9,108.2,30.9,109.6z
		 M24.4,109.6c0,1.1,0.2,1.9,0.7,2.5s1.1,0.9,1.9,0.9c0.8,0,1.5-0.3,1.9-0.9c0.4-0.6,0.7-1.4,0.7-2.5c0-1.1-0.2-1.9-0.7-2.5
		c-0.4-0.6-1.1-0.8-1.9-0.8c-0.8,0-1.5,0.3-1.9,0.8C24.6,107.6,24.4,108.5,24.4,109.6z"/>
	<path class="st4" d="M35,113.8l-3.2-8.6h1.4l1.8,5.1c0.4,1.2,0.7,2,0.7,2.3h0.1c0.1-0.3,0.2-0.8,0.5-1.7s1-2.8,2.1-5.7h1.4
		l-3.2,8.6H35z"/>
	<path class="st4" d="M41.1,103c0-0.3,0.1-0.5,0.2-0.7c0.1-0.1,0.3-0.2,0.5-0.2c0.2,0,0.4,0.1,0.5,0.2c0.2,0.1,0.2,0.4,0.2,0.6
		s-0.1,0.5-0.2,0.7c-0.2,0.1-0.3,0.2-0.5,0.2c-0.2,0-0.4-0.1-0.5-0.2C41.1,103.5,41.1,103.3,41.1,103z M42.5,113.8h-1.3v-8.6h1.3
		V113.8z"/>
	<path class="st4" d="M51,112.7L51,112.7c-0.7,0.9-1.6,1.3-2.8,1.3c-1.1,0-2-0.4-2.6-1.1c-0.6-0.8-0.9-1.9-0.9-3.3s0.3-2.5,0.9-3.3
		s1.5-1.2,2.6-1.2c1.2,0,2.1,0.4,2.7,1.3h0.1l-0.1-0.6l0-0.6v-3.5h1.3v12.2h-1.1L51,112.7z M48.5,112.9c0.9,0,1.5-0.2,1.9-0.7
		s0.6-1.3,0.6-2.3v-0.3c0-1.2-0.2-2.1-0.6-2.6c-0.4-0.5-1-0.8-1.9-0.8c-0.8,0-1.3,0.3-1.7,0.9c-0.4,0.6-0.6,1.4-0.6,2.5
		c0,1.1,0.2,1.9,0.6,2.5C47.1,112.6,47.7,112.9,48.5,112.9z"/>
	<path class="st4" d="M58.6,114c-1.3,0-2.3-0.4-3-1.2c-0.7-0.8-1.1-1.8-1.1-3.2c0-1.4,0.3-2.5,1-3.3s1.6-1.2,2.7-1.2
		c1.1,0,1.9,0.4,2.5,1.1s0.9,1.6,0.9,2.8v0.8h-5.9c0,1,0.3,1.8,0.8,2.3c0.5,0.5,1.2,0.8,2,0.8c0.9,0,1.8-0.2,2.7-0.6v1.2
		c-0.5,0.2-0.9,0.3-1.3,0.4C59.7,114,59.2,114,58.6,114z M58.3,106.2c-0.7,0-1.2,0.2-1.6,0.7c-0.4,0.4-0.6,1.1-0.7,1.9h4.5
		c0-0.8-0.2-1.4-0.5-1.9C59.5,106.4,59,106.2,58.3,106.2z"/>
	<path class="st4" d="M69.5,111.5c0,0.8-0.3,1.4-0.9,1.8s-1.4,0.6-2.5,0.6c-1.1,0-2-0.2-2.7-0.5v-1.2c0.4,0.2,0.9,0.4,1.3,0.5
		c0.5,0.1,0.9,0.2,1.4,0.2c0.7,0,1.2-0.1,1.6-0.3c0.4-0.2,0.5-0.5,0.5-1c0-0.3-0.1-0.6-0.4-0.9s-0.9-0.5-1.7-0.8
		c-0.8-0.3-1.4-0.6-1.7-0.8s-0.6-0.5-0.8-0.8s-0.2-0.6-0.2-1c0-0.7,0.3-1.2,0.9-1.7c0.6-0.4,1.3-0.6,2.3-0.6c0.9,0,1.8,0.2,2.7,0.6
		l-0.5,1.1c-0.9-0.4-1.6-0.5-2.3-0.5c-0.6,0-1.1,0.1-1.4,0.3s-0.5,0.5-0.5,0.8c0,0.2,0.1,0.4,0.2,0.6s0.3,0.3,0.6,0.5
		c0.3,0.1,0.8,0.4,1.5,0.6c1,0.4,1.7,0.7,2.1,1.1C69.3,110.5,69.5,110.9,69.5,111.5z"/>
	<path class="st4" d="M79.6,106.3h-2.2v7.6h-1.3v-7.6h-1.5v-0.6l1.5-0.5v-0.5c0-2.1,0.9-3.2,2.8-3.2c0.5,0,1,0.1,1.6,0.3l-0.3,1
		c-0.5-0.2-0.9-0.2-1.3-0.2c-0.5,0-0.9,0.2-1.1,0.5s-0.4,0.8-0.4,1.6v0.6h2.2V106.3z M81.1,103c0-0.3,0.1-0.5,0.2-0.7
		c0.1-0.1,0.3-0.2,0.5-0.2c0.2,0,0.4,0.1,0.5,0.2c0.2,0.1,0.2,0.4,0.2,0.6s-0.1,0.5-0.2,0.7c-0.2,0.1-0.3,0.2-0.5,0.2
		c-0.2,0-0.4-0.1-0.5-0.2C81.2,103.5,81.1,103.3,81.1,103z M82.5,113.8h-1.3v-8.6h1.3V113.8z"/>
	<path class="st4" d="M91.1,113.8v-5.5c0-0.7-0.2-1.2-0.5-1.6c-0.3-0.3-0.8-0.5-1.5-0.5c-0.9,0-1.6,0.2-2,0.7
		c-0.4,0.5-0.6,1.3-0.6,2.4v4.5h-1.3v-8.6h1.1l0.2,1.2h0.1c0.3-0.4,0.6-0.7,1.1-1c0.5-0.2,1-0.3,1.6-0.3c1,0,1.8,0.2,2.3,0.7
		c0.5,0.5,0.8,1.3,0.8,2.4v5.6H91.1z"/>
	<path class="st4" d="M100.3,113.8l-0.3-1.2H100c-0.4,0.5-0.9,0.9-1.3,1.1c-0.4,0.2-1,0.3-1.6,0.3c-0.8,0-1.5-0.2-2-0.7
		c-0.5-0.4-0.7-1.1-0.7-1.9c0-1.7,1.4-2.6,4.1-2.7l1.5,0v-0.5c0-0.7-0.1-1.2-0.4-1.5s-0.8-0.5-1.4-0.5c-0.7,0-1.5,0.2-2.4,0.7
		l-0.4-1c0.4-0.2,0.9-0.4,1.4-0.5c0.5-0.1,1-0.2,1.5-0.2c1,0,1.8,0.2,2.3,0.7s0.7,1.2,0.7,2.2v5.8H100.3z M97.4,112.9
		c0.8,0,1.4-0.2,1.9-0.7s0.7-1.1,0.7-1.9v-0.8l-1.3,0.1c-1,0-1.8,0.2-2.2,0.5c-0.5,0.3-0.7,0.7-0.7,1.3c0,0.5,0.1,0.8,0.4,1.1
		C96.5,112.8,96.9,112.9,97.4,112.9z"/>
	<path class="st4" d="M109.8,113.8v-5.5c0-0.7-0.2-1.2-0.5-1.6c-0.3-0.3-0.8-0.5-1.5-0.5c-0.9,0-1.6,0.2-2,0.7
		c-0.4,0.5-0.6,1.3-0.6,2.4v4.5H104v-8.6h1.1l0.2,1.2h0.1c0.3-0.4,0.6-0.7,1.1-1c0.5-0.2,1-0.3,1.6-0.3c1,0,1.8,0.2,2.3,0.7
		c0.5,0.5,0.8,1.3,0.8,2.4v5.6H109.8z"/>
	<path class="st4" d="M117.2,114c-1.2,0-2.2-0.4-2.9-1.1s-1-1.8-1-3.2c0-1.4,0.3-2.5,1-3.3c0.7-0.8,1.7-1.2,2.9-1.2
		c0.4,0,0.8,0,1.2,0.1c0.4,0.1,0.7,0.2,1,0.3l-0.4,1.1c-0.3-0.1-0.6-0.2-0.9-0.3c-0.3-0.1-0.6-0.1-0.9-0.1c-1.7,0-2.6,1.1-2.6,3.3
		c0,1.1,0.2,1.9,0.6,2.4c0.4,0.6,1.1,0.8,1.9,0.8c0.7,0,1.4-0.2,2.2-0.5v1.1C118.8,113.9,118.1,114,117.2,114z"/>
	<path class="st4" d="M121.3,103c0-0.3,0.1-0.5,0.2-0.7c0.1-0.1,0.3-0.2,0.5-0.2c0.2,0,0.4,0.1,0.5,0.2c0.2,0.1,0.2,0.4,0.2,0.6
		s-0.1,0.5-0.2,0.7c-0.2,0.1-0.3,0.2-0.5,0.2c-0.2,0-0.4-0.1-0.5-0.2C121.4,103.5,121.3,103.3,121.3,103z M122.7,113.8h-1.3v-8.6
		h1.3V113.8z"/>
	<path class="st4" d="M130.7,113.8l-0.3-1.2h-0.1c-0.4,0.5-0.9,0.9-1.3,1.1c-0.4,0.2-1,0.3-1.6,0.3c-0.8,0-1.5-0.2-2-0.7
		c-0.5-0.4-0.7-1.1-0.7-1.9c0-1.7,1.4-2.6,4.1-2.7l1.5,0v-0.5c0-0.7-0.1-1.2-0.4-1.5s-0.8-0.5-1.4-0.5c-0.7,0-1.5,0.2-2.4,0.7
		l-0.4-1c0.4-0.2,0.9-0.4,1.4-0.5c0.5-0.1,1-0.2,1.5-0.2c1,0,1.8,0.2,2.3,0.7s0.7,1.2,0.7,2.2v5.8H130.7z M127.8,112.9
		c0.8,0,1.4-0.2,1.9-0.7s0.7-1.1,0.7-1.9v-0.8l-1.3,0.1c-1,0-1.8,0.2-2.2,0.5c-0.5,0.3-0.7,0.7-0.7,1.3c0,0.5,0.1,0.8,0.4,1.1
		C126.9,112.8,127.3,112.9,127.8,112.9z"/>
	<path class="st4" d="M135.7,113.8h-1.3v-12.2h1.3V113.8z"/>
	<path class="st4" d="M147.8,113.8l-0.3-1.2h-0.1c-0.4,0.5-0.9,0.9-1.3,1.1c-0.4,0.2-1,0.3-1.6,0.3c-0.8,0-1.5-0.2-2-0.7
		c-0.5-0.4-0.7-1.1-0.7-1.9c0-1.7,1.4-2.6,4.1-2.7l1.5,0v-0.5c0-0.7-0.1-1.2-0.4-1.5s-0.8-0.5-1.4-0.5c-0.7,0-1.5,0.2-2.4,0.7
		l-0.4-1c0.4-0.2,0.9-0.4,1.4-0.5c0.5-0.1,1-0.2,1.5-0.2c1,0,1.8,0.2,2.3,0.7s0.7,1.2,0.7,2.2v5.8H147.8z M144.9,112.9
		c0.8,0,1.4-0.2,1.9-0.7s0.7-1.1,0.7-1.9v-0.8l-1.3,0.1c-1,0-1.8,0.2-2.2,0.5c-0.5,0.3-0.7,0.7-0.7,1.3c0,0.5,0.1,0.8,0.4,1.1
		C144,112.8,144.4,112.9,144.9,112.9z"/>
	<path class="st4" d="M151.3,103c0-0.3,0.1-0.5,0.2-0.7c0.1-0.1,0.3-0.2,0.5-0.2c0.2,0,0.4,0.1,0.5,0.2c0.2,0.1,0.2,0.4,0.2,0.6
		s-0.1,0.5-0.2,0.7c-0.2,0.1-0.3,0.2-0.5,0.2c-0.2,0-0.4-0.1-0.5-0.2C151.4,103.5,151.3,103.3,151.3,103z M152.8,113.8h-1.3v-8.6
		h1.3V113.8z"/>
	<path class="st4" d="M161.3,112.7L161.3,112.7c-0.7,0.9-1.6,1.3-2.8,1.3c-1.1,0-2-0.4-2.6-1.1c-0.6-0.8-0.9-1.9-0.9-3.3
		s0.3-2.5,0.9-3.3s1.5-1.2,2.6-1.2c1.2,0,2.1,0.4,2.7,1.3h0.1l-0.1-0.6l0-0.6v-3.5h1.3v12.2h-1.1L161.3,112.7z M158.7,112.9
		c0.9,0,1.5-0.2,1.9-0.7s0.6-1.3,0.6-2.3v-0.3c0-1.2-0.2-2.1-0.6-2.6c-0.4-0.5-1-0.8-1.9-0.8c-0.8,0-1.3,0.3-1.7,0.9
		c-0.4,0.6-0.6,1.4-0.6,2.5c0,1.1,0.2,1.9,0.6,2.5C157.4,112.6,158,112.9,158.7,112.9z"/>
	<path class="st4" d="M172.2,112.9c0.2,0,0.5,0,0.7-0.1c0.2,0,0.4-0.1,0.5-0.1v1c-0.1,0.1-0.3,0.1-0.6,0.2s-0.5,0.1-0.7,0.1
		c-1.7,0-2.5-0.9-2.5-2.6v-5.1h-1.2v-0.6l1.2-0.5l0.5-1.8h0.8v2h2.5v1h-2.5v5c0,0.5,0.1,0.9,0.4,1.2
		C171.5,112.8,171.8,112.9,172.2,112.9z"/>
	<path class="st4" d="M182.5,109.6c0,1.4-0.4,2.5-1.1,3.3s-1.7,1.2-2.9,1.2c-0.8,0-1.4-0.2-2-0.5s-1.1-0.9-1.4-1.5
		c-0.3-0.7-0.5-1.5-0.5-2.4c0-1.4,0.3-2.5,1-3.3c0.7-0.8,1.7-1.2,2.9-1.2c1.2,0,2.1,0.4,2.9,1.2
		C182.2,107.1,182.5,108.2,182.5,109.6z M176,109.6c0,1.1,0.2,1.9,0.7,2.5s1.1,0.9,1.9,0.9c0.8,0,1.5-0.3,1.9-0.9
		c0.4-0.6,0.7-1.4,0.7-2.5c0-1.1-0.2-1.9-0.7-2.5c-0.4-0.6-1.1-0.8-1.9-0.8c-0.8,0-1.5,0.3-1.9,0.8C176.2,107.6,176,108.5,176,109.6
		z"/>
	<path class="st4" d="M192.8,106.3h-2.2v7.6h-1.3v-7.6h-1.5v-0.6l1.5-0.5v-0.5c0-2.1,0.9-3.2,2.8-3.2c0.5,0,1,0.1,1.6,0.3l-0.3,1
		c-0.5-0.2-0.9-0.2-1.3-0.2c-0.5,0-0.9,0.2-1.1,0.5s-0.4,0.8-0.4,1.6v0.6h2.2V106.3z"/>
	<path class="st4" d="M199.6,113.8l-0.3-1.2h-0.1c-0.4,0.5-0.9,0.9-1.3,1.1c-0.4,0.2-1,0.3-1.6,0.3c-0.8,0-1.5-0.2-2-0.7
		c-0.5-0.4-0.7-1.1-0.7-1.9c0-1.7,1.4-2.6,4.1-2.7l1.5,0v-0.5c0-0.7-0.1-1.2-0.4-1.5s-0.8-0.5-1.4-0.5c-0.7,0-1.5,0.2-2.4,0.7
		l-0.4-1c0.4-0.2,0.9-0.4,1.4-0.5c0.5-0.1,1-0.2,1.5-0.2c1,0,1.8,0.2,2.3,0.7s0.7,1.2,0.7,2.2v5.8H199.6z M196.7,112.9
		c0.8,0,1.4-0.2,1.9-0.7s0.7-1.1,0.7-1.9v-0.8l-1.3,0.1c-1,0-1.8,0.2-2.2,0.5c-0.5,0.3-0.7,0.7-0.7,1.3c0,0.5,0.1,0.8,0.4,1.1
		C195.8,112.8,196.2,112.9,196.7,112.9z"/>
	<path class="st4" d="M214.2,113.8v-5.6c0-0.7-0.1-1.2-0.4-1.5c-0.3-0.3-0.7-0.5-1.4-0.5c-0.8,0-1.4,0.2-1.8,0.7
		c-0.4,0.5-0.6,1.2-0.6,2.1v4.8h-1.3v-5.6c0-0.7-0.1-1.2-0.4-1.5c-0.3-0.3-0.7-0.5-1.4-0.5c-0.8,0-1.4,0.2-1.8,0.7
		c-0.4,0.5-0.6,1.3-0.6,2.4v4.5h-1.3v-8.6h1.1l0.2,1.2h0.1c0.2-0.4,0.6-0.7,1-1s0.9-0.4,1.5-0.4c1.3,0,2.2,0.5,2.6,1.5h0.1
		c0.3-0.4,0.6-0.8,1.1-1.1s1-0.4,1.7-0.4c1,0,1.7,0.2,2.2,0.7c0.5,0.5,0.7,1.3,0.7,2.4v5.6H214.2z"/>
	<path class="st4" d="M218,103c0-0.3,0.1-0.5,0.2-0.7c0.1-0.1,0.3-0.2,0.5-0.2c0.2,0,0.4,0.1,0.5,0.2c0.2,0.1,0.2,0.4,0.2,0.6
		s-0.1,0.5-0.2,0.7c-0.2,0.1-0.3,0.2-0.5,0.2c-0.2,0-0.4-0.1-0.5-0.2C218.1,103.5,218,103.3,218,103z M219.4,113.8h-1.3v-8.6h1.3
		V113.8z"/>
	<path class="st4" d="M223.5,113.8h-1.3v-12.2h1.3V113.8z"/>
	<path class="st4" d="M226.1,103c0-0.3,0.1-0.5,0.2-0.7c0.1-0.1,0.3-0.2,0.5-0.2c0.2,0,0.4,0.1,0.5,0.2c0.2,0.1,0.2,0.4,0.2,0.6
		s-0.1,0.5-0.2,0.7c-0.2,0.1-0.3,0.2-0.5,0.2c-0.2,0-0.4-0.1-0.5-0.2C226.2,103.5,226.1,103.3,226.1,103z M227.5,113.8h-1.3v-8.6
		h1.3V113.8z"/>
	<path class="st4" d="M233.9,114c-1.3,0-2.3-0.4-3-1.2c-0.7-0.8-1.1-1.8-1.1-3.2c0-1.4,0.3-2.5,1-3.3s1.6-1.2,2.7-1.2
		c1.1,0,1.9,0.4,2.5,1.1s0.9,1.6,0.9,2.8v0.8h-5.9c0,1,0.3,1.8,0.8,2.3c0.5,0.5,1.2,0.8,2,0.8c0.9,0,1.8-0.2,2.7-0.6v1.2
		c-0.5,0.2-0.9,0.3-1.3,0.4C235,114,234.5,114,233.9,114z M233.5,106.2c-0.7,0-1.2,0.2-1.6,0.7c-0.4,0.4-0.7,1.1-0.7,1.9h4.5
		c0-0.8-0.2-1.4-0.5-1.9C234.7,106.4,234.2,106.2,233.5,106.2z"/>
	<path class="st4" d="M244.8,111.5c0,0.8-0.3,1.4-0.9,1.8s-1.4,0.6-2.5,0.6c-1.1,0-2-0.2-2.7-0.5v-1.2c0.4,0.2,0.9,0.4,1.3,0.5
		c0.5,0.1,0.9,0.2,1.4,0.2c0.7,0,1.2-0.1,1.6-0.3c0.4-0.2,0.5-0.5,0.5-1c0-0.3-0.1-0.6-0.4-0.9s-0.9-0.5-1.7-0.8
		c-0.8-0.3-1.4-0.6-1.7-0.8s-0.6-0.5-0.8-0.8s-0.2-0.6-0.2-1c0-0.7,0.3-1.2,0.9-1.7c0.6-0.4,1.3-0.6,2.3-0.6c0.9,0,1.8,0.2,2.7,0.6
		l-0.5,1.1c-0.9-0.4-1.6-0.5-2.3-0.5c-0.6,0-1.1,0.1-1.4,0.3s-0.5,0.5-0.5,0.8c0,0.2,0.1,0.4,0.2,0.6s0.3,0.3,0.6,0.5
		c0.3,0.1,0.8,0.4,1.5,0.6c1,0.4,1.7,0.7,2.1,1.1C244.6,110.5,244.8,110.9,244.8,111.5z"/>
	<path class="st4" d="M250.9,103c0-0.3,0.1-0.5,0.2-0.7c0.1-0.1,0.3-0.2,0.5-0.2c0.2,0,0.4,0.1,0.5,0.2c0.2,0.1,0.2,0.4,0.2,0.6
		s-0.1,0.5-0.2,0.7c-0.2,0.1-0.3,0.2-0.5,0.2c-0.2,0-0.4-0.1-0.5-0.2C251,103.5,250.9,103.3,250.9,103z M252.3,113.8H251v-8.6h1.3
		V113.8z"/>
	<path class="st4" d="M261,113.8v-5.5c0-0.7-0.2-1.2-0.5-1.6c-0.3-0.3-0.8-0.5-1.5-0.5c-0.9,0-1.6,0.2-2,0.7
		c-0.4,0.5-0.6,1.3-0.6,2.4v4.5h-1.3v-8.6h1.1l0.2,1.2h0.1c0.3-0.4,0.6-0.7,1.1-1c0.5-0.2,1-0.3,1.6-0.3c1,0,1.8,0.2,2.3,0.7
		c0.5,0.5,0.8,1.3,0.8,2.4v5.6H261z"/>
	<path class="st4" d="M275.7,110.8c0,1-0.4,1.8-1.1,2.4c-0.7,0.6-1.7,0.8-3,0.8c-1.4,0-2.4-0.2-3.1-0.5v-1.3c0.5,0.2,1,0.4,1.5,0.5
		c0.6,0.1,1.1,0.2,1.6,0.2c0.9,0,1.6-0.2,2-0.5c0.4-0.3,0.7-0.8,0.7-1.4c0-0.4-0.1-0.7-0.2-1c-0.2-0.3-0.4-0.5-0.8-0.7
		c-0.4-0.2-0.9-0.5-1.7-0.7c-1.1-0.4-1.8-0.8-2.3-1.4c-0.5-0.5-0.7-1.2-0.7-2c0-0.9,0.3-1.6,1-2.1c0.7-0.5,1.5-0.8,2.6-0.8
		c1.1,0,2.2,0.2,3.1,0.6L275,104c-0.9-0.4-1.9-0.6-2.8-0.6c-0.7,0-1.3,0.2-1.6,0.5c-0.4,0.3-0.6,0.7-0.6,1.3c0,0.4,0.1,0.7,0.2,1
		c0.1,0.3,0.4,0.5,0.7,0.7c0.3,0.2,0.9,0.4,1.6,0.7c1.2,0.4,2,0.9,2.5,1.4C275.5,109.4,275.7,110,275.7,110.8z"/>
	<path class="st4" d="M285.2,113.8l-1.4-3.6h-4.6l-1.4,3.6h-1.3l4.5-11.5h1.1l4.5,11.5H285.2z M283.4,109l-1.3-3.5
		c-0.2-0.4-0.3-1-0.5-1.6c-0.1,0.5-0.3,1-0.5,1.6l-1.3,3.5H283.4z"/>
	<path class="st4" d="M297.3,108c0,1.9-0.5,3.3-1.5,4.3s-2.5,1.5-4.4,1.5h-3.2v-11.4h3.5c1.8,0,3.2,0.5,4.1,1.5
		S297.3,106.3,297.3,108z M295.9,108.1c0-1.5-0.4-2.6-1.1-3.4c-0.7-0.8-1.9-1.1-3.3-1.1h-1.9v9.1h1.6c1.6,0,2.8-0.4,3.6-1.2
		S295.9,109.6,295.9,108.1z"/>
	<path class="st4" d="M304.7,103.4c-1.3,0-2.2,0.4-3,1.3s-1.1,2-1.1,3.4c0,1.5,0.3,2.6,1.1,3.5c0.7,0.8,1.7,1.2,3,1.2
		c0.8,0,1.7-0.1,2.7-0.4v1.2c-0.8,0.3-1.8,0.4-2.9,0.4c-1.7,0-3-0.5-3.9-1.5s-1.4-2.5-1.4-4.4c0-1.2,0.2-2.2,0.7-3.1
		c0.4-0.9,1.1-1.6,1.9-2c0.8-0.5,1.8-0.7,2.9-0.7c1.2,0,2.2,0.2,3.1,0.7l-0.6,1.1C306.5,103.7,305.6,103.4,304.7,103.4z"/>
</g>
<g class="st8">
	<path class="st4" d="M14.3,129.8l-1.6-5c-0.1-0.3-0.3-1-0.6-2.1h-0.1c-0.2,0.9-0.4,1.6-0.5,2.1l-1.6,5H8.5l-2.3-8.6h1.4
		c0.6,2.2,1,3.8,1.3,4.9s0.5,1.9,0.5,2.3h0.1c0.1-0.3,0.1-0.7,0.3-1.2c0.1-0.5,0.2-0.8,0.3-1.1l1.6-4.9h1.4l1.5,4.9
		c0.3,0.9,0.5,1.6,0.6,2.3h0.1c0-0.2,0.1-0.5,0.2-0.9c0.1-0.4,0.6-2.5,1.6-6.3h1.3l-2.4,8.6H14.3z"/>
	<path class="st4" d="M25.6,129.8v-5.5c0-0.7-0.2-1.2-0.5-1.6c-0.3-0.3-0.8-0.5-1.5-0.5c-0.9,0-1.6,0.2-2,0.7s-0.6,1.3-0.6,2.4v4.5
		h-1.3v-12.2h1.3v3.7c0,0.4,0,0.8-0.1,1.1h0.1c0.3-0.4,0.6-0.7,1.1-1c0.5-0.2,1-0.4,1.6-0.4c1,0,1.8,0.2,2.4,0.7s0.8,1.3,0.8,2.4
		v5.6H25.6z"/>
	<path class="st4" d="M37,125.6c0,1.4-0.4,2.5-1.1,3.3S34.3,130,33,130c-0.8,0-1.4-0.2-2-0.5s-1.1-0.9-1.4-1.5
		c-0.3-0.7-0.5-1.5-0.5-2.4c0-1.4,0.3-2.5,1-3.3c0.7-0.8,1.7-1.2,2.9-1.2c1.2,0,2.1,0.4,2.9,1.2C36.6,123.1,37,124.2,37,125.6z
		 M30.5,125.6c0,1.1,0.2,1.9,0.7,2.5s1.1,0.9,1.9,0.9c0.8,0,1.5-0.3,1.9-0.9c0.4-0.6,0.7-1.4,0.7-2.5c0-1.1-0.2-1.9-0.7-2.5
		c-0.4-0.6-1.1-0.8-1.9-0.8c-0.8,0-1.5,0.3-1.9,0.8C30.7,123.6,30.5,124.5,30.5,125.6z"/>
	<path class="st4" d="M48.7,129.8l-0.3-1.2h-0.1c-0.4,0.5-0.9,0.9-1.3,1.1c-0.4,0.2-1,0.3-1.6,0.3c-0.8,0-1.5-0.2-2-0.7
		c-0.5-0.4-0.7-1.1-0.7-1.9c0-1.7,1.4-2.6,4.1-2.7l1.5,0v-0.5c0-0.7-0.1-1.2-0.4-1.5s-0.8-0.5-1.4-0.5c-0.7,0-1.5,0.2-2.4,0.7
		l-0.4-1c0.4-0.2,0.9-0.4,1.4-0.5c0.5-0.1,1-0.2,1.5-0.2c1,0,1.8,0.2,2.3,0.7s0.7,1.2,0.7,2.2v5.8H48.7z M45.7,128.9
		c0.8,0,1.4-0.2,1.9-0.7s0.7-1.1,0.7-1.9v-0.8l-1.3,0.1c-1,0-1.8,0.2-2.2,0.5c-0.5,0.3-0.7,0.7-0.7,1.3c0,0.5,0.1,0.8,0.4,1.1
		C44.8,128.8,45.2,128.9,45.7,128.9z"/>
	<path class="st4" d="M56.2,121.1c0.4,0,0.7,0,1,0.1l-0.2,1.2c-0.4-0.1-0.7-0.1-0.9-0.1c-0.7,0-1.3,0.3-1.8,0.8s-0.7,1.3-0.7,2.1
		v4.6h-1.3v-8.6h1.1l0.1,1.6h0.1c0.3-0.6,0.7-1,1.1-1.3C55.2,121.3,55.7,121.1,56.2,121.1z"/>
	<path class="st4" d="M62.5,130c-1.3,0-2.3-0.4-3-1.2c-0.7-0.8-1.1-1.8-1.1-3.2c0-1.4,0.3-2.5,1-3.3s1.6-1.2,2.7-1.2
		c1.1,0,1.9,0.4,2.5,1.1s0.9,1.6,0.9,2.8v0.8h-5.9c0,1,0.3,1.8,0.8,2.3c0.5,0.5,1.2,0.8,2,0.8c0.9,0,1.8-0.2,2.7-0.6v1.2
		c-0.5,0.2-0.9,0.3-1.3,0.4C63.5,130,63,130,62.5,130z M62.1,122.2c-0.7,0-1.2,0.2-1.6,0.7c-0.4,0.4-0.6,1.1-0.7,1.9h4.5
		c0-0.8-0.2-1.4-0.5-1.9C63.3,122.4,62.8,122.2,62.1,122.2z"/>
	<path class="st4" d="M82.9,129.8v-5.6c0-0.7-0.1-1.2-0.4-1.5c-0.3-0.3-0.7-0.5-1.4-0.5c-0.8,0-1.4,0.2-1.8,0.7
		c-0.4,0.5-0.6,1.2-0.6,2.1v4.8h-1.3v-5.6c0-0.7-0.1-1.2-0.4-1.5c-0.3-0.3-0.7-0.5-1.4-0.5c-0.8,0-1.4,0.2-1.8,0.7
		c-0.4,0.5-0.6,1.3-0.6,2.4v4.5H72v-8.6H73l0.2,1.2h0.1c0.2-0.4,0.6-0.7,1-1s0.9-0.4,1.5-0.4c1.3,0,2.2,0.5,2.6,1.5h0.1
		c0.3-0.4,0.6-0.8,1.1-1.1s1-0.4,1.7-0.4c1,0,1.7,0.2,2.2,0.7c0.5,0.5,0.7,1.3,0.7,2.4v5.6H82.9z"/>
	<path class="st4" d="M94.2,125.6c0,1.4-0.4,2.5-1.1,3.3s-1.7,1.2-2.9,1.2c-0.8,0-1.4-0.2-2-0.5s-1.1-0.9-1.4-1.5
		c-0.3-0.7-0.5-1.5-0.5-2.4c0-1.4,0.3-2.5,1-3.3c0.7-0.8,1.7-1.2,2.9-1.2c1.2,0,2.1,0.4,2.9,1.2C93.9,123.1,94.2,124.2,94.2,125.6z
		 M87.7,125.6c0,1.1,0.2,1.9,0.7,2.5s1.1,0.9,1.9,0.9c0.8,0,1.5-0.3,1.9-0.9c0.4-0.6,0.7-1.4,0.7-2.5c0-1.1-0.2-1.9-0.7-2.5
		c-0.4-0.6-1.1-0.8-1.9-0.8c-0.8,0-1.5,0.3-1.9,0.8C87.9,123.6,87.7,124.5,87.7,125.6z"/>
	<path class="st4" d="M102,127.5c0,0.8-0.3,1.4-0.9,1.8s-1.4,0.6-2.5,0.6c-1.1,0-2-0.2-2.7-0.5v-1.2c0.4,0.2,0.9,0.4,1.3,0.5
		c0.5,0.1,0.9,0.2,1.4,0.2c0.7,0,1.2-0.1,1.6-0.3c0.4-0.2,0.5-0.5,0.5-1c0-0.3-0.1-0.6-0.4-0.9s-0.9-0.5-1.7-0.8
		c-0.8-0.3-1.4-0.6-1.7-0.8s-0.6-0.5-0.8-0.8s-0.2-0.6-0.2-1c0-0.7,0.3-1.2,0.9-1.7c0.6-0.4,1.3-0.6,2.3-0.6c0.9,0,1.8,0.2,2.7,0.6
		l-0.5,1.1c-0.9-0.4-1.6-0.5-2.3-0.5c-0.6,0-1.1,0.1-1.4,0.3s-0.5,0.5-0.5,0.8c0,0.2,0.1,0.4,0.2,0.6s0.3,0.3,0.6,0.5
		c0.3,0.1,0.8,0.4,1.5,0.6c1,0.4,1.7,0.7,2.1,1.1C101.9,126.5,102,126.9,102,127.5z"/>
	<path class="st4" d="M106.9,128.9c0.2,0,0.5,0,0.7-0.1c0.2,0,0.4-0.1,0.5-0.1v1c-0.1,0.1-0.3,0.1-0.6,0.2s-0.5,0.1-0.7,0.1
		c-1.7,0-2.5-0.9-2.5-2.6v-5.1H103v-0.6l1.2-0.5l0.5-1.8h0.8v2h2.5v1h-2.5v5c0,0.5,0.1,0.9,0.4,1.2
		C106.2,128.8,106.5,128.9,106.9,128.9z"/>
	<path class="st4" d="M119.2,129.8l-0.3-1.2h-0.1c-0.4,0.5-0.9,0.9-1.3,1.1c-0.4,0.2-1,0.3-1.6,0.3c-0.8,0-1.5-0.2-2-0.7
		c-0.5-0.4-0.7-1.1-0.7-1.9c0-1.7,1.4-2.6,4.1-2.7l1.5,0v-0.5c0-0.7-0.1-1.2-0.4-1.5s-0.8-0.5-1.4-0.5c-0.7,0-1.5,0.2-2.4,0.7
		l-0.4-1c0.4-0.2,0.9-0.4,1.4-0.5c0.5-0.1,1-0.2,1.5-0.2c1,0,1.8,0.2,2.3,0.7s0.7,1.2,0.7,2.2v5.8H119.2z M116.3,128.9
		c0.8,0,1.4-0.2,1.9-0.7s0.7-1.1,0.7-1.9v-0.8l-1.3,0.1c-1,0-1.8,0.2-2.2,0.5c-0.5,0.3-0.7,0.7-0.7,1.3c0,0.5,0.1,0.8,0.4,1.1
		C115.4,128.8,115.8,128.9,116.3,128.9z"/>
	<path class="st4" d="M126.7,122.3h-2.2v7.6h-1.3v-7.6h-1.5v-0.6l1.5-0.5v-0.5c0-2.1,0.9-3.2,2.8-3.2c0.5,0,1,0.1,1.6,0.3l-0.3,1
		c-0.5-0.2-0.9-0.2-1.3-0.2c-0.5,0-0.9,0.2-1.1,0.5s-0.4,0.8-0.4,1.6v0.6h2.2V122.3z M132.1,122.3H130v7.6h-1.3v-7.6h-1.5v-0.6
		l1.5-0.5v-0.5c0-2.1,0.9-3.2,2.8-3.2c0.5,0,1,0.1,1.6,0.3l-0.3,1c-0.5-0.2-0.9-0.2-1.3-0.2c-0.5,0-0.9,0.2-1.1,0.5
		s-0.4,0.8-0.4,1.6v0.6h2.2V122.3z"/>
	<path class="st4" d="M137.3,130c-1.3,0-2.3-0.4-3-1.2c-0.7-0.8-1.1-1.8-1.1-3.2c0-1.4,0.3-2.5,1-3.3s1.6-1.2,2.7-1.2
		c1.1,0,1.9,0.4,2.5,1.1s0.9,1.6,0.9,2.8v0.8h-5.9c0,1,0.3,1.8,0.8,2.3c0.5,0.5,1.2,0.8,2,0.8c0.9,0,1.8-0.2,2.7-0.6v1.2
		c-0.5,0.2-0.9,0.3-1.3,0.4C138.4,130,137.9,130,137.3,130z M137,122.2c-0.7,0-1.2,0.2-1.6,0.7c-0.4,0.4-0.6,1.1-0.7,1.9h4.5
		c0-0.8-0.2-1.4-0.5-1.9C138.2,122.4,137.7,122.2,137,122.2z"/>
	<path class="st4" d="M146.1,130c-1.2,0-2.2-0.4-2.9-1.1s-1-1.8-1-3.2c0-1.4,0.3-2.5,1-3.3c0.7-0.8,1.7-1.2,2.9-1.2
		c0.4,0,0.8,0,1.2,0.1c0.4,0.1,0.7,0.2,1,0.3l-0.4,1.1c-0.3-0.1-0.6-0.2-0.9-0.3c-0.3-0.1-0.6-0.1-0.9-0.1c-1.7,0-2.6,1.1-2.6,3.3
		c0,1.1,0.2,1.9,0.6,2.4c0.4,0.6,1.1,0.8,1.9,0.8c0.7,0,1.4-0.2,2.2-0.5v1.1C147.7,129.9,147,130,146.1,130z"/>
	<path class="st4" d="M153.1,128.9c0.2,0,0.5,0,0.7-0.1c0.2,0,0.4-0.1,0.5-0.1v1c-0.1,0.1-0.3,0.1-0.6,0.2s-0.5,0.1-0.7,0.1
		c-1.7,0-2.5-0.9-2.5-2.6v-5.1h-1.2v-0.6l1.2-0.5l0.5-1.8h0.8v2h2.5v1h-2.5v5c0,0.5,0.1,0.9,0.4,1.2
		C152.3,128.8,152.6,128.9,153.1,128.9z"/>
	<path class="st4" d="M159.6,130c-1.3,0-2.3-0.4-3-1.2c-0.7-0.8-1.1-1.8-1.1-3.2c0-1.4,0.3-2.5,1-3.3s1.6-1.2,2.7-1.2
		c1.1,0,1.9,0.4,2.5,1.1s0.9,1.6,0.9,2.8v0.8h-5.9c0,1,0.3,1.8,0.8,2.3c0.5,0.5,1.2,0.8,2,0.8c0.9,0,1.8-0.2,2.7-0.6v1.2
		c-0.5,0.2-0.9,0.3-1.3,0.4C160.6,130,160.1,130,159.6,130z M159.2,122.2c-0.7,0-1.2,0.2-1.6,0.7c-0.4,0.4-0.6,1.1-0.7,1.9h4.5
		c0-0.8-0.2-1.4-0.5-1.9C160.4,122.4,159.9,122.2,159.2,122.2z"/>
	<path class="st4" d="M170.8,128.7L170.8,128.7c-0.7,0.9-1.6,1.3-2.8,1.3c-1.1,0-2-0.4-2.6-1.1c-0.6-0.8-0.9-1.9-0.9-3.3
		s0.3-2.5,0.9-3.3s1.5-1.2,2.6-1.2c1.2,0,2.1,0.4,2.7,1.3h0.1l-0.1-0.6l0-0.6v-3.5h1.3v12.2h-1.1L170.8,128.7z M168.2,128.9
		c0.9,0,1.5-0.2,1.9-0.7s0.6-1.3,0.6-2.3v-0.3c0-1.2-0.2-2.1-0.6-2.6c-0.4-0.5-1-0.8-1.9-0.8c-0.8,0-1.3,0.3-1.7,0.9
		c-0.4,0.6-0.6,1.4-0.6,2.5c0,1.1,0.2,1.9,0.6,2.5C166.8,128.6,167.4,128.9,168.2,128.9z"/>
	<path class="st4" d="M182.9,121.1c1.1,0,2,0.4,2.6,1.2c0.6,0.8,0.9,1.9,0.9,3.3s-0.3,2.5-0.9,3.3c-0.6,0.8-1.5,1.2-2.6,1.2
		c-0.6,0-1.1-0.1-1.5-0.3s-0.8-0.5-1.2-0.9h-0.1l-0.3,1.1h-0.9v-12.2h1.3v3c0,0.7,0,1.3-0.1,1.8h0.1
		C180.8,121.6,181.7,121.1,182.9,121.1z M182.7,122.2c-0.9,0-1.5,0.3-1.9,0.8s-0.6,1.4-0.6,2.6s0.2,2.1,0.6,2.6
		c0.4,0.5,1,0.8,1.9,0.8c0.8,0,1.4-0.3,1.8-0.9s0.6-1.4,0.6-2.5c0-1.1-0.2-1.9-0.6-2.5S183.5,122.2,182.7,122.2z"/>
	<path class="st4" d="M187.3,121.3h1.4l1.9,4.9c0.4,1.1,0.7,1.9,0.8,2.4h0.1c0.1-0.3,0.2-0.7,0.4-1.4c0.2-0.6,0.9-2.6,2.1-5.9h1.4
		l-3.7,9.8c-0.4,1-0.8,1.6-1.3,2.1c-0.5,0.4-1.1,0.6-1.8,0.6c-0.4,0-0.8,0-1.2-0.1v-1c0.3,0.1,0.6,0.1,1,0.1c0.9,0,1.5-0.5,1.9-1.5
		l0.5-1.2L187.3,121.3z"/>
	<path class="st4" d="M203.7,128.9c0.2,0,0.5,0,0.7-0.1c0.2,0,0.4-0.1,0.5-0.1v1c-0.1,0.1-0.3,0.1-0.6,0.2s-0.5,0.1-0.7,0.1
		c-1.7,0-2.5-0.9-2.5-2.6v-5.1h-1.2v-0.6l1.2-0.5l0.5-1.8h0.8v2h2.5v1h-2.5v5c0,0.5,0.1,0.9,0.4,1.2
		C202.9,128.8,203.2,128.9,203.7,128.9z"/>
	<path class="st4" d="M212.4,129.8v-5.5c0-0.7-0.2-1.2-0.5-1.6c-0.3-0.3-0.8-0.5-1.5-0.5c-0.9,0-1.6,0.2-2,0.7s-0.6,1.3-0.6,2.4v4.5
		h-1.3v-12.2h1.3v3.7c0,0.4,0,0.8-0.1,1.1h0.1c0.3-0.4,0.6-0.7,1.1-1c0.5-0.2,1-0.4,1.6-0.4c1,0,1.8,0.2,2.4,0.7s0.8,1.3,0.8,2.4
		v5.6H212.4z"/>
	<path class="st4" d="M220,130c-1.3,0-2.3-0.4-3-1.2c-0.7-0.8-1.1-1.8-1.1-3.2c0-1.4,0.3-2.5,1-3.3s1.6-1.2,2.7-1.2
		c1.1,0,1.9,0.4,2.5,1.1s0.9,1.6,0.9,2.8v0.8h-5.9c0,1,0.3,1.8,0.8,2.3c0.5,0.5,1.2,0.8,2,0.8c0.9,0,1.8-0.2,2.7-0.6v1.2
		c-0.5,0.2-0.9,0.3-1.3,0.4C221.1,130,220.6,130,220,130z M219.6,122.2c-0.7,0-1.2,0.2-1.6,0.7c-0.4,0.4-0.7,1.1-0.7,1.9h4.5
		c0-0.8-0.2-1.4-0.5-1.9C220.8,122.4,220.3,122.2,219.6,122.2z"/>
	<path class="st4" d="M234.6,119.4c-1.3,0-2.2,0.4-3,1.3s-1.1,2-1.1,3.4c0,1.5,0.3,2.6,1.1,3.5c0.7,0.8,1.7,1.2,3,1.2
		c0.8,0,1.7-0.1,2.7-0.4v1.2c-0.8,0.3-1.8,0.4-2.9,0.4c-1.7,0-3-0.5-3.9-1.5s-1.4-2.5-1.4-4.4c0-1.2,0.2-2.2,0.7-3.1
		c0.4-0.9,1.1-1.6,1.9-2c0.8-0.5,1.8-0.7,2.9-0.7c1.2,0,2.2,0.2,3.1,0.7l-0.6,1.1C236.3,119.7,235.5,119.4,234.6,119.4z"/>
	<path class="st4" d="M249.7,124.1c0,1.8-0.5,3.3-1.4,4.3c-0.9,1-2.2,1.6-3.9,1.6c-1.7,0-3-0.5-3.9-1.5s-1.4-2.5-1.4-4.4
		c0-1.9,0.5-3.3,1.4-4.3c0.9-1,2.2-1.5,3.9-1.5c1.6,0,2.9,0.5,3.8,1.6S249.7,122.3,249.7,124.1z M240.6,124.1c0,1.5,0.3,2.7,1,3.5
		c0.7,0.8,1.6,1.2,2.9,1.2c1.3,0,2.2-0.4,2.9-1.2c0.6-0.8,1-2,1-3.5c0-1.5-0.3-2.7-1-3.5c-0.6-0.8-1.6-1.2-2.9-1.2
		c-1.3,0-2.2,0.4-2.9,1.2C240.9,121.4,240.6,122.6,240.6,124.1z"/>
	<path class="st4" d="M258.8,118.4h1.4l-4.1,11.4h-1.3l-4.1-11.4h1.4l2.6,7.4c0.3,0.8,0.5,1.7,0.7,2.5c0.2-0.8,0.4-1.7,0.7-2.5
		L258.8,118.4z"/>
	<path class="st4" d="M261.8,129.8v-11.4h1.3v11.4H261.8z"/>
	<path class="st4" d="M275.4,124c0,1.9-0.5,3.3-1.5,4.3s-2.5,1.5-4.4,1.5h-3.2v-11.4h3.5c1.8,0,3.2,0.5,4.1,1.5
		S275.4,122.3,275.4,124z M274,124.1c0-1.5-0.4-2.6-1.1-3.4c-0.7-0.8-1.9-1.1-3.3-1.1h-1.9v9.1h1.6c1.6,0,2.8-0.4,3.6-1.2
		S274,125.6,274,124.1z"/>
	<path class="st4" d="M277,126.2V125h3.8v1.2H277z"/>
	<path class="st4" d="M287.1,129.8h-1.3v-8.1c0-0.7,0-1.3,0.1-1.9c-0.1,0.1-0.2,0.2-0.4,0.3c-0.1,0.1-0.8,0.6-1.9,1.5l-0.7-0.9
		l3-2.3h1.1V129.8z"/>
	<path class="st4" d="M298.9,123.3c0,4.5-1.7,6.7-5.2,6.7c-0.6,0-1.1-0.1-1.4-0.2v-1.1c0.4,0.1,0.9,0.2,1.4,0.2
		c1.2,0,2.2-0.4,2.8-1.2c0.6-0.8,1-2,1-3.6h-0.1c-0.3,0.4-0.7,0.8-1.1,1c-0.5,0.2-1,0.3-1.6,0.3c-1,0-1.8-0.3-2.4-0.9
		s-0.9-1.4-0.9-2.5c0-1.2,0.3-2.1,1-2.8s1.5-1,2.6-1c0.8,0,1.5,0.2,2,0.6c0.6,0.4,1,1,1.3,1.7S298.9,122.3,298.9,123.3z
		 M295.1,119.4c-0.7,0-1.3,0.2-1.7,0.7s-0.6,1.1-0.6,2c0,0.8,0.2,1.3,0.6,1.8s0.9,0.6,1.7,0.6c0.5,0,0.9-0.1,1.3-0.3
		s0.7-0.5,0.9-0.8c0.2-0.3,0.3-0.7,0.3-1c0-0.5-0.1-1.1-0.3-1.5c-0.2-0.5-0.5-0.8-0.9-1.1S295.6,119.4,295.1,119.4z"/>
</g>
<g class="st8">
	<path class="st4" d="M11.2,137.1c0.4,0,0.7,0,1,0.1l-0.2,1.2c-0.4-0.1-0.7-0.1-0.9-0.1c-0.7,0-1.3,0.3-1.8,0.8s-0.7,1.3-0.7,2.1
		v4.6H7.3v-8.6h1.1l0.1,1.6h0.1c0.3-0.6,0.7-1,1.1-1.3C10.2,137.3,10.7,137.1,11.2,137.1z"/>
	<path class="st4" d="M17.5,146c-1.3,0-2.3-0.4-3-1.2c-0.7-0.8-1.1-1.8-1.1-3.2c0-1.4,0.3-2.5,1-3.3s1.6-1.2,2.7-1.2
		c1.1,0,1.9,0.4,2.5,1.1s0.9,1.6,0.9,2.8v0.8h-5.9c0,1,0.3,1.8,0.8,2.3c0.5,0.5,1.2,0.8,2,0.8c0.9,0,1.8-0.2,2.7-0.6v1.2
		c-0.5,0.2-0.9,0.3-1.3,0.4C18.5,146,18.1,146,17.5,146z M17.1,138.2c-0.7,0-1.2,0.2-1.6,0.7c-0.4,0.4-0.6,1.1-0.7,1.9h4.5
		c0-0.8-0.2-1.4-0.5-1.9C18.3,138.4,17.8,138.2,17.1,138.2z"/>
	<path class="st4" d="M24.1,145.8h-1.3v-12.2h1.3V145.8z"/>
	<path class="st4" d="M32.1,145.8l-0.3-1.2h-0.1c-0.4,0.5-0.9,0.9-1.3,1.1c-0.4,0.2-1,0.3-1.6,0.3c-0.8,0-1.5-0.2-2-0.7
		c-0.5-0.4-0.7-1.1-0.7-1.9c0-1.7,1.4-2.6,4.1-2.7l1.5,0v-0.5c0-0.7-0.1-1.2-0.4-1.5s-0.8-0.5-1.4-0.5c-0.7,0-1.5,0.2-2.4,0.7
		l-0.4-1c0.4-0.2,0.9-0.4,1.4-0.5c0.5-0.1,1-0.2,1.5-0.2c1,0,1.8,0.2,2.3,0.7s0.7,1.2,0.7,2.2v5.8H32.1z M29.2,144.9
		c0.8,0,1.4-0.2,1.9-0.7s0.7-1.1,0.7-1.9v-0.8l-1.3,0.1c-1,0-1.8,0.2-2.2,0.5c-0.5,0.3-0.7,0.7-0.7,1.3c0,0.5,0.1,0.8,0.4,1.1
		C28.3,144.8,28.7,144.9,29.2,144.9z"/>
	<path class="st4" d="M38.5,144.9c0.2,0,0.5,0,0.7-0.1c0.2,0,0.4-0.1,0.5-0.1v1c-0.1,0.1-0.3,0.1-0.6,0.2s-0.5,0.1-0.7,0.1
		c-1.7,0-2.5-0.9-2.5-2.6v-5.1h-1.2v-0.6l1.2-0.5l0.5-1.8h0.8v2h2.5v1h-2.5v5c0,0.5,0.1,0.9,0.4,1.2
		C37.8,144.8,38.1,144.9,38.5,144.9z"/>
	<path class="st4" d="M45,146c-1.3,0-2.3-0.4-3-1.2c-0.7-0.8-1.1-1.8-1.1-3.2c0-1.4,0.3-2.5,1-3.3s1.6-1.2,2.7-1.2
		c1.1,0,1.9,0.4,2.5,1.1s0.9,1.6,0.9,2.8v0.8h-5.9c0,1,0.3,1.8,0.8,2.3c0.5,0.5,1.2,0.8,2,0.8c0.9,0,1.8-0.2,2.7-0.6v1.2
		c-0.5,0.2-0.9,0.3-1.3,0.4C46.1,146,45.6,146,45,146z M44.7,138.2c-0.7,0-1.2,0.2-1.6,0.7c-0.4,0.4-0.6,1.1-0.7,1.9h4.5
		c0-0.8-0.2-1.4-0.5-1.9C45.9,138.4,45.4,138.2,44.7,138.2z"/>
	<path class="st4" d="M56.2,144.7L56.2,144.7c-0.7,0.9-1.6,1.3-2.8,1.3c-1.1,0-2-0.4-2.6-1.1c-0.6-0.8-0.9-1.9-0.9-3.3
		s0.3-2.5,0.9-3.3s1.5-1.2,2.6-1.2c1.2,0,2.1,0.4,2.7,1.3h0.1l-0.1-0.6l0-0.6v-3.5h1.3v12.2h-1.1L56.2,144.7z M53.6,144.9
		c0.9,0,1.5-0.2,1.9-0.7s0.6-1.3,0.6-2.3v-0.3c0-1.2-0.2-2.1-0.6-2.6c-0.4-0.5-1-0.8-1.9-0.8c-0.8,0-1.3,0.3-1.7,0.9
		c-0.4,0.6-0.6,1.4-0.6,2.5c0,1.1,0.2,1.9,0.6,2.5C52.3,144.6,52.9,144.9,53.6,144.9z"/>
	<path class="st4" d="M70.2,144.7L70.2,144.7c-0.7,0.9-1.6,1.3-2.8,1.3c-1.1,0-2-0.4-2.6-1.1c-0.6-0.8-0.9-1.9-0.9-3.3
		s0.3-2.5,0.9-3.3s1.5-1.2,2.6-1.2c1.2,0,2.1,0.4,2.7,1.3h0.1l-0.1-0.6l0-0.6v-3.5h1.3v12.2h-1.1L70.2,144.7z M67.6,144.9
		c0.9,0,1.5-0.2,1.9-0.7s0.6-1.3,0.6-2.3v-0.3c0-1.2-0.2-2.1-0.6-2.6c-0.4-0.5-1-0.8-1.9-0.8c-0.8,0-1.3,0.3-1.7,0.9
		c-0.4,0.6-0.6,1.4-0.6,2.5c0,1.1,0.2,1.9,0.6,2.5C66.2,144.6,66.8,144.9,67.6,144.9z"/>
	<path class="st4" d="M77.8,146c-1.3,0-2.3-0.4-3-1.2c-0.7-0.8-1.1-1.8-1.1-3.2c0-1.4,0.3-2.5,1-3.3s1.6-1.2,2.7-1.2
		c1.1,0,1.9,0.4,2.5,1.1s0.9,1.6,0.9,2.8v0.8H75c0,1,0.3,1.8,0.8,2.3c0.5,0.5,1.2,0.8,2,0.8c0.9,0,1.8-0.2,2.7-0.6v1.2
		c-0.5,0.2-0.9,0.3-1.3,0.4C78.9,146,78.4,146,77.8,146z M77.4,138.2c-0.7,0-1.2,0.2-1.6,0.7c-0.4,0.4-0.6,1.1-0.7,1.9h4.5
		c0-0.8-0.2-1.4-0.5-1.9C78.6,138.4,78.1,138.2,77.4,138.2z"/>
	<path class="st4" d="M86.6,146c-1.2,0-2.2-0.4-2.9-1.1s-1-1.8-1-3.2c0-1.4,0.3-2.5,1-3.3c0.7-0.8,1.7-1.2,2.9-1.2
		c0.4,0,0.8,0,1.2,0.1c0.4,0.1,0.7,0.2,1,0.3l-0.4,1.1c-0.3-0.1-0.6-0.2-0.9-0.3c-0.3-0.1-0.6-0.1-0.9-0.1c-1.7,0-2.6,1.1-2.6,3.3
		c0,1.1,0.2,1.9,0.6,2.4c0.4,0.6,1.1,0.8,1.9,0.8c0.7,0,1.4-0.2,2.2-0.5v1.1C88.2,145.9,87.4,146,86.6,146z"/>
	<path class="st4" d="M92.1,145.8h-1.3v-12.2h1.3V145.8z"/>
	<path class="st4" d="M94.7,135c0-0.3,0.1-0.5,0.2-0.7c0.1-0.1,0.3-0.2,0.5-0.2c0.2,0,0.4,0.1,0.5,0.2c0.2,0.1,0.2,0.4,0.2,0.6
		s-0.1,0.5-0.2,0.7c-0.2,0.1-0.3,0.2-0.5,0.2c-0.2,0-0.4-0.1-0.5-0.2C94.8,135.5,94.7,135.3,94.7,135z M96.1,145.8h-1.3v-8.6h1.3
		V145.8z"/>
	<path class="st4" d="M104.7,145.8v-5.5c0-0.7-0.2-1.2-0.5-1.6c-0.3-0.3-0.8-0.5-1.5-0.5c-0.9,0-1.6,0.2-2,0.7
		c-0.4,0.5-0.6,1.3-0.6,2.4v4.5h-1.3v-8.6h1.1l0.2,1.2h0.1c0.3-0.4,0.6-0.7,1.1-1c0.5-0.2,1-0.3,1.6-0.3c1,0,1.8,0.2,2.3,0.7
		c0.5,0.5,0.8,1.3,0.8,2.4v5.6H104.7z"/>
	<path class="st4" d="M112.3,146c-1.3,0-2.3-0.4-3-1.2c-0.7-0.8-1.1-1.8-1.1-3.2c0-1.4,0.3-2.5,1-3.3s1.6-1.2,2.7-1.2
		c1.1,0,1.9,0.4,2.5,1.1s0.9,1.6,0.9,2.8v0.8h-5.9c0,1,0.3,1.8,0.8,2.3c0.5,0.5,1.2,0.8,2,0.8c0.9,0,1.8-0.2,2.7-0.6v1.2
		c-0.5,0.2-0.9,0.3-1.3,0.4C113.4,146,112.9,146,112.3,146z M111.9,138.2c-0.7,0-1.2,0.2-1.6,0.7c-0.4,0.4-0.6,1.1-0.7,1.9h4.5
		c0-0.8-0.2-1.4-0.5-1.9C113.1,138.4,112.6,138.2,111.9,138.2z"/>
	<path class="st4" d="M121.7,135c0-0.3,0.1-0.5,0.2-0.7c0.1-0.1,0.3-0.2,0.5-0.2c0.2,0,0.4,0.1,0.5,0.2c0.2,0.1,0.2,0.4,0.2,0.6
		s-0.1,0.5-0.2,0.7c-0.2,0.1-0.3,0.2-0.5,0.2c-0.2,0-0.4-0.1-0.5-0.2C121.8,135.5,121.7,135.3,121.7,135z M123.1,145.8h-1.3v-8.6
		h1.3V145.8z"/>
	<path class="st4" d="M131.7,145.8v-5.5c0-0.7-0.2-1.2-0.5-1.6c-0.3-0.3-0.8-0.5-1.5-0.5c-0.9,0-1.6,0.2-2,0.7
		c-0.4,0.5-0.6,1.3-0.6,2.4v4.5h-1.3v-8.6h1.1l0.2,1.2h0.1c0.3-0.4,0.6-0.7,1.1-1c0.5-0.2,1-0.3,1.6-0.3c1,0,1.8,0.2,2.3,0.7
		c0.5,0.5,0.8,1.3,0.8,2.4v5.6H131.7z"/>
	<path class="st4" d="M143.7,137.1c0.4,0,0.7,0,1,0.1l-0.2,1.2c-0.4-0.1-0.7-0.1-0.9-0.1c-0.7,0-1.3,0.3-1.8,0.8s-0.7,1.3-0.7,2.1
		v4.6h-1.3v-8.6h1.1l0.1,1.6h0.1c0.3-0.6,0.7-1,1.1-1.3C142.7,137.3,143.2,137.1,143.7,137.1z"/>
	<path class="st4" d="M150,146c-1.3,0-2.3-0.4-3-1.2c-0.7-0.8-1.1-1.8-1.1-3.2c0-1.4,0.3-2.5,1-3.3s1.6-1.2,2.7-1.2
		c1.1,0,1.9,0.4,2.5,1.1s0.9,1.6,0.9,2.8v0.8h-5.9c0,1,0.3,1.8,0.8,2.3c0.5,0.5,1.2,0.8,2,0.8c0.9,0,1.8-0.2,2.7-0.6v1.2
		c-0.5,0.2-0.9,0.3-1.3,0.4C151.1,146,150.6,146,150,146z M149.6,138.2c-0.7,0-1.2,0.2-1.6,0.7c-0.4,0.4-0.6,1.1-0.7,1.9h4.5
		c0-0.8-0.2-1.4-0.5-1.9C150.8,138.4,150.3,138.2,149.6,138.2z"/>
	<path class="st4" d="M166.3,145.8v-5.6c0-0.7-0.1-1.2-0.4-1.5c-0.3-0.3-0.7-0.5-1.4-0.5c-0.8,0-1.4,0.2-1.8,0.7
		c-0.4,0.5-0.6,1.2-0.6,2.1v4.8h-1.3v-5.6c0-0.7-0.1-1.2-0.4-1.5c-0.3-0.3-0.7-0.5-1.4-0.5c-0.8,0-1.4,0.2-1.8,0.7
		c-0.4,0.5-0.6,1.3-0.6,2.4v4.5h-1.3v-8.6h1.1l0.2,1.2h0.1c0.2-0.4,0.6-0.7,1-1s0.9-0.4,1.5-0.4c1.3,0,2.2,0.5,2.6,1.5h0.1
		c0.3-0.4,0.6-0.8,1.1-1.1s1-0.4,1.7-0.4c1,0,1.7,0.2,2.2,0.7c0.5,0.5,0.7,1.3,0.7,2.4v5.6H166.3z"/>
	<path class="st4" d="M170.1,135c0-0.3,0.1-0.5,0.2-0.7c0.1-0.1,0.3-0.2,0.5-0.2c0.2,0,0.4,0.1,0.5,0.2c0.2,0.1,0.2,0.4,0.2,0.6
		s-0.1,0.5-0.2,0.7c-0.2,0.1-0.3,0.2-0.5,0.2c-0.2,0-0.4-0.1-0.5-0.2C170.2,135.5,170.1,135.3,170.1,135z M171.5,145.8h-1.3v-8.6
		h1.3V145.8z"/>
	<path class="st4" d="M177,144.9c0.2,0,0.5,0,0.7-0.1c0.2,0,0.4-0.1,0.5-0.1v1c-0.1,0.1-0.3,0.1-0.6,0.2s-0.5,0.1-0.7,0.1
		c-1.7,0-2.5-0.9-2.5-2.6v-5.1h-1.2v-0.6l1.2-0.5l0.5-1.8h0.8v2h2.5v1h-2.5v5c0,0.5,0.1,0.9,0.4,1.2
		C176.3,144.8,176.6,144.9,177,144.9z"/>
	<path class="st4" d="M182.7,144.9c0.2,0,0.5,0,0.7-0.1c0.2,0,0.4-0.1,0.5-0.1v1c-0.1,0.1-0.3,0.1-0.6,0.2s-0.5,0.1-0.7,0.1
		c-1.7,0-2.5-0.9-2.5-2.6v-5.1h-1.2v-0.6l1.2-0.5l0.5-1.8h0.8v2h2.5v1h-2.5v5c0,0.5,0.1,0.9,0.4,1.2
		C181.9,144.8,182.3,144.9,182.7,144.9z"/>
	<path class="st4" d="M190.8,145.8l-0.3-1.2h-0.1c-0.4,0.5-0.9,0.9-1.3,1.1c-0.4,0.2-1,0.3-1.6,0.3c-0.8,0-1.5-0.2-2-0.7
		c-0.5-0.4-0.7-1.1-0.7-1.9c0-1.7,1.4-2.6,4.1-2.7l1.5,0v-0.5c0-0.7-0.1-1.2-0.4-1.5s-0.8-0.5-1.4-0.5c-0.7,0-1.5,0.2-2.4,0.7
		l-0.4-1c0.4-0.2,0.9-0.4,1.4-0.5c0.5-0.1,1-0.2,1.5-0.2c1,0,1.8,0.2,2.3,0.7s0.7,1.2,0.7,2.2v5.8H190.8z M187.9,144.9
		c0.8,0,1.4-0.2,1.9-0.7s0.7-1.1,0.7-1.9v-0.8l-1.3,0.1c-1,0-1.8,0.2-2.2,0.5c-0.5,0.3-0.7,0.7-0.7,1.3c0,0.5,0.1,0.8,0.4,1.1
		C187,144.8,187.4,144.9,187.9,144.9z"/>
	<path class="st4" d="M200.3,145.8v-5.5c0-0.7-0.2-1.2-0.5-1.6c-0.3-0.3-0.8-0.5-1.5-0.5c-0.9,0-1.6,0.2-2,0.7
		c-0.4,0.5-0.6,1.3-0.6,2.4v4.5h-1.3v-8.6h1.1l0.2,1.2h0.1c0.3-0.4,0.6-0.7,1.1-1c0.5-0.2,1-0.3,1.6-0.3c1,0,1.8,0.2,2.3,0.7
		c0.5,0.5,0.8,1.3,0.8,2.4v5.6H200.3z"/>
	<path class="st4" d="M207.7,146c-1.2,0-2.2-0.4-2.9-1.1s-1-1.8-1-3.2c0-1.4,0.3-2.5,1-3.3c0.7-0.8,1.7-1.2,2.9-1.2
		c0.4,0,0.8,0,1.2,0.1c0.4,0.1,0.7,0.2,1,0.3l-0.4,1.1c-0.3-0.1-0.6-0.2-0.9-0.3c-0.3-0.1-0.6-0.1-0.9-0.1c-1.7,0-2.6,1.1-2.6,3.3
		c0,1.1,0.2,1.9,0.6,2.4c0.4,0.6,1.1,0.8,1.9,0.8c0.7,0,1.4-0.2,2.2-0.5v1.1C209.3,145.9,208.6,146,207.7,146z"/>
	<path class="st4" d="M215.5,146c-1.3,0-2.3-0.4-3-1.2c-0.7-0.8-1.1-1.8-1.1-3.2c0-1.4,0.3-2.5,1-3.3s1.6-1.2,2.7-1.2
		c1.1,0,1.9,0.4,2.5,1.1s0.9,1.6,0.9,2.8v0.8h-5.9c0,1,0.3,1.8,0.8,2.3c0.5,0.5,1.2,0.8,2,0.8c0.9,0,1.8-0.2,2.7-0.6v1.2
		c-0.5,0.2-0.9,0.3-1.3,0.4C216.6,146,216.1,146,215.5,146z M215.2,138.2c-0.7,0-1.2,0.2-1.6,0.7c-0.4,0.4-0.7,1.1-0.7,1.9h4.5
		c0-0.8-0.2-1.4-0.5-1.9C216.4,138.4,215.8,138.2,215.2,138.2z"/>
	<path class="st4" d="M226.4,143.5c0,0.8-0.3,1.4-0.9,1.8s-1.4,0.6-2.5,0.6c-1.1,0-2-0.2-2.7-0.5v-1.2c0.4,0.2,0.9,0.4,1.3,0.5
		c0.5,0.1,0.9,0.2,1.4,0.2c0.7,0,1.2-0.1,1.6-0.3c0.4-0.2,0.5-0.5,0.5-1c0-0.3-0.1-0.6-0.4-0.9s-0.9-0.5-1.7-0.8
		c-0.8-0.3-1.4-0.6-1.7-0.8s-0.6-0.5-0.8-0.8s-0.2-0.6-0.2-1c0-0.7,0.3-1.2,0.9-1.7c0.6-0.4,1.3-0.6,2.3-0.6c0.9,0,1.8,0.2,2.7,0.6
		l-0.5,1.1c-0.9-0.4-1.6-0.5-2.3-0.5c-0.6,0-1.1,0.1-1.4,0.3s-0.5,0.5-0.5,0.8c0,0.2,0.1,0.4,0.2,0.6s0.3,0.3,0.6,0.5
		c0.3,0.1,0.8,0.4,1.5,0.6c1,0.4,1.7,0.7,2.1,1.1C226.2,142.5,226.4,142.9,226.4,143.5z"/>
	<path class="st4" d="M228.3,145c0-0.3,0.1-0.6,0.2-0.8c0.2-0.2,0.4-0.3,0.7-0.3c0.3,0,0.5,0.1,0.7,0.3c0.2,0.2,0.3,0.4,0.3,0.8
		c0,0.3-0.1,0.6-0.3,0.8s-0.4,0.3-0.7,0.3c-0.3,0-0.5-0.1-0.7-0.2C228.4,145.7,228.3,145.4,228.3,145z"/>
</g>
</svg>
