<?xml version="1.0" encoding="utf-8"?>
<!-- Generator: Adobe Illustrator 24.3.0, SVG Export Plug-In . SVG Version: 6.00 Build 0)  -->
<svg version="1.1" id="Layer_1" xmlns="http://www.w3.org/2000/svg" xmlns:xlink="http://www.w3.org/1999/xlink" x="0px" y="0px"
	 viewBox="0 0 408.33 155.75" style="enable-background:new 0 0 408.33 155.75;" xml:space="preserve">
<style type="text/css">
	.st0{fill:#666666;}
	.st1{fill:#3F98AC;}
	.st2{fill:#213463;}
	.st3{fill:#FFFFFF;}
</style>
<path class="st0" d="M9.29,37.15H4.63v-1.53h11.34v1.53h-4.66v12.46H9.35L9.29,37.15z"/>
<path class="st0" d="M17.45,34.88h1.97v6.27l0,0c0.35-0.55,0.85-1,1.43-1.29c0.63-0.34,1.33-0.52,2.04-0.52
	c1.47,0,3.84,0.84,3.84,4.29v5.97h-1.97v-5.77c0-1.62-0.67-2.95-2.54-2.95c-1.19-0.01-2.25,0.71-2.68,1.82
	c-0.11,0.28-0.16,0.58-0.15,0.87v6.06h-1.97L17.45,34.88z"/>
<path class="st0" d="M32.3,36.75c-0.06,0.69-0.67,1.19-1.35,1.13c-0.6-0.05-1.08-0.53-1.13-1.13c0.01-0.65,0.54-1.16,1.19-1.15
	c0.02,0,0.05,0,0.07,0c0.63-0.05,1.18,0.42,1.22,1.05C32.3,36.68,32.3,36.71,32.3,36.75z M30.07,49.61V39.56h1.97V49.6L30.07,49.61
	L30.07,49.61z"/>
<path class="st0" d="M35.11,47.75c0.81,0.45,1.72,0.7,2.64,0.72c1.45,0,2.14-0.66,2.14-1.49s-0.57-1.36-2.04-1.85
	c-1.97-0.65-2.95-1.64-2.95-2.85c0-1.62,1.43-2.95,3.79-2.95c0.94-0.01,1.87,0.2,2.71,0.63l-0.5,1.33
	c-0.69-0.39-1.46-0.59-2.25-0.59c-1.19,0-1.84,0.63-1.84,1.38c0,0.75,0.66,1.2,2.08,1.71c1.97,0.66,2.95,1.53,2.95,3.03
	c0,1.76-1.5,3.01-4.13,3.01c-1.07,0.01-2.13-0.22-3.09-0.69L35.11,47.75z"/>
<path class="st0" d="M49.21,42.29c0-1.04,0-1.89-0.09-2.72h1.75l0.09,1.62h0.06c0.73-1.2,2.06-1.91,3.46-1.85
	c1.36-0.05,2.6,0.76,3.11,2.01h0.05c0.32-0.5,0.74-0.93,1.23-1.26c0.71-0.5,1.57-0.75,2.44-0.71c1.45,0,3.62,0.87,3.62,4.35v5.9
	h-1.97v-5.71c0-1.97-0.78-3.09-2.4-3.09c-1.05,0.01-1.99,0.67-2.37,1.65c-0.1,0.3-0.15,0.6-0.16,0.91v6.2h-1.97v-6.02
	c0-1.59-0.78-2.75-2.3-2.75c-1.12,0.03-2.11,0.75-2.48,1.82c-0.11,0.29-0.16,0.59-0.16,0.89v6.06h-1.97v-7.31H49.21z"/>
<path class="st0" d="M78.12,44.5c0,3.71-2.82,5.34-5.48,5.34c-2.75,0.15-5.11-1.95-5.26-4.7c-0.01-0.16-0.01-0.32,0-0.47
	c-0.12-2.83,2.08-5.22,4.91-5.34c0.18-0.01,0.36-0.01,0.55,0.01c2.74-0.18,5.11,1.89,5.29,4.63C78.13,44.14,78.13,44.32,78.12,44.5z
	 M69.39,44.61c0,2.21,1.4,3.86,3.35,3.86s3.35-1.63,3.35-3.93c0-1.7-0.98-3.85-3.29-3.85C70.49,40.69,69.38,42.69,69.39,44.61
	L69.39,44.61z"/>
<path class="st0" d="M80.63,42.29c0-1.04,0-1.89-0.09-2.72h1.78l0.11,1.66l0,0c0.79-1.23,2.18-1.95,3.65-1.89
	c1.52,0,3.93,0.84,3.93,4.27v6h-1.97v-5.79c0-1.62-0.66-2.95-2.54-2.95c-1.2-0.01-2.27,0.74-2.68,1.87
	c-0.1,0.27-0.14,0.56-0.14,0.84v6.04h-1.97L80.63,42.29z"/>
<path class="st0" d="M95.56,36.69v2.88h2.87v1.4h-2.87v5.41c0,1.25,0.39,1.97,1.5,1.97c0.39,0.01,0.78-0.04,1.16-0.13l0.09,1.37
	c-0.57,0.19-1.18,0.27-1.78,0.26c-0.79,0.05-1.57-0.23-2.16-0.77c-0.6-0.74-0.87-1.68-0.77-2.62v-5.48h-1.73v-1.4h1.71v-2.42
	L95.56,36.69z"/>
<path class="st0" d="M100.72,34.88h1.97v6.27l0,0c0.35-0.55,0.85-1,1.43-1.29c0.63-0.34,1.33-0.52,2.04-0.52
	c1.47,0,3.84,0.84,3.84,4.29v5.97h-1.97v-5.77c0-1.62-0.67-2.95-2.54-2.95c-1.19-0.01-2.25,0.71-2.68,1.82
	c-0.11,0.28-0.16,0.58-0.15,0.87v6.06h-1.97L100.72,34.88z"/>
<path class="st0" d="M113.01,47.75c0.81,0.45,1.72,0.7,2.64,0.72c1.45,0,2.14-0.66,2.14-1.49s-0.57-1.36-2.04-1.85
	c-1.97-0.65-2.95-1.64-2.95-2.85c0-1.62,1.43-2.95,3.79-2.95c0.94-0.01,1.87,0.2,2.7,0.63l-0.5,1.33c-0.69-0.39-1.46-0.59-2.25-0.59
	c-1.18,0-1.84,0.63-1.84,1.38c0,0.75,0.67,1.2,2.09,1.71c1.91,0.66,2.89,1.53,2.89,3.03c0,1.76-1.5,3.01-4.12,3.01
	c-1.07,0.02-2.14-0.22-3.1-0.69L113.01,47.75z"/>
<path class="st0" d="M134.94,49.23c-1,0.41-2.08,0.61-3.16,0.59c-3.31,0-5.47-2.05-5.47-5.14s2.32-5.34,5.9-5.34
	c0.95-0.01,1.89,0.16,2.77,0.52l-0.46,1.41c-0.72-0.34-1.51-0.5-2.31-0.47c-2.09-0.13-3.88,1.46-4,3.55c-0.13,2.09,1.46,3.88,3.55,4
	c0.13,0.01,0.25,0.01,0.38,0c0.84,0.01,1.68-0.16,2.46-0.49L134.94,49.23z"/>
<path class="st0" d="M143.38,49.61l-0.17-1.27h-0.07c-0.84,0.99-2.08,1.54-3.37,1.5c-2.22,0-3.36-1.43-3.36-2.89
	c0-2.44,2.37-3.76,6.61-3.74v-0.17c0-0.84-0.25-2.33-2.5-2.33c-1,0-1.99,0.26-2.87,0.75l-0.46-1.2c1.11-0.61,2.36-0.91,3.63-0.89
	c3.37,0,4.18,2.09,4.18,4.11v3.76c-0.01,0.81,0.05,1.61,0.19,2.41L143.38,49.61z M143.09,44.48c-2.19,0-4.67,0.31-4.67,2.27
	c-0.03,0.94,0.71,1.72,1.65,1.75c0.08,0,0.17,0,0.25-0.01c1.15,0.05,2.21-0.61,2.66-1.67c0.06-0.19,0.1-0.39,0.11-0.59V44.48z"/>
<path class="st0" d="M148.24,42.29c0-1.04,0-1.89-0.09-2.72h1.75l0.09,1.62h0.07c0.73-1.2,2.05-1.9,3.45-1.85
	c1.36-0.04,2.6,0.76,3.12,2.01l0,0c0.33-0.5,0.77-0.93,1.27-1.26c0.71-0.49,1.57-0.74,2.44-0.71c1.45,0,3.62,0.87,3.62,4.35v5.9
	h-1.97v-5.71c0-1.97-0.77-3.09-2.39-3.09c-1.05,0.01-1.99,0.66-2.37,1.65c-0.1,0.29-0.16,0.6-0.17,0.91v6.2h-1.97v-6.02
	c0-1.59-0.77-2.75-2.29-2.75c-1.12,0.03-2.11,0.75-2.48,1.82c-0.11,0.28-0.17,0.59-0.17,0.89v6.06h-1.97v-7.31H148.24z"/>
<path class="st0" d="M167.2,42.85c0-1.3,0-2.33-0.09-3.29h1.8l0.09,1.73l0,0c0.87-1.3,2.37-2.05,3.93-1.97
	c2.66,0,4.67,2.05,4.67,5.11c0,3.62-2.42,5.4-5,5.4c-1.32,0.07-2.59-0.52-3.39-1.58h-0.05v5.45h-1.97L167.2,42.85L167.2,42.85z
	 M169.16,45.52c0.01,0.25,0.04,0.5,0.09,0.75c0.41,1.3,1.63,2.18,3,2.13c2.12,0,3.35-1.57,3.35-3.93c0-1.97-1.16-3.73-3.27-3.73
	c-1.4-0.01-2.63,0.91-3.02,2.26c-0.08,0.24-0.13,0.49-0.15,0.75V45.52z"/>
<path class="st0" d="M186.2,49.61l-0.17-1.27h-0.07c-0.84,0.99-2.08,1.54-3.37,1.5c-2.22,0-3.36-1.43-3.36-2.89
	c0-2.44,2.37-3.76,6.61-3.74v-0.17c0-0.84-0.25-2.33-2.5-2.33c-1,0-1.99,0.26-2.87,0.75l-0.46-1.2c1.11-0.61,2.36-0.91,3.63-0.89
	c3.37,0,4.18,2.09,4.18,4.11v3.76c-0.01,0.81,0.05,1.61,0.19,2.41L186.2,49.61z M185.91,44.48c-2.19,0-4.67,0.31-4.67,2.27
	c-0.03,0.94,0.71,1.72,1.65,1.75c0.08,0,0.17,0,0.25-0.01c1.15,0.05,2.21-0.61,2.66-1.67c0.06-0.19,0.1-0.39,0.11-0.59V44.48z"/>
<path class="st0" d="M193.31,36.75c-0.09,0.68-0.71,1.17-1.39,1.08c-0.57-0.07-1.01-0.52-1.08-1.08c0.01-0.65,0.54-1.16,1.18-1.15
	c0.03,0,0.06,0,0.08,0c0.63-0.04,1.17,0.44,1.21,1.07C193.3,36.69,193.31,36.72,193.31,36.75z M191.11,49.61V39.56h1.97V49.6
	L191.11,49.61L191.11,49.61z"/>
<path class="st0" d="M205.85,39.56c0,0.73-0.08,1.54-0.08,2.76v5.84c0,2.3-0.5,3.71-1.57,4.58c-1.15,0.85-2.57,1.28-4,1.21
	c-1.27,0.03-2.53-0.26-3.66-0.84l0.49-1.4c0.99,0.53,2.11,0.8,3.23,0.79c2.04,0,3.54-0.98,3.54-3.51v-1.12l0,0
	c-0.8,1.12-2.12,1.75-3.5,1.67c-2.57,0.02-4.67-2.05-4.69-4.62c0-0.1,0-0.19,0.01-0.29c-0.18-2.76,1.91-5.15,4.68-5.32
	c0.1-0.01,0.19-0.01,0.29-0.01c1.38-0.08,2.69,0.61,3.41,1.79l0,0l0.08-1.52H205.85z M203.79,43.49c0.01-0.28-0.03-0.56-0.11-0.84
	c-0.39-1.21-1.53-2.01-2.79-1.97c-1.92,0-3.27,1.46-3.27,3.79c0,1.97,1.09,3.62,3.25,3.62c1.22,0.01,2.32-0.73,2.77-1.87
	c0.11-0.32,0.16-0.65,0.16-0.98v-1.72L203.79,43.49z"/>
<path class="st0" d="M208.97,42.29c0-1.04,0-1.89-0.09-2.72h1.77l0.11,1.66l0,0c0.79-1.23,2.18-1.95,3.65-1.89
	c1.52,0,3.93,0.84,3.93,4.27v6h-1.97v-5.79c0-1.62-0.66-2.95-2.53-2.95c-1.2-0.01-2.28,0.74-2.69,1.87
	c-0.09,0.27-0.13,0.56-0.13,0.84v6.04h-1.97v-7.35H208.97z"/>
<g>
	<path class="st1" d="M17.7,79.06c0,1.09-0.28,2.05-0.83,2.89c-0.55,0.84-1.35,1.5-2.38,1.96c-1.04,0.47-2.26,0.7-3.65,0.7
		c-1.17,0-2.14-0.08-2.93-0.25c-0.79-0.16-1.61-0.45-2.47-0.86V79.3c0.9,0.46,1.84,0.82,2.81,1.08c0.97,0.26,1.87,0.39,2.68,0.39
		c0.7,0,1.22-0.12,1.55-0.37c0.33-0.24,0.49-0.56,0.49-0.94c0-0.24-0.07-0.45-0.2-0.63s-0.34-0.36-0.63-0.55
		c-0.29-0.18-1.07-0.56-2.33-1.13c-1.14-0.52-2-1.02-2.57-1.51c-0.57-0.49-0.99-1.05-1.27-1.68c-0.28-0.63-0.41-1.38-0.41-2.24
		c0-1.61,0.59-2.87,1.76-3.77c1.17-0.9,2.79-1.35,4.84-1.35c1.81,0,3.66,0.42,5.55,1.26l-1.45,3.65c-1.64-0.75-3.05-1.13-4.24-1.13
		c-0.61,0-1.06,0.11-1.34,0.32c-0.28,0.22-0.42,0.48-0.42,0.8c0,0.34,0.18,0.65,0.53,0.92c0.35,0.27,1.32,0.77,2.89,1.49
		c1.51,0.68,2.56,1.41,3.14,2.19C17.41,76.9,17.7,77.88,17.7,79.06z"/>
	<path class="st1" d="M31.15,84.38l-0.86-3.28H24.6l-0.89,3.28h-5.2l5.71-17.58h6.31l5.79,17.58H31.15z M29.31,77.22l-0.75-2.87
		c-0.18-0.64-0.39-1.47-0.64-2.48c-0.25-1.01-0.42-1.74-0.5-2.18c-0.07,0.41-0.21,1.08-0.43,2.01c-0.21,0.93-0.68,2.77-1.41,5.52
		H29.31z"/>
	<path class="st1" d="M53.09,75.25c0,2.92-0.8,5.17-2.41,6.76c-1.61,1.58-3.87,2.37-6.79,2.37h-5.67V66.87h6.06
		c2.81,0,4.98,0.72,6.51,2.16S53.09,72.54,53.09,75.25z M48.18,75.42c0-1.61-0.32-2.8-0.95-3.57c-0.63-0.77-1.6-1.16-2.89-1.16
		h-1.38v9.81h1.05c1.44,0,2.49-0.42,3.16-1.25S48.18,77.14,48.18,75.42z"/>
	<path class="st1" d="M64.02,70.5c-1.13,0-2,0.46-2.64,1.38s-0.95,2.19-0.95,3.82c0,3.37,1.28,5.06,3.85,5.06
		c0.77,0,1.52-0.11,2.25-0.32c0.73-0.22,1.46-0.48,2.19-0.78v4c-1.46,0.65-3.11,0.97-4.96,0.97c-2.64,0-4.67-0.77-6.08-2.3
		c-1.41-1.53-2.11-3.75-2.11-6.65c0-1.81,0.34-3.41,1.02-4.78s1.67-2.43,2.95-3.17c1.28-0.74,2.79-1.11,4.52-1.11
		c1.89,0,3.7,0.41,5.43,1.23l-1.45,3.73c-0.65-0.3-1.29-0.56-1.94-0.77C65.46,70.6,64.77,70.5,64.02,70.5z"/>
	<path class="st2" d="M83.25,78.01v6.37h-4.73V66.87h5.74c4.76,0,7.14,1.73,7.14,5.17c0,2.03-0.99,3.6-2.97,4.71l5.1,7.63h-5.37
		l-3.71-6.37H83.25z M83.25,74.45h0.89c1.65,0,2.48-0.73,2.48-2.19c0-1.21-0.81-1.81-2.43-1.81h-0.93V74.45z"/>
	<path class="st2" d="M101.4,84.62c-2.26,0-4.01-0.6-5.26-1.8c-1.25-1.2-1.87-2.91-1.87-5.13c0-2.29,0.58-4.05,1.74-5.28
		c1.16-1.23,2.81-1.84,4.96-1.84c2.04,0,3.62,0.53,4.74,1.6c1.11,1.07,1.67,2.6,1.67,4.61v2.08h-8.37c0.03,0.76,0.31,1.35,0.83,1.79
		s1.24,0.65,2.14,0.65c0.82,0,1.58-0.08,2.27-0.23s1.44-0.42,2.25-0.8v3.37c-0.73,0.38-1.49,0.64-2.28,0.78
		S102.48,84.62,101.4,84.62z M101.12,73.76c-0.55,0-1.01,0.17-1.38,0.52c-0.37,0.35-0.59,0.89-0.65,1.63h4.02
		c-0.02-0.65-0.2-1.18-0.56-1.57C102.2,73.95,101.72,73.76,101.12,73.76z"/>
	<path class="st2" d="M126.67,84.38V77c0-0.92-0.13-1.61-0.38-2.07c-0.25-0.46-0.65-0.69-1.19-0.69c-0.72,0-1.25,0.31-1.58,0.92
		c-0.34,0.62-0.5,1.58-0.5,2.89v6.32h-4.7V77c0-0.92-0.12-1.61-0.36-2.07c-0.24-0.46-0.63-0.69-1.16-0.69
		c-0.73,0-1.27,0.33-1.6,0.98c-0.34,0.65-0.5,1.73-0.5,3.21v5.94h-4.68V70.81h3.53l0.59,1.68h0.28c0.36-0.62,0.88-1.1,1.56-1.43
		s1.46-0.49,2.33-0.49c1.96,0,3.33,0.59,4.12,1.78h0.37c0.38-0.56,0.92-1,1.6-1.31c0.68-0.32,1.44-0.47,2.26-0.47
		c1.6,0,2.79,0.41,3.56,1.23c0.77,0.82,1.15,2.07,1.15,3.75v8.83H126.67z"/>
	<path class="st2" d="M134.45,67.43c0-0.7,0.2-1.23,0.59-1.57c0.39-0.34,1.02-0.52,1.89-0.52c0.87,0,1.51,0.18,1.9,0.53
		c0.4,0.35,0.6,0.87,0.6,1.56c0,1.37-0.83,2.06-2.5,2.06C135.27,69.49,134.45,68.8,134.45,67.43z M139.25,84.38h-4.68V70.81h4.68
		V84.38z"/>
	<path class="st2" d="M149.17,80.92c0.63,0,1.39-0.16,2.26-0.47v3.41c-0.63,0.27-1.23,0.47-1.8,0.58c-0.57,0.12-1.24,0.17-2.01,0.17
		c-1.57,0-2.71-0.38-3.4-1.16c-0.69-0.77-1.04-1.95-1.04-3.55v-5.59h-1.64v-1.9l2.08-1.47l1.21-2.85h3.07v2.72h3.33v3.51h-3.33v5.28
		C147.9,80.48,148.32,80.92,149.17,80.92z"/>
	<path class="st2" d="M160.45,80.92c0.63,0,1.39-0.16,2.26-0.47v3.41c-0.63,0.27-1.23,0.47-1.8,0.58c-0.57,0.12-1.24,0.17-2.01,0.17
		c-1.57,0-2.71-0.38-3.4-1.16c-0.69-0.77-1.04-1.95-1.04-3.55v-5.59h-1.64v-1.9l2.08-1.47l1.21-2.85h3.07v2.72h3.33v3.51h-3.33v5.28
		C159.18,80.48,159.61,80.92,160.45,80.92z"/>
	<path class="st2" d="M173.94,84.38l-0.9-1.8h-0.1c-0.63,0.78-1.27,1.32-1.93,1.61c-0.66,0.29-1.5,0.43-2.54,0.43
		c-1.28,0-2.28-0.38-3.02-1.15c-0.73-0.77-1.1-1.85-1.1-3.23c0-1.45,0.5-2.52,1.51-3.23c1.01-0.71,2.46-1.1,4.37-1.19l2.26-0.07
		v-0.19c0-1.12-0.55-1.68-1.65-1.68c-0.99,0-2.25,0.34-3.77,1.01l-1.35-3.09c1.58-0.81,3.58-1.22,5.99-1.22
		c1.74,0,3.09,0.43,4.04,1.29c0.95,0.86,1.43,2.07,1.43,3.62v8.9H173.94z M170.47,81.31c0.57,0,1.05-0.18,1.46-0.54
		c0.4-0.36,0.6-0.83,0.6-1.4v-1.05l-1.08,0.05c-1.54,0.06-2.31,0.62-2.31,1.7C169.14,80.9,169.58,81.31,170.47,81.31z"/>
	<path class="st2" d="M188.94,84.38v-7.4c0-0.9-0.13-1.58-0.39-2.04c-0.26-0.46-0.68-0.69-1.25-0.69c-0.79,0-1.36,0.32-1.71,0.95
		c-0.35,0.63-0.53,1.71-0.53,3.25v5.94h-4.68V70.81h3.53l0.59,1.68h0.28c0.4-0.64,0.95-1.12,1.66-1.44
		c0.71-0.32,1.52-0.48,2.44-0.48c1.5,0,2.67,0.44,3.5,1.31s1.25,2.1,1.25,3.68v8.83H188.94z"/>
	<path class="st2" d="M202.99,84.62c-2.22,0-3.9-0.6-5.05-1.8c-1.15-1.2-1.72-2.92-1.72-5.16c0-2.25,0.62-4,1.86-5.23
		c1.24-1.24,3-1.86,5.28-1.86c1.57,0,3.06,0.34,4.44,1.03l-1.38,3.46c-0.57-0.25-1.09-0.45-1.57-0.59c-0.48-0.15-0.98-0.22-1.5-0.22
		c-0.76,0-1.35,0.3-1.76,0.89s-0.62,1.43-0.62,2.5c0,2.17,0.8,3.26,2.41,3.26c1.37,0,2.69-0.4,3.95-1.2v3.73
		C206.13,84.22,204.68,84.62,202.99,84.62z"/>
	<path class="st2" d="M216.59,84.62c-2.26,0-4.02-0.6-5.26-1.8c-1.25-1.2-1.88-2.91-1.88-5.13c0-2.29,0.58-4.05,1.74-5.28
		c1.16-1.23,2.81-1.84,4.96-1.84c2.04,0,3.62,0.53,4.74,1.6s1.67,2.6,1.67,4.61v2.08h-8.37c0.03,0.76,0.31,1.35,0.83,1.79
		c0.52,0.43,1.24,0.65,2.14,0.65c0.82,0,1.58-0.08,2.27-0.23c0.69-0.16,1.44-0.42,2.25-0.8v3.37c-0.74,0.38-1.49,0.64-2.28,0.78
		C218.61,84.55,217.67,84.62,216.59,84.62z M216.31,73.76c-0.55,0-1.01,0.17-1.38,0.52c-0.37,0.35-0.59,0.89-0.65,1.63h4.03
		c-0.02-0.65-0.2-1.18-0.56-1.57S216.91,73.76,216.31,73.76z"/>
	<path class="st2" d="M10.19,108.62c-0.97,0-1.81-0.28-2.53-0.83c-0.72-0.55-1.28-1.36-1.68-2.43c-0.4-1.07-0.59-2.32-0.59-3.75
		c0-2.2,0.44-3.93,1.33-5.18c0.89-1.25,2.1-1.87,3.65-1.87c0.76,0,1.42,0.15,1.99,0.46s1.09,0.81,1.56,1.53h0.1
		c-0.15-1.06-0.23-2.12-0.23-3.19v-3.63h4.72v18.64h-3.53l-1.01-1.71H13.8C12.99,107.97,11.79,108.62,10.19,108.62z M12.11,104.92
		c0.75,0,1.28-0.24,1.59-0.71c0.31-0.47,0.47-1.2,0.5-2.18v-0.37c0-1.2-0.17-2.05-0.52-2.56s-0.88-0.76-1.62-0.76
		c-0.61,0-1.09,0.29-1.43,0.87c-0.34,0.58-0.51,1.4-0.51,2.47c0,1.05,0.17,1.86,0.52,2.41C10.98,104.64,11.47,104.92,12.11,104.92z"
		/>
	<path class="st2" d="M30.6,108.38l-0.9-1.8h-0.1c-0.63,0.78-1.27,1.32-1.93,1.61c-0.66,0.29-1.5,0.43-2.54,0.43
		c-1.28,0-2.28-0.38-3.02-1.15s-1.1-1.84-1.1-3.23c0-1.45,0.5-2.52,1.51-3.23c1.01-0.71,2.46-1.1,4.37-1.19l2.26-0.07v-0.19
		c0-1.12-0.55-1.68-1.65-1.68c-0.99,0-2.25,0.34-3.77,1.01l-1.35-3.09c1.58-0.81,3.58-1.22,5.99-1.22c1.74,0,3.09,0.43,4.04,1.29
		s1.43,2.07,1.43,3.62v8.9H30.6z M27.13,105.32c0.57,0,1.05-0.18,1.46-0.54c0.4-0.36,0.6-0.83,0.6-1.4v-1.05l-1.08,0.05
		c-1.54,0.06-2.31,0.62-2.31,1.7C25.8,104.9,26.24,105.32,27.13,105.32z"/>
	<path class="st2" d="M47.52,104.21c0,1.45-0.5,2.55-1.49,3.29c-0.99,0.74-2.41,1.11-4.26,1.11c-1.01,0-1.88-0.05-2.62-0.16
		c-0.74-0.11-1.5-0.31-2.28-0.59v-3.75c0.73,0.32,1.52,0.58,2.39,0.79c0.87,0.21,1.64,0.31,2.32,0.31c1.01,0,1.52-0.23,1.52-0.7
		c0-0.24-0.14-0.45-0.42-0.64c-0.28-0.19-1.11-0.55-2.47-1.1c-1.25-0.51-2.12-1.09-2.61-1.74c-0.5-0.65-0.74-1.48-0.74-2.47
		c0-1.26,0.49-2.24,1.46-2.95c0.97-0.7,2.35-1.05,4.13-1.05c0.89,0,1.73,0.1,2.52,0.29c0.79,0.2,1.6,0.48,2.45,0.86l-1.27,3.02
		c-0.62-0.28-1.28-0.52-1.98-0.71c-0.69-0.2-1.26-0.29-1.7-0.29c-0.77,0-1.15,0.19-1.15,0.56c0,0.23,0.13,0.43,0.4,0.59
		s1.04,0.5,2.32,1c0.95,0.39,1.66,0.77,2.13,1.15c0.47,0.38,0.81,0.82,1.03,1.32C47.41,102.87,47.52,103.49,47.52,104.21z"/>
	<path class="st2" d="M58.66,108.38v-7.4c0-1.82-0.54-2.73-1.62-2.73c-0.77,0-1.33,0.32-1.7,0.96s-0.54,1.71-0.54,3.2v5.97h-4.68
		V89.74h4.68v2.65c0,1.2-0.06,2.56-0.19,4.1h0.22c0.45-0.7,0.98-1.2,1.59-1.49c0.61-0.29,1.33-0.43,2.14-0.43
		c1.52,0,2.7,0.44,3.54,1.31c0.84,0.88,1.26,2.1,1.26,3.67v8.83H58.66z"/>
	<path class="st2" d="M74.84,94.57c1.48,0,2.65,0.62,3.52,1.86c0.87,1.24,1.3,2.95,1.3,5.14c0,2.2-0.44,3.93-1.31,5.18
		s-2.09,1.87-3.65,1.87c-0.5,0-0.95-0.05-1.34-0.16c-0.39-0.11-0.74-0.26-1.05-0.45c-0.31-0.19-0.67-0.51-1.07-0.96h-0.29
		l-0.74,1.33h-3.65V89.74h4.68v4.22c0,0.5-0.06,1.37-0.17,2.6h0.17c0.46-0.7,0.98-1.21,1.58-1.52S74.08,94.57,74.84,94.57z
		 M73.13,98.25c-0.65,0-1.13,0.23-1.44,0.68c-0.3,0.46-0.46,1.17-0.46,2.14v0.66c0,1.11,0.15,1.91,0.46,2.39
		c0.3,0.48,0.8,0.72,1.49,0.72c0.55,0,0.97-0.28,1.27-0.84c0.3-0.56,0.44-1.39,0.44-2.49C74.89,99.34,74.3,98.25,73.13,98.25z"/>
	<path class="st2" d="M95.29,101.57c0,2.22-0.6,3.95-1.79,5.19c-1.19,1.24-2.87,1.86-5.01,1.86c-2.06,0-3.7-0.63-4.92-1.9
		s-1.83-2.99-1.83-5.15c0-2.21,0.6-3.93,1.79-5.16s2.87-1.84,5.03-1.84c1.33,0,2.51,0.28,3.53,0.85c1.02,0.57,1.81,1.38,2.37,2.44
		C95.01,98.92,95.29,100.15,95.29,101.57z M86.5,101.57c0,1.17,0.16,2.05,0.47,2.67c0.31,0.61,0.83,0.92,1.57,0.92
		c0.73,0,1.24-0.31,1.54-0.92c0.3-0.61,0.45-1.5,0.45-2.67c0-1.16-0.15-2.03-0.46-2.62c-0.3-0.59-0.82-0.89-1.56-0.89
		c-0.72,0-1.23,0.29-1.55,0.88S86.5,100.4,86.5,101.57z"/>
	<path class="st2" d="M106.81,108.38l-0.9-1.8h-0.1c-0.63,0.78-1.27,1.32-1.93,1.61c-0.66,0.29-1.5,0.43-2.54,0.43
		c-1.28,0-2.28-0.38-3.02-1.15s-1.1-1.84-1.1-3.23c0-1.45,0.5-2.52,1.51-3.23c1.01-0.71,2.46-1.1,4.37-1.19l2.26-0.07v-0.19
		c0-1.12-0.55-1.68-1.65-1.68c-0.99,0-2.25,0.34-3.77,1.01l-1.35-3.09c1.58-0.81,3.58-1.22,5.99-1.22c1.74,0,3.09,0.43,4.04,1.29
		s1.43,2.07,1.43,3.62v8.9H106.81z M103.34,105.32c0.57,0,1.05-0.18,1.46-0.54c0.4-0.36,0.6-0.83,0.6-1.4v-1.05l-1.08,0.05
		c-1.54,0.06-2.31,0.62-2.31,1.7C102.01,104.9,102.45,105.32,103.34,105.32z"/>
	<path class="st2" d="M121.44,94.57c0.41,0,0.79,0.03,1.16,0.1l0.26,0.05l-0.42,4.42c-0.38-0.1-0.91-0.14-1.59-0.14
		c-1.02,0-1.77,0.23-2.23,0.7c-0.46,0.47-0.69,1.14-0.69,2.02v6.67h-4.68V94.81h3.49l0.73,2.17h0.23c0.39-0.72,0.94-1.3,1.63-1.74
		S120.73,94.57,121.44,94.57z"/>
	<path class="st2" d="M128.97,108.62c-0.97,0-1.81-0.28-2.53-0.83c-0.72-0.55-1.28-1.36-1.68-2.43c-0.4-1.07-0.59-2.32-0.59-3.75
		c0-2.2,0.44-3.93,1.33-5.18c0.89-1.25,2.1-1.87,3.65-1.87c0.76,0,1.42,0.15,1.99,0.46s1.09,0.81,1.56,1.53h0.1
		c-0.15-1.06-0.23-2.12-0.23-3.19v-3.63h4.72v18.64h-3.53l-1.01-1.71h-0.18C131.77,107.97,130.57,108.62,128.97,108.62z
		 M130.89,104.92c0.75,0,1.28-0.24,1.59-0.71c0.31-0.47,0.47-1.2,0.5-2.18v-0.37c0-1.2-0.17-2.05-0.52-2.56s-0.88-0.76-1.62-0.76
		c-0.61,0-1.09,0.29-1.43,0.87c-0.34,0.58-0.51,1.4-0.51,2.47c0,1.05,0.17,1.86,0.52,2.41
		C129.76,104.64,130.25,104.92,130.89,104.92z"/>
</g>
<g>
	<path class="st2" d="M359.21,79.66c0.11,0.58,0.31,2.4,3.05,2.4l-1.1-5.65C358.81,77.21,359.09,79.03,359.21,79.66z"/>
	<path class="st2" d="M366.14,87.43l1.24,6.37c-0.03-0.15,2.29-0.63,2.29-3.44C369.66,89.61,368.99,87.43,366.14,87.43z"/>
	<path class="st2" d="M385.95,81.8c-2.06-11.87-13.36-19.82-25.23-17.75c-9.26,1.61-16.14,8.84-17.73,17.58
		c1.47,0.46,2.61,0.93,3.1,2.37c0.51,1.52-0.31,2.66-0.75,3.28c-0.09,0.13-0.2,0.28-0.32,0.46l-1.73,3.07
		c2.73,11.02,13.55,18.21,24.91,16.23C380.06,104.97,388.01,93.67,385.95,81.8z M373.13,94.53c-1.02,1.74-3.01,3.07-5.13,3.82
		l0.63,3.25l-2.18,0.42l-0.61-3.16c-3.57-0.2-3.92-0.3-5.46-1.34c-1.54-1.04-2.79-2.69-3.6-4.97l4.67-1.43
		c0.38,0.92,1.32,3.55,3.57,3.44l-1.46-7.51c-3.4-0.03-4.34-0.9-5.7-2.05c-1.36-1.14-2.27-2.67-2.65-4.61
		c-0.38-1.96-0.12-3.71,0.85-5.29c0.98-1.57,2.43-2.54,4.54-3.27l-0.5-2.56l2.18-0.43l0.5,2.56c2.23-0.2,3.72,0.19,5.05,1.04
		c1.33,0.85,2.49,2.11,3.15,3.84l-4.5,1.49c-0.55-1.35-0.65-2.33-2.93-2.41l1.36,7c2.33,0.35,5.34,0.81,6.62,1.85
		c1.28,1.03,2.19,2.5,2.57,4.44C374.5,90.84,374.15,92.8,373.13,94.53z"/>
	<path class="st2" d="M339.78,42.96c-10.92,0.52-19.35,9.8-18.82,20.72c0.25,5.25,2.53,9.91,6.04,13.29
		c2.86,0.8,6.65,1.96,13.34,3.99c0.4-2.02,1.04-3.97,1.9-5.81c-2.73-0.21-5.17-1.49-7.13-3.31c-1.57-1.46-2.72-2.41-3.44-6.08
		l-2.54,0.17l0.43-1.89l1.68-0.12c-0.07-0.92-0.04-0.36-0.06-0.66c-0.04-0.53-0.07-1.18-0.05-1.19l-2.25,0.15l0.43-1.89l2.05-0.14
		c0.23-3.73,1.12-4.86,2.45-6.49c2.01-2.46,4.76-4.1,8.29-4.34c1.93-0.13,3.62-0.04,5.08,0.57l-0.7,4.76
		c-1.04-0.9-2.5-1.33-4.37-1.21c-1.87,0.13-5.5,2.64-5.53,6.36l9.46-0.64l-0.42,1.89l-9.25,0.63c-0.01,0,0.01,0.39,0.04,0.81
		c0.03,0.4,0.02,0.12,0.1,1.04l8.75-0.59l-0.42,1.89l-7.84,0.53c0.54,3.68,4.55,5.32,6.39,5.2c0.62-0.04,1.24-0.12,1.84-0.25
		c3.65-4.61,8.93-7.96,15.17-9.04c0.02,0,0.05,0,0.07-0.01C359.68,50.62,350.54,42.44,339.78,42.96z"/>
	<path class="st2" d="M360.45,61.3c0,0-15.55,1.13-20.12,19.66l-7.81-5.47l-5.84-8.09v-5.45l1.62-9.26l3.28-3.44l4.11-2.4
		l12.67,0.99"/>
	<g>
		<path class="st3" d="M340.17,63.28l5.09,7.78l-2.79,7.14l-15.58-23.8l6.34-4.15c5.26-3.44,9.13-3.26,11.63,0.55
			c1.47,2.24,1.51,4.69,0.12,7.35l11.15,4.74l-5.93,3.88l-8.71-4.35L340.17,63.28z M337.6,59.35l0.98-0.64
			c1.83-1.2,2.21-2.6,1.15-4.21c-0.87-1.33-2.2-1.41-3.99-0.24l-1.03,0.68L337.6,59.35z"/>
	</g>
	<path class="st2" d="M316.29,77.09l-8.51-1.87l3.98,10.92c-9.54,2.7-18.66,5.64-27.97,7.81c-12.52,2.92-25.21,5.06-38.15,3.18
		c-3.6-0.52-7.48-0.87-10.42-5.47c4.87-2.68,7.3,1.57,10.32,1.57c-1.77-6.13-2-12.42-0.94-18.13c-6.44,2.4-11.67,8.04-14.09,14.41
		c-0.24,0.63-0.43,1.26-0.58,1.9c-1.56,6.68-0.42,14.05,4.87,19.59c7.16,7.49,17.04,9.68,26.42,9.24
		c19.52-0.92,38.56-4.74,56.71-12.2c0.71-0.29,1.22-0.39,2.4-0.49v0l4.06,9.63l10.1-16.33l8.18-14.58c1.02-1.57,1.48-1.43-0.94-2.17
		C324.72,78.94,324.71,78.94,316.29,77.09z"/>
	<path class="st1" d="M341.57,94.47l-4.73,7.78l-0.02,0.03l-8.57,13.78l0,0l-4.4,7.09l-5.34-12.38c-1.5,0.61-3.02,1.19-4.54,1.76
		c-0.34,0.13-0.68,0.25-1.03,0.38c-1.54,0.56-3.1,1.11-4.67,1.63c-0.01,0-0.01,0-0.02,0.01c-1.59,0.53-3.21,1.02-4.82,1.5
		c-0.25,0.07-0.5,0.15-0.74,0.22c-1.66,0.48-3.32,0.94-5,1.37l-0.27,0.6l-0.17,0.55c0,0-0.28,0.99-0.36,1
		c-0.07,0.01-0.59-0.13-0.59-0.13l-0.43,0.12l0.64,0.65l0.37,0.94l-0.31,0.64l-0.61,0.5l-0.74-0.12l-0.29,0.03l0.22,0.96l-0.15,0.8
		l-0.75-0.29l-0.02,0.62l0.56,0.57c0,0,0.4,1.29,0.32,1.3c-0.07,0.01-0.32,0.47-0.32,0.47l-0.37,0.83l0.41,0.59l0.57,0.75
		l-0.06,1.07l-0.36,0.03l0.21,0.78c0,0,0.29,0.86,0.28,0.77c-0.01-0.09-0.57,1.02-0.57,1.02s-0.32-0.33-0.25-0.33
		c0.07-0.01,0.02-0.62,0.02-0.62l-0.68-0.3l-0.2,0.28l-0.46-0.23l-0.5-0.84l-0.79-1.7l-0.23-0.16l-0.14-0.87l-0.61-0.3l-0.05-0.62
		l0.43-0.12l0.09-0.63l-0.66-1.81l-0.63-0.65l-0.24-1.13l0.02-0.62l-0.47-0.41l-0.06-1.59l-0.01-0.51c-0.01,0-0.01,0-0.02,0
		c-3.72,0.76-7.49,1.41-11.31,1.94c-0.04,0.01-0.07,0.01-0.11,0.01c-3.82,0.53-7.69,0.93-11.6,1.22c-0.01,0-0.02,0-0.03,0
		c10.69,10.01,25.06,16.14,40.86,16.14c21.94,0,41.11-11.82,51.51-29.43C350.97,107.58,344.51,102,341.57,94.47z"/>
	<path class="st1" d="M352.53,43.64c0.29,0,3.03,2.03,3.3,2.06c-3.45-5.85-8-11.4-12.96-14.85c-9.95-7.38-22.25-11.77-35.59-11.77
		c-33.04,0-59.83,26.79-59.83,59.83c0,5.47,0.75,10.76,2.12,15.79c0.94,0.08,1.9,0.15,2.86,0.19c0.1,0.01,0.2,0.01,0.3,0.02
		c0.99,0.04,1.99,0.07,3,0.07c1.2,0,2.39-0.03,3.58-0.08c0.43-0.02,0.85-0.06,1.28-0.08c0.76-0.05,1.51-0.09,2.26-0.15
		c0.54-0.05,1.07-0.11,1.61-0.17c0.63-0.06,1.25-0.12,1.88-0.2c0.61-0.07,1.21-0.16,1.82-0.25c0.53-0.07,1.07-0.14,1.59-0.22
		c0.68-0.1,1.34-0.22,2.01-0.33c0.43-0.07,0.87-0.14,1.3-0.22c0.75-0.13,1.48-0.27,2.21-0.42c0.33-0.06,0.66-0.13,0.99-0.19
		c0.83-0.17,1.64-0.34,2.45-0.51c0.2-0.04,0.41-0.09,0.61-0.13c0.93-0.2,1.85-0.41,2.75-0.61c0.03-0.01,0.05-0.01,0.08-0.02
		l0.03-0.31l-0.46-1.2l-0.27-0.68l-0.37-0.06l-0.32,0.47c0,0-0.58,0.05-0.59-0.04c-0.01-0.09-0.55-0.49-0.55-0.49l-1.07-0.62
		l-0.27-0.69l-0.74-1.09c0,0-0.1-0.35-0.17-0.34c-0.07,0.01-0.72,0.06-0.72,0.06l-0.48-0.49l-0.79-0.73l-0.56-0.66l-0.85-0.55
		l-0.56,0.22l-0.49,0.31l-0.52-0.13l-0.69-0.48l-0.42,0.21l-0.71-0.65l-0.34-0.59l-0.34-0.59l-0.53-0.22l-0.34-1.47l0.23-0.73
		l-0.3-1.04l-0.29-0.95l-0.54-0.31l-0.21-0.78l-0.53-2.87l0.09-0.71l-0.45-0.14l-0.22,0.9l0.23,1.93l0.3,0.95
		c0,0,0.1,1.23,0.11,1.31c0.01,0.09,0.02,1.15,0.02,1.15l-0.33,0.47L266.87,79l-0.16-1.05l0.17-0.54l-0.06-0.7l-0.47-0.4l-0.05-0.62
		l0.09-0.71l-0.2-1.58l0.35-1l-0.41-0.58l-0.48-0.49l-0.42-1.56l0.29-0.91l-0.35-0.68l0.28-1.08l0.42-1.1l0.09-0.71l1.1-2.56
		l0.7-1.21l0.19-0.28l0.29,0.86l0.34-0.29l-0.13-0.7l0.18-0.46l0.03-0.53l-0.84-0.55l0.17-0.63l0.21-0.11l-0.03-0.35l0.38-0.65
		l-0.12-0.61l0.39-0.56l0.48-0.39l-0.46-0.32l-0.01-1.06l0.3-0.73l-0.55-0.48l-0.51-0.05l-0.4,0.39l-0.33-0.5l-0.54-0.4l-0.52-0.14
		l-0.55-0.48l-0.33-0.42l-0.24,0.64l-0.99,0.35l-0.74,0.68l-0.05-0.61l0.62-0.4l0.74-0.68l-0.45-0.14l-1.05,0.53l-0.85,1.13
		l-1.27,1.34l-1.09,0.88l-1.27,0.46l-0.82,0.69l-0.31-0.24l0.46-0.66l0.51-0.84l0.63-0.32l1.24-0.9l-0.53-0.22l-1.18,0.72
		l-0.18-1.31l0.65-0.94l0.7-1.2l0.87-0.07l0.39-0.56l0.98-0.44l-0.04-0.44l-0.57,0.13l-0.11-0.43l0.54-0.49l0.67-0.67l1.1,0.09
		l0.09-0.63l-0.13-0.7l0.93-0.17l0.74-0.68l0.58-0.05l0.17-0.54l0.93-0.17l0.77-0.42l1.05,0.44l1.18,0.17l0.52,0.14l1.59-0.13
		l0.51-0.04l0.77,0.55l1.24-0.01l0.33-0.47l1.65-0.31l0.48-0.31l0.54,0.4l0.5-0.13l0.97,0.28l1.34,0.33l0.15,0.96l0.93-0.16
		l1.04,0.27l0.39-0.56l1.06,0.44l0.49-0.22l0.59,0.13l0.51-0.04l0.71-0.15l0.25,0.42l0.54-0.57l0.49-0.22l-0.1-0.34l0.47-0.48
		l-0.45-0.23c0,0-0.04-0.46-0.04-0.53c0.01,0.09,0.87-0.86,0.87-0.86l0.59,0.92l-0.4,0.47l0.48,0.49l0.04,0.44l0.56-0.22l0.19,0.6
		l0.56-0.22l0.24-0.55l0.55-0.4l0.56-0.22l0.3,1.04l-0.09,0.71l-0.65,0.05l-0.72,0.94l-0.66-0.12l-0.27,0.29l-1.24-0.08l-0.65,0.05
		l-0.69,0.5l-0.12,0.27l0.93-0.16l0.45,0.14l-0.33,0.47l-0.18,0.46l-1.62,0.66l-0.64,0.23l-0.86,1.04l-0.54,0.49l-0.42,1.09
		l0.33,0.5l-0.01,0.71l0.43-0.03l0.71,0.73l0.94-0.08l0.37,0.94l-0.18,1.34l0.66,1.01l0.56-0.31l0.38-0.74l0.21-0.99l1.07-1.15
		l0.7-0.32l0.18-1.34l0.35-1.09l0.51-0.04l-0.09-1.06l0.85-1.22l0.39,0.32l0.65-0.05l1.1,0.97l-0.05,1.16l0.14,0.78l0.24-0.64
		l0.67-0.76l0.37,1.03l0.26,1.39l-0.1,0.54l0.56,0.57l-0.69,0.5l-0.09,0.63l0.77-0.33l-0.02,0.71l-0.07,0.89l-1.11,0.62l-0.52,0.75
		c0,0-1.65,0.31-1.65,0.22c-0.01-0.09-1.03,0.79-1.03,0.79l-1.14,1.16l0.92-0.26l1.16-0.89l0.81,0.2l0.12,0.61l-0.29,0.91l0.94,0.81
		l0.05,0.61l-0.88-0.1l-0.55-0.49l-0.25-0.42l-0.35,0.12l-1.09,0.88c0,0-0.17,0.63-0.17,0.54c-0.01-0.09-1.19,0.54-1.19,0.54
		l-0.16,0.72l-1.48,0.56l-0.35,1l-0.72,0.94l-0.87,0.87l0.05,0.61l-0.77,1.21c0,0-1.14,0.27-1.13,0.36
		c0.01,0.09-0.56,1.19-0.56,1.19l-1.06,0.44l-0.66,0.85l0.25,1.31l-0.04,1.24l-0.33,1.26l-0.38-0.23l-0.44-0.94l0.18-1.34
		l-0.43-0.76l-0.41,0.3l-0.69-0.47l-1.21,0.28l-0.72,0.06l-0.32,0.56l-0.43,0.12l-0.32-0.41l-0.62,0.41l-0.49,0.22l-0.92,0.34
		l-0.85,2.01l0.07,0.88l-0.53,0.66l0.09,1.94l0.31,2.01l0.77,0.55l0.4-0.39l0.85-0.25l0.3-0.82l0.29-0.91l0.5-0.13l0.25-0.46
		l0.73,0.03l0.06,0.7l-0.14,0.98l-0.11,0.45l-0.52-0.13L277,82.85l-0.22,0.9l0.53,0.22l0.74,0.2l0.78-0.24l0.58-0.05l0.06,0.79
		l-0.07,0.98l-0.16,1.61l0.3,0.95l1.17,0.08l0.94-0.08l0.56,0.66l0.31-0.64l0.57-0.14l0.42-1.09l1.45-0.12l-0.04,0.36l-0.09,0.63
		l0.51,0.05l0.09-0.63c0,0,0.77-0.42,0.69-0.41c-0.07,0,1.1,0.97,1.1,0.97l2.16-0.27l0.35,0.77l0.61,0.39l0.31,0.51
		c0,0,0.01,0,0.01,0c3.8-1.04,7.62-2.15,11.56-3.31c1.48-0.44,2.96-0.87,4.45-1.3l1.43-0.47l-2.84-7.79l-1.83-5.02l5.37,1.18
		l1.15-1.45l0.04-1.33l0.58-0.93l0.58-0.84l0.07-0.89l0.51-0.04l0.46,0.23l0.57-0.13l0.5-0.13l1.13-0.44l0.53-0.66l0.96,0.19
		l1.12-0.54l0.74,0.2l0.76-0.14c-0.09-0.63-0.15-1.27-0.18-1.91c-0.02-0.36-0.03-0.72-0.03-1.08c0-0.36,0.01-0.71,0.02-1.07
		l-0.31-0.51l-0.44-0.05l-0.75,0.59l-0.64,0.23l-0.79,0.07l-0.08,0.8l-0.28,0.2l-0.56,0.31l-0.48,1.19l0.27,0.6l-0.53,0.57
		l-0.69,0.5l-0.88-0.11l-0.32,0.56l-0.51,0.04l-0.45-0.23l-0.67-0.21l-0.06-0.79l-0.11-0.52l0.26-0.37l0.16-0.72l0.14-0.98l-0.4-0.5
		l0.38-0.65l1.24-0.02l0.97,0.27l0.71-0.23l0.03-1.42l-0.12-0.61l-0.06-0.7l-0.75-0.29l-0.46-0.32l0.25-0.46l0.8,0.02l0.43-0.12
		c0,0-0.17-0.32-0.23-0.41c0.05,0,0.19-0.12,0.19-0.12l0.41,0.14l0.48-0.39l0.04-0.36l0.64-0.58l0.56-0.31l0.17-0.55l0.26-0.37
		l0.62-0.41l0.62-0.4l0.17-0.54l-0.19-0.51l0.02-0.62l0.41-0.3l0.14,0.87l0.27,0.6l0.6,0.22l0.64-0.23l0.4,0.41l0.43-0.36
		c0.33-0.74,0.71-1.47,1.12-2.18l0,0c0.42-0.71,0.87-1.39,1.37-2.06c-0.17-0.02-0.32-0.04-0.32-0.04l-0.49-0.67l-0.14-0.78
		l0.29-0.91l0.75-0.59l-0.34-0.59l-0.76-0.47l-0.45,0.74l0.04,0.53l-0.4,0.47l-0.79,0.95l0.14,0.78l0.49,0.66l-0.01,0.71l-0.58,0.93
		l0.01,1.06l-0.64,0.14l-0.17,0.54l-0.48,0.31l-0.26-0.51l-0.24-1.22l-0.34-0.59l0-0.89l-0.72,0.06l-0.62,1.29l-0.58-0.04
		l-0.21-0.78l-0.09-1.14l0.04-1.24l0.47-0.48l0.64-0.23l0.95-1.76l0.25-0.55l1.23-1.87l0.68-0.59c0,0,0.85-0.24,0.86-0.16
		c0.01,0.09,0.63-0.32,0.63-0.32l0.52-0.75l1.75,0.03l0.35,0.68l0.61,0.3l1.57,0.49l1.12,0.35l0.53,0.22l0.01,0.82c0,0,0,0,0,0
		c3.4-2.35,7.4-3.72,11.64-3.93c0.36-0.02,0.73-0.03,1.09-0.03C345.04,40.21,349.09,41.47,352.53,43.64
		C353.21,43.25,352.53,43.64,352.53,43.64z M312.91,34.45l-1.14,1.24l-0.12,2.04l-0.56,2.08l0.12,0.61l-0.34,0.29l-0.46-0.32
		l-1.24-0.08l0.05,0.62l0.47,0.4l-0.01,0.71l-0.39-0.32l-0.6-0.21l-0.51,0.93l0.81,0.11l0.73,0.03l-0.23,0.72l-1.06,0.35l-1.35,0.38
		l-0.53,0.66l-1.16,0.98l-0.59-0.12l-0.39,0.56l-0.69,0.41l-0.95,0.78l0.04,0.53L301.1,50l-0.84-0.55l-0.38-0.15l-0.62-1.36
		l0.14-0.98l-0.01-0.97l0.85-1.22l0.32-0.55l-0.2-0.69l-0.53-0.22l-0.04-0.53l0.51-1.81l-0.74-1.97l-0.38-0.14l-0.55-0.49
		l-0.42,0.21l-0.47,0.48L297,38.23l-0.33-1.39l0.56-0.31c0,0,0.67,0.21,0.6,0.21c-0.07,0.01,0.77-0.33,0.77-0.33l0.14-0.98
		l0.93-0.17l0.86-1.04l0.51,0.05l0.53-0.66l1.16-0.01l0.44,0.94l0.25-0.55l0.75,0.29l0.4-0.47l0.5,0.75l0.32,0.33l0.27-0.28
		l-0.21-0.78l0.34-0.29l0.61,0.39l0.08-0.8l0.43-0.04l0.54-0.49l2.47-0.02l0.78,0.64l0.92-0.25l0.25,0.33l-0.63,0.32l-0.27,0.2
		c0,0-0.99,0.34-1,0.26c-0.01-0.09-0.2,0.28-0.2,0.28l1.24,0.08l0.56-0.22l0.41-0.3l0.38,0.15l0.48-0.39l0.95,0.01l0.05,0.62
		L312.91,34.45z"/>
</g>
</svg>
