<?xml version="1.0" encoding="utf-8"?>
<!-- Generator: Adobe Illustrator 25.2.3, SVG Export Plug-In . SVG Version: 6.00 Build 0)  -->
<svg version="1.1" id="Layer_1" xmlns="http://www.w3.org/2000/svg" xmlns:xlink="http://www.w3.org/1999/xlink" x="0px" y="0px"
	 viewBox="0 0 408.3 155.8" style="enable-background:new 0 0 408.3 155.8;" xml:space="preserve">
<style type="text/css">
	.st0{fill:#666666;}
	.st1{fill:#3F98AC;}
	.st2{fill:#213463;}
	.st3{fill:#FFFFFF;}
</style>
<path class="st0" d="M17,36.2h-4.7v-1.5h11.3v1.5H19v12.5h-2L17,36.2z"/>
<path class="st0" d="M25.1,33.9h2v6.3l0,0c0.4-0.5,0.9-1,1.4-1.3c0.6-0.3,1.3-0.5,2-0.5c1.5,0,3.8,0.8,3.8,4.3v6h-2v-5.8
	c0-1.6-0.7-3-2.5-3c-1.2,0-2.2,0.7-2.7,1.8c-0.1,0.3-0.2,0.6-0.1,0.9v6.1h-2L25.1,33.9z"/>
<path class="st0" d="M40,35.8c-0.1,0.7-0.7,1.2-1.4,1.1c-0.6,0-1.1-0.5-1.1-1.1c0-0.7,0.5-1.2,1.2-1.2c0,0,0,0,0.1,0
	c0.6,0,1.2,0.4,1.2,1C40,35.7,40,35.7,40,35.8z M37.7,48.6v-10h2v10L37.7,48.6L37.7,48.6z"/>
<path class="st0" d="M42.8,46.8c0.8,0.5,1.7,0.7,2.6,0.7c1.5,0,2.1-0.7,2.1-1.5s-0.6-1.4-2-1.8c-2-0.7-3-1.6-3-2.8
	c0-1.6,1.4-3,3.8-3c0.9,0,1.9,0.2,2.7,0.6l-0.5,1.3c-0.7-0.4-1.5-0.6-2.2-0.6c-1.2,0-1.8,0.6-1.8,1.4s0.7,1.2,2.1,1.7
	c2,0.7,3,1.5,3,3c0,1.8-1.5,3-4.1,3c-1.1,0-2.1-0.2-3.1-0.7L42.8,46.8z"/>
<path class="st0" d="M56.9,41.3c0-1,0-1.9-0.1-2.7h1.8l0.1,1.6h0.1c0.7-1.2,2.1-1.9,3.5-1.8c1.4,0,2.6,0.8,3.1,2h0
	c0.3-0.5,0.7-0.9,1.2-1.3c0.7-0.5,1.6-0.8,2.4-0.7c1.5,0,3.6,0.9,3.6,4.3v5.9h-2V43c0-2-0.8-3.1-2.4-3.1c-1,0-2,0.7-2.4,1.7
	c-0.1,0.3-0.2,0.6-0.2,0.9v6.2h-2v-6c0-1.6-0.8-2.8-2.3-2.8c-1.1,0-2.1,0.8-2.5,1.8c-0.1,0.3-0.2,0.6-0.2,0.9v6.1h-2L56.9,41.3
	L56.9,41.3L56.9,41.3z"/>
<path class="st0" d="M85.8,43.5c0,3.7-2.8,5.3-5.5,5.3c-2.8,0.2-5.1-2-5.3-4.7c0-0.2,0-0.3,0-0.5c-0.1-2.8,2.1-5.2,4.9-5.3
	c0.2,0,0.4,0,0.6,0c2.7-0.2,5.1,1.9,5.3,4.6C85.8,43.2,85.8,43.4,85.8,43.5z M77.1,43.6c0,2.2,1.4,3.9,3.3,3.9s3.3-1.6,3.3-3.9
	c0-1.7-1-3.8-3.3-3.8C78.2,39.7,77.1,41.7,77.1,43.6L77.1,43.6z"/>
<path class="st0" d="M88.3,41.3c0-1,0-1.9-0.1-2.7H90l0.1,1.7l0,0c0.8-1.2,2.2-2,3.7-1.9c1.5,0,3.9,0.8,3.9,4.3v6h-2v-5.8
	c0-1.6-0.7-3-2.5-3c-1.2,0-2.3,0.7-2.7,1.9c-0.1,0.3-0.1,0.6-0.1,0.8v6h-2L88.3,41.3z"/>
<path class="st0" d="M103.2,35.7v2.9h2.9V40h-2.9v5.4c0,1.2,0.4,2,1.5,2c0.4,0,0.8,0,1.2-0.1l0.1,1.4c-0.6,0.2-1.2,0.3-1.8,0.3
	c-0.8,0-1.6-0.2-2.2-0.8c-0.6-0.7-0.9-1.7-0.8-2.6V40h-1.7v-1.4h1.7v-2.4L103.2,35.7z"/>
<path class="st0" d="M108.4,33.9h2v6.3l0,0c0.3-0.5,0.8-1,1.4-1.3c0.6-0.3,1.3-0.5,2-0.5c1.5,0,3.8,0.8,3.8,4.3v6h-2v-5.8
	c0-1.6-0.7-3-2.5-3c-1.2,0-2.2,0.7-2.7,1.8c-0.1,0.3-0.2,0.6-0.2,0.9v6.1h-2L108.4,33.9z"/>
<path class="st0" d="M120.7,46.8c0.8,0.5,1.7,0.7,2.6,0.7c1.4,0,2.1-0.7,2.1-1.5s-0.6-1.4-2-1.8c-2-0.7-2.9-1.6-2.9-2.8
	c0-1.6,1.4-3,3.8-3c0.9,0,1.9,0.2,2.7,0.6l-0.5,1.3c-0.7-0.4-1.5-0.6-2.2-0.6c-1.2,0-1.8,0.6-1.8,1.4s0.7,1.2,2.1,1.7
	c1.9,0.7,2.9,1.5,2.9,3c0,1.8-1.5,3-4.1,3c-1.1,0-2.1-0.2-3.1-0.7L120.7,46.8z"/>
<path class="st0" d="M142.6,48.3c-1,0.4-2.1,0.6-3.2,0.6c-3.3,0-5.5-2-5.5-5.1s2.3-5.3,5.9-5.3c0.9,0,1.9,0.2,2.8,0.5l-0.5,1.4
	c-0.7-0.3-1.5-0.5-2.3-0.5c-2.1-0.1-3.9,1.5-4,3.5c-0.1,2.1,1.5,3.9,3.6,4c0.1,0,0.2,0,0.4,0c0.8,0,1.7-0.2,2.5-0.5L142.6,48.3z"/>
<path class="st0" d="M151.1,48.6l-0.2-1.3h-0.1c-0.8,1-2.1,1.5-3.4,1.5c-2.2,0-3.4-1.4-3.4-2.9c0-2.4,2.4-3.8,6.6-3.7v-0.2
	c0-0.8-0.2-2.3-2.5-2.3c-1,0-2,0.3-2.9,0.8l-0.5-1.2c1.1-0.6,2.4-0.9,3.6-0.9c3.4,0,4.2,2.1,4.2,4.1v3.8c0,0.8,0.1,1.6,0.2,2.4
	L151.1,48.6z M150.8,43.5c-2.2,0-4.7,0.3-4.7,2.3c0,0.9,0.7,1.7,1.6,1.8c0.1,0,0.2,0,0.2,0c1.1,0,2.2-0.6,2.7-1.7
	c0.1-0.2,0.1-0.4,0.1-0.6V43.5z"/>
<path class="st0" d="M155.9,41.3c0-1,0-1.9-0.1-2.7h1.8l0.1,1.6h0.1c0.7-1.2,2.1-1.9,3.4-1.8c1.4,0,2.6,0.8,3.1,2l0,0
	c0.3-0.5,0.8-0.9,1.3-1.3c0.7-0.5,1.6-0.7,2.4-0.7c1.4,0,3.6,0.9,3.6,4.3v5.9h-2V43c0-2-0.8-3.1-2.4-3.1c-1.1,0-2,0.7-2.4,1.7
	c-0.1,0.3-0.2,0.6-0.2,0.9v6.2h-2v-6c0-1.6-0.8-2.8-2.3-2.8c-1.1,0-2.1,0.8-2.5,1.8c-0.1,0.3-0.2,0.6-0.2,0.9v6.1h-2L155.9,41.3
	L155.9,41.3L155.9,41.3z"/>
<path class="st0" d="M174.9,41.9c0-1.3,0-2.3-0.1-3.3h1.8l0.1,1.7l0,0c0.9-1.3,2.4-2,3.9-2c2.7,0,4.7,2,4.7,5.1c0,3.6-2.4,5.4-5,5.4
	c-1.3,0.1-2.6-0.5-3.4-1.6h-0.1v5.5h-2L174.9,41.9L174.9,41.9z M176.8,44.6c0,0.2,0,0.5,0.1,0.8c0.4,1.3,1.6,2.2,3,2.1
	c2.1,0,3.4-1.6,3.4-3.9c0-2-1.2-3.7-3.3-3.7c-1.4,0-2.6,0.9-3,2.3c-0.1,0.2-0.1,0.5-0.1,0.8V44.6z"/>
<path class="st0" d="M193.9,48.6l-0.2-1.3h-0.1c-0.8,1-2.1,1.5-3.4,1.5c-2.2,0-3.4-1.4-3.4-2.9c0-2.4,2.4-3.8,6.6-3.7v-0.2
	c0-0.8-0.2-2.3-2.5-2.3c-1,0-2,0.3-2.9,0.8l-0.5-1.2c1.1-0.6,2.4-0.9,3.6-0.9c3.4,0,4.2,2.1,4.2,4.1v3.8c0,0.8,0.1,1.6,0.2,2.4
	L193.9,48.6z M193.6,43.5c-2.2,0-4.7,0.3-4.7,2.3c0,0.9,0.7,1.7,1.6,1.8c0.1,0,0.2,0,0.2,0c1.1,0,2.2-0.6,2.7-1.7
	c0.1-0.2,0.1-0.4,0.1-0.6V43.5z"/>
<path class="st0" d="M201,35.8c-0.1,0.7-0.7,1.2-1.4,1.1c-0.6-0.1-1-0.5-1.1-1.1c0-0.7,0.5-1.2,1.2-1.2c0,0,0.1,0,0.1,0
	C200.4,34.6,200.9,35.1,201,35.8C201,35.7,201,35.8,201,35.8z M198.8,48.6v-10h2v10L198.8,48.6L198.8,48.6z"/>
<path class="st0" d="M213.5,38.6c0,0.7-0.1,1.5-0.1,2.8v5.8c0,2.3-0.5,3.7-1.6,4.6c-1.1,0.8-2.6,1.3-4,1.2c-1.3,0-2.5-0.3-3.7-0.8
	l0.5-1.4c1,0.5,2.1,0.8,3.2,0.8c2,0,3.5-1,3.5-3.5v-1.1l0,0c-0.8,1.1-2.1,1.8-3.5,1.7c-2.6,0-4.7-2-4.7-4.6c0-0.1,0-0.2,0-0.3
	c-0.2-2.8,1.9-5.2,4.7-5.3c0.1,0,0.2,0,0.3,0c1.4-0.1,2.7,0.6,3.4,1.8l0,0l0.1-1.5L213.5,38.6L213.5,38.6z M211.5,42.5
	c0-0.3,0-0.6-0.1-0.8c-0.4-1.2-1.5-2-2.8-2c-1.9,0-3.3,1.5-3.3,3.8c0,2,1.1,3.6,3.2,3.6c1.2,0,2.3-0.7,2.8-1.9
	c0.1-0.3,0.2-0.7,0.2-1L211.5,42.5L211.5,42.5z"/>
<path class="st0" d="M216.6,41.3c0-1,0-1.9-0.1-2.7h1.8l0.1,1.7l0,0c0.8-1.2,2.2-2,3.6-1.9c1.5,0,3.9,0.8,3.9,4.3v6h-2v-5.8
	c0-1.6-0.7-3-2.5-3c-1.2,0-2.3,0.7-2.7,1.9c-0.1,0.3-0.1,0.6-0.1,0.8v6h-2L216.6,41.3L216.6,41.3L216.6,41.3z"/>
<g>
	<g>
		<path class="st1" d="M32.1,84.6h-5.6l-3.7-7.1l-1.5,0.9v6.2h-5V66.1h5v8c0.3-0.5,0.8-1.3,1.5-2.4l3.9-5.7h5.5l-5.8,8.3L32.1,84.6z
			"/>
		<path class="st1" d="M42.8,84.6v-7.8c0-1-0.1-1.7-0.4-2.2c-0.3-0.5-0.7-0.7-1.3-0.7c-0.8,0-1.4,0.3-1.8,1
			c-0.4,0.7-0.6,1.8-0.6,3.4v6.3h-4.9V70.3h3.7l0.6,1.8h0.3c0.4-0.7,1-1.2,1.8-1.5c0.7-0.3,1.6-0.5,2.6-0.5c1.6,0,2.8,0.5,3.7,1.4
			c0.9,0.9,1.3,2.2,1.3,3.9v9.3H42.8z"/>
		<path class="st1" d="M64.8,77.4c0,2.3-0.6,4.2-1.9,5.5s-3,2-5.3,2c-2.2,0-3.9-0.7-5.2-2c-1.3-1.3-1.9-3.2-1.9-5.4
			c0-2.3,0.6-4.1,1.9-5.4c1.3-1.3,3-1.9,5.3-1.9c1.4,0,2.6,0.3,3.7,0.9s1.9,1.5,2.5,2.6C64.5,74.6,64.8,75.9,64.8,77.4z M55.5,77.4
			c0,1.2,0.2,2.2,0.5,2.8s0.9,1,1.7,1c0.8,0,1.3-0.3,1.6-1c0.3-0.6,0.5-1.6,0.5-2.8c0-1.2-0.2-2.1-0.5-2.8c-0.3-0.6-0.9-0.9-1.6-0.9
			c-0.8,0-1.3,0.3-1.6,0.9C55.7,75.2,55.5,76.2,55.5,77.4z"/>
		<path class="st1" d="M80,84.6l-1.6-6.8L78,75.7L77.7,74h-0.1c-0.4,2.4-0.7,3.8-0.8,4.5l-1.5,6.1h-5.2l-3.9-14.3h4.9l1.2,5.5
			c0.4,1.9,0.6,3.5,0.6,4.7H73c0-0.8,0.3-2.2,0.7-4.4l1.3-5.8h5.5l1.2,5.9c0.4,1.9,0.6,3.3,0.7,4.3h0.1c0.1-0.6,0.1-1.4,0.3-2.4
			c0.1-1,0.2-1.7,0.4-2.3l1.3-5.5h4.8l-3.9,14.3H80z"/>
		<path class="st1" d="M96.1,84.6h-4.9V64.9h4.9V84.6z"/>
		<path class="st1" d="M106.5,84.8c-2.4,0-4.2-0.6-5.6-1.9s-2-3.1-2-5.4c0-2.4,0.6-4.3,1.8-5.6c1.2-1.3,3-1.9,5.2-1.9
			c2.2,0,3.8,0.6,5,1.7c1.2,1.1,1.8,2.7,1.8,4.9v2.2h-8.8c0,0.8,0.3,1.4,0.9,1.9s1.3,0.7,2.3,0.7c0.9,0,1.7-0.1,2.4-0.2
			c0.7-0.2,1.5-0.4,2.4-0.8v3.6c-0.8,0.4-1.6,0.7-2.4,0.8S107.6,84.8,106.5,84.8z M106.2,73.4c-0.6,0-1.1,0.2-1.5,0.5
			c-0.4,0.4-0.6,0.9-0.7,1.7h4.2c0-0.7-0.2-1.2-0.6-1.7S106.8,73.4,106.2,73.4z"/>
		<path class="st1" d="M120,84.8c-1,0-1.9-0.3-2.7-0.9c-0.8-0.6-1.4-1.4-1.8-2.6c-0.4-1.1-0.6-2.4-0.6-4c0-2.3,0.5-4.1,1.4-5.5
			c0.9-1.3,2.2-2,3.9-2c0.8,0,1.5,0.2,2.1,0.5c0.6,0.3,1.2,0.9,1.6,1.6h0.1c-0.2-1.1-0.2-2.2-0.2-3.4v-3.8h5v19.7h-3.7l-1.1-1.8
			h-0.2C123,84.2,121.7,84.8,120,84.8z M122,80.9c0.8,0,1.4-0.2,1.7-0.7c0.3-0.5,0.5-1.3,0.5-2.3v-0.4c0-1.3-0.2-2.2-0.5-2.7
			S122.8,74,122,74c-0.6,0-1.2,0.3-1.5,0.9c-0.4,0.6-0.5,1.5-0.5,2.6c0,1.1,0.2,2,0.5,2.5C120.8,80.6,121.4,80.9,122,80.9z"/>
		<path class="st1" d="M145.7,70.3v2.4l-2,0.7c0.3,0.5,0.4,1.1,0.4,1.7c0,1.5-0.5,2.7-1.6,3.6c-1.1,0.9-2.7,1.3-4.8,1.3
			c-0.5,0-1,0-1.3-0.1c-0.1,0.2-0.2,0.4-0.2,0.6c0,0.2,0.2,0.4,0.6,0.6c0.4,0.1,0.9,0.2,1.6,0.2h2.4c3.2,0,4.8,1.4,4.8,4.1
			c0,1.7-0.7,3.1-2.2,4.1c-1.5,1-3.6,1.5-6.3,1.5c-2,0-3.6-0.3-4.7-1c-1.1-0.7-1.6-1.7-1.6-2.9c0-1.7,1.1-2.8,3.2-3.3
			c-0.4-0.2-0.8-0.5-1.1-0.9s-0.5-0.8-0.5-1.2c0-0.4,0.1-0.8,0.4-1.2c0.2-0.3,0.8-0.7,1.5-1.2c-0.7-0.3-1.3-0.8-1.8-1.5
			c-0.4-0.7-0.6-1.6-0.6-2.6c0-1.6,0.5-2.8,1.6-3.6c1.1-0.9,2.6-1.3,4.6-1.3c0.3,0,0.7,0,1.4,0.1c0.6,0.1,1.1,0.1,1.4,0.2H145.7z
			 M134.9,86.4c0,0.4,0.2,0.7,0.7,1c0.4,0.2,1,0.4,1.8,0.4c1.2,0,2.2-0.1,2.9-0.4c0.7-0.3,1.1-0.7,1.1-1.2c0-0.4-0.2-0.6-0.7-0.8
			s-1.1-0.2-1.9-0.2h-1.9c-0.5,0-1,0.1-1.3,0.4C135.1,85.7,134.9,86,134.9,86.4z M136.5,75c0,1.5,0.5,2.2,1.5,2.2
			c0.5,0,0.8-0.2,1.1-0.5s0.4-0.9,0.4-1.6c0-1.5-0.5-2.2-1.5-2.2C137,72.8,136.5,73.5,136.5,75z"/>
		<path class="st1" d="M154.8,84.8c-2.4,0-4.2-0.6-5.6-1.9s-2-3.1-2-5.4c0-2.4,0.6-4.3,1.8-5.6c1.2-1.3,3-1.9,5.2-1.9
			c2.2,0,3.8,0.6,5,1.7c1.2,1.1,1.8,2.7,1.8,4.9v2.2h-8.8c0,0.8,0.3,1.4,0.9,1.9s1.3,0.7,2.3,0.7c0.9,0,1.7-0.1,2.4-0.2
			c0.7-0.2,1.5-0.4,2.4-0.8v3.6c-0.8,0.4-1.6,0.7-2.4,0.8S156,84.8,154.8,84.8z M154.5,73.4c-0.6,0-1.1,0.2-1.5,0.5
			c-0.4,0.4-0.6,0.9-0.7,1.7h4.2c0-0.7-0.2-1.2-0.6-1.7S155.1,73.4,154.5,73.4z"/>
		<path class="st1" d="M179.6,84.6v-7.8c0-1.9-0.6-2.9-1.7-2.9c-0.8,0-1.4,0.3-1.8,1c-0.4,0.7-0.6,1.8-0.6,3.4v6.3h-4.9V64.9h4.9
			v2.8c0,1.3-0.1,2.7-0.2,4.3h0.2c0.5-0.7,1-1.3,1.7-1.6c0.6-0.3,1.4-0.5,2.3-0.5c1.6,0,2.8,0.5,3.7,1.4c0.9,0.9,1.3,2.2,1.3,3.9
			v9.3H179.6z"/>
		<path class="st1" d="M198.2,84.6l-0.6-1.8h-0.3c-0.4,0.7-1,1.2-1.7,1.5s-1.6,0.5-2.6,0.5c-1.6,0-2.8-0.5-3.7-1.4
			c-0.9-0.9-1.3-2.2-1.3-3.9v-9.3h4.9v7.8c0,0.9,0.1,1.6,0.4,2.1c0.3,0.5,0.7,0.7,1.3,0.7c0.9,0,1.5-0.3,1.8-1s0.5-1.8,0.5-3.4v-6.3
			h4.9v14.3H198.2z"/>
		<path class="st1" d="M214,70c1.6,0,2.8,0.7,3.7,2c0.9,1.3,1.4,3.1,1.4,5.4c0,2.3-0.5,4.1-1.4,5.5c-0.9,1.3-2.2,2-3.8,2
			c-0.5,0-1-0.1-1.4-0.2c-0.4-0.1-0.8-0.3-1.1-0.5s-0.7-0.5-1.1-1h-0.3l-0.8,1.4h-3.9V64.9h4.9v4.4c0,0.5-0.1,1.4-0.2,2.7h0.2
			c0.5-0.7,1-1.3,1.7-1.6C212.5,70.2,213.2,70,214,70z M212.2,73.9c-0.7,0-1.2,0.2-1.5,0.7c-0.3,0.5-0.5,1.2-0.5,2.3v0.7
			c0,1.2,0.2,2,0.5,2.5c0.3,0.5,0.8,0.8,1.6,0.8c0.6,0,1-0.3,1.3-0.9s0.5-1.5,0.5-2.6C214.1,75,213.5,73.9,212.2,73.9z"/>
		<path class="st2" d="M29.7,108.5c0,2.3-0.6,4.2-1.9,5.5c-1.3,1.3-3,2-5.3,2c-2.2,0-3.9-0.7-5.2-2c-1.3-1.3-1.9-3.2-1.9-5.4
			c0-2.3,0.6-4.1,1.9-5.4c1.3-1.3,3-1.9,5.3-1.9c1.4,0,2.6,0.3,3.7,0.9s1.9,1.5,2.5,2.6C29.4,105.7,29.7,107,29.7,108.5z
			 M20.4,108.5c0,1.2,0.2,2.2,0.5,2.8s0.9,1,1.7,1c0.8,0,1.3-0.3,1.6-1c0.3-0.6,0.5-1.6,0.5-2.8c0-1.2-0.2-2.1-0.5-2.8
			c-0.3-0.6-0.9-0.9-1.6-0.9c-0.8,0-1.3,0.3-1.6,0.9C20.6,106.3,20.4,107.2,20.4,108.5z"/>
		<path class="st2" d="M41.5,115.6v-7.8c0-1-0.1-1.7-0.4-2.2c-0.3-0.5-0.7-0.7-1.3-0.7c-0.8,0-1.4,0.3-1.8,1
			c-0.4,0.7-0.6,1.8-0.6,3.4v6.3h-4.9v-14.3h3.7l0.6,1.8h0.3c0.4-0.7,1-1.2,1.8-1.5s1.6-0.5,2.6-0.5c1.6,0,2.8,0.5,3.7,1.4
			c0.9,0.9,1.3,2.2,1.3,3.9v9.3H41.5z"/>
		<path class="st2" d="M61.9,108.9v6.7h-5V97.2h6.1c5,0,7.5,1.8,7.5,5.5c0,2.1-1,3.8-3.1,5l5.4,8.1H67l-3.9-6.7H61.9z M61.9,105.2
			h0.9c1.7,0,2.6-0.8,2.6-2.3c0-1.3-0.9-1.9-2.6-1.9h-1V105.2z"/>
		<path class="st2" d="M81,115.9c-2.4,0-4.2-0.6-5.6-1.9s-2-3.1-2-5.4c0-2.4,0.6-4.3,1.8-5.6c1.2-1.3,3-1.9,5.2-1.9
			c2.2,0,3.8,0.6,5,1.7s1.8,2.7,1.8,4.9v2.2h-8.8c0,0.8,0.3,1.4,0.9,1.9s1.3,0.7,2.3,0.7c0.9,0,1.7-0.1,2.4-0.2
			c0.7-0.2,1.5-0.4,2.4-0.8v3.6c-0.8,0.4-1.6,0.7-2.4,0.8S82.2,115.9,81,115.9z M80.7,104.4c-0.6,0-1.1,0.2-1.5,0.5
			c-0.4,0.4-0.6,0.9-0.7,1.7h4.2c0-0.7-0.2-1.2-0.6-1.7S81.3,104.4,80.7,104.4z"/>
		<path class="st2" d="M107.7,115.6v-7.8c0-1-0.1-1.7-0.4-2.2c-0.3-0.5-0.7-0.7-1.3-0.7c-0.8,0-1.3,0.3-1.7,1
			c-0.4,0.6-0.5,1.7-0.5,3v6.7h-5v-7.8c0-1-0.1-1.7-0.4-2.2c-0.3-0.5-0.7-0.7-1.2-0.7c-0.8,0-1.3,0.3-1.7,1
			c-0.4,0.7-0.5,1.8-0.5,3.4v6.3h-4.9v-14.3h3.7l0.6,1.8h0.3c0.4-0.7,0.9-1.2,1.6-1.5c0.7-0.3,1.5-0.5,2.5-0.5
			c2.1,0,3.5,0.6,4.3,1.9h0.4c0.4-0.6,1-1.1,1.7-1.4c0.7-0.3,1.5-0.5,2.4-0.5c1.7,0,2.9,0.4,3.8,1.3c0.8,0.9,1.2,2.2,1.2,4v9.3
			H107.7z"/>
		<path class="st2" d="M115.9,97.8c0-0.7,0.2-1.3,0.6-1.7c0.4-0.4,1.1-0.5,2-0.5s1.6,0.2,2,0.6c0.4,0.4,0.6,0.9,0.6,1.6
			c0,1.4-0.9,2.2-2.6,2.2C116.8,99.9,115.9,99.2,115.9,97.8z M120.9,115.6H116v-14.3h4.9V115.6z"/>
		<path class="st2" d="M131.4,112c0.7,0,1.5-0.2,2.4-0.5v3.6c-0.7,0.3-1.3,0.5-1.9,0.6c-0.6,0.1-1.3,0.2-2.1,0.2
			c-1.7,0-2.9-0.4-3.6-1.2c-0.7-0.8-1.1-2.1-1.1-3.7V105h-1.7v-2l2.2-1.6l1.3-3h3.2v2.9h3.5v3.7h-3.5v5.6
			C130.1,111.5,130.5,112,131.4,112z"/>
		<path class="st2" d="M143.3,112c0.7,0,1.5-0.2,2.4-0.5v3.6c-0.7,0.3-1.3,0.5-1.9,0.6c-0.6,0.1-1.3,0.2-2.1,0.2
			c-1.7,0-2.9-0.4-3.6-1.2c-0.7-0.8-1.1-2.1-1.1-3.7V105h-1.7v-2l2.2-1.6l1.3-3h3.2v2.9h3.5v3.7H142v5.6
			C142,111.5,142.4,112,143.3,112z"/>
		<path class="st2" d="M157.6,115.6l-0.9-1.9h-0.1c-0.7,0.8-1.3,1.4-2,1.7s-1.6,0.5-2.7,0.5c-1.3,0-2.4-0.4-3.2-1.2
			c-0.8-0.8-1.2-1.9-1.2-3.4c0-1.5,0.5-2.7,1.6-3.4c1.1-0.7,2.6-1.2,4.6-1.3l2.4-0.1v-0.2c0-1.2-0.6-1.8-1.7-1.8c-1,0-2.4,0.4-4,1.1
			l-1.4-3.3c1.7-0.9,3.8-1.3,6.3-1.3c1.8,0,3.3,0.5,4.3,1.4c1,0.9,1.5,2.2,1.5,3.8v9.4H157.6z M153.9,112.4c0.6,0,1.1-0.2,1.5-0.6
			c0.4-0.4,0.6-0.9,0.6-1.5v-1.1l-1.1,0.1c-1.6,0.1-2.4,0.7-2.4,1.8C152.5,112,152.9,112.4,153.9,112.4z"/>
		<path class="st2" d="M173.4,115.6v-7.8c0-1-0.1-1.7-0.4-2.2c-0.3-0.5-0.7-0.7-1.3-0.7c-0.8,0-1.4,0.3-1.8,1
			c-0.4,0.7-0.6,1.8-0.6,3.4v6.3h-4.9v-14.3h3.7l0.6,1.8h0.3c0.4-0.7,1-1.2,1.8-1.5s1.6-0.5,2.6-0.5c1.6,0,2.8,0.5,3.7,1.4
			c0.9,0.9,1.3,2.2,1.3,3.9v9.3H173.4z"/>
		<path class="st2" d="M188.2,115.9c-2.3,0-4.1-0.6-5.3-1.9c-1.2-1.3-1.8-3.1-1.8-5.4c0-2.4,0.7-4.2,2-5.5c1.3-1.3,3.2-2,5.6-2
			c1.7,0,3.2,0.4,4.7,1.1l-1.5,3.7c-0.6-0.3-1.2-0.5-1.7-0.6c-0.5-0.2-1-0.2-1.6-0.2c-0.8,0-1.4,0.3-1.9,0.9
			c-0.4,0.6-0.7,1.5-0.7,2.6c0,2.3,0.8,3.4,2.5,3.4c1.4,0,2.8-0.4,4.2-1.3v3.9C191.5,115.5,190,115.9,188.2,115.9z"/>
		<path class="st2" d="M202.5,115.9c-2.4,0-4.2-0.6-5.6-1.9s-2-3.1-2-5.4c0-2.4,0.6-4.3,1.8-5.6c1.2-1.3,3-1.9,5.2-1.9
			c2.2,0,3.8,0.6,5,1.7c1.2,1.1,1.8,2.7,1.8,4.9v2.2H200c0,0.8,0.3,1.4,0.9,1.9s1.3,0.7,2.3,0.7c0.9,0,1.7-0.1,2.4-0.2
			c0.7-0.2,1.5-0.4,2.4-0.8v3.6c-0.8,0.4-1.6,0.7-2.4,0.8C204.7,115.8,203.7,115.9,202.5,115.9z M202.3,104.4
			c-0.6,0-1.1,0.2-1.5,0.5c-0.4,0.4-0.6,0.9-0.7,1.7h4.2c0-0.7-0.2-1.2-0.6-1.7S202.9,104.4,202.3,104.4z"/>
		<path class="st2" d="M222.7,111.2c0,1.5-0.5,2.7-1.6,3.5c-1,0.8-2.5,1.2-4.5,1.2c-1.1,0-2-0.1-2.8-0.2c-0.8-0.1-1.6-0.3-2.4-0.6
			v-4c0.8,0.3,1.6,0.6,2.5,0.8c0.9,0.2,1.7,0.3,2.4,0.3c1.1,0,1.6-0.2,1.6-0.7c0-0.3-0.2-0.5-0.4-0.7s-1.2-0.6-2.6-1.2
			c-1.3-0.5-2.2-1.2-2.8-1.8c-0.5-0.7-0.8-1.6-0.8-2.6c0-1.3,0.5-2.4,1.5-3.1c1-0.7,2.5-1.1,4.4-1.1c0.9,0,1.8,0.1,2.7,0.3
			c0.8,0.2,1.7,0.5,2.6,0.9l-1.3,3.2c-0.7-0.3-1.4-0.5-2.1-0.8s-1.3-0.3-1.8-0.3c-0.8,0-1.2,0.2-1.2,0.6c0,0.2,0.1,0.5,0.4,0.6
			c0.3,0.2,1.1,0.5,2.4,1.1c1,0.4,1.8,0.8,2.2,1.2c0.5,0.4,0.9,0.9,1.1,1.4S222.7,110.5,222.7,111.2z"/>
	</g>
</g>
<g>
	<path class="st2" d="M366.9,78.7c0.1,0.6,0.3,2.4,3,2.4l-1.1-5.7C366.5,76.2,366.8,78.1,366.9,78.7z"/>
	<path class="st2" d="M373.8,86.5l1.2,6.4c0-0.2,2.3-0.6,2.3-3.4C377.3,88.6,376.7,86.5,373.8,86.5z"/>
	<path class="st2" d="M393.6,80.8C391.6,69,380.3,61,368.4,63.1c-9.3,1.6-16.1,8.8-17.7,17.6c1.5,0.5,2.6,0.9,3.1,2.4
		c0.5,1.5-0.3,2.7-0.8,3.3c-0.1,0.1-0.2,0.3-0.3,0.5l-1.7,3.1c2.7,11,13.5,18.2,24.9,16.2C387.7,104,395.7,92.7,393.6,80.8z
		 M380.8,93.6c-1,1.7-3,3.1-5.1,3.8l0.6,3.2l-2.2,0.4l-0.6-3.2c-3.6-0.2-3.9-0.3-5.5-1.3c-1.5-1-2.8-2.7-3.6-5l4.7-1.4
		c0.4,0.9,1.3,3.6,3.6,3.4l-1.5-7.5c-3.4,0-4.3-0.9-5.7-2.1c-1.4-1.1-2.3-2.7-2.6-4.6c-0.4-2-0.1-3.7,0.9-5.3c1-1.6,2.4-2.5,4.5-3.3
		l-0.5-2.6l2.2-0.4l0.5,2.6c2.2-0.2,3.7,0.2,5,1s2.5,2.1,3.1,3.8l-4.5,1.5c-0.5-1.3-0.6-2.3-2.9-2.4l1.4,7c2.3,0.3,5.3,0.8,6.6,1.8
		c1.3,1,2.2,2.5,2.6,4.4C382.2,89.9,381.8,91.8,380.8,93.6z"/>
	<path class="st2" d="M347.5,42c-10.9,0.5-19.4,9.8-18.8,20.7c0.2,5.2,2.5,9.9,6,13.3c2.9,0.8,6.6,2,13.3,4c0.4-2,1-4,1.9-5.8
		c-2.7-0.2-5.2-1.5-7.1-3.3c-1.6-1.5-2.7-2.4-3.4-6.1l-2.5,0.2l0.4-1.9l1.7-0.1c-0.1-0.9,0-0.4-0.1-0.7c0-0.5-0.1-1.2,0-1.2
		l-2.2,0.2l0.4-1.9l2-0.1c0.2-3.7,1.1-4.9,2.5-6.5c2-2.5,4.8-4.1,8.3-4.3c1.9-0.1,3.6,0,5.1,0.6l-0.7,4.8c-1-0.9-2.5-1.3-4.4-1.2
		c-1.9,0.1-5.5,2.6-5.5,6.4l9.5-0.6l-0.4,1.9l-9.2,0.6c0,0,0,0.4,0,0.8c0,0.4,0,0.1,0.1,1l8.8-0.6l-0.4,1.9l-7.8,0.5
		c0.5,3.7,4.5,5.3,6.4,5.2c0.6,0,1.2-0.1,1.8-0.2c3.6-4.6,8.9-8,15.2-9c0,0,0,0,0.1,0C367.4,49.7,358.2,41.5,347.5,42z"/>
	<path class="st2" d="M368.1,60.3c0,0-15.5,1.1-20.1,19.7l-7.8-5.5l-5.8-8.1V61l1.6-9.3l3.3-3.4l4.1-2.4l12.7,1"/>
	<g>
		<path class="st3" d="M347.9,62.3l5.1,7.8l-2.8,7.1l-15.6-23.8l6.3-4.2c5.3-3.4,9.1-3.3,11.6,0.5c1.5,2.2,1.5,4.7,0.1,7.3l11.1,4.7
			l-5.9,3.9l-8.7-4.3L347.9,62.3z M345.3,58.4l1-0.6c1.8-1.2,2.2-2.6,1.1-4.2c-0.9-1.3-2.2-1.4-4-0.2l-1,0.7L345.3,58.4z"/>
	</g>
	<path class="st2" d="M324,76.1l-8.5-1.9l4,10.9c-9.5,2.7-18.7,5.6-28,7.8c-12.5,2.9-25.2,5.1-38.1,3.2c-3.6-0.5-7.5-0.9-10.4-5.5
		c4.9-2.7,7.3,1.6,10.3,1.6c-1.8-6.1-2-12.4-0.9-18.1c-6.4,2.4-11.7,8-14.1,14.4c-0.2,0.6-0.4,1.3-0.6,1.9
		c-1.6,6.7-0.4,14.1,4.9,19.6c7.2,7.5,17,9.7,26.4,9.2c19.5-0.9,38.6-4.7,56.7-12.2c0.7-0.3,1.2-0.4,2.4-0.5l0,0l4.1,9.6l10.1-16.3
		l8.2-14.6c1-1.6,1.5-1.4-0.9-2.2C332.4,78,332.4,78,324,76.1z"/>
	<path class="st1" d="M349.2,93.5l-4.7,7.8l0,0l-8.6,13.8l0,0l-4.4,7.1l-5.3-12.4c-1.5,0.6-3,1.2-4.5,1.8c-0.3,0.1-0.7,0.2-1,0.4
		c-1.5,0.6-3.1,1.1-4.7,1.6c0,0,0,0,0,0c-1.6,0.5-3.2,1-4.8,1.5c-0.2,0.1-0.5,0.2-0.7,0.2c-1.7,0.5-3.3,0.9-5,1.4l-0.3,0.6l-0.2,0.6
		c0,0-0.3,1-0.4,1c-0.1,0-0.6-0.1-0.6-0.1l-0.4,0.1l0.6,0.7l0.4,0.9l-0.3,0.6l-0.6,0.5l-0.7-0.1l-0.3,0l0.2,1l-0.1,0.8l-0.8-0.3
		l0,0.6l0.6,0.6c0,0,0.4,1.3,0.3,1.3c-0.1,0-0.3,0.5-0.3,0.5l-0.4,0.8l0.4,0.6l0.6,0.8l-0.1,1.1l-0.4,0l0.2,0.8c0,0,0.3,0.9,0.3,0.8
		s-0.6,1-0.6,1s-0.3-0.3-0.2-0.3c0.1,0,0-0.6,0-0.6l-0.7-0.3l-0.2,0.3l-0.5-0.2l-0.5-0.8l-0.8-1.7l-0.2-0.2l-0.1-0.9l-0.6-0.3l0-0.6
		l0.4-0.1l0.1-0.6l-0.7-1.8l-0.6-0.7l-0.2-1.1l0-0.6l-0.5-0.4l-0.1-1.6l0-0.5c0,0,0,0,0,0c-3.7,0.8-7.5,1.4-11.3,1.9
		c0,0-0.1,0-0.1,0c-3.8,0.5-7.7,0.9-11.6,1.2c0,0,0,0,0,0c10.7,10,25.1,16.1,40.9,16.1c21.9,0,41.1-11.8,51.5-29.4
		C358.6,106.6,352.2,101,349.2,93.5z"/>
	<path class="st1" d="M360.2,42.7c0.3,0,3,2,3.3,2.1c-3.5-5.8-8-11.4-13-14.8c-10-7.4-22.2-11.8-35.6-11.8
		c-33,0-59.8,26.8-59.8,59.8c0,5.5,0.8,10.8,2.1,15.8c0.9,0.1,1.9,0.2,2.9,0.2c0.1,0,0.2,0,0.3,0c1,0,2,0.1,3,0.1
		c1.2,0,2.4,0,3.6-0.1c0.4,0,0.9-0.1,1.3-0.1c0.8-0.1,1.5-0.1,2.3-0.2c0.5-0.1,1.1-0.1,1.6-0.2c0.6-0.1,1.2-0.1,1.9-0.2
		c0.6-0.1,1.2-0.2,1.8-0.2c0.5-0.1,1.1-0.1,1.6-0.2c0.7-0.1,1.3-0.2,2-0.3c0.4-0.1,0.9-0.1,1.3-0.2c0.8-0.1,1.5-0.3,2.2-0.4
		c0.3-0.1,0.7-0.1,1-0.2c0.8-0.2,1.6-0.3,2.5-0.5c0.2,0,0.4-0.1,0.6-0.1c0.9-0.2,1.9-0.4,2.8-0.6c0,0,0,0,0.1,0l0-0.3l-0.5-1.2
		l-0.3-0.7l-0.4-0.1l-0.3,0.5c0,0-0.6,0.1-0.6,0c0-0.1-0.5-0.5-0.5-0.5l-1.1-0.6l-0.3-0.7l-0.7-1.1c0,0-0.1-0.3-0.2-0.3
		s-0.7,0.1-0.7,0.1l-0.5-0.5l-0.8-0.7l-0.6-0.7l-0.9-0.6l-0.6,0.2l-0.5,0.3l-0.5-0.1l-0.7-0.5l-0.4,0.2l-0.7-0.7l-0.3-0.6l-0.3-0.6
		l-0.5-0.2l-0.3-1.5l0.2-0.7l-0.3-1l-0.3-0.9l-0.5-0.3l-0.2-0.8l-0.5-2.9l0.1-0.7l-0.5-0.1l-0.2,0.9l0.2,1.9l0.3,0.9
		c0,0,0.1,1.2,0.1,1.3c0,0.1,0,1.2,0,1.2l-0.3,0.5l-0.3-0.8l-0.2-1.1l0.2-0.5l-0.1-0.7l-0.5-0.4l0-0.6l0.1-0.7l-0.2-1.6l0.4-1
		l-0.4-0.6l-0.5-0.5l-0.4-1.6l0.3-0.9l-0.4-0.7l0.3-1.1l0.4-1.1l0.1-0.7l1.1-2.6l0.7-1.2l0.2-0.3l0.3,0.9l0.3-0.3l-0.1-0.7l0.2-0.5
		l0-0.5l-0.8-0.5l0.2-0.6l0.2-0.1l0-0.3l0.4-0.7l-0.1-0.6l0.4-0.6l0.5-0.4l-0.5-0.3l0-1.1l0.3-0.7l-0.5-0.5l-0.5,0l-0.4,0.4
		l-0.3-0.5l-0.5-0.4L274,52l-0.5-0.5l-0.3-0.4l-0.2,0.6l-1,0.3l-0.7,0.7l0-0.6l0.6-0.4l0.7-0.7L272,51l-1,0.5l-0.9,1.1l-1.3,1.3
		l-1.1,0.9l-1.3,0.5l-0.8,0.7l-0.3-0.2l0.5-0.7l0.5-0.8l0.6-0.3l1.2-0.9l-0.5-0.2l-1.2,0.7l-0.2-1.3l0.6-0.9l0.7-1.2l0.9-0.1
		l0.4-0.6l1-0.4l0-0.4l-0.6,0.1l-0.1-0.4l0.5-0.5l0.7-0.7l1.1,0.1l0.1-0.6l-0.1-0.7l0.9-0.2l0.7-0.7l0.6,0l0.2-0.5l0.9-0.2l0.8-0.4
		l1,0.4l1.2,0.2l0.5,0.1l1.6-0.1l0.5,0l0.8,0.5l1.2,0l0.3-0.5l1.6-0.3l0.5-0.3l0.5,0.4l0.5-0.1l1,0.3l1.3,0.3l0.1,1l0.9-0.2l1,0.3
		l0.4-0.6l1.1,0.4l0.5-0.2l0.6,0.1l0.5,0l0.7-0.2l0.2,0.4l0.5-0.6l0.5-0.2l-0.1-0.3l0.5-0.5l-0.5-0.2c0,0,0-0.5,0-0.5
		c0,0.1,0.9-0.9,0.9-0.9l0.6,0.9l-0.4,0.5l0.5,0.5l0,0.4l0.6-0.2l0.2,0.6l0.6-0.2l0.2-0.5l0.5-0.4l0.6-0.2l0.3,1l-0.1,0.7l-0.6,0
		l-0.7,0.9l-0.7-0.1l-0.3,0.3l-1.2-0.1l-0.6,0l-0.7,0.5l-0.1,0.3l0.9-0.2l0.5,0.1l-0.3,0.5l-0.2,0.5l-1.6,0.7l-0.6,0.2l-0.9,1
		l-0.5,0.5l-0.4,1.1l0.3,0.5l0,0.7l0.4,0l0.7,0.7l0.9-0.1l0.4,0.9l-0.2,1.3l0.7,1l0.6-0.3l0.4-0.7l0.2-1l1.1-1.2l0.7-0.3l0.2-1.3
		l0.4-1.1l0.5,0l-0.1-1.1l0.9-1.2l0.4,0.3l0.6,0l1.1,1l0,1.2l0.1,0.8l0.2-0.6l0.7-0.8l0.4,1l0.3,1.4l-0.1,0.5l0.6,0.6l-0.7,0.5
		l-0.1,0.6l0.8-0.3l0,0.7l-0.1,0.9l-1.1,0.6l-0.5,0.8c0,0-1.6,0.3-1.6,0.2c0-0.1-1,0.8-1,0.8l-1.1,1.2l0.9-0.3l1.2-0.9l0.8,0.2
		l0.1,0.6l-0.3,0.9l0.9,0.8l0,0.6l-0.9-0.1l-0.5-0.5l-0.2-0.4l-0.4,0.1l-1.1,0.9c0,0-0.2,0.6-0.2,0.5c0-0.1-1.2,0.5-1.2,0.5
		l-0.2,0.7l-1.5,0.6l-0.4,1l-0.7,0.9l-0.9,0.9l0,0.6l-0.8,1.2c0,0-1.1,0.3-1.1,0.4c0,0.1-0.6,1.2-0.6,1.2l-1.1,0.4l-0.7,0.8l0.2,1.3
		l0,1.2l-0.3,1.3l-0.4-0.2l-0.4-0.9l0.2-1.3l-0.4-0.8l-0.4,0.3l-0.7-0.5l-1.2,0.3l-0.7,0.1l-0.3,0.6l-0.4,0.1l-0.3-0.4l-0.6,0.4
		l-0.5,0.2l-0.9,0.3l-0.9,2l0.1,0.9l-0.5,0.7l0.1,1.9l0.3,2l0.8,0.6l0.4-0.4l0.9-0.2l0.3-0.8l0.3-0.9l0.5-0.1l0.2-0.5l0.7,0l0.1,0.7
		l-0.1,1l-0.1,0.4l-0.5-0.1l-0.1,0.9l-0.2,0.9L285,83l0.7,0.2l0.8-0.2l0.6-0.1l0.1,0.8l-0.1,1l-0.2,1.6l0.3,0.9l1.2,0.1l0.9-0.1
		l0.6,0.7l0.3-0.6l0.6-0.1l0.4-1.1l1.5-0.1l0,0.4l-0.1,0.6L293,87l0.1-0.6c0,0,0.8-0.4,0.7-0.4c-0.1,0,1.1,1,1.1,1l2.2-0.3l0.4,0.8
		l0.6,0.4l0.3,0.5h0c3.8-1,7.6-2.2,11.6-3.3c1.5-0.4,3-0.9,4.5-1.3l1.4-0.5l-2.8-7.8l-1.8-5l5.4,1.2l1.1-1.4l0-1.3l0.6-0.9l0.6-0.8
		l0.1-0.9l0.5,0l0.5,0.2l0.6-0.1l0.5-0.1l1.1-0.4l0.5-0.7l1,0.2l1.1-0.5l0.7,0.2l0.8-0.1c-0.1-0.6-0.1-1.3-0.2-1.9
		c0-0.4,0-0.7,0-1.1s0-0.7,0-1.1l-0.3-0.5l-0.4,0l-0.8,0.6l-0.6,0.2l-0.8,0.1l-0.1,0.8l-0.3,0.2l-0.6,0.3l-0.5,1.2l0.3,0.6l-0.5,0.6
		l-0.7,0.5l-0.9-0.1l-0.3,0.6l-0.5,0l-0.5-0.2l-0.7-0.2l-0.1-0.8l-0.1-0.5l0.3-0.4l0.2-0.7l0.1-1l-0.4-0.5l0.4-0.7l1.2,0l1,0.3
		l0.7-0.2l0-1.4l-0.1-0.6l-0.1-0.7l-0.8-0.3l-0.5-0.3l0.2-0.5l0.8,0l0.4-0.1c0,0-0.2-0.3-0.2-0.4c0,0,0.2-0.1,0.2-0.1l0.4,0.1
		l0.5-0.4l0-0.4l0.6-0.6l0.6-0.3l0.2-0.5l0.3-0.4l0.6-0.4L325,53l0.2-0.5l-0.2-0.5l0-0.6l0.4-0.3l0.1,0.9l0.3,0.6l0.6,0.2l0.6-0.2
		l0.4,0.4l0.4-0.4c0.3-0.7,0.7-1.5,1.1-2.2l0,0c0.4-0.7,0.9-1.4,1.4-2.1c-0.2,0-0.3,0-0.3,0l-0.5-0.7l-0.1-0.8l0.3-0.9l0.8-0.6
		l-0.3-0.6l-0.8-0.5L329,45l0,0.5l-0.4,0.5l-0.8,1l0.1,0.8l0.5,0.7l0,0.7l-0.6,0.9l0,1.1l-0.6,0.1l-0.2,0.5l-0.5,0.3l-0.3-0.5
		l-0.2-1.2l-0.3-0.6v-0.9l-0.7,0.1l-0.6,1.3l-0.6,0l-0.2-0.8l-0.1-1.1l0-1.2l0.5-0.5l0.6-0.2l1-1.8l0.2-0.5l1.2-1.9l0.7-0.6
		c0,0,0.9-0.2,0.9-0.2c0,0.1,0.6-0.3,0.6-0.3l0.5-0.8l1.8,0l0.4,0.7l0.6,0.3l1.6,0.5l1.1,0.3l0.5,0.2l0,0.8l0,0
		c3.4-2.3,7.4-3.7,11.6-3.9c0.4,0,0.7,0,1.1,0C352.7,39.2,356.8,40.5,360.2,42.7C360.9,42.3,360.2,42.7,360.2,42.7z M320.6,33.5
		l-1.1,1.2l-0.1,2l-0.6,2.1l0.1,0.6l-0.3,0.3l-0.5-0.3l-1.2-0.1l0,0.6l0.5,0.4l0,0.7l-0.4-0.3l-0.6-0.2l-0.5,0.9l0.8,0.1l0.7,0
		l-0.2,0.7l-1.1,0.3l-1.4,0.4l-0.5,0.7l-1.2,1l-0.6-0.1l-0.4,0.6l-0.7,0.4l-1,0.8l0,0.5l-1.7,2.2l-0.8-0.5l-0.4-0.2l-0.6-1.4l0.1-1
		l0-1l0.9-1.2l0.3-0.5l-0.2-0.7l-0.5-0.2l0-0.5L308,40l-0.7-2l-0.4-0.1l-0.5-0.5l-0.4,0.2l-0.5,0.5l-0.7-0.8l-0.3-1.4l0.6-0.3
		c0,0,0.7,0.2,0.6,0.2c-0.1,0,0.8-0.3,0.8-0.3l0.1-1l0.9-0.2l0.9-1l0.5,0l0.5-0.7l1.2,0l0.4,0.9l0.2-0.5l0.8,0.3l0.4-0.5l0.5,0.8
		l0.3,0.3l0.3-0.3l-0.2-0.8l0.3-0.3l0.6,0.4l0.1-0.8l0.4,0l0.5-0.5l2.5,0l0.8,0.6l0.9-0.2l0.2,0.3l-0.6,0.3l-0.3,0.2
		c0,0-1,0.3-1,0.3c0-0.1-0.2,0.3-0.2,0.3l1.2,0.1l0.6-0.2l0.4-0.3l0.4,0.2l0.5-0.4l1,0l0,0.6L320.6,33.5z"/>
</g>
</svg>
