<?xml version="1.0" encoding="utf-8"?>
<!-- Generator: Adobe Illustrator 25.2.0, SVG Export Plug-In . SVG Version: 6.00 Build 0)  -->
<svg version="1.1" id="Layer_1" xmlns="http://www.w3.org/2000/svg" xmlns:xlink="http://www.w3.org/1999/xlink" x="0px" y="0px"
	 viewBox="0 0 408.3 155.8" style="enable-background:new 0 0 408.3 155.8;" xml:space="preserve">
<style type="text/css">
	.st0{fill:#0097AE;}
	.st1{fill:#666666;}
	.st2{fill:#203366;}
</style>
<g>
	<path class="st0" d="M63.3,124.5H13.8v-12.1l16.6-16.8c4.8-5,7.9-8.4,9.3-10.2c1.5-1.8,2.5-3.4,3.1-4.7c0.6-1.3,0.9-2.7,0.9-4.1
		c0-1.8-0.6-3.2-1.7-4.2c-1.1-1-2.8-1.5-4.8-1.5c-2.1,0-4.3,0.6-6.5,1.8c-2.2,1.2-4.7,3-7.4,5.4L13.1,66.3c3.5-3.1,6.5-5.4,8.9-6.7
		c2.4-1.4,5-2.4,7.8-3.1c2.8-0.7,6-1.1,9.5-1.1c4.4,0,8.3,0.8,11.8,2.3c3.5,1.6,6.2,3.8,8.1,6.6c1.9,2.9,2.9,6.1,2.9,9.7
		c0,2.7-0.3,5.1-1,7.4c-0.7,2.3-1.7,4.5-3.1,6.7c-1.4,2.2-3.3,4.5-5.6,6.9c-2.3,2.4-7.2,7-14.8,13.8v0.5h25.8V124.5z"/>
	<path class="st0" d="M119.5,90.5c0,12.1-2,20.9-6.1,26.5c-4,5.6-10.2,8.4-18.5,8.4c-8.1,0-14.3-2.9-18.4-8.8
		c-4.1-5.9-6.2-14.6-6.2-26.1c0-12.1,2-21,6.1-26.7c4-5.7,10.2-8.5,18.5-8.5c8.1,0,14.2,2.9,18.4,8.8
		C117.4,70.1,119.5,78.8,119.5,90.5z M88.6,90.5c0,7.7,0.5,13,1.4,15.9c1,2.9,2.6,4.3,4.8,4.3c2.3,0,3.9-1.5,4.9-4.5
		c0.9-3,1.4-8.2,1.4-15.8c0-7.5-0.5-12.8-1.4-15.9c-1-3-2.6-4.5-4.8-4.5c-2.3,0-3.9,1.5-4.8,4.4C89,77.4,88.6,82.7,88.6,90.5z"/>
	<path class="st0" d="M175.1,124.5h-49.4v-12.1l16.6-16.8c4.8-5,7.9-8.4,9.3-10.2c1.5-1.8,2.5-3.4,3.1-4.7c0.6-1.3,0.9-2.7,0.9-4.1
		c0-1.8-0.6-3.2-1.7-4.2c-1.1-1-2.8-1.5-4.8-1.5c-2.1,0-4.3,0.6-6.5,1.8c-2.2,1.2-4.7,3-7.4,5.4l-10.1-11.8c3.5-3.1,6.5-5.4,8.9-6.7
		c2.4-1.4,5-2.4,7.8-3.1c2.8-0.7,6-1.1,9.5-1.1c4.4,0,8.3,0.8,11.8,2.3c3.5,1.6,6.2,3.8,8.1,6.6c1.9,2.9,2.9,6.1,2.9,9.7
		c0,2.7-0.3,5.1-1,7.4c-0.7,2.3-1.7,4.5-3.1,6.7c-1.4,2.2-3.3,4.5-5.6,6.9c-2.3,2.4-7.2,7-14.8,13.8v0.5h25.8V124.5z"/>
	<path class="st0" d="M231.3,90.5c0,12.1-2,20.9-6.1,26.5c-4,5.6-10.2,8.4-18.5,8.4c-8.1,0-14.3-2.9-18.4-8.8
		c-4.1-5.9-6.2-14.6-6.2-26.1c0-12.1,2-21,6.1-26.7c4-5.7,10.2-8.5,18.5-8.5c8.1,0,14.2,2.9,18.4,8.8
		C229.2,70.1,231.3,78.8,231.3,90.5z M200.4,90.5c0,7.7,0.5,13,1.4,15.9c1,2.9,2.6,4.3,4.8,4.3c2.3,0,3.9-1.5,4.9-4.5
		c0.9-3,1.4-8.2,1.4-15.8c0-7.5-0.5-12.8-1.4-15.9c-1-3-2.6-4.5-4.8-4.5c-2.3,0-3.9,1.5-4.8,4.4C200.9,77.4,200.4,82.7,200.4,90.5z"
		/>
</g>
<g>
	<g>
		<path class="st1" d="M19.7,19.7H15v-1.5h11.3v1.5h-4.6v12.4h-1.9L19.7,19.7z"/>
		<path class="st1" d="M27.8,17.4h2v6.2l0,0c0.4-0.5,0.8-1,1.4-1.3c0.6-0.3,1.3-0.5,2-0.5c1.5,0,3.8,0.8,3.8,4.3v5.9h-2v-5.7
			c0-1.6-0.7-2.9-2.5-2.9c-1.2,0-2.2,0.7-2.7,1.8c-0.1,0.3-0.2,0.6-0.1,0.9v6h-2L27.8,17.4z"/>
		<path class="st1" d="M42.5,19.3c-0.1,0.7-0.7,1.2-1.3,1.1c-0.6,0-1.1-0.5-1.1-1.1c0-0.6,0.5-1.2,1.2-1.2c0,0,0,0,0.1,0
			c0.6,0,1.2,0.4,1.2,1C42.5,19.2,42.5,19.2,42.5,19.3z M40.3,32.1v-10h2v10H40.3L40.3,32.1z"/>
		<path class="st1" d="M45.3,30.2c0.8,0.5,1.7,0.7,2.6,0.7c1.4,0,2.1-0.7,2.1-1.5c0-0.8-0.6-1.3-2-1.8c-2-0.6-2.9-1.6-2.9-2.8
			c0-1.6,1.4-2.9,3.8-2.9c0.9,0,1.9,0.2,2.7,0.6l-0.5,1.3c-0.7-0.4-1.5-0.6-2.2-0.6c-1.2,0-1.8,0.6-1.8,1.4c0,0.7,0.7,1.2,2.1,1.7
			c2,0.7,2.9,1.5,2.9,3c0,1.8-1.5,3-4.1,3c-1.1,0-2.1-0.2-3.1-0.7L45.3,30.2z"/>
		<path class="st1" d="M59.3,24.8c0-1,0-1.9-0.1-2.7H61l0.1,1.6h0.1c0.7-1.2,2-1.9,3.4-1.8c1.3,0,2.6,0.8,3.1,2h0.1
			c0.3-0.5,0.7-0.9,1.2-1.2c0.7-0.5,1.6-0.7,2.4-0.7c1.4,0,3.6,0.9,3.6,4.3v5.9H73v-5.7c0-2-0.8-3.1-2.4-3.1c-1.1,0-2,0.7-2.3,1.6
			c-0.1,0.3-0.2,0.6-0.2,0.9v6.2h-2v-6c0-1.6-0.8-2.7-2.3-2.7c-1.1,0-2.1,0.8-2.5,1.8c-0.1,0.3-0.2,0.6-0.2,0.9v6h-2L59.3,24.8
			L59.3,24.8L59.3,24.8z"/>
		<path class="st1" d="M88.1,27c0,3.7-2.8,5.3-5.4,5.3c-2.7,0.2-5.1-1.9-5.2-4.7c0-0.2,0-0.3,0-0.5c-0.1-2.8,2.1-5.2,4.9-5.3
			c0.2,0,0.4,0,0.5,0c2.7-0.2,5.1,1.9,5.2,4.6C88.1,26.6,88.1,26.8,88.1,27z M79.4,27.1c0,2.2,1.4,3.8,3.3,3.8S86,29.3,86,27
			c0-1.7-1-3.8-3.3-3.8S79.4,25.2,79.4,27.1L79.4,27.1z"/>
		<path class="st1" d="M90.5,24.8c0-1,0-1.9-0.1-2.7h1.8l0.1,1.7l0,0c0.8-1.2,2.2-1.9,3.6-1.9c1.5,0,3.9,0.8,3.9,4.2v6h-2v-5.8
			c0-1.6-0.7-2.9-2.5-2.9c-1.2,0-2.3,0.7-2.7,1.8c-0.1,0.3-0.1,0.5-0.1,0.8v6h-1.9L90.5,24.8z"/>
		<path class="st1" d="M105.4,19.2v2.9h2.8v1.4h-2.8v5.4c0,1.2,0.4,2,1.5,2c0.4,0,0.8,0,1.2-0.1l0.1,1.4c-0.6,0.2-1.2,0.3-1.8,0.2
			c-0.8,0-1.6-0.2-2.2-0.8c-0.6-0.7-0.9-1.7-0.8-2.6v-5.5h-1.7v-1.4h1.7v-2.4L105.4,19.2z"/>
		<path class="st1" d="M110.5,17.4h1.9v6.2l0,0c0.3-0.5,0.8-1,1.4-1.3c0.6-0.3,1.3-0.5,2-0.5c1.5,0,3.8,0.8,3.8,4.3v5.9h-1.9v-5.7
			c0-1.6-0.7-2.9-2.5-2.9c-1.2,0-2.2,0.7-2.7,1.8c-0.1,0.3-0.2,0.6-0.2,0.9v6h-1.9L110.5,17.4z"/>
		<path class="st1" d="M122.7,30.2c0.8,0.5,1.7,0.7,2.6,0.7c1.4,0,2.1-0.7,2.1-1.5c0-0.8-0.6-1.3-2-1.8c-1.9-0.6-2.9-1.6-2.9-2.8
			c0-1.6,1.4-2.9,3.8-2.9c0.9,0,1.8,0.2,2.7,0.6l-0.5,1.3c-0.7-0.4-1.4-0.6-2.2-0.6c-1.2,0-1.8,0.6-1.8,1.4c0,0.7,0.7,1.2,2.1,1.7
			c1.9,0.7,2.9,1.5,2.9,3c0,1.8-1.5,3-4.1,3c-1.1,0-2.1-0.2-3.1-0.7L122.7,30.2z"/>
	</g>
	<g>
		<path class="st1" d="M144.5,31.7c-1,0.4-2.1,0.6-3.1,0.6c-3.3,0-5.4-2-5.4-5.1c0-3.1,2.3-5.3,5.9-5.3c0.9,0,1.9,0.2,2.8,0.5
			l-0.5,1.4c-0.7-0.3-1.5-0.5-2.3-0.5c-2.1-0.1-3.9,1.5-4,3.5s1.4,3.8,3.5,4c0.1,0,0.2,0,0.4,0c0.8,0,1.7-0.2,2.4-0.5L144.5,31.7z"
			/>
		<path class="st1" d="M152.9,32.1l-0.2-1.3h-0.1c-0.8,1-2.1,1.5-3.4,1.5c-2.2,0-3.3-1.4-3.3-2.9c0-2.4,2.4-3.7,6.6-3.7v-0.2
			c0-0.8-0.2-2.3-2.5-2.3c-1,0-2,0.3-2.9,0.7l-0.5-1.2c1.1-0.6,2.3-0.9,3.6-0.9c3.4,0,4.1,2.1,4.1,4.1v3.7c0,0.8,0.1,1.6,0.2,2.4
			L152.9,32.1z M152.6,27c-2.2,0-4.6,0.3-4.6,2.2c0,0.9,0.7,1.7,1.6,1.7c0.1,0,0.2,0,0.2,0c1.1,0,2.2-0.6,2.6-1.7
			c0.1-0.2,0.1-0.4,0.1-0.6L152.6,27L152.6,27z"/>
		<path class="st1" d="M157.7,24.8c0-1,0-1.9-0.1-2.7h1.7l0.1,1.6h0.1c0.7-1.2,2-1.9,3.4-1.8c1.4,0,2.6,0.8,3.1,2l0,0
			c0.3-0.5,0.8-0.9,1.3-1.2c0.7-0.5,1.6-0.7,2.4-0.7c1.4,0,3.6,0.9,3.6,4.3v5.9h-1.9v-5.7c0-2-0.8-3.1-2.4-3.1c-1.1,0-2,0.7-2.4,1.6
			c-0.1,0.3-0.2,0.6-0.2,0.9v6.2h-1.9v-6c0-1.6-0.8-2.7-2.3-2.7c-1.1,0-2.1,0.8-2.5,1.8c-0.1,0.3-0.2,0.6-0.2,0.9v6h-1.9L157.7,24.8
			L157.7,24.8L157.7,24.8z"/>
		<path class="st1" d="M176.5,25.3c0-1.3,0-2.3-0.1-3.3h1.8l0.1,1.7l0,0c0.9-1.3,2.4-2,3.9-2c2.6,0,4.6,2,4.6,5.1
			c0,3.6-2.4,5.4-5,5.4c-1.3,0.1-2.6-0.5-3.4-1.6h-0.1v5.4h-1.9L176.5,25.3L176.5,25.3z M178.5,28c0,0.2,0,0.5,0.1,0.7
			c0.4,1.3,1.6,2.2,3,2.1c2.1,0,3.3-1.6,3.3-3.9c0-2-1.1-3.7-3.2-3.7c-1.4,0-2.6,0.9-3,2.2c-0.1,0.2-0.1,0.5-0.1,0.7V28z"/>
		<path class="st1" d="M195.4,32.1l-0.2-1.3h-0.1c-0.8,1-2.1,1.5-3.4,1.5c-2.2,0-3.3-1.4-3.3-2.9c0-2.4,2.4-3.7,6.6-3.7v-0.2
			c0-0.8-0.2-2.3-2.5-2.3c-1,0-2,0.3-2.9,0.7l-0.5-1.2c1.1-0.6,2.3-0.9,3.6-0.9c3.4,0,4.1,2.1,4.1,4.1v3.7c0,0.8,0.1,1.6,0.2,2.4
			L195.4,32.1z M195.1,27c-2.2,0-4.6,0.3-4.6,2.2c0,0.9,0.7,1.7,1.6,1.7c0.1,0,0.2,0,0.2,0c1.1,0,2.2-0.6,2.6-1.7
			c0.1-0.2,0.1-0.4,0.1-0.6L195.1,27L195.1,27z"/>
		<path class="st1" d="M202.5,19.3c-0.1,0.7-0.7,1.2-1.4,1.1c-0.6-0.1-1-0.5-1.1-1.1c0-0.6,0.5-1.2,1.2-1.2c0,0,0.1,0,0.1,0
			C201.9,18.1,202.4,18.6,202.5,19.3C202.5,19.2,202.5,19.3,202.5,19.3z M200.3,32.1v-10h1.9v10H200.3L200.3,32.1z"/>
		<path class="st1" d="M214.9,22.1c0,0.7-0.1,1.5-0.1,2.7v5.8c0,2.3-0.5,3.7-1.6,4.6c-1.1,0.8-2.6,1.3-4,1.2c-1.3,0-2.5-0.2-3.6-0.8
			l0.5-1.4c1,0.5,2.1,0.8,3.2,0.8c2,0,3.5-1,3.5-3.5v-1.1l0,0c-0.8,1.1-2.1,1.7-3.5,1.7c-2.6,0-4.6-2-4.7-4.6c0-0.1,0-0.2,0-0.3
			c-0.2-2.7,1.9-5.1,4.6-5.3c0.1,0,0.2,0,0.3,0c1.4-0.1,2.7,0.6,3.4,1.8l0,0l0.1-1.5L214.9,22.1L214.9,22.1z M212.9,26
			c0-0.3,0-0.6-0.1-0.8c-0.4-1.2-1.5-2-2.8-2c-1.9,0-3.2,1.5-3.2,3.8c0,2,1.1,3.6,3.2,3.6c1.2,0,2.3-0.7,2.8-1.8
			c0.1-0.3,0.2-0.6,0.2-1L212.9,26L212.9,26z"/>
		<path class="st1" d="M218,24.8c0-1,0-1.9-0.1-2.7h1.8l0.1,1.7l0,0c0.8-1.2,2.2-1.9,3.6-1.9c1.5,0,3.9,0.8,3.9,4.2v6h-1.9v-5.8
			c0-1.6-0.6-2.9-2.5-2.9c-1.2,0-2.3,0.7-2.7,1.8c-0.1,0.3-0.1,0.5-0.1,0.8v6h-1.9L218,24.8L218,24.8z"/>
	</g>
</g>
<g>
	<path class="st2" d="M265,86.2l-1.5-5.5H254l-1.5,5.5h-8.8l9.6-29.7H264l9.8,29.7H265z M261.9,74.1l-1.3-4.8
		c-0.3-1.1-0.7-2.5-1.1-4.2c-0.4-1.7-0.7-2.9-0.8-3.7c-0.1,0.7-0.4,1.8-0.7,3.4c-0.4,1.6-1.1,4.7-2.4,9.3H261.9z"/>
	<path class="st2" d="M290.9,86.2V73.7c0-1.5-0.2-2.7-0.7-3.4c-0.4-0.8-1.1-1.2-2.1-1.2c-1.3,0-2.3,0.5-2.9,1.6
		c-0.6,1.1-0.9,2.9-0.9,5.5v10h-7.9V63.3h6l1,2.8h0.5c0.7-1.1,1.6-1.9,2.8-2.4c1.2-0.5,2.6-0.8,4.1-0.8c2.5,0,4.5,0.7,5.9,2.2
		c1.4,1.5,2.1,3.5,2.1,6.2v14.9H290.9z"/>
	<path class="st2" d="M318.7,86.2V73.7c0-1.5-0.2-2.7-0.7-3.4c-0.4-0.8-1.1-1.2-2.1-1.2c-1.3,0-2.3,0.5-2.9,1.6
		c-0.6,1.1-0.9,2.9-0.9,5.5v10h-7.9V63.3h6l1,2.8h0.5c0.7-1.1,1.6-1.9,2.8-2.4c1.2-0.5,2.6-0.8,4.1-0.8c2.5,0,4.5,0.7,5.9,2.2
		c1.4,1.5,2.1,3.5,2.1,6.2v14.9H318.7z"/>
	<path class="st2" d="M348.2,86.2l-1-2.8h-0.5c-0.7,1.1-1.6,1.9-2.8,2.4s-2.6,0.8-4.2,0.8c-2.5,0-4.5-0.7-5.9-2.2
		c-1.4-1.5-2.1-3.5-2.1-6.2V63.3h7.9v12.5c0,1.5,0.2,2.6,0.6,3.4c0.4,0.8,1.1,1.2,2.1,1.2c1.4,0,2.3-0.5,2.9-1.6
		c0.6-1.1,0.9-2.9,0.9-5.4v-10h7.9v22.9H348.2z"/>
	<path class="st2" d="M374.6,86.2l-1.5-3h-0.2c-1.1,1.3-2.1,2.2-3.3,2.7s-2.5,0.7-4.3,0.7c-2.2,0-3.9-0.6-5.1-1.9
		c-1.2-1.3-1.9-3.1-1.9-5.5c0-2.4,0.8-4.3,2.5-5.4c1.7-1.2,4.2-1.9,7.4-2l3.8-0.1v-0.3c0-1.9-0.9-2.8-2.8-2.8
		c-1.7,0-3.8,0.6-6.4,1.7l-2.3-5.2c2.7-1.4,6-2.1,10.1-2.1c2.9,0,5.2,0.7,6.8,2.2c1.6,1.5,2.4,3.5,2.4,6.1v15H374.6z M368.7,81.1
		c1,0,1.8-0.3,2.5-0.9c0.7-0.6,1-1.4,1-2.4V76l-1.8,0.1c-2.6,0.1-3.9,1.1-3.9,2.9C366.5,80.4,367.2,81.1,368.7,81.1z"/>
	<path class="st2" d="M393.3,86.2h-7.9V54.8h7.9V86.2z"/>
	<path class="st2" d="M254.9,112.7v10.7h-8V93.9h9.7c8,0,12,2.9,12,8.7c0,3.4-1.7,6.1-5,7.9l8.6,12.9h-9.1l-6.3-10.7H254.9z
		 M254.9,106.7h1.5c2.8,0,4.2-1.2,4.2-3.7c0-2-1.4-3.1-4.1-3.1h-1.6V106.7z"/>
	<path class="st2" d="M285.5,123.9c-3.8,0-6.8-1-8.9-3s-3.2-4.9-3.2-8.7c0-3.9,1-6.8,2.9-8.9c2-2.1,4.7-3.1,8.4-3.1
		c3.4,0,6.1,0.9,8,2.7c1.9,1.8,2.8,4.4,2.8,7.8v3.5h-14.1c0.1,1.3,0.5,2.3,1.4,3c0.9,0.7,2.1,1.1,3.6,1.1c1.4,0,2.7-0.1,3.8-0.4
		s2.4-0.7,3.8-1.3v5.7c-1.2,0.6-2.5,1.1-3.8,1.3C288.9,123.8,287.3,123.9,285.5,123.9z M285,105.6c-0.9,0-1.7,0.3-2.3,0.9
		c-0.6,0.6-1,1.5-1.1,2.8h6.8c0-1.1-0.3-2-0.9-2.6S286,105.6,285,105.6z"/>
	<path class="st2" d="M313.8,123.9c-1.2,0-2.2-0.2-3.1-0.6s-1.8-1.1-2.7-2.1h-0.4c0.2,1.6,0.4,2.6,0.4,3v9.2H300v-32.8h6.4l1.1,2.9
		h0.4c1.5-2.2,3.5-3.3,6.1-3.3c2.5,0,4.5,1.1,6,3.2s2.2,5,2.2,8.6c0,3.7-0.8,6.6-2.3,8.7C318.4,122.8,316.3,123.9,313.8,123.9z
		 M311.1,106.4c-1.2,0-2,0.4-2.4,1.2c-0.5,0.8-0.7,2.1-0.8,3.7v0.6c0,2,0.3,3.4,0.8,4.3c0.5,0.9,1.4,1.3,2.5,1.3
		c1,0,1.7-0.4,2.2-1.3s0.7-2.3,0.7-4.3c0-2-0.2-3.4-0.7-4.2S312.2,106.4,311.1,106.4z"/>
	<path class="st2" d="M348.5,112c0,3.7-1,6.7-3,8.8c-2,2.1-4.8,3.1-8.5,3.1c-3.5,0-6.2-1.1-8.3-3.2c-2.1-2.1-3.1-5-3.1-8.7
		c0-3.7,1-6.6,3-8.7c2-2.1,4.8-3.1,8.5-3.1c2.2,0,4.2,0.5,6,1.4c1.7,1,3.1,2.3,4,4.1C348,107.5,348.5,109.6,348.5,112z M333.7,112
		c0,2,0.3,3.5,0.8,4.5s1.4,1.5,2.6,1.5c1.2,0,2.1-0.5,2.6-1.5c0.5-1,0.8-2.5,0.8-4.5c0-2-0.3-3.4-0.8-4.4s-1.4-1.5-2.6-1.5
		c-1.2,0-2.1,0.5-2.6,1.5S333.7,110,333.7,112z"/>
	<path class="st2" d="M366.8,100.2c0.7,0,1.3,0.1,2,0.2l0.4,0.1l-0.7,7.5c-0.6-0.2-1.5-0.2-2.7-0.2c-1.7,0-3,0.4-3.8,1.2
		s-1.2,1.9-1.2,3.4v11.3H353v-22.9h5.9l1.2,3.7h0.4c0.7-1.2,1.6-2.2,2.8-2.9C364.4,100.5,365.6,100.2,366.8,100.2z"/>
	<path class="st2" d="M383.6,117.6c1.1,0,2.3-0.3,3.8-0.8v5.8c-1.1,0.5-2.1,0.8-3,1s-2.1,0.3-3.4,0.3c-2.7,0-4.6-0.7-5.7-2
		s-1.8-3.3-1.8-6v-9.4h-2.8v-3.2l3.5-2.5l2-4.8h5.2v4.6h5.6v5.9h-5.6v8.9C381.5,116.9,382.2,117.6,383.6,117.6z"/>
</g>
</svg>
