<svg id="Layer_1" data-name="Layer 1" xmlns="http://www.w3.org/2000/svg" viewBox="0 0 489.39 153.83"><defs><style>.cls-1,.cls-3{fill:#203366;}.cls-1{opacity:0.67;}.cls-2{fill:#666;}.cls-4,.cls-5{fill:#0097ae;}.cls-4{stroke:#0097ae;stroke-miterlimit:10;}</style></defs><path class="cls-1" d="M97.46,68.21a80.06,80.06,0,0,1,1.73,12.54c-2.52-3.07-4.69-6.38-4.52-9.64C94.74,69.83,95.88,69,97.46,68.21Z" transform="translate(-0.35 -1.28)"/><path class="cls-1" d="M95.1,59.47c.75,2.33,1.43,4.74,2,7.2-.61.27-1.23.52-1.85.74C95.33,64.58,95.27,61.94,95.1,59.47Z" transform="translate(-0.35 -1.28)"/><path class="cls-1" d="M97.28,96.46a4.19,4.19,0,0,1,1.25-1.31c-.31,2-.71,4-1.18,6C96.49,100.17,95.85,99,97.28,96.46Z" transform="translate(-0.35 -1.28)"/><path class="cls-1" d="M92.07,116.11a2.28,2.28,0,0,1,.59-1.3C92.47,115.25,92.27,115.68,92.07,116.11Z" transform="translate(-0.35 -1.28)"/><path class="cls-1" d="M84.72,129.27A122.53,122.53,0,0,1,61.9,155.11a146.4,146.4,0,0,1-16.54-28.55c4.38-2.35,9.64-2.92,16.32-2.67C68.58,124.14,77.36,130.29,84.72,129.27Z" transform="translate(-0.35 -1.28)"/><path class="cls-1" d="M95.68,107c-.08.26-.17.51-.25.77-.22-.18-.47-.36-.74-.54C95.05,107.14,95.38,107.06,95.68,107Z" transform="translate(-0.35 -1.28)"/><path class="cls-1" d="M99.35,66.31l.52.27c-.57.19-1.14.37-1.71.52C98.57,66.85,99,66.59,99.35,66.31Z" transform="translate(-0.35 -1.28)"/><path class="cls-1" d="M92.73,114.74a4.76,4.76,0,0,0,3.5-1.71c1.33-1.5,1.45-3.85-1.54-5.82,4.63-.9,4.58-2.92,4.08-4.27-.64-1.74-3.83-2.4-1.49-6.48,2-3.5,11.43-3.59,7.68-8.86C101.77,83.11,94.35,77,94.67,71.11c.11-2,2.82-2.91,5.75-4.24a122,122,0,0,1,34.54,28S116.66,110.38,92,116.77A2.55,2.55,0,0,1,92.73,114.74Z" transform="translate(-0.35 -1.28)"/><path class="cls-1" d="M95.29,64.35c1.12.51,2.23,1,3.32,1.59a26.18,26.18,0,0,1-3.35,1.47C95.29,66.37,95.29,65.35,95.29,64.35Z" transform="translate(-0.35 -1.28)"/><path class="cls-1" d="M97.28,96.46c2-3.5,11.43-3.59,7.68-8.86C101.77,83.11,94.35,77,94.67,71.11c.18-3.38,7.86-3.68,11.42-8.1a18.25,18.25,0,0,1-7.93,4.09A17.4,17.4,0,0,0,103.6,62a19,19,0,0,1-8.34,5.4,64.54,64.54,0,0,0-2.43-20.72A120.28,120.28,0,0,1,120,45.82S117.33,78,98.07,101.91C97,100.75,95.45,99.65,97.28,96.46Z" transform="translate(-0.35 -1.28)"/><path class="cls-1" d="M94.7,72.18a74,74,0,0,1,6.55,11C98.29,79.78,95.07,76,94.7,72.18Z" transform="translate(-0.35 -1.28)"/><path class="cls-1" d="M91.38,125.49c3.48-4.09-.93-8.47,1.35-10.75a4.76,4.76,0,0,0,3.5-1.71c1.33-1.5,1.45-3.85-1.54-5.82,4.63-.9,4.58-2.92,4.08-4.27-.64-1.74-3.83-2.4-1.49-6.48,1.28-2.24,5.61-3.08,7.57-4.78,8.74,24.16,6.07,48.42,6.07,48.42S85.43,138,63,124C72,125.17,83.7,134.53,91.38,125.49Z" transform="translate(-0.35 -1.28)"/><path class="cls-1" d="M91.38,125.49c3.48-4.09-.93-8.47,1.35-10.75a4.76,4.76,0,0,0,3.5-1.71c1.33-1.5,1.45-3.85-1.54-5.82,4.63-.9,4.58-2.92,4.08-4.27-.64-1.74-3.83-2.4-1.49-6.48A7.27,7.27,0,0,1,100.53,94c2.59,30.54-13.15,58.64-13.15,58.64a122.08,122.08,0,0,1-33.79-28.15,34.63,34.63,0,0,1,8.09-.6C70.84,124.22,83.33,135,91.38,125.49Z" transform="translate(-0.35 -1.28)"/><path class="cls-1" d="M94.68,71.08a71.38,71.38,0,0,1,2.87,7.53c-1.75-2.44-3-5-2.88-7.5A0,0,0,0,1,94.68,71.08Z" transform="translate(-0.35 -1.28)"/><path class="cls-1" d="M94.69,107.21c4.63-.9,4.58-2.92,4.08-4.27-.64-1.74-3.83-2.4-1.49-6.48,2-3.5,11.43-3.59,7.68-8.86C101.77,83.11,94.35,77,94.67,71.11c.18-3.38,7.86-3.68,11.42-8.1a18.25,18.25,0,0,1-7.93,4.09A17.4,17.4,0,0,0,103.6,62a19,19,0,0,1-8.34,5.4A79.67,79.67,0,0,0,94.88,57a122.5,122.5,0,0,1,37.61,12.35s-12.76,24.37-36,39.53A6.42,6.42,0,0,0,94.69,107.21Z" transform="translate(-0.35 -1.28)"/><path class="cls-1" d="M94.67,71.11c.16-3,6.17-3.57,10-6.72a97.92,97.92,0,0,1-2.33,20C98.88,80.44,94.42,75.72,94.67,71.11Z" transform="translate(-0.35 -1.28)"/><path class="cls-1" d="M103.6,62a19,19,0,0,1-8.34,5.4c.38-15.31-3-25.08-8.31-32.81a106,106,0,0,1,13.24-5.05,122.39,122.39,0,0,1,4.51,34.61,20.11,20.11,0,0,1-6.54,2.94A17.4,17.4,0,0,0,103.6,62Z" transform="translate(-0.35 -1.28)"/><path class="cls-1" d="M97.28,96.46a5.33,5.33,0,0,1,2-1.81c-.73,1.94-1.56,3.87-2.48,5.77C96.3,99.55,96.18,98.38,97.28,96.46Z" transform="translate(-0.35 -1.28)"/><path class="cls-1" d="M82.48,43.69C75,76,44.36,96,38.52,101.29c-11,10-22.69,19.16-27.91,33.2-4-20.88-6.11-52.93,9.61-80.87,14.49-25.75,41-42.54,61.57-52.34C85.11,11.17,86.83,24.86,82.48,43.69Z" transform="translate(-0.35 -1.28)"/><path class="cls-1" d="M54.23,44.14C54,72.75,32,95.34,28.1,100.9c-7.37,10.47-15.49,20.4-17.23,33.2C3.53,117.29-4.25,90.71,3.71,64.24,11,39.83,30.2,20.7,45.65,8.58,50.31,16.27,54.33,27.47,54.23,44.14Z" transform="translate(-0.35 -1.28)"/><path class="cls-1" d="M61.68,123.89c3.81.14,8.21,2.08,12.61,3.62a122.18,122.18,0,0,1-37.9,19.82A11,11,0,0,1,34,137.09C36.25,128.43,47.83,123.38,61.68,123.89Z" transform="translate(-0.35 -1.28)"/><path class="cls-1" d="M92.73,114.74a4.76,4.76,0,0,0,3.5-1.71c1.33-1.5,1.45-3.85-1.54-5.82,4.63-.9,4.58-2.92,4.08-4.27-.64-1.74-3.83-2.4-1.49-6.48,2-3.5,11.43-3.59,7.68-8.86C101.77,83.11,94.35,77,94.67,71.11a2.24,2.24,0,0,1,.56-1.35c23.27,19.77,32,50.58,32,50.58a122.87,122.87,0,0,1-35.32,4.5C94.4,120.94,90.57,116.9,92.73,114.74Z" transform="translate(-0.35 -1.28)"/><path class="cls-2" d="M143.47,23h-5.18V21.37h12.46V23h-5.07V36.7h-2.1Z" transform="translate(-0.35 -1.28)"/><path class="cls-2" d="M152.4,20.49h2.21v6.84h0a4.79,4.79,0,0,1,1.54-1.43,4.93,4.93,0,0,1,2.21-.56c1.65,0,4.19.89,4.19,4.75v6.5h-2.21V30.31c0-1.77-.77-3.2-2.75-3.2a3.23,3.23,0,0,0-3,2,1.58,1.58,0,0,0-.11,1V36.7h-2.21Z" transform="translate(-0.35 -1.28)"/><path class="cls-2" d="M168.61,22.59a1.33,1.33,0,0,1-1.43,1.21A1.22,1.22,0,0,1,166,22.59a1.35,1.35,0,0,1,1.32-1.33h.11a1.24,1.24,0,0,1,1.32,1.11C168.61,22.48,168.61,22.48,168.61,22.59ZM166.19,36.7v-11h2.2v11Z" transform="translate(-0.35 -1.28)"/><path class="cls-2" d="M171.7,34.61a5.36,5.36,0,0,0,2.87.77c1.54,0,2.32-.77,2.32-1.65s-.67-1.44-2.21-2c-2.21-.66-3.2-1.76-3.2-3.09,0-1.76,1.55-3.2,4.19-3.2a6.94,6.94,0,0,1,3,.67l-.55,1.43a5.05,5.05,0,0,0-2.43-.66c-1.32,0-2,.66-2,1.54s.77,1.33,2.31,1.88c2.21.77,3.2,1.65,3.2,3.31,0,2-1.65,3.3-4.52,3.3a7.41,7.41,0,0,1-3.42-.77Z" transform="translate(-0.35 -1.28)"/><path class="cls-2" d="M187.14,28.65a24.89,24.89,0,0,0-.11-3h2l.11,1.76h.11a4,4,0,0,1,3.75-2,3.77,3.77,0,0,1,3.41,2.21h.11a3.91,3.91,0,0,1,1.33-1.32,4.63,4.63,0,0,1,2.64-.78c1.55,0,4,1,4,4.75v6.5h-2.2V30.53c0-2.21-.88-3.42-2.65-3.42a2.65,2.65,0,0,0-2.53,1.76,3.21,3.21,0,0,0-.22,1V36.7h-2.21V30.09c0-1.77-.88-3-2.54-3a3.1,3.1,0,0,0-2.75,2,3.27,3.27,0,0,0-.22,1V36.7h-2.21l.22-8.05Z" transform="translate(-0.35 -1.28)"/><path class="cls-2" d="M218.9,31.08c0,4.08-3.09,5.84-6,5.84a5.37,5.37,0,0,1-5.74-5.18v-.55a5.66,5.66,0,0,1,5.41-5.85h.55a5.36,5.36,0,0,1,5.73,5.08Zm-9.59.11c0,2.43,1.54,4.19,3.64,4.19s3.64-1.76,3.64-4.3c0-1.88-1.11-4.19-3.64-4.19s-3.64,2.2-3.64,4.3Z" transform="translate(-0.35 -1.28)"/><path class="cls-2" d="M221.55,28.65a24.89,24.89,0,0,0-.11-3h2l.11,1.87h0a4.85,4.85,0,0,1,4-2.1c1.66,0,4.3.89,4.3,4.64V36.7h-2.2V30.31c0-1.77-.77-3.2-2.76-3.2a3.13,3.13,0,0,0-3,2,2.48,2.48,0,0,0-.11.89v6.61h-2.09Z" transform="translate(-0.35 -1.28)"/><path class="cls-2" d="M238,22.48v3.2h3.09v1.54H238v6c0,1.33.44,2.21,1.65,2.21a5.44,5.44,0,0,0,1.33-.11l.11,1.54a4.13,4.13,0,0,1-2,.22,3.31,3.31,0,0,1-2.42-.88,3.85,3.85,0,0,1-.89-2.87V27.22H233.9V25.68h1.87V23Z" transform="translate(-0.35 -1.28)"/><path class="cls-2" d="M243.6,20.49h2.1v6.84h0a3.88,3.88,0,0,1,1.54-1.43,4.93,4.93,0,0,1,2.21-.56c1.65,0,4.19.89,4.19,4.75v6.5h-2.1V30.31c0-1.77-.77-3.2-2.75-3.2a3.23,3.23,0,0,0-3,2,3.27,3.27,0,0,0-.22,1V36.7h-2.1Z" transform="translate(-0.35 -1.28)"/><path class="cls-2" d="M257.06,34.61a5.33,5.33,0,0,0,2.86.77c1.55,0,2.32-.77,2.32-1.65s-.66-1.44-2.2-2c-2.1-.66-3.2-1.76-3.2-3.09,0-1.76,1.54-3.2,4.19-3.2a7.36,7.36,0,0,1,3,.67l-.56,1.43a4.71,4.71,0,0,0-2.42-.66c-1.33,0-2,.66-2,1.54s.77,1.33,2.32,1.88c2.09.77,3.2,1.65,3.2,3.31,0,2-1.66,3.3-4.52,3.3a7.38,7.38,0,0,1-3.42-.77Z" transform="translate(-0.35 -1.28)"/><path class="cls-2" d="M281.1,36.26a9.44,9.44,0,0,1-3.42.66c-3.64,0-6-2.2-6-5.62s2.54-5.85,6.51-5.85a10.18,10.18,0,0,1,3.09.56l-.55,1.54a6.57,6.57,0,0,0-2.54-.55,4.18,4.18,0,0,0-4.41,3.86,4.24,4.24,0,0,0,3.86,4.41h.44a7.13,7.13,0,0,0,2.65-.55Z" transform="translate(-0.35 -1.28)"/><path class="cls-2" d="M290.36,36.7l-.22-1.43H290a4.78,4.78,0,0,1-3.75,1.65c-2.42,0-3.64-1.54-3.64-3.19,0-2.65,2.65-4.08,7.28-4.08v-.23c0-.88-.22-2.53-2.76-2.53a8,8,0,0,0-3.19.77l-.56-1.32a8.21,8.21,0,0,1,4-1c3.75,0,4.53,2.32,4.53,4.53V34a21.36,21.36,0,0,0,.22,2.64ZM290,31.08c-2.43,0-5.07.33-5.07,2.42a1.84,1.84,0,0,0,1.76,1.88h.22a3,3,0,0,0,2.87-1.88,1.4,1.4,0,0,0,.11-.66l.11-1.76Z" transform="translate(-0.35 -1.28)"/><path class="cls-2" d="M295.65,28.65a24.89,24.89,0,0,0-.11-3h1.88l.11,1.76h.11a4,4,0,0,1,3.75-2,3.67,3.67,0,0,1,3.42,2.21h0a4.12,4.12,0,0,1,1.43-1.32,4.66,4.66,0,0,1,2.65-.78c1.54,0,4,1,4,4.75v6.5h-2.1V30.53c0-2.21-.88-3.42-2.64-3.42a2.92,2.92,0,0,0-2.65,1.76,3.21,3.21,0,0,0-.22,1V36.7h-2.1V30.09c0-1.77-.88-3-2.53-3a3.1,3.1,0,0,0-2.76,2,3.27,3.27,0,0,0-.22,1V36.7h-2.1l.11-8.05Z" transform="translate(-0.35 -1.28)"/><path class="cls-2" d="M316.39,29.2c0-1.43,0-2.53-.11-3.64h2l.11,1.88h0a5.25,5.25,0,0,1,4.3-2.21c2.87,0,5.08,2.21,5.08,5.63,0,4-2.65,6-5.52,6a4.27,4.27,0,0,1-3.75-1.76h-.11v6h-2.09l.11-11.8Zm2.2,3a1.87,1.87,0,0,0,.11.77A3.22,3.22,0,0,0,322,35.27c2.32,0,3.64-1.77,3.64-4.3,0-2.21-1.21-4.08-3.53-4.08a3.45,3.45,0,0,0-3.31,2.42,1.92,1.92,0,0,0-.11.78v2.09Z" transform="translate(-0.35 -1.28)"/><path class="cls-2" d="M337.23,36.7,337,35.27h-.11a4.78,4.78,0,0,1-3.75,1.65c-2.43,0-3.64-1.54-3.64-3.19,0-2.65,2.65-4.08,7.28-4.08v-.23c0-.88-.22-2.53-2.76-2.53a8.09,8.09,0,0,0-3.2.77l-.55-1.32a8.21,8.21,0,0,1,4-1c3.75,0,4.52,2.32,4.52,4.53V34a21.36,21.36,0,0,0,.22,2.64Zm-.33-5.62c-2.43,0-5.07.33-5.07,2.42a1.84,1.84,0,0,0,1.76,1.88h.22a3,3,0,0,0,2.87-1.88,1.4,1.4,0,0,0,.11-.66l.11-1.76Z" transform="translate(-0.35 -1.28)"/><path class="cls-2" d="M345.06,22.59a1.37,1.37,0,0,1-1.54,1.21,1.4,1.4,0,0,1-1.22-1.21,1.35,1.35,0,0,1,1.33-1.33h.11a1.43,1.43,0,0,1,1.32,1.33ZM342.63,36.7v-11h2.1v11Z" transform="translate(-0.35 -1.28)"/><path class="cls-2" d="M358.73,25.68c0,.77-.11,1.65-.11,3v6.4c0,2.54-.55,4.08-1.76,5.07a6.91,6.91,0,0,1-4.41,1.32,8.07,8.07,0,0,1-4-.88L349,39a8,8,0,0,0,3.53.88c2.2,0,3.86-1.1,3.86-3.86V34.83h0a4.71,4.71,0,0,1-3.86,1.87,5.14,5.14,0,0,1-5.18-5.07V31.3a5.52,5.52,0,0,1,5.07-5.85h.33a4,4,0,0,1,3.75,2h0l.11-1.65,2.09-.11Zm-2.2,4.3a2.19,2.19,0,0,0-.11-.89,3.22,3.22,0,0,0-3.09-2.2c-2.09,0-3.53,1.65-3.53,4.19,0,2.2,1.21,4,3.53,4a3.39,3.39,0,0,0,3.09-2,3.25,3.25,0,0,0,.22-1.1l-.11-2Z" transform="translate(-0.35 -1.28)"/><path class="cls-2" d="M362.15,28.65a24.89,24.89,0,0,0-.11-3h2l.11,1.87h0a4.82,4.82,0,0,1,4-2.1c1.65,0,4.3.89,4.3,4.64V36.7h-2.1V30.31c0-1.77-.66-3.2-2.75-3.2a3.12,3.12,0,0,0-3,2,2.48,2.48,0,0,0-.11.89v6.61h-2.1l-.22-7.94Z" transform="translate(-0.35 -1.28)"/><path class="cls-3" d="M296.07,62.86a3,3,0,0,1,.89-2.38,5.66,5.66,0,0,1,5.77,0,3,3,0,0,1,.91,2.36q0,3.14-3.8,3.13C297.32,66,296.07,65,296.07,62.86Zm7.29,25.74h-7.11V68h7.11Z" transform="translate(-0.35 -1.28)"/><path class="cls-3" d="M321.33,88.6V77.36a6.38,6.38,0,0,0-.59-3.1,2,2,0,0,0-1.9-1.05,2.75,2.75,0,0,0-2.6,1.44,10.94,10.94,0,0,0-.8,4.93v9h-7.11V68h5.36l.9,2.55H315a5.64,5.64,0,0,1,2.52-2.18,8.85,8.85,0,0,1,3.7-.73,7.05,7.05,0,0,1,5.33,2,7.8,7.8,0,0,1,1.9,5.59V88.6Z" transform="translate(-0.35 -1.28)"/><path class="cls-3" d="M352.06,83.35a10.64,10.64,0,0,0,3.43-.71v5.18a13.67,13.67,0,0,1-2.73.88,15.22,15.22,0,0,1-3.05.27q-3.58,0-5.17-1.76T343,81.82v-8.5h-2.49V70.43l3.16-2.24,1.84-4.32h4.66V68h5.05v5.33h-5.05v8C350.13,82.68,350.77,83.35,352.06,83.35Z" transform="translate(-0.35 -1.28)"/><path class="cls-3" d="M372.06,88.6V77.36c0-2.76-.82-4.15-2.45-4.15A2.76,2.76,0,0,0,367,74.68a10.5,10.5,0,0,0-.82,4.86V88.6h-7.12V60.3h7.12v4q0,2.73-.3,6.22h.33a5.8,5.8,0,0,1,2.42-2.25,7.56,7.56,0,0,1,3.26-.66,7.1,7.1,0,0,1,5.37,2,7.72,7.72,0,0,1,1.92,5.58V88.6Z" transform="translate(-0.35 -1.28)"/><path class="cls-3" d="M394,89c-3.43,0-6.1-.92-8-2.74s-2.84-4.42-2.84-7.8.88-6.15,2.64-8,4.26-2.79,7.53-2.79q4.65,0,7.19,2.43t2.54,7v3.17H390.34a3.53,3.53,0,0,0,1.27,2.71,5,5,0,0,0,3.24,1,16.12,16.12,0,0,0,3.45-.35,17.17,17.17,0,0,0,3.41-1.21v5.11a12.54,12.54,0,0,1-3.46,1.18A23.59,23.59,0,0,1,394,89Zm-.42-16.5a2.93,2.93,0,0,0-2.1.79,3.71,3.71,0,0,0-1,2.48h6.11a3.52,3.52,0,0,0-.85-2.38A2.8,2.8,0,0,0,393.58,72.47Z" transform="translate(-0.35 -1.28)"/><path class="cls-4" d="M200.08,73.65a10.82,10.82,0,0,0-2.43-3.58A11.42,11.42,0,0,0,194,67.65a12.7,12.7,0,0,0-9.39,0,11.17,11.17,0,0,0-3.71,2.45,11.45,11.45,0,0,0-2.44,3.61,11.12,11.12,0,0,0-.88,4.43v.06a11.45,11.45,0,0,0,.86,4.42,10.82,10.82,0,0,0,2.43,3.58,11.74,11.74,0,0,0,6.31,3.16v6.52h-5.73v4.21h5.73v5.83h4.21v-5.83h5.72V95.88h-5.72V89.35a11.58,11.58,0,0,0,2.56-.73,11.17,11.17,0,0,0,3.71-2.45,11.39,11.39,0,0,0,2.44-3.62,11,11,0,0,0,.88-4.41v-.07A11.45,11.45,0,0,0,200.08,73.65Zm-4.2,4.55a7.26,7.26,0,0,1-.49,2.65A7,7,0,0,1,194,83,6.25,6.25,0,0,1,192,84.52a6.58,6.58,0,0,1-2.68.53,6.41,6.41,0,0,1-2.69-.55,6.53,6.53,0,0,1-2.1-1.49,6.69,6.69,0,0,1-1.39-2.2,7.44,7.44,0,0,1-.49-2.67v-.07a7.35,7.35,0,0,1,.49-2.66,7.26,7.26,0,0,1,1.35-2.18,6.21,6.21,0,0,1,2.08-1.48,6.53,6.53,0,0,1,2.69-.54,6.42,6.42,0,0,1,2.67.56A6.55,6.55,0,0,1,194,73.26a6.67,6.67,0,0,1,1.38,2.2,7.46,7.46,0,0,1,.49,2.68Z" transform="translate(-0.35 -1.28)"/><path class="cls-5" d="M170.9,88.46h-8.49l-2.55-11.58c-.12-.49-.31-1.45-.57-2.9s-.45-2.65-.57-3.62q-.15,1.19-.48,2.94c-.21,1.17-.43,2.25-.64,3.23s-1.1,5-2.65,11.93h-8.49l-6.59-26.59h6.93l2.9,13.33q1,4.42,1.34,7c.16-1.24.44-2.92.85-5s.78-3.88,1.13-5.27l2.35-10.06H162l2.27,10.06q.58,2.41,1.18,5.58c.4,2.11.67,3.69.8,4.73.16-1.34.59-3.68,1.3-7l2.94-13.37h6.93Z" transform="translate(-0.35 -1.28)"/><path class="cls-5" d="M229.51,88.46V77.26a6.76,6.76,0,0,0-.57-3.14,1.93,1.93,0,0,0-1.81-1.05,2.53,2.53,0,0,0-2.4,1.4,9.57,9.57,0,0,0-.77,4.39v9.6h-7.13V77.26a7.08,7.08,0,0,0-.54-3.14,1.86,1.86,0,0,0-1.77-1.05,2.56,2.56,0,0,0-2.44,1.5,11.34,11.34,0,0,0-.76,4.87v9h-7.11V67.85h5.36l.9,2.55h.41a5.26,5.26,0,0,1,2.38-2.16,8,8,0,0,1,3.53-.75c3,0,5.06.9,6.26,2.71h.57a5.83,5.83,0,0,1,2.42-2,8.07,8.07,0,0,1,3.43-.72c2.44,0,4.24.63,5.4,1.87s1.75,3.15,1.75,5.7v13.4Z" transform="translate(-0.35 -1.28)"/><path class="cls-5" d="M251.41,88.82q-5.15,0-8-2.73c-1.89-1.83-2.84-4.42-2.84-7.8s.88-6.15,2.64-8,4.26-2.79,7.53-2.79q4.65,0,7.19,2.43t2.54,7v3.17H247.75A3.53,3.53,0,0,0,249,82.79a5,5,0,0,0,3.24,1,15.48,15.48,0,0,0,3.45-.36,17.09,17.09,0,0,0,3.41-1.2v5.11a12.65,12.65,0,0,1-3.46,1.18A23.67,23.67,0,0,1,251.41,88.82ZM251,72.33a2.93,2.93,0,0,0-2.1.79,3.74,3.74,0,0,0-1,2.48H254a3.57,3.57,0,0,0-.85-2.38A2.8,2.8,0,0,0,251,72.33Z" transform="translate(-0.35 -1.28)"/><path class="cls-5" d="M277.49,88.46V77.22a6.5,6.5,0,0,0-.59-3.1,2,2,0,0,0-1.9-1.05,2.75,2.75,0,0,0-2.6,1.44,10.8,10.8,0,0,0-.8,4.93v9h-7.11V67.85h5.36l.89,2.55h.42a5.64,5.64,0,0,1,2.52-2.18,8.82,8.82,0,0,1,3.7-.73,7,7,0,0,1,5.32,2,7.74,7.74,0,0,1,1.9,5.59v13.4Z" transform="translate(-0.35 -1.28)"/><path class="cls-3" d="M326.64,128.06q-5.14,0-8-2.73t-2.85-7.8q0-5.22,2.64-8t7.53-2.79c3.11,0,5.5.81,7.2,2.42s2.53,4,2.53,7v3.16H323a3.52,3.52,0,0,0,1.26,2.71,5,5,0,0,0,3.25,1,15.48,15.48,0,0,0,3.45-.36,17.62,17.62,0,0,0,3.41-1.21v5.11a12.33,12.33,0,0,1-3.46,1.18A23.78,23.78,0,0,1,326.64,128.06Zm-.41-16.49a2.93,2.93,0,0,0-2.1.79,3.67,3.67,0,0,0-1,2.48h6.12a3.55,3.55,0,0,0-.85-2.38A2.76,2.76,0,0,0,326.23,111.57Z" transform="translate(-0.35 -1.28)"/><path class="cls-3" d="M349.11,128.06q-5.06,0-7.67-2.73c-1.74-1.81-2.61-4.43-2.61-7.84s.94-6.06,2.82-7.94,4.55-2.82,8-2.82a15.07,15.07,0,0,1,6.75,1.56l-2.09,5.26a21.5,21.5,0,0,0-2.38-.9,7.54,7.54,0,0,0-2.28-.34,3.07,3.07,0,0,0-2.67,1.35,6.52,6.52,0,0,0-.95,3.8q0,5,3.66,5a11.08,11.08,0,0,0,6-1.82v5.65A11.62,11.62,0,0,1,349.11,128.06Z" transform="translate(-0.35 -1.28)"/><path class="cls-3" d="M379.48,117.35q0,5.06-2.71,7.88a10.08,10.08,0,0,1-7.62,2.83,9.84,9.84,0,0,1-7.46-2.89,10.82,10.82,0,0,1-2.78-7.82q0-5,2.72-7.83c1.81-1.86,4.36-2.79,7.63-2.79a10.89,10.89,0,0,1,5.37,1.29,8.78,8.78,0,0,1,3.59,3.7A12,12,0,0,1,379.48,117.35Zm-13.35,0a9.22,9.22,0,0,0,.71,4.05,2.49,2.49,0,0,0,2.39,1.39,2.39,2.39,0,0,0,2.33-1.39,9.4,9.4,0,0,0,.69-4.05,9,9,0,0,0-.7-4,2.44,2.44,0,0,0-2.36-1.35,2.47,2.47,0,0,0-2.35,1.34A8.81,8.81,0,0,0,366.13,117.35Z" transform="translate(-0.35 -1.28)"/><path class="cls-3" d="M396.54,127.7V116.46a6.36,6.36,0,0,0-.59-3.1,2,2,0,0,0-1.9-1,2.76,2.76,0,0,0-2.6,1.44,10.94,10.94,0,0,0-.8,4.93v9h-7.11V107.09h5.37l.89,2.55h.42a5.64,5.64,0,0,1,2.51-2.19,9,9,0,0,1,3.71-.72,7,7,0,0,1,5.32,2,7.76,7.76,0,0,1,1.9,5.58V127.7Z" transform="translate(-0.35 -1.28)"/><path class="cls-3" d="M428.18,117.35q0,5.06-2.72,7.88a10.06,10.06,0,0,1-7.61,2.83,9.86,9.86,0,0,1-7.47-2.89,10.82,10.82,0,0,1-2.78-7.82q0-5,2.72-7.83t7.63-2.79a10.89,10.89,0,0,1,5.37,1.29,8.78,8.78,0,0,1,3.59,3.7A12,12,0,0,1,428.18,117.35Zm-13.35,0a9.23,9.23,0,0,0,.7,4.05,2.49,2.49,0,0,0,2.39,1.39,2.39,2.39,0,0,0,2.33-1.39,9.4,9.4,0,0,0,.69-4.05,9,9,0,0,0-.69-4,2.74,2.74,0,0,0-4.72,0A8.83,8.83,0,0,0,414.83,117.35Z" transform="translate(-0.35 -1.28)"/><path class="cls-3" d="M457.53,127.7V116.49a6.71,6.71,0,0,0-.57-3.13,1.92,1.92,0,0,0-1.81-1,2.55,2.55,0,0,0-2.4,1.4,9.55,9.55,0,0,0-.77,4.39v9.6h-7.12V116.49a7,7,0,0,0-.55-3.13,1.84,1.84,0,0,0-1.76-1,2.56,2.56,0,0,0-2.44,1.49,11.4,11.4,0,0,0-.77,4.88v9h-7.11V107.09h5.37l.89,2.55h.42a5.27,5.27,0,0,1,2.37-2.17,8.07,8.07,0,0,1,3.54-.74q4.46,0,6.26,2.71h.56a5.72,5.72,0,0,1,2.43-2,8,8,0,0,1,3.43-.72q3.64,0,5.4,1.87c1.16,1.25,1.75,3.15,1.75,5.69V127.7Z" transform="translate(-0.35 -1.28)"/><path class="cls-3" d="M467,107.09h7.5L478,118.91a11.66,11.66,0,0,1,.34,2.24h.15a12,12,0,0,1,.44-2.2l3.58-11.86h7.26L481.6,129a12.93,12.93,0,0,1-3.85,5.91,9.63,9.63,0,0,1-6,1.73,14.86,14.86,0,0,1-2.91-.31v-5.59a9.81,9.81,0,0,0,2.2.22,3.63,3.63,0,0,0,1.66-.36,3.91,3.91,0,0,0,1.24-1,9.16,9.16,0,0,0,1.12-2.17Z" transform="translate(-0.35 -1.28)"/><path class="cls-3" d="M225,119.19a7.89,7.89,0,0,1-1.25,4.39,8.27,8.27,0,0,1-3.62,3,13.44,13.44,0,0,1-5.55,1.07,22.32,22.32,0,0,1-4.46-.38,16.37,16.37,0,0,1-3.74-1.3v-6.4a21.92,21.92,0,0,0,4.27,1.65,16.12,16.12,0,0,0,4.07.59,4,4,0,0,0,2.35-.56,1.7,1.7,0,0,0,.75-1.43,1.56,1.56,0,0,0-.3-1,3.49,3.49,0,0,0-1-.83c-.44-.28-1.62-.85-3.53-1.71a17.05,17.05,0,0,1-3.91-2.29,7,7,0,0,1-1.92-2.55,8.39,8.39,0,0,1-.63-3.4,6.82,6.82,0,0,1,2.67-5.73,11.78,11.78,0,0,1,7.35-2A20.51,20.51,0,0,1,225,102.2l-2.2,5.55a15.92,15.92,0,0,0-6.44-1.71,3.31,3.31,0,0,0-2,.49,1.46,1.46,0,0,0-.64,1.22,1.77,1.77,0,0,0,.81,1.4,31,31,0,0,0,4.39,2.25,12.27,12.27,0,0,1,4.78,3.32A7.21,7.21,0,0,1,225,119.19Z" transform="translate(-0.35 -1.28)"/><path class="cls-3" d="M245.45,127.26l-1.31-5H235.5l-1.35,5h-7.89l8.68-26.7h9.58l8.79,26.7Zm-2.8-10.87L241.5,112c-.27-1-.59-2.23-1-3.76s-.64-2.65-.76-3.32c-.11.62-.32,1.64-.64,3.06s-1,4.21-2.14,8.39Z" transform="translate(-0.35 -1.28)"/><path class="cls-3" d="M278.75,113.4q0,6.66-3.66,10.26t-10.31,3.6h-8.6V100.67h9.2q6.4,0,9.89,3.27T278.75,113.4Zm-7.46.26q0-3.66-1.44-5.42a5.35,5.35,0,0,0-4.39-1.77h-2.1v14.9H265a5.8,5.8,0,0,0,4.81-1.9Q271.28,117.57,271.29,113.66Z" transform="translate(-0.35 -1.28)"/><path class="cls-3" d="M295.36,106.18a4.58,4.58,0,0,0-4,2.1,10.13,10.13,0,0,0-1.44,5.8q0,7.67,5.84,7.67a11.93,11.93,0,0,0,3.42-.49c1.1-.33,2.21-.72,3.33-1.18v6.07a18.3,18.3,0,0,1-7.53,1.48q-6,0-9.23-3.5T282.54,114a16.09,16.09,0,0,1,1.55-7.26,11.16,11.16,0,0,1,4.48-4.81,13.49,13.49,0,0,1,6.86-1.68,18.88,18.88,0,0,1,8.24,1.87l-2.2,5.66a25.11,25.11,0,0,0-3-1.17A10.41,10.41,0,0,0,295.36,106.18Z" transform="translate(-0.35 -1.28)"/></svg>