<?xml version="1.0" encoding="utf-8"?>
<!-- Generator: Adobe Illustrator 25.3.1, SVG Export Plug-In . SVG Version: 6.00 Build 0)  -->
<svg version="1.1" id="Layer_1" xmlns="http://www.w3.org/2000/svg" xmlns:xlink="http://www.w3.org/1999/xlink" x="0px" y="0px"
	 viewBox="0 0 408.3 155.8" style="enable-background:new 0 0 408.3 155.8;" xml:space="preserve">
<style type="text/css">
	.st0{fill:#203366;}
	.st1{fill:#FFFFFF;}
	.st2{fill:#0097AE;}
	.st3{fill:#04122B;}
	.st4{fill:#2F4577;}
	.st5{fill:#10234C;}
	.st6{fill:#666666;}
</style>
<path class="st0" d="M358.2,69.5c0,0,4.8-1.8,3.9-7.4S373,50.8,357.9,44s-8.2-19.6-23.5-19.3c-15.3,0.3-20.6,13.9-39.4,0.5
	c-18.8-13.5-59.9-40.2-68.8-10.8c-9,29.4-9.1,37.8,2.9,45.6c12,7.7,17.6,12.6,16.3,24.8c-1.2,12.2,6.3,29.4,25,22.7
	c18.7-6.7,14.8-27.8,36-16s23.1,6.6,28.7,3.4s9.3,1.1,11.5-7.1C350.3,74,349.1,73,358.2,69.5z"/>
<g>
	<g>
		<g>
			<path class="st1" d="M341.1,63.6c0,0-12.6,11.3-20.1,9s-12.3-8.8-11.7-12c0.6-3.2,2.7-9.2,4.5-7.7c2.3,1.8,7.7,2.6,10.5,0.9
				c1.4-0.9,3.8-2.4,4.5-5.9c0.3-1.3,4.4,0.3,3.6,3.6c-0.3,1.2-0.3,4.1,0.4,5.6C334.6,61.2,336.1,60.8,341.1,63.6z"/>
			<path class="st1" d="M334.3,26.5c-0.5,0.9-0.9,1.8-1.3,2.8c-2.5,6.6,8.7,5.7,2.2,16.2c-1.4,2.8-2.3,5.6-2.9,8.1
				c-0.6,2.8,0.7,7,0.7,7c-1.7,4.6-19.8,2.6-19,2.1c0.7-0.5,7.2-3.5,10.9-7.4c2.6-2.7,3.1-6,2.9-8.5c-0.7-3.9-4-5.8-4-5.8
				c-0.3-0.2-0.5-0.5-0.6-0.8c0.2-0.7,0.4-1.5,0.8-2.1l4.5-7.8C329.9,28.1,332,26.8,334.3,26.5z"/>
		</g>
	</g>
	<path class="st1" d="M338.5,62.9c0.2-1.1,1.3-3.1,3.9-2.1c2.8,1,4.6,3.5,5,10.5c0.4,6.9,1.8,12.5,2.9,16.3s-3.8,11.3-6.6,6.7
		c-2.8-4.6-4.3-15.9-4.6-19C338.9,72.2,338.4,63.7,338.5,62.9z"/>
	<path class="st1" d="M314.1,51.8c0,0,6.1,23.6,3.4,38.3c-1.9,10.4-5.7,3.4-8.8,2.3c0,0,0.2-1.3,0.2-6.2c0-8-0.3-15.4-1-19.9
		c-1.1-7.1-1.1-11.5,0.4-13.2C309.6,51.6,310.8,50.6,314.1,51.8z"/>
	<path class="st1" d="M309.9,89.6c0,0-0.2-1.9-2.9,9c-2.6,10.9-4.3,29.7-7.1,33.3c-2.8,3.6-3.7,1.4-3.2,1.9c1.7,1.7,2.4,3.4,4.2,3
		c1.8-0.4,5.7-7.5,9.8-20c4.1-12.5,6.6-21,5.9-24.8C315.9,88.2,310.2,88.7,309.9,89.6z"/>
	<path class="st1" d="M304.7,131.7c0,0-1.8,4.4-2.9,4.8c-1.1,0.4-4,0-5.7-0.6c-1.8-0.6-3.1-1.4-4.1-1.6c-1-0.1-6.3,1.6-7.9,1.7
		c-1.6,0.1-2.1,0.1-3-0.2s-0.6-1-0.6-1s0.8-0.1,3.1-0.6c3.3-0.7,7.9-2.9,9.1-3.6c2.1-1.1,2.2-1.3,3.4-0.8c1.4,0.6,3.2,1,4.9,1.4
		C303.4,131.7,304.7,131.7,304.7,131.7z"/>
	<path class="st1" d="M303,135c0,0-0.8,2.1-3.9,3.3c-2.3,0.8-2.7,0.7-3.9,0.6c-1.2,0-1.6-0.2-1.6-0.2s-0.2-1,1.3-1.2
		c0.8-0.1,2.4-1.1,1.7-1.6C295.8,135.5,303,135,303,135z"/>
	<path class="st2" d="M340.2,113.7c0,0,2.4-9.1,2.5-14.2s-0.5-14.2-0.4-14.6s3.5-2.6,3.2-5c-0.2-2.4-3.4-8.7-4-10.7
		c-0.6-1.9-0.6-8.6-0.6-8.6s-5.5,1.3-12.1-1.1c-6.6-2.4-14.8-7.7-14.8-7.7s-4.4,0.5-1.1,20.5c3.4,20,4.4,21.2,4.5,27.1
		c0.2,8.6-5,18.3-5.5,25.6C311.6,132.3,338.5,116.3,340.2,113.7z"/>
	<path class="st3" d="M335.7,112.6c9.4-3.8,15.6-3.5,38.1-1.1c5.2,0.5,15.6,1.3,20.8,4.2c4.7,2.6,6,9.5-17.4,14.1
		c-21.4,4.2-48.9,6.2-56,0.5C314.2,124.6,326.5,116.3,335.7,112.6z"/>
	<path class="st1" d="M340.7,139.1c0,0-1,0.6-1.4,0.2c-0.5-0.4-1.8-1.9-4-0.7s-2.8,2.6-4.8,2.8c-2,0.1-7.1-0.7-8.5,0.5
		s-3.7,5.6-3.1,8.7c0.6,3.1,1.6,3.5,2.5,2c1-1.4,1.8-2.3,2.3-2.5s5.9-2.3,7.7-3.2c1.8-1,4.3-2,5-2.3c0.7-0.2,4.7-1,5-1
		S340.7,139.1,340.7,139.1z"/>
	<path class="st0" d="M322,141.8c1.4-1.2,6.5-0.4,8.5-0.5s2.6-1.6,4.8-2.8c1.7-0.9,2.9-0.4,4,0.7c0,0-0.4-0.2-0.6-0.1
		c-1.2,0.1-3.8,2.2-5.6,3c-2,0.8-5.8,1.5-7.4,2.6c-1,0.7-1.5,3.1-1.6,5.2c-0.1,0.1-0.2,0.1-0.3,0.1c-0.5,0.2-1.3,1.1-2.3,2.5
		s-1.9,1.1-2.5-2C318.3,147.5,320.5,143,322,141.8z"/>
	<path class="st4" d="M340.2,144.2c0,0,34.4-6.9,42.2-9.9c7.7-3,19.9-5,16.7-13.4c-2.8-7.6-11.4-8.5-22.7-3.8
		c-11.3,4.7-11.4,5-19.8,10.2c-10.7,6.6-16.9,12.2-16.9,12.2L340.2,144.2z"/>
	<path class="st1" d="M383.4,135.7c0,0,0.8,0.8,0.2,1.8c-0.6,1-1.8,1.7-1.6,2.9c0.2,1.2,0.5,1.4,1.8,2.4s3.6,2.2,4.9,4.9
		c1.3,2.8,3.1,5.4,6.3,5.9c3.2,0.5,5.7,0.2,7.3-0.5c1.6-0.7,0.7-1.6-0.4-2c-1.1-0.5-3.4-1.7-4.9-4.1c-1.6-2.4-3.2-4.4-4.3-6.3
		c-1.1-1.9-2.4-4-3.5-5.9C388.3,132.9,383.4,134.4,383.4,135.7z"/>
	<path class="st0" d="M387.8,142.6c2.1,2.2,3.3,4.6,6.3,5.9c1.6,0.7,3.6,0.7,4.4,0.2c1.3,1.3,2.7,2,3.5,2.4c1.1,0.5,1.9,1.3,0.4,2
		c-1.6,0.7-4.1,1-7.3,0.5c-3.2-0.5-5-3.1-6.3-5.9c-1.3-2.8-3.6-4-4.9-4.9c-1.3-1-1.6-1.2-1.8-2.4c-0.2-1,0.6-1.7,1.2-2.4
		C384,139.2,385.7,140.5,387.8,142.6z"/>
	<path class="st5" d="M313,119c0,0,12.7-18.7,23-24.7s36.4-27.8,17.7,10.1c-9.6,19.5-16.3,31.4-25.1,33.5
		C319.7,140,303.7,137.9,313,119z"/>
	<path class="st0" d="M392.3,136.7c0,0-16-31.4-20.6-38.3S359.2,77.6,355.9,85c-3.4,7.4-6,12.9,1,23c6.9,10.1,6.9,10.1,15.8,18.9
		c8.9,8.9,11.7,10.5,11.7,10.5L392.3,136.7z"/>
</g>
<g>
	<g>
		<path class="st6" d="M9.8,24.6H5.5v-1.4H16v1.4h-4.3v11.6H9.9L9.8,24.6z"/>
		<path class="st6" d="M17.4,22.5h1.8v5.8l0,0c0.4-0.5,0.7-0.9,1.3-1.2c0.6-0.3,1.2-0.5,1.9-0.5c1.4,0,3.5,0.7,3.5,4v5.5h-1.8v-5.3
			c0-1.5-0.7-2.7-2.3-2.7c-1.1,0-2.1,0.7-2.5,1.7c-0.1,0.3-0.2,0.6-0.1,0.8v5.6h-1.8V22.5z"/>
		<path class="st6" d="M31.1,24.2c-0.1,0.7-0.7,1.1-1.2,1c-0.6,0-1-0.5-1-1c0-0.6,0.5-1.1,1.1-1.1c0,0,0,0,0.1,0
			c0.6,0,1.1,0.4,1.1,0.9C31.1,24.1,31.1,24.1,31.1,24.2z M29.1,36.1v-9.3h1.8v9.3H29.1L29.1,36.1z"/>
		<path class="st6" d="M33.7,34.4c0.7,0.5,1.6,0.7,2.4,0.7c1.3,0,2-0.7,2-1.4s-0.6-1.2-1.9-1.7c-1.8-0.6-2.7-1.5-2.7-2.6
			c0-1.5,1.3-2.7,3.5-2.7c0.8,0,1.8,0.2,2.5,0.6L39,28.5c-0.7-0.4-1.3-0.6-2.1-0.6c-1.1,0-1.7,0.6-1.7,1.3c0,0.7,0.7,1.1,2,1.6
			c1.8,0.7,2.7,1.4,2.7,2.8c0,1.7-1.4,2.8-3.8,2.8c-1,0-2-0.2-2.9-0.7L33.7,34.4z"/>
		<path class="st6" d="M46.8,29.4c0-0.9,0-1.8-0.1-2.5h1.6l0.1,1.5h0.1c0.7-1.1,1.9-1.8,3.2-1.7c1.2,0,2.4,0.7,2.9,1.9h0.1
			c0.3-0.5,0.7-0.8,1.1-1.1c0.7-0.5,1.5-0.7,2.2-0.7c1.3,0,3.4,0.8,3.4,4v5.5h-1.8V31c0-1.9-0.7-2.9-2.2-2.9c-1,0-1.9,0.7-2.2,1.5
			c-0.1,0.3-0.1,0.6-0.2,0.8v5.8h-2v-5.6c0-1.5-0.7-2.5-2.1-2.5c-1,0-2,0.7-2.3,1.7c-0.1,0.3-0.2,0.6-0.2,0.8v5.6h-1.6L46.8,29.4
			L46.8,29.4L46.8,29.4z"/>
		<path class="st6" d="M73.7,31.4c0,3.5-2.6,4.9-5,4.9c-2.5,0.2-4.8-1.8-4.9-4.4c0-0.2,0-0.3,0-0.5c-0.1-2.6,2-4.9,4.6-4.9
			c0.2,0,0.4,0,0.5,0c2.5-0.2,4.8,1.8,4.9,4.3C73.7,31,73.7,31.2,73.7,31.4z M65.5,31.5c0,2.1,1.3,3.5,3.1,3.5s3.1-1.5,3.1-3.6
			c0-1.6-0.9-3.5-3.1-3.5C66.6,27.9,65.5,29.7,65.5,31.5L65.5,31.5z"/>
		<path class="st6" d="M76,29.4c0-0.9,0-1.8-0.1-2.5h1.7l0.1,1.6l0,0c0.7-1.1,2.1-1.8,3.4-1.8c1.4,0,3.6,0.7,3.6,3.9v5.6h-1.9v-5.4
			c0-1.5-0.6-2.7-2.3-2.7c-1.1,0-2.1,0.7-2.5,1.7c-0.1,0.3-0.1,0.5-0.1,0.7v5.6H76V29.4z"/>
		<path class="st6" d="M89.8,24.1v2.7h2.6v1.3h-2.6v5c0,1.1,0.4,1.9,1.4,1.9c0.4,0,0.7,0,1-0.1l0.1,1.3c-0.6,0.2-1.1,0.3-1.7,0.2
			c-0.7,0-1.5-0.2-2-0.7c-0.6-0.7-0.8-1.6-0.7-2.4v-5.1h-1.6v-1.3h1.6v-2.2L89.8,24.1z"/>
		<path class="st6" d="M94.6,22.5h1.8v5.8l0,0c0.4-0.5,0.7-0.9,1.3-1.2c0.6-0.3,1.2-0.5,1.9-0.5c1.4,0,3.5,0.7,3.5,4v5.5h-1.8v-5.3
			c0-1.5-0.7-2.7-2.3-2.7c-1.1,0-2.1,0.7-2.5,1.7c-0.1,0.3-0.2,0.6-0.1,0.8v5.6h-1.9L94.6,22.5z"/>
		<path class="st6" d="M105.9,34.4c0.7,0.5,1.6,0.7,2.4,0.7c1.3,0,2-0.7,2-1.4s-0.6-1.2-1.9-1.7c-1.9-0.6-2.7-1.5-2.7-2.6
			c0-1.5,1.3-2.7,3.5-2.7c0.8,0,1.7,0.2,2.5,0.6l-0.5,1.2c-0.7-0.4-1.4-0.6-2.1-0.6c-1.1,0-1.7,0.6-1.7,1.3c0,0.7,0.7,1.1,2,1.6
			c1.8,0.7,2.7,1.4,2.7,2.8c0,1.7-1.4,2.8-3.8,2.8c-1,0-2-0.2-2.9-0.7L105.9,34.4z"/>
	</g>
	<g>
		<path class="st6" d="M126.3,35.8c-0.9,0.4-2,0.6-2.9,0.6c-3.1,0-5-1.9-5-4.8s2.1-4.9,5.5-4.9c0.8,0,1.8,0.2,2.6,0.5l-0.5,1.3
			c-0.7-0.3-1.4-0.5-2.1-0.5c-2-0.1-3.6,1.4-3.7,3.3c-0.1,2,1.4,3.5,3.3,3.7c0.1,0,0.2,0,0.4,0c0.7,0,1.6-0.2,2.2-0.5L126.3,35.8z"
			/>
		<path class="st6" d="M134.1,36.1l-0.2-1.2h-0.1c-0.7,0.9-2,1.4-3.2,1.4c-2.1,0-3.1-1.3-3.1-2.7c0-2.2,2.2-3.5,6.2-3.5v-0.2
			c0-0.7-0.2-2.1-2.3-2.1c-0.9,0-1.9,0.3-2.7,0.7l-0.5-1.1c1-0.6,2.1-0.8,3.4-0.8c3.2,0,3.8,2,3.8,3.8v3.5c0,0.7,0.1,1.5,0.2,2.2
			H134.1z M133.8,31.4c-2.1,0-4.3,0.3-4.3,2.1c0,0.8,0.7,1.6,1.5,1.6c0.1,0,0.2,0,0.2,0c1,0,2.1-0.6,2.4-1.6
			c0.1-0.2,0.1-0.4,0.1-0.6L133.8,31.4L133.8,31.4z"/>
		<path class="st6" d="M138.6,29.4c0-0.9,0-1.8-0.1-2.5h1.6l0.1,1.5h0.1c0.7-1.1,1.9-1.8,3.2-1.7c1.3,0,2.4,0.7,2.9,1.9l0,0
			c0.3-0.5,0.7-0.8,1.2-1.1c0.7-0.5,1.5-0.7,2.2-0.7c1.3,0,3.4,0.8,3.4,4v5.5h-1.9V31c0-1.9-0.7-2.9-2.2-2.9c-0.9,0-1.9,0.7-2.2,1.5
			c-0.1,0.3-0.2,0.6-0.2,0.8v5.8h-1.9v-5.6c0-1.5-0.7-2.5-2.1-2.5c-1,0-2,0.7-2.3,1.7c-0.1,0.3-0.2,0.6-0.2,0.8v5.6h-1.9L138.6,29.4
			L138.6,29.4L138.6,29.4z"/>
		<path class="st6" d="M156.2,29.8c0-1.2,0-2.1-0.1-3.1h1.7l0.1,1.6l0,0c0.8-1.2,2.2-1.9,3.6-1.9c2.4,0,4.3,1.9,4.3,4.8
			c0,3.4-2.2,5-4.7,5c-1.2,0.1-2.4-0.5-3.2-1.5l0,0v5H156L156.2,29.8L156.2,29.8z M158,32.3c0,0.2,0,0.5,0.1,0.7
			c0.4,1.2,1.5,2.1,2.8,2c2,0,3.1-1.5,3.1-3.6c0-1.9-1-3.5-3-3.5c-1.3,0-2.4,0.8-2.8,2.1c-0.1,0.2-0.1,0.5-0.1,0.7L158,32.3
			L158,32.3z"/>
		<path class="st6" d="M173.8,36.1l-0.2-1.2h-0.1c-0.7,0.9-2,1.4-3.2,1.4c-2.1,0-3.1-1.3-3.1-2.7c0-2.2,2.2-3.5,6.2-3.5v-0.2
			c0-0.7-0.2-2.1-2.3-2.1c-0.9,0-1.9,0.3-2.7,0.7l-0.5-1.1c1-0.6,2.1-0.8,3.4-0.8c3.2,0,3.8,2,3.8,3.8v3.5c0,0.7,0,1.5,0.2,2.2
			H173.8z M173.5,31.4c-2.1,0-4.3,0.3-4.3,2.1c0,0.8,0.7,1.6,1.5,1.6c0.1,0,0.2,0,0.2,0c1,0,2.1-0.6,2.4-1.6
			c0.1-0.2,0.1-0.4,0.1-0.6L173.5,31.4L173.5,31.4z"/>
		<path class="st6" d="M180.4,24.2c-0.1,0.7-0.7,1.1-1.3,1s-0.9-0.5-1-1c0-0.6,0.5-1.1,1.1-1.1h0.1
			C179.8,23.1,180.3,23.6,180.4,24.2C180.4,24.1,180.4,24.1,180.4,24.2z M178.3,36.1v-9.3h1.9v9.3H178.3L178.3,36.1z"/>
		<path class="st6" d="M192.1,26.8c0,0.7-0.1,1.4-0.1,2.5v5.4c0,2.1-0.5,3.5-1.5,4.3c-1,0.7-2.3,1.2-3.7,1.1c-1.2,0-2.3-0.2-3.4-0.7
			l0.5-1.3c0.9,0.5,2,0.7,3,0.7c1.9,0,3.3-0.9,3.3-3.3v-1l0,0c-0.7,1-2,1.6-3.3,1.6c-2.4,0-4.3-1.9-4.4-4.3c0-0.1,0-0.2,0-0.3
			c-0.2-2.5,1.8-4.8,4.3-4.9c0.1,0,0.2,0,0.3,0c1.3-0.1,2.5,0.6,3.2,1.7l0,0l0.1-1.4L192.1,26.8L192.1,26.8z M190.1,30.5
			c0-0.3,0-0.6-0.1-0.7c-0.4-1.1-1.4-1.9-2.6-1.9c-1.8,0-3,1.4-3,3.5c0,1.9,1,3.4,3,3.4c1.1,0,2.1-0.7,2.6-1.7
			c0.1-0.3,0.2-0.6,0.2-0.9L190.1,30.5L190.1,30.5z"/>
		<path class="st6" d="M194.9,29.4c0-0.9,0-1.8-0.1-2.5h1.7l0.1,1.6l0,0c0.7-1.1,2.1-1.8,3.4-1.8c1.4,0,3.6,0.7,3.6,3.9v5.6h-1.9
			v-5.4c0-1.5-0.6-2.7-2.3-2.7c-1.1,0-2.1,0.7-2.5,1.7c-0.1,0.3-0.1,0.5-0.1,0.7v5.6H195L194.9,29.4L194.9,29.4z"/>
	</g>
</g>
<g>
	<polygon class="st1" points="268.1,43.4 269.2,45.9 271.5,47.4 269,48.5 267.5,50.7 266.4,48.3 264.1,46.8 266.6,45.7 	"/>
	<polygon class="st1" points="281.4,59.9 281.9,61 282.9,61.7 281.8,62.2 281.2,63.2 280.7,62.1 279.6,61.4 280.8,60.9 	"/>
	<polygon class="st1" points="245,50.9 244,53.5 244.6,56.1 242.1,55.2 239.4,55.7 240.4,53.2 239.8,50.5 242.4,51.5 	"/>
	<polygon class="st1" points="272.4,26.2 272,27.3 272.2,28.5 271.1,28.1 269.9,28.3 270.3,27.2 270.1,26 271.2,26.4 	"/>
</g>
<g>
	<polygon class="st0" points="224.4,111.7 225.6,114.1 227.8,115.6 225.3,116.7 223.8,119 222.8,116.5 220.4,115 222.9,113.9 	"/>
	<polygon class="st0" points="237.8,128.2 238.2,129.3 239.2,129.9 238.1,130.4 237.4,131.5 236.9,130.4 235.9,129.7 237.1,129.2 	
		"/>
	<polygon class="st0" points="201.3,119.2 200.3,121.7 200.9,124.4 198.3,123.4 195.8,124 196.6,121.5 196.1,118.8 198.6,119.8 	"/>
	<polygon class="st0" points="228.6,94.4 228.2,95.6 228.6,96.8 227.3,96.3 226.1,96.6 226.6,95.5 226.3,94.3 227.6,94.7 	"/>
</g>
<g>
	<path class="st0" d="M26.8,63.4c0,3.3-0.8,5.9-2.4,7.6c-1.6,1.7-4,2.6-7.2,2.6c-3.1,0-5.5-0.9-7.1-2.6c-1.7-1.7-2.5-4.3-2.5-7.6
		c0-3.3,0.8-5.8,2.5-7.5c1.6-1.7,4-2.6,7.2-2.6c3.1,0,5.5,0.9,7.1,2.6C26,57.6,26.8,60.1,26.8,63.4z M13.2,63.4c0,3.8,1.3,5.7,4,5.7
		c1.4,0,2.4-0.5,3-1.4c0.7-0.9,1-2.4,1-4.3c0-2-0.3-3.4-1-4.4c-0.7-0.9-1.7-1.4-3-1.4C14.6,57.6,13.2,59.6,13.2,63.4z"/>
	<path class="st0" d="M41,73.3l-0.7-1.9H40c-0.4,0.7-1.1,1.2-1.8,1.6c-0.8,0.4-1.7,0.6-2.8,0.6c-1.7,0-3-0.5-3.9-1.5
		c-0.9-1-1.4-2.4-1.4-4.1V58h5.3v8.4c0,1,0.1,1.8,0.4,2.3s0.8,0.8,1.4,0.8c0.9,0,1.6-0.4,1.9-1.1c0.4-0.7,0.6-1.9,0.6-3.6V58H45
		v15.3H41z"/>
	<path class="st0" d="M57.9,57.8c0.5,0,0.9,0,1.3,0.1l0.3,0.1l-0.5,5c-0.4-0.1-1-0.2-1.8-0.2c-1.2,0-2,0.3-2.5,0.8s-0.8,1.3-0.8,2.3
		v7.5h-5.3V58h3.9l0.8,2.4h0.3c0.4-0.8,1.1-1.5,1.8-2C56.3,58,57.1,57.8,57.9,57.8z"/>
	<path class="st0" d="M67.7,80c-1,0-1.7-0.1-2.4-0.3v-2.5c0.6,0.2,1.2,0.2,1.9,0.2c1.4,0,2-0.8,2-2.3V58.4h3.2v16.9
		c0,1.5-0.4,2.7-1.2,3.5C70.4,79.6,69.3,80,67.7,80z M69.1,54.4c0-0.6,0.2-1,0.5-1.3c0.3-0.3,0.8-0.5,1.3-0.5c0.6,0,1,0.2,1.3,0.5
		c0.3,0.3,0.5,0.7,0.5,1.3c0,0.5-0.2,1-0.5,1.3c-0.3,0.3-0.7,0.5-1.3,0.5c-0.6,0-1-0.2-1.3-0.5C69.2,55.4,69.1,55,69.1,54.4z"/>
	<path class="st0" d="M90.2,65.8c0,2.4-0.6,4.3-1.9,5.7s-3,2.1-5.2,2.1c-1.4,0-2.6-0.3-3.7-0.9c-1.1-0.6-1.9-1.5-2.5-2.7
		c-0.6-1.2-0.9-2.5-0.9-4.1c0-2.4,0.6-4.3,1.9-5.7c1.2-1.4,3-2,5.3-2c2.2,0,3.9,0.7,5.1,2.1C89.6,61.6,90.2,63.5,90.2,65.8z
		 M79.4,65.8c0,3.5,1.3,5.2,3.8,5.2c2.5,0,3.8-1.7,3.8-5.2c0-3.4-1.3-5.1-3.8-5.1c-1.3,0-2.3,0.4-2.9,1.3
		C79.7,62.9,79.4,64.2,79.4,65.8z"/>
	<path class="st0" d="M104.4,73.3l-0.4-2h-0.2c-0.4,0.7-1.1,1.2-1.9,1.6c-0.8,0.4-1.7,0.6-2.8,0.6c-1.8,0-3.2-0.5-4.1-1.4
		c-0.9-0.9-1.3-2.3-1.3-4.1v-9.8H97v9.2c0,1.1,0.2,2,0.7,2.6c0.5,0.6,1.2,0.9,2.2,0.9c1.3,0,2.3-0.4,2.9-1.2c0.6-0.8,0.9-2.1,0.9-4
		v-7.4h3.2v14.9H104.4z"/>
	<path class="st0" d="M119.1,58.1c0.6,0,1.2,0,1.6,0.1l-0.3,3c-0.5-0.1-0.9-0.2-1.4-0.2c-1.3,0-2.3,0.4-3.1,1.2
		c-0.8,0.8-1.2,1.9-1.2,3.2v7.8h-3.2V58.4h2.5l0.4,2.6h0.2c0.5-0.9,1.1-1.6,1.9-2.1C117.3,58.4,118.1,58.1,119.1,58.1z"/>
	<path class="st0" d="M136.6,73.3h-3.2v-9.2c0-1.2-0.2-2-0.7-2.6c-0.5-0.6-1.2-0.9-2.2-0.9c-1.3,0-2.3,0.4-2.9,1.2
		c-0.6,0.8-0.9,2.1-0.9,4v7.4h-3.2V58.4h2.5l0.4,2h0.2c0.5-0.7,1.1-1.3,1.9-1.6c0.8-0.4,1.7-0.6,2.8-0.6c3.6,0,5.4,1.8,5.4,5.5V73.3
		z"/>
	<path class="st0" d="M147.5,73.6c-2.3,0-4.1-0.7-5.5-2c-1.3-1.4-2-3.2-2-5.6c0-2.4,0.6-4.4,1.8-5.8c1.2-1.4,2.9-2.1,5-2.1
		c2,0,3.5,0.6,4.7,1.8c1.1,1.2,1.7,2.8,1.7,4.9v1.7h-10c0,1.5,0.4,2.6,1.2,3.3c0.7,0.8,1.8,1.2,3.1,1.2c0.9,0,1.7-0.1,2.5-0.2
		c0.8-0.2,1.6-0.4,2.5-0.8v2.6c-0.8,0.4-1.6,0.6-2.4,0.8C149.4,73.5,148.5,73.6,147.5,73.6z M146.9,60.5c-1,0-1.8,0.3-2.4,1
		c-0.6,0.6-1,1.6-1.1,2.8h6.8c0-1.2-0.3-2.2-0.9-2.8S147.9,60.5,146.9,60.5z"/>
	<path class="st0" d="M154.7,58.4h3.5l3,8.5c0.5,1.2,0.8,2.3,0.9,3.4h0.1c0.1-0.5,0.2-1.1,0.4-1.8s1.4-4.1,3.4-10.1h3.4l-6.4,16.9
		c-1.2,3.1-3.1,4.7-5.8,4.7c-0.7,0-1.4-0.1-2.1-0.2v-2.5c0.5,0.1,1,0.2,1.6,0.2c1.5,0,2.6-0.9,3.2-2.7l0.6-1.4L154.7,58.4z"/>
	<path class="st0" d="M7.9,87.4c0-0.8,0.2-1.4,0.7-1.8c0.4-0.4,1.2-0.6,2.1-0.6c1,0,1.7,0.2,2.1,0.6s0.7,1,0.7,1.8
		c0,1.5-0.9,2.3-2.8,2.3C8.9,89.8,7.9,89,7.9,87.4z M13.4,106.6H8.1V91.2h5.3V106.6z"/>
	<path class="st0" d="M26.7,106.6v-8.4c0-1-0.1-1.8-0.4-2.3c-0.3-0.5-0.8-0.8-1.4-0.8c-0.9,0-1.5,0.4-1.9,1.1s-0.6,1.9-0.6,3.7v6.7
		H17V91.2h4l0.7,1.9H22c0.5-0.7,1.1-1.3,1.9-1.6s1.7-0.5,2.8-0.5c1.7,0,3,0.5,4,1.5c0.9,1,1.4,2.4,1.4,4.1v10H26.7z"/>
	<path class="st0" d="M54.6,101.9c0,1.6-0.6,2.9-1.7,3.7c-1.1,0.8-2.7,1.3-4.8,1.3c-1.1,0-2.1-0.1-3-0.2s-1.7-0.3-2.6-0.7v-4.2
		c0.8,0.4,1.7,0.7,2.7,0.9c1,0.2,1.8,0.4,2.6,0.4c1.1,0,1.7-0.3,1.7-0.8c0-0.3-0.2-0.5-0.5-0.7s-1.2-0.6-2.8-1.2
		c-1.4-0.6-2.4-1.2-2.9-2s-0.8-1.7-0.8-2.8c0-1.4,0.5-2.5,1.6-3.3c1.1-0.8,2.7-1.2,4.7-1.2c1,0,2,0.1,2.8,0.3s1.8,0.5,2.8,1
		l-1.4,3.4c-0.7-0.3-1.4-0.6-2.2-0.8c-0.8-0.2-1.4-0.3-1.9-0.3c-0.9,0-1.3,0.2-1.3,0.6c0,0.3,0.2,0.5,0.5,0.7
		c0.3,0.2,1.2,0.6,2.6,1.1c1.1,0.4,1.9,0.9,2.4,1.3c0.5,0.4,0.9,0.9,1.2,1.5C54.5,100.3,54.6,101,54.6,101.9z"/>
	<path class="st0" d="M68.4,106.6l-0.7-1.9h-0.3c-0.4,0.7-1.1,1.2-1.8,1.6c-0.8,0.4-1.7,0.6-2.8,0.6c-1.7,0-3-0.5-3.9-1.5
		c-0.9-1-1.4-2.4-1.4-4.1v-10h5.3v8.4c0,1,0.1,1.8,0.4,2.3s0.8,0.8,1.4,0.8c0.9,0,1.6-0.4,1.9-1.1c0.4-0.7,0.6-1.9,0.6-3.6v-6.7h5.3
		v15.3H68.4z"/>
	<path class="st0" d="M85.3,106.8c-0.8,0-1.5-0.1-2.1-0.4s-1.2-0.7-1.8-1.4h-0.2c0.2,1.1,0.2,1.7,0.2,2v6.2h-5.3v-22h4.3l0.7,1.9
		h0.2c1-1.5,2.3-2.2,4.1-2.2c1.7,0,3,0.7,4,2.1c1,1.4,1.4,3.3,1.4,5.8c0,2.5-0.5,4.4-1.5,5.8S87,106.8,85.3,106.8z M83.5,95.1
		c-0.8,0-1.3,0.3-1.6,0.8c-0.3,0.6-0.5,1.4-0.5,2.5v0.4c0,1.3,0.2,2.3,0.5,2.9c0.4,0.6,0.9,0.9,1.7,0.9c0.7,0,1.2-0.3,1.5-0.9
		s0.5-1.5,0.5-2.9c0-1.3-0.2-2.3-0.5-2.8S84.2,95.1,83.5,95.1z"/>
	<path class="st0" d="M103.1,106.8c-0.8,0-1.5-0.1-2.1-0.4s-1.2-0.7-1.8-1.4h-0.2c0.2,1.1,0.2,1.7,0.2,2v6.2h-5.3v-22h4.3l0.7,1.9
		h0.2c1-1.5,2.3-2.2,4.1-2.2c1.7,0,3,0.7,4,2.1c1,1.4,1.4,3.3,1.4,5.8c0,2.5-0.5,4.4-1.5,5.8S104.8,106.8,103.1,106.8z M101.3,95.1
		c-0.8,0-1.3,0.3-1.6,0.8c-0.3,0.6-0.5,1.4-0.5,2.5v0.4c0,1.3,0.2,2.3,0.5,2.9c0.4,0.6,0.9,0.9,1.7,0.9c0.7,0,1.2-0.3,1.5-0.9
		s0.5-1.5,0.5-2.9c0-1.3-0.2-2.3-0.5-2.8S102,95.1,101.3,95.1z"/>
	<path class="st0" d="M126.3,98.9c0,2.5-0.7,4.5-2,5.9c-1.3,1.4-3.2,2.1-5.7,2.1c-2.3,0-4.2-0.7-5.5-2.1s-2.1-3.4-2.1-5.8
		c0-2.5,0.7-4.4,2-5.8c1.3-1.4,3.2-2.1,5.7-2.1c1.5,0,2.8,0.3,4,1c1.2,0.6,2,1.6,2.7,2.8C126,95.9,126.3,97.3,126.3,98.9z
		 M116.4,98.9c0,1.3,0.2,2.3,0.5,3c0.4,0.7,0.9,1,1.8,1c0.8,0,1.4-0.3,1.7-1s0.5-1.7,0.5-3c0-1.3-0.2-2.3-0.5-3
		c-0.3-0.7-0.9-1-1.8-1c-0.8,0-1.4,0.3-1.7,1C116.6,96.6,116.4,97.6,116.4,98.9z"/>
	<path class="st0" d="M138.6,91c0.5,0,0.9,0,1.3,0.1l0.3,0.1l-0.5,5c-0.4-0.1-1-0.2-1.8-0.2c-1.2,0-2,0.3-2.5,0.8
		c-0.5,0.5-0.8,1.3-0.8,2.3v7.5h-5.3V91.2h3.9l0.8,2.4h0.3c0.4-0.8,1.1-1.5,1.8-2S137.8,91,138.6,91z"/>
	<path class="st0" d="M149.8,102.7c0.7,0,1.6-0.2,2.6-0.5v3.9c-0.7,0.3-1.4,0.5-2,0.7c-0.6,0.1-1.4,0.2-2.3,0.2
		c-1.8,0-3.1-0.4-3.8-1.3c-0.8-0.9-1.2-2.2-1.2-4v-6.3h-1.9v-2.1l2.4-1.7l1.4-3.2h3.5v3.1h3.8v4h-3.8v6
		C148.4,102.2,148.9,102.7,149.8,102.7z"/>
	<path class="st0" d="M154.9,87.4c0-0.8,0.2-1.4,0.7-1.8c0.4-0.4,1.2-0.6,2.1-0.6c1,0,1.7,0.2,2.1,0.6s0.7,1,0.7,1.8
		c0,1.5-0.9,2.3-2.8,2.3C155.9,89.8,154.9,89,154.9,87.4z M160.4,106.6h-5.3V91.2h5.3V106.6z"/>
	<path class="st0" d="M173.7,106.6v-8.4c0-1-0.1-1.8-0.4-2.3c-0.3-0.5-0.8-0.8-1.4-0.8c-0.9,0-1.5,0.4-1.9,1.1s-0.6,1.9-0.6,3.7v6.7
		H164V91.2h4l0.7,1.9h0.3c0.5-0.7,1.1-1.3,1.9-1.6s1.7-0.5,2.8-0.5c1.7,0,3,0.5,4,1.5c0.9,1,1.4,2.4,1.4,4.1v10H173.7z"/>
	<path class="st0" d="M197,91.2v2.6l-2.1,0.8c0.3,0.5,0.4,1.1,0.4,1.8c0,1.6-0.6,2.9-1.7,3.8c-1.2,0.9-2.9,1.4-5.2,1.4
		c-0.6,0-1,0-1.4-0.1c-0.1,0.2-0.2,0.5-0.2,0.7c0,0.3,0.2,0.5,0.6,0.6c0.4,0.1,1,0.2,1.7,0.2h2.5c3.4,0,5.1,1.4,5.1,4.3
		c0,1.9-0.8,3.3-2.4,4.4s-3.8,1.6-6.7,1.6c-2.2,0-3.8-0.4-5-1.1c-1.2-0.7-1.8-1.8-1.8-3.1c0-1.8,1.1-3,3.4-3.5
		c-0.5-0.2-0.9-0.5-1.2-1c-0.3-0.4-0.5-0.9-0.5-1.3c0-0.5,0.1-0.9,0.4-1.3c0.3-0.4,0.8-0.8,1.6-1.3c-0.8-0.4-1.4-0.9-1.9-1.6
		c-0.5-0.7-0.7-1.7-0.7-2.7c0-1.7,0.6-3,1.7-3.9c1.1-0.9,2.8-1.4,4.9-1.4c0.3,0,0.8,0,1.4,0.1c0.7,0.1,1.2,0.1,1.5,0.2H197z
		 M185.5,108.5c0,0.4,0.2,0.8,0.7,1c0.5,0.3,1.1,0.4,1.9,0.4c1.3,0,2.3-0.2,3.1-0.5c0.8-0.3,1.2-0.7,1.2-1.2c0-0.4-0.2-0.7-0.7-0.9
		c-0.5-0.2-1.1-0.2-2-0.2h-2.1c-0.6,0-1,0.1-1.4,0.4C185.7,107.7,185.5,108.1,185.5,108.5z M187.2,96.3c0,1.6,0.5,2.4,1.6,2.4
		c0.5,0,0.9-0.2,1.2-0.6c0.3-0.4,0.4-1,0.4-1.7c0-1.6-0.5-2.4-1.6-2.4C187.7,93.9,187.2,94.7,187.2,96.3z"/>
	<path class="st0" d="M21.2,139.8l-1.7-7.3l-0.4-2.2l-0.3-1.8h-0.1c-0.4,2.5-0.7,4.1-0.9,4.8l-1.6,6.5h-5.6l-4.2-15.3h5.2l1.2,5.9
		c0.4,2,0.6,3.7,0.7,5h0.1c0-0.8,0.3-2.4,0.7-4.7l1.4-6.2h5.8l1.3,6.3c0.4,2,0.7,3.5,0.8,4.6h0.1c0.1-0.7,0.1-1.5,0.3-2.6
		c0.1-1,0.3-1.8,0.4-2.5l1.4-5.9h5.1l-4.2,15.3H21.2z"/>
	<path class="st0" d="M47.9,132.1c0,2.5-0.7,4.5-2,5.9c-1.3,1.4-3.2,2.1-5.7,2.1c-2.3,0-4.2-0.7-5.5-2.1s-2.1-3.4-2.1-5.8
		c0-2.5,0.7-4.4,2-5.8c1.3-1.4,3.2-2.1,5.7-2.1c1.5,0,2.8,0.3,4,1c1.2,0.6,2,1.6,2.7,2.8C47.5,129.1,47.9,130.5,47.9,132.1z
		 M37.9,132.1c0,1.3,0.2,2.3,0.5,3c0.4,0.7,0.9,1,1.8,1c0.8,0,1.4-0.3,1.7-1s0.5-1.7,0.5-3c0-1.3-0.2-2.3-0.5-3
		c-0.3-0.7-0.9-1-1.8-1c-0.8,0-1.4,0.3-1.7,1C38.1,129.8,37.9,130.8,37.9,132.1z"/>
	<path class="st0" d="M69.7,139.8v-8.3c0-1-0.1-1.8-0.4-2.3c-0.3-0.5-0.7-0.8-1.3-0.8c-0.8,0-1.4,0.3-1.8,1
		c-0.4,0.7-0.6,1.8-0.6,3.3v7.1h-5.3v-8.3c0-1-0.1-1.8-0.4-2.3c-0.3-0.5-0.7-0.8-1.3-0.8c-0.8,0-1.4,0.4-1.8,1.1
		c-0.4,0.7-0.6,1.9-0.6,3.6v6.7h-5.3v-15.3h4l0.7,1.9h0.3c0.4-0.7,1-1.2,1.8-1.6c0.8-0.4,1.6-0.6,2.6-0.6c2.2,0,3.8,0.7,4.6,2h0.4
		c0.4-0.6,1-1.1,1.8-1.5c0.8-0.4,1.6-0.5,2.5-0.5c1.8,0,3.1,0.5,4,1.4c0.9,0.9,1.3,2.3,1.3,4.2v10H69.7z"/>
	<path class="st0" d="M86,140c-2.6,0-4.5-0.7-5.9-2c-1.4-1.4-2.1-3.3-2.1-5.8c0-2.6,0.7-4.6,2-6c1.3-1.4,3.2-2.1,5.6-2.1
		c2.3,0,4.1,0.6,5.3,1.8c1.3,1.2,1.9,2.9,1.9,5.2v2.4h-9.4c0,0.9,0.3,1.5,0.9,2c0.6,0.5,1.4,0.7,2.4,0.7c0.9,0,1.8-0.1,2.6-0.3
		c0.8-0.2,1.6-0.5,2.5-0.9v3.8c-0.8,0.4-1.7,0.7-2.6,0.9S87.2,140,86,140z M85.6,127.8c-0.6,0-1.1,0.2-1.6,0.6
		c-0.4,0.4-0.7,1-0.7,1.8h4.5c0-0.7-0.2-1.3-0.6-1.8C86.9,128,86.3,127.8,85.6,127.8z"/>
	<path class="st0" d="M105.3,139.8v-8.4c0-1-0.1-1.8-0.4-2.3c-0.3-0.5-0.8-0.8-1.4-0.8c-0.9,0-1.5,0.4-1.9,1.1s-0.6,1.9-0.6,3.7v6.7
		h-5.3v-15.3h4l0.7,1.9h0.3c0.5-0.7,1.1-1.3,1.9-1.6s1.7-0.5,2.8-0.5c1.7,0,3,0.5,4,1.5c0.9,1,1.4,2.4,1.4,4.1v10H105.3z"/>
</g>
</svg>
