<svg id="Layer_1" data-name="Layer 1" xmlns="http://www.w3.org/2000/svg" viewBox="0 0 363.08 51.77"><defs><style>.cls-1{fill:#3e95aa;}.cls-2{fill:#fff;}</style></defs><rect class="cls-1" width="363.08" height="51.77" rx="25.88"/><path class="cls-2" d="M22.66,23.21h-.87l1.57-7.45h3.73l-.15.78H24.05l-.55,2.72h2.68L26,20H23.33Z" transform="translate(-1.12 0)"/><path class="cls-2" d="M29.7,23.21l-.84-6.6h0c0,.24-.08.58-.15,1s-.14.77-.19,1l-1,4.58h-.82l1.57-7.45H29.5l.76,6.13h0l3.35-6.13H35l-1.54,7.45h-.88c.43-2,.75-3.54,1-4.61s.39-1.74.48-2h0l-3.65,6.61Z" transform="translate(-1.12 0)"/><path class="cls-2" d="M37.45,23.21h-.88L38,16.53H35.92l.17-.77h5l-.15.77H38.87Z" transform="translate(-1.12 0)"/><path class="cls-2" d="M44,23.21h-.85l1.19-5.58h.85Zm.58-7a.67.67,0,0,1,.16-.47.54.54,0,0,1,.42-.18.4.4,0,0,1,.45.46.68.68,0,0,1-.17.47.54.54,0,0,1-.4.2.45.45,0,0,1-.46-.48Z" transform="translate(-1.12 0)"/><path class="cls-2" d="M49.24,21.62a1.48,1.48,0,0,1-.57,1.24,2.46,2.46,0,0,1-1.58.45A3.43,3.43,0,0,1,45.54,23v-.81a2.64,2.64,0,0,0,.77.33,2.72,2.72,0,0,0,.76.12,1.56,1.56,0,0,0,1-.25.81.81,0,0,0,.32-.66.68.68,0,0,0-.18-.48,3.29,3.29,0,0,0-.76-.55,3.09,3.09,0,0,1-.94-.73,1.36,1.36,0,0,1-.27-.84A1.43,1.43,0,0,1,46.72,18a2.06,2.06,0,0,1,1.35-.43,4,4,0,0,1,1.68.38l-.28.7-.28-.13a2.9,2.9,0,0,0-1.12-.22,1.18,1.18,0,0,0-.74.22.72.72,0,0,0-.27.58.72.72,0,0,0,.18.49,3.23,3.23,0,0,0,.75.52,4.69,4.69,0,0,1,.78.52,1.73,1.73,0,0,1,.35.48A1.25,1.25,0,0,1,49.24,21.62Z" transform="translate(-1.12 0)"/><path class="cls-2" d="M55.43,23.31a1.46,1.46,0,0,1-.86-.26,1.64,1.64,0,0,1-.58-.71h-.05l0,.19c0,.09,0,.21-.05.36s-.22,1.09-.58,2.82h-.85l1.71-8.08h.7l-.13,1.06h0a2.51,2.51,0,0,1,1.89-1.16,1.34,1.34,0,0,1,1.1.5,2.15,2.15,0,0,1,.4,1.39,5.28,5.28,0,0,1-.35,2,3.29,3.29,0,0,1-1,1.41A2.18,2.18,0,0,1,55.43,23.31Zm.94-5.07a1.46,1.46,0,0,0-1,.49,3.37,3.37,0,0,0-.8,1.21,3.94,3.94,0,0,0-.3,1.5,1.23,1.23,0,0,0,.28.86,1.07,1.07,0,0,0,.82.3,1.38,1.38,0,0,0,.94-.41A2.86,2.86,0,0,0,57,21a4.73,4.73,0,0,0,.27-1.61C57.28,18.63,57,18.24,56.37,18.24Z" transform="translate(-1.12 0)"/><path class="cls-2" d="M62.49,17.52a2.25,2.25,0,0,1,.61.08l-.19.76a1.93,1.93,0,0,0-.53-.07,1.38,1.38,0,0,0-.87.31,2.52,2.52,0,0,0-.7.85,4.52,4.52,0,0,0-.45,1.2l-.54,2.56H59l1.18-5.58h.71l-.11,1h0a6.55,6.55,0,0,1,.6-.7,1.74,1.74,0,0,1,.51-.32A1.34,1.34,0,0,1,62.49,17.52Z" transform="translate(-1.12 0)"/><path class="cls-2" d="M66.05,17.55a2,2,0,0,1,1.53.58,2.15,2.15,0,0,1,.56,1.57,4.44,4.44,0,0,1-.37,1.81,3.08,3.08,0,0,1-1,1.32,2.38,2.38,0,0,1-1.41.46,2,2,0,0,1-1.53-.58,2.17,2.17,0,0,1-.56-1.57,4.46,4.46,0,0,1,.38-1.82,3,3,0,0,1,1-1.31A2.34,2.34,0,0,1,66.05,17.55Zm1.2,2a1.39,1.39,0,0,0-.31-.95,1.08,1.08,0,0,0-.87-.37,1.48,1.48,0,0,0-1,.38,2.43,2.43,0,0,0-.68,1.05,4.35,4.35,0,0,0-.24,1.49,1.55,1.55,0,0,0,.32,1,1.2,1.2,0,0,0,.93.36,1.39,1.39,0,0,0,1-.37A2.47,2.47,0,0,0,67,21.15,5,5,0,0,0,67.25,19.59Z" transform="translate(-1.12 0)"/><path class="cls-2" d="M70.92,17.63l-.77,3.53a4,4,0,0,0-.09.71.65.65,0,0,0,.75.73,1.53,1.53,0,0,0,.88-.3,2.77,2.77,0,0,0,.76-.88A4.56,4.56,0,0,0,73,20l.51-2.41h.85l-1.18,5.58h-.7l.11-1h-.06a3.46,3.46,0,0,1-1,.89,1.92,1.92,0,0,1-.94.25,1.45,1.45,0,0,1-1-.35,1.35,1.35,0,0,1-.37-1,5.09,5.09,0,0,1,.11-.87l.74-3.44Z" transform="translate(-1.12 0)"/><path class="cls-2" d="M77.88,17.53a1.48,1.48,0,0,1,1.42,1h.06a11.3,11.3,0,0,1,.22-1.39l.4-1.83h.84l-1.67,7.93h-.71l.11-1.07h0a3.54,3.54,0,0,1-1,.9,1.75,1.75,0,0,1-.92.27,1.36,1.36,0,0,1-1.11-.5,2.19,2.19,0,0,1-.39-1.39,5.34,5.34,0,0,1,.36-2,3.4,3.4,0,0,1,1-1.4A2.2,2.2,0,0,1,77.88,17.53Zm-1,5.07a1.48,1.48,0,0,0,1-.48,3.28,3.28,0,0,0,.8-1.21A4,4,0,0,0,79,19.4a1.22,1.22,0,0,0-.27-.86,1,1,0,0,0-.8-.3,1.35,1.35,0,0,0-1,.42,3,3,0,0,0-.71,1.18,4.76,4.76,0,0,0-.27,1.6C76,22.22,76.31,22.6,76.91,22.6Z" transform="translate(-1.12 0)"/><path class="cls-2" d="M85.35,22.61a2.68,2.68,0,0,0,.73-.13v.66l-.43.12a2.5,2.5,0,0,1-.41,0,1.43,1.43,0,0,1-1-.3,1.2,1.2,0,0,1-.34-.91,3.18,3.18,0,0,1,.1-.76l.64-3.07H83.8l.07-.37.94-.4.63-1.16h.5l-.28,1.29h1.39l-.13.64H85.53l-.65,3.08a3.64,3.64,0,0,0-.09.67.64.64,0,0,0,.14.44A.57.57,0,0,0,85.35,22.61Z" transform="translate(-1.12 0)"/><path class="cls-2" d="M90,17.55a2,2,0,0,1,1.52.58,2.11,2.11,0,0,1,.56,1.57,4.6,4.6,0,0,1-.36,1.81,3.24,3.24,0,0,1-1,1.32,2.39,2.39,0,0,1-1.42.46,2,2,0,0,1-1.53-.58,2.21,2.21,0,0,1-.55-1.57,4.45,4.45,0,0,1,.37-1.82,3.08,3.08,0,0,1,1-1.31A2.37,2.37,0,0,1,90,17.55Zm1.2,2a1.4,1.4,0,0,0-.32-.95,1.06,1.06,0,0,0-.86-.37,1.48,1.48,0,0,0-1,.38,2.34,2.34,0,0,0-.68,1.05,4.35,4.35,0,0,0-.25,1.49,1.5,1.5,0,0,0,.33,1,1.16,1.16,0,0,0,.92.36,1.37,1.37,0,0,0,1-.37,2.3,2.3,0,0,0,.66-1.06A4.69,4.69,0,0,0,91.18,19.59Z" transform="translate(-1.12 0)"/><path class="cls-2" d="M98,23.31a1.48,1.48,0,0,1-.86-.26,1.53,1.53,0,0,1-.56-.71h-.06l-.35.87h-.64l1.68-7.93h.85l-.39,1.89q-.15.66-.39,1.53h0a3.42,3.42,0,0,1,.93-.88,1.79,1.79,0,0,1,1-.29,1.36,1.36,0,0,1,1.12.51,2.2,2.2,0,0,1,.4,1.38,5.47,5.47,0,0,1-.35,2,3.35,3.35,0,0,1-1,1.41A2.18,2.18,0,0,1,98,23.31Zm1-5.07a1.46,1.46,0,0,0-1,.49,3.5,3.5,0,0,0-.8,1.21,3.94,3.94,0,0,0-.3,1.5,1.19,1.19,0,0,0,.29.86,1,1,0,0,0,.81.3,1.36,1.36,0,0,0,.94-.41,3,3,0,0,0,.7-1.18,5,5,0,0,0,.26-1.61C99.87,18.63,99.57,18.24,99,18.24Z" transform="translate(-1.12 0)"/><path class="cls-2" d="M103.76,23.31a2,2,0,0,1-1.47-.56,2.14,2.14,0,0,1-.53-1.53,4.49,4.49,0,0,1,.38-1.84,3.35,3.35,0,0,1,1-1.37,2.24,2.24,0,0,1,1.38-.49,1.81,1.81,0,0,1,1.17.34,1.19,1.19,0,0,1,.39.95,1.61,1.61,0,0,1-.85,1.44,4.66,4.66,0,0,1-2.41.52h-.17l0,.41a1.63,1.63,0,0,0,.31,1,1.2,1.2,0,0,0,1,.37,2.56,2.56,0,0,0,.66-.09,4.21,4.21,0,0,0,.84-.34v.75a4.68,4.68,0,0,1-.84.31A3.47,3.47,0,0,1,103.76,23.31Zm.71-5.06a1.37,1.37,0,0,0-1,.48,3.16,3.16,0,0,0-.7,1.33h.06a4.23,4.23,0,0,0,1.78-.3,1,1,0,0,0,.61-.88.61.61,0,0,0-.18-.45A.82.82,0,0,0,104.47,18.25Z" transform="translate(-1.12 0)"/><path class="cls-2" d="M111.1,22.61a2.62,2.62,0,0,0,.73-.13v.66l-.42.12a2.63,2.63,0,0,1-.41,0,1.41,1.41,0,0,1-1-.3,1.16,1.16,0,0,1-.34-.91,3.71,3.71,0,0,1,.09-.76l.65-3.07h-.88l.07-.37.94-.4.64-1.16h.5l-.28,1.29h1.39l-.13.64h-1.39l-.66,3.08a3.64,3.64,0,0,0-.09.67.6.6,0,0,0,.15.44A.56.56,0,0,0,111.1,22.61Z" transform="translate(-1.12 0)"/><path class="cls-2" d="M116.17,23.21l.75-3.53A3.62,3.62,0,0,0,117,19a.67.67,0,0,0-.75-.76,1.51,1.51,0,0,0-.88.3,2.57,2.57,0,0,0-.76.88,4.85,4.85,0,0,0-.5,1.38l-.51,2.41h-.85l1.67-7.93h.86q-.09.42-.18.81c-.05.26-.11.53-.17.8s-.12.55-.19.85-.15.61-.24,1h0a3.39,3.39,0,0,1,.94-.9,1.93,1.93,0,0,1,1-.27,1.27,1.27,0,0,1,1.39,1.41,4,4,0,0,1-.12.84c-.13.66-.38,1.8-.73,3.43Z" transform="translate(-1.12 0)"/><path class="cls-2" d="M121,23.31a1.92,1.92,0,0,1-1.46-.56,2.1,2.1,0,0,1-.54-1.53,4.66,4.66,0,0,1,.38-1.84,3.44,3.44,0,0,1,1-1.37,2.24,2.24,0,0,1,1.38-.49,1.77,1.77,0,0,1,1.17.34,1.19,1.19,0,0,1,.39.95,1.62,1.62,0,0,1-.84,1.44,4.7,4.7,0,0,1-2.42.52h-.16l0,.41a1.57,1.57,0,0,0,.31,1,1.19,1.19,0,0,0,1,.37,2.48,2.48,0,0,0,.65-.09,4.51,4.51,0,0,0,.85-.34v.75a4.49,4.49,0,0,1-.85.31A3.35,3.35,0,0,1,121,23.31Zm.71-5.06a1.34,1.34,0,0,0-1,.48,3.17,3.17,0,0,0-.71,1.33h.06a4.17,4.17,0,0,0,1.78-.3,1,1,0,0,0,.62-.88.58.58,0,0,0-.19-.45A.81.81,0,0,0,121.68,18.25Z" transform="translate(-1.12 0)"/><path class="cls-2" d="M127.46,23.21h-.85l1.19-5.58h.85Zm.58-7a.67.67,0,0,1,.16-.47.54.54,0,0,1,.42-.18.4.4,0,0,1,.45.46.68.68,0,0,1-.17.47.54.54,0,0,1-.4.2.45.45,0,0,1-.46-.48Z" transform="translate(-1.12 0)"/><path class="cls-2" d="M132.49,23.21l.75-3.53a4.34,4.34,0,0,0,.09-.68.85.85,0,0,0-.16-.56.65.65,0,0,0-.54-.2,1.34,1.34,0,0,0-.83.31,2.64,2.64,0,0,0-.71.87,5.23,5.23,0,0,0-.47,1.37l-.52,2.42h-.85l1.19-5.58h.71l-.12,1h.05a3.28,3.28,0,0,1,.89-.87,1.68,1.68,0,0,1,.9-.27,1.16,1.16,0,0,1,.89.33,1.54,1.54,0,0,1,.36.93h0a3.51,3.51,0,0,1,.93-1,1.92,1.92,0,0,1,1-.31,1.22,1.22,0,0,1,1.35,1.36,5.15,5.15,0,0,1-.11.9l-.73,3.43h-.87l.76-3.53a5.66,5.66,0,0,0,.1-.74.72.72,0,0,0-.18-.51.73.73,0,0,0-.55-.19,1.36,1.36,0,0,0-.81.3,2.57,2.57,0,0,0-.71.83,4.88,4.88,0,0,0-.46,1.29l-.54,2.55Z" transform="translate(-1.12 0)"/><path class="cls-2" d="M140.79,23.31a1.5,1.5,0,0,1-.86-.26,1.56,1.56,0,0,1-.57-.71h-.05l0,.19q0,.13-.06.36c0,.15-.22,1.09-.58,2.82h-.84l1.7-8.08h.71l-.13,1.06h0A2.51,2.51,0,0,1,142,17.53a1.35,1.35,0,0,1,1.1.5,2.21,2.21,0,0,1,.4,1.39,5.49,5.49,0,0,1-.35,2,3.38,3.38,0,0,1-1,1.41A2.21,2.21,0,0,1,140.79,23.31Zm1-5.07a1.44,1.44,0,0,0-1,.49,3.39,3.39,0,0,0-.81,1.21,4.12,4.12,0,0,0-.29,1.5,1.19,1.19,0,0,0,.28.86,1.06,1.06,0,0,0,.81.3,1.36,1.36,0,0,0,.94-.41,3,3,0,0,0,.7-1.18,4.73,4.73,0,0,0,.26-1.61C142.64,18.63,142.34,18.24,141.74,18.24Z" transform="translate(-1.12 0)"/><path class="cls-2" d="M145.17,23.21h-.85L146,15.28h.85Z" transform="translate(-1.12 0)"/><path class="cls-2" d="M149.17,23.31a1.92,1.92,0,0,1-1.46-.56,2.1,2.1,0,0,1-.54-1.53,4.66,4.66,0,0,1,.38-1.84,3.44,3.44,0,0,1,1-1.37,2.24,2.24,0,0,1,1.38-.49,1.77,1.77,0,0,1,1.17.34,1.19,1.19,0,0,1,.39.95,1.62,1.62,0,0,1-.84,1.44,4.73,4.73,0,0,1-2.42.52h-.16l0,.41a1.57,1.57,0,0,0,.31,1,1.19,1.19,0,0,0,1,.37,2.48,2.48,0,0,0,.65-.09,4.51,4.51,0,0,0,.85-.34v.75a4.49,4.49,0,0,1-.85.31A3.35,3.35,0,0,1,149.17,23.31Zm.71-5.06a1.34,1.34,0,0,0-1,.48,3.17,3.17,0,0,0-.71,1.33h.06a4.17,4.17,0,0,0,1.78-.3,1,1,0,0,0,.62-.88.58.58,0,0,0-.19-.45A.81.81,0,0,0,149.88,18.25Z" transform="translate(-1.12 0)"/><path class="cls-2" d="M155.34,23.21l.75-3.53a4.74,4.74,0,0,0,.1-.68.91.91,0,0,0-.16-.56.67.67,0,0,0-.54-.2,1.32,1.32,0,0,0-.83.31,2.52,2.52,0,0,0-.71.87,4.89,4.89,0,0,0-.48,1.37L153,23.21h-.85l1.18-5.58H154l-.11,1h.05a3.26,3.26,0,0,1,.88-.87,1.72,1.72,0,0,1,.91-.27,1.14,1.14,0,0,1,.88.33,1.55,1.55,0,0,1,.37.93h0a3.25,3.25,0,0,1,.93-1,1.91,1.91,0,0,1,1-.31,1.37,1.37,0,0,1,1,.35,1.34,1.34,0,0,1,.36,1,4.46,4.46,0,0,1-.12.9l-.73,3.43h-.86l.75-3.53a4.3,4.3,0,0,0,.1-.74.77.77,0,0,0-.17-.51.75.75,0,0,0-.55-.19,1.36,1.36,0,0,0-.82.3,2.55,2.55,0,0,0-.7.83,4.55,4.55,0,0,0-.46,1.29l-.54,2.55Z" transform="translate(-1.12 0)"/><path class="cls-2" d="M163.38,23.31a2,2,0,0,1-1.47-.56,2.14,2.14,0,0,1-.53-1.53,4.49,4.49,0,0,1,.38-1.84,3.35,3.35,0,0,1,1-1.37,2.24,2.24,0,0,1,1.38-.49,1.79,1.79,0,0,1,1.17.34,1.19,1.19,0,0,1,.39.95,1.61,1.61,0,0,1-.85,1.44,4.66,4.66,0,0,1-2.41.52h-.17l0,.41a1.63,1.63,0,0,0,.31,1,1.2,1.2,0,0,0,1,.37,2.5,2.5,0,0,0,.66-.09,4.21,4.21,0,0,0,.84-.34v.75a4.68,4.68,0,0,1-.84.31A3.47,3.47,0,0,1,163.38,23.31Zm.71-5.06a1.37,1.37,0,0,0-1,.48,3.16,3.16,0,0,0-.7,1.33h.06a4.23,4.23,0,0,0,1.78-.3,1,1,0,0,0,.61-.88.61.61,0,0,0-.18-.45A.82.82,0,0,0,164.09,18.25Z" transform="translate(-1.12 0)"/><path class="cls-2" d="M169.72,23.21l.75-3.53a4.22,4.22,0,0,0,.1-.73.71.71,0,0,0-.18-.51.75.75,0,0,0-.58-.2,1.48,1.48,0,0,0-.88.31,2.74,2.74,0,0,0-.76.87,4.67,4.67,0,0,0-.49,1.37l-.51,2.42h-.86l1.19-5.58h.71l-.11,1h.05a3.42,3.42,0,0,1,.94-.88,1.91,1.91,0,0,1,.94-.26,1.41,1.41,0,0,1,1,.36,1.28,1.28,0,0,1,.37,1,4.58,4.58,0,0,1-.11.91l-.73,3.43Z" transform="translate(-1.12 0)"/><path class="cls-2" d="M174,22.61a2.68,2.68,0,0,0,.74-.13v.66l-.43.12a2.63,2.63,0,0,1-.41,0,1.43,1.43,0,0,1-1-.3,1.2,1.2,0,0,1-.34-.91,3.71,3.71,0,0,1,.09-.76l.65-3.07h-.87l.07-.37.94-.4.63-1.16h.5l-.28,1.29h1.39l-.13.64h-1.39l-.65,3.08a3.64,3.64,0,0,0-.09.67.64.64,0,0,0,.14.44A.56.56,0,0,0,174,22.61Z" transform="translate(-1.12 0)"/><path class="cls-2" d="M176.54,23.21h-.85l1.19-5.58h.85Zm.58-7a.67.67,0,0,1,.16-.47.54.54,0,0,1,.42-.18.4.4,0,0,1,.45.46.68.68,0,0,1-.17.47.5.5,0,0,1-.39.2.45.45,0,0,1-.34-.13A.45.45,0,0,1,177.12,16.2Z" transform="translate(-1.12 0)"/><path class="cls-2" d="M181.74,23.21l.75-3.53a4.22,4.22,0,0,0,.1-.73.71.71,0,0,0-.18-.51.75.75,0,0,0-.58-.2,1.48,1.48,0,0,0-.88.31,2.6,2.6,0,0,0-.75.87,4.4,4.4,0,0,0-.5,1.37l-.51,2.42h-.86l1.19-5.58h.71l-.11,1h0a3.42,3.42,0,0,1,.94-.88,1.91,1.91,0,0,1,.94-.26,1.41,1.41,0,0,1,1,.36,1.28,1.28,0,0,1,.37,1,3.94,3.94,0,0,1-.11.91l-.73,3.43Z" transform="translate(-1.12 0)"/><path class="cls-2" d="M189.63,17.63l-.13.54-1.07.12a1.43,1.43,0,0,1,.21.81,2.09,2.09,0,0,1-.59,1.55,2.22,2.22,0,0,1-1.59.58,2,2,0,0,1-.42,0c-.47.18-.71.4-.71.66a.28.28,0,0,0,.17.28,1.89,1.89,0,0,0,.49.11l.59.07a2.61,2.61,0,0,1,1.33.45,1.18,1.18,0,0,1,.42,1,1.67,1.67,0,0,1-.74,1.45,3.67,3.67,0,0,1-2.09.51,2.78,2.78,0,0,1-1.55-.37,1.21,1.21,0,0,1-.56-1.06,1.37,1.37,0,0,1,.37-.93,2.82,2.82,0,0,1,1.18-.66.67.67,0,0,1-.39-.62.79.79,0,0,1,.26-.6,2.42,2.42,0,0,1,.72-.47,1.36,1.36,0,0,1-.53-.48,1.42,1.42,0,0,1-.2-.75,2.21,2.21,0,0,1,.61-1.61,2,2,0,0,1,1.55-.64,2.88,2.88,0,0,1,.78.11Zm-5.41,6.57a.71.71,0,0,0,.33.62,1.73,1.73,0,0,0,1,.23,2.77,2.77,0,0,0,1.44-.32,1,1,0,0,0,.52-.92.58.58,0,0,0-.27-.5,2.24,2.24,0,0,0-.93-.25l-.81-.08a1.77,1.77,0,0,0-.94.45A1.06,1.06,0,0,0,184.22,24.2Zm1.41-4.46a.9.9,0,0,0,.23.66.85.85,0,0,0,.63.23,1.16,1.16,0,0,0,.7-.21,1.36,1.36,0,0,0,.46-.59,2,2,0,0,0,.16-.81.77.77,0,0,0-.86-.86,1.17,1.17,0,0,0-.69.21,1.4,1.4,0,0,0-.47.57A2.15,2.15,0,0,0,185.63,19.74Z" transform="translate(-1.12 0)"/><path class="cls-2" d="M195.2,17.52a1.46,1.46,0,0,1,.84.26,1.58,1.58,0,0,1,.56.72h.06l.34-.87h.65l-1.19,5.58h-.67l.13-1.07h0A2.52,2.52,0,0,1,194,23.31a1.34,1.34,0,0,1-1.11-.51,2.18,2.18,0,0,1-.4-1.38,5.25,5.25,0,0,1,.36-2,3.37,3.37,0,0,1,1-1.42A2.18,2.18,0,0,1,195.2,17.52Zm-1,5.08a1.45,1.45,0,0,0,1-.47A3.44,3.44,0,0,0,196,20.9a4.06,4.06,0,0,0,.3-1.51,1.2,1.2,0,0,0-.28-.84,1,1,0,0,0-.75-.31,1.4,1.4,0,0,0-1,.44,3,3,0,0,0-.71,1.19,4.58,4.58,0,0,0-.26,1.57,1.33,1.33,0,0,0,.24.87A.8.8,0,0,0,194.24,22.6Z" transform="translate(-1.12 0)"/><path class="cls-2" d="M203.42,17.63l-.12.54-1.08.12a1.43,1.43,0,0,1,.21.81,2.09,2.09,0,0,1-.59,1.55,2.18,2.18,0,0,1-1.58.58,2.16,2.16,0,0,1-.43,0c-.47.18-.71.4-.71.66a.28.28,0,0,0,.17.28,2,2,0,0,0,.49.11l.59.07a2.65,2.65,0,0,1,1.34.45,1.2,1.2,0,0,1,.41,1,1.65,1.65,0,0,1-.74,1.45,3.65,3.65,0,0,1-2.09.51,2.74,2.74,0,0,1-1.54-.37,1.21,1.21,0,0,1-.56-1.06,1.36,1.36,0,0,1,.36-.93,2.86,2.86,0,0,1,1.19-.66.67.67,0,0,1-.4-.62.83.83,0,0,1,.26-.6,2.42,2.42,0,0,1,.72-.47,1.33,1.33,0,0,1-.72-1.23,2.25,2.25,0,0,1,.6-1.61,2.06,2.06,0,0,1,1.56-.64,3,3,0,0,1,.78.11ZM198,24.2a.71.71,0,0,0,.33.62,1.75,1.75,0,0,0,1,.23,2.81,2.81,0,0,0,1.45-.32,1,1,0,0,0,.52-.92.57.57,0,0,0-.28-.5,2.24,2.24,0,0,0-.93-.25l-.81-.08a1.73,1.73,0,0,0-.93.45A1,1,0,0,0,198,24.2Zm1.41-4.46a.8.8,0,0,0,.87.89,1.18,1.18,0,0,0,.7-.21,1.43,1.43,0,0,0,.46-.59,2,2,0,0,0,.16-.81.9.9,0,0,0-.22-.64.87.87,0,0,0-.64-.22,1.18,1.18,0,0,0-.7.21,1.31,1.31,0,0,0-.46.57A2,2,0,0,0,199.42,19.74Z" transform="translate(-1.12 0)"/><path class="cls-2" d="M205.55,23.31a1.93,1.93,0,0,1-1.47-.56,2.1,2.1,0,0,1-.54-1.53,4.66,4.66,0,0,1,.38-1.84,3.46,3.46,0,0,1,1-1.37,2.19,2.19,0,0,1,1.37-.49,1.77,1.77,0,0,1,1.17.34,1.19,1.19,0,0,1,.39.95,1.62,1.62,0,0,1-.84,1.44,4.69,4.69,0,0,1-2.41.52h-.17l0,.41a1.57,1.57,0,0,0,.31,1,1.19,1.19,0,0,0,1,.37,2.61,2.61,0,0,0,.66-.09,4.74,4.74,0,0,0,.84-.34v.75a4.49,4.49,0,0,1-.85.31A3.32,3.32,0,0,1,205.55,23.31Zm.7-5.06a1.35,1.35,0,0,0-1,.48,3.05,3.05,0,0,0-.7,1.33h.06a4.15,4.15,0,0,0,1.77-.3,1,1,0,0,0,.62-.88.58.58,0,0,0-.19-.45A.79.79,0,0,0,206.25,18.25Z" transform="translate(-1.12 0)"/><path class="cls-2" d="M211.88,23.21l.75-3.53a4.56,4.56,0,0,0,.11-.73.71.71,0,0,0-.18-.51.77.77,0,0,0-.58-.2,1.45,1.45,0,0,0-.88.31,2.62,2.62,0,0,0-.76.87,4.4,4.4,0,0,0-.49,1.37l-.52,2.42h-.85l1.19-5.58h.7l-.11,1h.05a3.43,3.43,0,0,1,.95-.88,1.88,1.88,0,0,1,.94-.26,1.41,1.41,0,0,1,1,.36,1.28,1.28,0,0,1,.37,1,4,4,0,0,1-.12.91l-.72,3.43Z" transform="translate(-1.12 0)"/><path class="cls-2" d="M216.76,23.31a1.91,1.91,0,0,1-2.08-2.08,4.64,4.64,0,0,1,.38-1.88,3.25,3.25,0,0,1,1-1.35,2.48,2.48,0,0,1,1.49-.48,3.77,3.77,0,0,1,1.36.26l-.24.72a2.91,2.91,0,0,0-1.11-.26,1.58,1.58,0,0,0-1,.39,2.6,2.6,0,0,0-.74,1.09,4.31,4.31,0,0,0-.26,1.51,1.45,1.45,0,0,0,.33,1,1.24,1.24,0,0,0,.94.36,2.26,2.26,0,0,0,.69-.1c.21-.07.43-.15.64-.24V23A3.1,3.1,0,0,1,216.76,23.31Z" transform="translate(-1.12 0)"/><path class="cls-2" d="M219.37,17.63h.85l.38,2.77c0,.24.06.58.1,1s0,.82,0,1.1h0c.12-.3.27-.63.45-1a7.16,7.16,0,0,1,.39-.79l1.65-3.1h.9l-3.53,6.52a3.7,3.7,0,0,1-.94,1.22,1.81,1.81,0,0,1-1.11.34,2.44,2.44,0,0,1-.71-.1v-.69a2.39,2.39,0,0,0,.66.09,1.08,1.08,0,0,0,.72-.26,2.55,2.55,0,0,0,.57-.76l.39-.69Z" transform="translate(-1.12 0)"/><path class="cls-2" d="M229.65,17.55a2,2,0,0,1,1.52.58,2.15,2.15,0,0,1,.56,1.57,4.44,4.44,0,0,1-.37,1.81,3.08,3.08,0,0,1-1,1.32,2.36,2.36,0,0,1-1.41.46,2,2,0,0,1-1.53-.58,2.16,2.16,0,0,1-.55-1.57,4.45,4.45,0,0,1,.37-1.82,3.08,3.08,0,0,1,1-1.31A2.35,2.35,0,0,1,229.65,17.55Zm1.2,2a1.4,1.4,0,0,0-.32-.95,1.06,1.06,0,0,0-.86-.37,1.52,1.52,0,0,0-1,.38A2.43,2.43,0,0,0,228,19.7a4.35,4.35,0,0,0-.24,1.49,1.55,1.55,0,0,0,.32,1,1.2,1.2,0,0,0,.93.36,1.39,1.39,0,0,0,.95-.37,2.47,2.47,0,0,0,.66-1.06A4.69,4.69,0,0,0,230.85,19.59Z" transform="translate(-1.12 0)"/><path class="cls-2" d="M231.69,25.71a1.83,1.83,0,0,1-.64-.1v-.72a2,2,0,0,0,.57.11.68.68,0,0,0,.6-.32,2.58,2.58,0,0,0,.33-.9l1.16-5.51h-1l.06-.34,1.05-.33.11-.51a3.12,3.12,0,0,1,.65-1.44,1.67,1.67,0,0,1,1.23-.42,2.67,2.67,0,0,1,.5.06,1.64,1.64,0,0,1,.45.13l-.21.65a2,2,0,0,0-.7-.15.93.93,0,0,0-.68.25,2,2,0,0,0-.38.91l-.13.55h1.21l-.13.64h-1.2l-1.18,5.59a2.94,2.94,0,0,1-.61,1.41A1.41,1.41,0,0,1,231.69,25.71Z" transform="translate(-1.12 0)"/><path class="cls-2" d="M240.18,22.61a2.74,2.74,0,0,0,.74-.13v.66l-.43.12a2.63,2.63,0,0,1-.41,0,1.41,1.41,0,0,1-1-.3,1.16,1.16,0,0,1-.34-.91,3.71,3.71,0,0,1,.09-.76l.65-3.07h-.88l.08-.37.94-.4.63-1.16h.5l-.28,1.29h1.39l-.13.64h-1.39l-.65,3.08a3.86,3.86,0,0,0-.1.67.6.6,0,0,0,.15.44A.56.56,0,0,0,240.18,22.61Z" transform="translate(-1.12 0)"/><path class="cls-2" d="M245.25,23.21l.76-3.53a4.34,4.34,0,0,0,.09-.68.67.67,0,0,0-.75-.76,1.53,1.53,0,0,0-.88.3,2.57,2.57,0,0,0-.76.88,4.56,4.56,0,0,0-.49,1.38l-.52,2.41h-.85l1.68-7.93h.85c-.06.28-.12.55-.17.81l-.18.8c-.06.27-.12.55-.19.85s-.15.61-.24,1h.05a3.41,3.41,0,0,1,.95-.9,1.9,1.9,0,0,1,1-.27A1.27,1.27,0,0,1,247,18.94a4,4,0,0,1-.12.84c-.13.66-.37,1.8-.73,3.43Z" transform="translate(-1.12 0)"/><path class="cls-2" d="M250.06,23.31a1.93,1.93,0,0,1-1.47-.56,2.1,2.1,0,0,1-.54-1.53,4.66,4.66,0,0,1,.38-1.84,3.46,3.46,0,0,1,1-1.37,2.19,2.19,0,0,1,1.37-.49,1.77,1.77,0,0,1,1.17.34,1.19,1.19,0,0,1,.39.95,1.62,1.62,0,0,1-.84,1.44,4.69,4.69,0,0,1-2.41.52H249l0,.41a1.57,1.57,0,0,0,.31,1,1.19,1.19,0,0,0,1,.37,2.61,2.61,0,0,0,.66-.09,4.74,4.74,0,0,0,.84-.34v.75a4.49,4.49,0,0,1-.85.31A3.32,3.32,0,0,1,250.06,23.31Zm.7-5.06a1.35,1.35,0,0,0-1,.48,3.05,3.05,0,0,0-.7,1.33h.06a4.15,4.15,0,0,0,1.77-.3,1,1,0,0,0,.62-.88.58.58,0,0,0-.19-.45A.79.79,0,0,0,250.76,18.25Z" transform="translate(-1.12 0)"/><path class="cls-2" d="M260,21.05a2.08,2.08,0,0,1-.71,1.67,3.11,3.11,0,0,1-2,.59,5.27,5.27,0,0,1-.95-.08,2.88,2.88,0,0,1-.77-.24v-.87a3.64,3.64,0,0,0,1.73.43,2.05,2.05,0,0,0,1.3-.38,1.3,1.3,0,0,0,.49-1.06,1,1,0,0,0-.27-.7,4.35,4.35,0,0,0-1-.72,3.11,3.11,0,0,1-1.07-.86,1.76,1.76,0,0,1-.3-1,2,2,0,0,1,.67-1.55,2.56,2.56,0,0,1,1.77-.6,4.57,4.57,0,0,1,.93.1,4.89,4.89,0,0,1,.92.33l-.33.77a3.46,3.46,0,0,0-.76-.31,3.1,3.1,0,0,0-.76-.11,1.67,1.67,0,0,0-1.1.35,1.22,1.22,0,0,0-.41,1,1.28,1.28,0,0,0,.08.47,1.07,1.07,0,0,0,.28.37,4,4,0,0,0,.72.49,6.41,6.41,0,0,1,1,.7,1.93,1.93,0,0,1,.4.56A2,2,0,0,1,260,21.05Z" transform="translate(-1.12 0)"/><path class="cls-2" d="M264.75,20.84h-2.52L261,23.21h-1l4.06-7.45H265l.94,7.45H265Zm-.1-.8-.17-1.52a15.83,15.83,0,0,1-.15-1.78c-.13.3-.26.6-.41.89s-.57,1.1-1.27,2.41Z" transform="translate(-1.12 0)"/><path class="cls-2" d="M273,18.74a4.94,4.94,0,0,1-.54,2.35,3.71,3.71,0,0,1-1.52,1.57,4.79,4.79,0,0,1-2.32.55h-1.79l1.57-7.45h1.74a2.85,2.85,0,0,1,2.13.76A3.12,3.12,0,0,1,273,18.74Zm-4.33,3.72a3.46,3.46,0,0,0,1.81-.47,3.15,3.15,0,0,0,1.19-1.31,4.5,4.5,0,0,0,.41-1.95,2.36,2.36,0,0,0-.52-1.66,2,2,0,0,0-1.54-.56h-.9l-1.27,5.95Z" transform="translate(-1.12 0)"/><path class="cls-2" d="M278.11,16.43a2.7,2.7,0,0,0-1.59.49,3.37,3.37,0,0,0-1.1,1.45,5.12,5.12,0,0,0-.41,2.08A2.22,2.22,0,0,0,275.5,22a1.72,1.72,0,0,0,1.37.57,5.67,5.67,0,0,0,1.63-.29V23a6.15,6.15,0,0,1-.83.23,5.19,5.19,0,0,1-.95.07,2.51,2.51,0,0,1-1.94-.76,3,3,0,0,1-.7-2.08,5.72,5.72,0,0,1,.54-2.47,4.17,4.17,0,0,1,1.44-1.74,3.63,3.63,0,0,1,2.05-.61,3.79,3.79,0,0,1,1.77.41l-.36.72A3.16,3.16,0,0,0,278.11,16.43Z" transform="translate(-1.12 0)"/><path class="cls-2" d="M286.75,21.05a2.08,2.08,0,0,1-.71,1.67,3.11,3.11,0,0,1-2,.59,5.27,5.27,0,0,1-.95-.08,2.88,2.88,0,0,1-.77-.24v-.87a3.64,3.64,0,0,0,1.73.43,2.05,2.05,0,0,0,1.3-.38,1.3,1.3,0,0,0,.49-1.06,1,1,0,0,0-.27-.7,4.35,4.35,0,0,0-1-.72,3.11,3.11,0,0,1-1.07-.86,1.76,1.76,0,0,1-.3-1,2,2,0,0,1,.67-1.55,2.56,2.56,0,0,1,1.77-.6,4.49,4.49,0,0,1,.93.1,4.89,4.89,0,0,1,.92.33l-.33.77a3.46,3.46,0,0,0-.76-.31,3.1,3.1,0,0,0-.76-.11,1.67,1.67,0,0,0-1.1.35,1.22,1.22,0,0,0-.41,1,1.28,1.28,0,0,0,.08.47,1.07,1.07,0,0,0,.28.37,4,4,0,0,0,.72.49,6.41,6.41,0,0,1,1,.7,1.93,1.93,0,0,1,.4.56A1.81,1.81,0,0,1,286.75,21.05Z" transform="translate(-1.12 0)"/><path class="cls-2" d="M289.83,23.31a1.92,1.92,0,0,1-1.46-.56,2.1,2.1,0,0,1-.54-1.53,4.66,4.66,0,0,1,.38-1.84,3.44,3.44,0,0,1,1-1.37,2.24,2.24,0,0,1,1.38-.49,1.77,1.77,0,0,1,1.17.34,1.19,1.19,0,0,1,.39.95,1.62,1.62,0,0,1-.84,1.44,4.7,4.7,0,0,1-2.42.52h-.16l0,.41a1.57,1.57,0,0,0,.31,1,1.19,1.19,0,0,0,1,.37,2.48,2.48,0,0,0,.65-.09,4.51,4.51,0,0,0,.85-.34v.75a4.49,4.49,0,0,1-.85.31A3.35,3.35,0,0,1,289.83,23.31Zm.71-5.06a1.34,1.34,0,0,0-1,.48,3.17,3.17,0,0,0-.71,1.33h.06a4.17,4.17,0,0,0,1.78-.3,1,1,0,0,0,.62-.88.58.58,0,0,0-.19-.45A.81.81,0,0,0,290.54,18.25Z" transform="translate(-1.12 0)"/><path class="cls-2" d="M295,23.31a2,2,0,0,1-1.53-.55,2.07,2.07,0,0,1-.55-1.53,4.64,4.64,0,0,1,.38-1.88,3.25,3.25,0,0,1,1-1.35,2.48,2.48,0,0,1,1.49-.48,3.77,3.77,0,0,1,1.36.26l-.24.72a2.87,2.87,0,0,0-1.11-.26,1.58,1.58,0,0,0-1,.39,2.6,2.6,0,0,0-.74,1.09,4.31,4.31,0,0,0-.26,1.51,1.4,1.4,0,0,0,.34,1,1.2,1.2,0,0,0,.93.36,2.26,2.26,0,0,0,.69-.1c.22-.07.43-.15.64-.24V23A3.1,3.1,0,0,1,295,23.31Z" transform="translate(-1.12 0)"/><path class="cls-2" d="M301,17.52a2.15,2.15,0,0,1,.61.08l-.18.76a2,2,0,0,0-.53-.07,1.38,1.38,0,0,0-.87.31,2.54,2.54,0,0,0-.71.85,4.19,4.19,0,0,0-.44,1.2l-.55,2.56h-.85l1.19-5.58h.71l-.12,1h.06a5.57,5.57,0,0,1,.6-.7,1.7,1.7,0,0,1,.5-.32A1.37,1.37,0,0,1,301,17.52Z" transform="translate(-1.12 0)"/><path class="cls-2" d="M303.77,23.31a2,2,0,0,1-1.47-.56,2.14,2.14,0,0,1-.53-1.53,4.66,4.66,0,0,1,.38-1.84,3.35,3.35,0,0,1,1-1.37,2.24,2.24,0,0,1,1.38-.49,1.77,1.77,0,0,1,1.17.34,1.19,1.19,0,0,1,.39.95,1.62,1.62,0,0,1-.84,1.44,4.73,4.73,0,0,1-2.42.52h-.17l0,.41a1.58,1.58,0,0,0,.32,1,1.17,1.17,0,0,0,1,.37,2.5,2.5,0,0,0,.66-.09,4.21,4.21,0,0,0,.84-.34v.75a4.68,4.68,0,0,1-.84.31A3.4,3.4,0,0,1,303.77,23.31Zm.71-5.06a1.37,1.37,0,0,0-1,.48,3.16,3.16,0,0,0-.7,1.33h.06a4.2,4.2,0,0,0,1.78-.3,1,1,0,0,0,.62-.88.62.62,0,0,0-.19-.45A.81.81,0,0,0,304.48,18.25Z" transform="translate(-1.12 0)"/><path class="cls-2" d="M308.41,22.61a2.62,2.62,0,0,0,.73-.13v.66l-.43.12a2.4,2.4,0,0,1-.4,0,1.39,1.39,0,0,1-1-.3,1.16,1.16,0,0,1-.34-.91,3.71,3.71,0,0,1,.09-.76l.64-3.07h-.87l.07-.37.94-.4.64-1.16H309l-.27,1.29h1.39l-.13.64H308.6l-.66,3.08a3.64,3.64,0,0,0-.09.67.6.6,0,0,0,.15.44A.54.54,0,0,0,308.41,22.61Z" transform="translate(-1.12 0)"/><path class="cls-2" d="M313,17.52a1.44,1.44,0,0,1,.84.26,1.67,1.67,0,0,1,.57.72h.05l.34-.87h.65l-1.19,5.58h-.67l.13-1.07h0a2.5,2.5,0,0,1-1.92,1.17,1.31,1.31,0,0,1-1.1-.51,2.12,2.12,0,0,1-.4-1.38,5.25,5.25,0,0,1,.36-2,3.35,3.35,0,0,1,1-1.42A2.2,2.2,0,0,1,313,17.52Zm-1,5.08a1.45,1.45,0,0,0,1-.47,3.44,3.44,0,0,0,.79-1.23,3.89,3.89,0,0,0,.31-1.51,1.21,1.21,0,0,0-.29-.84,1,1,0,0,0-.74-.31,1.42,1.42,0,0,0-1,.44,3,3,0,0,0-.71,1.19,4.83,4.83,0,0,0-.26,1.57,1.33,1.33,0,0,0,.24.87A.8.8,0,0,0,312.06,22.6Z" transform="translate(-1.12 0)"/><path class="cls-2" d="M319.48,17.52a2.25,2.25,0,0,1,.61.08l-.19.76a1.93,1.93,0,0,0-.53-.07,1.38,1.38,0,0,0-.87.31,2.52,2.52,0,0,0-.7.85,4.52,4.52,0,0,0-.45,1.2l-.54,2.56H316l1.18-5.58h.71l-.11,1h.05a6.55,6.55,0,0,1,.6-.7,1.74,1.74,0,0,1,.51-.32A1.34,1.34,0,0,1,319.48,17.52Z" transform="translate(-1.12 0)"/><path class="cls-2" d="M320.93,23.21h-.85l1.19-5.58h.85Zm.57-7a.68.68,0,0,1,.17-.47.54.54,0,0,1,.42-.18.4.4,0,0,1,.45.46.68.68,0,0,1-.17.47.54.54,0,0,1-.4.2.43.43,0,0,1-.33-.13A.45.45,0,0,1,321.5,16.2Z" transform="translate(-1.12 0)"/><path class="cls-2" d="M325.67,17.52a1.43,1.43,0,0,1,.83.26,1.67,1.67,0,0,1,.57.72h.05l.34-.87h.65l-1.18,5.58h-.68l.13-1.07h0a2.49,2.49,0,0,1-1.91,1.17,1.34,1.34,0,0,1-1.11-.51,2.12,2.12,0,0,1-.4-1.38,5.25,5.25,0,0,1,.36-2,3.35,3.35,0,0,1,1-1.42A2.21,2.21,0,0,1,325.67,17.52Zm-1,5.08a1.43,1.43,0,0,0,1-.47,3.31,3.31,0,0,0,.79-1.23,3.89,3.89,0,0,0,.31-1.51,1.21,1.21,0,0,0-.29-.84,1,1,0,0,0-.74-.31,1.42,1.42,0,0,0-1,.44,3,3,0,0,0-.71,1.19,4.83,4.83,0,0,0-.26,1.57,1.33,1.33,0,0,0,.24.87A.8.8,0,0,0,324.7,22.6Z" transform="translate(-1.12 0)"/><path class="cls-2" d="M330.3,22.61a2.68,2.68,0,0,0,.74-.13v.66l-.43.12a2.63,2.63,0,0,1-.41,0,1.43,1.43,0,0,1-1-.3,1.16,1.16,0,0,1-.34-.91,3.71,3.71,0,0,1,.09-.76l.65-3.07h-.88l.08-.37.94-.4.63-1.16h.5l-.28,1.29H332l-.13.64h-1.39l-.65,3.08a3.64,3.64,0,0,0-.09.67.6.6,0,0,0,.14.44A.56.56,0,0,0,330.3,22.61Z" transform="translate(-1.12 0)"/><path class="cls-2" d="M26,35.27a2.07,2.07,0,0,1-.71,1.67,3.11,3.11,0,0,1-2,.59,5.34,5.34,0,0,1-.95-.07,2.89,2.89,0,0,1-.77-.25v-.87a3.64,3.64,0,0,0,1.73.43,2.05,2.05,0,0,0,1.3-.38,1.3,1.3,0,0,0,.49-1.06,1,1,0,0,0-.27-.7,4.35,4.35,0,0,0-1-.72,3,3,0,0,1-1.07-.86,1.75,1.75,0,0,1-.3-1,2,2,0,0,1,.67-1.55,2.56,2.56,0,0,1,1.77-.6,4.52,4.52,0,0,1,.93.09,4.89,4.89,0,0,1,.92.33l-.33.77a3.58,3.58,0,0,0-.75-.31,3.24,3.24,0,0,0-.77-.11,1.67,1.67,0,0,0-1.1.35,1.22,1.22,0,0,0-.41,1,1.17,1.17,0,0,0,.09.48.9.9,0,0,0,.27.36,4.41,4.41,0,0,0,.72.49,6,6,0,0,1,1,.7,1.93,1.93,0,0,1,.4.56A1.81,1.81,0,0,1,26,35.27Z" transform="translate(-1.12 0)"/><path class="cls-2" d="M28.87,31.85l-.77,3.54a3.79,3.79,0,0,0-.09.7.65.65,0,0,0,.75.73,1.53,1.53,0,0,0,.88-.3,2.77,2.77,0,0,0,.76-.88,4.6,4.6,0,0,0,.5-1.37l.51-2.42h.85l-1.18,5.58h-.7l.11-1h-.06a3.46,3.46,0,0,1-.95.89,1.92,1.92,0,0,1-.94.25,1.45,1.45,0,0,1-1-.35,1.34,1.34,0,0,1-.37-1,5.19,5.19,0,0,1,.11-.88L28,31.85Z" transform="translate(-1.12 0)"/><path class="cls-2" d="M35.35,37.53a1.45,1.45,0,0,1-.86-.25,1.67,1.67,0,0,1-.58-.72h0l0,.2-.05.35c0,.16-.22,1.1-.58,2.82h-.85l1.71-8.08h.71l-.14,1.06h0a2.5,2.5,0,0,1,1.89-1.15,1.33,1.33,0,0,1,1.1.49,2.15,2.15,0,0,1,.4,1.39,5.37,5.37,0,0,1-.35,2,3.23,3.23,0,0,1-1,1.4A2.18,2.18,0,0,1,35.35,37.53Zm.94-5.07a1.46,1.46,0,0,0-1,.49,3.46,3.46,0,0,0-.8,1.21,4,4,0,0,0-.3,1.51,1.21,1.21,0,0,0,.28.85,1.07,1.07,0,0,0,.82.3,1.33,1.33,0,0,0,.94-.41,2.94,2.94,0,0,0,.7-1.17,5.09,5.09,0,0,0,.26-1.62C37.2,32.85,36.9,32.46,36.29,32.46Z" transform="translate(-1.12 0)"/><path class="cls-2" d="M41.36,37.53a1.51,1.51,0,0,1-.87-.25,1.59,1.59,0,0,1-.57-.72h-.05l0,.2c0,.08,0,.2-.06.35s-.22,1.1-.58,2.82h-.84l1.71-8.08h.7l-.13,1.06h0a2.5,2.5,0,0,1,1.89-1.15,1.35,1.35,0,0,1,1.1.49,2.21,2.21,0,0,1,.4,1.39,5.58,5.58,0,0,1-.35,2,3.41,3.41,0,0,1-1,1.4A2.2,2.2,0,0,1,41.36,37.53Zm.94-5.07a1.44,1.44,0,0,0-1,.49,3.48,3.48,0,0,0-.81,1.21,4.14,4.14,0,0,0-.29,1.51,1.16,1.16,0,0,0,.28.85,1.06,1.06,0,0,0,.81.3,1.32,1.32,0,0,0,.94-.41,2.94,2.94,0,0,0,.7-1.17,4.83,4.83,0,0,0,.27-1.62C43.21,32.85,42.9,32.46,42.3,32.46Z" transform="translate(-1.12 0)"/><path class="cls-2" d="M47.86,31.78a2,2,0,0,1,1.52.57,2.14,2.14,0,0,1,.56,1.58,4.56,4.56,0,0,1-.36,1.8,3.24,3.24,0,0,1-1,1.32,2.32,2.32,0,0,1-1.42.46,2,2,0,0,1-1.53-.58,2.15,2.15,0,0,1-.55-1.57,4.49,4.49,0,0,1,.37-1.82,3.14,3.14,0,0,1,1-1.31A2.36,2.36,0,0,1,47.86,31.78Zm1.2,2a1.4,1.4,0,0,0-.32-1,1.1,1.1,0,0,0-.86-.37,1.48,1.48,0,0,0-1,.38,2.34,2.34,0,0,0-.68,1.05A4.12,4.12,0,0,0,46,35.41a1.48,1.48,0,0,0,.33,1,1.16,1.16,0,0,0,.92.36,1.37,1.37,0,0,0,.95-.37,2.38,2.38,0,0,0,.66-1.06A4.65,4.65,0,0,0,49.06,33.81Z" transform="translate(-1.12 0)"/><path class="cls-2" d="M54.25,31.75a2.22,2.22,0,0,1,.61.07l-.18.76a2.5,2.5,0,0,0-.54-.07,1.44,1.44,0,0,0-.86.31,2.64,2.64,0,0,0-.71.85,4.19,4.19,0,0,0-.44,1.2l-.55,2.56h-.85l1.19-5.58h.7l-.11,1h.05a5.33,5.33,0,0,1,.61-.69,2,2,0,0,1,.5-.33A1.36,1.36,0,0,1,54.25,31.75Z" transform="translate(-1.12 0)"/><path class="cls-2" d="M56.56,36.83a2.68,2.68,0,0,0,.73-.13v.66a2.87,2.87,0,0,1-.43.12,2.53,2.53,0,0,1-.4.05,1.44,1.44,0,0,1-1-.3,1.18,1.18,0,0,1-.33-.91,3.71,3.71,0,0,1,.09-.76l.64-3.07H55l.07-.37.94-.39.63-1.17h.5l-.28,1.29h1.4l-.14.64H56.75l-.66,3.08a3.75,3.75,0,0,0-.09.67.6.6,0,0,0,.15.44A.53.53,0,0,0,56.56,36.83Z" transform="translate(-1.12 0)"/><path class="cls-2" d="M62.63,36.83a2.74,2.74,0,0,0,.74-.13v.66a2.87,2.87,0,0,1-.43.12,2.63,2.63,0,0,1-.41.05,1.43,1.43,0,0,1-1-.3,1.15,1.15,0,0,1-.34-.91,3.71,3.71,0,0,1,.09-.76L62,32.49h-.88l.08-.37.94-.39.63-1.17h.5L63,31.85h1.39l-.13.64H62.82l-.65,3.08a3.75,3.75,0,0,0-.09.67.6.6,0,0,0,.14.44A.56.56,0,0,0,62.63,36.83Z" transform="translate(-1.12 0)"/><path class="cls-2" d="M67.27,31.78a2,2,0,0,1,1.52.57,2.14,2.14,0,0,1,.56,1.58,4.56,4.56,0,0,1-.36,1.8,3.17,3.17,0,0,1-1,1.32,2.27,2.27,0,0,1-1.41.46,2,2,0,0,1-1.53-.58,2.15,2.15,0,0,1-.55-1.57,4.49,4.49,0,0,1,.37-1.82,3.14,3.14,0,0,1,1-1.31A2.36,2.36,0,0,1,67.27,31.78Zm1.2,2a1.4,1.4,0,0,0-.32-1,1.1,1.1,0,0,0-.86-.37,1.52,1.52,0,0,0-1,.38,2.43,2.43,0,0,0-.68,1.05,4.35,4.35,0,0,0-.24,1.49,1.48,1.48,0,0,0,.33,1,1.16,1.16,0,0,0,.92.36,1.37,1.37,0,0,0,.95-.37,2.47,2.47,0,0,0,.66-1.06A4.65,4.65,0,0,0,68.47,33.81Z" transform="translate(-1.12 0)"/><path class="cls-2" d="M74.55,36.83a2.62,2.62,0,0,0,.73-.13v.66a2.56,2.56,0,0,1-.43.12,2.53,2.53,0,0,1-.4.05,1.44,1.44,0,0,1-1-.3,1.18,1.18,0,0,1-.33-.91,3.71,3.71,0,0,1,.09-.76l.64-3.07H73l.07-.37.94-.39.64-1.17h.49l-.28,1.29h1.4l-.14.64H74.74l-.66,3.08a3.75,3.75,0,0,0-.09.67.6.6,0,0,0,.15.44A.54.54,0,0,0,74.55,36.83Z" transform="translate(-1.12 0)"/><path class="cls-2" d="M79.62,37.43l.75-3.53a4.07,4.07,0,0,0,.09-.68.66.66,0,0,0-.74-.76,1.54,1.54,0,0,0-.89.3,2.76,2.76,0,0,0-.75.88,4.56,4.56,0,0,0-.5,1.38l-.51,2.41h-.85l1.67-7.93h.86c-.07.28-.12.55-.18.81s-.11.53-.17.8-.13.55-.2.85-.15.62-.24,1H78A3.34,3.34,0,0,1,79,32a1.92,1.92,0,0,1,1-.27,1.27,1.27,0,0,1,1.4,1.4,4.15,4.15,0,0,1-.12.85c-.13.65-.38,1.79-.74,3.42Z" transform="translate(-1.12 0)"/><path class="cls-2" d="M84.42,37.53A2,2,0,0,1,83,37a2.16,2.16,0,0,1-.53-1.54,4.66,4.66,0,0,1,.38-1.84,3.42,3.42,0,0,1,1-1.37,2.23,2.23,0,0,1,1.38-.48,1.78,1.78,0,0,1,1.17.33,1.19,1.19,0,0,1,.39,1,1.61,1.61,0,0,1-.85,1.44,4.57,4.57,0,0,1-2.41.52h-.17l0,.41a1.58,1.58,0,0,0,.32,1,1.17,1.17,0,0,0,1,.37,2.5,2.5,0,0,0,.66-.09,4.21,4.21,0,0,0,.84-.34v.75a4.68,4.68,0,0,1-.84.31A3.35,3.35,0,0,1,84.42,37.53Zm.71-5.06a1.37,1.37,0,0,0-1,.48,3.16,3.16,0,0,0-.7,1.33h.06a4.2,4.2,0,0,0,1.78-.3,1,1,0,0,0,.61-.88.61.61,0,0,0-.18-.45A.81.81,0,0,0,85.13,32.47Z" transform="translate(-1.12 0)"/><path class="cls-2" d="M90.19,37.43,91.77,30h.86l-1.58,7.45Z" transform="translate(-1.12 0)"/><path class="cls-2" d="M96.3,37.43l.75-3.53a4.22,4.22,0,0,0,.1-.73.72.72,0,0,0-.18-.51.74.74,0,0,0-.57-.2,1.52,1.52,0,0,0-.88.31,2.62,2.62,0,0,0-.76.87,4.78,4.78,0,0,0-.5,1.37l-.51,2.42H92.9l1.19-5.58h.7l-.11,1h0a3.56,3.56,0,0,1,.94-.88,1.93,1.93,0,0,1,1-.25,1.37,1.37,0,0,1,1,.35,1.31,1.31,0,0,1,.38,1,4.15,4.15,0,0,1-.12.92l-.73,3.42Z" transform="translate(-1.12 0)"/><path class="cls-2" d="M99.74,37.43l-.64-5.58H100l.33,3.12c.08.87.12,1.49.12,1.84h0c.43-.93.74-1.56.91-1.89L103,31.85h.91l-3,5.58Z" transform="translate(-1.12 0)"/><path class="cls-2" d="M105.91,37.53a2,2,0,0,1-1.47-.55,2.12,2.12,0,0,1-.53-1.54,4.49,4.49,0,0,1,.38-1.84,3.42,3.42,0,0,1,1-1.37,2.21,2.21,0,0,1,1.38-.48,1.76,1.76,0,0,1,1.16.33,1.17,1.17,0,0,1,.4,1,1.63,1.63,0,0,1-.85,1.44A4.57,4.57,0,0,1,105,35h-.17l0,.41a1.63,1.63,0,0,0,.31,1,1.19,1.19,0,0,0,1,.37,2.61,2.61,0,0,0,.66-.09,4.46,4.46,0,0,0,.84-.34v.75a4.68,4.68,0,0,1-.84.31A3.47,3.47,0,0,1,105.91,37.53Zm.71-5.06a1.37,1.37,0,0,0-1,.48,3.16,3.16,0,0,0-.7,1.33H105a4.23,4.23,0,0,0,1.78-.3,1,1,0,0,0,.61-.88.61.61,0,0,0-.18-.45A.82.82,0,0,0,106.62,32.47Z" transform="translate(-1.12 0)"/><path class="cls-2" d="M112.28,35.84a1.48,1.48,0,0,1-.57,1.24,2.46,2.46,0,0,1-1.58.45,3.43,3.43,0,0,1-1.55-.35v-.81a3,3,0,0,0,.77.34,3.1,3.1,0,0,0,.76.11,1.56,1.56,0,0,0,1-.25.81.81,0,0,0,.32-.65.69.69,0,0,0-.18-.49,3.29,3.29,0,0,0-.76-.55,3.09,3.09,0,0,1-.94-.73,1.34,1.34,0,0,1-.27-.84,1.39,1.39,0,0,1,.51-1.13,2,2,0,0,1,1.35-.43,4,4,0,0,1,1.68.37l-.28.7-.28-.13a2.9,2.9,0,0,0-1.12-.22,1.13,1.13,0,0,0-.74.23.68.68,0,0,0-.27.57.72.72,0,0,0,.18.49,3.23,3.23,0,0,0,.75.52,4.62,4.62,0,0,1,.78.53,1.56,1.56,0,0,1,.35.47A1.28,1.28,0,0,1,112.28,35.84Z" transform="translate(-1.12 0)"/><path class="cls-2" d="M115,36.83a2.74,2.74,0,0,0,.74-.13v.66a2.87,2.87,0,0,1-.43.12,2.63,2.63,0,0,1-.41.05,1.41,1.41,0,0,1-1-.3,1.15,1.15,0,0,1-.34-.91,3.71,3.71,0,0,1,.09-.76l.65-3.07h-.88l.08-.37.94-.39.63-1.17h.5l-.28,1.29h1.39l-.13.64h-1.39l-.65,3.08a3.75,3.75,0,0,0-.09.67.6.6,0,0,0,.14.44A.56.56,0,0,0,115,36.83Z" transform="translate(-1.12 0)"/><path class="cls-2" d="M119.91,37.43l.75-3.53a4.07,4.07,0,0,0,.09-.68.85.85,0,0,0-.16-.56.65.65,0,0,0-.54-.2,1.4,1.4,0,0,0-.83.31,2.64,2.64,0,0,0-.71.87A5.23,5.23,0,0,0,118,35l-.52,2.42h-.85l1.19-5.58h.71l-.12,1h0a3.28,3.28,0,0,1,.89-.87,1.67,1.67,0,0,1,.9-.26,1.16,1.16,0,0,1,.89.33,1.49,1.49,0,0,1,.36.92h0a3.51,3.51,0,0,1,.93-1,1.9,1.9,0,0,1,1-.3,1.21,1.21,0,0,1,1.35,1.35,5.36,5.36,0,0,1-.11.91L124,37.43h-.87l.76-3.53a5.66,5.66,0,0,0,.1-.74.72.72,0,0,0-.18-.51.73.73,0,0,0-.55-.19,1.36,1.36,0,0,0-.81.3,2.61,2.61,0,0,0-.71.84,4.8,4.8,0,0,0-.46,1.28l-.54,2.55Z" transform="translate(-1.12 0)"/><path class="cls-2" d="M128,37.53a1.92,1.92,0,0,1-1.47-.55,2.13,2.13,0,0,1-.54-1.54,4.66,4.66,0,0,1,.38-1.84,3.43,3.43,0,0,1,1-1.37,2.18,2.18,0,0,1,1.37-.48,1.78,1.78,0,0,1,1.17.33,1.19,1.19,0,0,1,.39,1,1.62,1.62,0,0,1-.84,1.44A4.59,4.59,0,0,1,127,35h-.17l0,.41a1.57,1.57,0,0,0,.31,1,1.19,1.19,0,0,0,1,.37,2.61,2.61,0,0,0,.66-.09,4.74,4.74,0,0,0,.84-.34v.75a4.49,4.49,0,0,1-.85.31A3.32,3.32,0,0,1,128,37.53Zm.7-5.06a1.34,1.34,0,0,0-1,.48,3.17,3.17,0,0,0-.71,1.33H127a4.15,4.15,0,0,0,1.77-.3,1,1,0,0,0,.62-.88.58.58,0,0,0-.19-.45A.79.79,0,0,0,128.65,32.47Z" transform="translate(-1.12 0)"/><path class="cls-2" d="M134.28,37.43,135,33.9a4.22,4.22,0,0,0,.1-.73.72.72,0,0,0-.18-.51.74.74,0,0,0-.57-.2,1.52,1.52,0,0,0-.88.31,2.62,2.62,0,0,0-.76.87,4.78,4.78,0,0,0-.5,1.37l-.51,2.42h-.85l1.19-5.58h.7l-.11,1h.05a3.56,3.56,0,0,1,.94-.88,1.93,1.93,0,0,1,.95-.25,1.37,1.37,0,0,1,1,.35,1.31,1.31,0,0,1,.38,1,4.15,4.15,0,0,1-.12.92l-.72,3.42Z" transform="translate(-1.12 0)"/><path class="cls-2" d="M138.59,36.83a2.62,2.62,0,0,0,.73-.13v.66a2.71,2.71,0,0,1-.42.12,2.63,2.63,0,0,1-.41.05,1.39,1.39,0,0,1-1-.3,1.15,1.15,0,0,1-.34-.91,3.71,3.71,0,0,1,.09-.76l.64-3.07H137l.07-.37.94-.39.64-1.17h.49l-.28,1.29h1.4l-.13.64h-1.39l-.66,3.08a3.75,3.75,0,0,0-.09.67.6.6,0,0,0,.15.44A.54.54,0,0,0,138.59,36.83Z" transform="translate(-1.12 0)"/><path class="cls-2" d="M145.91,31.75a1.4,1.4,0,0,1,.83.25,1.73,1.73,0,0,1,.57.72h.05l.35-.87h.64l-1.18,5.58h-.68l.13-1.07h0a2.49,2.49,0,0,1-1.91,1.17,1.36,1.36,0,0,1-1.11-.5,2.16,2.16,0,0,1-.4-1.38,5.31,5.31,0,0,1,.36-2,3.42,3.42,0,0,1,1-1.42A2.2,2.2,0,0,1,145.91,31.75Zm-1,5.07a1.39,1.39,0,0,0,1-.47,3.31,3.31,0,0,0,.79-1.23,3.85,3.85,0,0,0,.31-1.51,1.21,1.21,0,0,0-.29-.84,1,1,0,0,0-.74-.31,1.44,1.44,0,0,0-1,.44,3,3,0,0,0-.71,1.19,4.85,4.85,0,0,0-.26,1.58,1.37,1.37,0,0,0,.24.87A.82.82,0,0,0,144.94,36.82Z" transform="translate(-1.12 0)"/><path class="cls-2" d="M152.24,37.43,153,33.9a4.56,4.56,0,0,0,.11-.73.72.72,0,0,0-.18-.51.78.78,0,0,0-.58-.2,1.52,1.52,0,0,0-.88.31,2.62,2.62,0,0,0-.76.87,4.78,4.78,0,0,0-.5,1.37l-.51,2.42h-.85L150,31.85h.7l-.11,1h0a3.56,3.56,0,0,1,.94-.88,1.93,1.93,0,0,1,.95-.25,1.41,1.41,0,0,1,1,.35,1.34,1.34,0,0,1,.37,1,4.15,4.15,0,0,1-.12.92l-.72,3.42Z" transform="translate(-1.12 0)"/><path class="cls-2" d="M157.79,31.76a1.49,1.49,0,0,1,1.43,1h.05a11.18,11.18,0,0,1,.23-1.39l.39-1.83h.85l-1.68,7.93h-.71l.12-1.07h0a4.13,4.13,0,0,1-1,.91,1.87,1.87,0,0,1-.93.26,1.33,1.33,0,0,1-1.1-.5,2.12,2.12,0,0,1-.4-1.38,5.16,5.16,0,0,1,.37-2,3.28,3.28,0,0,1,1-1.4A2.17,2.17,0,0,1,157.79,31.76Zm-1,5.06a1.51,1.51,0,0,0,1-.47,3.43,3.43,0,0,0,.81-1.22,4.18,4.18,0,0,0,.29-1.51,1.23,1.23,0,0,0-.27-.86,1,1,0,0,0-.8-.3,1.35,1.35,0,0,0-1,.42,3.07,3.07,0,0,0-.71,1.18,4.81,4.81,0,0,0-.26,1.61C155.92,36.44,156.22,36.82,156.83,36.82Z" transform="translate(-1.12 0)"/><path class="cls-2" d="M167.17,30q2.19,0,2.19,1.71a1.79,1.79,0,0,1-.44,1.22,2.15,2.15,0,0,1-1.25.64v.05a1.72,1.72,0,0,1,.9.56,1.51,1.51,0,0,1,.31,1,2,2,0,0,1-.77,1.69,3.21,3.21,0,0,1-2.07.62h-2.35L165.26,30Zm-2.46,6.71h1.35a2.18,2.18,0,0,0,1.42-.41,1.44,1.44,0,0,0,.49-1.16,1.11,1.11,0,0,0-.38-.9,1.67,1.67,0,0,0-1.09-.32h-1.2Zm.75-3.52h1.26A2,2,0,0,0,168,32.8a1.22,1.22,0,0,0,.48-1,1,1,0,0,0-.34-.8,1.79,1.79,0,0,0-1.07-.26H166Z" transform="translate(-1.12 0)"/><path class="cls-2" d="M171.77,31.85,171,35.39a3.79,3.79,0,0,0-.09.7.65.65,0,0,0,.74.73,1.53,1.53,0,0,0,.88-.3,2.77,2.77,0,0,0,.76-.88,4.89,4.89,0,0,0,.51-1.37l.5-2.42h.85L174,37.43h-.7l.11-1h-.06a3.33,3.33,0,0,1-1,.89,1.87,1.87,0,0,1-.94.25,1.45,1.45,0,0,1-1-.35,1.34,1.34,0,0,1-.37-1,5.19,5.19,0,0,1,.11-.88l.74-3.44Z" transform="translate(-1.12 0)"/><path class="cls-2" d="M179.22,35.84a1.5,1.5,0,0,1-.56,1.24,2.51,2.51,0,0,1-1.59.45,3.43,3.43,0,0,1-1.55-.35v-.81a3,3,0,0,0,1.53.45,1.56,1.56,0,0,0,1-.25.81.81,0,0,0,.32-.65.73.73,0,0,0-.17-.49,3.42,3.42,0,0,0-.77-.55,3.22,3.22,0,0,1-.94-.73,1.34,1.34,0,0,1-.27-.84,1.39,1.39,0,0,1,.51-1.13,2,2,0,0,1,1.35-.43,4,4,0,0,1,1.68.37l-.27.7-.29-.13a2.9,2.9,0,0,0-1.12-.22,1.13,1.13,0,0,0-.74.23.68.68,0,0,0-.27.57.72.72,0,0,0,.18.49,3.23,3.23,0,0,0,.75.52,4.62,4.62,0,0,1,.78.53,1.56,1.56,0,0,1,.35.47A1.28,1.28,0,0,1,179.22,35.84Z" transform="translate(-1.12 0)"/><path class="cls-2" d="M181.09,37.43h-.85l1.19-5.58h.85Zm.58-7a.65.65,0,0,1,.16-.46.52.52,0,0,1,.42-.19.4.4,0,0,1,.45.46.72.72,0,0,1-.17.48.53.53,0,0,1-.4.19.43.43,0,0,1-.46-.48Z" transform="translate(-1.12 0)"/><path class="cls-2" d="M186.29,37.43,187,33.9a5.57,5.57,0,0,0,.1-.73.72.72,0,0,0-.18-.51.75.75,0,0,0-.58-.2,1.54,1.54,0,0,0-.88.31,2.62,2.62,0,0,0-.76.87,4.5,4.5,0,0,0-.49,1.37l-.52,2.42h-.85l1.19-5.58h.71l-.12,1h.05a3.43,3.43,0,0,1,.95-.88,1.87,1.87,0,0,1,.94-.25,1.41,1.41,0,0,1,1,.35,1.3,1.3,0,0,1,.37,1,4.76,4.76,0,0,1-.11.92l-.73,3.42Z" transform="translate(-1.12 0)"/><path class="cls-2" d="M191.09,37.53a1.92,1.92,0,0,1-1.47-.55,2.13,2.13,0,0,1-.54-1.54,4.66,4.66,0,0,1,.38-1.84,3.53,3.53,0,0,1,1-1.37,2.18,2.18,0,0,1,1.37-.48,1.78,1.78,0,0,1,1.17.33,1.19,1.19,0,0,1,.39,1,1.62,1.62,0,0,1-.84,1.44,4.59,4.59,0,0,1-2.41.52H190l0,.41a1.57,1.57,0,0,0,.31,1,1.19,1.19,0,0,0,1,.37,2.61,2.61,0,0,0,.66-.09,4.74,4.74,0,0,0,.84-.34v.75a4.49,4.49,0,0,1-.85.31A3.32,3.32,0,0,1,191.09,37.53Zm.7-5.06a1.35,1.35,0,0,0-1,.48,3.05,3.05,0,0,0-.7,1.33h.06a4.15,4.15,0,0,0,1.77-.3,1,1,0,0,0,.62-.88.58.58,0,0,0-.19-.45A.79.79,0,0,0,191.79,32.47Z" transform="translate(-1.12 0)"/><path class="cls-2" d="M197.45,35.84a1.47,1.47,0,0,1-.56,1.24,2.46,2.46,0,0,1-1.58.45,3.43,3.43,0,0,1-1.55-.35v-.81a3,3,0,0,0,.77.34,3.1,3.1,0,0,0,.76.11,1.51,1.51,0,0,0,1-.25.79.79,0,0,0,.33-.65.69.69,0,0,0-.18-.49,3.19,3.19,0,0,0-.77-.55,3,3,0,0,1-.93-.73,1.35,1.35,0,0,1-.28-.84,1.4,1.4,0,0,1,.52-1.13,2,2,0,0,1,1.35-.43,4,4,0,0,1,1.68.37l-.28.7-.28-.13a2.94,2.94,0,0,0-1.12-.22,1.11,1.11,0,0,0-.74.23.68.68,0,0,0-.27.57.72.72,0,0,0,.18.49,3.35,3.35,0,0,0,.74.52,3.9,3.9,0,0,1,.78.53,1.28,1.28,0,0,1,.47,1Z" transform="translate(-1.12 0)"/><path class="cls-2" d="M201.91,35.84a1.5,1.5,0,0,1-.56,1.24,2.48,2.48,0,0,1-1.58.45,3.4,3.4,0,0,1-1.55-.35v-.81a2.89,2.89,0,0,0,.76.34,3.17,3.17,0,0,0,.76.11,1.56,1.56,0,0,0,1-.25.79.79,0,0,0,.33-.65.69.69,0,0,0-.18-.49,3.42,3.42,0,0,0-.77-.55,3,3,0,0,1-.93-.73,1.29,1.29,0,0,1-.28-.84,1.39,1.39,0,0,1,.51-1.13,2.05,2.05,0,0,1,1.36-.43,3.91,3.91,0,0,1,1.67.37l-.27.7-.29-.13a2.89,2.89,0,0,0-1.11-.22,1.14,1.14,0,0,0-.75.23.73.73,0,0,0-.08,1.06,3.11,3.11,0,0,0,.74.52,4.62,4.62,0,0,1,.78.53,1.41,1.41,0,0,1,.35.47A1.28,1.28,0,0,1,201.91,35.84Z" transform="translate(-1.12 0)"/><path class="cls-2" d="M209.51,37.43h-3.74L207.34,30h3.74l-.17.78H208l-.5,2.39h2.68l-.15.78h-2.69l-.58,2.72h2.87Z" transform="translate(-1.12 0)"/><path class="cls-2" d="M214.36,37.43l.75-3.53a4.22,4.22,0,0,0,.1-.73.72.72,0,0,0-.18-.51.75.75,0,0,0-.58-.2,1.54,1.54,0,0,0-.88.31,2.6,2.6,0,0,0-.75.87,4.5,4.5,0,0,0-.5,1.37l-.51,2.42H211l1.19-5.58h.71l-.11,1h0a3.42,3.42,0,0,1,.94-.88,1.89,1.89,0,0,1,.94-.25,1.41,1.41,0,0,1,1,.35,1.3,1.3,0,0,1,.37,1A4.08,4.08,0,0,1,216,34l-.73,3.42Z" transform="translate(-1.12 0)"/><path class="cls-2" d="M217.79,37.43l-.63-5.58H218l.33,3.12c.08.87.12,1.49.12,1.84h0c.43-.93.73-1.56.91-1.89l1.65-3.07h.9l-3,5.58Z" transform="translate(-1.12 0)"/><path class="cls-2" d="M222.62,37.43h-.85L223,31.85h.85Zm.57-7a.65.65,0,0,1,.17-.46.51.51,0,0,1,.42-.19.4.4,0,0,1,.45.46.72.72,0,0,1-.17.48.53.53,0,0,1-.4.19.46.46,0,0,1-.33-.12A.49.49,0,0,1,223.19,30.42Z" transform="translate(-1.12 0)"/><path class="cls-2" d="M227.93,31.75a2.22,2.22,0,0,1,.61.07l-.18.76a2.5,2.5,0,0,0-.54-.07,1.42,1.42,0,0,0-.86.31,2.64,2.64,0,0,0-.71.85,4.19,4.19,0,0,0-.44,1.2l-.55,2.56h-.85l1.19-5.58h.7l-.11,1h.05a5.33,5.33,0,0,1,.61-.69,2,2,0,0,1,.5-.33A1.36,1.36,0,0,1,227.93,31.75Z" transform="translate(-1.12 0)"/><path class="cls-2" d="M231.5,31.78a2,2,0,0,1,1.52.57,2.18,2.18,0,0,1,.56,1.58,4.39,4.39,0,0,1-.37,1.8,3.08,3.08,0,0,1-1,1.32,2.29,2.29,0,0,1-1.41.46,2,2,0,0,1-1.53-.58,2.15,2.15,0,0,1-.55-1.57,4.49,4.49,0,0,1,.37-1.82,3.14,3.14,0,0,1,1-1.31A2.34,2.34,0,0,1,231.5,31.78Zm1.2,2a1.4,1.4,0,0,0-.32-1,1.1,1.1,0,0,0-.86-.37,1.52,1.52,0,0,0-1,.38,2.43,2.43,0,0,0-.68,1.05,4.35,4.35,0,0,0-.24,1.49,1.53,1.53,0,0,0,.32,1,1.2,1.2,0,0,0,.93.36,1.39,1.39,0,0,0,1-.37,2.47,2.47,0,0,0,.66-1.06A4.65,4.65,0,0,0,232.7,33.81Z" transform="translate(-1.12 0)"/><path class="cls-2" d="M237.77,37.43l.75-3.53a4.22,4.22,0,0,0,.1-.73.72.72,0,0,0-.18-.51.74.74,0,0,0-.57-.2,1.52,1.52,0,0,0-.88.31,2.62,2.62,0,0,0-.76.87,4.78,4.78,0,0,0-.5,1.37l-.51,2.42h-.85l1.19-5.58h.7l-.11,1h0a3.56,3.56,0,0,1,.94-.88,1.93,1.93,0,0,1,1-.25,1.37,1.37,0,0,1,1,.35,1.31,1.31,0,0,1,.38,1,4.15,4.15,0,0,1-.12.92l-.73,3.42Z" transform="translate(-1.12 0)"/><path class="cls-2" d="M243.61,37.43l.75-3.53a4.07,4.07,0,0,0,.09-.68.85.85,0,0,0-.16-.56.64.64,0,0,0-.53-.2,1.36,1.36,0,0,0-.83.31,2.66,2.66,0,0,0-.72.87,5.23,5.23,0,0,0-.47,1.37l-.51,2.42h-.86l1.19-5.58h.71l-.11,1h.05a3.26,3.26,0,0,1,.88-.87,1.68,1.68,0,0,1,.91-.26,1.15,1.15,0,0,1,.88.33,1.49,1.49,0,0,1,.37.92h0a3.25,3.25,0,0,1,.93-1,1.87,1.87,0,0,1,1-.3,1.38,1.38,0,0,1,1,.34,1.34,1.34,0,0,1,.35,1,4.49,4.49,0,0,1-.11.91l-.73,3.42h-.86l.75-3.53a4.3,4.3,0,0,0,.1-.74.72.72,0,0,0-.18-.51.73.73,0,0,0-.55-.19,1.36,1.36,0,0,0-.81.3,2.47,2.47,0,0,0-.7.84,4.2,4.2,0,0,0-.46,1.28l-.55,2.55Z" transform="translate(-1.12 0)"/><path class="cls-2" d="M251.65,37.53a1.92,1.92,0,0,1-1.47-.55,2.12,2.12,0,0,1-.53-1.54A4.65,4.65,0,0,1,250,33.6a3.53,3.53,0,0,1,1-1.37,2.18,2.18,0,0,1,1.37-.48,1.78,1.78,0,0,1,1.17.33,1.19,1.19,0,0,1,.39,1,1.62,1.62,0,0,1-.84,1.44,4.59,4.59,0,0,1-2.41.52h-.17l0,.41a1.57,1.57,0,0,0,.31,1,1.19,1.19,0,0,0,1,.37,2.61,2.61,0,0,0,.66-.09,4.74,4.74,0,0,0,.84-.34v.75a4.68,4.68,0,0,1-.84.31A3.47,3.47,0,0,1,251.65,37.53Zm.7-5.06a1.35,1.35,0,0,0-1,.48,3.05,3.05,0,0,0-.7,1.33h.06a4.15,4.15,0,0,0,1.77-.3.94.94,0,0,0,.62-.88.61.61,0,0,0-.18-.45A.83.83,0,0,0,252.35,32.47Z" transform="translate(-1.12 0)"/><path class="cls-2" d="M258,37.43l.76-3.53a5.57,5.57,0,0,0,.1-.73.72.72,0,0,0-.18-.51.77.77,0,0,0-.58-.2,1.52,1.52,0,0,0-.88.31,2.62,2.62,0,0,0-.76.87A4.5,4.5,0,0,0,256,35l-.52,2.42h-.85l1.19-5.58h.7l-.11,1h.05a3.43,3.43,0,0,1,.95-.88,1.87,1.87,0,0,1,.94-.25,1.41,1.41,0,0,1,1,.35,1.3,1.3,0,0,1,.37,1,4.15,4.15,0,0,1-.12.92l-.72,3.42Z" transform="translate(-1.12 0)"/><path class="cls-2" d="M262.29,36.83a2.62,2.62,0,0,0,.73-.13v.66a2.42,2.42,0,0,1-.42.12,2.63,2.63,0,0,1-.41.05,1.41,1.41,0,0,1-1-.3,1.15,1.15,0,0,1-.34-.91,3.71,3.71,0,0,1,.09-.76l.65-3.07h-.88l.07-.37.94-.39.64-1.17h.5l-.28,1.29H264l-.13.64h-1.39l-.66,3.08a3.75,3.75,0,0,0-.09.67.6.6,0,0,0,.15.44A.56.56,0,0,0,262.29,36.83Z" transform="translate(-1.12 0)"/><path class="cls-2" d="M266.78,36a8.17,8.17,0,0,1,.61-3.19A9.26,9.26,0,0,1,269.34,30h.8a9.93,9.93,0,0,0-1.89,2.91,7.94,7.94,0,0,0-.64,3.14,7.48,7.48,0,0,0,.58,3h-.66A6.17,6.17,0,0,1,266.78,36Z" transform="translate(-1.12 0)"/><path class="cls-2" d="M274,35.27a2,2,0,0,1-.72,1.67,3.07,3.07,0,0,1-2,.59,5.3,5.3,0,0,1-.94-.07,2.78,2.78,0,0,1-.77-.25v-.87a3.63,3.63,0,0,0,1.72.43,2.08,2.08,0,0,0,1.31-.38,1.29,1.29,0,0,0,.48-1.06,1.06,1.06,0,0,0-.26-.7,4.23,4.23,0,0,0-1-.72,3,3,0,0,1-1.06-.86,1.75,1.75,0,0,1-.3-1,2,2,0,0,1,.67-1.55,2.56,2.56,0,0,1,1.77-.6,4.59,4.59,0,0,1,.93.09,4.89,4.89,0,0,1,.92.33l-.34.77a3.19,3.19,0,0,0-1.51-.42,1.67,1.67,0,0,0-1.1.35,1.19,1.19,0,0,0-.41,1,1.38,1.38,0,0,0,.08.48,1,1,0,0,0,.28.36,4,4,0,0,0,.72.49,6.41,6.41,0,0,1,1,.7,1.89,1.89,0,0,1,.39.56A1.81,1.81,0,0,1,274,35.27Z" transform="translate(-1.12 0)"/><path class="cls-2" d="M275,37.43,276.57,30h.85l-1.58,7.45Z" transform="translate(-1.12 0)"/><path class="cls-2" d="M281.3,30c1.47,0,2.2.57,2.2,1.71a1.79,1.79,0,0,1-.44,1.22,2.15,2.15,0,0,1-1.25.64v.05a1.72,1.72,0,0,1,.9.56,1.51,1.51,0,0,1,.31,1,2,2,0,0,1-.77,1.69,3.23,3.23,0,0,1-2.07.62h-2.35L279.4,30Zm-2.45,6.71h1.35a2.14,2.14,0,0,0,1.41-.41,1.42,1.42,0,0,0,.5-1.16,1.11,1.11,0,0,0-.38-.9,1.67,1.67,0,0,0-1.09-.32h-1.2Zm.75-3.52h1.26a2,2,0,0,0,1.26-.37,1.22,1.22,0,0,0,.48-1,1,1,0,0,0-.34-.8,1.79,1.79,0,0,0-1.07-.26h-1.07Z" transform="translate(-1.12 0)"/><path class="cls-2" d="M287.79,37.43h-3.74L285.62,30h3.74l-.16.78h-2.88l-.5,2.39h2.68l-.15.78h-2.69l-.58,2.72H288Z" transform="translate(-1.12 0)"/><path class="cls-2" d="M291.48,33a8.19,8.19,0,0,1-.62,3.2,9.44,9.44,0,0,1-1.94,2.85h-.8a8.91,8.91,0,0,0,2.52-6,7.61,7.61,0,0,0-.57-3.05h.67A6.37,6.37,0,0,1,291.48,33Z" transform="translate(-1.12 0)"/><path class="cls-2" d="M297.38,37.53a1.51,1.51,0,0,1-.87-.25,1.65,1.65,0,0,1-.57-.72h-.05l0,.2c0,.08,0,.2-.06.35s-.22,1.1-.58,2.82h-.84l1.71-8.08h.7l-.13,1.06h0a2.5,2.5,0,0,1,1.89-1.15,1.35,1.35,0,0,1,1.1.49,2.21,2.21,0,0,1,.4,1.39,5.58,5.58,0,0,1-.35,2,3.31,3.31,0,0,1-1,1.4A2.18,2.18,0,0,1,297.38,37.53Zm.94-5.07a1.44,1.44,0,0,0-1,.49,3.48,3.48,0,0,0-.81,1.21,4.14,4.14,0,0,0-.29,1.51,1.16,1.16,0,0,0,.28.85,1.07,1.07,0,0,0,.82.3,1.31,1.31,0,0,0,.93-.41,2.83,2.83,0,0,0,.7-1.17,4.83,4.83,0,0,0,.27-1.62C299.23,32.85,298.92,32.46,298.32,32.46Z" transform="translate(-1.12 0)"/><path class="cls-2" d="M304.43,31.75a2.18,2.18,0,0,1,.61.07l-.18.76a2.49,2.49,0,0,0-.53-.07,1.45,1.45,0,0,0-.87.31,2.77,2.77,0,0,0-.71.85,4.19,4.19,0,0,0-.44,1.2l-.54,2.56h-.86l1.19-5.58h.71l-.11,1h.05a4.72,4.72,0,0,1,.6-.69,2.16,2.16,0,0,1,.5-.33A1.4,1.4,0,0,1,304.43,31.75Z" transform="translate(-1.12 0)"/><path class="cls-2" d="M308,31.78a2,2,0,0,1,1.52.57,2.14,2.14,0,0,1,.56,1.58,4.56,4.56,0,0,1-.36,1.8,3.24,3.24,0,0,1-1,1.32,2.32,2.32,0,0,1-1.42.46,2,2,0,0,1-1.52-.58,2.15,2.15,0,0,1-.56-1.57,4.49,4.49,0,0,1,.37-1.82,3.14,3.14,0,0,1,1-1.31A2.36,2.36,0,0,1,308,31.78Zm1.2,2a1.4,1.4,0,0,0-.32-1,1.1,1.1,0,0,0-.86-.37,1.48,1.48,0,0,0-1,.38,2.34,2.34,0,0,0-.68,1.05,4.35,4.35,0,0,0-.24,1.49,1.48,1.48,0,0,0,.32,1,1.17,1.17,0,0,0,.93.36,1.41,1.41,0,0,0,.95-.37,2.37,2.37,0,0,0,.65-1.06A4.65,4.65,0,0,0,309.2,33.81Z" transform="translate(-1.12 0)"/><path class="cls-2" d="M316.16,31.85l-.13.54-1.07.12a1.46,1.46,0,0,1,.21.81,2.09,2.09,0,0,1-.59,1.55,2.19,2.19,0,0,1-1.58.58,2.16,2.16,0,0,1-.43,0c-.47.18-.71.4-.71.66a.27.27,0,0,0,.17.28,1.89,1.89,0,0,0,.49.11l.59.07a2.79,2.79,0,0,1,1.34.45,1.2,1.2,0,0,1,.41,1,1.67,1.67,0,0,1-.74,1.45,3.67,3.67,0,0,1-2.09.51,2.72,2.72,0,0,1-1.54-.37,1.18,1.18,0,0,1-.56-1.06,1.32,1.32,0,0,1,.36-.92,2.76,2.76,0,0,1,1.19-.67.67.67,0,0,1-.4-.62.83.83,0,0,1,.26-.6,2.42,2.42,0,0,1,.72-.47,1.33,1.33,0,0,1-.52-.48,1.31,1.31,0,0,1-.21-.74,2.26,2.26,0,0,1,.61-1.62,2.07,2.07,0,0,1,1.55-.63,3,3,0,0,1,.79.1Zm-5.41,6.57a.71.71,0,0,0,.33.62,1.67,1.67,0,0,0,1,.23,2.81,2.81,0,0,0,1.45-.32A1,1,0,0,0,314,38a.57.57,0,0,0-.28-.49,2.08,2.08,0,0,0-.93-.26L312,37.2a1.77,1.77,0,0,0-.94.45A1.06,1.06,0,0,0,310.75,38.42ZM312.16,34a.93.93,0,0,0,.23.66.86.86,0,0,0,.64.22,1.2,1.2,0,0,0,.7-.21,1.37,1.37,0,0,0,.46-.59,2.17,2.17,0,0,0,.16-.81.86.86,0,0,0-.23-.64.9.9,0,0,0-.64-.22,1.17,1.17,0,0,0-.69.21,1.37,1.37,0,0,0-.46.57A2,2,0,0,0,312.16,34Z" transform="translate(-1.12 0)"/><path class="cls-2" d="M319.61,31.75a2.15,2.15,0,0,1,.6.07l-.18.76a2.49,2.49,0,0,0-.53-.07,1.45,1.45,0,0,0-.87.31,2.62,2.62,0,0,0-.7.85,4.2,4.2,0,0,0-.45,1.2l-.54,2.56h-.86l1.19-5.58H318l-.11,1h.05a4.72,4.72,0,0,1,.6-.69,2.16,2.16,0,0,1,.5-.33A1.41,1.41,0,0,1,319.61,31.75Z" transform="translate(-1.12 0)"/><path class="cls-2" d="M323.15,31.75A1.46,1.46,0,0,1,324,32a1.64,1.64,0,0,1,.56.72h.06l.34-.87h.65l-1.19,5.58h-.67l.13-1.07h0a2.52,2.52,0,0,1-1.92,1.17,1.36,1.36,0,0,1-1.11-.5,2.22,2.22,0,0,1-.4-1.38,5.31,5.31,0,0,1,.36-2,3.44,3.44,0,0,1,1-1.42A2.17,2.17,0,0,1,323.15,31.75Zm-1,5.07a1.43,1.43,0,0,0,1-.47,3.44,3.44,0,0,0,.79-1.23,4,4,0,0,0,.3-1.51,1.2,1.2,0,0,0-.28-.84,1,1,0,0,0-.75-.31,1.4,1.4,0,0,0-1,.44,3,3,0,0,0-.71,1.19,4.6,4.6,0,0,0-.26,1.58,1.37,1.37,0,0,0,.24.87A.81.81,0,0,0,322.19,36.82Z" transform="translate(-1.12 0)"/><path class="cls-2" d="M329.32,37.43l.75-3.53a4.07,4.07,0,0,0,.09-.68.91.91,0,0,0-.15-.56.67.67,0,0,0-.54-.2,1.38,1.38,0,0,0-.83.31,2.52,2.52,0,0,0-.71.87,4.89,4.89,0,0,0-.48,1.37l-.51,2.42h-.86l1.19-5.58H328l-.11,1h.05a3.26,3.26,0,0,1,.88-.87,1.68,1.68,0,0,1,.91-.26,1.15,1.15,0,0,1,.88.33A1.49,1.49,0,0,1,331,33h0a3.25,3.25,0,0,1,.93-1,1.9,1.9,0,0,1,1-.3,1.36,1.36,0,0,1,1,.34,1.34,1.34,0,0,1,.35,1,4.49,4.49,0,0,1-.11.91l-.73,3.42h-.86l.75-3.53a4.3,4.3,0,0,0,.1-.74.77.77,0,0,0-.17-.51.76.76,0,0,0-.56-.19,1.36,1.36,0,0,0-.81.3,2.47,2.47,0,0,0-.7.84,4.48,4.48,0,0,0-.46,1.28l-.55,2.55Z" transform="translate(-1.12 0)"/><path class="cls-2" d="M338.39,37.43l.76-3.53a4.07,4.07,0,0,0,.09-.68.85.85,0,0,0-.16-.56.65.65,0,0,0-.54-.2,1.4,1.4,0,0,0-.83.31,2.64,2.64,0,0,0-.71.87,4.89,4.89,0,0,0-.47,1.37L336,37.43h-.85l1.19-5.58h.7l-.11,1H337a3.41,3.41,0,0,1,.88-.87,1.73,1.73,0,0,1,.91-.26,1.18,1.18,0,0,1,.89.33A1.55,1.55,0,0,1,340,33h0a3.25,3.25,0,0,1,.93-1,1.9,1.9,0,0,1,1-.3,1.21,1.21,0,0,1,1.35,1.35,5.36,5.36,0,0,1-.11.91l-.74,3.42h-.86l.75-3.53a4.64,4.64,0,0,0,.11-.74.72.72,0,0,0-.18-.51.75.75,0,0,0-.55-.19,1.31,1.31,0,0,0-.81.3,2.49,2.49,0,0,0-.71.84,4.8,4.8,0,0,0-.46,1.28l-.54,2.55Z" transform="translate(-1.12 0)"/><path class="cls-2" d="M346.43,37.53A2,2,0,0,1,345,37a2.16,2.16,0,0,1-.53-1.54,4.66,4.66,0,0,1,.38-1.84,3.51,3.51,0,0,1,1-1.37,2.23,2.23,0,0,1,1.38-.48,1.78,1.78,0,0,1,1.17.33,1.19,1.19,0,0,1,.39,1,1.62,1.62,0,0,1-.84,1.44,4.63,4.63,0,0,1-2.42.52h-.16l0,.41a1.58,1.58,0,0,0,.32,1,1.18,1.18,0,0,0,1,.37,2.5,2.5,0,0,0,.66-.09,4.21,4.21,0,0,0,.84-.34v.75a4.42,4.42,0,0,1-.84.31A3.35,3.35,0,0,1,346.43,37.53Zm.71-5.06a1.34,1.34,0,0,0-1,.48,3.06,3.06,0,0,0-.71,1.33h.06a4.17,4.17,0,0,0,1.78-.3,1,1,0,0,0,.62-.88.62.62,0,0,0-.19-.45A.81.81,0,0,0,347.14,32.47Z" transform="translate(-1.12 0)"/><path class="cls-2" d="M349.28,37.05a.88.88,0,0,1,.21-.62.7.7,0,0,1,.57-.23.48.48,0,0,1,.35.13.54.54,0,0,1,.13.4.87.87,0,0,1-.2.6.67.67,0,0,1-.55.25.48.48,0,0,1-.51-.53Z" transform="translate(-1.12 0)"/></svg>