<svg id="Layer_1" data-name="Layer 1" xmlns="http://www.w3.org/2000/svg" viewBox="0 0 269.9 141.6"><defs><style>.cls-1{fill:#fff;}</style></defs><path class="cls-1" d="M1.2,116.2H16V120H5.9v7.1h9.4v3.8H5.9v10.9H1.2Z" transform="translate(-1.2 -0.7)"/><path class="cls-1" d="M25.2,116.2v25.6H20.5V116.2Z" transform="translate(-1.2 -0.7)"/><path class="cls-1" d="M30.6,141.8V116.2h5.3l6.6,11a69.94,69.94,0,0,1,4.4,8.6H47c-.3-3.4-.4-6.7-.4-10.6v-8.9h4.3v25.6H46l-6.7-11.2c-1.6-2.8-3.3-6-4.6-8.9h-.1c.2,3.3.2,6.7.2,10.9v9.2H30.6Z" transform="translate(-1.2 -0.7)"/><path class="cls-1" d="M77.9,131.3c-.2-3.3-.3-7.3-.3-10.8h-.1c-.8,3.1-1.9,6.6-3,9.8l-3.7,11.1H67.2l-3.4-10.9c-1-3.3-1.9-6.8-2.6-10H61c-.1,3.3-.3,7.4-.5,10.9L60,141.8H55.6l1.7-25.6h6.2l3.3,10.3c.9,3,1.7,6,2.4,8.9h.1c.7-2.8,1.6-5.9,2.5-8.9l3.5-10.3h6.1l1.5,25.6H78.3Z" transform="translate(-1.2 -0.7)"/><path class="cls-1" d="M92.7,134.5l-2.2,7.3H85.7l8.2-25.6h6l8.3,25.6h-5l-2.3-7.3ZM100,131l-2-6.3c-.5-1.6-.9-3.3-1.3-4.8h-.1c-.4,1.5-.8,3.3-1.2,4.8l-2,6.3Z" transform="translate(-1.2 -0.7)"/><path class="cls-1" d="M111.7,116.5a45.29,45.29,0,0,1,7.1-.5c3.7,0,6.2.6,7.9,2.1a6.56,6.56,0,0,1,2.2,5.1,6.8,6.8,0,0,1-4.6,6.4v.1c1.8.7,2.9,2.5,3.6,4.9a51.28,51.28,0,0,0,2,7.1H125a32.61,32.61,0,0,1-1.7-6c-.7-3.3-1.9-4.4-4.6-4.5h-2.4v10.5h-4.6Zm4.6,11.3h2.8c3.2,0,5.1-1.7,5.1-4.2,0-2.8-2-4.1-5-4.1a15.65,15.65,0,0,0-2.9.2Z" transform="translate(-1.2 -0.7)"/><path class="cls-1" d="M133.3,116.2h4.6V128h.1c.6-1,1.3-1.9,1.9-2.8l6.7-9h5.8l-8.8,10.9,9.4,14.7h-5.5l-7.3-11.7-2.3,2.7v9h-4.6V116.2Z" transform="translate(-1.2 -0.7)"/><path class="cls-1" d="M168.5,121h-6.9v-4.9h19.7V121h-7v20.7h-5.8Z" transform="translate(-1.2 -0.7)"/><path class="cls-1" d="M184.4,116.5a50.1,50.1,0,0,1,7.7-.6c3.8,0,6.5.6,8.3,2.1a6.32,6.32,0,0,1,2.4,5.4,6.85,6.85,0,0,1-4.5,6.3v.1c1.8.7,2.8,2.4,3.4,4.7.8,2.9,1.6,6.3,2.1,7.3h-5.9a32.61,32.61,0,0,1-1.7-6c-.7-3.2-1.8-4.1-4.2-4.1h-1.7v10.1h-5.7V116.5Zm5.7,11h2.3c2.9,0,4.6-1.4,4.6-3.7s-1.6-3.5-4.3-3.5a11.85,11.85,0,0,0-2.6.2Z" transform="translate(-1.2 -0.7)"/><path class="cls-1" d="M212.7,116.2v14.7c0,4.4,1.7,6.7,4.6,6.7s4.7-2.1,4.7-6.7V116.2h5.8v14.4c0,7.9-4,11.7-10.7,11.7-6.5,0-10.2-3.6-10.2-11.7V116.3h5.8Z" transform="translate(-1.2 -0.7)"/><path class="cls-1" d="M233,135.8a14.69,14.69,0,0,0,6.4,1.6c2.7,0,4.1-1.1,4.1-2.8s-1.2-2.5-4.3-3.6c-4.3-1.5-7.1-3.9-7.1-7.6,0-4.4,3.7-7.7,9.7-7.7a15.13,15.13,0,0,1,6.5,1.3l-1.3,4.6a11.77,11.77,0,0,0-5.3-1.2c-2.5,0-3.7,1.2-3.7,2.5,0,1.6,1.4,2.4,4.7,3.6,4.5,1.7,6.6,4,6.6,7.6,0,4.3-3.3,7.9-10.3,7.9a17.18,17.18,0,0,1-7.3-1.6Z" transform="translate(-1.2 -0.7)"/><path class="cls-1" d="M258.3,121h-6.9v-4.9h19.7V121h-7v20.7h-5.8V121Z" transform="translate(-1.2 -0.7)"/><polygon class="cls-1" points="182.8 0 182.8 21 202.6 21 202.6 107.7 226.4 107.7 226.4 21 246.2 21 246.2 0 182.8 0"/><path class="cls-1" d="M165,96.3V29L154.1,94.8a165.81,165.81,0,0,0-27.2-.4L116,29V95.6a172.92,172.92,0,0,0-23,4.8L96,.8h34.8l9.7,70.1L150.1.8h34.8L188,102.2a146.83,146.83,0,0,0-23-5.9" transform="translate(-1.2 -0.7)"/><polygon class="cls-1" points="23.7 0 23.7 21 43.5 21 43.5 107.7 67.4 107.7 67.4 66.2 88.2 66.2 88.2 46.2 67.4 46.2 67.4 21 94.9 21 94.9 0 23.7 0"/></svg>