<?xml version="1.0" encoding="utf-8"?>
<!-- Generator: Adobe Illustrator 25.3.1, SVG Export Plug-In . SVG Version: 6.00 Build 0)  -->
<svg version="1.1" id="Figures" xmlns="http://www.w3.org/2000/svg" xmlns:xlink="http://www.w3.org/1999/xlink" x="0px" y="0px"
	 viewBox="0 0 1619.3 517.3" style="enable-background:new 0 0 1619.3 517.3;" xml:space="preserve">
<style type="text/css">
	.st0{fill:#08132D;}
	.st1{fill:#0097AE;}
	.st2{clip-path:url(#SVGID_2_);}
	.st3{clip-path:url(#SVGID_4_);}
	.st4{fill:url(#SVGID_5_);}
	.st5{fill:url(#SVGID_6_);}
	.st6{fill:url(#SVGID_7_);}
	.st7{clip-path:url(#SVGID_4_);fill:url(#SVGID_8_);}
	.st8{fill:url(#SVGID_9_);}
	.st9{fill:url(#SVGID_10_);}
	.st10{fill:url(#SVGID_11_);}
	.st11{fill:url(#SVGID_12_);}
	.st12{fill:url(#SVGID_13_);}
	.st13{fill:url(#SVGID_14_);}
	.st14{fill:url(#SVGID_15_);}
	.st15{fill:url(#SVGID_16_);}
	.st16{fill:url(#SVGID_17_);}
	.st17{fill:url(#SVGID_18_);}
	.st18{fill:url(#SVGID_19_);}
	.st19{fill:url(#SVGID_20_);}
	.st20{fill:url(#SVGID_21_);}
	.st21{fill:url(#SVGID_22_);}
	.st22{fill:url(#SVGID_23_);}
	.st23{fill:url(#SVGID_24_);}
	.st24{fill:url(#SVGID_25_);}
	.st25{fill:url(#SVGID_26_);}
	.st26{fill:url(#SVGID_27_);}
	.st27{fill:url(#SVGID_28_);}
	.st28{fill:url(#SVGID_29_);}
	.st29{fill:url(#SVGID_30_);}
	.st30{fill:url(#SVGID_31_);}
	.st31{fill:url(#SVGID_32_);}
	.st32{fill:url(#SVGID_33_);}
	.st33{fill:url(#SVGID_34_);}
	.st34{fill:url(#SVGID_35_);}
	.st35{fill:url(#SVGID_36_);}
	.st36{fill:url(#SVGID_37_);}
	.st37{fill:url(#SVGID_38_);}
	.st38{fill:url(#SVGID_39_);}
	.st39{fill:url(#SVGID_40_);}
	.st40{fill:url(#SVGID_41_);}
	.st41{fill:url(#SVGID_42_);}
	.st42{fill:none;stroke:#8BCDEA;stroke-width:0.71;stroke-miterlimit:10;}
	.st43{fill:none;stroke:#8BCDEA;stroke-width:0.7132;stroke-miterlimit:10;}
	.st44{fill:#0B1B3F;}
	.st45{fill:url(#SVGID_43_);}
	.st46{fill:url(#SVGID_44_);}
	.st47{fill:url(#SVGID_45_);}
	.st48{fill:url(#SVGID_46_);}
	.st49{fill:url(#SVGID_47_);}
	.st50{fill:url(#SVGID_48_);}
	.st51{fill:url(#SVGID_49_);}
	.st52{fill:url(#SVGID_50_);}
	.st53{fill:url(#SVGID_51_);}
	.st54{fill:url(#SVGID_52_);}
	.st55{fill:url(#SVGID_53_);}
	.st56{fill:url(#SVGID_54_);}
	.st57{fill:url(#SVGID_55_);}
	.st58{fill:url(#SVGID_56_);}
	.st59{fill:url(#SVGID_57_);}
	.st60{fill:url(#SVGID_58_);}
	.st61{fill:url(#SVGID_59_);}
	.st62{fill:url(#SVGID_60_);}
	.st63{fill:url(#SVGID_61_);}
	.st64{fill:url(#SVGID_62_);}
	.st65{fill:url(#SVGID_63_);}
	.st66{fill:url(#SVGID_64_);}
	.st67{fill:url(#SVGID_65_);}
	.st68{fill:url(#SVGID_66_);}
	.st69{fill:url(#SVGID_67_);}
	.st70{fill:url(#SVGID_68_);}
	.st71{fill:url(#SVGID_69_);}
	.st72{fill:url(#SVGID_70_);}
	.st73{fill:url(#SVGID_71_);}
	.st74{fill:url(#SVGID_72_);}
	.st75{fill:url(#SVGID_73_);}
	.st76{fill:url(#SVGID_74_);}
	.st77{fill:url(#SVGID_75_);}
	.st78{fill:none;stroke:#122956;stroke-width:1.744;stroke-miterlimit:10;}
	.st79{fill:url(#SVGID_76_);}
	.st80{fill:url(#SVGID_77_);}
	.st81{fill:url(#SVGID_78_);}
	.st82{fill:url(#SVGID_79_);}
	.st83{fill:url(#SVGID_80_);}
	.st84{fill:url(#SVGID_81_);}
	.st85{fill:url(#SVGID_82_);}
	.st86{fill:url(#SVGID_83_);}
	.st87{fill:url(#SVGID_84_);}
	.st88{fill:url(#SVGID_85_);}
	.st89{fill:url(#SVGID_86_);}
	.st90{fill:url(#SVGID_87_);}
	.st91{fill:url(#SVGID_88_);}
	.st92{fill:url(#SVGID_89_);}
	.st93{fill:url(#SVGID_90_);}
	.st94{fill:url(#SVGID_91_);}
	.st95{fill:url(#SVGID_92_);}
	.st96{fill:url(#SVGID_93_);}
	.st97{fill:url(#SVGID_94_);}
	.st98{fill:url(#SVGID_95_);}
	.st99{fill:url(#SVGID_96_);}
	.st100{fill:url(#SVGID_97_);}
	.st101{fill:url(#SVGID_98_);stroke:#1AC2D3;stroke-miterlimit:10;}
	.st102{fill:url(#SVGID_99_);stroke:#1AC2D3;stroke-width:2;stroke-miterlimit:10;}
	.st103{fill:url(#SVGID_100_);stroke:#1AC2D3;stroke-width:2;stroke-miterlimit:10;}
	.st104{fill:url(#SVGID_101_);stroke:#1AC2D3;stroke-width:2;stroke-miterlimit:10;}
	.st105{fill:url(#SVGID_102_);stroke:#1AC2D3;stroke-width:2;stroke-miterlimit:10;}
	.st106{fill:url(#SVGID_103_);stroke:#1AC2D3;stroke-width:2;stroke-miterlimit:10;}
	.st107{fill:url(#SVGID_104_);stroke:#1AC2D3;stroke-width:2;stroke-miterlimit:10;}
	.st108{fill:url(#SVGID_105_);stroke:#1AC2D3;stroke-width:2;stroke-miterlimit:10;}
	.st109{fill:url(#SVGID_106_);stroke:#1AC2D3;stroke-width:2;stroke-miterlimit:10;}
	.st110{fill:url(#SVGID_107_);stroke:#1AC2D3;stroke-width:2;stroke-miterlimit:10;}
	.st111{fill:url(#SVGID_108_);stroke:#1AC2D3;stroke-width:2;stroke-miterlimit:10;}
	.st112{fill:url(#SVGID_109_);stroke:#1AC2D3;stroke-width:2;stroke-miterlimit:10;}
	.st113{fill:url(#SVGID_110_);stroke:#1AC2D3;stroke-width:2;stroke-miterlimit:10;}
	.st114{fill:url(#SVGID_111_);stroke:#1AC2D3;stroke-width:2;stroke-miterlimit:10;}
	.st115{fill:url(#SVGID_112_);stroke:#1AC2D3;stroke-width:2;stroke-miterlimit:10;}
	.st116{fill:url(#SVGID_113_);stroke:#1AC2D3;stroke-width:2;stroke-miterlimit:10;}
	.st117{fill:url(#SVGID_114_);}
	.st118{fill:url(#SVGID_115_);}
	.st119{fill:url(#SVGID_116_);}
	.st120{fill:url(#SVGID_117_);}
	.st121{fill:url(#SVGID_118_);}
	.st122{fill:#13585B;}
	.st123{fill:url(#SVGID_119_);}
	.st124{fill:#FFFFFF;}
	.st125{fill:#04122B;}
	.st126{fill:#203366;}
	.st127{fill:#2F4577;}
	.st128{fill:#10234C;}
	.st129{fill:none;stroke:#0097AE;stroke-width:1.7518;stroke-miterlimit:10;}
	.st130{fill:url(#SVGID_120_);}
	.st131{fill:url(#SVGID_121_);}
	.st132{fill:url(#SVGID_122_);}
</style>
<path class="st0" d="M1618.8,517.3v-445c-61.3-18.7-110.3-21.4-148.3-19.8C1361.6,57,1341,160.3,1075.3,88.7
	C851,28.3,762.1,166.3,845,230.6c122.7,95.2,107.2,139.7,50.2,163.1c-37.1,15.2-71.3-40.7-175.7-30
	c-99.4,10.2-84.3,99.6-203.1,122.6c-45.5,8.8-100.2,20.3-158.4,31H1618.8z"/>
<path class="st1" d="M1197.5,403.2c-0.4,16.4-22.9,10.7-39,18.7c-23.6,11.7-49.3-15.6-115.7-7.4c-63.2,7.8-40.1,44.2-128.6,52.6
	c-94.8,9-104.3,7.5-140.3,50.2h844.9V403.2H1197.5z"/>
<g>
	<defs>
		<rect id="SVGID_1_" x="1010" y="167.9" width="608.8" height="291.6"/>
	</defs>
	<clipPath id="SVGID_2_">
		<use xlink:href="#SVGID_1_"  style="overflow:visible;"/>
	</clipPath>
	<g class="st2">
		<path class="st1" d="M1160.2,421.9h594.6c0,0,89.5-4.1,32.9-55.4c-23-20.9-41.8-18.7-67.8-39.5c-26-20.7-29.7-35.2-57.5-48.6
			c-25.2-12.2-47.9,2.8-56.9,18.7c-9.1,15.9-10.5,16.6-29.1,9.2c-14-5.6-21.8-1.5-32.1,12.4c-3.6,4.9-10.2,10.7-17,5.2
			c-5.6-4.5-20-17.8-33.3-2.8c-5.8,6.6-58.2,75.8-81.8,78.9c-23.6,3.2-39.4-15.9-49.7-22.7c-10.3-6.8-17.6-1.2-33.3,0.4
			c-15.7,1.6-20.5-19.3-29.7-31.9c-10.3-14.1-24.9-22.4-41.2-22.3c-19.1,0.1-43,11.1-62.4,59.4
			C1181.5,418.7,1160.2,421.9,1160.2,421.9z"/>
		<path class="st1" d="M1386.1,421.9h-205.9c0,0,13.6,0,27.9-21.6c7.1-10.7,21.7-44.9,46-45.1c24.7-0.1,32.6,37.1,54.5,37.4
			c14.7,0.2,12.5-5.2,24.7-5.2c12.1,0,20.1,12.9,28,20.5C1371,417.3,1377.7,421.4,1386.1,421.9z"/>
		<path class="st1" d="M1398.3,421.9c0,0,6.1-6.5,13.9-6.5c7.9,0,7.7-4.6,11.5-8c10.4-9.1,14.4-1.2,24-2
			c9.7-0.8,20.8-13.9,28.6-23.8c7.9-9.9,15.1-15.2,26-15.9c10.9-0.8,20.6,7.2,30.9,2.3c10.3-4.9,15.7-16.6,26.2-15.8
			c16.6,1.4,18.7,4.4,27.1-3.2c8.5-7.6,9.2-15.6,21-15c17.5,0.8,23,32.3,34.5,24.5c20.9-14.2,29.1,11.4,38.9,24.7
			c21.7,29.2,56,36.8,70.5,38.7H1398.3z"/>
		<path class="st1" d="M1193.8,421.9h74.5c0,0-1.8-11-11.8-10.3c-10,0.7-11.4-3.3-16.4-7.2c-2.8-2.2-5.5-5-11.8-5
			c-5.9,0-11.8,5-16.4,12.2C1208.5,417.1,1205.6,421.9,1193.8,421.9z"/>
		<path class="st1" d="M1277.4,421.9h70c0,0-16.8-20.4-29.1-20.4c-11.4,0-11.8,14.4-19.1,15.1c-7.3,0.7-5.9-2.2-11.8-2.2
			C1281.9,414.4,1277.4,421.9,1277.4,421.9z"/>
	</g>
</g>
<g>
	<defs>
		<path id="SVGID_3_" d="M1461.1,245.6c0,0,16.2-5.9,13.2-24.8c-3-18.9,36.3-37.7-14-60.4c-50.3-22.7-27.5-65.4-78.7-64.4
			c-51.2,1.1-69,46.6-131.6,1.6c-62.7-45-200.1-134.2-230-36c-30,98.3-30.3,126.5,9.8,152.2c40.2,25.8,58.7,42.3,54.6,83
			c-4.1,40.7,21.1,98.3,83.7,75.9c62.6-22.4,49.3-93,120.3-53.5c71,39.5,77.1,22,95.9,11.4c18.7-10.6,31.1,3.7,38.4-23.8
			C1434.9,260.8,1430.9,257.5,1461.1,245.6z"/>
	</defs>
	<use xlink:href="#SVGID_3_"  style="overflow:visible;fill:#203366;"/>
	<clipPath id="SVGID_4_">
		<use xlink:href="#SVGID_3_"  style="overflow:visible;"/>
	</clipPath>
	<g class="st3">
		<g>
			
				<linearGradient id="SVGID_5_" gradientUnits="userSpaceOnUse" x1="-8340.0371" y1="-1534.447" x2="-8340.8809" y2="-1693.5784" gradientTransform="matrix(-0.9127 -0.4087 -0.4087 0.9127 -7054.5278 -1508.5382)">
				<stop  offset="1.482780e-02" style="stop-color:#002C68"/>
				<stop  offset="0.4226" style="stop-color:#0098B0"/>
				<stop  offset="1" style="stop-color:#002C68"/>
			</linearGradient>
			<path class="st4" d="M1215.4,406.2c0,0-6.7,17.1-7.4,32.4c-0.7,15.3,0.1,17.8,0.1,17.8l7.1,4.4c0,0-3.2-15.1-1.1-27.2
				c2-12.1,3.8-19.9,5.7-27c2-7.1-0.3-13-0.3-13L1215.4,406.2z"/>
			<g>
				
					<linearGradient id="SVGID_6_" gradientUnits="userSpaceOnUse" x1="-8330.9033" y1="-1701.0315" x2="-8248.2568" y2="-1701.0315" gradientTransform="matrix(-0.9127 -0.4087 -0.4087 0.9127 -7054.5278 -1508.5382)">
					<stop  offset="1.482780e-02" style="stop-color:#002C68"/>
					<stop  offset="0.4226" style="stop-color:#0098B0"/>
					<stop  offset="1" style="stop-color:#002C68"/>
				</linearGradient>
				<path class="st5" d="M1219.6,397.7c0,0-5.2,19.8-17,20.1c-11.8,0.3-26.6-3.4-32.7-14c-6.1-10.6-8-19.8,1.3-10.1
					c9.3,9.8,19.2,9,21,8.8c1.8-0.3,12.8-3.2,9.2-8.8c-3.6-5.6-6.8-5-11-4.2c-4.2,0.9-18,7.8-24.6-0.7c-6.5-8.5-12-32.9-6.3-28.9
					c5.8,3.9,20.3,17,27.5,18.6c7.2,1.6,13.2,4.1,15.5-5.4c1.8-7.3-10-6.6-11.7-7c-1.7-0.4-18.3-0.2-22.9-8.3
					c-4.6-8.1-5.5-23.5-2.9-37.3c2.6-13.8,7-8.6,9.8,2.8c2.8,11.4,16.9,34.8,26.1,36.3c9.2,1.6,15.5-4.1,11-10
					c-4.5-5.8-21.9-10.1-28.8-19.5c-7-9.5-11.1-22.9-7.6-32.8c3.5-9.8,11.5-20.2,13-11.1c1.5,9.2,11.8,41.2,18.3,46.6
					c6.5,5.4,13.3,2.7,13.9-0.1c0.6-2.7-0.5-6.9-7.8-11.8c-7.3-4.9-18.4-16.6-17-27.3c1.5-10.7,11.2-36.2,14.2-25.6
					c3,10.6,1.3,20.6,2.1,24.9c0.8,4.4,5,24.7,10.4,26.1c5.4,1.4,10.9-6.5,5.3-11c-5.6-4.5-14.9-17.6-12-30.9
					c2.9-13.3,11-28.1,12.9-15.5c1.9,12.5,2.5,22.2,3.1,26.3c0.6,4.1,2.8,12.5,5.1,6c2.3-6.6,1.5-13.1-0.6-18.4
					c-2.1-5.3-2.2-14.4,3.9-17.7c6-3.3,14.1-5.8,15.9-7.1C1257.9,249.4,1221.1,392.6,1219.6,397.7z"/>
				
					<linearGradient id="SVGID_7_" gradientUnits="userSpaceOnUse" x1="-8385.5703" y1="-1706.3877" x2="-8303.5576" y2="-1706.3877" gradientTransform="matrix(-0.9127 -0.4087 -0.4087 0.9127 -7054.5278 -1508.5382)">
					<stop  offset="1.482780e-02" style="stop-color:#002C68"/>
					<stop  offset="0.4226" style="stop-color:#0098B0"/>
					<stop  offset="1" style="stop-color:#002C68"/>
				</linearGradient>
				<path class="st6" d="M1219.1,396.1c0,0-4.1,20.9,4.1,24.7c8.2,3.8,22,9.4,36.3-2.7c14.3-12.1,18-14.9,19.7-18.5
					c1.7-3.6,1.8-5.8-5.5-4.3c-7.4,1.5-16.5,7-24.1,5.8c-7.5-1.2-14.2-7.8-6.9-13c7.3-5.2,9.2-1.1,18,1c8.8,2.1,16.7,5.7,22.3-5.1
					c5.6-10.8,7.3-19.9,7.9-22.8c0.6-2.9,0.7-7.1-4.6-2.5c-5.3,4.6-20.7,18.1-30.4,18.8c-9.7,0.7-15.5-6-6.4-11.1
					c9.1-5.1,16.6-3.2,23.4-5.5c6.8-2.3,20.1-9,21.5-23.3c1.5-14.2-0.1-24.6-6.6-15.7c-6.5,8.9-17.6,29.3-25.9,32.5
					c-8.3,3.2-18.4,3.2-16.3-2.4c2.1-5.6,4.2-7.8,13.7-9.5c9.5-1.8,18.8-10,23.1-17.5c4.3-7.5,7.8-20.1,6.5-25.7
					c-1.3-5.6-3-11.8-7.9-4.4c-4.9,7.5-16.2,33.1-25.8,37.5c-9.6,4.4-14.2,1.9-9.2-6.4c5-8.3,14.4-11.9,20-17
					c5.7-5.1,12.9-11.9,12.5-20.8c-0.4-8.9-0.5-19.4-4.9-12.1c-4.4,7.3-10.3,18.1-15,25.6c-4.7,7.5-6.5,8.3-7.9,7.4
					c-1.4-0.9-3.9-5.8,5-17c8.9-11.2,12.5-14.6,12.1-19.9c-0.3-5.2-11.7-18.6-11.9-21.5C1255.8,247.9,1219.1,396.1,1219.1,396.1z"/>
			</g>
		</g>
	</g>
	<linearGradient id="SVGID_8_" gradientUnits="userSpaceOnUse" x1="1203.3722" y1="243.392" x2="1084.4088" y2="292.8077">
		<stop  offset="1.482780e-02" style="stop-color:#002C68"/>
		<stop  offset="0.4226" style="stop-color:#0098B0"/>
		<stop  offset="1" style="stop-color:#002C68"/>
	</linearGradient>
	<path class="st7" d="M1142.5,343.3c0.1-1.4-6.5-4.1-9-5.9c-2.5-1.7-17.4-9.2-29.5-14.6c-6.9-3.1-12.1-3.9-15.4-4
		c0.7-1.5,1.3-2.8,1.8-4c3,0.5,8.1,2.3,12.8,4c6.2,2.3,17.4,3.4,26.6,4.5c9.1,1.1,20.8,1,24.2,1.2c3.3,0.2,1.5-1.1-1.1-2.2
		c-2.6-1.1-15.2-4.2-21.9-6.3c-6.7-2.1-20.6-3.5-25.5-3.9c-3.6-0.2-10.7,0.4-14.2,0.7c1.3-2.7,2.2-4.6,2.8-5.8
		c0.3-0.7,0.7-1.6,1.3-2.8c1.3,0.5,2.9,1,4.5,1.3c4.1,0.9,11,3.1,14.3,3.5c3.3,0.3,10.9,0.6,17.5,1.2c6.6,0.6,22.1,0.4,26.3-0.1
		c4.1-0.5,1.1-1.4-1.4-2.3c-2.5-0.9-11.5-2.8-19.6-4.8c-8.1-2-24.2-1.6-28.8-1.2c-3.2,0.3-8.6,0.5-11.8,0.5c0.5-0.9,1-1.9,1.5-2.9
		c0.1,0,0.2-0.1,0.3-0.1c3.2-1.1,8.7-0.8,10.6-0.8c1.9-0.1,14.6-0.4,20.9-0.3c6.3,0.1,23.5,0.4,26,0.1c2.5-0.3,2.8-1.2,1.4-1.6
		c-1.4-0.4-3.9-0.9-7.5-1.8c-3.6-0.8-15.6-2.8-20.9-2.8c-5.3,0-15.6,0.8-20.3,2.1c-3.6,1-7.5,2.1-9.1,2.5c1-1.8,2-3.7,3-5.6
		c0.2,0,0.3,0,0.5,0c3.9,0.1,16.5-1.4,19.6-1.7c3.1-0.3,9.7-0.5,15.9-1c7.4-0.6,20.6-3.8,24.3-5c3.8-1.3,0.8-1.6-1.7-2
		c-2.5-0.4-11.1-1.1-18.9-1c-9,0.1-22.6,3-26.9,4.3c-2.9,0.9-8.1,2.1-10.9,2.7c0.9-1.6,1.8-3.3,2.6-4.8c2.3-0.8,5.7-1.9,8.5-2.6
		c4.5-1.2,16.4-2.9,23.9-3.3c9.4-0.6,22.7-1.1,24.4-1.7c1.7-0.7,4.2-1.2-2.2-3.3c-5.8-1.9-14.8-2.7-20.5-2.3
		c-3.6,0.3-18,2.4-22.7,4.5c-3.6,1.7-7.1,4-9.5,5.3c0.8-1.5,1.6-2.8,2.2-3.9c4-1.1,11.2-4,18-6.6c9-3.4,21-11.9,25.6-14.8
		c4.6-2.9,5.4-4.4,3.2-3.6c-2.2,0.8-4.4,1.6-9.6,3.7c-5.2,2.1-16.9,7.6-23.8,11.3c-3.9,2.1-8.7,5.2-12,7.5c0.2-0.3,0.3-0.6,0.4-0.7
		c0.2-0.4,0.4-0.8,0.6-1.1c4.7-2.9,12.7-8.7,17.9-13.8c6.1-6,15.2-14.9,20.5-21.9c5.3-7,1.1-3.8,0.1-3.1c-1,0.8-4.3,2.1-10.4,7.6
		c-6.1,5.5-18.4,16.8-23.9,23c-0.1,0.1-0.1,0.1-0.2,0.2c0.8-1.2,1.5-2.4,2.1-3.5c2.9-5.5,10.4-18.8,14.9-25.4
		c4.5-6.6,6.8-13.5,9.8-18.5c3.1-5-0.8-2.5-1.9-1.3c-1.1,1.1-7.5,7.1-15.9,17.1c-8.4,10-10.2,17.5-13,27.1
		c-1.8,5.9-2.9,10.1-3.6,12.5c-0.6,1.2-1.4,2.6-2.3,4.3c0.8-3.5,1.6-8.2,1.4-11.3c-0.2-5.6-0.5-17.2-0.8-24.5
		c-0.3-7.3-4.7-19.8-7.3-26.7c-2.6-6.9-5-3.6-4.1-1.2c0.9,2.4,3.1,22,3.3,28.1c0.2,6.1,3.2,25.9,4.2,30.9c0.6,3.2,1.2,6.4,1.5,8.2
		c-0.5,0.9-1.1,1.9-1.6,3c-0.1-2-1.5-5.6-3.2-11.9c-2-7.4-4-18.5-6-27c-1.9-8.5-6-22.4-9.7-27.9c-3.7-5.5-2.4,0.4-2,2.4
		c0.3,2,2.9,20.8,3.9,24.6c1,3.8,8.5,27.4,11.8,33.9c2.1,4.1,3.2,7,3.7,8.6c-0.8,1.4-1.6,2.9-2.4,4.4c-0.3-3.2-2.4-7.9-4.1-10.9
		c-1.9-3.3-7.4-17.5-11-24.5c-3.6-7-9.5-22-13.1-28c-3.7-6-2,3.1-1.2,6.5c0.8,3.4,6.4,24.3,11,35.3c4.6,11,12.4,19,14.6,22.1
		c0.9,1.3,1.3,2.4,1.6,3.4c-0.8,1.5-1.7,3.1-2.6,4.7c-1.2-2-3.6-6.2-6.3-10.1c-3-4.3-11.9-20.8-13.2-22.9
		c-1.3-2.1-10.9-17.8-14.5-23.4c-3.6-5.6-4.7-7.1-3.8-1.4c0.9,5.7,7.7,23.3,13,30.3c5.3,7,16.1,22.4,20.1,26
		c1.9,1.7,2.9,3.2,3.3,4.2c-0.7,1.2-1.4,2.5-2.1,3.7c-0.5,0-1-0.2-1.7-1.1c-1.6-2-7.4-9.4-10-13.7c-2.7-4.2-13-15.6-17.3-21
		c-4.3-5.4-13.2-15-16.9-19.3c-3.7-4.3-1.2,5.3,0.4,8.8c1.6,3.4,9.8,16.6,14.7,21.8c4.9,5.1,18.5,20.5,23.4,23.5
		c3.1,1.9,4.5,3.8,5.2,4.9c-1,1.8-1.9,3.8-2.9,5.7c-1.5-3-4.3-7.2-7.8-11.1c-4.4-5-17.5-20-21.7-24.2c-4.2-4.2-6.8-5.9-15.8-14.7
		c-9-8.8-6.8-3-6-1.3c0.8,1.7,5.3,9.4,10.9,16.1c5.6,6.6,22.8,22.9,30.3,28.3c5,3.6,7.8,7.1,9,9c-0.6,1.2-1.1,2.5-1.7,3.7
		c-2-2.1-6.7-5.9-9.1-8.6c-3.7-4.3-16-13.8-21.4-17.9c-5.4-4.2-12.1-8.7-20.7-14.5c-8.5-5.8-2.6,1.8-1.4,3.7
		c1.3,1.9,10.6,11,15.9,17c5.2,6,16.7,12.5,25.3,16.8c8.1,4,10.5,4.8,10.8,4.9c-0.2,0.4-0.4,0.9-0.6,1.3c-0.5,0.5-2.4,1.8-7.4-1.1
		c-6-3.4-18.1-8-24.4-10.6c-6.3-2.6-15.9-5.3-21.3-6c-5.4-0.7-6.5-0.3-1.7,2.4c4.9,2.7,13.3,8,20.1,10.2c6.8,2.2,17.7,5.2,22.8,6.9
		c5.1,1.6,8.3,1.9,10.4,1.4c0,0,0.1,0,0.1,0c-0.3,0.7-0.6,1.3-0.8,2c-3-1.2-9.3-0.7-16.4-0.4c-8.3,0.3-19.7,3.2-23.3,3.6
		c-3.6,0.4-1.6,0.9,5.2,2c6.7,1.1,18.5,0.6,24.4-0.5c3.6-0.7,7.1-1.8,9.3-2.6c-10.3,25.3-17.7,52.1-17.7,52.1s4.9,2.9,7.1-5.4
		c6.1-23.5,11.9-39.5,16.4-50.3c1.1,1.3,2.2,3.5,4.1,6.1c2.6,3.7,12.7,16.8,14.6,19c2.2,2.5,7.8,5.9,12,7.4c4.1,1.6,1.7-1.7,0.5-3.6
		c-1.3-1.9-7.4-8.6-10.2-12.5c-2.8-3.9-11.2-11.8-14.8-14.6c-1.9-1.5-4.3-2.3-5.9-2.7c0.5-1.2,1-2.3,1.4-3.4
		c0.5,0.2,1.1,0.3,1.6,0.4c2.8,0.7,6.6,4,10.3,6.4c3.8,2.4,16.5,10,20.2,11.6c7,2.9,12,4.1,16.5,4.5
		C1139.8,344.5,1142.4,344.7,1142.5,343.3z"/>
	<g class="st3">
		<g>
			
				<linearGradient id="SVGID_9_" gradientUnits="userSpaceOnUse" x1="-7541.168" y1="-4708.0479" x2="-7325.2256" y2="-4708.0479" gradientTransform="matrix(-0.8918 -0.4526 -0.4038 0.7959 -7162.4097 704.6631)">
				<stop  offset="1.482780e-02" style="stop-color:#002C68"/>
				<stop  offset="0.4226" style="stop-color:#0098B0"/>
				<stop  offset="1" style="stop-color:#002C68"/>
			</linearGradient>
			<path class="st8" d="M1386.9,362.8c0.9-1.8,1.6-3.8,2.1-5.7c-4.2,5-9.7,9.6-16.4,13.2c-3.7,2-7.6,3.6-11.4,4.7
				c-0.8-1.1-1.5-2.1-2.1-3.1c-1.3-2-3-4.5-5.2-7.3c5.8-1.4,11-4.2,14.7-8.3c-5.1,2.9-11.2,4.4-17.8,4.4
				c-8.2-10.2-19.4-22.9-26.6-31.8c7.7-2.2,14.1-6.8,17.6-13.6c0.3-0.6,0.6-1.2,0.8-1.9c-5.1,6.3-13.2,9.9-22.3,10.5
				c-0.2-0.2-0.3-0.4-0.5-0.7c-2.9-4-7-9.2-11.4-14.7c0.9-1.6,2-3.1,3.3-4.5c-1.6,0.9-3,2-4.4,3.1c-3.5-4.3-7-8.8-10.1-13
				c9.5-1.2,17.6-5.9,22-13.5c-7.2,5.1-17.2,7-27.6,5.2c-1.2-1.9-2.2-3.7-2.9-5.4c-4.9-11.2-2.7-40-0.8-39.5
				c4.9,1.3,8.8-3.5,32.2-3.2c5.2,0.1,10.3,0.6,15.3,1.7c2,7.4,1.3,16.1-2.3,24.3c2.5-2.7,4.7-5.8,6.5-9.3c2.2-4.2,3.5-8.6,4.1-12.9
				c7.2,2.2,14.2,5.2,21,8.8c0.3,5.1-0.8,10.8-3.6,16.3c-0.4,0.9-0.9,1.7-1.4,2.5c3.9-2.7,7.4-6.8,9.9-11.7c0.6-1.1,1.1-2.3,1.5-3.4
				c4.4,2.6,8.8,5.4,13,8.4c3.7,2.6,7.8,6.3,12.1,10.8c-0.3,0.2-0.6,0.4-0.8,0.7c-1.6,1.3-3.1,2.6-4.5,3.9c2.6-1.1,5-2,7.3-2.5
				c3.5,3.8,7.2,8.2,10.9,12.8c-2.1,4.4-5.9,9.5-11.1,14.4c4.8-2.1,10-5.3,15-9.3c4.4,5.8,8.9,11.9,13.4,18.2
				c-4.3,3.1-8.6,5.6-12.6,7.3c3.9,0.4,9.3-0.9,15.2-3.7c6.4,9.2,12.7,18.7,18.4,27.4c-5.4,3.1-10.5,5.2-14.7,6.1
				c3.4,2.1,9.8,1.2,17.2-2.2c1,1.6,2,3.1,3,4.7c19.9,31.2-11.1,52.4-11.1,52.4s-35.2,5.4-46.7,2.4c-6.6-1.7-22.8-16.5-31.9-28
				C1373.6,376.5,1382.5,371.4,1386.9,362.8z"/>
			<linearGradient id="SVGID_10_" gradientUnits="userSpaceOnUse" x1="1378.0706" y1="271.9584" x2="1358.8534" y2="344.2512">
				<stop  offset="1.482780e-02" style="stop-color:#002C68"/>
				<stop  offset="0.4226" style="stop-color:#0098B0"/>
				<stop  offset="1" style="stop-color:#002C68"/>
			</linearGradient>
			<path class="st9" d="M1441.7,403.1c0,0-35.2,5.4-46.7,2.4c-6.6-1.7-22.8-16.5-31.9-28c10.5-1.1,19.4-6.2,23.8-14.8
				c0.9-1.8,1.6-3.8,2.1-5.7c-4.2,5-9.7,9.6-16.4,13.2c-3.7,2-7.6,3.6-11.4,4.7c-0.8-1.1-1.5-2.1-2.1-3.1c-1.3-2-3-4.5-5.2-7.3
				c5.8-1.4,11-4.2,14.7-8.3c-5.1,2.9-11.2,4.4-17.8,4.4c-8.2-10.2-19.4-22.9-26.6-31.8c7.7-2.2,14.1-6.8,17.6-13.6
				c0.3-0.6,0.6-1.2,0.8-1.9c-5.1,6.3-13.2,9.9-22.3,10.5c-0.2-0.2-0.3-0.4-0.5-0.7c-2.9-4-7-9.2-11.4-14.7c0.9-1.6,2-3.1,3.3-4.5
				c-1.6,0.9-3,2-4.4,3.1c-3.5-4.3-7-8.8-10.1-13c9.5-1.2,17.6-5.9,22-13.5c-7.2,5.1-17.2,7-27.6,5.2c-1.2-1.9-2.2-3.7-2.9-5.4
				c-4.6-10.6-2.9-37-1.1-39.4c71.8,49.4,126,106.8,154.7,161.6C1441.9,403,1441.7,403.1,1441.7,403.1z"/>
			<g>
				
					<linearGradient id="SVGID_11_" gradientUnits="userSpaceOnUse" x1="-7537.3428" y1="-4805.9277" x2="-7326.7119" y2="-4805.9277" gradientTransform="matrix(-0.8916 -0.4524 -0.3981 0.7844 -7175.1587 729.6678)">
					<stop  offset="1.482780e-02" style="stop-color:#002C68"/>
					<stop  offset="0.4226" style="stop-color:#0098B0"/>
					<stop  offset="1" style="stop-color:#002C68"/>
				</linearGradient>
				<path class="st10" d="M1439.4,402.4c-29-54.3-74.1-106.4-152-160.9c0.1-0.2,0.2-0.4,0.3-0.5c71.9,49.2,125.3,107,154.2,161.3
					C1441.5,402.5,1441.2,402.1,1439.4,402.4z"/>
			</g>
		</g>
	</g>
	<g class="st3">
		<linearGradient id="SVGID_12_" gradientUnits="userSpaceOnUse" x1="1112.9146" y1="309.4556" x2="1123.8958" y2="439.8552">
			<stop  offset="1.482780e-02" style="stop-color:#002C68"/>
			<stop  offset="0.4226" style="stop-color:#0098B0"/>
			<stop  offset="1" style="stop-color:#002C68"/>
		</linearGradient>
		<path class="st11" d="M1142.1,475.7c0-0.1-9.4-13.3-17.5-17.7c-5.6-3.1-14.9-5.1-14.9-5.1c0,0,2.2,3.6,6.8,7
			C1121.2,463.2,1137.7,472,1142.1,475.7z"/>
		<linearGradient id="SVGID_13_" gradientUnits="userSpaceOnUse" x1="1147.2092" y1="306.5301" x2="1158.1929" y2="436.9583">
			<stop  offset="1.482780e-02" style="stop-color:#002C68"/>
			<stop  offset="0.4226" style="stop-color:#0098B0"/>
			<stop  offset="1" style="stop-color:#002C68"/>
		</linearGradient>
		<path class="st12" d="M1142.4,473.4c0,0,7-0.7,13.6-0.8c6.6-0.1,11.2-0.2,16.7,0.2c5.5,0.4,7.3,0.8,7.3,0.8c0,0-8.1,4-16.4,3.7
			C1155.4,477,1145,474.7,1142.4,473.4z"/>
		<linearGradient id="SVGID_14_" gradientUnits="userSpaceOnUse" x1="1113.606" y1="309.404" x2="1124.5865" y2="439.7975">
			<stop  offset="1.482780e-02" style="stop-color:#002C68"/>
			<stop  offset="0.4226" style="stop-color:#0098B0"/>
			<stop  offset="1" style="stop-color:#002C68"/>
		</linearGradient>
		<path class="st13" d="M1145.3,462.8c0-0.1-11.7-12.7-17.5-15.8c-7.1-3.9-19.5-6.9-21.9-7.7c0,0,7.1,5.2,14.1,10.1
			C1126.8,454.1,1139.5,461.8,1145.3,462.8z"/>
		<linearGradient id="SVGID_15_" gradientUnits="userSpaceOnUse" x1="1155.9679" y1="305.8582" x2="1166.947" y2="436.2338">
			<stop  offset="1.482780e-02" style="stop-color:#002C68"/>
			<stop  offset="0.4226" style="stop-color:#0098B0"/>
			<stop  offset="1" style="stop-color:#002C68"/>
		</linearGradient>
		<path class="st14" d="M1146.7,461.9c0,0,1.7-0.5,5.9-1.6c4.3-1.1,16-4.3,20.8-5c4.9-0.6,15-0.2,18.5,0c1.3,0.1-7.1,3.2-12.8,4.7
			c-4.3,1.2-10.7,2.8-15.4,2.8c-2.2,0-12.7-0.8-16.3,0.9C1143.9,465.4,1146.8,461.9,1146.7,461.9z"/>
		<linearGradient id="SVGID_16_" gradientUnits="userSpaceOnUse" x1="1115.7955" y1="309.216" x2="1126.7765" y2="439.6131">
			<stop  offset="1.482780e-02" style="stop-color:#002C68"/>
			<stop  offset="0.4226" style="stop-color:#0098B0"/>
			<stop  offset="1" style="stop-color:#002C68"/>
		</linearGradient>
		<path class="st15" d="M1147.1,454.7c0,0-6.7-10.3-11.5-13.8c-4.5-3.4-10.4-6.9-16.9-9.3c-6.5-2.4-12.1-4.4-12.1-4.4
			c0,0,5,5.4,10.1,8.9c5.1,3.6,9.5,7.3,16.2,10.6C1139.6,450.1,1147.1,454.7,1147.1,454.7z"/>
		<linearGradient id="SVGID_17_" gradientUnits="userSpaceOnUse" x1="1160.7294" y1="305.4478" x2="1171.7091" y2="435.8305">
			<stop  offset="1.482780e-02" style="stop-color:#002C68"/>
			<stop  offset="0.4226" style="stop-color:#0098B0"/>
			<stop  offset="1" style="stop-color:#002C68"/>
		</linearGradient>
		<path class="st16" d="M1148.5,451.8c1.2-1.5,2.6-2.7,7.9-4.1c5.3-1.3,16.6-5.7,23.6-6.5c7.1-0.7,17.1-2.2,17.5-2.4
			c0.5-0.2-11.3,7.4-19.7,9.1c-6.9,1.5-14.8,2.2-19.4,2.6c-4.6,0.4-9.1,1.3-10.8,2.8C1147.6,453.4,1148,452.4,1148.5,451.8z"/>
		<linearGradient id="SVGID_18_" gradientUnits="userSpaceOnUse" x1="1120.3413" y1="308.8319" x2="1131.3224" y2="439.2306">
			<stop  offset="1.482780e-02" style="stop-color:#002C68"/>
			<stop  offset="0.4226" style="stop-color:#0098B0"/>
			<stop  offset="1" style="stop-color:#002C68"/>
		</linearGradient>
		<path class="st17" d="M1148.6,442c0,0-1.9-4.2-8.3-9.6c-6.4-5.4-12.1-9.8-15.4-11.8c-3.3-1.9-11.5-4.7-12.4-5.2
			c-1-0.6,3.5,5.5,5.5,7.3c1.9,1.8,6.2,5,12.8,8.3C1137.3,434.4,1146.5,440.2,1148.6,442z"/>
		<linearGradient id="SVGID_19_" gradientUnits="userSpaceOnUse" x1="1161.7177" y1="305.357" x2="1172.6989" y2="435.7564">
			<stop  offset="1.482780e-02" style="stop-color:#002C68"/>
			<stop  offset="0.4226" style="stop-color:#0098B0"/>
			<stop  offset="1" style="stop-color:#002C68"/>
		</linearGradient>
		<path class="st18" d="M1149.1,441.2c2.3-1.3,8.4-3.2,11.9-4.5c3.4-1.3,7.3-1.2,18.9-7.1c10.2-5.2,15.4-11.6,15.4-11.5
			c0,0-1.9,0.7-9,2.2c-7,1.6-15.5,7.3-23.4,11.2c-7.9,3.9-12.6,7.6-12.5,7.6C1149.9,439.8,1149.5,440.5,1149.1,441.2z"/>
		<linearGradient id="SVGID_20_" gradientUnits="userSpaceOnUse" x1="1122.0312" y1="308.6915" x2="1133.0122" y2="439.0885">
			<stop  offset="1.482780e-02" style="stop-color:#002C68"/>
			<stop  offset="0.4226" style="stop-color:#0098B0"/>
			<stop  offset="1" style="stop-color:#002C68"/>
		</linearGradient>
		<path class="st19" d="M1151.6,431.2c0,0-8.9-10.5-13.7-15c-4.8-4.5-8-8.1-15.7-9.6c-7.8-1.5-11.4-2.9-11.4-2.9c0,0,5.8,5.2,11.4,9
			c5.6,3.8,13.3,9.1,16.3,10.7C1141.5,425,1149.9,431.5,1151.6,431.2z"/>
		<linearGradient id="SVGID_21_" gradientUnits="userSpaceOnUse" x1="1161.5601" y1="305.3626" x2="1172.5409" y2="435.7594">
			<stop  offset="1.482780e-02" style="stop-color:#002C68"/>
			<stop  offset="0.4226" style="stop-color:#0098B0"/>
			<stop  offset="1" style="stop-color:#002C68"/>
		</linearGradient>
		<path class="st20" d="M1150.5,424.5c2.3-2.2,4.9-4.1,10.9-7.7c5.7-3.4,12.1-7.6,15.7-9.1c3.7-1.5,15.2-6.5,15.4-6.7
			c0.4-0.1-5.6,8.4-11.1,11.4c-5.4,3-9.9,6-18.3,8.1c-8.4,2.1-12.3,4.6-13.5,6.9C1148.3,429.8,1149.9,425.1,1150.5,424.5z"/>
		<linearGradient id="SVGID_22_" gradientUnits="userSpaceOnUse" x1="1123.2316" y1="308.593" x2="1134.2123" y2="438.9867">
			<stop  offset="1.482780e-02" style="stop-color:#002C68"/>
			<stop  offset="0.4226" style="stop-color:#0098B0"/>
			<stop  offset="1" style="stop-color:#002C68"/>
		</linearGradient>
		<path class="st21" d="M1149.7,417.5c0,0-3.9-4.8-8.1-6.5c-4.3-1.7-13.4-7.8-15.9-10c-2.6-2.2-13.3-10.3-13.7-11.1
			c-0.5-0.8,5,2,10,3.3c5,1.3,11.3,5.5,15.8,9.4c4.4,3.8,11.6,11.6,12.3,12.9C1150.8,416.8,1149.7,417.5,1149.7,417.5z"/>
		<linearGradient id="SVGID_23_" gradientUnits="userSpaceOnUse" x1="1160.6044" y1="305.4425" x2="1171.5853" y2="435.8401">
			<stop  offset="1.482780e-02" style="stop-color:#002C68"/>
			<stop  offset="0.4226" style="stop-color:#0098B0"/>
			<stop  offset="1" style="stop-color:#002C68"/>
		</linearGradient>
		<path class="st22" d="M1150.6,412c0,0,5.1-4,9.6-7.3c4.6-3.3,12.6-8.2,14.4-9.8c2-1.6,12.6-7.2,12.6-7.7c0.1-0.4-3.6,7.3-10,12.6
			c-6.4,5.2-11.8,7.6-17.3,9.7c-5.6,2.1-8.8,4.1-9.6,5.5C1149.6,416.4,1150.6,412,1150.6,412z"/>
		<linearGradient id="SVGID_24_" gradientUnits="userSpaceOnUse" x1="1125.7531" y1="308.3805" x2="1136.7336" y2="438.7737">
			<stop  offset="1.482780e-02" style="stop-color:#002C68"/>
			<stop  offset="0.4226" style="stop-color:#0098B0"/>
			<stop  offset="1" style="stop-color:#002C68"/>
		</linearGradient>
		<path class="st23" d="M1148.8,398.6c0,0-7.8-8-11.9-11c-4.1-3-8.3-6.7-12.2-8.5c-3.9-1.9-9.7-4.6-9.7-4.6c0,0,4.6,6.1,8.9,9.8
			c4.2,3.7,9,7.8,14.9,11.2c5.9,3.4,11.3,5.5,11.3,5.4C1149.6,400.1,1149.2,399.4,1148.8,398.6z"/>
		<linearGradient id="SVGID_25_" gradientUnits="userSpaceOnUse" x1="1159.4806" y1="305.5366" x2="1170.4618" y2="435.9363">
			<stop  offset="1.482780e-02" style="stop-color:#002C68"/>
			<stop  offset="0.4226" style="stop-color:#0098B0"/>
			<stop  offset="1" style="stop-color:#002C68"/>
		</linearGradient>
		<path class="st24" d="M1150.5,397.6c0.1,0,8.3-7.6,12.6-11.2c4.4-3.6,11.5-9.1,14.6-11c3.2-1.8,5.7-3.9,5.7-3.9
			c0.2,0.1-8.6,13.5-14.9,17.1c-5.9,3.7-17.2,10.4-18.7,13.7C1148.4,405.7,1150.5,397.7,1150.5,397.6z"/>
		<linearGradient id="SVGID_26_" gradientUnits="userSpaceOnUse" x1="1124.7948" y1="308.4586" x2="1135.7758" y2="438.8562">
			<stop  offset="1.482780e-02" style="stop-color:#002C68"/>
			<stop  offset="0.4226" style="stop-color:#0098B0"/>
			<stop  offset="1" style="stop-color:#002C68"/>
		</linearGradient>
		<path class="st25" d="M1147.6,385.3c0,0-7.8-8.8-10.4-11.3c-2.7-2.6-8.4-6.2-12-7.2c-3.6-1.1-11.6-3.9-12.6-5
			c-1.1-1.1,2.8,5.1,7.6,8.3c4.7,3.1,11.9,7.3,17.7,10.9c5.8,3.6,8.9,4.8,10.2,8.1C1149.4,392.5,1147.6,385.3,1147.6,385.3z"/>
		<linearGradient id="SVGID_27_" gradientUnits="userSpaceOnUse" x1="1158.1404" y1="305.6516" x2="1169.1211" y2="436.0461">
			<stop  offset="1.482780e-02" style="stop-color:#002C68"/>
			<stop  offset="0.4226" style="stop-color:#0098B0"/>
			<stop  offset="1" style="stop-color:#002C68"/>
		</linearGradient>
		<path class="st26" d="M1148.7,383.9c0,0,4.2-5,7.6-8.2c3.5-3.2,8.9-7.1,11.2-9.3c2.5-2.1,11.2-8.2,11.4-9
			c0.3-0.7-4.3,10.6-11,15.6c-6.5,5-12,7.4-14.5,9.4c-2.5,2-4.9,4.4-4.9,4.4C1148.5,385.8,1148.6,384.8,1148.7,383.9z"/>
		<linearGradient id="SVGID_28_" gradientUnits="userSpaceOnUse" x1="1124.1405" y1="308.5156" x2="1135.1212" y2="438.9105">
			<stop  offset="1.482780e-02" style="stop-color:#002C68"/>
			<stop  offset="0.4226" style="stop-color:#0098B0"/>
			<stop  offset="1" style="stop-color:#002C68"/>
		</linearGradient>
		<path class="st27" d="M1144.9,370.4c0,0-6.5-7-11.8-10.5c-5.4-3.5-13.7-5.4-16.6-6.2c-2.9-0.8-4.7-0.8-4.7-0.8
			c0,0,3.8,3.5,8.6,6.9c4.8,3.4,12.2,6.1,15.7,7.2c3.4,1.2,8.9,4.7,9.6,5.9C1146.2,374.2,1144.9,370.4,1144.9,370.4z"/>
		<linearGradient id="SVGID_29_" gradientUnits="userSpaceOnUse" x1="1154.3407" y1="305.9709" x2="1165.3218" y2="436.3686">
			<stop  offset="1.482780e-02" style="stop-color:#002C68"/>
			<stop  offset="0.4226" style="stop-color:#0098B0"/>
			<stop  offset="1" style="stop-color:#002C68"/>
		</linearGradient>
		<path class="st28" d="M1146.3,370.9c0,0,4.7-7.1,8.8-11c4.2-3.9,7.6-8,9.7-9.7c2.2-1.7,6.9-7.1,6.8-7.1c0,0-1.5,7.4-5.8,12.8
			c-3.1,4.1-14.8,12.5-18.4,16C1144.6,374.7,1146.3,370.9,1146.3,370.9z"/>
		<linearGradient id="SVGID_30_" gradientUnits="userSpaceOnUse" x1="1122.1232" y1="308.6854" x2="1133.1038" y2="439.0787">
			<stop  offset="1.482780e-02" style="stop-color:#002C68"/>
			<stop  offset="0.4226" style="stop-color:#0098B0"/>
			<stop  offset="1" style="stop-color:#002C68"/>
		</linearGradient>
		<path class="st29" d="M1142.4,359c0,0-5.1-8.3-12.1-12c-5-2.7-11.6-4.6-15.3-5.2c-4.7-0.7-7.2-1.8-7.2-1.8c0,0,3.2,3.8,6.2,5.7
			c3,1.8,8.4,4.7,13.2,6.9c4.7,2.1,14.4,5.4,15.7,8.4C1144.3,363.9,1142.4,359,1142.4,359z"/>
		<linearGradient id="SVGID_31_" gradientUnits="userSpaceOnUse" x1="1150.2815" y1="306.3131" x2="1161.2622" y2="436.7081">
			<stop  offset="1.482780e-02" style="stop-color:#002C68"/>
			<stop  offset="0.4226" style="stop-color:#0098B0"/>
			<stop  offset="1" style="stop-color:#002C68"/>
		</linearGradient>
		<path class="st30" d="M1142.3,357.3c0,0,2.2-3.2,4.2-6.3c2.1-3.1,5.7-9.5,8.5-12.4c3-2.8,9.7-10.9,9.7-11.6
			c0.2-0.6-1.7,10-4.7,14.6c-2.8,4.6-10.3,11.4-14.1,14.6C1142.1,359.4,1141.5,358.4,1142.3,357.3z"/>
		<linearGradient id="SVGID_32_" gradientUnits="userSpaceOnUse" x1="1120.3677" y1="308.8321" x2="1131.3483" y2="439.2257">
			<stop  offset="1.482780e-02" style="stop-color:#002C68"/>
			<stop  offset="0.4226" style="stop-color:#0098B0"/>
			<stop  offset="1" style="stop-color:#002C68"/>
		</linearGradient>
		<path class="st31" d="M1139.2,346.2c0,0-8.2-9.4-12.7-12.1c-4.6-2.7-9.9-4.9-14.8-6.3c-4.9-1.3-6.3-1.4-6.3-1.4c0,0,7,6.7,11,8.9
			c4,2.2,8,4.7,12.6,6.5c4.7,1.8,9.7,4.2,10.9,7.3C1141.1,352.3,1139.2,346.2,1139.2,346.2z"/>
		<linearGradient id="SVGID_33_" gradientUnits="userSpaceOnUse" x1="1145.1454" y1="306.7458" x2="1156.1261" y2="437.1401">
			<stop  offset="1.482780e-02" style="stop-color:#002C68"/>
			<stop  offset="0.4226" style="stop-color:#0098B0"/>
			<stop  offset="1" style="stop-color:#002C68"/>
		</linearGradient>
		<path class="st32" d="M1139.8,346.7c0,0,1-3,2.4-8.4c1.4-5.4,2.9-11.9,4.1-14.6c1.4-2.6,7.9-11.8,7.9-12.1
			c0.2-0.3,0.7,11.5-1.6,16.5c-2.5,6-6.4,9.8-9.6,15.8c-3.3,6-3,6.4-2.9,6.4C1140,349.1,1139.9,347.9,1139.8,346.7z"/>
		<linearGradient id="SVGID_34_" gradientUnits="userSpaceOnUse" x1="1120.0775" y1="308.856" x2="1131.0585" y2="439.2535">
			<stop  offset="1.482780e-02" style="stop-color:#002C68"/>
			<stop  offset="0.4226" style="stop-color:#0098B0"/>
			<stop  offset="1" style="stop-color:#002C68"/>
		</linearGradient>
		<path class="st33" d="M1135.6,334.9c0,0-2.8-4.2-8.5-9.1c-5.7-4.9-9.1-7.5-12.6-8.7c-3.5-1.2-8.7-2.3-8.7-2.3c0,0,3.2,4.2,6.3,6.4
			c3.1,2.2,9.9,6.2,14.2,8.8c4.3,2.5,8.9,5.5,10.7,9C1138.8,342.5,1135.6,334.9,1135.6,334.9z"/>
		<linearGradient id="SVGID_35_" gradientUnits="userSpaceOnUse" x1="1139.0928" y1="307.2552" x2="1150.0735" y2="437.6488">
			<stop  offset="1.482780e-02" style="stop-color:#002C68"/>
			<stop  offset="0.4226" style="stop-color:#0098B0"/>
			<stop  offset="1" style="stop-color:#002C68"/>
		</linearGradient>
		<path class="st34" d="M1135.2,333.1c0,0-0.9-7,1.1-13.5c1.9-6.6,2-9.9,3.3-12.2c1.4-2.3,4.9-10.7,4.8-10.8
			c0.2,0,0.8,15.4-1.4,20.7c-1.9,5.3-5.6,10-7.1,16.1C1135.1,336.6,1135.2,333.1,1135.2,333.1z"/>
		<linearGradient id="SVGID_36_" gradientUnits="userSpaceOnUse" x1="1117.8877" y1="309.041" x2="1128.8683" y2="439.4332">
			<stop  offset="1.482780e-02" style="stop-color:#002C68"/>
			<stop  offset="0.4226" style="stop-color:#0098B0"/>
			<stop  offset="1" style="stop-color:#002C68"/>
		</linearGradient>
		<path class="st35" d="M1131.6,322.2c0,0-4.7-5.9-8.1-8.8c-3.4-3-6.9-5.7-12.1-8c-5.2-2.2-7.4-2.9-7.5-2.9c0,0,1.6,4.5,6.9,8.5
			c5.3,4,10.6,6.3,13.3,8c2.7,1.7,6.8,3.9,8.1,5.6C1133.4,326.2,1131.6,322.2,1131.6,322.2z"/>
		<linearGradient id="SVGID_37_" gradientUnits="userSpaceOnUse" x1="1132.8604" y1="307.7797" x2="1143.8412" y2="438.1757">
			<stop  offset="1.482780e-02" style="stop-color:#002C68"/>
			<stop  offset="0.4226" style="stop-color:#0098B0"/>
			<stop  offset="1" style="stop-color:#002C68"/>
		</linearGradient>
		<path class="st36" d="M1129.7,314.7c0.1,0,1-12.1,0.5-16.7c-0.3-6.6,3.4-14.6,3.4-15.6c0.2-1,2.7,12.9,1.8,17.5
			c-0.3,2.6-3,12.4-3.9,16.2C1130.7,319.9,1129.8,317.8,1129.7,314.7z"/>
		<linearGradient id="SVGID_38_" gradientUnits="userSpaceOnUse" x1="1115.9508" y1="309.2039" x2="1126.9316" y2="439.599">
			<stop  offset="1.482780e-02" style="stop-color:#002C68"/>
			<stop  offset="0.4226" style="stop-color:#0098B0"/>
			<stop  offset="1" style="stop-color:#002C68"/>
		</linearGradient>
		<path class="st37" d="M1127.3,310.5c0,0-3.4-3.8-6.5-6.9c-3.2-3.2-8.8-8.3-11.4-9.2c-2.6-1-7.2-2.1-7.2-2.1c0,0,1.2,4.3,5.3,7.3
			c4.1,3,8.2,5.6,11.4,7.2c3.2,1.6,8.4,4.8,9.5,7C1129.5,316,1127.3,310.5,1127.3,310.5z"/>
		<linearGradient id="SVGID_39_" gradientUnits="userSpaceOnUse" x1="1126.6609" y1="308.3021" x2="1137.6416" y2="438.6969">
			<stop  offset="1.482780e-02" style="stop-color:#002C68"/>
			<stop  offset="0.4226" style="stop-color:#0098B0"/>
			<stop  offset="1" style="stop-color:#002C68"/>
		</linearGradient>
		<path class="st38" d="M1124.6,302.2c0,0-0.8-4.6-1.1-9.3c-0.2-4.7-0.7-10.3-0.9-13.8c-0.2-3.5,0.1-9.1,0-9.1c0,0,3.4,9.2,3.9,14.4
			c0.6,5.2-0.8,15.2-0.8,20C1125.8,308.5,1124.6,302.2,1124.6,302.2z"/>
		<linearGradient id="SVGID_40_" gradientUnits="userSpaceOnUse" x1="1114.8466" y1="309.2978" x2="1125.8275" y2="439.6952">
			<stop  offset="1.482780e-02" style="stop-color:#002C68"/>
			<stop  offset="0.4226" style="stop-color:#0098B0"/>
			<stop  offset="1" style="stop-color:#002C68"/>
		</linearGradient>
		<path class="st39" d="M1122.9,299.9c0,0-3.9-4.7-5.5-8c-1.7-3.3-6.3-9-9.2-10.7c-2.9-1.7-6.5-3.9-6.5-3.9c0,0,2.7,4.3,4.4,6.5
			c1.7,2.2,3.5,4.7,8,9c4.4,4.3,9.7,9.4,10.6,10.6C1125.5,304.7,1122.9,299.9,1122.9,299.9z"/>
		<linearGradient id="SVGID_41_" gradientUnits="userSpaceOnUse" x1="1116.749" y1="309.1366" x2="1127.7296" y2="439.5309">
			<stop  offset="1.482780e-02" style="stop-color:#002C68"/>
			<stop  offset="0.4226" style="stop-color:#0098B0"/>
			<stop  offset="1" style="stop-color:#002C68"/>
		</linearGradient>
		<path class="st40" d="M1122.4,296.8c0,0-0.5-2-1.8-6.9c-1.2-5-4.4-13.4-5.8-15.8c-1.5-2.4-8.1-9.8-8.5-10.5
			c-0.4-0.8,3.3,9.4,4.5,12.5c1.2,3,2.2,6.9,4,9.6c1.8,2.6,7,11.1,7.4,12.6C1122.6,299.7,1122.4,296.8,1122.4,296.8z"/>
		<linearGradient id="SVGID_42_" gradientUnits="userSpaceOnUse" x1="1129.9908" y1="308.0215" x2="1140.9718" y2="438.418">
			<stop  offset="1.482780e-02" style="stop-color:#002C68"/>
			<stop  offset="0.4226" style="stop-color:#0098B0"/>
			<stop  offset="1" style="stop-color:#002C68"/>
		</linearGradient>
		<path class="st41" d="M1135.4,497.6c0.2,0.1,10-22,13.5-39.1c4.5-18,3.4-53.6,1.9-62.9c-0.7-9.5-8.5-41.8-10.6-49.3
			c-2.1-9.3-10.8-34-15.2-44.3c-2.5-6.2-5.4-10.1-5.6-10.6c-0.1-0.5,2.6,7.3,3.6,9.7c1,2.4,5.5,14.4,8,21.3c2.6,6.9,5.9,18.9,7.3,24
			c1.6,5,8.1,32.5,9.6,49.2c1.6,7.5,0.2,51.9-4.5,66.2c-2.9,11.1-7.6,19.8-10.4,23.6C1130.3,489.3,1132.5,496.3,1135.4,497.6z"/>
	</g>
	<g class="st3">
		<path class="st1" d="M1145.3,352.4c-4.6,15.2-2.1,30.6,5.5,41.7c12.6-5,23.3-16.3,28-31.5c4.6-15.2,2.1-30.6-5.5-41.7
			C1160.7,325.8,1149.9,337.2,1145.3,352.4z"/>
		<line class="st42" x1="1171.3" y1="326.6" x2="1151.5" y2="391.3"/>
		<line class="st43" x1="1167.3" y1="340" x2="1176.7" y2="335"/>
		<line class="st43" x1="1163.9" y1="351" x2="1175.5" y2="344.8"/>
		<line class="st43" x1="1160.5" y1="362" x2="1179.9" y2="351.7"/>
		<line class="st43" x1="1157.1" y1="373" x2="1176" y2="363.1"/>
		<line class="st43" x1="1153.8" y1="384.1" x2="1164.2" y2="378.5"/>
		<line class="st43" x1="1167.5" y1="338.6" x2="1162.5" y2="329.2"/>
		<line class="st43" x1="1164.2" y1="349.6" x2="1156.4" y2="335"/>
		<line class="st43" x1="1160.8" y1="360.6" x2="1151" y2="342.3"/>
		<line class="st43" x1="1157.4" y1="371.7" x2="1147.4" y2="352.8"/>
		<line class="st43" x1="1154" y1="382.7" x2="1145.4" y2="366.5"/>
	</g>
</g>
<path class="st44" d="M1437.2,150.9c-35.2-24.6-15.2-47.9-61.7-46.9c-50.2,1-68.7,36.8-130.1-6.2c-60.6-42.4-192.4-126.2-224.1-38.2
	c24.8-34.8,90.1-18.2,123.4,11.6c54.7,49.1,114.8,89.4,186.5,84.1c71.7-5.3,110.6-9.3,110.6,17.9
	C1441.8,173.3,1447.4,158.1,1437.2,150.9z"/>
<linearGradient id="SVGID_43_" gradientUnits="userSpaceOnUse" x1="1111.1171" y1="153.32" x2="1100.1357" y2="76.4511">
	<stop  offset="1.482780e-02" style="stop-color:#002C68"/>
	<stop  offset="1" style="stop-color:#0097AE"/>
</linearGradient>
<circle class="st45" cx="1107.3" cy="126.5" r="38.4"/>
<g>
	
		<linearGradient id="SVGID_44_" gradientUnits="userSpaceOnUse" x1="-12102.0605" y1="2543.9199" x2="-12059.0332" y2="2622.1511" gradientTransform="matrix(-0.9393 0.3431 0.3431 0.9393 -10824.1123 1905.5455)">
		<stop  offset="1.482780e-02" style="stop-color:#35A194"/>
		<stop  offset="0.4226" style="stop-color:#38AFC1"/>
		<stop  offset="1" style="stop-color:#0098AF"/>
	</linearGradient>
	<path class="st46" d="M1401.8,302.2c0.1,0-5.6-9.6-10.3-11.6c-3.2-1.5-8-1.2-8-1.2c0,0,1.7,2.6,4.4,4.6
		C1390.6,295.8,1399.5,299.9,1401.8,302.2z"/>
	
		<linearGradient id="SVGID_45_" gradientUnits="userSpaceOnUse" x1="-12118.0293" y1="2552.7424" x2="-12075.0117" y2="2630.9565" gradientTransform="matrix(-0.9393 0.3431 0.3431 0.9393 -10824.1123 1905.5455)">
		<stop  offset="1.482780e-02" style="stop-color:#35A194"/>
		<stop  offset="0.4226" style="stop-color:#38AFC1"/>
		<stop  offset="1" style="stop-color:#0098AF"/>
	</linearGradient>
	<path class="st47" d="M1401.8,300.1c0,0,3.4-2.1,6.6-3.7c3.2-1.6,5.5-2.6,8.2-3.4c2.7-0.8,3.7-0.9,3.7-0.9c0,0-3.8,5.3-7.9,6.8
		C1408.3,300.4,1403.1,300.7,1401.8,300.1z"/>
	
		<linearGradient id="SVGID_46_" gradientUnits="userSpaceOnUse" x1="-12098.752" y1="2542.1057" x2="-12055.7256" y2="2620.3347" gradientTransform="matrix(-0.9393 0.3431 0.3431 0.9393 -10824.1123 1905.5455)">
		<stop  offset="1.482780e-02" style="stop-color:#35A194"/>
		<stop  offset="0.4226" style="stop-color:#38AFC1"/>
		<stop  offset="1" style="stop-color:#0098AF"/>
	</linearGradient>
	<path class="st48" d="M1402.2,290.2c0.1-0.1-7.3-8.5-10.8-9.9c-4.2-1.8-11.1-1.7-12.5-1.8c0,0,4.7,2.9,9,5.6
		C1392.2,286.7,1399.3,290.6,1402.2,290.2z"/>
	
		<linearGradient id="SVGID_47_" gradientUnits="userSpaceOnUse" x1="-12118.6348" y1="2553.051" x2="-12075.6113" y2="2631.2754" gradientTransform="matrix(-0.9393 0.3431 0.3431 0.9393 -10824.1123 1905.5455)">
		<stop  offset="1.482780e-02" style="stop-color:#35A194"/>
		<stop  offset="0.4226" style="stop-color:#38AFC1"/>
		<stop  offset="1" style="stop-color:#0098AF"/>
	</linearGradient>
	<path class="st49" d="M1402.9,289.1c0,0,0.8-0.8,2.8-2.7c2-1.9,7.6-7.3,10-8.9c2.4-1.6,7.7-3.5,9.5-4.1c0.7-0.2-3.4,4.4-6.2,6.9
		c-2.1,2-5.2,4.8-7.6,5.8c-1.1,0.5-6.4,2-8,4.3C1401.8,292.8,1402.9,289.1,1402.9,289.1z"/>
	
		<linearGradient id="SVGID_48_" gradientUnits="userSpaceOnUse" x1="-12096.5283" y1="2540.8699" x2="-12053.499" y2="2619.1047" gradientTransform="matrix(-0.9393 0.3431 0.3431 0.9393 -10824.1123 1905.5455)">
		<stop  offset="1.482780e-02" style="stop-color:#35A194"/>
		<stop  offset="0.4226" style="stop-color:#38AFC1"/>
		<stop  offset="1" style="stop-color:#0098AF"/>
	</linearGradient>
	<path class="st50" d="M1402.3,282.7c0,0-4.8-7.5-7.9-9.4c-2.9-1.9-6.6-3.7-10.5-4.3c-3.9-0.6-7.3-1.1-7.3-1.1c0,0,3.9,3.5,7.3,5.4
		c3.3,1.9,6.3,4.2,10.2,5.6C1397.9,280.4,1402.3,282.7,1402.3,282.7z"/>
	
		<linearGradient id="SVGID_49_" gradientUnits="userSpaceOnUse" x1="-12117.4023" y1="2552.3679" x2="-12074.3779" y2="2630.5947" gradientTransform="matrix(-0.9393 0.3431 0.3431 0.9393 -10824.1123 1905.5455)">
		<stop  offset="1.482780e-02" style="stop-color:#35A194"/>
		<stop  offset="0.4226" style="stop-color:#38AFC1"/>
		<stop  offset="1" style="stop-color:#0098AF"/>
	</linearGradient>
	<path class="st51" d="M1402.6,280c0.4-1.5,1-3,3.5-5.3c2.5-2.3,7.8-8.6,11.4-10.9c3.6-2.2,8.8-5.7,9-6c0.3-0.2-5.2,9-9.4,12.4
		c-3.4,2.9-7.3,5.2-9.7,6.6c-2.3,1.4-4.5,3.1-5.1,4.8C1402.3,281.5,1402.4,280.6,1402.6,280z"/>
	
		<linearGradient id="SVGID_50_" gradientUnits="userSpaceOnUse" x1="-12094.4883" y1="2539.7542" x2="-12051.4609" y2="2617.9861" gradientTransform="matrix(-0.9393 0.3431 0.3431 0.9393 -10824.1123 1905.5455)">
		<stop  offset="1.482780e-02" style="stop-color:#35A194"/>
		<stop  offset="0.4226" style="stop-color:#38AFC1"/>
		<stop  offset="1" style="stop-color:#0098AF"/>
	</linearGradient>
	<path class="st52" d="M1401.2,271.3c0,0-1.6-3.2-6-6.4c-4.4-3.2-8.5-5.7-10.7-6.6c-2.2-0.9-7.3-1.4-8-1.6c-0.7-0.3,3.4,3.9,4.8,5
		c1.5,1.1,4.5,2.9,8.6,4.3C1394.1,267.3,1399.8,270.3,1401.2,271.3z"/>
	
		<linearGradient id="SVGID_51_" gradientUnits="userSpaceOnUse" x1="-12113.3291" y1="2550.1221" x2="-12070.3027" y2="2628.3523" gradientTransform="matrix(-0.9393 0.3431 0.3431 0.9393 -10824.1123 1905.5455)">
		<stop  offset="1.482780e-02" style="stop-color:#35A194"/>
		<stop  offset="0.4226" style="stop-color:#38AFC1"/>
		<stop  offset="1" style="stop-color:#0098AF"/>
	</linearGradient>
	<path class="st53" d="M1401.3,270.6c1-1.7,3.8-4.7,5.5-6.5c1.6-1.9,3.6-2.7,9-10.5c4.7-6.9,6.7-13.7,6.7-13.7c0,0-1,1-4.7,4.1
		c-3.6,3-7.3,10-10.8,15.2c-3.5,5.2-5.3,9.4-5.3,9.4C1401.5,269.2,1401.4,269.9,1401.3,270.6z"/>
	
		<linearGradient id="SVGID_52_" gradientUnits="userSpaceOnUse" x1="-12091.2266" y1="2537.9578" x2="-12048.1973" y2="2616.1919" gradientTransform="matrix(-0.9393 0.3431 0.3431 0.9393 -10824.1123 1905.5455)">
		<stop  offset="1.482780e-02" style="stop-color:#35A194"/>
		<stop  offset="0.4226" style="stop-color:#38AFC1"/>
		<stop  offset="1" style="stop-color:#0098AF"/>
	</linearGradient>
	<path class="st54" d="M1400.9,261.4c0,0-6.7-7.1-10.5-9.8c-3.7-2.8-6.4-5.1-11.2-4.5c-4.8,0.5-7.2,0.2-7.2,0.2c0,0,4.9,3,8.9,4.9
		c4.1,1.9,9.5,4.7,11.4,5.4C1394.4,258.2,1400.1,262,1400.9,261.4z"/>
	
		<linearGradient id="SVGID_53_" gradientUnits="userSpaceOnUse" x1="-12108.4531" y1="2547.4463" x2="-12065.4287" y2="2625.6724" gradientTransform="matrix(-0.9393 0.3431 0.3431 0.9393 -10824.1123 1905.5455)">
		<stop  offset="1.482780e-02" style="stop-color:#35A194"/>
		<stop  offset="0.4226" style="stop-color:#38AFC1"/>
		<stop  offset="1" style="stop-color:#0098AF"/>
	</linearGradient>
	<path class="st55" d="M1399.1,255.8c0.8-2.4,1.8-4.6,4.4-9.1c2.4-4.3,5.2-9.4,7-11.5c1.8-2.1,7.4-9.3,7.6-9.5
		c0.2-0.2-1.7,8.7-4.2,12.6c-2.4,3.9-4.4,7.5-8.6,11.3c-4.2,3.8-5.7,6.8-6,9.1C1398.9,260.9,1398.9,256.4,1399.1,255.8z"/>
	
		<linearGradient id="SVGID_54_" gradientUnits="userSpaceOnUse" x1="-12086.3848" y1="2535.2808" x2="-12043.3506" y2="2613.5244" gradientTransform="matrix(-0.9393 0.3431 0.3431 0.9393 -10824.1123 1905.5455)">
		<stop  offset="1.482780e-02" style="stop-color:#35A194"/>
		<stop  offset="0.4226" style="stop-color:#38AFC1"/>
		<stop  offset="1" style="stop-color:#0098AF"/>
	</linearGradient>
	<path class="st56" d="M1397.2,249.9c0,0-3.2-3.3-6-3.7c-2.8-0.5-9.5-3.5-11.6-4.7c-2-1.3-10.8-5.4-11.4-5.9
		c-0.6-0.5,3.6,0.5,6.9,0.3c3.3-0.2,8.2,1.9,11.8,4.1c3.6,2.2,9.4,7.2,10.1,8.1C1397.6,249.1,1397.2,249.9,1397.2,249.9z"/>
	
		<linearGradient id="SVGID_55_" gradientUnits="userSpaceOnUse" x1="-12103.3389" y1="2544.6262" x2="-12060.3115" y2="2622.8572" gradientTransform="matrix(-0.9393 0.3431 0.3431 0.9393 -10824.1123 1905.5455)">
		<stop  offset="1.482780e-02" style="stop-color:#35A194"/>
		<stop  offset="0.4226" style="stop-color:#38AFC1"/>
		<stop  offset="1" style="stop-color:#0098AF"/>
	</linearGradient>
	<path class="st57" d="M1396.4,245c0,0,1.9-4.6,3.7-8.6c1.8-3.9,5.4-10,6.1-11.9c0.8-1.8,5.9-9.4,5.8-9.8c0-0.4-0.6,7.3-3.2,13.4
		c-2.6,6.1-5.1,9.4-7.8,12.5c-2.7,3.1-4,5.5-4.1,7C1396.9,249,1396.4,245,1396.4,245z"/>
	
		<linearGradient id="SVGID_56_" gradientUnits="userSpaceOnUse" x1="-12081.21" y1="2532.4204" x2="-12038.1689" y2="2610.6758" gradientTransform="matrix(-0.9393 0.3431 0.3431 0.9393 -10824.1123 1905.5455)">
		<stop  offset="1.482780e-02" style="stop-color:#35A194"/>
		<stop  offset="0.4226" style="stop-color:#38AFC1"/>
		<stop  offset="1" style="stop-color:#0098AF"/>
	</linearGradient>
	<path class="st58" d="M1392.1,234c0,0-6.7-4.9-10.1-6.4c-3.4-1.5-7.1-3.5-10.1-4c-3-0.5-7.6-1.2-7.6-1.2c0,0,5.2,3.7,8.9,5.7
		c3.8,2,7.9,4.2,12.2,5.7c4.4,1.4,8,1.9,8,1.9C1393,235.1,1392.5,234.6,1392.1,234z"/>
	
		<linearGradient id="SVGID_57_" gradientUnits="userSpaceOnUse" x1="-12097.54" y1="2541.4399" x2="-12054.5146" y2="2619.6677" gradientTransform="matrix(-0.9393 0.3431 0.3431 0.9393 -10824.1123 1905.5455)">
		<stop  offset="1.482780e-02" style="stop-color:#35A194"/>
		<stop  offset="0.4226" style="stop-color:#38AFC1"/>
		<stop  offset="1" style="stop-color:#0098AF"/>
	</linearGradient>
	<path class="st59" d="M1392.8,232.8c0,0,2.9-8.4,4.5-12.7c1.7-4.2,4.6-10.7,6.2-13.1c1.5-2.4,2.6-4.9,2.6-4.9c0.1,0-2.1,14-5,18.6
		c-2.7,4.7-7.5,13.1-7.5,16.3C1393.7,240.1,1392.9,232.8,1392.8,232.8z"/>
	
		<linearGradient id="SVGID_58_" gradientUnits="userSpaceOnUse" x1="-12075.4434" y1="2529.2732" x2="-12032.4121" y2="2607.5117" gradientTransform="matrix(-0.9393 0.3431 0.3431 0.9393 -10824.1123 1905.5455)">
		<stop  offset="1.482780e-02" style="stop-color:#35A194"/>
		<stop  offset="0.4226" style="stop-color:#38AFC1"/>
		<stop  offset="1" style="stop-color:#0098AF"/>
	</linearGradient>
	<path class="st60" d="M1387.8,223c0,0-7.3-5.4-9.9-6.8c-2.5-1.5-7.4-2.9-10.1-2.7c-2.7,0.1-8.9,0-10.1-0.6c-1.1-0.6,4,3.2,8.1,4.5
		c4.2,1.3,10.1,2.9,14.7,4.4c4.7,1.5,6.8,1.7,8.6,4.3C1390.8,228.7,1387.8,223,1387.8,223z"/>
	
		<linearGradient id="SVGID_59_" gradientUnits="userSpaceOnUse" x1="-12091.4072" y1="2538.0667" x2="-12048.3818" y2="2616.2939" gradientTransform="matrix(-0.9393 0.3431 0.3431 0.9393 -10824.1123 1905.5455)">
		<stop  offset="1.482780e-02" style="stop-color:#35A194"/>
		<stop  offset="0.4226" style="stop-color:#38AFC1"/>
		<stop  offset="1" style="stop-color:#0098AF"/>
	</linearGradient>
	<path class="st61" d="M1388,221.6c0,0,1.1-5.2,2.3-8.9c1.3-3.6,3.5-8.4,4.4-10.9c0.9-2.5,5-10.1,5-10.9c0-0.7-0.1,10.4-2.9,16.4
		c-2.8,6-5.4,9.4-6.4,11.8c-1,2.3-1.7,4.9-1.7,4.9C1388.5,223.2,1388.2,222.4,1388,221.6z"/>
	
		<linearGradient id="SVGID_60_" gradientUnits="userSpaceOnUse" x1="-12069.3828" y1="2525.9592" x2="-12026.3604" y2="2604.1804" gradientTransform="matrix(-0.9393 0.3431 0.3431 0.9393 -10824.1123 1905.5455)">
		<stop  offset="1.482780e-02" style="stop-color:#35A194"/>
		<stop  offset="0.4226" style="stop-color:#38AFC1"/>
		<stop  offset="1" style="stop-color:#0098AF"/>
	</linearGradient>
	<path class="st62" d="M1381.5,211.2c0,0-6.4-4.1-11.2-5.5c-4.8-1.4-11.1-0.5-13.4-0.3c-2.3,0.2-3.5,0.7-3.5,0.7c0,0,4.1,1.6,8.6,3
		c4.5,1.3,10.2,1.6,12.8,1.6c2.6,0,7.2,1.5,8,2.4C1383.6,214.1,1381.5,211.2,1381.5,211.2z"/>
	
		<linearGradient id="SVGID_61_" gradientUnits="userSpaceOnUse" x1="-12084.3496" y1="2534.1821" x2="-12041.3223" y2="2612.4124" gradientTransform="matrix(-0.9393 0.3431 0.3431 0.9393 -10824.1123 1905.5455)">
		<stop  offset="1.482780e-02" style="stop-color:#35A194"/>
		<stop  offset="0.4226" style="stop-color:#38AFC1"/>
		<stop  offset="1" style="stop-color:#0098AF"/>
	</linearGradient>
	<path class="st63" d="M1382.6,211.3c0,0,0.7-7.1,2.2-11.6c1.5-4.5,2.5-8.9,3.5-10.9c1-2.1,2.6-8,2.6-8c0,0,1.1,6.8-0.2,12.6
		c-0.9,4.4-5.9,14.6-7,18.5C1382.7,214.9,1382.6,211.3,1382.6,211.3z"/>
	
		<linearGradient id="SVGID_62_" gradientUnits="userSpaceOnUse" x1="-12062.3818" y1="2522.0862" x2="-12019.3477" y2="2600.3296" gradientTransform="matrix(-0.9393 0.3431 0.3431 0.9393 -10824.1123 1905.5455)">
		<stop  offset="1.482780e-02" style="stop-color:#35A194"/>
		<stop  offset="0.4226" style="stop-color:#38AFC1"/>
		<stop  offset="1" style="stop-color:#0098AF"/>
	</linearGradient>
	<path class="st64" d="M1376.2,202.5c0,0-6.2-5.4-12.5-6.3c-4.4-0.7-9.9-0.2-12.8,0.5c-3.6,0.9-5.9,0.8-5.9,0.8c0,0,4,1.9,6.9,2.4
		c2.9,0.5,7.8,1.2,11.8,1.6c4,0.4,11.6,0.3,13.5,2.5C1379,206,1376.2,202.5,1376.2,202.5z"/>
	
		<linearGradient id="SVGID_63_" gradientUnits="userSpaceOnUse" x1="-12075.9424" y1="2529.5591" x2="-12032.916" y2="2607.7878" gradientTransform="matrix(-0.9393 0.3431 0.3431 0.9393 -10824.1123 1905.5455)">
		<stop  offset="1.482780e-02" style="stop-color:#35A194"/>
		<stop  offset="0.4226" style="stop-color:#38AFC1"/>
		<stop  offset="1" style="stop-color:#0098AF"/>
	</linearGradient>
	<path class="st65" d="M1375.5,201.1c0,0,0.4-3.3,0.6-6.4c0.3-3.1,0.7-9.6,1.7-12.8c1.1-3.2,3.4-12.2,3.3-12.8
		c-0.1-0.6,1.8,9.1,1.2,13.8c-0.5,4.8-3.4,12.6-4.8,16.3C1376.1,202.9,1375.4,202.2,1375.5,201.1z"/>
	
		<linearGradient id="SVGID_64_" gradientUnits="userSpaceOnUse" x1="-12054.9277" y1="2517.9873" x2="-12011.8926" y2="2596.2324" gradientTransform="matrix(-0.9393 0.3431 0.3431 0.9393 -10824.1123 1905.5455)">
		<stop  offset="1.482780e-02" style="stop-color:#35A194"/>
		<stop  offset="0.4226" style="stop-color:#38AFC1"/>
		<stop  offset="1" style="stop-color:#0098AF"/>
	</linearGradient>
	<path class="st66" d="M1369.5,192.9c0-0.1-9.2-5.2-13.6-5.8c-4.4-0.7-9.3-0.7-13.6,0c-4.3,0.7-5.4,1.1-5.4,1.1
		c0,0,8.4,2.6,12.3,3.1c3.8,0.5,7.7,1.2,11.7,1.2c4,0,8.4,0.4,10.3,2.6C1372.9,197.3,1369.5,192.9,1369.5,192.9z"/>
	
		<linearGradient id="SVGID_65_" gradientUnits="userSpaceOnUse" x1="-12066.6357" y1="2524.4404" x2="-12023.6104" y2="2602.6685" gradientTransform="matrix(-0.9393 0.3431 0.3431 0.9393 -10824.1123 1905.5455)">
		<stop  offset="1.482780e-02" style="stop-color:#35A194"/>
		<stop  offset="0.4226" style="stop-color:#38AFC1"/>
		<stop  offset="1" style="stop-color:#0098AF"/>
	</linearGradient>
	<path class="st67" d="M1370.1,193.2c0,0-0.4-2.7-1.4-7.5c-0.9-4.8-2.2-10.7-2.3-13.2c0-2.5,1.9-12.5,1.8-12.8
		c0-0.3,4.3,9.4,4.4,14.4c0.2,5.8-1.3,10.1-1.4,16c-0.1,5.9,0.3,6.1,0.3,6.1C1371.1,195,1370.6,194.1,1370.1,193.2z"/>
	
		<linearGradient id="SVGID_66_" gradientUnits="userSpaceOnUse" x1="-12049.0264" y1="2514.7417" x2="-12005.9902" y2="2592.9878" gradientTransform="matrix(-0.9393 0.3431 0.3431 0.9393 -10824.1123 1905.5455)">
		<stop  offset="1.482780e-02" style="stop-color:#35A194"/>
		<stop  offset="0.4226" style="stop-color:#38AFC1"/>
		<stop  offset="1" style="stop-color:#0098AF"/>
	</linearGradient>
	<path class="st68" d="M1362.7,184.9c0,0-3.6-2.6-9.9-4.5c-6.3-1.9-10.2-2.7-13.5-2.4c-3.3,0.3-8,1.5-8,1.5c0,0,4.6,1.9,8.1,2.5
		c3.4,0.6,10.3,1.3,14.6,1.9c4.2,0.6,8.7,1.5,11.3,3.8C1367.8,190,1362.7,184.9,1362.7,184.9z"/>
	
		<linearGradient id="SVGID_67_" gradientUnits="userSpaceOnUse" x1="-12055.6934" y1="2518.4204" x2="-12012.666" y2="2596.6509" gradientTransform="matrix(-0.9393 0.3431 0.3431 0.9393 -10824.1123 1905.5455)">
		<stop  offset="1.482780e-02" style="stop-color:#35A194"/>
		<stop  offset="0.4226" style="stop-color:#38AFC1"/>
		<stop  offset="1" style="stop-color:#0098AF"/>
	</linearGradient>
	<path class="st69" d="M1361.7,183.5c0,0-3.4-5.3-4.4-11.2c-1-6-2.3-8.7-2.1-11c0.2-2.4,0.1-10.7,0-10.7c0.1-0.1,6,12.5,6.3,17.6
		c0.4,5-0.5,10,0.8,15.4C1363,186.4,1361.7,183.5,1361.7,183.5z"/>
	
		<linearGradient id="SVGID_68_" gradientUnits="userSpaceOnUse" x1="-12040.4258" y1="2510.0195" x2="-11997.3965" y2="2588.2539" gradientTransform="matrix(-0.9393 0.3431 0.3431 0.9393 -10824.1123 1905.5455)">
		<stop  offset="1.482780e-02" style="stop-color:#35A194"/>
		<stop  offset="0.4226" style="stop-color:#38AFC1"/>
		<stop  offset="1" style="stop-color:#0098AF"/>
	</linearGradient>
	<path class="st70" d="M1354.7,176c0,0-6-3-10-4.1c-4-1-8.1-1.9-13.4-1.5c-5.4,0.4-7.7,0.8-7.7,0.8c0,0,3.7,2.5,9.9,3.5
		c6.2,0.9,11.3,0.9,14.1,1.3c2.9,0.4,6.8,0.7,8.5,1.6C1357.7,178.6,1354.7,176,1354.7,176z"/>
	
		<linearGradient id="SVGID_69_" gradientUnits="userSpaceOnUse" x1="-12043.8691" y1="2511.917" x2="-12000.8428" y2="2590.1458" gradientTransform="matrix(-0.9393 0.3431 0.3431 0.9393 -10824.1123 1905.5455)">
		<stop  offset="1.482780e-02" style="stop-color:#35A194"/>
		<stop  offset="0.4226" style="stop-color:#38AFC1"/>
		<stop  offset="1" style="stop-color:#0098AF"/>
	</linearGradient>
	<path class="st71" d="M1350.2,170.7c0.1,0-4.1-9.9-6.3-13.4c-2.9-5.1-2.7-13.2-3.1-14c-0.2-0.9,7.1,9.5,8.1,13.5
		c0.7,2.2,2.4,11.1,3.3,14.4C1353.1,174.5,1351.6,173.2,1350.2,170.7z"/>
	
		<linearGradient id="SVGID_70_" gradientUnits="userSpaceOnUse" x1="-12033.4287" y1="2506.177" x2="-11990.4053" y2="2584.4016" gradientTransform="matrix(-0.9393 0.3431 0.3431 0.9393 -10824.1123 1905.5455)">
		<stop  offset="1.482780e-02" style="stop-color:#35A194"/>
		<stop  offset="0.4226" style="stop-color:#38AFC1"/>
		<stop  offset="1" style="stop-color:#0098AF"/>
	</linearGradient>
	<path class="st72" d="M1346.6,168.3c0,0-4.3-1.7-8.3-2.9c-4-1.2-11.2-2.7-14-2.3c-2.8,0.4-7.4,1.6-7.4,1.6c0,0,3.2,2.5,8.3,3
		c5,0.5,9.6,0.8,12.9,0.9c3.3,0,8.9,0.5,10.7,1.9C1350.6,171.8,1346.6,168.3,1346.6,168.3z"/>
	
		<linearGradient id="SVGID_71_" gradientUnits="userSpaceOnUse" x1="-12032.6445" y1="2505.7415" x2="-11989.6172" y2="2583.9729" gradientTransform="matrix(-0.9393 0.3431 0.3431 0.9393 -10824.1123 1905.5455)">
		<stop  offset="1.482780e-02" style="stop-color:#35A194"/>
		<stop  offset="0.4226" style="stop-color:#38AFC1"/>
		<stop  offset="1" style="stop-color:#0098AF"/>
	</linearGradient>
	<path class="st73" d="M1340.9,162.9c0,0-2.6-3.2-4.8-6.8c-2.2-3.6-4.9-7.8-6.5-10.5c-1.6-2.7-3.5-7.3-3.5-7.3c0,0,6.8,5.8,9.2,9.8
		c2.5,3.9,5.4,12.4,7.5,16.1C1344.5,167.4,1340.9,162.9,1340.9,162.9z"/>
	
		<linearGradient id="SVGID_72_" gradientUnits="userSpaceOnUse" x1="-12025.6143" y1="2501.8762" x2="-11982.5879" y2="2580.1052" gradientTransform="matrix(-0.9393 0.3431 0.3431 0.9393 -10824.1123 1905.5455)">
		<stop  offset="1.482780e-02" style="stop-color:#35A194"/>
		<stop  offset="0.4226" style="stop-color:#38AFC1"/>
		<stop  offset="1" style="stop-color:#0098AF"/>
	</linearGradient>
	<path class="st74" d="M1338.5,161.8c0,0-5.3-2-8.2-3.8c-2.9-1.9-9.7-4-13.2-3.8c-3.5,0.1-8,0.4-8,0.4c0,0,4.7,1.7,7.3,2.5
		c2.6,0.8,5.5,1.7,11.4,3.1c5.9,1.3,12.4,3.2,13.7,3.8C1342.7,164.4,1338.5,161.7,1338.5,161.8z"/>
	
		<linearGradient id="SVGID_73_" gradientUnits="userSpaceOnUse" x1="-12021.9131" y1="2499.8374" x2="-11978.8838" y2="2578.0723" gradientTransform="matrix(-0.9393 0.3431 0.3431 0.9393 -10824.1123 1905.5455)">
		<stop  offset="1.482780e-02" style="stop-color:#35A194"/>
		<stop  offset="0.4226" style="stop-color:#38AFC1"/>
		<stop  offset="1" style="stop-color:#0098AF"/>
	</linearGradient>
	<path class="st75" d="M1336.7,159.6c0,0-1.3-1.3-4.5-4.6c-3.2-3.3-9.7-8.4-12.1-9.5c-2.4-1.2-12.2-3.3-12.9-3.6
		c-0.7-0.4,7.5,5.3,10,7c2.5,1.7,5.2,4.1,8,5.3c2.8,1.1,11.1,5.4,12,6.5C1338.1,161.7,1336.7,159.6,1336.7,159.6z"/>
	
		<linearGradient id="SVGID_74_" gradientUnits="userSpaceOnUse" x1="-12071.3359" y1="2527.0234" x2="-12028.3096" y2="2605.2539" gradientTransform="matrix(-0.9393 0.3431 0.3431 0.9393 -10824.1123 1905.5455)">
		<stop  offset="1.482780e-02" style="stop-color:#35A194"/>
		<stop  offset="0.4226" style="stop-color:#38AFC1"/>
		<stop  offset="1" style="stop-color:#0098AF"/>
	</linearGradient>
	<path class="st76" d="M1399.4,322.8c0.2,0,4.6-21.4,4.2-37.1c0.8-16.8-7.4-47.3-11.1-54.7c-2.5-8.1-17.7-33-22.3-38.3
		c-4.5-7.1-20.8-24-29-30.1c-4.7-3.8-8.9-5.6-9.3-5.9c-0.3-0.4,5.4,4.5,7.3,6c1.9,1.4,10.6,9,15.3,13.7c4.8,4.5,11.8,13.2,14.6,16.9
		c3.2,3.5,16.8,24.3,21.9,38.3c1.2,3.1,5,14,7.3,26.1c2.4,12.1,3.4,25.4,3.1,32c-0.3,10.3-2.1,19-3.3,22.9
		C1396.8,316.6,1398,322.3,1399.4,322.8z"/>
</g>
<g>
	<linearGradient id="SVGID_75_" gradientUnits="userSpaceOnUse" x1="1034.5084" y1="227.6792" x2="1094.2975" y2="227.6792">
		<stop  offset="1.482780e-02" style="stop-color:#002C68"/>
		<stop  offset="1" style="stop-color:#0097AE"/>
	</linearGradient>
	<path class="st77" d="M1075.6,265.8c0,0-22.9,3.2-27.9-5c-5-8.2-1.8-16.9-4.6-25.6c-2.7-8.7-9.2-4.6-5.9-17.8
		c3.2-13.3-10.1-29.7,3.7-28.4c13.7,1.4,11,13.3,23.3,13.3c12.4,0,11.4,8.2,11.4,15.1c0,6.9,4.6,5.9,11.4,8.7
		c6.9,2.7,10.5,14.6,3.2,24.7C1083,260.8,1075.6,265.8,1075.6,265.8z"/>
	<path class="st78" d="M1092,345c-23.7-27.1-7.4-54.7-13.4-74.3c-6.6-21.3-18.6-61.9-42.2-81.3"/>
	<path class="st78" d="M1053.8,197.6c0,0,0.3,9.5-0.6,11.6"/>
	<path class="st78" d="M1060.7,202c0,0,0.2,9.4-2.5,15.3"/>
	<path class="st78" d="M1068.8,203.2c0,0,4.6,16.5-4.9,27.5"/>
	<path class="st78" d="M1077.8,223.3c0,0-0.6,11.8-9.3,18"/>
	<path class="st78" d="M1071.9,250.5c13-12.1,12.5-25.2,12.5-25.2"/>
	<path class="st78" d="M1091.3,230.4c0,0,1.1,16-16.4,28.6"/>
	<path class="st78" d="M1035,194.7c0,0,8.5,10.2,15.5,10.8"/>
	<path class="st78" d="M1038.3,212.6c0,0,10.3,11.5,22.5,10.2"/>
	<path class="st78" d="M1037.1,220.9c0,0,8.2,14.3,28.6,13.7"/>
	<path class="st78" d="M1043.5,234c0,0,12.2,7.9,25,5.1"/>
	<path class="st78" d="M1045.1,244.2c0,0,14.5,9.9,26.1,4.7"/>
	<path class="st78" d="M1045.7,254.2c0,0,12.6,10.6,29.5,6.6"/>
</g>
<g>
	<g>
		
			<linearGradient id="SVGID_76_" gradientUnits="userSpaceOnUse" x1="1984.8398" y1="8865.6162" x2="2019.006" y2="9000.1445" gradientTransform="matrix(0.3641 -0.9313 0.9313 0.3641 -7804.1797 -1182.8933)">
			<stop  offset="1.482780e-02" style="stop-color:#002C68"/>
			<stop  offset="0.4226" style="stop-color:#0098B0"/>
			<stop  offset="1" style="stop-color:#002C68"/>
		</linearGradient>
		<path class="st79" d="M1252.2,206.7c-47.5,8.4-80.5-15.2-80.8-15.5l0.5-0.7c0.3,0.2,33,23.7,80.1,15.3L1252.2,206.7z"/>
	</g>
	
		<linearGradient id="SVGID_77_" gradientUnits="userSpaceOnUse" x1="1991.6531" y1="8863.8848" x2="2025.8186" y2="8998.4111" gradientTransform="matrix(0.3641 -0.9313 0.9313 0.3641 -7804.1797 -1182.8933)">
		<stop  offset="1.482780e-02" style="stop-color:#002C68"/>
		<stop  offset="0.4226" style="stop-color:#0098B0"/>
		<stop  offset="1" style="stop-color:#002C68"/>
	</linearGradient>
	<path class="st80" d="M1172.6,191.7c0,0-3-0.1-5.2-1.9c-0.8-0.7-1.8-2.4-1.2-3.2c0.6-0.8,2.2-0.6,3.4,0.4
		C1171.9,188.8,1172.6,191.7,1172.6,191.7z"/>
	
		<linearGradient id="SVGID_78_" gradientUnits="userSpaceOnUse" x1="1990.7826" y1="8864.1064" x2="2024.9398" y2="8998.5996" gradientTransform="matrix(0.3641 -0.9313 0.9313 0.3641 -7804.1797 -1182.8933)">
		<stop  offset="1.482780e-02" style="stop-color:#002C68"/>
		<stop  offset="0.4226" style="stop-color:#0098B0"/>
		<stop  offset="1" style="stop-color:#002C68"/>
	</linearGradient>
	<path class="st81" d="M1177,194.1c0,0-2.1-1.6-2.9-4.1c-0.3-0.9-0.1-2.7,0.7-3c0.8-0.3,1.8,0.7,2.2,2.1
		C1177.9,191.6,1177,194.1,1177,194.1z"/>
	
		<linearGradient id="SVGID_79_" gradientUnits="userSpaceOnUse" x1="1987.9952" y1="8864.8145" x2="2022.1589" y2="8999.333" gradientTransform="matrix(0.3641 -0.9313 0.9313 0.3641 -7804.1797 -1182.8933)">
		<stop  offset="1.482780e-02" style="stop-color:#002C68"/>
		<stop  offset="0.4226" style="stop-color:#0098B0"/>
		<stop  offset="1" style="stop-color:#002C68"/>
	</linearGradient>
	<path class="st82" d="M1184.9,197.6c0,0-1.8-1.6-2.1-3.8c-0.1-0.8,0.4-2.3,1.3-2.4c0.9-0.1,1.7,0.8,1.9,2
		C1186.2,195.6,1184.9,197.6,1184.9,197.6z"/>
	
		<linearGradient id="SVGID_80_" gradientUnits="userSpaceOnUse" x1="1985.822" y1="8865.3662" x2="2019.9869" y2="8999.8896" gradientTransform="matrix(0.3641 -0.9313 0.9313 0.3641 -7804.1797 -1182.8933)">
		<stop  offset="1.482780e-02" style="stop-color:#002C68"/>
		<stop  offset="0.4226" style="stop-color:#0098B0"/>
		<stop  offset="1" style="stop-color:#002C68"/>
	</linearGradient>
	<path class="st83" d="M1176.9,193.7c0,0-0.8,2.3-2.7,3.4c-0.7,0.4-2.3,0.5-2.7-0.3c-0.4-0.8,0.1-1.9,1.1-2.5
		C1174.5,193.2,1176.9,193.7,1176.9,193.7z"/>
	
		<linearGradient id="SVGID_81_" gradientUnits="userSpaceOnUse" x1="1977.2336" y1="8867.543" x2="2011.4019" y2="9002.0801" gradientTransform="matrix(0.3641 -0.9313 0.9313 0.3641 -7804.1797 -1182.8933)">
		<stop  offset="1.482780e-02" style="stop-color:#002C68"/>
		<stop  offset="0.4226" style="stop-color:#0098B0"/>
		<stop  offset="1" style="stop-color:#002C68"/>
	</linearGradient>
	<path class="st84" d="M1228.8,208.2c0,0,0,2.5-1.4,4.4c-0.5,0.7-2,1.5-2.6,1c-0.7-0.5-0.5-1.8,0.2-2.8
		C1226.4,208.9,1228.8,208.2,1228.8,208.2z"/>
	
		<linearGradient id="SVGID_82_" gradientUnits="userSpaceOnUse" x1="1982.1379" y1="8866.3018" x2="2016.2998" y2="9000.8135" gradientTransform="matrix(0.3641 -0.9313 0.9313 0.3641 -7804.1797 -1182.8933)">
		<stop  offset="1.482780e-02" style="stop-color:#002C68"/>
		<stop  offset="0.4226" style="stop-color:#0098B0"/>
		<stop  offset="1" style="stop-color:#002C68"/>
	</linearGradient>
	<path class="st85" d="M1184.7,198.1c0,0-1.1,2.5-3.5,3.9c-0.9,0.5-2.7,0.7-3.2-0.1c-0.5-0.8,0.3-2.1,1.5-2.8
		C1181.9,197.8,1184.7,198.1,1184.7,198.1z"/>
	
		<linearGradient id="SVGID_83_" gradientUnits="userSpaceOnUse" x1="1979.8198" y1="8866.8867" x2="2013.9933" y2="9001.4443" gradientTransform="matrix(0.3641 -0.9313 0.9313 0.3641 -7804.1797 -1182.8933)">
		<stop  offset="1.482780e-02" style="stop-color:#002C68"/>
		<stop  offset="0.4226" style="stop-color:#0098B0"/>
		<stop  offset="1" style="stop-color:#002C68"/>
	</linearGradient>
	<path class="st86" d="M1193.1,201.8c0,0-0.7,2.7-2.8,3.8c-0.8,0.4-2.5,0.4-3-0.5c-0.5-0.9,0-2.3,1.1-2.9
		C1190.4,201,1193.1,201.8,1193.1,201.8z"/>
	
		<linearGradient id="SVGID_84_" gradientUnits="userSpaceOnUse" x1="1985.7953" y1="8865.373" x2="2019.9609" y2="8999.8994" gradientTransform="matrix(0.3641 -0.9313 0.9313 0.3641 -7804.1797 -1182.8933)">
		<stop  offset="1.482780e-02" style="stop-color:#002C68"/>
		<stop  offset="0.4226" style="stop-color:#0098B0"/>
		<stop  offset="1" style="stop-color:#002C68"/>
	</linearGradient>
	<path class="st87" d="M1193.2,201.1c0,0-2.4-1.4-3.1-3.7c-0.3-0.8,0.1-2.6,1.1-2.9c1-0.3,2.1,0.5,2.5,1.8
		C1194.4,198.6,1193.2,201.1,1193.2,201.1z"/>
	
		<linearGradient id="SVGID_85_" gradientUnits="userSpaceOnUse" x1="1982.9723" y1="8866.0791" x2="2017.1449" y2="9000.6338" gradientTransform="matrix(0.3641 -0.9313 0.9313 0.3641 -7804.1797 -1182.8933)">
		<stop  offset="1.482780e-02" style="stop-color:#002C68"/>
		<stop  offset="0.4226" style="stop-color:#0098B0"/>
		<stop  offset="1" style="stop-color:#002C68"/>
	</linearGradient>
	<path class="st88" d="M1229.2,207.9c0,0-2.3-0.3-4.1-2.2c-0.7-0.7-1.4-2.5-1-3.2c0.5-0.7,1.6-0.4,2.6,0.6
		C1228.5,205.1,1229.2,207.9,1229.2,207.9z"/>
	
		<linearGradient id="SVGID_86_" gradientUnits="userSpaceOnUse" x1="1983.0188" y1="8866.082" x2="2017.1809" y2="9000.5947" gradientTransform="matrix(0.3641 -0.9313 0.9313 0.3641 -7804.1797 -1182.8933)">
		<stop  offset="1.482780e-02" style="stop-color:#002C68"/>
		<stop  offset="0.4226" style="stop-color:#0098B0"/>
		<stop  offset="1" style="stop-color:#002C68"/>
	</linearGradient>
	<path class="st89" d="M1210.3,206.1c0,0-1.3-1.3-1.5-3.6c-0.1-0.8,0.2-2.6,0.8-2.9c0.6-0.3,1.2,0.5,1.3,1.7
		C1211.2,203.7,1210.3,206.1,1210.3,206.1z"/>
	
		<linearGradient id="SVGID_87_" gradientUnits="userSpaceOnUse" x1="1978.8401" y1="8867.1426" x2="2013.0009" y2="9001.6504" gradientTransform="matrix(0.3641 -0.9313 0.9313 0.3641 -7804.1797 -1182.8933)">
		<stop  offset="1.482780e-02" style="stop-color:#002C68"/>
		<stop  offset="0.4226" style="stop-color:#0098B0"/>
		<stop  offset="1" style="stop-color:#002C68"/>
	</linearGradient>
	<path class="st90" d="M1202.1,204.6c0,0-0.7,1.5-2.6,2.4c-0.7,0.3-2.3,0.5-2.7,0c-0.5-0.5,0-1.2,1-1.7
		C1199.7,204.5,1202.1,204.6,1202.1,204.6z"/>
	
		<linearGradient id="SVGID_88_" gradientUnits="userSpaceOnUse" x1="1981.8147" y1="8866.3867" x2="2015.9785" y2="9000.9062" gradientTransform="matrix(0.3641 -0.9313 0.9313 0.3641 -7804.1797 -1182.8933)">
		<stop  offset="1.482780e-02" style="stop-color:#002C68"/>
		<stop  offset="0.4226" style="stop-color:#0098B0"/>
		<stop  offset="1" style="stop-color:#002C68"/>
	</linearGradient>
	<path class="st91" d="M1220.2,207.2c0,0-2.8-0.5-4.4-2c-0.6-0.5-0.8-1.7,0-2.1c0.9-0.4,2.3,0,3.1,0.8
		C1220.5,205.4,1220.2,207.2,1220.2,207.2z"/>
	
		<linearGradient id="SVGID_89_" gradientUnits="userSpaceOnUse" x1="1977.0071" y1="8867.6133" x2="2011.1638" y2="9002.1045" gradientTransform="matrix(0.3641 -0.9313 0.9313 0.3641 -7804.1797 -1182.8933)">
		<stop  offset="1.482780e-02" style="stop-color:#002C68"/>
		<stop  offset="0.4226" style="stop-color:#0098B0"/>
		<stop  offset="1" style="stop-color:#002C68"/>
	</linearGradient>
	<path class="st92" d="M1210.7,206c0,0-1,3.2-3,5.1c-0.7,0.7-2.2,1.1-2.5,0.2c-0.3-0.9,0.3-2.5,1.4-3.5
		C1208.5,205.8,1210.7,206,1210.7,206z"/>
	
		<linearGradient id="SVGID_90_" gradientUnits="userSpaceOnUse" x1="1976.91" y1="8867.6338" x2="2011.0729" y2="9002.1494" gradientTransform="matrix(0.3641 -0.9313 0.9313 0.3641 -7804.1797 -1182.8933)">
		<stop  offset="1.482780e-02" style="stop-color:#002C68"/>
		<stop  offset="0.4226" style="stop-color:#0098B0"/>
		<stop  offset="1" style="stop-color:#002C68"/>
	</linearGradient>
	<path class="st93" d="M1220.5,207.7c0,0-1,3-2.8,4.6c-0.7,0.6-2.1,0.8-2.4-0.1c-0.3-1,0.3-2.5,1.3-3.3
		C1218.5,207.3,1220.5,207.7,1220.5,207.7z"/>
	
		<linearGradient id="SVGID_91_" gradientUnits="userSpaceOnUse" x1="2010.4047" y1="8859.123" x2="2044.5713" y2="8993.6533" gradientTransform="matrix(0.3641 -0.9313 0.9313 0.3641 -7804.1797 -1182.8933)">
		<stop  offset="1.482780e-02" style="stop-color:#002C68"/>
		<stop  offset="0.4226" style="stop-color:#0098B0"/>
		<stop  offset="1" style="stop-color:#002C68"/>
	</linearGradient>
	<path class="st94" d="M1189.3,168.8c0,0,0,2.5-1.4,4.4c-0.5,0.7-2,1.5-2.6,1c-0.7-0.5-0.5-1.8,0.2-2.8
		C1186.9,169.4,1189.3,168.8,1189.3,168.8z"/>
	
		<linearGradient id="SVGID_92_" gradientUnits="userSpaceOnUse" x1="1985.8186" y1="8865.3633" x2="2019.9865" y2="8999.8975" gradientTransform="matrix(0.3641 -0.9313 0.9313 0.3641 -7804.1797 -1182.8933)">
		<stop  offset="1.482780e-02" style="stop-color:#002C68"/>
		<stop  offset="0.4226" style="stop-color:#0098B0"/>
		<stop  offset="1" style="stop-color:#002C68"/>
	</linearGradient>
	<path class="st95" d="M1245.7,207c0,0-2.3-0.3-4.1-2.2c-0.7-0.7-1.4-2.5-1-3.2c0.4-0.7,1.6-0.4,2.6,0.6
		C1245.1,204.2,1245.7,207,1245.7,207z"/>
	
		<linearGradient id="SVGID_93_" gradientUnits="userSpaceOnUse" x1="1983.9094" y1="8865.8545" x2="2018.0736" y2="9000.375" gradientTransform="matrix(0.3641 -0.9313 0.9313 0.3641 -7804.1797 -1182.8933)">
		<stop  offset="1.482780e-02" style="stop-color:#002C68"/>
		<stop  offset="0.4226" style="stop-color:#0098B0"/>
		<stop  offset="1" style="stop-color:#002C68"/>
	</linearGradient>
	<path class="st96" d="M1237.5,207.9c0,0-1.7-0.4-3.1-2.3c-0.5-0.7-1.1-2.3-0.8-2.9c0.3-0.6,1.3-0.2,2,0.8
		C1237,205.3,1237.5,207.9,1237.5,207.9z"/>
	
		<linearGradient id="SVGID_94_" gradientUnits="userSpaceOnUse" x1="1993.1085" y1="8863.5127" x2="2027.2777" y2="8998.0537" gradientTransform="matrix(0.3641 -0.9313 0.9313 0.3641 -7804.1797 -1182.8933)">
		<stop  offset="1.482780e-02" style="stop-color:#002C68"/>
		<stop  offset="0.4226" style="stop-color:#0098B0"/>
		<stop  offset="1" style="stop-color:#002C68"/>
	</linearGradient>
	<path class="st97" d="M1203.2,194c0,0-2.3-1.4-3.3-3.3c-0.4-0.7-0.3-1.9,0.5-1.9c0.8,0,1.9,0.8,2.4,1.8
		C1203.9,192.4,1203.2,194,1203.2,194z"/>
	
		<linearGradient id="SVGID_95_" gradientUnits="userSpaceOnUse" x1="1979.9138" y1="8866.8623" x2="2014.0814" y2="9001.3975" gradientTransform="matrix(0.3641 -0.9313 0.9313 0.3641 -7804.1797 -1182.8933)">
		<stop  offset="1.482780e-02" style="stop-color:#002C68"/>
		<stop  offset="0.4226" style="stop-color:#0098B0"/>
		<stop  offset="1" style="stop-color:#002C68"/>
	</linearGradient>
	<path class="st98" d="M1246.1,207.1c0,0-0.6,3.3-2.3,5.4c-0.6,0.8-2.1,1.4-2.5,0.5c-0.4-0.9,0-2.6,0.9-3.7
		C1243.9,207.2,1246.1,207.1,1246.1,207.1z"/>
	
		<linearGradient id="SVGID_96_" gradientUnits="userSpaceOnUse" x1="1978.6499" y1="8867.1846" x2="2012.8173" y2="9001.7178" gradientTransform="matrix(0.3641 -0.9313 0.9313 0.3641 -7804.1797 -1182.8933)">
		<stop  offset="1.482780e-02" style="stop-color:#002C68"/>
		<stop  offset="0.4226" style="stop-color:#0098B0"/>
		<stop  offset="1" style="stop-color:#002C68"/>
	</linearGradient>
	<path class="st99" d="M1237.7,208c0,0-0.6,3-2.1,4.7c-0.6,0.6-1.8,0.9-2.2,0c-0.4-0.9,0-2.4,0.8-3.3
		C1235.8,207.7,1237.7,208,1237.7,208z"/>
	
		<linearGradient id="SVGID_97_" gradientUnits="userSpaceOnUse" x1="1983.9774" y1="8865.8291" x2="2018.1506" y2="9000.3857" gradientTransform="matrix(0.3641 -0.9313 0.9313 0.3641 -7804.1797 -1182.8933)">
		<stop  offset="1.482780e-02" style="stop-color:#002C68"/>
		<stop  offset="0.4226" style="stop-color:#0098B0"/>
		<stop  offset="1" style="stop-color:#002C68"/>
	</linearGradient>
	<path class="st100" d="M1202.7,204.4c0,0-1.9-1.2-3.2-3.8c-0.4-0.9-0.8-3-0.3-3.4c0.5-0.5,1.5,0.3,2.2,1.6
		C1202.7,201.4,1202.7,204.4,1202.7,204.4z"/>
</g>
<g>
	
		<linearGradient id="SVGID_98_" gradientUnits="userSpaceOnUse" x1="1910.1387" y1="-1197.3015" x2="1965.9624" y2="-1123.1749" gradientTransform="matrix(0.9505 0.3106 -0.3106 0.9505 -850.6573 817.9817)">
		<stop  offset="1.482780e-02" style="stop-color:#00284A"/>
		<stop  offset="0.8525" style="stop-color:#0098AF"/>
	</linearGradient>
	<path class="st101" d="M1326.3,309.8l-7.7,7.1c-7.5-3.9-14.3-8.5-20-13.4c3.7-6.4,8.2-12.5,13.6-17.9c26.4-26.8,83-8.7,90,40.2
		c-14.7,6.6-36.5,7.3-59.8,0.6c-6-1.7-11.8-3.9-17.3-6.4L1326.3,309.8z"/>
	<linearGradient id="SVGID_99_" gradientUnits="userSpaceOnUse" x1="1298.5663" y1="310.6161" x2="1402.1823" y2="310.6161">
		<stop  offset="1.482780e-02" style="stop-color:#00284A"/>
		<stop  offset="0.8525" style="stop-color:#0098AF"/>
	</linearGradient>
	<path class="st102" d="M1298.6,303.5c0,0,59.5-28.8,103.6,22.3"/>
	<linearGradient id="SVGID_100_" gradientUnits="userSpaceOnUse" x1="1308.427" y1="293.5712" x2="1318.1304" y2="293.5712">
		<stop  offset="1.482780e-02" style="stop-color:#00284A"/>
		<stop  offset="0.8525" style="stop-color:#0098AF"/>
	</linearGradient>
	<line class="st103" x1="1308.4" y1="289.6" x2="1318.1" y2="297.5"/>
	<linearGradient id="SVGID_101_" gradientUnits="userSpaceOnUse" x1="1317.5754" y1="288.3986" x2="1331.9856" y2="288.3986">
		<stop  offset="1.482780e-02" style="stop-color:#00284A"/>
		<stop  offset="0.8525" style="stop-color:#0098AF"/>
	</linearGradient>
	<line class="st104" x1="1317.6" y1="281.2" x2="1332" y2="295.6"/>
	<linearGradient id="SVGID_102_" gradientUnits="userSpaceOnUse" x1="1328.7617" y1="285.6924" x2="1346.0071" y2="285.6924">
		<stop  offset="1.482780e-02" style="stop-color:#00284A"/>
		<stop  offset="0.8525" style="stop-color:#0098AF"/>
	</linearGradient>
	<line class="st105" x1="1328.8" y1="275.6" x2="1346" y2="295.8"/>
	<linearGradient id="SVGID_103_" gradientUnits="userSpaceOnUse" x1="1343.7065" y1="285.6831" x2="1358.8901" y2="285.6831">
		<stop  offset="1.482780e-02" style="stop-color:#00284A"/>
		<stop  offset="0.8525" style="stop-color:#0098AF"/>
	</linearGradient>
	<line class="st106" x1="1343.7" y1="273.3" x2="1358.9" y2="298.1"/>
	<linearGradient id="SVGID_104_" gradientUnits="userSpaceOnUse" x1="1357.5287" y1="288.3607" x2="1369.5315" y2="288.3607">
		<stop  offset="1.482780e-02" style="stop-color:#00284A"/>
		<stop  offset="0.8525" style="stop-color:#0098AF"/>
	</linearGradient>
	<line class="st107" x1="1357.5" y1="275.2" x2="1369.5" y2="301.5"/>
	<linearGradient id="SVGID_105_" gradientUnits="userSpaceOnUse" x1="1372.9387" y1="295.0455" x2="1382.4349" y2="295.0455">
		<stop  offset="1.482780e-02" style="stop-color:#00284A"/>
		<stop  offset="0.8525" style="stop-color:#0098AF"/>
	</linearGradient>
	<line class="st108" x1="1372.9" y1="281.6" x2="1382.4" y2="308.5"/>
	<linearGradient id="SVGID_106_" gradientUnits="userSpaceOnUse" x1="1386.4138" y1="304.6823" x2="1393.4946" y2="304.6823">
		<stop  offset="1.482780e-02" style="stop-color:#00284A"/>
		<stop  offset="0.8525" style="stop-color:#0098AF"/>
	</linearGradient>
	<line class="st109" x1="1386.4" y1="292.4" x2="1393.5" y2="317"/>
	<linearGradient id="SVGID_107_" gradientUnits="userSpaceOnUse" x1="1309.2701" y1="304.3327" x2="1317.6953" y2="304.3327">
		<stop  offset="1.482780e-02" style="stop-color:#00284A"/>
		<stop  offset="0.8525" style="stop-color:#0098AF"/>
	</linearGradient>
	<line class="st110" x1="1309.3" y1="311.3" x2="1317.7" y2="297.4"/>
	<linearGradient id="SVGID_108_" gradientUnits="userSpaceOnUse" x1="1317.5181" y1="305.9376" x2="1331.9856" y2="305.9376">
		<stop  offset="1.482780e-02" style="stop-color:#00284A"/>
		<stop  offset="0.8525" style="stop-color:#0098AF"/>
	</linearGradient>
	<line class="st111" x1="1332" y1="295.6" x2="1317.5" y2="316.3"/>
	<linearGradient id="SVGID_109_" gradientUnits="userSpaceOnUse" x1="1330.297" y1="308.9263" x2="1346.0071" y2="308.9263">
		<stop  offset="1.482780e-02" style="stop-color:#00284A"/>
		<stop  offset="0.8525" style="stop-color:#0098AF"/>
	</linearGradient>
	<line class="st112" x1="1346" y1="295.8" x2="1330.3" y2="322.1"/>
	<linearGradient id="SVGID_110_" gradientUnits="userSpaceOnUse" x1="1343.7957" y1="312.4807" x2="1358.8901" y2="312.4807">
		<stop  offset="1.482780e-02" style="stop-color:#00284A"/>
		<stop  offset="0.8525" style="stop-color:#0098AF"/>
	</linearGradient>
	<line class="st113" x1="1358.9" y1="298.1" x2="1343.8" y2="326.9"/>
	<linearGradient id="SVGID_111_" gradientUnits="userSpaceOnUse" x1="1356.0127" y1="315.5027" x2="1369.5315" y2="315.5027">
		<stop  offset="1.482780e-02" style="stop-color:#00284A"/>
		<stop  offset="0.8525" style="stop-color:#0098AF"/>
	</linearGradient>
	<line class="st114" x1="1369.5" y1="301.5" x2="1356" y2="329.5"/>
	<linearGradient id="SVGID_112_" gradientUnits="userSpaceOnUse" x1="1370.5168" y1="319.7728" x2="1382.4349" y2="319.7728">
		<stop  offset="1.482780e-02" style="stop-color:#00284A"/>
		<stop  offset="0.8525" style="stop-color:#0098AF"/>
	</linearGradient>
	<line class="st115" x1="1382.4" y1="308.5" x2="1370.5" y2="331.1"/>
	<linearGradient id="SVGID_113_" gradientUnits="userSpaceOnUse" x1="1384.771" y1="323.6248" x2="1393.4946" y2="323.6248">
		<stop  offset="1.482780e-02" style="stop-color:#00284A"/>
		<stop  offset="0.8525" style="stop-color:#0098AF"/>
	</linearGradient>
	<line class="st116" x1="1393.5" y1="317" x2="1384.8" y2="330.3"/>
</g>
<g>
	<path class="st1" d="M1444.8,184.4c0,0-4.2-1.2-6.6-5.7c-0.9-1.6-1.3-5.3-0.1-6.2c1.1-0.9,2.8,0.4,4,2.6
		C1444.2,179.4,1444.8,184.4,1444.8,184.4z"/>
	<path class="st1" d="M1450.3,190.3c0,0-2.8-3.6-2.7-7.6c0-1.5,1.2-3.7,2.4-3.4c1.3,0.3,2.3,2.3,2.3,4.3
		C1452.5,187.5,1450.3,190.3,1450.3,190.3z"/>
	<path class="st1" d="M1456.8,197.2c0,0-2-3.9-0.9-7.2c0.4-1.2,2.1-2.7,3.5-2c1.3,0.6,2,2.6,1.6,4.3
		C1460.1,195.6,1456.8,197.2,1456.8,197.2z"/>
	<path class="st1" d="M1449.2,191.1c0,0-2.1,2.6-5.6,2.7c-1.3,0.1-3.7-1-4-2.4c-0.3-1.4,1.1-2.4,2.8-2.4
		C1445.8,189,1449.2,191.1,1449.2,191.1z"/>
	<path class="st1" d="M1456,197.9c0,0-1.8,2.8-5.4,3.4c-1.3,0.2-4-0.6-4.5-1.9c-0.5-1.4,0.8-2.6,2.6-2.8
		C1452.2,196.2,1456,197.9,1456,197.9z"/>
	<path class="st1" d="M1466.2,205.8c0,0-0.8,2.7-3.6,3.5c-1,0.3-3.4-0.1-4.2-1.2c-0.7-1.1,0-2.4,1.4-2.8
		C1462.7,204.6,1466.2,205.8,1466.2,205.8z"/>
	<path class="st1" d="M1467,204.8c0,0-2.3-2.4-2.4-5.1c0-1,0.9-2.6,2-2.4c1.1,0.2,2,1.5,2.1,2.9C1468.9,202.8,1467,204.8,1467,204.8
		z"/>
	<g>
		<path class="st1" d="M1476.5,211.1c-26.9-12.3-36.9-34.8-37.1-34.5c0.1-0.1,0.2-0.2,0.3-0.3c0.2-0.4,10.1,22.2,37.1,34.5
			C1476.7,210.9,1476.6,211,1476.5,211.1z"/>
	</g>
</g>
<g>
	<linearGradient id="SVGID_114_" gradientUnits="userSpaceOnUse" x1="1023.0809" y1="134.313" x2="1028.9108" y2="134.313">
		<stop  offset="1.482780e-02" style="stop-color:#35A194"/>
		<stop  offset="0.4226" style="stop-color:#38AFC1"/>
		<stop  offset="1" style="stop-color:#0098AF"/>
	</linearGradient>
	<polygon class="st117" points="1026,137.2 1025,135.3 1023.1,134.3 1025,133.3 1026,131.4 1027,133.3 1028.9,134.3 1027,135.3 	"/>
	<linearGradient id="SVGID_115_" gradientUnits="userSpaceOnUse" x1="1013.1194" y1="123.7219" x2="1015.7378" y2="123.7219">
		<stop  offset="1.482780e-02" style="stop-color:#35A194"/>
		<stop  offset="0.4226" style="stop-color:#38AFC1"/>
		<stop  offset="1" style="stop-color:#0098AF"/>
	</linearGradient>
	<polygon class="st118" points="1014.4,125 1014,124.2 1013.1,123.7 1014,123.3 1014.4,122.4 1014.9,123.3 1015.7,123.7 
		1014.9,124.2 	"/>
	<linearGradient id="SVGID_116_" gradientUnits="userSpaceOnUse" x1="1043.7646" y1="127.7446" x2="1047.8875" y2="127.7446">
		<stop  offset="1.482780e-02" style="stop-color:#35A194"/>
		<stop  offset="0.4226" style="stop-color:#38AFC1"/>
		<stop  offset="1" style="stop-color:#0098AF"/>
	</linearGradient>
	<polygon class="st119" points="1043.8,129.8 1044.4,127.7 1043.8,125.7 1045.8,126.3 1047.9,125.7 1047.3,127.7 1047.9,129.8 
		1045.8,129.2 	"/>
	<linearGradient id="SVGID_117_" gradientUnits="userSpaceOnUse" x1="1023.7001" y1="150.1736" x2="1025.5514" y2="150.1736">
		<stop  offset="1.482780e-02" style="stop-color:#35A194"/>
		<stop  offset="0.4226" style="stop-color:#38AFC1"/>
		<stop  offset="1" style="stop-color:#0098AF"/>
	</linearGradient>
	<polygon class="st120" points="1023.7,151.1 1024,150.2 1023.7,149.2 1024.6,149.5 1025.6,149.2 1025.3,150.2 1025.6,151.1 
		1024.6,150.8 	"/>
	<linearGradient id="SVGID_118_" gradientUnits="userSpaceOnUse" x1="1110.3552" y1="182.0138" x2="1112.2058" y2="182.0138">
		<stop  offset="1.482780e-02" style="stop-color:#35A194"/>
		<stop  offset="0.4226" style="stop-color:#38AFC1"/>
		<stop  offset="1" style="stop-color:#0098AF"/>
	</linearGradient>
	<polygon class="st121" points="1110.4,182.9 1110.6,182 1110.4,181.1 1111.3,181.4 1112.2,181.1 1111.9,182 1112.2,182.9 
		1111.3,182.7 	"/>
</g>
<g>
	<polygon class="st122" points="1292.2,198.7 1293.1,200.7 1294.9,201.8 1292.9,202.7 1291.7,204.5 1290.8,202.6 1289,201.4 
		1291,200.5 	"/>
	<polygon class="st122" points="1302.7,211.8 1303.1,212.7 1303.9,213.2 1303.1,213.6 1302.5,214.4 1302.1,213.5 1301.3,213 
		1302.2,212.6 	"/>
	<polygon class="st122" points="1273.9,204.7 1273.1,206.7 1273.6,208.8 1271.5,208 1269.4,208.5 1270.2,206.5 1269.8,204.4 
		1271.8,205.1 	"/>
	<polygon class="st122" points="1295.6,185.1 1295.2,186 1295.4,186.9 1294.5,186.6 1293.6,186.8 1293.9,185.9 1293.7,184.9 
		1294.6,185.3 	"/>
	<polygon class="st122" points="1211.7,146.4 1211.4,147.3 1211.6,148.3 1210.7,147.9 1209.7,148.1 1210.1,147.2 1209.9,146.3 
		1210.8,146.6 	"/>
</g>
<linearGradient id="SVGID_119_" gradientUnits="userSpaceOnUse" x1="1770.3528" y1="-486.0715" x2="1513.921" y2="-504.5769" gradientTransform="matrix(0.9705 2.450000e-02 2.450000e-02 0.9202 -264.7892 519.5)">
	<stop  offset="1.482780e-02" style="stop-color:#00284A"/>
	<stop  offset="1" style="stop-color:#0098AF"/>
</linearGradient>
<path class="st123" d="M1427.2,131.6c0,0-3.7-38.3-42.1-40.1c-38.4-1.8-98.3,25.4-116.5,23.5c-19.6-2.1-15.3-20.4-15.3-20.4
	s-8.3,17.9,15,23.6c11.7,2.9,90.9-20.6,109.4-21.8C1407.7,94.4,1420.8,117.1,1427.2,131.6z"/>
<g>
	<g>
		<g>
			<path class="st124" d="M1453.7,264c0,0-30,26.9-47.8,21.5c-17.8-5.4-29.1-20.9-27.8-28.4c1.3-7.6,6.5-21.8,10.8-18.3
				c5.4,4.4,18.3,6.2,24.8,2.2c3.3-2.1,9.1-5.6,10.7-14c0.6-3.2,10.4,0.8,8.4,8.6c-0.7,2.8-0.7,9.6,1,13.3
				C1438.3,258.1,1442,257.4,1453.7,264z"/>
			<path class="st124" d="M1437.7,175.7c-1.2,2.1-2.2,4.3-3.1,6.6c-6,15.7,20.6,13.5,5.3,38.5c-3.4,6.7-5.5,13.3-6.8,19.2
				c-1.5,6.7,1.8,16.5,1.8,16.5c-4.1,11-46.9,6.2-45.2,5c1.7-1.2,17-8.2,26-17.5c6.3-6.5,7.4-14.2,6.9-20.1
				c-1.8-9.4-9.6-13.7-9.6-13.7c-0.7-0.4-1.2-1.1-1.4-1.9c0.4-1.7,1.1-3.5,2-5.1l10.6-18.5C1427.2,179.7,1432.3,176.5,1437.7,175.7z
				"/>
		</g>
	</g>
	<path class="st124" d="M1447.6,262.4c0.4-2.6,3-7.3,9.2-5c6.6,2.4,10.9,8.4,11.8,24.9c0.9,16.5,4.3,29.6,6.8,38.7
		c2.6,9.1-9.1,26.7-15.6,15.9c-6.5-10.8-10.2-37.8-10.8-45.2C1448.5,284.2,1447.3,264.1,1447.6,262.4z"/>
	<path class="st124" d="M1389.6,235.9c0,0,14.5,56,8,91c-4.6,24.7-13.6,8-20.9,5.5c0,0,0.4-3.1,0.4-14.6c0-19.1-0.7-36.6-2.3-47.2
		c-2.6-16.8-2.6-27.3,0.9-31.3C1379.1,235.3,1381.9,233.1,1389.6,235.9z"/>
	<path class="st124" d="M1379.7,325.7c0,0-0.6-4.5-6.8,21.3c-6.3,25.9-10.2,70.5-16.8,79c-6.5,8.5-8.8,3.4-7.7,4.5
		c4,4,5.7,8,9.9,7.1c4.3-0.9,13.6-17.9,23.3-47.5c9.7-29.6,15.6-49.8,13.9-58.9C1393.9,322.3,1380.5,323.5,1379.7,325.7z"/>
	<path class="st124" d="M1367.4,425.5c0,0-4.3,10.5-6.8,11.4c-2.6,0.9-9.4,0-13.6-1.4c-4.3-1.4-7.4-3.4-9.7-3.7
		c-2.3-0.3-15.1,3.8-18.8,4c-3.9,0.2-5,0.2-7.1-0.6c-2.1-0.8-1.3-2.3-1.3-2.3s1.8-0.2,7.4-1.3c7.9-1.6,18.8-7,21.6-8.5
		c4.9-2.7,5.3-3,8.2-1.9c3.3,1.3,7.7,2.4,11.8,3.2C1364.3,425.5,1367.4,425.5,1367.4,425.5z"/>
	<path class="st124" d="M1363.4,433.5c0,0-1.8,5.1-9.3,7.8c-5.5,2-6.4,1.6-9.3,1.5c-2.8-0.1-3.8-0.4-3.8-0.4s-0.5-2.5,3-2.8
		c2-0.2,5.7-2.7,4-3.8C1346.3,434.6,1363.4,433.5,1363.4,433.5z"/>
	<path class="st1" d="M1451.6,382.9c0,0,5.7-21.6,6-33.8c0.3-12.2-1.1-33.8-0.9-34.7c0.3-0.9,8.2-6.3,7.7-11.9
		c-0.6-5.7-8-20.8-9.4-25.3c-1.4-4.5-1.4-20.5-1.4-20.5s-13.1,3.1-28.7-2.6c-15.6-5.7-35.3-18.2-35.3-18.2s-10.5,1.1-2.6,48.6
		c8,47.5,10.4,50.3,10.8,64.3c0.6,20.5-11.9,43.5-13.1,60.8C1383.6,427,1447.6,389.1,1451.6,382.9z"/>
	<path class="st125" d="M1441.1,380.3c22.4-9,37-8.2,90.4-2.6c12.2,1.3,37.1,3,49.5,10c11.1,6.3,14.2,22.6-41.3,33.6
		c-50.7,10-116.1,14.7-133,1.1C1389.8,408.8,1419.2,389.1,1441.1,380.3z"/>
	<path class="st124" d="M1452.7,443.2c0,0-2.3,1.4-3.4,0.6c-1.1-0.9-4.3-4.5-9.4-1.7c-5.1,2.8-6.5,6.3-11.4,6.5
		c-4.8,0.3-16.8-1.7-20.2,1.1c-3.4,2.8-8.8,13.4-7.4,20.8c1.4,7.4,3.7,8.2,6,4.8c2.3-3.4,4.3-5.4,5.4-6c1.1-0.6,13.9-5.4,18.2-7.7
		c4.3-2.3,10.2-4.8,11.9-5.4c1.7-0.6,11.1-2.3,11.9-2.3C1455.3,454,1452.7,443.2,1452.7,443.2z"/>
	<path class="st126" d="M1408.4,449.7c3.4-2.8,15.4-0.9,20.2-1.1c4.8-0.3,6.3-3.7,11.4-6.5c4-2.3,6.9-0.9,9.4,1.6
		c-0.1,0-0.9-0.4-1.5-0.3c-2.8,0.3-8.9,5.2-13.4,7.1c-4.8,2-13.7,3.6-17.5,6.2c-2.4,1.7-3.6,7.4-3.9,12.4c-0.3,0.1-0.5,0.2-0.6,0.3
		c-1.1,0.6-3.1,2.6-5.4,6c-2.3,3.4-4.5,2.6-6-4.8C1399.6,463.1,1405,452.5,1408.4,449.7z"/>
	<path class="st127" d="M1451.6,455.4c0,0,81.7-16.4,100.1-23.6c18.4-7.2,47.2-11.9,39.7-31.9c-6.8-18.1-27.1-20.2-53.9-9
		c-26.8,11.2-27.1,12-47,24.2c-25.3,15.6-40.1,29-40.1,29L1451.6,455.4z"/>
	<path class="st124" d="M1554.2,435.2c0,0,2,2,0.6,4.3c-1.4,2.3-4.3,4-3.7,6.8c0.6,2.8,1.1,3.4,4.3,5.7c3.1,2.3,8.5,5.1,11.7,11.7
		c3.1,6.5,7.4,12.8,15.1,13.9c7.7,1.1,13.6,0.6,17.3-1.1c3.7-1.7,1.7-3.7-0.8-4.8c-2.6-1.1-8-4-11.7-9.7
		c-3.7-5.7-7.7-10.5-10.2-15.1c-2.6-4.5-5.7-9.4-8.2-13.9C1565.9,428.4,1554.2,432.1,1554.2,435.2z"/>
	<path class="st126" d="M1564.6,451.6c5.1,5.2,7.8,10.9,15.1,13.9c3.8,1.6,8.6,1.6,10.6,0.5c3.1,3.1,6.5,4.8,8.3,5.6
		c2.6,1.1,4.5,3.1,0.8,4.8c-3.7,1.7-9.7,2.3-17.3,1.1c-7.7-1.1-11.9-7.4-15.1-13.9c-3.1-6.5-8.5-9.4-11.7-11.7
		c-3.1-2.3-3.7-2.8-4.3-5.7c-0.5-2.4,1.4-3.9,2.8-5.7C1555.7,443.4,1559.7,446.6,1564.6,451.6z"/>
	<path class="st128" d="M1387,395.4c0,0,30.1-44.4,54.6-58.6c24.5-14.2,86.4-66,42.1,23.9c-22.9,46.3-38.7,74.5-59.7,79.6
		C1403,445.4,1364.9,440.3,1387,395.4z"/>
	<path class="st126" d="M1575.3,437.5c0,0-38.1-74.5-48.9-91c-10.8-16.5-29.6-49.5-37.5-31.8c-8,17.6-14.2,30.7,2.3,54.6
		c16.5,23.9,16.5,23.9,37.5,44.9c21,21,27.9,25,27.9,25L1575.3,437.5z"/>
</g>
<g>
	<path class="st129" d="M1020.1,316.7c0,0-3.6-4.7-9.1-5.9c-2-0.4-5.8,0.5-6.2,2.5c-0.5,2.1,1.7,4.3,4.6,4.9
		C1014.9,319.4,1020.1,316.7,1020.1,316.7z"/>
	<path class="st129" d="M1032.4,318.7c0,0-4.9-0.4-8.6,2.8c-1.9,1.6-3,4-1.9,5.5c1.1,1.5,3.3,1,5.4-0.4
		C1031.2,323.8,1032.4,318.7,1032.4,318.7z"/>
	<path class="st129" d="M1044.8,319.9c0,0-3.9-0.2-8.2,3.2c-1.4,1.1-3.9,4.1-2.8,5.6c1.1,1.5,3.7,0.6,5.8-0.9
		C1043.6,324.9,1044.8,319.9,1044.8,319.9z"/>
	<path class="st129" d="M1028.6,317.9c0,0,0.6-4.6-1.7-8.9c-0.8-1.5-3.4-3.6-4.7-2.9c-1.3,0.7-1.4,3.3-0.2,5.5
		C1024.4,315.9,1028.6,317.9,1028.6,317.9z"/>
	<path class="st129" d="M1039,319.2c0,0,1.1-4.8-0.8-9.2c-0.7-1.6-3.1-3.9-4.6-3.2c-1.5,0.6-1.8,3.2-0.8,5.5
		C1034.7,316.7,1039,319.2,1039,319.2z"/>
	<path class="st129" d="M1052,320.2c0,0,0.5-4.2-1.8-7.1c-0.8-1.1-3.3-2.1-4.6-1.1c-1.3,1-1.3,3.1-0.1,4.7
		C1047.9,319.7,1052,320.2,1052,320.2z"/>
	<path class="st129" d="M1054.4,320.6c0,0-3.9,1-6.3,4c-0.9,1.1-1.6,3.7-0.5,4.5c1,0.8,3,0.1,4.3-1.5
		C1054.3,324.6,1054.4,320.6,1054.4,320.6z"/>
	<path class="st129" d="M1005,313.5c0,0,29.4,8.2,62.7,6.6"/>
	<path class="st129" d="M1022.4,306.3c0,0,2.7,6.9,6.3,11.8"/>
	<path class="st129" d="M1022.3,327.4c0,0,6.2-7.6,10.1-8.7"/>
	<path class="st129" d="M1034.1,329c0,0,6.7-7.7,10.6-9.1"/>
	<path class="st129" d="M1047.8,329.2c0,0,5.4-7.3,6.6-8.6"/>
	<path class="st129" d="M1045.7,312.1c0,0,3,5.4,6.3,8.1"/>
	<path class="st129" d="M1033.8,306.8c0,0,1.4,6.8,5.2,12.4"/>
</g>
<g>
	<g>
		
			<linearGradient id="SVGID_120_" gradientUnits="userSpaceOnUse" x1="-7811.9609" y1="-1260.7758" x2="-7812.8047" y2="-1419.9071" gradientTransform="matrix(-0.9127 -0.4087 -0.4087 0.9127 -7054.5278 -1508.5382)">
			<stop  offset="1.482780e-02" style="stop-color:#002C68"/>
			<stop  offset="0.4226" style="stop-color:#0098B0"/>
			<stop  offset="1" style="stop-color:#002C68"/>
		</linearGradient>
		<path class="st130" d="M621.6,440.1c0,0-6.7,17.1-7.4,32.4c-0.7,15.3,0.1,17.8,0.1,17.8l7.1,4.4c0,0-3.2-15.1-1.1-27.2
			c2-12.1,3.8-19.9,5.7-27c2-7.1-0.3-13-0.3-13L621.6,440.1z"/>
		<g>
			
				<linearGradient id="SVGID_121_" gradientUnits="userSpaceOnUse" x1="-7802.8271" y1="-1427.3602" x2="-7720.1802" y2="-1427.3602" gradientTransform="matrix(-0.9127 -0.4087 -0.4087 0.9127 -7054.5278 -1508.5382)">
				<stop  offset="1.482780e-02" style="stop-color:#002C68"/>
				<stop  offset="0.4226" style="stop-color:#0098B0"/>
				<stop  offset="1" style="stop-color:#002C68"/>
			</linearGradient>
			<path class="st131" d="M625.8,431.7c0,0-5.2,19.8-17,20.1c-11.8,0.3-26.6-3.4-32.7-14c-6.1-10.6-8-19.8,1.3-10.1
				c9.3,9.8,19.2,9,21,8.8c1.8-0.3,12.8-3.2,9.2-8.8c-3.6-5.6-6.8-5-11-4.2c-4.2,0.9-18,7.8-24.6-0.7c-6.5-8.5-12-32.9-6.3-28.9
				c5.8,3.9,20.3,17,27.5,18.6c7.2,1.6,13.2,4.1,15.5-5.4c1.8-7.3-10-6.6-11.7-7c-1.7-0.4-18.3-0.2-22.9-8.3
				c-4.6-8.1-5.5-23.5-2.9-37.3c2.6-13.8,7-8.6,9.8,2.8c2.8,11.4,16.9,34.8,26.1,36.3c9.2,1.6,15.5-4.1,11-10
				c-4.5-5.8-21.9-10.1-28.8-19.5c-7-9.5-11.1-22.9-7.6-32.8c3.5-9.8,11.5-20.2,13-11.1c1.5,9.2,11.8,41.2,18.3,46.6
				c6.5,5.4,13.3,2.7,13.9-0.1c0.6-2.7-0.5-6.9-7.8-11.8c-7.3-4.9-18.4-16.6-17-27.3c1.5-10.7,11.2-36.2,14.2-25.6
				c3,10.6,1.3,20.6,2.1,24.9c0.8,4.4,5,24.7,10.4,26.1c5.4,1.4,10.9-6.5,5.3-11c-5.6-4.5-14.9-17.6-12-30.9
				c2.9-13.3,11-28.1,12.9-15.5c1.9,12.5,2.5,22.2,3.1,26.3c0.6,4.1,2.8,12.5,5.1,6c2.3-6.6,1.5-13.1-0.6-18.4
				c-2.1-5.3-2.2-14.4,3.9-17.7c6-3.3,14.1-5.8,15.9-7.1C664,283.4,627.3,426.5,625.8,431.7z"/>
			
				<linearGradient id="SVGID_122_" gradientUnits="userSpaceOnUse" x1="-7857.4941" y1="-1432.7164" x2="-7775.4814" y2="-1432.7164" gradientTransform="matrix(-0.9127 -0.4087 -0.4087 0.9127 -7054.5278 -1508.5382)">
				<stop  offset="1.482780e-02" style="stop-color:#002C68"/>
				<stop  offset="0.4226" style="stop-color:#0098B0"/>
				<stop  offset="1" style="stop-color:#002C68"/>
			</linearGradient>
			<path class="st132" d="M625.2,430c0,0-4.1,20.9,4.1,24.7c8.2,3.8,22,9.4,36.3-2.7c14.3-12.1,18-14.9,19.7-18.5
				c1.7-3.6,1.8-5.8-5.5-4.3c-7.4,1.5-16.5,7-24.1,5.8c-7.5-1.2-14.2-7.8-6.9-13c7.3-5.2,9.2-1.1,18,1c8.8,2.1,16.7,5.7,22.3-5.1
				c5.6-10.8,7.3-19.9,7.9-22.8c0.6-2.9,0.7-7.1-4.6-2.5c-5.3,4.6-20.7,18.1-30.4,18.8c-9.7,0.7-15.5-6-6.4-11.1
				c9.1-5.1,16.6-3.2,23.4-5.5c6.8-2.3,20.1-9,21.5-23.3c1.5-14.2-0.1-24.6-6.6-15.7c-6.5,8.9-17.6,29.3-25.9,32.5
				c-8.3,3.2-18.4,3.2-16.3-2.4c2.1-5.6,4.2-7.8,13.7-9.5c9.5-1.8,18.8-10,23.1-17.5c4.3-7.5,7.8-20.1,6.5-25.7
				c-1.3-5.6-3-11.8-7.9-4.4c-4.9,7.5-16.2,33.1-25.8,37.5c-9.6,4.4-14.2,1.9-9.2-6.4c5-8.3,14.4-11.9,20-17
				c5.7-5.1,12.9-11.9,12.5-20.8c-0.4-8.9-0.5-19.4-4.9-12.1c-4.4,7.3-10.3,18.1-15,25.6c-4.7,7.5-6.5,8.3-7.9,7.4
				c-1.4-0.9-3.9-5.8,5-17c8.9-11.2,12.5-14.6,12.1-19.9c-0.3-5.2-11.7-18.6-11.9-21.5C662,281.8,625.2,430,625.2,430z"/>
		</g>
	</g>
</g>
</svg>
