<svg id="Figures" xmlns="http://www.w3.org/2000/svg" xmlns:xlink="http://www.w3.org/1999/xlink" viewBox="0 0 718.54 572.38"><defs><style>.cls-1{fill:#002c68;}.cls-2{clip-path:url(#clip-path);}.cls-3{fill:url(#linear-gradient);}.cls-4{fill:url(#linear-gradient-2);}.cls-5{fill:url(#linear-gradient-3);}.cls-6{fill:url(#linear-gradient-4);}.cls-7{fill:url(#linear-gradient-5);}.cls-8{fill:url(#linear-gradient-6);}.cls-9{fill:url(#linear-gradient-7);}.cls-10{fill:url(#linear-gradient-8);}.cls-11{fill:url(#linear-gradient-9);}.cls-12{fill:url(#linear-gradient-10);}.cls-13{fill:url(#linear-gradient-11);}.cls-14{fill:url(#linear-gradient-12);}.cls-15{fill:url(#linear-gradient-13);}.cls-16{fill:url(#linear-gradient-14);}.cls-17{fill:url(#linear-gradient-15);}.cls-18{fill:url(#linear-gradient-16);}.cls-19{fill:url(#linear-gradient-17);}.cls-20{fill:url(#linear-gradient-18);}.cls-21{fill:url(#linear-gradient-19);}.cls-22{fill:url(#linear-gradient-20);}.cls-23{fill:url(#linear-gradient-21);}.cls-24{fill:url(#linear-gradient-22);}.cls-25{fill:url(#linear-gradient-23);}.cls-26{fill:url(#linear-gradient-24);}.cls-27{fill:url(#linear-gradient-25);}.cls-28{fill:url(#linear-gradient-26);}.cls-29{fill:url(#linear-gradient-27);}.cls-30{fill:url(#linear-gradient-28);}.cls-31{fill:url(#linear-gradient-29);}.cls-32{fill:url(#linear-gradient-30);}.cls-33{fill:url(#linear-gradient-31);}.cls-34{fill:url(#linear-gradient-32);}.cls-35{fill:url(#linear-gradient-33);}.cls-36{fill:url(#linear-gradient-34);}.cls-37{fill:url(#linear-gradient-35);}.cls-38{fill:url(#linear-gradient-36);}.cls-39{fill:url(#linear-gradient-37);}.cls-40{fill:url(#linear-gradient-38);}.cls-41{fill:#0098af;}.cls-101,.cls-42,.cls-43,.cls-77{fill:none;stroke-miterlimit:10;}.cls-42,.cls-43,.cls-77{stroke:#0598af;}.cls-42{stroke-width:0.44px;}.cls-43{stroke-width:0.45px;}.cls-44{fill:#00284a;}.cls-45{fill:url(#linear-gradient-39);}.cls-46{fill:url(#linear-gradient-40);}.cls-47{fill:url(#linear-gradient-41);}.cls-48{fill:url(#linear-gradient-42);}.cls-49{fill:url(#linear-gradient-43);}.cls-50{fill:url(#linear-gradient-44);}.cls-51{fill:url(#linear-gradient-45);}.cls-52{fill:url(#linear-gradient-46);}.cls-53{fill:url(#linear-gradient-47);}.cls-54{fill:url(#linear-gradient-48);}.cls-55{fill:url(#linear-gradient-49);}.cls-56{fill:url(#linear-gradient-50);}.cls-57{fill:url(#linear-gradient-51);}.cls-58{fill:url(#linear-gradient-52);}.cls-59{fill:url(#linear-gradient-53);}.cls-60{fill:url(#linear-gradient-54);}.cls-61{fill:url(#linear-gradient-55);}.cls-62{fill:url(#linear-gradient-56);}.cls-63{fill:url(#linear-gradient-57);}.cls-64{fill:url(#linear-gradient-58);}.cls-65{fill:url(#linear-gradient-59);}.cls-66{fill:url(#linear-gradient-60);}.cls-67{fill:url(#linear-gradient-61);}.cls-68{fill:url(#linear-gradient-62);}.cls-69{fill:url(#linear-gradient-63);}.cls-70{fill:url(#linear-gradient-64);}.cls-71{fill:url(#linear-gradient-65);}.cls-72{fill:url(#linear-gradient-66);}.cls-73{fill:url(#linear-gradient-67);}.cls-74{fill:url(#linear-gradient-68);}.cls-75{fill:url(#linear-gradient-69);}.cls-76{fill:url(#linear-gradient-70);}.cls-77{stroke-width:1.09px;}.cls-78{fill:url(#linear-gradient-71);}.cls-79{fill:url(#linear-gradient-72);}.cls-80{fill:url(#linear-gradient-73);}.cls-81{fill:url(#linear-gradient-74);}.cls-82{fill:url(#linear-gradient-75);}.cls-83{fill:url(#linear-gradient-76);}.cls-84{fill:url(#linear-gradient-77);}.cls-85{fill:url(#linear-gradient-78);}.cls-86{fill:url(#linear-gradient-79);}.cls-87{fill:url(#linear-gradient-80);}.cls-88{fill:url(#linear-gradient-81);}.cls-89{fill:url(#linear-gradient-82);}.cls-90{fill:url(#linear-gradient-83);}.cls-91{fill:url(#linear-gradient-84);}.cls-92{fill:url(#linear-gradient-85);}.cls-93{fill:url(#linear-gradient-86);}.cls-94{fill:url(#linear-gradient-87);}.cls-95{fill:url(#linear-gradient-88);}.cls-96{fill:url(#linear-gradient-89);}.cls-97{fill:url(#linear-gradient-90);}.cls-98{fill:url(#linear-gradient-91);}.cls-99{fill:url(#linear-gradient-92);}.cls-100{fill:url(#linear-gradient-93);}.cls-101{stroke:#009eb6;stroke-width:1.25px;}.cls-102{fill:#009eb6;}.cls-103{fill:#0098b0;}.cls-104{fill:url(#linear-gradient-94);}.cls-105{fill:#fff;}.cls-106{fill:#002d69;}</style><clipPath id="clip-path" transform="translate(-84.81 -30.2)"><path class="cls-1" d="M636.06,302.23s19.3-7.07,15.7-29.54,43.29-44.94-16.67-72-32.73-78-93.73-76.71-82.17,55.49-156.86,1.93S146.11-34,110.42,83.05s-36.11,150.7,11.73,181.41,69.92,50.37,65,98.92,25.14,117.12,99.74,90.42S345.63,343,430.21,390.06s91.92,26.25,114.25,13.58,37.08,4.36,45.8-28.36C604.91,320.34,600.07,316.4,636.06,302.23Z"/></clipPath><linearGradient id="linear-gradient" x1="-9068.74" y1="-1397.24" x2="-9069.75" y2="-1586.85" gradientTransform="matrix(-0.91, -0.41, -0.41, 0.91, -8541.5, -1826.27)" gradientUnits="userSpaceOnUse"><stop offset="0.01" stop-color="#0a98af"/><stop offset="0.42" stop-color="#009eb6"/><stop offset="1" stop-color="#002c68"/></linearGradient><linearGradient id="linear-gradient-2" x1="-9057.86" y1="-1595.74" x2="-8959.38" y2="-1595.74" xlink:href="#linear-gradient"/><linearGradient id="linear-gradient-3" x1="-9123" y1="-1602.12" x2="-9025.28" y2="-1602.12" xlink:href="#linear-gradient"/><linearGradient id="linear-gradient-4" x1="329.02" y1="299.64" x2="187.26" y2="358.52" gradientTransform="matrix(1, 0, 0, 1, 0, 0)" xlink:href="#linear-gradient"/><linearGradient id="linear-gradient-5" x1="-8313.14" y1="-4603.64" x2="-8055.83" y2="-4603.64" gradientTransform="matrix(-0.89, -0.45, -0.4, 0.8, -8633.14, 352.8)" xlink:href="#linear-gradient"/><linearGradient id="linear-gradient-6" x1="537.18" y1="333.68" x2="514.28" y2="419.82" gradientTransform="matrix(1, 0, 0, 1, 0, 0)" xlink:href="#linear-gradient"/><linearGradient id="linear-gradient-7" x1="-8308.3" y1="-4699.62" x2="-8057.32" y2="-4699.62" gradientTransform="matrix(-0.89, -0.45, -0.4, 0.78, -8645.73, 377.96)" xlink:href="#linear-gradient"/><linearGradient id="linear-gradient-8" x1="221.23" y1="378.36" x2="234.31" y2="533.74" gradientUnits="userSpaceOnUse"><stop offset="0.01" stop-color="#0098b0"/><stop offset="0.52" stop-color="#0a98af"/><stop offset="0.74" stop-color="#002c68"/></linearGradient><linearGradient id="linear-gradient-9" x1="262.09" y1="374.87" x2="275.18" y2="530.29" xlink:href="#linear-gradient-8"/><linearGradient id="linear-gradient-10" x1="222.05" y1="378.3" x2="235.14" y2="533.67" xlink:href="#linear-gradient-8"/><linearGradient id="linear-gradient-11" x1="272.53" y1="374.07" x2="285.61" y2="529.42" xlink:href="#linear-gradient-8"/><linearGradient id="linear-gradient-12" x1="224.66" y1="378.08" x2="237.75" y2="533.45" xlink:href="#linear-gradient-8"/><linearGradient id="linear-gradient-13" x1="278.2" y1="373.59" x2="291.29" y2="528.94" xlink:href="#linear-gradient-8"/><linearGradient id="linear-gradient-14" x1="230.08" y1="377.62" x2="243.16" y2="533" xlink:href="#linear-gradient-8"/><linearGradient id="linear-gradient-15" x1="279.38" y1="373.48" x2="292.47" y2="528.86" xlink:href="#linear-gradient-8"/><linearGradient id="linear-gradient-16" x1="232.09" y1="377.45" x2="245.18" y2="532.83" xlink:href="#linear-gradient-8"/><linearGradient id="linear-gradient-17" x1="279.19" y1="373.48" x2="292.28" y2="528.86" xlink:href="#linear-gradient-8"/><linearGradient id="linear-gradient-18" x1="233.52" y1="377.33" x2="246.61" y2="532.7" xlink:href="#linear-gradient-8"/><linearGradient id="linear-gradient-19" x1="278.06" y1="373.58" x2="291.14" y2="528.96" xlink:href="#linear-gradient-8"/><linearGradient id="linear-gradient-20" x1="236.53" y1="377.08" x2="249.61" y2="532.45" xlink:href="#linear-gradient-8"/><linearGradient id="linear-gradient-21" x1="276.72" y1="373.69" x2="289.8" y2="529.07" xlink:href="#linear-gradient-8"/><linearGradient id="linear-gradient-22" x1="235.39" y1="377.17" x2="248.47" y2="532.55" xlink:href="#linear-gradient-8"/><linearGradient id="linear-gradient-23" x1="275.12" y1="373.83" x2="288.2" y2="529.2" xlink:href="#linear-gradient-8"/><linearGradient id="linear-gradient-24" x1="234.61" y1="377.24" x2="247.69" y2="532.61" xlink:href="#linear-gradient-8"/><linearGradient id="linear-gradient-25" x1="270.59" y1="374.21" x2="283.68" y2="529.59" xlink:href="#linear-gradient-8"/><linearGradient id="linear-gradient-26" x1="232.2" y1="377.44" x2="245.29" y2="532.81" xlink:href="#linear-gradient-8"/><linearGradient id="linear-gradient-27" x1="265.76" y1="374.62" x2="278.84" y2="529.99" xlink:href="#linear-gradient-8"/><linearGradient id="linear-gradient-28" x1="230.11" y1="377.62" x2="243.2" y2="532.99" xlink:href="#linear-gradient-8"/><linearGradient id="linear-gradient-29" x1="259.64" y1="375.13" x2="272.72" y2="530.5" xlink:href="#linear-gradient-8"/><linearGradient id="linear-gradient-30" x1="229.77" y1="377.65" x2="242.85" y2="533.02" xlink:href="#linear-gradient-8"/><linearGradient id="linear-gradient-31" x1="252.42" y1="375.74" x2="265.51" y2="531.11" xlink:href="#linear-gradient-8"/><linearGradient id="linear-gradient-32" x1="227.16" y1="377.87" x2="240.24" y2="533.24" xlink:href="#linear-gradient-8"/><linearGradient id="linear-gradient-33" x1="245" y1="376.36" x2="258.08" y2="531.74" xlink:href="#linear-gradient-8"/><linearGradient id="linear-gradient-34" x1="224.85" y1="378.06" x2="237.93" y2="533.43" xlink:href="#linear-gradient-8"/><linearGradient id="linear-gradient-35" x1="237.61" y1="376.99" x2="250.69" y2="532.36" xlink:href="#linear-gradient-8"/><linearGradient id="linear-gradient-36" x1="223.53" y1="378.17" x2="236.62" y2="533.55" xlink:href="#linear-gradient-8"/><linearGradient id="linear-gradient-37" x1="225.8" y1="377.98" x2="238.88" y2="533.35" xlink:href="#linear-gradient-8"/><linearGradient id="linear-gradient-38" x1="241.58" y1="376.65" x2="254.66" y2="532.03" xlink:href="#linear-gradient-8"/><linearGradient id="linear-gradient-39" x1="134.28" y1="162.11" x2="121.19" y2="70.52" gradientUnits="userSpaceOnUse"><stop offset="0.01" stop-color="#002c68"/><stop offset="1" stop-color="#0098b0"/></linearGradient><linearGradient id="linear-gradient-40" x1="-12814.03" y1="2559.39" x2="-12762.76" y2="2652.61" gradientTransform="matrix(-0.94, 0.34, 0.34, 0.94, -12331.77, 2172.28)" xlink:href="#linear-gradient"/><linearGradient id="linear-gradient-41" x1="-12833.06" y1="2569.9" x2="-12781.8" y2="2663.1" gradientTransform="matrix(-0.94, 0.34, 0.34, 0.94, -12331.77, 2172.28)" xlink:href="#linear-gradient"/><linearGradient id="linear-gradient-42" x1="-12810.09" y1="2557.23" x2="-12758.82" y2="2650.44" gradientTransform="matrix(-0.94, 0.34, 0.34, 0.94, -12331.77, 2172.28)" xlink:href="#linear-gradient"/><linearGradient id="linear-gradient-43" x1="-12833.78" y1="2570.27" x2="-12782.52" y2="2663.48" gradientTransform="matrix(-0.94, 0.34, 0.34, 0.94, -12331.77, 2172.28)" xlink:href="#linear-gradient"/><linearGradient id="linear-gradient-44" x1="-12807.44" y1="2555.76" x2="-12756.17" y2="2648.98" gradientTransform="matrix(-0.94, 0.34, 0.34, 0.94, -12331.77, 2172.28)" xlink:href="#linear-gradient"/><linearGradient id="linear-gradient-45" x1="-12832.31" y1="2569.46" x2="-12781.05" y2="2662.67" gradientTransform="matrix(-0.94, 0.34, 0.34, 0.94, -12331.77, 2172.28)" xlink:href="#linear-gradient"/><linearGradient id="linear-gradient-46" x1="-12805.01" y1="2554.43" x2="-12753.74" y2="2647.64" gradientTransform="matrix(-0.94, 0.34, 0.34, 0.94, -12331.77, 2172.28)" xlink:href="#linear-gradient"/><linearGradient id="linear-gradient-47" x1="-12827.46" y1="2566.78" x2="-12776.19" y2="2660" gradientTransform="matrix(-0.94, 0.34, 0.34, 0.94, -12331.77, 2172.28)" xlink:href="#linear-gradient"/><linearGradient id="linear-gradient-48" x1="-12801.12" y1="2552.29" x2="-12749.85" y2="2645.51" gradientTransform="matrix(-0.94, 0.34, 0.34, 0.94, -12331.77, 2172.28)" xlink:href="#linear-gradient"/><linearGradient id="linear-gradient-49" x1="-12821.65" y1="2563.59" x2="-12770.38" y2="2656.8" gradientTransform="matrix(-0.94, 0.34, 0.34, 0.94, -12331.77, 2172.28)" xlink:href="#linear-gradient"/><linearGradient id="linear-gradient-50" x1="-12795.35" y1="2549.1" x2="-12744.08" y2="2642.33" gradientTransform="matrix(-0.94, 0.34, 0.34, 0.94, -12331.77, 2172.28)" xlink:href="#linear-gradient"/><linearGradient id="linear-gradient-51" x1="-12815.56" y1="2560.23" x2="-12764.29" y2="2653.45" gradientTransform="matrix(-0.94, 0.34, 0.34, 0.94, -12331.77, 2172.28)" xlink:href="#linear-gradient"/><linearGradient id="linear-gradient-52" x1="-12789.19" y1="2545.69" x2="-12737.9" y2="2638.93" gradientTransform="matrix(-0.94, 0.34, 0.34, 0.94, -12331.77, 2172.28)" xlink:href="#linear-gradient"/><linearGradient id="linear-gradient-53" x1="-12808.65" y1="2556.44" x2="-12757.38" y2="2649.65" gradientTransform="matrix(-0.94, 0.34, 0.34, 0.94, -12331.77, 2172.28)" xlink:href="#linear-gradient"/><linearGradient id="linear-gradient-54" x1="-12782.32" y1="2541.94" x2="-12731.04" y2="2635.16" gradientTransform="matrix(-0.94, 0.34, 0.34, 0.94, -12331.77, 2172.28)" xlink:href="#linear-gradient"/><linearGradient id="linear-gradient-55" x1="-12801.34" y1="2552.42" x2="-12750.07" y2="2645.63" gradientTransform="matrix(-0.94, 0.34, 0.34, 0.94, -12331.77, 2172.28)" xlink:href="#linear-gradient"/><linearGradient id="linear-gradient-56" x1="-12775.1" y1="2537.99" x2="-12723.83" y2="2631.19" gradientTransform="matrix(-0.94, 0.34, 0.34, 0.94, -12331.77, 2172.28)" xlink:href="#linear-gradient"/><linearGradient id="linear-gradient-57" x1="-12792.93" y1="2547.79" x2="-12741.66" y2="2641" gradientTransform="matrix(-0.94, 0.34, 0.34, 0.94, -12331.77, 2172.28)" xlink:href="#linear-gradient"/><linearGradient id="linear-gradient-58" x1="-12766.75" y1="2533.37" x2="-12715.48" y2="2626.61" gradientTransform="matrix(-0.94, 0.34, 0.34, 0.94, -12331.77, 2172.28)" xlink:href="#linear-gradient"/><linearGradient id="linear-gradient-59" x1="-12782.91" y1="2542.28" x2="-12731.64" y2="2635.49" gradientTransform="matrix(-0.94, 0.34, 0.34, 0.94, -12331.77, 2172.28)" xlink:href="#linear-gradient"/><linearGradient id="linear-gradient-60" x1="-12757.87" y1="2528.49" x2="-12706.59" y2="2621.72" gradientTransform="matrix(-0.94, 0.34, 0.34, 0.94, -12331.77, 2172.28)" xlink:href="#linear-gradient"/><linearGradient id="linear-gradient-61" x1="-12771.82" y1="2536.18" x2="-12720.55" y2="2629.39" gradientTransform="matrix(-0.94, 0.34, 0.34, 0.94, -12331.77, 2172.28)" xlink:href="#linear-gradient"/><linearGradient id="linear-gradient-62" x1="-12750.84" y1="2524.62" x2="-12699.56" y2="2617.86" gradientTransform="matrix(-0.94, 0.34, 0.34, 0.94, -12331.77, 2172.28)" xlink:href="#linear-gradient"/><linearGradient id="linear-gradient-63" x1="-12758.78" y1="2529.01" x2="-12707.51" y2="2622.22" gradientTransform="matrix(-0.94, 0.34, 0.34, 0.94, -12331.77, 2172.28)" xlink:href="#linear-gradient"/><linearGradient id="linear-gradient-64" x1="-12740.59" y1="2519" x2="-12689.32" y2="2612.22" gradientTransform="matrix(-0.94, 0.34, 0.34, 0.94, -12331.77, 2172.28)" xlink:href="#linear-gradient"/><linearGradient id="linear-gradient-65" x1="-12744.69" y1="2521.26" x2="-12693.43" y2="2614.47" gradientTransform="matrix(-0.94, 0.34, 0.34, 0.94, -12331.77, 2172.28)" xlink:href="#linear-gradient"/><linearGradient id="linear-gradient-66" x1="-12732.25" y1="2514.42" x2="-12680.99" y2="2607.63" gradientTransform="matrix(-0.94, 0.34, 0.34, 0.94, -12331.77, 2172.28)" xlink:href="#linear-gradient"/><linearGradient id="linear-gradient-67" x1="-12731.32" y1="2513.9" x2="-12680.05" y2="2607.12" gradientTransform="matrix(-0.94, 0.34, 0.34, 0.94, -12331.77, 2172.28)" xlink:href="#linear-gradient"/><linearGradient id="linear-gradient-68" x1="-12722.94" y1="2509.29" x2="-12671.67" y2="2602.51" gradientTransform="matrix(-0.94, 0.34, 0.34, 0.94, -12331.77, 2172.28)" xlink:href="#linear-gradient"/><linearGradient id="linear-gradient-69" x1="-12718.53" y1="2506.86" x2="-12667.26" y2="2600.08" gradientTransform="matrix(-0.94, 0.34, 0.34, 0.94, -12331.77, 2172.28)" xlink:href="#linear-gradient"/><linearGradient id="linear-gradient-70" x1="-12777.42" y1="2539.26" x2="-12726.15" y2="2632.47" gradientTransform="matrix(-0.94, 0.34, 0.34, 0.94, -12331.77, 2172.28)" xlink:href="#linear-gradient"/><linearGradient id="linear-gradient-71" x1="1126.1" y1="8787.5" x2="1166.81" y2="8947.8" gradientTransform="translate(-8298.54 -1906.91) rotate(-68.65)" xlink:href="#linear-gradient-8"/><linearGradient id="linear-gradient-72" x1="1134.22" y1="8785.43" x2="1174.93" y2="8945.73" gradientTransform="translate(-8298.54 -1906.91) rotate(-68.65)" xlink:href="#linear-gradient-8"/><linearGradient id="linear-gradient-73" x1="1133.18" y1="8785.7" x2="1173.88" y2="8945.96" gradientTransform="translate(-8298.54 -1906.91) rotate(-68.65)" xlink:href="#linear-gradient-8"/><linearGradient id="linear-gradient-74" x1="1129.86" y1="8786.54" x2="1170.57" y2="8946.83" gradientTransform="translate(-8298.54 -1906.91) rotate(-68.65)" xlink:href="#linear-gradient-8"/><linearGradient id="linear-gradient-75" x1="1127.27" y1="8787.2" x2="1167.98" y2="8947.49" gradientTransform="translate(-8298.54 -1906.91) rotate(-68.65)" xlink:href="#linear-gradient-8"/><linearGradient id="linear-gradient-76" x1="1117.04" y1="8789.79" x2="1157.75" y2="8950.1" gradientTransform="translate(-8298.54 -1906.91) rotate(-68.65)" xlink:href="#linear-gradient-8"/><linearGradient id="linear-gradient-77" x1="1122.88" y1="8788.31" x2="1163.59" y2="8948.59" gradientTransform="translate(-8298.54 -1906.91) rotate(-68.65)" xlink:href="#linear-gradient-8"/><linearGradient id="linear-gradient-78" x1="1120.12" y1="8789.01" x2="1160.84" y2="8949.34" gradientTransform="translate(-8298.54 -1906.91) rotate(-68.65)" xlink:href="#linear-gradient-8"/><linearGradient id="linear-gradient-79" x1="1127.24" y1="8787.21" x2="1167.95" y2="8947.5" gradientTransform="translate(-8298.54 -1906.91) rotate(-68.65)" xlink:href="#linear-gradient-8"/><linearGradient id="linear-gradient-80" x1="1123.88" y1="8788.05" x2="1164.59" y2="8948.38" gradientTransform="translate(-8298.54 -1906.91) rotate(-68.65)" xlink:href="#linear-gradient-8"/><linearGradient id="linear-gradient-81" x1="1123.93" y1="8788.05" x2="1164.64" y2="8948.33" gradientTransform="translate(-8298.54 -1906.91) rotate(-68.65)" xlink:href="#linear-gradient-8"/><linearGradient id="linear-gradient-82" x1="1118.95" y1="8789.32" x2="1159.66" y2="8949.59" gradientTransform="translate(-8298.54 -1906.91) rotate(-68.65)" xlink:href="#linear-gradient-8"/><linearGradient id="linear-gradient-83" x1="1122.5" y1="8788.42" x2="1163.2" y2="8948.7" gradientTransform="translate(-8298.54 -1906.91) rotate(-68.65)" xlink:href="#linear-gradient-8"/><linearGradient id="linear-gradient-84" x1="1116.77" y1="8789.88" x2="1157.47" y2="8950.13" gradientTransform="translate(-8298.54 -1906.91) rotate(-68.65)" xlink:href="#linear-gradient-8"/><linearGradient id="linear-gradient-85" x1="1116.65" y1="8789.9" x2="1157.36" y2="8950.18" gradientTransform="translate(-8298.54 -1906.91) rotate(-68.65)" xlink:href="#linear-gradient-8"/><linearGradient id="linear-gradient-86" x1="1156.56" y1="8779.76" x2="1197.28" y2="8940.06" gradientTransform="translate(-8298.54 -1906.91) rotate(-68.65)" xlink:href="#linear-gradient-8"/><linearGradient id="linear-gradient-87" x1="1127.27" y1="8787.2" x2="1167.98" y2="8947.5" gradientTransform="translate(-8298.54 -1906.91) rotate(-68.65)" xlink:href="#linear-gradient-8"/><linearGradient id="linear-gradient-88" x1="1124.99" y1="8787.78" x2="1165.7" y2="8948.07" gradientTransform="translate(-8298.54 -1906.91) rotate(-68.65)" xlink:href="#linear-gradient-8"/><linearGradient id="linear-gradient-89" x1="1135.95" y1="8784.99" x2="1176.67" y2="8945.3" gradientTransform="translate(-8298.54 -1906.91) rotate(-68.65)" xlink:href="#linear-gradient-8"/><linearGradient id="linear-gradient-90" x1="1120.23" y1="8788.98" x2="1160.94" y2="8949.29" gradientTransform="translate(-8298.54 -1906.91) rotate(-68.65)" xlink:href="#linear-gradient-8"/><linearGradient id="linear-gradient-91" x1="1118.73" y1="8789.37" x2="1159.44" y2="8949.67" gradientTransform="translate(-8298.54 -1906.91) rotate(-68.65)" xlink:href="#linear-gradient-8"/><linearGradient id="linear-gradient-92" x1="1125.07" y1="8787.75" x2="1165.79" y2="8948.08" gradientTransform="translate(-8298.54 -1906.91) rotate(-68.65)" xlink:href="#linear-gradient-8"/><linearGradient id="linear-gradient-93" x1="1101.49" y1="-1103.65" x2="1168" y2="-1015.32" gradientTransform="translate(-889.14 1059.45) rotate(18.1)" xlink:href="#linear-gradient-8"/><linearGradient id="linear-gradient-94" x1="939.13" y1="-450.12" x2="633.58" y2="-472.17" gradientTransform="matrix(0.97, 0.02, 0.02, 0.92, -287.72, 538.55)" xlink:href="#linear-gradient-39"/></defs><path class="cls-1" d="M636.06,302.23s19.3-7.07,15.7-29.54,43.29-44.94-16.67-72-32.73-78-93.73-76.71-82.17,55.49-156.86,1.93S146.11-34,110.42,83.05s-36.11,150.7,11.73,181.41,69.92,50.37,65,98.92,25.14,117.12,99.74,90.42S345.63,343,430.21,390.06s91.92,26.25,114.25,13.58,37.08,4.36,45.8-28.36C604.91,320.34,600.07,316.4,636.06,302.23Z" transform="translate(-84.81 -30.2)"/><g class="cls-2"><path class="cls-3" d="M343.33,493.61s-7.94,20.36-8.76,38.58.11,21.23.11,21.23l8.5,5.19s-3.78-18-1.35-32.38a301.53,301.53,0,0,1,6.84-32.16,27.11,27.11,0,0,0-.31-15.49Z" transform="translate(-84.81 -30.2)"/><path class="cls-4" d="M348.33,483.57s-6.21,23.62-20.22,24-31.72-4-39-16.64-9.57-23.65,1.56-12,22.9,10.77,25.07,10.45,15.28-3.76,11-10.49-8.16-6-13.11-5-21.48,9.25-29.26-.86S270,433.89,276.9,438.55s24.24,20.27,32.77,22.13,15.69,4.87,18.51-6.48c2.16-8.73-12-7.87-14-8.31s-21.76-.27-27.29-9.89-6.52-28-3.47-44.4,8.29-10.29,11.64,3.33,20.14,41.46,31,43.31,18.43-4.92,13.11-11.87-26.05-12-34.37-23.26-13.23-27.34-9.1-39.06,13.67-24.1,15.49-13.18,14,49.06,21.82,55.49,15.87,3.2,16.58-.06-.56-8.28-9.28-14.12-22-19.78-20.25-32.55,13.34-43.1,16.9-30.49,1.49,24.51,2.46,29.72,5.94,29.43,12.42,31.1,13-7.69,6.27-13.09-17.78-21-14.33-36.78,13.07-33.43,15.33-18.48,2.92,26.4,3.69,31.3,3.32,14.92,6.08,7.11a31.05,31.05,0,0,0-.73-22c-2.56-6.34-2.58-17.12,4.6-21.08s16.74-6.87,18.94-8.49S350.2,477.4,348.33,483.57Z" transform="translate(-84.81 -30.2)"/><path class="cls-5" d="M347.71,481.59s-4.92,25,4.88,29.46,26.21,11.23,43.28-3.18,21.49-17.76,23.48-22.06,2.2-6.88-6.6-5.11-19.69,8.32-28.67,6.89-16.9-9.29-8.2-15.46,11-1.29,21.48,1.18,19.9,6.79,26.57-6.12A101.91,101.91,0,0,0,433.37,440c.77-3.51.79-8.41-5.49-3s-24.69,21.61-36.26,22.42-18.42-7.17-7.63-13.23,19.75-3.76,27.89-6.54,23.9-10.74,25.67-27.71-.1-29.29-7.84-18.71-20.92,34.88-30.86,38.67-21.87,3.82-19.37-2.82,5-9.25,16.32-11.34,22.41-11.94,27.5-20.82S432.55,373,431,366.37s-3.58-14.1-9.38-5.2-19.29,39.44-30.76,44.65-17,2.26-11-7.65S397,384,403.77,378s15.36-14.18,14.87-24.8-.57-23.09-5.79-14.41S400.62,360.27,395,369.21s-7.76,9.88-9.46,8.81-4.61-7,6-20.26S406.37,340.32,406,334.1s-13.93-22.16-14.22-25.63S347.71,481.59,347.71,481.59Z" transform="translate(-84.81 -30.2)"/><path class="cls-6" d="M256.48,418.72c.07-1.61-7.75-4.89-10.75-7s-20.73-11-35.18-17.44c-8.19-3.68-14.43-4.62-18.3-4.76q1.17-2.6,2.17-4.72c3.52.61,9.69,2.79,15.23,4.81,7.44,2.72,20.79,4,31.68,5.35s24.82,1.24,28.8,1.48,1.78-1.3-1.35-2.61-18.14-5-26.07-7.49-24.6-4.21-30.36-4.59c-4.27-.28-12.75.45-16.89.86,1.54-3.19,2.67-5.45,3.31-7,.34-.81.89-2,1.58-3.37a37.18,37.18,0,0,0,5.31,1.56c4.88,1,13.16,3.7,17.07,4.11s13,.76,20.87,1.42,26.37.46,31.32-.12,1.32-1.69-1.71-2.76-13.72-3.32-23.34-5.73-28.83-1.9-34.37-1.37c-3.8.37-10.3.56-14,.64l1.79-3.46.39-.11c3.8-1.27,10.41-.94,12.68-1s17.36-.46,24.88-.36,28,.52,31,.15,3.28-1.48,1.64-2-4.63-1.13-8.92-2.12-18.62-3.33-25-3.34-18.59,1-24.15,2.52c-4.26,1.19-8.9,2.45-10.84,3,1.14-2.15,2.36-4.42,3.61-6.71.19,0,.38,0,.59,0,4.68.1,19.65-1.66,23.33-2s11.51-.55,18.95-1.13c8.87-.68,24.49-4.49,29-6s1-1.91-2-2.38A176.15,176.15,0,0,0,256,343.92c-10.75.11-27,3.54-32,5.1-3.5,1.08-9.61,2.5-13,3.27,1.07-2,2.13-3.88,3.14-5.72,2.72-.92,6.85-2.27,10.1-3.15,5.31-1.45,19.59-3.44,28.44-4,11.19-.68,27.11-1.28,29.08-2.08s5-1.44-2.63-4c-6.87-2.28-17.63-3.26-24.4-2.7-4.29.36-21.43,2.85-27,5.41-4.33,2-8.5,4.78-11.27,6.32,1-1.75,1.86-3.33,2.62-4.67,4.81-1.28,13.29-4.77,21.5-7.9,10.71-4.08,25-14.22,30.5-17.63s6.5-5.24,3.86-4.3-5.28,1.87-11.45,4.38-20.17,9.09-28.33,13.43a165.07,165.07,0,0,0-14.34,9c.2-.35.38-.66.52-.88a9.31,9.31,0,0,0,.66-1.36c5.55-3.51,15.13-10.33,21.31-16.38,7.29-7.16,18.08-17.74,24.46-26.1s1.3-4.56.09-3.63a68.32,68.32,0,0,0-12.4,9.09c-7.26,6.55-21.9,20-28.51,27.45l-.2.23c.92-1.41,1.77-2.82,2.46-4.12,3.5-6.55,12.44-22.39,17.81-30.29s8.05-16.14,11.71-22-1-2.94-2.24-1.59a275.94,275.94,0,0,0-18.9,20.33c-10,11.88-12.12,20.9-15.51,32.3-2.11,7.07-3.49,12.09-4.24,14.87-.75,1.41-1.65,3.11-2.72,5.09a59.15,59.15,0,0,0,1.7-13.52c-.27-6.65-.59-20.48-1-29.23s-5.6-23.61-8.68-31.86-5.94-4.33-4.9-1.44,3.66,26.27,3.89,33.51S209.86,326,211,332c.74,3.84,1.44,7.58,1.84,9.78l-1.93,3.55c-.17-2.39-1.78-6.71-3.85-14.17-2.43-8.79-4.82-22.06-7.1-32.21s-7.16-26.72-11.56-33.27-2.84.44-2.42,2.86,3.48,24.77,4.63,29.34,10.16,32.68,14,40.44a89.87,89.87,0,0,1,4.47,10.25c-.91,1.66-1.88,3.42-2.9,5.26-.32-3.84-2.86-9.38-4.86-13-2.21-4-8.81-20.87-13.07-29.2s-11.26-26.19-15.62-33.34-2.37,3.71-1.43,7.78,7.65,29,13.16,42.11,14.82,22.59,17.35,26.3a13.29,13.29,0,0,1,1.89,4c-1,1.8-2,3.66-3.14,5.61-1.43-2.36-4.32-7.39-7.53-12.07-3.55-5.17-14.12-24.74-15.72-27.25s-13-21.19-17.29-27.91-5.62-8.5-4.58-1.72,9.17,27.76,15.46,36.13,19.23,26.68,24,30.93a15.27,15.27,0,0,1,3.95,5l-2.52,4.46c-.55.05-1.18-.22-2-1.28-1.85-2.41-8.76-11.24-12-16.27s-15.49-18.57-20.56-25S146,311.15,141.59,306s-1.44,6.34.52,10.44,11.69,19.83,17.5,25.95,22,24.39,27.84,28.06a18.45,18.45,0,0,1,6.19,5.86c-1.16,2.2-2.31,4.48-3.44,6.82A64.39,64.39,0,0,0,180.92,370c-5.28-5.9-20.82-23.88-25.88-28.87s-8.06-7.06-18.79-17.5-8.09-3.61-7.11-1.56a117,117,0,0,0,13,19.16c6.69,7.91,27.13,27.34,36.08,33.76A42.73,42.73,0,0,1,189,385.7c-.68,1.44-1.35,2.92-2,4.4-2.32-2.49-8-7-10.81-10.26-4.38-5.11-19.06-16.39-25.55-21.37S136.17,348.11,126,341.18s-3.15,2.15-1.65,4.41,12.68,13.1,18.89,20.2,19.89,14.91,30.2,20.06c9.59,4.79,12.48,5.71,12.84,5.81-.24.52-.47,1-.7,1.58-.55.56-2.8,2.1-8.79-1.28-7.1-4-21.56-9.47-29-12.61a121.05,121.05,0,0,0-25.38-7.2c-6.39-.85-7.79-.42-2,2.83s15.83,9.52,23.93,12.11,21.1,6.21,27.22,8.17,9.86,2.31,12.36,1.72l.11,0c-.34.79-.67,1.59-1,2.4-3.6-1.47-11-.79-19.51-.52-9.94.32-23.47,3.82-27.75,4.27s-1.87,1,6.15,2.39,22,.66,29.09-.65a64.57,64.57,0,0,0,11-3.1,648.05,648.05,0,0,0-21.09,62s5.85,3.49,8.44-6.47c7.28-28,14.19-47.09,19.54-60,1.34,1.59,2.68,4.22,4.86,7.31,3.08,4.36,15.15,20.06,17.45,22.66,2.67,3,9.32,7,14.26,8.86s2.06-2,.56-4.26S217.25,421.64,213.9,417s-13.31-14-17.61-17.42a19.16,19.16,0,0,0-7-3.2c.6-1.42,1.17-2.76,1.73-4,.65.2,1.32.38,2,.53,3.34.79,7.82,4.72,12.32,7.63s19.63,12,24,13.79c8.36,3.44,14.31,4.85,19.61,5.38C253.22,420.06,256.42,420.33,256.48,418.72Z" transform="translate(-84.81 -30.2)"/><path class="cls-7" d="M547.71,441.87a29.53,29.53,0,0,0,2.45-6.83,65.71,65.71,0,0,1-19.58,15.69A73.83,73.83,0,0,1,517,456.39c-.94-1.3-1.78-2.55-2.5-3.73-1.5-2.43-3.62-5.4-6.16-8.7a35,35,0,0,0,17.56-9.91,42.49,42.49,0,0,1-21.23,5.25c-9.76-12.15-23.17-27.24-31.73-37.9,9.21-2.56,16.8-8.09,20.94-16.24.38-.74.71-1.49,1-2.25-6.1,7.46-15.73,11.77-26.59,12.49l-.56-.78c-3.43-4.82-8.39-11-13.63-17.5a29.7,29.7,0,0,1,3.94-5.34,33.26,33.26,0,0,0-5.24,3.72c-4.12-5.15-8.34-10.47-12.06-15.51,11.32-1.49,21-7,26.22-16.06-8.58,6.11-20.53,8.38-32.94,6.24a53.66,53.66,0,0,1-3.44-6.38c-5.82-13.32-3.2-47.69-.91-47.1,5.88,1.5,10.49-4.21,38.4-3.87a97.32,97.32,0,0,1,18.2,2c2.36,8.78,1.61,19.13-2.69,29a49.35,49.35,0,0,0,7.69-11.12,48.66,48.66,0,0,0,4.88-15.39,140.25,140.25,0,0,1,25,10.45,38,38,0,0,1-4.28,19.38c-.52,1-1.08,2-1.67,3a38.39,38.39,0,0,0,11.77-14,39,39,0,0,0,1.82-4.11c5.29,3.12,10.46,6.48,15.5,10a99.5,99.5,0,0,1,14.4,12.87l-1,.78c-1.89,1.54-3.68,3.12-5.35,4.71a48.32,48.32,0,0,1,8.67-3c4.2,4.57,8.58,9.73,13,15.3-2.51,5.3-7.07,11.31-13.2,17.12a83.2,83.2,0,0,0,17.91-11.13c5.29,6.86,10.66,14.19,16,21.68a79.6,79.6,0,0,1-15,8.75c4.66.53,11.08-1.06,18.08-4.4,7.68,11,15.14,22.22,21.94,32.68a61.29,61.29,0,0,1-17.53,7.22c4.05,2.5,11.66,1.38,20.54-2.57l3.58,5.57C650,464.68,613,490,613,490s-42,6.4-55.68,2.85c-7.89-2-27.16-19.6-38-33.31C531.83,458.23,542.5,452.13,547.71,441.87Z" transform="translate(-84.81 -30.2)"/><path class="cls-8" d="M613,490s-42,6.4-55.68,2.85c-7.89-2-27.16-19.6-38-33.31,12.5-1.27,23.17-7.37,28.38-17.63a29.53,29.53,0,0,0,2.45-6.83,65.71,65.71,0,0,1-19.58,15.69A73.83,73.83,0,0,1,517,456.39c-.94-1.3-1.78-2.55-2.5-3.73-1.5-2.43-3.62-5.4-6.16-8.7a35,35,0,0,0,17.56-9.91,42.49,42.49,0,0,1-21.23,5.25c-9.76-12.15-23.17-27.24-31.73-37.9,9.21-2.56,16.8-8.09,20.94-16.24.38-.74.71-1.49,1-2.25-6.1,7.46-15.73,11.77-26.59,12.49l-.56-.78c-3.43-4.82-8.39-11-13.63-17.5a29.7,29.7,0,0,1,3.94-5.34,33.26,33.26,0,0,0-5.24,3.72c-4.12-5.15-8.34-10.47-12.06-15.51,11.32-1.49,21-7,26.22-16.06-8.58,6.11-20.53,8.38-32.94,6.24a53.66,53.66,0,0,1-3.44-6.38c-5.51-12.61-3.46-44.08-1.28-46.9,85.57,58.83,150.11,127.24,184.36,192.6Z" transform="translate(-84.81 -30.2)"/><path class="cls-9" d="M610.2,489.09c-34.52-64.66-88.26-126.84-181.08-191.78a2.43,2.43,0,0,1,.31-.61C515.08,355.34,578.71,424.15,613.23,489,612.81,489.26,612.39,488.8,610.2,489.09Z" transform="translate(-84.81 -30.2)"/><path class="cls-10" d="M256,576.41c0-.06-11.24-15.9-20.82-21.06-6.72-3.68-17.7-6-17.71-6a32.47,32.47,0,0,0,8.13,8.29C231.08,561.53,250.75,572,256,576.41Z" transform="translate(-84.81 -30.2)"/><path class="cls-11" d="M256.42,573.67s8.39-.83,16.25-1,13.35-.23,19.86.25a85.69,85.69,0,0,1,8.74.94s-9.6,4.77-19.54,4.4S259.47,575.27,256.42,573.67Z" transform="translate(-84.81 -30.2)"/><path class="cls-12" d="M259.78,561c0-.08-13.94-15.09-20.9-18.8-8.47-4.61-23.22-8.23-26.13-9.16,0,0,8.45,6.18,16.85,12C237.81,550.74,252.88,559.9,259.78,561Z" transform="translate(-84.81 -30.2)"/><path class="cls-13" d="M261.54,560s2-.62,7.09-2,19.09-5.17,24.84-5.93,17.87-.26,22,0c1.6.1-8.43,3.84-15.23,5.59-5.11,1.38-12.72,3.33-18.4,3.34-2.62,0-15.16-1-19.47,1.05S261.55,560,261.54,560Z" transform="translate(-84.81 -30.2)"/><path class="cls-14" d="M262,551.38s-8-12.22-13.69-16.41a81.28,81.28,0,0,0-20.16-11.07c-7.74-2.85-14.43-5.23-14.43-5.24a91.42,91.42,0,0,0,12.06,10.66c6.07,4.24,11.34,8.64,19.27,12.65S262,551.37,262,551.38Z" transform="translate(-84.81 -30.2)"/><path class="cls-15" d="M263.59,548c1.4-1.74,3.16-3.26,9.42-4.88s19.77-6.78,28.14-7.74,20.4-2.57,20.9-2.82-13.42,8.77-23.47,10.87a187,187,0,0,1-23.1,3.13c-5.53.48-10.85,1.51-12.91,3.33A9,9,0,0,1,263.59,548Z" transform="translate(-84.81 -30.2)"/><path class="cls-16" d="M263.7,536.24s-2.24-5-9.9-11.4-14.42-11.74-18.33-14-13.65-5.57-14.79-6.22,4.22,6.59,6.51,8.73,7.43,6,15.25,9.94S261.21,534.13,263.7,536.24Z" transform="translate(-84.81 -30.2)"/><path class="cls-17" d="M264.31,535.35c2.79-1.59,10-3.83,14.18-5.33s8.65-1.49,22.56-8.5c12.18-6.23,18.34-13.77,18.35-13.76s-2.32.8-10.73,2.68-18.48,8.73-27.9,13.4a98.56,98.56,0,0,0-14.95,9Z" transform="translate(-84.81 -30.2)"/><path class="cls-18" d="M267.3,523.46c0-.05-10.56-12.48-16.28-17.83s-9.51-9.71-18.73-11.48a88.91,88.91,0,0,1-13.57-3.44,154.56,154.56,0,0,0,13.58,10.71c6.62,4.47,15.82,10.86,19.45,12.75S265.33,523.83,267.3,523.46Z" transform="translate(-84.81 -30.2)"/><path class="cls-19" d="M266,515.48c2.69-2.61,5.81-4.85,13-9.18,6.79-4.09,14.36-9,18.69-10.82s18.09-7.79,18.35-8c.42-.11-6.7,10-13.2,13.57S291,508.24,281,510.77s-14.6,5.52-16.12,8.25S265.34,516.11,266,515.48Z" transform="translate(-84.81 -30.2)"/><path class="cls-20" d="M265.1,507.08s-4.61-5.75-9.7-7.74-15.94-9.35-18.91-11.87-15.79-12.32-16.3-13.19,5.95,2.42,11.92,4,13.47,6.55,18.78,11.16,13.84,13.86,14.69,15.39A1.64,1.64,0,0,1,265.1,507.08Z" transform="translate(-84.81 -30.2)"/><path class="cls-21" d="M266.12,500.54s6.1-4.74,11.46-8.75,15-9.71,17.21-11.65c2.4-1.87,15-8.64,15-9.18s-4.33,8.75-11.94,15-14,9.05-20.63,11.61-10.52,4.84-11.4,6.57S266.13,500.54,266.12,500.54Z" transform="translate(-84.81 -30.2)"/><path class="cls-22" d="M264,484.54s-9.31-9.58-14.18-13.08-9.89-8-14.56-10.16l-11.61-5.44a97.48,97.48,0,0,0,10.57,11.68c5,4.39,10.75,9.32,17.74,13.33a108.8,108.8,0,0,0,13.47,6.49Z" transform="translate(-84.81 -30.2)"/><path class="cls-23" d="M266,483.44c.09,0,9.95-9,15-13.39,5.22-4.3,13.67-10.87,17.41-13.07a51.79,51.79,0,0,0,6.81-4.7c.24.06-10.22,16.09-17.72,20.34C280.43,477,267,485,265.22,489S266.05,483.45,266,483.44Z" transform="translate(-84.81 -30.2)"/><path class="cls-24" d="M262.59,468.72s-9.32-10.43-12.45-13.48-10-7.36-14.29-8.58-13.83-4.6-15.07-5.94,3.38,6.1,9,9.84,14.16,8.75,21.13,13,10.61,5.67,12.17,9.69S262.6,468.72,262.59,468.72Z" transform="translate(-84.81 -30.2)"/><path class="cls-25" d="M263.86,467.05s5-5.93,9.11-9.79,10.59-8.49,13.38-11.08,13.4-9.81,13.6-10.75c.38-.89-5.15,12.68-13.12,18.61-7.8,6-14.33,8.85-17.34,11.26s-5.89,5.2-5.89,5.19C263.69,469.35,263.78,468.2,263.86,467.05Z" transform="translate(-84.81 -30.2)"/><path class="cls-26" d="M259.33,451s-7.7-8.39-14.09-12.53S228.9,432,225.41,431a26.27,26.27,0,0,0-5.64-1A103.23,103.23,0,0,0,230,438.25c5.76,4,14.59,7.22,18.71,8.62s10.63,5.55,11.41,7.09S259.33,451,259.33,451Z" transform="translate(-84.81 -30.2)"/><path class="cls-27" d="M261,451.6s5.59-8.4,10.52-13.12,9-9.55,11.54-11.61,8.18-8.42,8.14-8.44-1.74,8.82-7,15.27c-3.66,4.9-17.62,14.86-21.95,19C259,456.14,261,451.6,261,451.6Z" transform="translate(-84.81 -30.2)"/><path class="cls-28" d="M256.41,437.38s-6.09-9.89-14.38-14.33a64.42,64.42,0,0,0-18.24-6.14,35.52,35.52,0,0,1-8.53-2.19s3.78,4.58,7.4,6.74,10,5.59,15.69,8.17,17.16,6.45,18.74,10.05S256.41,437.37,256.41,437.38Z" transform="translate(-84.81 -30.2)"/><path class="cls-29" d="M256.2,435.35s2.67-3.85,5-7.52,6.85-11.35,10.16-14.8c3.53-3.39,11.51-13,11.51-13.79.22-.76-2,11.87-5.62,17.34-3.35,5.52-12.31,13.6-16.84,17.45S255.3,436.7,256.2,435.35Z" transform="translate(-84.81 -30.2)"/><path class="cls-30" d="M252.57,422.19s-9.74-11.22-15.11-14.42a70.61,70.61,0,0,0-17.64-7.45,45.3,45.3,0,0,0-7.55-1.62c-.05,0,8.31,7.94,13.09,10.63s9.47,5.6,15,7.73,11.61,5,13,8.65S252.58,422.18,252.57,422.19Z" transform="translate(-84.81 -30.2)"/><path class="cls-31" d="M253.31,422.76s1.18-3.57,2.84-10,3.52-14.23,4.89-17.37c1.61-3.09,9.45-14,9.42-14.45.22-.4.82,13.65-1.85,19.68-3,7.17-7.66,11.63-11.46,18.78s-3.55,7.59-3.51,7.6C253.54,425.61,253.43,424.19,253.31,422.76Z" transform="translate(-84.81 -30.2)"/><path class="cls-32" d="M248.21,408.68a56.31,56.31,0,0,0-10.15-10.84c-6.83-5.79-10.82-8.95-15-10.41a100.56,100.56,0,0,0-10.33-2.71,47.32,47.32,0,0,0,7.54,7.66c3.63,2.66,11.75,7.38,16.94,10.44s10.56,6.49,12.72,10.69S248.22,408.67,248.21,408.68Z" transform="translate(-84.81 -30.2)"/><path class="cls-33" d="M247.76,406.49a43,43,0,0,1,1.31-16.09c2.32-7.83,2.34-11.77,3.9-14.54a122,122,0,0,0,5.7-12.82c.2,0,.91,18.34-1.71,24.65-2.32,6.33-6.69,11.86-8.42,19.23C247.63,410.72,247.76,406.49,247.76,406.49Z" transform="translate(-84.81 -30.2)"/><path class="cls-34" d="M243.52,393.55a103.24,103.24,0,0,0-9.7-10.51,53.18,53.18,0,0,0-14.41-9.5c-6.15-2.65-8.86-3.48-8.88-3.49a24.46,24.46,0,0,0,8.22,10.1c6.36,4.75,12.58,7.49,15.82,9.57s8.09,4.68,9.6,6.65S243.52,393.54,243.52,393.55Z" transform="translate(-84.81 -30.2)"/><path class="cls-35" d="M241.24,384.58c.13,0,1.17-14.4.64-19.87-.34-7.82,4-17.42,4-18.58.21-1.15,3.21,15.35,2.17,20.83-.32,3.07-3.54,14.73-4.64,19.29S241.34,388.33,241.24,384.58Z" transform="translate(-84.81 -30.2)"/><path class="cls-36" d="M238.4,379.55s-4.06-4.48-7.79-8.22-10.5-9.87-13.59-11-8.58-2.53-8.57-2.52a18,18,0,0,0,6.29,8.69,103.72,103.72,0,0,0,13.56,8.61c3.77,1.92,10,5.7,11.37,8.37S238.4,379.55,238.4,379.55Z" transform="translate(-84.81 -30.2)"/><path class="cls-37" d="M235.13,369.76a98.32,98.32,0,0,1-1.25-11.07c-.26-5.62-.82-12.28-1.1-16.5s.06-10.8,0-10.8,4.1,11,4.62,17.18c.72,6.15-1,18.06-1,23.81C236.58,377.28,235.14,369.75,235.13,369.76Z" transform="translate(-84.81 -30.2)"/><path class="cls-38" d="M233.15,367a62.23,62.23,0,0,1-6.56-9.5c-2-4-7.54-10.68-11-12.71s-7.72-4.61-7.72-4.61,3.21,5.18,5.2,7.74a85.51,85.51,0,0,0,9.5,10.72c5.27,5.12,11.52,11.17,12.62,12.6S233.15,367,233.15,367Z" transform="translate(-84.81 -30.2)"/><path class="cls-39" d="M232.5,363.27s-.65-2.34-2.15-8.23-5.2-16-6.93-18.84-9.68-11.63-10.12-12.57,4,11.23,5.37,14.86,2.67,8.24,4.8,11.42,8.39,13.17,8.84,15S232.51,363.27,232.5,363.27Z" transform="translate(-84.81 -30.2)"/><path class="cls-40" d="M248,602.59c.18.08,12-26.19,16-46.65,5.33-21.48,4-63.88,2.29-74.92-.86-11.33-10.09-49.82-12.65-58.78-2.48-11-12.84-40.49-18.07-52.74A95.57,95.57,0,0,0,229,356.84c-.17-.64,3.1,8.65,4.27,11.59s6.57,17.11,9.57,25.37,7,22.52,8.7,28.59c1.89,5.94,9.66,38.67,11.47,58.58,1.89,9,.27,61.87-5.4,78.94-3.5,13.22-9.09,23.62-12.42,28.18S244.58,601,248,602.59Z" transform="translate(-84.81 -30.2)"/><path class="cls-41" d="M259.81,429.49c-5.54,18.06-2.52,36.43,6.61,49.74,15-5.9,27.81-19.44,33.35-37.5s2.52-36.44-6.61-49.74C278.14,397.89,265.35,411.42,259.81,429.49Z" transform="translate(-84.81 -30.2)"/><line class="cls-42" x1="206" y1="368.59" x2="182.38" y2="445.64"/><line class="cls-43" x1="201.21" y1="384.51" x2="212.39" y2="378.57"/><line class="cls-43" x1="197.18" y1="397.64" x2="210.97" y2="390.33"/><line class="cls-43" x1="193.15" y1="410.78" x2="216.2" y2="398.55"/><line class="cls-43" x1="189.13" y1="423.92" x2="211.55" y2="412.02"/><line class="cls-43" x1="185.1" y1="437.06" x2="197.58" y2="430.43"/><line class="cls-43" x1="201.49" y1="382.86" x2="195.56" y2="371.68"/><line class="cls-43" x1="197.47" y1="396" x2="188.21" y2="378.56"/><line class="cls-43" x1="193.44" y1="409.14" x2="181.86" y2="387.31"/><line class="cls-43" x1="189.41" y1="422.27" x2="177.51" y2="399.86"/><line class="cls-43" x1="185.39" y1="435.41" x2="175.16" y2="416.15"/></g><path class="cls-1" d="M438.71,121.35c.9-2.5-.38-3.53-2.49-4.56s-5.11-2-8.07-3.49-5.44-2.8-8.15-3.37a14.2,14.2,0,0,0-8.92,1.06c-3.15,1.44-5.84,4.27-5.94,8s2.22,8,7.64,10.4,12,1.88,16.88-.18S437.82,123.67,438.71,121.35Z" transform="translate(-84.81 -30.2)"/><path class="cls-44" d="M607.6,189.47c-41.89-29.34-18.15-57-73.55-55.91-59.77,1.21-81.82,43.89-155-7.39C306.85,75.6,149.81-24.16,112,80.69,141.5,39.23,219.36,59,259,94.56,324.22,153,395.81,201,481.3,194.78s131.83-11.06,131.83,21.31C613.13,216.09,619.77,198,607.6,189.47Z" transform="translate(-84.81 -30.2)"/><circle class="cls-45" cx="129.72" cy="130.2" r="45.79"/><path class="cls-46" d="M565.46,369.66c.08-.06-6.7-11.47-12.25-13.87-3.78-1.75-9.56-1.4-9.56-1.4a22,22,0,0,0,5.19,5.44C552.09,362.06,562.68,367,565.46,369.66Z" transform="translate(-84.81 -30.2)"/><path class="cls-47" d="M565.45,367.17s4-2.54,7.86-4.38a66.51,66.51,0,0,1,9.82-4.1,25.41,25.41,0,0,1,4.4-1.08s-4.57,6.26-9.45,8.1S567.06,367.91,565.45,367.17Z" transform="translate(-84.81 -30.2)"/><path class="cls-48" d="M566,355.4c.07-.08-8.66-10.14-12.92-11.81-5-2.14-13.18-2-14.84-2.19,0,0,5.57,3.46,10.69,6.69S562.49,355.92,566,355.4Z" transform="translate(-84.81 -30.2)"/><path class="cls-49" d="M566.75,354.14s.94-1,3.31-3.26,9.06-8.69,11.94-10.62,9.15-4.16,11.32-4.88c.83-.27-4,5.23-7.35,8.26-2.49,2.33-6.16,5.7-9,6.95-1.32.58-7.67,2.43-9.59,5.15S566.76,354.14,566.75,354.14Z" transform="translate(-84.81 -30.2)"/><path class="cls-50" d="M566,346.49s-5.66-8.88-9.38-11.25a32.31,32.31,0,0,0-12.55-5.08c-4.63-.73-8.69-1.27-8.69-1.27a71.53,71.53,0,0,0,8.65,6.44c4,2.3,7.47,4.95,12.11,6.69A96.47,96.47,0,0,1,566,346.49Z" transform="translate(-84.81 -30.2)"/><path class="cls-51" d="M566.36,343.22c.48-1.82,1.15-3.53,4.14-6.31s9.29-10.3,13.6-13,10.51-6.83,10.76-7.17-6.19,10.73-11.15,14.79a85.85,85.85,0,0,1-11.51,7.84c-2.75,1.64-5.31,3.7-6.11,5.74A12.5,12.5,0,0,1,566.36,343.22Z" transform="translate(-84.81 -30.2)"/><path class="cls-52" d="M564.71,333a24.23,24.23,0,0,0-7.14-7.68c-5.23-3.82-10.1-6.85-12.75-7.89s-8.74-1.64-9.54-1.92,4.07,4.6,5.77,5.92a39.92,39.92,0,0,0,10.28,5.09C556.25,328.11,563.12,331.66,564.71,333Z" transform="translate(-84.81 -30.2)"/><path class="cls-53" d="M564.88,332c1.18-2,4.59-5.54,6.54-7.78s4.27-3.21,10.7-12.49a63.42,63.42,0,0,0,8-16.29s-1.19,1.24-5.55,4.84-8.7,11.88-12.92,18.06a78.32,78.32,0,0,0-6.36,11.18C565.14,330.39,565,331.22,564.88,332Z" transform="translate(-84.81 -30.2)"/><path class="cls-54" d="M564.41,321.07c0-.05-8-8.42-12.47-11.66s-7.68-6.06-13.31-5.41a39.29,39.29,0,0,1-8.57.27s5.79,3.54,10.62,5.84,11.28,5.63,13.61,6.45S563.47,321.82,564.41,321.07Z" transform="translate(-84.81 -30.2)"/><path class="cls-55" d="M562.18,314.46c.92-2.85,2.13-5.49,5.19-10.88,2.9-5.1,6.17-11.15,8.28-13.75s8.88-11.11,9-11.34-2,10.36-5,15-5.29,9-10.25,13.47-6.82,8.1-7.1,10.8S562,315.15,562.18,314.46Z" transform="translate(-84.81 -30.2)"/><path class="cls-56" d="M559.94,307.43s-3.79-3.88-7.12-4.39-11.32-4.23-13.79-5.63-12.93-6.46-13.62-7,4.32.54,8.26.39,9.81,2.22,14.05,4.87,11.22,8.57,12,9.7A2,2,0,0,1,559.94,307.43Z" transform="translate(-84.81 -30.2)"/><path class="cls-57" d="M559,301.58s2.29-5.48,4.42-10.19,6.41-12,7.3-14.19,7-11.2,6.93-11.7-.76,8.74-3.87,16a53.53,53.53,0,0,1-9.26,14.93c-3.16,3.75-4.77,6.62-4.87,8.3S559.06,301.58,559,301.58Z" transform="translate(-84.81 -30.2)"/><path class="cls-58" d="M553.88,288.43s-8-5.9-12-7.59-8.46-4.17-12.07-4.77-9.1-1.46-9.1-1.46a123.67,123.67,0,0,0,10.62,6.84c4.49,2.36,9.41,5.06,14.6,6.76a59.06,59.06,0,0,0,9.5,2.27Z" transform="translate(-84.81 -30.2)"/><path class="cls-59" d="M554.78,287s3.42-10.07,5.33-15.08,5.53-12.79,7.33-15.67a45.39,45.39,0,0,0,3.13-5.87c.13,0-2.53,16.65-5.92,22.13-3.16,5.57-8.92,15.57-8.9,19.39S554.82,287,554.78,287Z" transform="translate(-84.81 -30.2)"/><path class="cls-60" d="M548.72,275.37c0-.05-8.75-6.42-11.79-8.09s-8.82-3.42-12-3.27-10.64,0-12-.68,4.72,3.87,9.65,5.42,12,3.43,17.56,5.22,8.13,2.09,10.2,5.1S548.74,275.36,548.72,275.37Z" transform="translate(-84.81 -30.2)"/><path class="cls-61" d="M549,273.64s1.29-6.24,2.74-10.58,4.22-10,5.29-12.93,6-12.07,5.93-13-.09,12.42-3.48,19.56-6.43,11.23-7.57,14-2.07,5.86-2.07,5.86Q549.42,275.13,549,273.64Z" transform="translate(-84.81 -30.2)"/><path class="cls-62" d="M541.28,261.33s-7.58-4.95-13.32-6.52-13.27-.61-16-.37a16.49,16.49,0,0,0-4.21.82s4.85,2,10.21,3.58,12.17,1.85,15.27,1.91,8.58,1.77,9.54,2.86S541.29,261.32,541.28,261.33Z" transform="translate(-84.81 -30.2)"/><path class="cls-63" d="M542.55,261.42s.84-8.47,2.62-13.8,3-10.56,4.11-13a90.48,90.48,0,0,0,3.09-9.59s1.3,8.12-.28,15.06c-1.06,5.24-7,17.4-8.37,22C542.7,265.74,542.55,261.42,542.55,261.42Z" transform="translate(-84.81 -30.2)"/><path class="cls-64" d="M534.9,250.87s-7.4-6.46-14.88-7.56a44.63,44.63,0,0,0-15.23.62,28.73,28.73,0,0,1-7,.94,41.41,41.41,0,0,0,8.22,2.91c3.44.59,9.28,1.41,14.08,1.86s13.84.38,16.06,2.94S534.91,250.86,534.9,250.87Z" transform="translate(-84.81 -30.2)"/><path class="cls-65" d="M534.06,249.26s.43-3.91.78-7.62.81-11.39,2-15.3,4.07-14.54,3.87-15.25,2.18,10.79,1.4,16.46-4.06,15-5.72,19.44S534,250.61,534.06,249.26Z" transform="translate(-84.81 -30.2)"/><path class="cls-66" d="M526.94,239.52c0-.06-11-6.18-16.26-6.94a54.38,54.38,0,0,0-16.26,0,40.16,40.16,0,0,0-6.46,1.32S498,237,502.58,237.62s9.2,1.39,13.95,1.4,10,.52,12.26,3.13S527,239.51,526.94,239.52Z" transform="translate(-84.81 -30.2)"/><path class="cls-67" d="M527.65,239.78s-.48-3.25-1.63-9-2.64-12.75-2.73-15.79,2.31-14.85,2.2-15.26,5.14,11.25,5.23,17.13c.22,6.94-1.53,12.05-1.61,19s.3,7.24.32,7.24C528.85,242,528.25,240.9,527.65,239.78Z" transform="translate(-84.81 -30.2)"/><path class="cls-68" d="M518.81,229.93a43.79,43.79,0,0,0-11.8-5.34c-7.55-2.26-12.13-3.22-16.09-2.82a86.56,86.56,0,0,0-9.49,1.74,64.83,64.83,0,0,0,9.61,3c4.08.7,12.31,1.57,17.38,2.31s10.31,1.78,13.42,4.52S518.83,229.9,518.81,229.93Z" transform="translate(-84.81 -30.2)"/><path class="cls-69" d="M517.63,228.31A41.77,41.77,0,0,1,512.36,215c-1.25-7.09-2.7-10.32-2.5-13.14s.06-12.74,0-12.74c.14-.06,7.18,14.94,7.52,21,.53,6-.63,11.9,1,18.35C519.17,231.74,517.63,228.31,517.63,228.31Z" transform="translate(-84.81 -30.2)"/><path class="cls-70" d="M509.37,219.37a71.76,71.76,0,0,0-11.89-4.83,46.23,46.23,0,0,0-16-1.78,91.73,91.73,0,0,0-9.16,1,30,30,0,0,0,11.75,4.15c7.42,1.12,13.44,1.05,16.84,1.53s8.15.89,10.07,1.95S509.38,219.36,509.37,219.37Z" transform="translate(-84.81 -30.2)"/><path class="cls-71" d="M504,213.07c.09,0-4.93-11.8-7.53-16-3.49-6-3.28-15.74-3.66-16.73-.23-1.05,8.46,11.26,9.7,16.09.87,2.65,2.86,13.19,3.88,17.16S505.59,216,504,213.07Z" transform="translate(-84.81 -30.2)"/><path class="cls-72" d="M499.65,210.15s-5.11-2-9.85-3.43-13.32-3.24-16.63-2.71-8.84,1.91-8.84,1.92a21,21,0,0,0,9.84,3.54c6,.6,11.41,1,15.38,1s10.6.63,12.73,2.27S499.66,210.13,499.65,210.15Z" transform="translate(-84.81 -30.2)"/><path class="cls-73" d="M492.87,203.74a85.29,85.29,0,0,1-5.73-8.12c-2.57-4.28-5.83-9.27-7.77-12.49s-4.18-8.69-4.2-8.69,8.09,6.94,11,11.65,6.47,14.72,8.94,19.17C497.23,209,492.89,203.72,492.87,203.74Z" transform="translate(-84.81 -30.2)"/><path class="cls-74" d="M490,202.37a77.11,77.11,0,0,1-9.76-4.58c-3.46-2.22-11.53-4.75-15.75-4.55s-9.55.45-9.55.46,5.63,2.08,8.68,3,6.6,2.08,13.6,3.64a139.81,139.81,0,0,1,16.3,4.49C495.06,205.54,490,202.35,490,202.37Z" transform="translate(-84.81 -30.2)"/><path class="cls-75" d="M487.9,199.75s-1.55-1.55-5.39-5.46-11.52-10-14.41-11.35-14.5-3.88-15.42-4.28,8.93,6.32,11.88,8.39,6.21,4.91,9.56,6.35,13.21,6.42,14.33,7.72S487.91,199.75,487.9,199.75Z" transform="translate(-84.81 -30.2)"/><path class="cls-76" d="M562.55,394.27c.2,0,5.5-25.49,5-44.25.91-20-8.78-56.31-13.21-65.17-2.93-9.62-21.09-39.28-26.6-45.62-5.41-8.43-24.76-28.59-34.55-35.9a70.24,70.24,0,0,0-11.09-7.08c-.42-.43,6.44,5.34,8.65,7.18s12.67,10.78,18.21,16.36c5.72,5.42,14,15.72,17.34,20.2,3.75,4.12,20.07,29,26.09,45.62a192.28,192.28,0,0,1,8.68,31.13c2.92,14.39,4,30.22,3.71,38.15a114.79,114.79,0,0,1-3.89,27.32C559.55,386.9,560.94,393.62,562.55,394.27Z" transform="translate(-84.81 -30.2)"/><path class="cls-41" d="M176.81,326.4s-27.26,3.82-33.25-6-2.18-20.17-5.45-30.53-10.91-5.45-7.09-21.26-12-35.44,4.36-33.8,13.08,15.81,27.81,15.81,13.62,9.81,13.62,18,5.46,7.09,13.64,10.36,12.53,17.44,3.81,29.44S176.81,326.4,176.81,326.4Z" transform="translate(-84.81 -30.2)"/><path class="cls-77" d="M196.26,420.72c-28.26-32.35-8.82-65.22-16-88.51-7.81-25.35-22.19-73.79-50.34-96.86" transform="translate(-84.81 -30.2)"/><path class="cls-77" d="M150.78,245s.41,11.31-.68,13.76" transform="translate(-84.81 -30.2)"/><path class="cls-77" d="M159,250.34s.27,11.18-3,18.27" transform="translate(-84.81 -30.2)"/><path class="cls-77" d="M168.64,251.71s5.45,19.62-5.82,32.71" transform="translate(-84.81 -30.2)"/><path class="cls-77" d="M179.4,275.7s-.68,14-11.13,21.44" transform="translate(-84.81 -30.2)"/><path class="cls-77" d="M172.32,308.13c15.54-14.44,14.85-30,14.85-30" transform="translate(-84.81 -30.2)"/><path class="cls-77" d="M195.49,284.15s1.36,19.08-19.58,34.07" transform="translate(-84.81 -30.2)"/><path class="cls-77" d="M128.43,241.62s10.13,12.18,18.49,12.9" transform="translate(-84.81 -30.2)"/><path class="cls-77" d="M132.29,263s12.22,13.68,26.81,12.18" transform="translate(-84.81 -30.2)"/><path class="cls-77" d="M130.88,272.83s9.82,17,34.12,16.31" transform="translate(-84.81 -30.2)"/><path class="cls-77" d="M138.51,288.51s14.5,9.36,29.76,6.09" transform="translate(-84.81 -30.2)"/><path class="cls-77" d="M140.42,300.64s17.31,11.77,31.13,5.59" transform="translate(-84.81 -30.2)"/><path class="cls-77" d="M141.1,312.5s15,12.67,35.17,7.9" transform="translate(-84.81 -30.2)"/><path class="cls-78" d="M387.18,255.92c-56.6,10-95.88-18.17-96.27-18.45l.64-.88c.39.28,39.32,28.19,95.44,18.25Z" transform="translate(-84.81 -30.2)"/><path class="cls-79" d="M292.36,238a11.73,11.73,0,0,1-6.26-2.25c-1-.78-2.1-2.88-1.37-3.8s2.57-.67,4,.47A11.81,11.81,0,0,1,292.36,238Z" transform="translate(-84.81 -30.2)"/><path class="cls-80" d="M297.63,240.93a11,11,0,0,1-3.44-4.93c-.34-1.1-.14-3.23.82-3.53s2.18.85,2.68,2.45A11,11,0,0,1,297.63,240.93Z" transform="translate(-84.81 -30.2)"/><path class="cls-81" d="M307,245.11a8.3,8.3,0,0,1-2.56-4.55c-.13-1,.49-2.73,1.54-2.88s2.06,1,2.26,2.36A8.3,8.3,0,0,1,307,245.11Z" transform="translate(-84.81 -30.2)"/><path class="cls-82" d="M297.48,240.45a8.25,8.25,0,0,1-3.26,4c-.84.47-2.7.55-3.22-.36s.13-2.26,1.35-3A8.23,8.23,0,0,1,297.48,240.45Z" transform="translate(-84.81 -30.2)"/><path class="cls-83" d="M359.31,257.66a9.71,9.71,0,0,1-1.7,5.28c-.63.85-2.35,1.83-3.14,1.25s-.63-2.13.28-3.36A9.8,9.8,0,0,1,359.31,257.66Z" transform="translate(-84.81 -30.2)"/><path class="cls-84" d="M306.71,245.68a11,11,0,0,1-4.15,4.63c-1,.58-3.23.81-3.77-.14s.33-2.46,1.82-3.31A11,11,0,0,1,306.71,245.68Z" transform="translate(-84.81 -30.2)"/><path class="cls-85" d="M316.75,250.05a8.25,8.25,0,0,1-3.33,4.58c-.9.51-3,.47-3.6-.65a2.65,2.65,0,0,1,1.29-3.42A8.33,8.33,0,0,1,316.75,250.05Z" transform="translate(-84.81 -30.2)"/><path class="cls-86" d="M316.85,249.22a8.83,8.83,0,0,1-3.66-4.41c-.31-1,.1-3.05,1.27-3.41s2.51.64,3,2.12A8.8,8.8,0,0,1,316.85,249.22Z" transform="translate(-84.81 -30.2)"/><path class="cls-87" d="M359.76,257.37a8.81,8.81,0,0,1-4.87-2.65c-.78-.83-1.69-3-1.16-3.8s2-.47,3.1.75A14.12,14.12,0,0,1,359.76,257.37Z" transform="translate(-84.81 -30.2)"/><path class="cls-88" d="M337.25,255.26a7.44,7.44,0,0,1-1.76-4.28c-.1-1,.29-3,1-3.45s1.4.54,1.54,2A15.31,15.31,0,0,1,337.25,255.26Z" transform="translate(-84.81 -30.2)"/><path class="cls-89" d="M327.51,253.4a6.4,6.4,0,0,1-3.08,2.85c-.82.37-2.69.57-3.25,0s0-1.46,1.22-2A12.53,12.53,0,0,1,327.51,253.4Z" transform="translate(-84.81 -30.2)"/><path class="cls-90" d="M349.07,256.58a12.35,12.35,0,0,1-5.24-2.33c-.68-.62-1-2.05,0-2.49a3.9,3.9,0,0,1,3.7.91A4.66,4.66,0,0,1,349.07,256.58Z" transform="translate(-84.81 -30.2)"/><path class="cls-91" d="M337.69,255.09a16.63,16.63,0,0,1-3.57,6c-.86.8-2.64,1.29-3,.18s.4-3,1.64-4.21A7,7,0,0,1,337.69,255.09Z" transform="translate(-84.81 -30.2)"/><path class="cls-92" d="M349.48,257.07a14.52,14.52,0,0,1-3.37,5.54c-.8.7-2.46,1-2.81-.15a4.43,4.43,0,0,1,1.56-3.95A5.76,5.76,0,0,1,349.48,257.07Z" transform="translate(-84.81 -30.2)"/><path class="cls-93" d="M312.21,210.7a9.71,9.71,0,0,1-1.7,5.28c-.63.85-2.35,1.83-3.14,1.25s-.63-2.13.28-3.36A9.8,9.8,0,0,1,312.21,210.7Z" transform="translate(-84.81 -30.2)"/><path class="cls-94" d="M379.49,256.3a8.84,8.84,0,0,1-4.87-2.64c-.78-.84-1.69-3-1.15-3.81s2-.46,3.1.75A14,14,0,0,1,379.49,256.3Z" transform="translate(-84.81 -30.2)"/><path class="cls-95" d="M369.73,257.37a7.32,7.32,0,0,1-3.71-2.76c-.6-.81-1.31-2.79-.91-3.5s1.49-.26,2.36.91A15.38,15.38,0,0,1,369.73,257.37Z" transform="translate(-84.81 -30.2)"/><path class="cls-96" d="M328.82,240.74a12.65,12.65,0,0,1-3.88-3.93c-.43-.81-.4-2.25.56-2.31a3.8,3.8,0,0,1,2.9,2.11A5.18,5.18,0,0,1,328.82,240.74Z" transform="translate(-84.81 -30.2)"/><path class="cls-97" d="M379.88,256.45a16.65,16.65,0,0,1-2.78,6.45c-.75.9-2.45,1.61-3,.56s0-3.06,1.09-4.38A7,7,0,0,1,379.88,256.45Z" transform="translate(-84.81 -30.2)"/><path class="cls-98" d="M370,257.47a13.23,13.23,0,0,1-2.53,5.57c-.67.72-2.2,1.08-2.66,0a4.2,4.2,0,0,1,1-3.94A5.06,5.06,0,0,1,370,257.47Z" transform="translate(-84.81 -30.2)"/><path class="cls-99" d="M328.25,253.22a11.12,11.12,0,0,1-3.75-4.48c-.53-1.11-.93-3.51-.31-4.11s1.8.34,2.57,2A18.13,18.13,0,0,1,328.25,253.22Z" transform="translate(-84.81 -30.2)"/><path class="cls-100" d="M488.13,396.09l-9.23,8.46A130.86,130.86,0,0,1,455,388.64a105.78,105.78,0,0,1,16.2-21.35c31.43-32,98.91-10.34,107.27,47.9-17.58,7.86-43.53,8.72-71.3.69a154.42,154.42,0,0,1-20.64-7.6Z" transform="translate(-84.81 -30.2)"/><path class="cls-101" d="M455,388.64S526,354.32,578.51,415.19" transform="translate(-84.81 -30.2)"/><line class="cls-101" x1="381.98" y1="341.87" x2="393.54" y2="351.29"/><line class="cls-101" x1="392.88" y1="331.88" x2="410.05" y2="348.95"/><line class="cls-101" x1="406.21" y1="325.21" x2="426.76" y2="349.18"/><line class="cls-101" x1="424.02" y1="322.37" x2="442.11" y2="351.99"/><line class="cls-101" x1="440.49" y1="324.73" x2="454.79" y2="356.02"/><line class="cls-101" x1="458.85" y1="332.35" x2="470.17" y2="364.32"/><line class="cls-101" x1="474.91" y1="345.19" x2="483.34" y2="374.45"/><line class="cls-101" x1="382.98" y1="367.72" x2="393.02" y2="351.09"/><line class="cls-101" x1="410.05" y1="348.95" x2="392.81" y2="373.68"/><line class="cls-101" x1="426.76" y1="349.18" x2="408.04" y2="380.58"/><line class="cls-101" x1="442.11" y1="351.99" x2="424.12" y2="386.24"/><line class="cls-101" x1="454.79" y1="356.02" x2="438.68" y2="389.41"/><line class="cls-101" x1="470.17" y1="364.32" x2="455.96" y2="391.28"/><line class="cls-101" x1="483.34" y1="374.45" x2="472.95" y2="390.34"/><path class="cls-102" d="M616.65,229.39a14.4,14.4,0,0,1-7.89-6.83c-1-1.91-1.52-6.31-.18-7.44s3.39.47,4.78,3.16A37.58,37.58,0,0,1,616.65,229.39Z" transform="translate(-84.81 -30.2)"/><path class="cls-102" d="M623.26,236.33s-3.37-4.28-3.25-9.11c0-1.74,1.4-4.38,2.91-4s2.69,2.76,2.77,5.18A13.36,13.36,0,0,1,623.26,236.33Z" transform="translate(-84.81 -30.2)"/><path class="cls-102" d="M631,244.57s-2.39-4.6-1.11-8.56c.45-1.43,2.53-3.2,4.11-2.43s2.38,3.1,1.86,5.15A9.87,9.87,0,0,1,631,244.57Z" transform="translate(-84.81 -30.2)"/><path class="cls-102" d="M621.94,237.29a10,10,0,0,1-6.66,3.27c-1.5.09-4.43-1.18-4.77-2.84s1.26-2.91,3.38-2.91C617.89,234.84,621.92,237.31,621.94,237.29Z" transform="translate(-84.81 -30.2)"/><path class="cls-102" d="M630,245.45a10.26,10.26,0,0,1-6.46,4c-1.55.26-4.77-.67-5.37-2.29s.91-3.08,3.11-3.32C625.45,243.45,630,245.47,630,245.45Z" transform="translate(-84.81 -30.2)"/><path class="cls-102" d="M642.24,254.84a6.94,6.94,0,0,1-4.26,4.23c-1.2.39-4.06-.06-5-1.44s0-2.86,1.69-3.33C638,253.46,642.22,254.87,642.24,254.84Z" transform="translate(-84.81 -30.2)"/><path class="cls-102" d="M643.16,253.65s-2.78-2.84-2.82-6.13c0-1.18,1-3,2.33-2.85s2.4,1.77,2.5,3.44A8.05,8.05,0,0,1,643.16,253.65Z" transform="translate(-84.81 -30.2)"/><path class="cls-102" d="M654.47,261.16c-32.08-14.7-43.94-41.49-44.16-41.06l.35-.39c.22-.43,12.06,26.41,44.17,41.08Z" transform="translate(-84.81 -30.2)"/><polygon class="cls-103" points="32.85 142.94 31.62 140.69 29.38 139.46 31.62 138.24 32.85 135.99 34.08 138.24 36.32 139.46 34.08 140.69 32.85 142.94"/><polygon class="cls-103" points="19.07 128.4 18.51 127.39 17.5 126.84 18.51 126.29 19.07 125.28 19.62 126.29 20.63 126.84 19.62 127.39 19.07 128.4"/><polygon class="cls-103" points="54.02 134.09 54.74 131.64 54.02 129.18 56.48 129.9 58.93 129.18 58.21 131.64 58.93 134.09 56.48 133.38 54.02 134.09"/><polygon class="cls-103" points="30.11 159.47 30.44 158.36 30.11 157.26 31.22 157.58 32.32 157.26 32 158.36 32.32 159.47 31.22 159.14 30.11 159.47"/><polygon class="cls-103" points="133.37 197.41 133.69 196.3 133.37 195.2 134.47 195.52 135.57 195.2 135.25 196.3 135.57 197.41 134.47 197.08 133.37 197.41"/><polygon class="cls-44" points="350.03 216.19 351.07 218.52 353.21 219.93 350.88 220.97 349.47 223.11 348.43 220.78 346.29 219.37 348.63 218.33 350.03 216.19"/><polygon class="cls-44" points="362.61 231.77 363.08 232.82 364.04 233.45 362.99 233.92 362.36 234.88 361.89 233.83 360.93 233.2 361.98 232.73 362.61 231.77"/><polygon class="cls-44" points="328.22 223.31 327.31 225.71 327.83 228.21 325.44 227.3 322.93 227.82 323.84 225.43 323.32 222.92 325.71 223.84 328.22 223.31"/><polygon class="cls-44" points="354.07 199.93 353.66 201 353.9 202.13 352.82 201.72 351.7 201.95 352.11 200.88 351.87 199.75 352.95 200.16 354.07 199.93"/><polygon class="cls-44" points="254.17 153.88 253.76 154.96 253.99 156.08 252.92 155.67 251.79 155.91 252.2 154.83 251.97 153.71 253.04 154.12 254.17 153.88"/><path class="cls-104" d="M595.71,166.47s-4.38-45.66-50.16-47.79-117.09,30.25-138.8,27.95c-23.36-2.47-18.21-24.28-18.21-24.28s-9.9,21.28,17.91,28.12c14,3.44,108.34-24.52,130.38-26C572.44,122.13,588.1,149.12,595.71,166.47Z" transform="translate(-84.81 -30.2)"/><path class="cls-105" d="M627.29,324.21s-35.74,32-57,25.59-34.72-24.86-33.1-33.9,7.74-26,12.84-21.83c6.4,5.22,21.83,7.42,29.57,2.6,3.93-2.45,10.82-6.67,12.77-16.72.74-3.77,12.38,1,10.05,10.24-.82,3.32-.83,11.48,1.24,15.89C608.93,317.21,613.3,316.34,627.29,324.21Z" transform="translate(-84.81 -30.2)"/><path class="cls-105" d="M608.25,219a61.63,61.63,0,0,0-3.67,7.91c-7.14,18.75,24.57,16,6.35,45.93a94,94,0,0,0-8.07,22.92c-1.75,8,2.09,19.71,2.09,19.71-4.92,13.11-55.88,7.36-53.8,6s20.23-9.76,31-20.86c7.47-7.73,8.78-16.88,8.28-24A25.27,25.27,0,0,0,579,260.25a3.53,3.53,0,0,1-1.69-2.27,22.19,22.19,0,0,1,2.35-6.08l12.64-22.09A21.77,21.77,0,0,1,608.25,219Z" transform="translate(-84.81 -30.2)"/><path class="cls-105" d="M620,322.23c.52-3.15,3.56-8.64,11-5.92,7.83,2.84,13,10,14.06,29.64A203.66,203.66,0,0,0,653.23,392c3,10.85-10.84,31.85-18.63,19s-12.2-45.06-12.88-53.86S619.69,324.26,620,322.23Z" transform="translate(-84.81 -30.2)"/><path class="cls-105" d="M550.92,290.73s17.28,66.73,9.48,108.4c-5.5,29.46-16.15,9.52-24.89,6.61,0,0,.51-3.73.51-17.45,0-22.74-.79-43.62-2.72-56.23-3-20-3-32.53,1-37.27S541.77,287.34,550.92,290.73Z" transform="translate(-84.81 -30.2)"/><path class="cls-105" d="M539.06,397.78s-.67-5.42-8.13,25.41-12.19,84-20,94.17-10.5,4.06-9.15,5.42c4.81,4.81,6.78,9.48,11.86,8.47s16.26-21.34,27.78-56.57,18.63-59.29,16.59-70.13S540.08,395.07,539.06,397.78Z" transform="translate(-84.81 -30.2)"/><path class="cls-105" d="M524.5,516.68s-5.09,12.54-8.13,13.55-11.18,0-16.26-1.69-8.81-4.07-11.52-4.4-18,4.52-22.36,4.74c-4.63.23-6,.23-8.47-.68s-1.58-2.71-1.58-2.71,2.15-.22,8.81-1.57c9.37-1.91,22.36-8.35,25.74-10.17,5.88-3.16,6.3-3.63,9.72-2.26a92.59,92.59,0,0,0,14,3.84A53.49,53.49,0,0,0,524.5,516.68Z" transform="translate(-84.81 -30.2)"/><path class="cls-105" d="M519.64,526.17s-2.13,6-11.06,9.26c-6.56,2.37-7.66,1.92-11.07,1.81a21.93,21.93,0,0,1-4.52-.45s-.56-2.94,3.62-3.39c2.34-.26,6.77-3.16,4.74-4.52S519.64,526.17,519.64,526.17Z" transform="translate(-84.81 -30.2)"/><path class="cls-41" d="M624.77,465.87s6.78-25.75,7.12-40.32-1.36-40.31-1-41.32,9.82-7.46,9.15-14.23-9.49-24.73-11.18-30.15-1.7-24.39-1.7-24.39-15.58,3.72-34.22-3-42-21.68-42-21.68-12.53,1.35-3,57.93,12.41,59.93,12.87,76.56c.68,24.39-14.22,51.83-15.58,72.49S620,473.32,624.77,465.87Z" transform="translate(-84.81 -30.2)"/><path class="cls-106" d="M612.23,462.82c26.72-10.76,44-9.82,107.73-3.05,14.6,1.56,44.25,3.57,58.95,11.86,13.21,7.45,16.92,27-49.2,40C669.3,523.53,591.33,529.16,571.25,513S586.16,473.32,612.23,462.82Z" transform="translate(-84.81 -30.2)"/><path class="cls-105" d="M626.13,537.69s-2.71,1.69-4.07.67-5.08-5.42-11.18-2-7.79,7.45-13.55,7.79-20-2-24.05,1.36-10.5,15.92-8.81,24.73,4.41,9.82,7.12,5.76,5.08-6.44,6.43-7.11,16.6-6.44,21.68-9.15a133.37,133.37,0,0,1,14.23-6.44c2-.68,13.21-2.71,14.22-2.71S626.13,537.69,626.13,537.69Z" transform="translate(-84.81 -30.2)"/><path class="cls-41" d="M573.28,545.48c4.07-3.39,18.29-1,24.05-1.36s7.45-4.4,13.55-7.79c4.82-2.68,8.18-1.11,11.22,1.93a5.72,5.72,0,0,0-1.84-.4c-3.36.4-10.66,6.25-16,8.47-5.76,2.4-16.31,4.31-20.86,7.43-2.9,2-4.32,8.87-4.64,14.76-.35.15-.63.27-.76.34-1.35.67-3.72,3-6.43,7.11s-5.43,3-7.12-5.76S569.22,548.87,573.28,545.48Z" transform="translate(-84.81 -30.2)"/><path class="cls-1" d="M624.77,552.25S722.13,532.68,744,524.14s56.23-14.23,47.36-38.05c-8-21.6-32.31-24.12-64.2-10.77s-32.28,14.26-56,28.83C641,522.71,623.42,538.7,623.42,538.7Z" transform="translate(-84.81 -30.2)"/><path class="cls-105" d="M747.06,528.2s2.38,2.37.68,5.08-5.08,4.74-4.4,8.13,1.36,4.07,5.08,6.78,10.16,6.1,13.89,13.88,8.81,15.25,18,16.61,16.26.67,20.67-1.36,2-4.4-1-5.76A32.33,32.33,0,0,1,786,560.05c-4.4-6.78-9.14-12.54-12.19-18s-6.78-11.18-9.83-16.6S747.06,524.47,747.06,528.2Z" transform="translate(-84.81 -30.2)"/><path class="cls-41" d="M759.43,547.69c6,6.18,9.32,13,18,16.6,4.48,1.85,10.31,1.94,12.59.54a34.31,34.31,0,0,0,9.94,6.73c3.05,1.36,5.42,3.73,1,5.76s-11.52,2.71-20.67,1.36-14.22-8.81-18-16.61-10.17-11.17-13.89-13.88-4.4-3.39-5.08-6.78c-.56-2.8,1.65-4.68,3.39-6.78C748.85,537.94,753.65,541.77,759.43,547.69Z" transform="translate(-84.81 -30.2)"/><path class="cls-44" d="M547.87,480.78s35.91-52.85,65-69.79,103-78.59,50.14,28.45C635.79,494.65,617,528.2,591.91,534.3S521.45,534.3,547.87,480.78Z" transform="translate(-84.81 -30.2)"/><path class="cls-44" d="M772.13,530.91s-45.39-88.75-58.26-108.4-35.24-58.95-44.72-37.95-16.94,36.59,2.71,65.05,19.65,28.45,44.72,53.52,33.2,29.81,33.2,29.81Z" transform="translate(-84.81 -30.2)"/></svg>